<?xml version="1.0" encoding="utf-8"?>
<!-- Generator: Adobe Illustrator 15.0.0, SVG Export Plug-In . SVG Version: 6.00 Build 0)  -->
<!DOCTYPE svg PUBLIC "-//W3C//DTD SVG 1.1//EN" "http://www.w3.org/Graphics/SVG/1.1/DTD/svg11.dtd">
<svg version="1.1" id="Layer_1" xmlns="http://www.w3.org/2000/svg" xmlns:xlink="http://www.w3.org/1999/xlink" x="0px" y="0px"
	 width="581px" height="138px" viewBox="0 0 581 138" enable-background="new 0 0 581 138" xml:space="preserve">
<g>
	<path fill="#FFFFFF" stroke="#FFFFFF" stroke-width="2" stroke-miterlimit="10" d="M156.312,56.307h-2.221
		c-0.194-0.772-0.543-1.69-1.049-2.752s-1.069-2.065-1.693-3.009c-0.646-0.987-1.35-1.851-2.113-2.591
		c-0.764-0.74-1.5-1.164-2.21-1.271c-0.667-0.085-1.505-0.15-2.516-0.193c-1.011-0.043-1.947-0.064-2.807-0.064h-1.871v36.53
		c0,0.708,0.15,1.357,0.451,1.947c0.3,0.59,0.826,1.046,1.577,1.368c0.386,0.15,1.196,0.354,2.43,0.611s2.194,0.397,2.881,0.418
		v2.285h-21.564v-2.285c0.6-0.043,1.518-0.129,2.751-0.257c1.234-0.129,2.087-0.29,2.559-0.483c0.708-0.279,1.228-0.681,1.561-1.207
		c0.332-0.525,0.499-1.228,0.499-2.108v-36.82h-1.867c-0.665,0-1.492,0.016-2.478,0.048c-0.987,0.032-1.931,0.102-2.833,0.209
		c-0.708,0.086-1.443,0.51-2.205,1.271c-0.762,0.762-1.464,1.625-2.108,2.591c-0.644,0.965-1.213,1.99-1.706,3.074
		c-0.494,1.083-0.837,1.979-1.03,2.688h-2.253V43.915h39.813V56.307z"/>
	<path fill="#FFFFFF" stroke="#FFFFFF" stroke-width="2" stroke-miterlimit="10" d="M208.546,89.586h-18.957v-2.285
		c0.515-0.043,1.26-0.107,2.237-0.193c0.976-0.086,1.646-0.214,2.012-0.386c0.644-0.258,1.115-0.649,1.416-1.175
		c0.3-0.526,0.451-1.207,0.451-2.044V67.25h-21.468v15.899c0,0.751,0.124,1.384,0.371,1.899c0.246,0.515,0.734,0.965,1.464,1.352
		c0.364,0.193,1.014,0.386,1.947,0.58c0.933,0.193,1.668,0.301,2.205,0.322v2.285h-18.957v-2.285
		c0.515-0.043,1.26-0.107,2.237-0.193c0.976-0.086,1.646-0.214,2.011-0.386c0.644-0.258,1.116-0.649,1.417-1.175
		c0.3-0.526,0.451-1.207,0.451-2.044V50.545c0-0.687-0.14-1.314-0.418-1.883c-0.279-0.568-0.762-1.014-1.449-1.336
		c-0.579-0.278-1.282-0.525-2.108-0.74c-0.826-0.214-1.54-0.343-2.14-0.386v-2.285h18.957V46.2c-0.601,0.022-1.336,0.118-2.205,0.29
		c-0.869,0.172-1.519,0.333-1.947,0.482c-0.73,0.258-1.218,0.687-1.464,1.288c-0.247,0.601-0.371,1.255-0.371,1.963v14.161h21.468
		V50.545c0-0.687-0.14-1.314-0.418-1.883c-0.279-0.568-0.762-1.014-1.448-1.336c-0.58-0.278-1.282-0.525-2.108-0.74
		c-0.826-0.214-1.54-0.343-2.14-0.386v-2.285h18.957V46.2c-0.601,0.022-1.335,0.118-2.205,0.29s-1.518,0.333-1.947,0.482
		c-0.729,0.258-1.218,0.687-1.464,1.288c-0.247,0.601-0.37,1.255-0.37,1.963v32.925c0,0.751,0.123,1.384,0.37,1.899
		c0.247,0.515,0.735,0.965,1.464,1.352c0.365,0.193,1.014,0.386,1.947,0.58c0.933,0.193,1.668,0.301,2.205,0.322V89.586z"/>
	<path fill="#FFFFFF" stroke="#FFFFFF" stroke-width="2" stroke-miterlimit="10" d="M254.699,76.132l-0.869,13.454h-37.914v-2.285
		c0.644-0.043,1.501-0.134,2.574-0.273c1.072-0.14,1.771-0.284,2.092-0.435c0.688-0.322,1.164-0.74,1.434-1.255
		c0.268-0.515,0.402-1.169,0.402-1.963V50.545c0-0.708-0.119-1.336-0.355-1.883c-0.236-0.547-0.729-0.992-1.48-1.336
		c-0.578-0.278-1.357-0.525-2.332-0.74c-0.978-0.214-1.755-0.343-2.334-0.386v-2.285h35.34v11.007h-2.414
		c-0.43-1.63-1.357-3.363-2.785-5.198c-1.426-1.834-2.783-2.837-4.07-3.009c-0.666-0.085-1.459-0.15-2.383-0.193
		c-0.922-0.043-1.975-0.064-3.154-0.064h-7.176V64.61h5.148c1.652,0,2.859-0.155,3.621-0.467c0.762-0.311,1.432-0.831,2.012-1.561
		c0.473-0.622,0.875-1.453,1.207-2.494c0.332-1.041,0.553-2.022,0.66-2.945h2.414v17.895h-2.414
		c-0.086-1.03-0.316-2.119-0.693-3.267c-0.375-1.147-0.766-1.979-1.174-2.494c-0.666-0.837-1.422-1.384-2.27-1.642
		s-1.969-0.386-3.363-0.386h-5.148v13.688c0,1.371,0.096,2.453,0.289,3.246c0.193,0.792,0.568,1.392,1.127,1.799
		c0.557,0.407,1.318,0.669,2.285,0.787c0.965,0.118,2.338,0.177,4.119,0.177c0.709,0,1.641,0,2.801,0
		c1.158,0,2.135-0.043,2.928-0.129c0.816-0.085,1.658-0.241,2.527-0.466c0.869-0.226,1.484-0.531,1.85-0.917
		c0.986-1.03,2.023-2.591,3.107-4.683c1.082-2.092,1.773-3.631,2.074-4.619H254.699z"/>
	<path fill="#FFFFFF" stroke="#FFFFFF" stroke-width="2" stroke-miterlimit="10" d="M324.087,46.2
		c-0.601,0.022-1.48,0.15-2.64,0.386c-1.158,0.236-2.103,0.59-2.832,1.062c-0.729,0.494-1.234,1.513-1.513,3.057
		c-0.279,1.545-0.418,3.434-0.418,5.665v19.858c0,2.532-0.526,4.731-1.577,6.598c-1.052,1.867-2.436,3.401-4.152,4.603
		c-1.695,1.159-3.481,1.99-5.358,2.494c-1.878,0.504-3.675,0.756-5.392,0.756c-2.746,0-5.192-0.359-7.338-1.078
		s-3.948-1.69-5.407-2.913c-1.438-1.223-2.521-2.623-3.25-4.2c-0.73-1.577-1.095-3.224-1.095-4.94V50.545
		c0-0.751-0.124-1.378-0.37-1.883c-0.247-0.504-0.746-0.971-1.497-1.4c-0.536-0.3-1.223-0.542-2.06-0.725
		c-0.837-0.182-1.523-0.294-2.06-0.338v-2.285h19.021V46.2c-0.602,0.022-1.357,0.118-2.27,0.29
		c-0.912,0.171-1.582,0.332-2.012,0.482c-0.729,0.258-1.218,0.686-1.464,1.287c-0.247,0.601-0.37,1.254-0.37,1.962v25.213
		c0,1.222,0.134,2.503,0.402,3.843c0.268,1.34,0.799,2.589,1.593,3.746c0.837,1.18,1.974,2.145,3.412,2.895
		c1.437,0.75,3.411,1.125,5.922,1.125c2.36,0,4.34-0.375,5.938-1.125c1.598-0.75,2.858-1.737,3.781-2.959
		c0.88-1.158,1.502-2.369,1.867-3.634c0.364-1.265,0.547-2.541,0.547-3.827V56.781c0-2.38-0.172-4.325-0.515-5.836
		c-0.344-1.512-0.849-2.503-1.513-2.975c-0.752-0.536-1.776-0.954-3.074-1.254c-1.298-0.3-2.291-0.471-2.977-0.515v-2.285h18.667
		V46.2z"/>
	<path fill="#FFFFFF" stroke="#FFFFFF" stroke-width="2" stroke-miterlimit="10" d="M361.453,68.312
		c1.33,0.901,2.436,2.082,3.315,3.541c0.879,1.459,1.319,3.229,1.319,5.311c0,2.124-0.462,3.97-1.384,5.536
		c-0.923,1.566-2.124,2.854-3.604,3.862c-1.438,0.987-3.063,1.738-4.876,2.253c-1.813,0.515-3.686,0.772-5.617,0.772h-21.628v-2.285
		c0.515-0.043,1.266-0.134,2.253-0.273c0.986-0.14,1.694-0.306,2.124-0.499c0.665-0.3,1.138-0.703,1.416-1.207
		c0.279-0.504,0.419-1.153,0.419-1.947V50.545c0-0.729-0.124-1.373-0.37-1.931c-0.247-0.558-0.735-1.008-1.465-1.352
		c-0.644-0.322-1.362-0.568-2.156-0.74s-1.459-0.279-1.995-0.322v-2.285h21.081c1.63,0,3.191,0.161,4.683,0.483
		s2.913,0.891,4.265,1.706c1.266,0.751,2.307,1.77,3.122,3.058c0.815,1.287,1.223,2.854,1.223,4.699
		c0,1.609-0.289,3.042-0.868,4.297c-0.58,1.255-1.396,2.333-2.446,3.234c-0.987,0.858-2.119,1.583-3.396,2.173
		c-1.277,0.59-2.655,1.046-4.136,1.368v0.29c1.309,0.15,2.772,0.478,4.393,0.982C358.744,66.708,360.187,67.41,361.453,68.312z
		 M353.67,61.419c0.791-0.924,1.343-1.935,1.653-3.031c0.311-1.097,0.466-2.397,0.466-3.902c0-2.515-0.686-4.487-2.056-5.917
		s-3.532-2.144-6.485-2.144c-0.686,0-1.548,0.016-2.585,0.048c-1.039,0.032-1.911,0.059-2.617,0.08v17.573h4.078
		c1.755,0,3.259-0.225,4.511-0.677C351.888,62.999,352.898,62.322,353.67,61.419z M358.139,76.004c0-2.704-0.907-4.924-2.72-6.663
		c-1.813-1.738-4.404-2.607-7.773-2.607c-1.373,0-2.531,0.016-3.476,0.048s-1.652,0.06-2.124,0.081v16.092
		c0,1.352,0.547,2.372,1.642,3.058c1.094,0.687,2.617,1.03,4.57,1.03c3.196,0,5.643-0.934,7.338-2.8
		C357.29,82.376,358.139,79.63,358.139,76.004z"/>
	<path fill="#FFFFFF" stroke="#FFFFFF" stroke-width="2" stroke-miterlimit="10" d="M412.626,46.2
		c-0.365,0.022-0.944,0.167-1.737,0.435c-0.795,0.269-1.363,0.531-1.706,0.789c-0.837,0.515-1.406,0.912-1.706,1.191
		c-0.301,0.279-0.88,1.009-1.738,2.188c-1.673,2.361-3.218,4.753-4.635,7.177c-1.416,2.425-3.186,5.504-5.311,9.237
		c-0.794,1.374-1.319,2.478-1.576,3.315c-0.258,0.837-0.387,2.049-0.387,3.637v8.722c0,0.772,0.155,1.443,0.467,2.011
		c0.311,0.569,0.842,1.025,1.593,1.368c0.451,0.172,1.256,0.381,2.414,0.627c1.159,0.247,2.092,0.381,2.8,0.402v2.285h-21.37v-2.285
		c0.6-0.043,1.501-0.123,2.703-0.241c1.201-0.118,2.038-0.274,2.511-0.467c0.772-0.322,1.304-0.761,1.593-1.32
		c0.29-0.558,0.435-1.244,0.435-2.06V72.109c0-0.343-0.209-0.971-0.628-1.883c-0.418-0.912-0.917-1.926-1.496-3.042
		c-1.287-2.489-2.715-5.182-4.28-8.079c-1.567-2.896-2.93-5.375-4.088-7.435c-0.708-1.223-1.336-2.146-1.883-2.768
		c-0.547-0.622-1.175-1.169-1.883-1.641c-0.515-0.322-1.132-0.568-1.851-0.74s-1.368-0.279-1.947-0.322v-2.285h19.49V46.2
		c-2.188,0.043-3.734,0.193-4.636,0.449c-0.9,0.256-1.352,0.62-1.352,1.09c0,0.129,0.064,0.353,0.193,0.674s0.312,0.728,0.547,1.221
		c0.277,0.558,0.609,1.196,0.995,1.915c0.385,0.718,0.749,1.411,1.092,2.075c1.006,1.909,2.034,3.813,3.083,5.711
		s2.419,4.371,4.11,7.417c3.366-5.426,5.934-9.656,7.702-12.691c1.77-3.034,2.654-4.852,2.654-5.451
		c0-0.493-0.183-0.889-0.547-1.189c-0.365-0.3-0.849-0.535-1.449-0.707c-0.622-0.171-1.298-0.284-2.027-0.337
		s-1.405-0.113-2.027-0.177v-2.285h15.878V46.2z"/>
	<path fill="#FFFFFF" stroke="#FFFFFF" stroke-width="2" stroke-miterlimit="10" d="M443.779,68.633
		c0.966,1.073,1.679,2.248,2.141,3.524c0.461,1.277,0.692,2.763,0.692,4.458c0,4.034-1.492,7.36-4.474,9.978
		c-2.983,2.618-6.685,3.927-11.104,3.927c-2.038,0-4.077-0.317-6.115-0.95s-3.798-1.4-5.278-2.301l-1.384,2.35h-2.575l-0.45-15.642
		h2.607c0.536,1.931,1.163,3.675,1.883,5.23c0.718,1.556,1.668,3.009,2.848,4.361c1.116,1.266,2.419,2.274,3.911,3.025
		c1.491,0.751,3.224,1.126,5.197,1.126c1.48,0,2.773-0.193,3.879-0.58c1.104-0.387,2-0.935,2.688-1.644
		c0.687-0.709,1.195-1.542,1.528-2.498c0.333-0.956,0.499-2.057,0.499-3.304c0-1.826-0.515-3.529-1.545-5.108
		s-2.564-2.777-4.603-3.593c-1.395-0.555-2.993-1.17-4.796-1.843c-1.802-0.673-3.357-1.309-4.666-1.908
		c-2.575-1.158-4.576-2.676-6.003-4.552c-1.427-1.877-2.141-4.328-2.141-7.353c0-1.737,0.354-3.357,1.062-4.858
		s1.716-2.842,3.025-4.022c1.244-1.116,2.714-1.99,4.409-2.622c1.695-0.633,3.465-0.95,5.311-0.95c2.103,0,3.985,0.322,5.648,0.966
		c1.663,0.644,3.181,1.395,4.555,2.253l1.319-2.189h2.575l0.257,15.159h-2.606c-0.473-1.738-1.004-3.4-1.594-4.988
		s-1.357-3.025-2.301-4.313c-0.923-1.244-2.05-2.237-3.38-2.977s-2.961-1.11-4.892-1.11c-2.039,0-3.777,0.655-5.214,1.963
		c-1.438,1.309-2.157,2.908-2.157,4.795c0,1.974,0.462,3.61,1.385,4.908c0.922,1.298,2.263,2.366,4.022,3.203
		c1.566,0.751,3.106,1.4,4.619,1.947c1.513,0.547,2.977,1.132,4.393,1.754c1.288,0.558,2.527,1.191,3.718,1.899
		S442.899,67.689,443.779,68.633z"/>
	<path fill="#FFFFFF" stroke="#FFFFFF" stroke-width="2" stroke-miterlimit="10" d="M482.078,68.633
		c0.966,1.073,1.679,2.248,2.141,3.524c0.461,1.277,0.692,2.763,0.692,4.458c0,4.034-1.492,7.36-4.474,9.978
		c-2.983,2.618-6.685,3.927-11.104,3.927c-2.038,0-4.077-0.317-6.115-0.95s-3.798-1.4-5.278-2.301l-1.384,2.35h-2.575l-0.45-15.642
		h2.607c0.536,1.931,1.163,3.675,1.883,5.23c0.718,1.556,1.668,3.009,2.848,4.361c1.116,1.266,2.419,2.274,3.911,3.025
		c1.491,0.751,3.224,1.126,5.197,1.126c1.48,0,2.773-0.193,3.879-0.58c1.104-0.387,2-0.935,2.688-1.644
		c0.687-0.709,1.195-1.542,1.528-2.498c0.333-0.956,0.499-2.057,0.499-3.304c0-1.826-0.515-3.529-1.545-5.108
		s-2.564-2.777-4.603-3.593c-1.395-0.555-2.993-1.17-4.796-1.843c-1.802-0.673-3.357-1.309-4.666-1.908
		c-2.575-1.158-4.576-2.676-6.003-4.552c-1.427-1.877-2.141-4.328-2.141-7.353c0-1.737,0.354-3.357,1.062-4.858
		s1.716-2.842,3.025-4.022c1.244-1.116,2.714-1.99,4.409-2.622c1.695-0.633,3.465-0.95,5.311-0.95c2.103,0,3.985,0.322,5.648,0.966
		c1.663,0.644,3.181,1.395,4.555,2.253l1.319-2.189h2.575l0.257,15.159h-2.606c-0.473-1.738-1.004-3.4-1.594-4.988
		s-1.357-3.025-2.301-4.313c-0.923-1.244-2.05-2.237-3.38-2.977s-2.961-1.11-4.892-1.11c-2.039,0-3.777,0.655-5.214,1.963
		c-1.438,1.309-2.157,2.908-2.157,4.795c0,1.974,0.462,3.61,1.385,4.908c0.922,1.298,2.263,2.366,4.022,3.203
		c1.566,0.751,3.106,1.4,4.619,1.947c1.513,0.547,2.977,1.132,4.393,1.754c1.288,0.558,2.527,1.191,3.718,1.899
		S481.198,67.689,482.078,68.633z"/>
	<path fill="#FFFFFF" stroke="#FFFFFF" stroke-width="2" stroke-miterlimit="10" d="M530.355,76.132l-0.869,13.454h-37.914v-2.285
		c0.645-0.043,1.502-0.134,2.575-0.273c1.072-0.14,1.771-0.284,2.092-0.435c0.687-0.322,1.164-0.74,1.433-1.255
		c0.268-0.515,0.402-1.169,0.402-1.963V50.545c0-0.708-0.118-1.336-0.354-1.883c-0.236-0.547-0.729-0.992-1.48-1.336
		c-0.579-0.278-1.357-0.525-2.333-0.74c-0.977-0.214-1.754-0.343-2.334-0.386v-2.285h35.34v11.007h-2.414
		c-0.43-1.63-1.357-3.363-2.784-5.198s-2.784-2.837-4.071-3.009c-0.665-0.085-1.459-0.15-2.382-0.193s-1.975-0.064-3.154-0.064
		h-7.177V64.61h5.149c1.652,0,2.859-0.155,3.621-0.467c0.761-0.311,1.432-0.831,2.012-1.561c0.472-0.622,0.874-1.453,1.206-2.494
		c0.333-1.041,0.553-2.022,0.66-2.945h2.414v17.895h-2.414c-0.086-1.03-0.316-2.119-0.692-3.267
		c-0.375-1.147-0.767-1.979-1.174-2.494c-0.666-0.837-1.422-1.384-2.27-1.642s-1.969-0.386-3.363-0.386h-5.149v13.688
		c0,1.371,0.097,2.453,0.289,3.246c0.193,0.792,0.568,1.392,1.127,1.799c0.558,0.407,1.319,0.669,2.285,0.787
		s2.338,0.177,4.119,0.177c0.709,0,1.642,0,2.801,0c1.158,0,2.135-0.043,2.929-0.129c0.815-0.085,1.657-0.241,2.526-0.466
		c0.869-0.226,1.485-0.531,1.851-0.917c0.986-1.03,2.022-2.591,3.106-4.683c1.083-2.092,1.774-3.631,2.075-4.619H530.355z"/>
	<path fill="#FFFFFF" stroke="#FFFFFF" stroke-width="2" stroke-miterlimit="10" d="M575.478,46.2
		c-0.365,0.022-0.944,0.167-1.737,0.435c-0.795,0.269-1.363,0.531-1.706,0.789c-0.837,0.515-1.406,0.912-1.706,1.191
		c-0.301,0.279-0.88,1.009-1.738,2.188c-1.673,2.361-3.218,4.753-4.635,7.177c-1.416,2.425-3.186,5.504-5.311,9.237
		c-0.794,1.374-1.319,2.478-1.576,3.315c-0.258,0.837-0.387,2.049-0.387,3.637v8.722c0,0.772,0.155,1.443,0.467,2.011
		c0.311,0.569,0.842,1.025,1.593,1.368c0.451,0.172,1.256,0.381,2.414,0.627c1.159,0.247,2.092,0.381,2.8,0.402v2.285h-21.37v-2.285
		c0.6-0.043,1.501-0.123,2.703-0.241c1.201-0.118,2.038-0.274,2.511-0.467c0.772-0.322,1.304-0.761,1.593-1.32
		c0.29-0.558,0.435-1.244,0.435-2.06V72.109c0-0.343-0.209-0.971-0.628-1.883c-0.418-0.912-0.917-1.926-1.496-3.042
		c-1.287-2.489-2.715-5.182-4.28-8.079c-1.567-2.896-2.93-5.375-4.088-7.435c-0.708-1.223-1.336-2.146-1.883-2.768
		c-0.547-0.622-1.175-1.169-1.883-1.641c-0.515-0.322-1.132-0.568-1.851-0.74s-1.368-0.279-1.947-0.322v-2.285h19.49V46.2
		c-2.188,0.043-3.734,0.193-4.636,0.449c-0.9,0.256-1.352,0.62-1.352,1.09c0,0.129,0.064,0.353,0.193,0.674s0.312,0.728,0.547,1.221
		c0.277,0.558,0.609,1.196,0.995,1.915c0.385,0.718,0.749,1.411,1.092,2.075c1.006,1.909,2.034,3.813,3.083,5.711
		s2.419,4.371,4.11,7.417c3.366-5.426,5.934-9.656,7.702-12.691c1.77-3.034,2.654-4.852,2.654-5.451
		c0-0.493-0.183-0.889-0.547-1.189c-0.365-0.3-0.849-0.535-1.449-0.707c-0.622-0.171-1.298-0.284-2.027-0.337
		s-1.405-0.113-2.027-0.177v-2.285h15.878V46.2z"/>
</g>
<g>
	<path fill="#FFFFFF" d="M78.957,22.108c3.258,1.247,5.797,3.378,7.619,6.397c1.628,2.636,2.443,7.427,2.443,14.375v2.443v48.586
		l0.072,2.228c0.047,2.012,0.359,3.521,0.935,4.528c0.479,0.862,1.653,1.94,3.521,3.234c-0.911,1.39-1.796,2.443-2.659,3.162
		c-1.006,0.767-2.396,1.606-4.168,2.516c-1.869,0.959-3.139,1.845-3.809,2.659c-0.719,0.767-1.342,2.109-1.869,4.025
		c-3.259-0.575-5.678-1.988-7.259-4.24c-0.719-1.054-1.27-2.3-1.653-3.738c-0.432-1.581-0.815-3.881-1.15-6.899l-0.072-1.006
		c-1.006,1.821-2.396,3.498-4.168,5.031l-3.163,2.731c-2.587,2.205-3.906,4.912-3.953,8.122h-0.647
		c-7.14,0-13.608-1.605-19.406-4.815c-5.846-3.258-10.397-7.69-13.655-13.296c-3.306-5.702-4.959-12.002-4.959-18.902
		c0-4.456,0.862-8.864,2.587-13.225c1.628-4.264,4.072-8.384,7.331-12.362c3.114-3.881,6.852-7.354,11.212-10.421
		c3.402-2.3,5.51-3.45,6.325-3.45c0.479,0,0.719,0.216,0.719,0.647c0,0.288-0.359,0.767-1.078,1.438
		c-3.642,2.923-6.588,6.853-8.84,11.787c-2.253,4.936-3.378,9.846-3.378,14.734c0,4.792,0.935,9.343,2.803,13.655
		c1.869,4.312,4.552,8.003,8.05,11.068c3.497,3.067,7.546,5.391,12.146,6.972V29.943c-2.923,1.821-5.487,3.09-7.69,3.809
		c-2.013,0.623-4.769,0.934-8.266,0.934c-1.773,0-4.337-0.119-7.69-0.359c-3.115-0.191-5.416-0.287-6.9-0.287
		c-4.168,0-7.595,0.982-10.278,2.947c-2.636,1.917-3.953,4.528-3.953,7.834c0,2.205,0.719,4.073,2.156,5.606
		c1.389,1.581,3.042,2.372,4.959,2.372c2.06,0,3.928-0.694,5.606-2.084c0.958-0.814,1.557-1.222,1.797-1.222
		c0.67,0,1.006,0.359,1.006,1.078c0,1.006-1.006,2.061-3.019,3.163c-1.965,1.055-4.049,1.581-6.253,1.581
		c-2.731,0-5.151-0.742-7.259-2.228c-2.156-1.438-3.857-3.425-5.103-5.965c-1.294-2.539-1.94-5.318-1.94-8.337
		c0-2.778,0.575-5.462,1.725-8.049c1.15-2.539,2.731-4.744,4.744-6.612c1.964-1.82,4.408-3.282,7.331-4.384
		c2.731-1.053,5.702-1.581,8.912-1.581c4.887,0,10.828,2.061,17.824,6.181c1.964,1.15,3.545,1.941,4.744,2.372
		c1.246,0.431,2.635,0.647,4.168,0.647c0.863,0,1.988-0.191,3.378-0.575v-0.935c0.239-5.989,1.653-8.984,4.24-8.984
		c1.341,0,2.012,0.839,2.012,2.516c0,2.109-1.293,4.887-3.881,8.337v8.696c1.438-1.484,2.731-2.611,3.881-3.378
		c1.294-0.862,3.402-2.013,6.325-3.45c2.108-1.102,3.689-2.18,4.743-3.234C77.255,25.248,78.189,23.833,78.957,22.108z
		 M61.204,48.701v16.531h9.918V48.989c0-4.6-0.336-7.762-1.006-9.487c-0.671-1.676-1.917-2.515-3.737-2.515
		c-1.965,0-3.306,0.862-4.025,2.587C61.587,41.298,61.204,44.342,61.204,48.701z M71.123,73.641v-5.822h-9.918v5.822H71.123z
		 M71.123,86.938V76.229h-9.918v24.221c0.622,0.192,1.222,0.288,1.797,0.288c2.587,0,4.6-1.053,6.037-3.163
		c1.389-2.107,2.084-4.982,2.084-8.625V86.938z"/>
</g>
<rect x="975" y="400" fill="#008BEA" width="243" height="243"/>
<text transform="matrix(1 0 0 1 1022.6807 599.6387)" fill="#FFFFFF" font-family="'Agincourt'" font-size="237.6034">U</text>
</svg>
