<?xml version="1.0" encoding="UTF-8" standalone="no"?>
<svg width="156px" height="117px" viewBox="0 0 156 117" version="1.1" xmlns="http://www.w3.org/2000/svg" xmlns:xlink="http://www.w3.org/1999/xlink" xmlns:sketch="http://www.bohemiancoding.com/sketch/ns">
    <!-- Generator: Sketch 3.4.4 (17249) - http://www.bohemiancoding.com/sketch -->
    <title>Desktop HD</title>
    <desc>Created with Sketch.</desc>
    <defs></defs>
    <g id="Page-1" stroke="none" stroke-width="1" fill="none" fill-rule="evenodd" sketch:type="MSPage">
        <g id="Desktop-HD" sketch:type="MSArtboardGroup" transform="translate(-373.000000, -1207.000000)">
            <g id="news-+-Desktop-HD" sketch:type="MSLayerGroup" transform="translate(373.000000, 1207.000000)">
                <g id="school" transform="translate(23.000000, 8.000000)" sketch:type="MSShapeGroup">
                    <g id="Group">
                        <path d="M104.796699,100.271186 L5.10919922,100.271186 L5.10919922,53.5932203 L25.7344141,53.5932203 L54.9529492,24.2033898 L84.1723438,53.5932203 L104.796699,53.5932203 L104.796699,100.271186 Z" id="Shape" fill="#E6BE94"></path>
                        <rect id="Rectangle-path" fill="#996459" x="44.6404492" y="79.5254237" width="20.625" height="20.7457627"></rect>
                        <path d="M64.8357617,72.6101695 L45.0701367,72.6101695 C44.8327344,72.6101695 44.6404492,72.8035805 44.6404492,73.0423729 L44.6404492,79.5254237 L65.2654492,79.5254237 L65.2654492,73.0423729 C65.2654492,72.8035805 65.0731641,72.6101695 64.8357617,72.6101695 L64.8357617,72.6101695 Z" id="Shape" fill="#4BB9EC"></path>
                        <path d="M70.8161523,10.3728814 L73.6175,6.1455 C73.9683398,5.61540254 74.0018555,4.93338559 73.7030078,4.37108898 C73.4041602,3.80879237 72.8219336,3.45762712 72.1875,3.45762712 L55,3.45762712 C54.0499609,3.45762712 53.28125,4.23083898 53.28125,5.18644068 L53.28125,15.559322 C53.28125,16.5149237 54.0499609,17.2881356 55,17.2881356 L72.1875,17.2881356 C72.8219336,17.2881356 73.404375,16.9369703 73.7032227,16.3746737 C74.0020703,15.8123771 73.9683398,15.1303602 73.6177148,14.6002627 L70.8161523,10.3728814 L70.8161523,10.3728814 Z" id="Shape" fill="#FF4F19"></path>
                        <path d="M55,25.9322034 C54.0499609,25.9322034 53.28125,25.1589915 53.28125,24.2033898 L53.28125,1.72881356 C53.28125,0.773211864 54.0499609,0 55,0 C55.9500391,0 56.71875,0.773211864 56.71875,1.72881356 L56.71875,24.2033898 C56.71875,25.1589915 55.9500391,25.9322034 55,25.9322034 L55,25.9322034 Z" id="Shape" fill="#5C546A"></path>
                        <path d="M61.9590039,32.1857542 C62.2241211,31.539178 62.8518945,31.1186441 63.5469141,31.1186441 L96.2031641,31.1186441 C96.7905469,31.1186441 97.3377539,31.4207542 97.6533594,31.9188686 L109.684609,50.9358178 C110.021914,51.4693729 110.042109,52.1429619 109.741758,52.6966144 C109.439688,53.2487542 108.862188,53.5930042 108.234414,53.5930042 L82.4531641,53.5930042 C81.9966211,53.5930042 81.5602734,53.4106144 81.2380078,53.0864619 L62.3317578,34.0695127 C61.8397656,33.575072 61.6919531,32.8323305 61.9590039,32.1857542 L61.9590039,32.1857542 Z" id="Shape" fill="#FF4F19"></path>
                        <path d="M47.9941602,32.1857542 C47.7288281,31.5389619 47.1010547,31.1186441 46.40625,31.1186441 L13.75,31.1186441 C13.1626172,31.1186441 12.6154102,31.4207542 12.2998047,31.9188686 L0.268554687,50.9358178 C-0.06875,51.4693729 -0.0889453125,52.1429619 0.21140625,52.6966144 C0.513691406,53.2487542 1.09097656,53.5932203 1.71875,53.5932203 L27.5,53.5932203 C27.956543,53.5932203 28.3928906,53.4108305 28.7151562,53.086678 L47.6214062,34.0697288 C48.1131836,33.575072 48.2609961,32.8323305 47.9941602,32.1857542 L47.9941602,32.1857542 Z" id="Shape" fill="#FF4F19"></path>
                        <path d="M84.195332,55.2984788 C83.7555469,55.2984788 83.3157617,55.1297034 82.9801758,54.7919364 L55,26.6481483 L27.0200391,54.7919364 C26.3486523,55.4672542 25.2608984,55.4672542 24.5895117,54.7919364 C23.918125,54.1166186 23.918125,53.0224958 24.5895117,52.347178 L53.7848437,22.9809025 C54.4562305,22.3055847 55.5439844,22.3055847 56.2153711,22.9809025 L85.4107031,52.347178 C86.0820898,53.0224958 86.0820898,54.1166186 85.4107031,54.7919364 C85.0746875,55.1294873 84.6351172,55.2984788 84.195332,55.2984788 L84.195332,55.2984788 Z" id="Shape" fill="#E3001E"></path>
                        <ellipse id="Oval" fill="#FFEBB7" cx="55.0002148" cy="53.5932203" rx="10.3125" ry="10.3728814"></ellipse>
                        <path d="M55,46.6779661 C54.0499609,46.6779661 53.28125,47.451178 53.28125,48.4067797 L53.28125,51.8644068 L49.84375,51.8644068 C48.8937109,51.8644068 48.125,52.6376186 48.125,53.5932203 C48.125,54.548822 48.8937109,55.3220339 49.84375,55.3220339 L55,55.3220339 C55.9500391,55.3220339 56.71875,54.548822 56.71875,53.5932203 L56.71875,48.4067797 C56.71875,47.451178 55.9500391,46.6779661 55,46.6779661 L55,46.6779661 Z" id="Shape" fill="#5C546A"></path>
                        <g transform="translate(70.468750, 58.779661)" id="Shape">
                            <path d="M10.2654492,6.05084746 C10.2654492,3.66378814 8.34173828,1.72881356 5.96857422,1.72881356 C3.59541016,1.72881356 1.67169922,3.66378814 1.67169922,6.05084746 C1.67169922,6.34690678 1.70199219,6.63583475 1.75828125,6.91525424 L1.67169922,6.91525424 L1.67169922,13.8305085 L10.2654492,13.8305085 L10.2654492,6.91525424 L10.1788672,6.91525424 C10.2353711,6.63583475 10.2654492,6.34690678 10.2654492,6.05084746 L10.2654492,6.05084746 Z" fill="#4BB9EC"></path>
                            <path d="M6.015625,0 C2.69886719,0 0,2.71466949 0,6.05084746 L0,13.8305085 C0,14.7861102 0.768710937,15.559322 1.71875,15.559322 L10.3125,15.559322 C11.2625391,15.559322 12.03125,14.7861102 12.03125,13.8305085 L12.03125,6.05084746 C12.03125,2.71466949 9.33238281,0 6.015625,0 L6.015625,0 Z M6.015625,3.45762712 C7.43724609,3.45762712 8.59375,4.62090254 8.59375,6.05084746 L8.59375,6.91525424 L3.4375,6.91525424 L3.4375,6.05084746 C3.4375,4.62090254 4.59400391,3.45762712 6.015625,3.45762712 L6.015625,3.45762712 Z M3.4375,12.1016949 L3.4375,10.3728814 L8.59375,10.3728814 L8.59375,12.1016949 L3.4375,12.1016949 L3.4375,12.1016949 Z" fill="#7E5C62"></path>
                        </g>
                        <g transform="translate(27.500000, 79.525424)">
                            <rect id="Rectangle-path" fill="#4BB9EC" x="1.71896484" y="1.72881356" width="8.59375" height="10.3728814"></rect>
                            <path d="M10.3125,0 L1.71875,0 C0.768710938,0 0,0.773211864 0,1.72881356 L0,12.1016949 C0,13.0572966 0.768710938,13.8305085 1.71875,13.8305085 L10.3125,13.8305085 C11.2625391,13.8305085 12.03125,13.0572966 12.03125,12.1016949 L12.03125,1.72881356 C12.03125,0.773211864 11.2625391,0 10.3125,0 L10.3125,0 Z M8.59375,3.45762712 L8.59375,5.18644068 L3.4375,5.18644068 L3.4375,3.45762712 L8.59375,3.45762712 L8.59375,3.45762712 Z M3.4375,10.3728814 L3.4375,8.6440678 L8.59375,8.6440678 L8.59375,10.3728814 L3.4375,10.3728814 L3.4375,10.3728814 Z" id="Shape" fill="#7E5C62"></path>
                        </g>
                        <g transform="translate(11.816406, 79.525424)">
                            <rect id="Rectangle-path" fill="#4BB9EC" x="1.88675781" y="1.72881356" width="8.59375" height="10.3728814"></rect>
                            <path d="M10.480293,0 L1.88654297,0 C0.936503906,0 0.167792969,0.773211864 0.167792969,1.72881356 L0.167792969,12.1016949 C0.167792969,13.0572966 0.936503906,13.8305085 1.88654297,13.8305085 L10.480293,13.8305085 C11.430332,13.8305085 12.199043,13.0572966 12.199043,12.1016949 L12.199043,1.72881356 C12.199043,0.773211864 11.430332,0 10.480293,0 L10.480293,0 Z M8.76154297,3.45762712 L8.76154297,5.18644068 L3.60529297,5.18644068 L3.60529297,3.45762712 L8.76154297,3.45762712 L8.76154297,3.45762712 Z M3.60529297,10.3728814 L3.60529297,8.6440678 L8.76154297,8.6440678 L8.76154297,10.3728814 L3.60529297,10.3728814 L3.60529297,10.3728814 Z" id="Shape" fill="#7E5C62"></path>
                        </g>
                        <g transform="translate(85.937500, 79.525424)">
                            <rect id="Rectangle-path" fill="#4BB9EC" x="1.71875" y="1.72881356" width="8.59375" height="10.3728814"></rect>
                            <path d="M10.3125,0 L1.71875,0 C0.768710937,0 0,0.773211864 0,1.72881356 L0,12.1016949 C0,13.0572966 0.768710937,13.8305085 1.71875,13.8305085 L10.3125,13.8305085 C11.2625391,13.8305085 12.03125,13.0572966 12.03125,12.1016949 L12.03125,1.72881356 C12.03125,0.773211864 11.2625391,0 10.3125,0 L10.3125,0 Z M8.59375,3.45762712 L8.59375,5.18644068 L3.4375,5.18644068 L3.4375,3.45762712 L8.59375,3.45762712 L8.59375,3.45762712 Z M3.4375,10.3728814 L3.4375,8.6440678 L8.59375,8.6440678 L8.59375,10.3728814 L3.4375,10.3728814 L3.4375,10.3728814 Z" id="Shape" fill="#7E5C62"></path>
                        </g>
                        <g transform="translate(70.253906, 79.525424)">
                            <rect id="Rectangle-path" fill="#4BB9EC" x="1.88675781" y="1.72881356" width="8.59375" height="10.3728814"></rect>
                            <path d="M10.480293,0 L1.88654297,0 C0.936503906,0 0.167792969,0.773211864 0.167792969,1.72881356 L0.167792969,12.1016949 C0.167792969,13.0572966 0.936503906,13.8305085 1.88654297,13.8305085 L10.480293,13.8305085 C11.430332,13.8305085 12.199043,13.0572966 12.199043,12.1016949 L12.199043,1.72881356 C12.199043,0.773211864 11.430332,0 10.480293,0 L10.480293,0 Z M8.76154297,3.45762712 L8.76154297,5.18644068 L3.60529297,5.18644068 L3.60529297,3.45762712 L8.76154297,3.45762712 L8.76154297,3.45762712 Z M3.60529297,10.3728814 L3.60529297,8.6440678 L8.76154297,8.6440678 L8.76154297,10.3728814 L3.60529297,10.3728814 L3.60529297,10.3728814 Z" id="Shape" fill="#7E5C62"></path>
                        </g>
                        <g transform="translate(85.722656, 58.779661)" id="Shape">
                            <path d="M10.433457,6.05084746 C10.433457,3.66378814 8.50974609,1.72881356 6.13658203,1.72881356 C3.76341797,1.72881356 1.83970703,3.66378814 1.83970703,6.05084746 C1.83970703,6.34690678 1.87,6.63583475 1.92628906,6.91525424 L1.83970703,6.91525424 L1.83970703,13.8305085 L10.433457,13.8305085 L10.433457,6.91525424 L10.346875,6.91525424 C10.4031641,6.63583475 10.433457,6.34690678 10.433457,6.05084746 L10.433457,6.05084746 Z" fill="#4BB9EC"></path>
                            <path d="M6.18341797,0 C2.86666016,0 0.167792969,2.71466949 0.167792969,6.05084746 L0.167792969,13.8305085 C0.167792969,14.7861102 0.936503906,15.559322 1.88654297,15.559322 L10.480293,15.559322 C11.430332,15.559322 12.199043,14.7861102 12.199043,13.8305085 L12.199043,6.05084746 C12.199043,2.71466949 9.50017578,0 6.18341797,0 L6.18341797,0 Z M6.18341797,3.45762712 C7.60503906,3.45762712 8.76154297,4.62090254 8.76154297,6.05084746 L8.76154297,6.91525424 L3.60529297,6.91525424 L3.60529297,6.05084746 C3.60529297,4.62090254 4.76179687,3.45762712 6.18341797,3.45762712 L6.18341797,3.45762712 Z M3.60529297,12.1016949 L3.60529297,10.3728814 L8.76154297,10.3728814 L8.76154297,12.1016949 L3.60529297,12.1016949 L3.60529297,12.1016949 Z" fill="#7E5C62"></path>
                        </g>
                        <g transform="translate(11.816406, 58.779661)" id="Shape">
                            <path d="M10.433457,6.05084746 C10.433457,3.66378814 8.50974609,1.72881356 6.13658203,1.72881356 C3.76341797,1.72881356 1.83970703,3.66378814 1.83970703,6.05084746 C1.83970703,6.34690678 1.87,6.63583475 1.92628906,6.91525424 L1.83970703,6.91525424 L1.83970703,13.8305085 L10.433457,13.8305085 L10.433457,6.91525424 L10.346875,6.91525424 C10.4031641,6.63583475 10.433457,6.34690678 10.433457,6.05084746 L10.433457,6.05084746 Z" fill="#4BB9EC"></path>
                            <path d="M6.18341797,0 C2.86666016,0 0.167792969,2.71466949 0.167792969,6.05084746 L0.167792969,13.8305085 C0.167792969,14.7861102 0.936503906,15.559322 1.88654297,15.559322 L10.480293,15.559322 C11.430332,15.559322 12.199043,14.7861102 12.199043,13.8305085 L12.199043,6.05084746 C12.199043,2.71466949 9.50017578,0 6.18341797,0 L6.18341797,0 Z M6.18341797,3.45762712 C7.60503906,3.45762712 8.76154297,4.62090254 8.76154297,6.05084746 L8.76154297,6.91525424 L3.60529297,6.91525424 L3.60529297,6.05084746 C3.60529297,4.62090254 4.76179688,3.45762712 6.18341797,3.45762712 L6.18341797,3.45762712 Z M3.60529297,12.1016949 L3.60529297,10.3728814 L8.76154297,10.3728814 L8.76154297,12.1016949 L3.60529297,12.1016949 L3.60529297,12.1016949 Z" fill="#7E5C62"></path>
                        </g>
                        <g transform="translate(27.285156, 58.779661)" id="Shape">
                            <path d="M10.3864062,6.05084746 C10.3864062,3.66378814 8.46269531,1.72881356 6.08953125,1.72881356 C3.71636719,1.72881356 1.79265625,3.66378814 1.79265625,6.05084746 C1.79265625,6.34690678 1.82294922,6.63583475 1.87923828,6.91525424 L1.79265625,6.91525424 L1.79265625,13.8305085 L10.3864062,13.8305085 L10.3864062,6.91525424 L10.2998242,6.91525424 C10.3561133,6.63583475 10.3864062,6.34690678 10.3864062,6.05084746 L10.3864062,6.05084746 Z" fill="#4BB9EC"></path>
                            <path d="M6.13658203,0 C2.81982422,0 0.120957031,2.71466949 0.120957031,6.05084746 L0.120957031,13.8305085 C0.120957031,14.7861102 0.889667969,15.559322 1.83970703,15.559322 L10.433457,15.559322 C11.3834961,15.559322 12.152207,14.7861102 12.152207,13.8305085 L12.152207,6.05084746 C12.152207,2.71466949 9.453125,0 6.13658203,0 L6.13658203,0 Z M6.13658203,3.45762712 C7.55820312,3.45762712 8.71470703,4.62090254 8.71470703,6.05084746 L8.71470703,6.91525424 L3.55845703,6.91525424 L3.55845703,6.05084746 C3.55845703,4.62090254 4.71474609,3.45762712 6.13658203,3.45762712 L6.13658203,3.45762712 Z M3.55845703,12.1016949 L3.55845703,10.3728814 L8.71470703,10.3728814 L8.71470703,12.1016949 L3.55845703,12.1016949 L3.55845703,12.1016949 Z" fill="#7E5C62"></path>
                        </g>
                        <path d="M55,65.6949153 C48.3658398,65.6949153 42.96875,60.2662246 42.96875,53.5932203 C42.96875,46.9202161 48.3658398,41.4915254 55,41.4915254 C61.6341602,41.4915254 67.03125,46.9202161 67.03125,53.5932203 C67.03125,60.2662246 61.6341602,65.6949153 55,65.6949153 L55,65.6949153 Z M55,44.9491525 C50.2616211,44.9491525 46.40625,48.8266653 46.40625,53.5932203 C46.40625,58.3597754 50.2616211,62.2372881 55,62.2372881 C59.7383789,62.2372881 63.59375,58.3597754 63.59375,53.5932203 C63.59375,48.8266653 59.7383789,44.9491525 55,44.9491525 L55,44.9491525 Z" id="Shape" fill="#7E5C62"></path>
                        <path d="M61.875,70.8813559 L48.125,70.8813559 C45.2817578,70.8813559 42.96875,73.2079068 42.96875,76.0677966 L42.96875,100.271186 C42.96875,101.226788 43.7374609,102 44.6875,102 C45.6375391,102 46.40625,101.226788 46.40625,100.271186 L46.40625,81.2542373 L53.2341992,81.2542373 L53.2341992,100.271186 L56.6716992,100.271186 L56.6716992,81.2542373 L63.59375,81.2542373 L63.59375,100.271186 C63.59375,101.226788 64.3624609,102 65.3125,102 C66.2625391,102 67.03125,101.226788 67.03125,100.271186 L67.03125,76.0677966 C67.03125,73.2079068 64.7182422,70.8813559 61.875,70.8813559 L61.875,70.8813559 Z M63.59375,77.7966102 L46.40625,77.7966102 L46.40625,76.0677966 C46.40625,75.1139237 47.1766797,74.3389831 48.125,74.3389831 L61.875,74.3389831 C62.8233203,74.3389831 63.59375,75.1139237 63.59375,76.0677966 L63.59375,77.7966102 L63.59375,77.7966102 Z" id="Shape" fill="#7E5C62"></path>
                        <path d="M108.28125,102 L1.71875,102 C0.768710938,102 0,101.226788 0,100.271186 C0,99.3155847 0.768710937,98.5423729 1.71875,98.5423729 L108.28125,98.5423729 C109.231289,98.5423729 110,99.3155847 110,100.271186 C110,101.226788 109.231289,102 108.28125,102 L108.28125,102 Z" id="Shape" fill="#5C546A"></path>
                    </g>
                </g>
            </g>
        </g>
    </g>
</svg>