<?xml version="1.0" encoding="UTF-8" standalone="no"?>
<svg width="145px" height="164px" viewBox="0 0 145 164" version="1.1" xmlns="http://www.w3.org/2000/svg" xmlns:xlink="http://www.w3.org/1999/xlink" xmlns:sketch="http://www.bohemiancoding.com/sketch/ns">
    <!-- Generator: Sketch 3.4.4 (17249) - http://www.bohemiancoding.com/sketch -->
    <title>OE60X51</title>
    <desc>Created with Sketch.</desc>
    <defs>
        <path id="path-1" d="M0,0 L127,0 L127,147.990779 L0,147.990779"></path>
        <path id="path-3" d="M0,0 L127,0 L127,147.990779 L0,147.990779"></path>
    </defs>
    <g id="Page-1" stroke="none" stroke-width="1" fill="none" fill-rule="evenodd" sketch:type="MSPage">
        <g id="Desktop-HD" sketch:type="MSArtboardGroup" transform="translate(-469.000000, -220.000000)">
            <g id="OE60X51" sketch:type="MSLayerGroup" transform="translate(543.000000, 299.000000) rotate(10.000000) translate(-543.000000, -299.000000) translate(476.000000, 225.000000)">
                <path d="M59.7498188,72.9681495 L59.6702138,72.8447394 C57.492808,69.4713229 58.9494734,64.6487975 62.9235918,62.0734746 L110.368522,31.3286646 C114.34264,28.7533416 119.329384,29.4003614 121.50679,32.7739315 L121.586395,32.8973416 C123.763647,36.270758 122.307135,41.0932835 118.332864,43.6686064 L70.888087,74.4134164 C66.9139686,76.9887394 61.9272246,76.3417196 59.7498188,72.9681495" id="Fill-3" fill="#E6BC9D" sketch:type="MSShapeGroup"></path>
                <path d="M100.432152,74.4089595 L100.330614,74.306758 C97.5511848,71.5136615 97.5298647,67.0194102 100.283065,64.268731 L107.950614,56.7270322 C110.703814,53.9763531 115.188693,54.0107788 117.968122,56.8038754 L118.069814,56.9060768 C120.849243,59.6991734 120.870563,64.193271 118.117362,66.9441038 L110.449814,74.485649 C107.696614,77.2363281 103.211581,77.2020561 100.432152,74.4089595" id="Fill-4" fill="#D8A88A" sketch:type="MSShapeGroup"></path>
                <path d="M99.5311884,89.532162 L99.4371655,89.4185877 C96.8689432,86.3161205 97.2436546,81.7590114 100.274169,79.2399377 L108.704178,72.3452586 C111.734845,69.8261848 116.273562,70.2992316 118.841937,73.4016989 L118.93596,73.5152731 C121.504336,76.6177404 121.129471,81.1748494 118.098957,83.6939232 L109.668948,90.5886023 C106.638434,93.107676 102.099564,92.6346293 99.5311884,89.532162" id="Fill-5" fill="#D8A88A" sketch:type="MSShapeGroup"></path>
                <path d="M101.57776,101.09691 L101.516714,100.984258 C99.8483816,97.9016158 100.936931,94.076054 103.94812,92.4397549 L112.305118,87.9836179 C115.316307,86.3471651 119.109895,87.5196386 120.778227,90.6021267 L120.839273,90.7149325 C122.507605,93.7975742 121.419056,97.6229823 118.407867,99.2594351 L110.051022,103.715572 C107.03968,105.351871 103.246245,104.179551 101.57776,101.09691" id="Fill-6" fill="#D8A88A" sketch:type="MSShapeGroup"></path>
                <g id="Group-10" transform="translate(-0.000000, -0.000000)">
                    <mask id="mask-2" sketch:name="Clip 8" fill="white">
                        <use xlink:href="#path-1"></use>
                    </mask>
                    <g id="Clip-8"></g>
                    <path d="M55.3249118,124.553603 L54.7816341,124.207809 C48.1049312,119.946085 43.489064,115.912739 39.4413225,113.011601 C33.2447041,108.570064 30.8864614,100.108399 35.7376159,86.4258525 L62.7116184,57.2604777 C75.6482862,45.7384548 79.3457041,50.5273229 92.3581425,62.3013915 L95.2329746,64.6418816 C108.888389,75.2639169 109.716496,88.2960623 110.505492,92.9071153 C111.044475,96.0576864 111.224085,100.108399 111.224085,100.108399 C111.224085,102.448889 110.948918,108.595423 106.911913,111.810542 C96.4008225,120.182762 89.5914444,133.298359 80.4994408,135.214829 C73.7879203,136.628744 65.7744964,131.222056 55.3249118,124.553603" id="Fill-7" fill="#E6BC9D" sketch:type="MSShapeGroup" mask="url(#mask-2)"></path>
                    <path d="M50.9099746,172.657445 L12.9467911,148.430322 L42.784122,101.489117 L80.7471522,125.715472 L50.9099746,172.657445" id="Fill-9" fill="#E6BC9D" sketch:type="MSShapeGroup" mask="url(#mask-2)"></path>
                </g>
                <path d="M102.894388,3.73642368 L61.9166413,3.73642368 C56.9851147,3.73642368 52.9728043,7.75793562 52.9728043,12.7011049 L52.9728043,119.637175 C52.9728043,124.57973 56.9851147,128.600166 61.9166413,128.600166 L102.894388,128.600166 C107.825914,128.600166 111.837918,124.57973 111.837918,119.637175 L111.837918,12.7011049 C111.837918,7.75793562 107.825914,3.73642368 102.894388,3.73642368" id="Fill-11" fill="#393F44" sketch:type="MSShapeGroup"></path>
                <path d="M57,21 L108.326099,21 L108.326099,112.285109 L57,112.285109 L57,21 Z" id="Fill-12" fill="#0C78ED" sketch:type="MSShapeGroup"></path>
                <path d="M86.2040109,12.3597674 L78.4136039,12.3597674 C77.7261473,12.3597674 77.1607826,12.9213375 77.1607826,13.6087767 C77.1607826,14.2959086 77.7261473,14.8614746 78.4136039,14.8614746 L86.2040109,14.8614746 C86.8919275,14.8614746 87.4565254,14.2959086 87.4565254,13.6087767 C87.4565254,12.9213375 86.8919275,12.3597674 86.2040109,12.3597674" id="Fill-13" fill="#5A6268" sketch:type="MSShapeGroup"></path>
                <path d="M87.2825906,118.664341 L77.3351775,118.664341 C76.457221,118.664341 75.735407,119.491173 75.735407,120.505504 C75.735407,121.518297 76.457221,122.351277 77.3351775,122.351277 L87.2825906,122.351277 C88.1608539,122.351277 88.881901,121.518297 88.881901,120.505504 C88.881901,119.491173 88.1608539,118.664341 87.2825906,118.664341" id="Fill-14" fill="#5A6268" sketch:type="MSShapeGroup"></path>
                <g id="Group-41" transform="translate(7.000000, -0.000000)">
                    <mask id="mask-4" sketch:name="Clip 37" fill="white">
                        <use xlink:href="#path-3"></use>
                    </mask>
                    <g id="Clip-37"></g>
                    <path d="M59.447595,161.490879 L15.5106566,132.980516 C15.2400914,132.803776 15.162787,132.442613 15.3381023,132.170588 L22.0022279,121.861305 C22.1775431,121.58928 22.5389102,121.512437 22.8096288,121.687639 L66.7464139,150.199539 C67.0169791,150.374742 67.0942834,150.737442 66.9191216,151.00793 L60.2548426,161.31875 C60.0796808,161.589238 59.7181602,161.667618 59.447595,161.490879" id="Fill-38" fill="#FAF8F6" sketch:type="MSShapeGroup" mask="url(#mask-4)"></path>
                    <path d="M52.1721522,180.666044 L4.74838889,149.89188 C4.24146256,149.562991 4.09881763,148.880623 4.4299686,148.368847 L16.0214795,130.435182 C16.3526304,129.921869 17.0319577,129.772793 17.5388841,130.103219 L64.9626473,160.877383 C65.4695737,161.206272 65.6120652,161.887103 65.2810676,162.400415 L53.6895568,180.334081 C53.3584058,180.845857 52.6790785,180.994933 52.1721522,180.666044" id="Fill-40" fill="#4D6978" sketch:type="MSShapeGroup" mask="url(#mask-4)"></path>
                </g>
                <path d="M41.7067693,103.514397 L41.2495386,103.516087 C37.1602307,103.0893 34.613942,99.2096407 35.133599,95.3648681 L40.7610181,53.7226168 C41.8830048,47.5619439 45.2958998,47.3706044 49.3852077,47.7973915 L49.5347548,47.8129138 C54.1595181,48.7729927 54.900965,54.2516054 54.9198309,59.5593188 C54.9216715,60.066945 54.8862403,60.5738027 54.8228937,61.0777404 L50.4220676,96.0922658 C49.902564,99.9370384 45.7962307,103.941184 41.7067693,103.514397" id="Fill-42" fill="#D8A88A" sketch:type="MSShapeGroup"></path>
                <path d="M39.8264638,103.948407 L39.6763031,103.929196 C35.5695097,103.401898 32.7658466,99.7795099 33.4141908,95.8382222 C33.4141908,95.8382222 40.9706908,59.5559377 40.435849,53.1499813 C39.9416534,47.2327477 45.2113865,46.7178982 49.3180266,47.2450426 L49.4683406,47.2644071 C54.3193418,48.4035306 55.4824348,56.0208432 54.6971208,60.4053624 L48.4363889,97.7665254 C47.7880447,101.707813 43.9332572,104.475551 39.8264638,103.948407" id="Fill-43" fill="#E6BC9D" sketch:type="MSShapeGroup"></path>
                <path d="M44.4728539,47.344324 C43.8941449,47.2965275 43.2999444,47.4159418 42.7655628,47.6616864 C41.8543225,48.0806355 40.7062609,49.0092087 40.5080918,50.8346957 C40.183843,53.8209761 39.7829034,58.4533915 40.1341473,58.9590197 C40.4855447,59.464648 41.9863841,59.9624382 43.8242029,59.2876012 C45.6620217,58.6127643 46.045936,58.2973998 46.493657,56.8353811 C46.9415314,55.3732087 46.7510314,49.8423427 46.612221,49.3033645 C46.4850676,48.8100312 46.2464058,47.4904798 44.4728539,47.344324" id="Fill-44" fill="#E5DBCB" sketch:type="MSShapeGroup"></path>
                <path d="M98.0864867,67.8915805 L98.0334167,67.7630987 C96.5845737,64.2515182 98.1550483,60.2376906 101.541408,58.7979564 L110.930205,54.894783 C114.316565,53.4552025 118.236386,55.1348411 119.685383,58.6464216 L119.7383,58.7749034 C121.187296,62.2864839 119.616821,66.3003115 116.230461,67.739892 L106.841511,71.6430654 C103.455304,73.0827996 99.5354831,71.403161 98.0864867,67.8915805" id="Fill-45" fill="#E6BC9D" sketch:type="MSShapeGroup"></path>
                <path d="M108.281611,63.6273977 L108.246487,63.5388744 C107.285091,61.1198505 105.715076,59.4867788 102.872607,60.6655535 L100.416967,61.6838795 C97.5744988,62.8628079 97.2148188,65.2947414 98.176215,67.7137653 L98.2113394,67.8022887 C99.1727355,70.2213126 101.090926,71.7114559 103.933548,70.5325275 L106.389035,69.5142015 C109.231657,68.3354268 109.243007,66.0464216 108.281611,63.6273977" id="Fill-46" fill="#E5DBCB" sketch:type="MSShapeGroup"></path>
                <path d="M97.9439952,84.3275722 L97.8901582,84.1984756 C96.418308,80.6692212 98.0136304,76.635107 101.453367,75.1879958 L110.990331,71.2651506 C114.430068,69.8181931 118.411548,71.5062845 119.883399,75.0356926 L119.937236,75.1647892 C121.409086,78.6941973 119.813763,82.7283115 116.374027,84.175269 L106.837063,88.0982679 C103.397326,89.5452253 99.415692,87.8569803 97.9439952,84.3275722" id="Fill-47" fill="#E6BC9D" sketch:type="MSShapeGroup"></path>
                <path d="M107.958743,80.0875182 L107.924079,80.0013001 C106.976947,77.6429823 105.42994,76.0507913 102.629191,77.2000582 L100.209749,78.1928723 C97.4088466,79.3421391 97.054535,81.7132129 98.00182,84.0715306 L98.0364843,84.1579024 C98.9837693,86.5162201 100.873738,87.968864 103.67464,86.8195971 L106.094082,85.826783 C108.894831,84.6775161 108.906028,82.4459896 107.958743,80.0875182" id="Fill-48" fill="#E5DBCB" sketch:type="MSShapeGroup"></path>
                <path d="M98.7925024,100.169259 L98.7423466,100.050459 C97.3711147,96.8021433 99.0814734,92.9962534 102.562623,91.5496033 L112.211862,87.6218401 C115.693012,86.1753437 119.626638,87.6359792 120.998023,90.8842949 L121.048179,91.0030945 C122.419564,94.2514102 120.709205,98.0574538 117.228056,99.5039502 L107.578816,103.431713 C104.097667,104.878363 100.163888,103.417574 98.7925024,100.169259" id="Fill-49" fill="#E6BC9D" sketch:type="MSShapeGroup"></path>
                <path d="M108.026077,96.4325275 L107.994634,96.3549159 C107.133396,94.23681 105.726886,92.8069117 103.180444,93.8390696 L100.980645,94.730758 C98.4342029,95.7629159 98.1121014,97.8923946 98.9733394,100.010501 L99.0047826,100.087958 C99.8660205,102.206064 101.584508,103.510708 104.13095,102.47855 L106.33075,101.586862 C108.877192,100.554704 108.887315,98.5506334 108.026077,96.4325275" id="Fill-50" fill="#E5DBCB" sketch:type="MSShapeGroup"></path>
                <path d="M86.4412253,70.1827349 L86.4412253,67.7759255 L84.2120998,67.7759255 L84.2120998,73.2195145 C84.3520939,73.2625896 84.4867016,73.2841268 84.6159269,73.2841268 C85.1974408,73.2841268 85.6497226,73.0472173 85.9727859,72.5733912 C86.2850804,72.099565 86.4412253,71.4534482 86.4412253,70.6350212 L86.4412253,70.1827349 Z M84.2120998,61.5892946 L84.2120998,65.3045037 L86.4412253,65.3045037 L86.4412253,61.6539069 C86.4412253,60.6201044 86.365845,59.9093759 86.2150821,59.5216999 C86.0643193,59.1447928 85.7843353,58.956342 85.3751218,58.956342 C84.933602,58.956342 84.6320808,59.1501771 84.4705492,59.537853 C84.2982487,59.925529 84.2120998,60.609336 84.2120998,61.5892946 L84.2120998,61.5892946 Z M86.4412253,67.1944145 L86.4412253,65.8860147 L84.2120998,65.8860147 L84.2120998,67.1944145 L86.4412253,67.1944145 Z M88.2019114,55.6126538 C88.9341881,55.892642 89.5049247,56.3718453 89.9141382,57.0502782 C90.2802766,57.6425609 90.463343,58.7194223 90.463343,60.2808948 L90.463343,60.8300997 L90.463343,71.7495839 L90.4794961,72.2503295 C90.4902649,72.7026181 90.5602609,73.0418294 90.6894862,73.2679737 C90.797174,73.4618117 91.061005,73.7041055 91.4809873,73.9948625 C91.2763805,74.307157 91.0771612,74.5440665 90.8833232,74.7055981 C90.6571789,74.8778986 90.3448891,75.0663493 89.9464444,75.2709561 C89.5264621,75.4863316 89.2410938,75.6855509 89.090331,75.8686201 C88.9287993,76.0409206 88.7888073,76.3424418 88.6703508,76.7731928 C87.938074,76.6439675 87.394259,76.3262934 87.0388894,75.8201609 C86.8773578,75.5832478 86.7535187,75.3032638 86.6673685,74.9802006 C86.5704495,74.624831 86.4843006,74.1079375 86.4089191,73.4295046 L86.3927661,73.2033614 C86.1666218,73.6125749 85.8543319,73.9894764 85.4558872,74.3340772 L84.7451516,74.9478944 C84.1636377,75.4432581 83.8675008,76.0516848 83.856732,76.7731928 L83.7113543,76.7731928 C82.1068066,76.7731928 80.6530437,76.4124442 79.3500218,75.6909362 C78.0362311,74.9586595 77.0132127,73.9625626 76.280936,72.7026158 C75.5378904,71.4211315 75.1663732,70.0050587 75.1663732,68.4543549 C75.1663732,67.4528588 75.3602083,66.4621463 75.7478842,65.4821876 C76.1140226,64.5237666 76.663222,63.5976657 77.3954987,62.7038573 C78.0954692,61.8315865 78.9354211,61.0508619 79.9153797,60.3616603 C80.6799628,59.844759 81.1537818,59.5863123 81.336851,59.5863123 C81.4445388,59.5863123 81.4983819,59.634771 81.4983819,59.73169 C81.4983819,59.7963027 81.4176172,59.9039888 81.2560856,60.0547517 C80.4376586,60.711647 79.7753888,61.5946734 79.2692564,62.7038573 C78.7631239,63.8130413 78.5100615,64.9168242 78.5100615,66.0152394 C78.5100615,67.092117 78.7200494,68.1151354 79.1400317,69.0843252 C79.560014,70.053515 80.1630564,70.8826983 80.949177,71.5719 C81.7352977,72.2611017 82.6452456,72.7833795 83.6790481,73.1387491 L83.6790481,57.3733399 C83.0221527,57.7825534 82.4460319,58.0679216 81.9506682,58.2294533 C81.4983796,58.3694474 80.8791843,58.4394434 80.0930636,58.4394434 C79.6946189,58.4394434 79.118498,58.4125218 78.3646837,58.3586779 C77.6647133,58.3156028 77.1478198,58.2940656 76.8139877,58.2940656 C75.8771042,58.2940656 75.1071483,58.5148222 74.5040968,58.956342 C73.9118141,59.3870931 73.6156772,59.9739826 73.6156772,60.7170281 C73.6156772,61.2123918 73.7772065,61.6323678 74.1002697,61.9769686 C74.4125642,62.3323382 74.7840814,62.5100203 75.2148325,62.5100203 C75.6778899,62.5100203 76.0978658,62.3538754 76.474773,62.0415809 C76.6901485,61.8585117 76.8247562,61.7669785 76.8786001,61.7669785 C77.0293629,61.7669785 77.1047432,61.8477431 77.1047432,62.0092747 C77.1047432,62.235419 76.8786023,62.4723286 76.4263137,62.7200104 C75.9847939,62.9569235 75.5163592,63.0753782 75.0209955,63.0753782 C74.4071753,63.0753782 73.8633602,62.9084647 73.3895341,62.5746327 C72.9049392,62.2515694 72.5226534,61.8046719 72.2426652,61.2339268 C71.9519082,60.6631816 71.8065319,60.038602 71.8065319,59.3601691 C71.8065319,58.7355801 71.9357553,58.1325377 72.1942059,57.5510238 C72.4526565,56.9802787 72.8080208,56.4849224 73.2603094,56.0649401 C73.7018292,55.6557266 74.2510286,55.3272839 74.9079239,55.0796021 C75.5217441,54.842689 76.1893982,54.7242342 76.9109062,54.7242342 C78.0093214,54.7242342 79.3446296,55.1872846 80.9168709,56.1133994 C81.3583907,56.37185 81.7137549,56.5495321 81.9829743,56.6464511 C82.2629625,56.7433701 82.5752523,56.7918289 82.9198532,56.7918289 C83.1136911,56.7918289 83.3667536,56.7487544 83.6790481,56.6626042 L83.6790481,56.4526141 C83.732892,55.1065171 84.0505661,54.4334787 84.63208,54.4334787 C84.9336057,54.4334787 85.0843663,54.6219295 85.0843663,54.9988366 C85.0843663,55.4726628 84.7936137,56.0972424 84.2120998,56.8725943 L84.2120998,58.8271174 C84.5351631,58.4932853 84.8259157,58.2402229 85.0843663,58.0679224 C85.3751233,57.8740845 85.8489423,57.6156377 86.5058376,57.2925745 C86.9796638,57.0448926 87.3350281,56.8025988 87.5719411,56.5656857 C87.819623,56.3180039 88.029611,56.0003297 88.2019114,55.6126538 L88.2019114,55.6126538 Z" id="U" fill="#FFFFFF" sketch:type="MSShapeGroup"></path>
            </g>
        </g>
    </g>
</svg>
