<?xml version="1.0" encoding="UTF-8" standalone="no"?>
<svg width="294px" height="297px" viewBox="0 0 294 297" version="1.1" xmlns="http://www.w3.org/2000/svg" xmlns:xlink="http://www.w3.org/1999/xlink" xmlns:sketch="http://www.bohemiancoding.com/sketch/ns">
    <!-- Generator: Sketch 3.4.4 (17249) - http://www.bohemiancoding.com/sketch -->
    <title>Newspaper</title>
    <desc>Created with Sketch.</desc>
    <defs>
        <path id="path-1" d="M218.372456,109.523053 C218.372456,49.4005088 169.63407,0.662122807 109.512807,0.662122807 C49.3889825,0.662122807 0.653157895,49.4005088 0.653157895,109.523053 C0.653157895,169.644316 49.3889825,218.383982 109.512807,218.383982 C169.63407,218.383982 218.372456,169.644316 218.372456,109.523053"></path>
    </defs>
    <g id="Page-1" stroke="none" stroke-width="1" fill="none" fill-rule="evenodd" sketch:type="MSPage">
        <g id="Desktop-HD" sketch:type="MSArtboardGroup" transform="translate(-651.000000, -137.000000)">
            <g id="Newspaper" sketch:type="MSLayerGroup" transform="translate(651.000000, 122.000000)">
                <g id="Group-171" transform="translate(38.000000, 0.000000)">
                    <mask id="mask-2" sketch:name="Clip 156" fill="white">
                        <use xlink:href="#path-1"></use>
                    </mask>
                    <g id="Clip-156"></g>
                    <path d="M67.5992807,90.1229825 C67.5992807,108.357614 57.5918772,108.831474 58.3052281,120.904649 C59.0979825,134.279018 69.5510702,134.307193 69.5510702,143.501351 C69.5510702,152.692947 59.9394035,162.997474 68.4535088,172.894737 L109.549947,172.894737 L109.549947,61.3840351 L67.5992807,90.1229825" id="Fill-155" fill="#331A17" sketch:type="MSShapeGroup" mask="url(#mask-2)"></path>
                    <path d="M151.462193,90.1229825 C151.462193,108.357614 161.469596,108.831474 160.754965,120.904649 C159.964772,134.279018 149.511684,134.307193 149.511684,143.501351 C149.511684,152.692947 159.12207,162.997474 150.609246,172.894737 L109.512807,172.894737 L109.512807,61.3840351 L151.462193,90.1229825" id="Fill-157" fill="#331A17" sketch:type="MSShapeGroup" mask="url(#mask-2)"></path>
                    <path d="M157.377754,71.2672105 C157.377754,44.9539123 136.047667,23.6225439 109.733088,23.6225439 C83.4197895,23.6225439 62.0884211,44.9539123 62.0884211,71.2672105 C62.0884211,97.5805088 83.4197895,118.911877 109.733088,118.911877 C136.047667,118.911877 157.377754,97.5805088 157.377754,71.2672105" id="Fill-158" fill="#331A17" sketch:type="MSShapeGroup" mask="url(#mask-2)"></path>
                    <path d="M125.673982,173.295596 L109.530737,218.576088 L93.792193,173.295596 L93.792193,138.340123 L125.673982,138.340123 L125.673982,173.295596" id="Fill-159" fill="#E5C5A6" sketch:type="MSShapeGroup" mask="url(#mask-2)"></path>
                    <path d="M109.733088,41.4563158 C94.2545263,41.4563158 69.775193,50.2560175 69.775193,91.4907719 C69.775193,115.296456 79.0564386,126.521807 82.4374912,130.836491 C85.5495965,134.805386 101.523789,147.636737 109.733088,147.636737 L109.733088,41.4563158" id="Fill-160" fill="#EFD4B6" sketch:type="MSShapeGroup" mask="url(#mask-2)"></path>
                    <path d="M62.075614,101.321439 C61.393,94.7335088 64.5332807,88.8858246 69.0848947,88.2621228 C73.6403509,87.6371404 77.8845965,92.4717895 78.5697719,99.061 C79.252386,105.646368 76.1121053,111.492772 71.5566491,112.117754 C67.0024737,112.741456 62.7569474,107.908088 62.075614,101.321439" id="Fill-161" fill="#EFD4B6" sketch:type="MSShapeGroup" mask="url(#mask-2)"></path>
                    <path d="M109.607579,41.4563158 C125.08614,41.4563158 149.562912,50.2560175 149.562912,91.4907719 C149.562912,115.296456 140.284228,126.521807 136.901895,130.836491 C133.789789,134.805386 117.814316,147.636737 109.607579,147.636737 L109.607579,41.4563158" id="Fill-162" fill="#E3BB9F" sketch:type="MSShapeGroup" mask="url(#mask-2)"></path>
                    <path d="M157.390561,101.321439 C158.071895,94.7335088 154.932895,88.8858246 150.38,88.2621228 C145.823263,87.6371404 141.580298,92.4717895 140.897684,99.061 C140.213789,105.646368 143.35407,111.492772 147.906965,112.117754 C152.46114,112.741456 156.706667,107.908088 157.390561,101.321439" id="Fill-163" fill="#E3BB9F" sketch:type="MSShapeGroup" mask="url(#mask-2)"></path>
                    <path d="M109.530737,218.576088 L109.530737,175.032228 C109.530737,175.032228 97.6381404,172.085333 95.0165439,162.451895 C93.7563333,157.820877 93.792193,154.105561 93.792193,154.105561 C93.792193,154.105561 67.7875439,162.889895 61.9808421,171.961105 C57.1513158,186.340825 55.8270702,218.576088 55.8270702,218.576088 L109.530737,218.576088" id="Fill-164" fill="#E5C5A6" sketch:type="MSShapeGroup" mask="url(#mask-2)"></path>
                    <path d="M109.530737,218.576088 L109.530737,175.032228 C109.530737,175.032228 121.424614,172.085333 124.04493,162.451895 C125.30514,157.820877 125.269281,154.105561 125.269281,154.105561 C125.269281,154.105561 151.27393,162.889895 157.079351,171.961105 C161.911439,186.340825 163.234404,218.576088 163.234404,218.576088 L109.530737,218.576088" id="Fill-165" fill="#E5C5A6" sketch:type="MSShapeGroup" mask="url(#mask-2)"></path>
                    <path d="M109.733088,133.11486 C115.767754,133.11486 120.658754,129.41107 120.658754,124.840246 L98.8061404,124.840246 C98.8061404,129.41107 103.699702,133.11486 109.733088,133.11486" id="Fill-166" fill="#FFFFFF" sketch:type="MSShapeGroup" mask="url(#mask-2)"></path>
                    <path d="M109.530737,201.549158 C109.530737,201.549158 98.0838246,172.893456 93.792193,154.105561 C89.4570175,155.784561 85.9069123,156.830895 83.194386,158.237105 C70.3220526,185.340596 69.775193,218.576088 69.775193,218.576088 L109.530737,218.576088 L109.530737,201.549158" id="Fill-167" fill="#D6223B" sketch:type="MSShapeGroup" mask="url(#mask-2)"></path>
                    <path d="M109.706193,201.549158 C109.706193,201.549158 121.154386,172.893456 125.444737,154.105561 C129.781193,155.784561 133.330018,156.830895 136.043825,158.237105 C148.914877,185.340596 149.461737,218.576088 149.461737,218.576088 L109.706193,218.576088 L109.706193,201.549158" id="Fill-168" fill="#B32631" sketch:type="MSShapeGroup" mask="url(#mask-2)"></path>
                    <path d="M107.481614,29.5931754 C79.1973158,29.5931754 70.5986842,54.372193 70.5986842,65.7832456 C60.3402632,80.0400175 71.5233509,92.795807 79.4380877,97.2769825 L79.4380877,90.2625789 C79.4380877,81.0415263 88.2057719,72.5043684 101.372667,73.9259474 C113.173053,75.1989649 120.604965,68.5316316 126.881684,57.1922982 C134.632491,42.0082982 124.95807,29.5931754 107.481614,29.5931754" id="Fill-169" fill="#331A17" sketch:type="MSShapeGroup" mask="url(#mask-2)"></path>
                    <path d="M125.673982,52.5318246 C125.673982,52.5318246 132.281123,79.3599649 150.38,88.2621228 C153.602246,64.1426667 155.505368,69.2232105 150.38,56.5237719 C145.254632,43.8230526 125.673982,34.3881228 125.673982,34.3881228 L125.673982,52.5318246" id="Fill-170" fill="#331A17" sketch:type="MSShapeGroup" mask="url(#mask-2)"></path>
                </g>
                <g id="news-paper1" transform="translate(0.000000, 176.000000)" sketch:type="MSShapeGroup">
                    <g>
                        <path d="M142.985865,7.64072468 L135.11122,52.6819241 L147.38427,69.8230253 L147.38427,7.78208861 L144.808665,5.50658544 L142.985865,7.64072468" id="Fill-13" fill="#394A58"></path>
                        <path d="M151.341676,7.64072468 L159.216321,52.6819241 L146.942856,69.8230253 L146.942856,7.78208861 L149.518876,5.50658544 L151.341676,7.64072468" id="Fill-14" fill="#394A58"></path>
                        <path d="M147.025673,135.978854 C114.854206,127.994487 81.6640901,127.181541 49.587862,135.978854 C33.1317296,92.8450316 16.6660732,49.7153544 0.212425352,6.58111709 C48.7443718,-2.18842089 98.4092535,-1.62545253 146.983437,6.58111709 C146.997101,49.7145253 147.011594,92.8458608 147.025673,135.978854" id="Fill-17" fill="#E5E6E3"></path>
                        <path d="M74.8751746,56.3092975 C59.1006254,57.0347722 43.5828085,58.6826361 28.0885944,61.5273259 C21.8288789,44.1851646 15.5778592,26.8392722 9.32352676,9.49462342 C27.3432423,6.64537342 45.4018817,4.98963291 63.6634225,4.27783861 C67.404262,21.6208291 71.138062,38.9654778 74.8751746,56.3092975" id="Fill-18" fill="#CBCCC8"></path>
                        <path d="M74.8751746,56.3092975 C59.1006254,57.0347722 43.5828085,58.6826361 28.0885944,61.5273259 C26.6542056,57.5496519 25.9365972,55.5614367 24.5026225,51.5854209 C40.4821437,48.7452911 56.482369,47.0932816 72.7327014,46.367807 C73.5894423,50.3442373 74.0180197,52.332038 74.8751746,56.3092975" id="Fill-19" fill="#B4B6B4"></path>
                        <path d="M139.409831,29.341538 C117.207034,25.8505538 94.9603437,24.130557 72.4407718,24.0426709 C71.0978958,17.4263418 69.7521211,10.8116709 68.4080028,4.19575633 C92.115169,4.27079114 115.584237,5.98871519 138.988293,9.49586709 C139.128254,16.1113671 139.270285,22.726038 139.409831,29.341538" id="Fill-20" fill="#B4B6B4"></path>
                        <path d="M104.52818,26.8798987 C95.9698817,26.3044937 87.4302169,25.9695316 78.8499718,25.873769 C78.9696423,26.5130158 79.0292704,26.8322247 79.1481127,27.4714715 C87.6910901,27.5672342 96.1934873,27.9034399 104.714104,28.4776013 C104.639155,27.8375253 104.60313,27.518731 104.52818,26.8798987" id="Fill-21" fill="#CBCCC8"></path>
                        <path d="M104.806859,29.2776962 C94.3044338,28.6513006 83.829338,28.3238006 73.3049662,28.2943671 C73.4345746,28.9340285 73.4991718,29.2532373 73.6287803,29.8924842 C84.1071887,29.9223323 94.5371493,30.2502468 104.994025,30.8749842 C104.919076,30.2361519 104.881808,29.9161139 104.806859,29.2776962" id="Fill-22" fill="#CBCCC8"></path>
                        <path d="M102.524839,31.4893576 C92.9454085,30.9840127 83.3858535,30.717038 73.7911014,30.6913354 C73.9207099,31.3309968 73.9861352,31.6502057 74.1157437,32.289038 C83.6686732,32.3151551 93.1859915,32.5813006 102.722358,33.0878892 C102.643268,32.4482278 102.604344,32.1286044 102.524839,31.4893576" id="Fill-23" fill="#CBCCC8"></path>
                        <path d="M105.367115,34.0699747 C95.0025803,33.446481 84.6653746,33.1185665 74.278893,33.0887184 C74.4089155,33.7279652 74.4730986,34.0475886 74.602707,34.6864209 C84.9436394,34.7158544 95.2348817,35.0441835 105.553454,35.6693354 C105.478918,35.0296741 105.442479,34.7096361 105.367115,34.0699747" id="Fill-24" fill="#CBCCC8"></path>
                        <path d="M105.084296,36.4254873 C94.9760789,35.8247943 84.8939493,35.5109747 74.7650282,35.4856867 C74.8950507,36.1257627 74.960062,36.4437278 75.0896704,37.0846329 C85.1738704,37.1099209 95.2108648,37.4229114 105.273118,38.0227753 C105.197341,37.383943 105.160073,37.0643196 105.084296,36.4254873" id="Fill-25" fill="#CBCCC8"></path>
                        <path d="M105.927372,38.8643259 C95.7007268,38.2391741 85.5014113,37.9125032 75.2519915,37.8822405 C75.3816,38.5214873 75.4470254,38.8411108 75.5770479,39.479943 C85.7796761,39.5097911 95.9330282,39.8381203 106.114124,40.462443 C106.039175,39.8236108 106.001907,39.5031582 105.927372,38.8643259" id="Fill-26" fill="#CBCCC8"></path>
                        <path d="M101.494597,40.9308924 C92.9093831,40.5101171 84.338662,40.2928892 75.7406113,40.280038 C75.8702197,40.9188703 75.9344028,41.2393228 76.0640113,41.8785696 C84.6235521,41.89225 93.1549352,42.1082342 101.702882,42.5294241 C101.619651,41.8901772 101.578242,41.5701392 101.494597,40.9308924" id="Fill-27" fill="#CBCCC8"></path>
                        <path d="M106.486386,43.6586772 C96.397631,43.0343544 86.3374479,42.7056108 76.2259183,42.6770063 C76.3555268,43.3162532 76.4213662,43.635462 76.5513887,44.275538 C86.6161268,44.304557 96.6303465,44.632057 106.672724,45.2572089 C106.597775,44.617962 106.561335,44.2979241 106.486386,43.6586772" id="Fill-28" fill="#CBCCC8"></path>
                        <path d="M105.12529,45.9312785 C95.6497944,45.3206361 86.2119803,45.0333481 76.7132958,45.0739747 C76.8429042,45.712807 76.9083296,46.0328449 77.0383521,46.6729209 C86.4935577,46.6314652 95.8870648,46.9175095 105.319082,47.528981 C105.241234,46.8897342 105.202724,46.5709399 105.12529,45.9312785" id="Fill-29" fill="#CBCCC8"></path>
                        <path d="M107.045814,48.4538576 C97.0957775,47.8278766 87.1734845,47.5003766 77.2006732,47.4717722 C77.3298676,48.1106044 77.395293,48.4293987 77.5253155,49.0686456 C87.4525775,49.0984937 97.328493,49.4268228 107.23298,50.050731 C107.158031,49.4114842 107.120763,49.0926899 107.045814,48.4538576" id="Fill-30" fill="#CBCCC8"></path>
                        <path d="M104.088837,50.6095538 C95.2870563,50.1357152 86.5039099,49.8886392 77.6868085,49.8679114 C77.8164169,50.5075728 77.8822563,50.8271962 78.0122789,51.4660285 C86.7879718,51.4867563 95.5297099,51.7346614 104.290082,52.2076709 C104.209749,51.5688386 104.169169,51.2488006 104.088837,50.6095538" id="Fill-31" fill="#CBCCC8"></path>
                        <path d="M107.607313,53.2465506 C97.7947521,52.623057 88.0103493,52.2947278 78.1746,52.2652943 C78.3046225,52.9045411 78.3696338,53.22375 78.4992423,53.8629968 C88.2890282,53.8932595 98.0262254,54.2203449 107.792408,54.8446677 C107.717873,54.2058354 107.682262,53.886212 107.607313,53.2465506" id="Fill-32" fill="#CBCCC8"></path>
                        <path d="M101.363332,55.1543418 C93.7868282,54.7729494 86.2426225,54.5975918 78.654938,54.6290981 C78.7849606,55.2679304 78.8491437,55.5875538 78.9787521,56.2268006 C86.5308254,56.1948797 94.0394197,56.3706519 101.580313,56.7520443 C101.493769,56.1123829 101.45029,55.7935886 101.363332,55.1543418" id="Fill-33" fill="#CBCCC8"></path>
                        <path d="M139.093056,31.1344968 C130.715299,29.6756709 122.289507,28.592019 113.823135,27.6870411 C113.881935,28.3258734 113.911749,28.6467405 113.970135,29.2859873 C122.399654,30.1913797 130.789006,31.2742025 139.129496,32.733443 C139.115003,32.0946108 139.107135,31.7737437 139.093056,31.1344968" id="Fill-34" fill="#CBCCC8"></path>
                        <path d="M139.146887,33.5331234 C128.816307,31.8740665 118.468749,30.5516297 108.041687,29.5318196 C108.110425,30.1710665 108.144794,30.491519 108.213532,31.1307658 C118.595459,32.1493323 128.897882,33.4725981 139.182499,35.1312405 C139.168006,34.4911646 139.160966,34.1719557 139.146887,33.5331234" id="Fill-35" fill="#CBCCC8"></path>
                        <path d="M136.70793,35.4989525 C127.265975,34.0571234 117.815324,32.874807 108.299662,31.9292025 C108.369228,32.5692785 108.403183,32.8872437 108.471921,33.5269051 C117.945346,34.4741677 127.354589,35.6556551 136.754721,37.0970696 C136.736501,36.4578228 136.726563,36.1381994 136.70793,35.4989525" id="Fill-36" fill="#CBCCC8"></path>
                        <path d="M139.252479,38.3266456 C129.055234,36.6808544 118.849707,35.3588323 108.558465,34.3261709 C108.627617,34.9650032 108.6624,35.2850411 108.731552,35.9238734 C118.977659,36.9557057 129.137223,38.2777278 139.288504,39.9243481 C139.274011,39.2855158 139.266558,38.9654778 139.252479,38.3266456" id="Fill-37" fill="#CBCCC8"></path>
                        <path d="M138.759718,40.6257785 C128.811752,39.0243449 118.855918,37.733 108.817268,36.7231392 C108.886006,37.3632152 108.920789,37.6815949 108.989527,38.3216709 C118.98387,39.3315316 128.893741,40.622462 138.796986,42.2243101 C138.782079,41.5850633 138.774625,41.2650253 138.759718,40.6257785" id="Fill-38" fill="#CBCCC8"></path>
                        <path d="M139.359313,43.1205823 C129.299544,41.473962 119.230665,40.1515253 109.075656,39.1192785 C109.144808,39.7585253 109.180006,40.0789778 109.248744,40.7178101 C119.359031,41.7488133 129.38029,43.0724937 139.395338,44.7182848 C139.381259,44.0786234 139.373806,43.7594146 139.359313,43.1205823" id="Fill-39" fill="#CBCCC8"></path>
                        <path d="M134.832127,44.7203576 C126.355817,43.4418639 117.871225,42.3776962 109.333631,41.5170759 C109.402783,42.1563228 109.437566,42.4767753 109.507132,43.1156076 C118.005389,43.9766424 126.451056,45.0395665 134.8872,46.3184747 C134.864839,45.6796424 134.854487,45.3591899 134.832127,44.7203576" id="Fill-40" fill="#CBCCC8"></path>
                        <path d="M139.466146,47.914519 C129.543025,46.2691424 119.612451,44.9462911 109.593262,43.9148734 C109.662,44.5541203 109.695955,44.8729146 109.765107,45.5129905 C119.739161,46.5435791 129.623772,47.8664304 139.501344,49.5126361 C139.486851,48.8733892 139.479811,48.5541804 139.466146,47.914519" id="Fill-41" fill="#CBCCC8"></path>
                        <path d="M137.926994,50.0225411 C128.603054,48.4463956 119.27787,47.2209652 109.850823,46.3114272 C109.919975,46.9502595 109.954344,47.2702975 110.023496,47.9103734 C119.408307,48.8178386 128.689597,50.0436835 137.969645,51.6206582 C137.952668,50.9818259 137.943972,50.661788 137.926994,50.0225411" id="Fill-42" fill="#CBCCC8"></path>
                        <path d="M139.572566,52.7088703 C129.787335,51.0643228 119.994237,49.741057 110.111282,48.7092247 C110.180434,49.348057 110.213561,49.6672658 110.283127,50.3065127 C120.120532,51.3379304 129.868496,52.6611962 139.607763,54.3061582 C139.593685,53.6673259 139.586645,53.3489462 139.572566,52.7088703" id="Fill-43" fill="#CBCCC8"></path>
                        <path d="M136.481425,54.5354082 C127.80387,53.1574209 119.118034,52.0186329 110.368842,51.1053639 C110.437994,51.7450253 110.472363,52.0650633 110.541101,52.7038956 C119.248885,53.6188228 127.894141,54.7542943 136.530287,56.1339399 C136.509997,55.494693 136.501301,55.1746551 136.481425,54.5354082" id="Fill-44" fill="#CBCCC8"></path>
                        <path d="M139.678986,57.5032215 C130.031231,55.8578449 120.375608,54.5349937 110.628473,53.5031614 C110.697211,54.1424082 110.731166,54.460788 110.799904,55.1004494 C120.501904,56.1318671 130.112392,57.4551329 139.714597,59.1009241 C139.700518,58.4612627 139.693065,58.1424684 139.678986,57.5032215" id="Fill-45" fill="#CBCCC8"></path>
                        <path d="M133.388214,58.7381867 C125.905707,57.5674778 118.428997,56.6160696 110.882721,55.8661361 C110.951873,56.5053829 110.986242,56.8245918 111.05498,57.4638386 C118.566473,58.2137722 126.00633,59.1643513 133.454468,60.3367184 C133.427552,59.6974715 133.414301,59.3778481 133.388214,58.7381867" id="Fill-46" fill="#CBCCC8"></path>
                        <path d="M140.078163,75.4464905 C104.559651,69.1875095 68.6022085,68.7526392 33.1300732,75.5095032 C32.9288282,74.9519241 32.8286197,74.6741709 32.6277887,74.1165918 C68.2560338,67.3559968 104.372899,67.7933544 140.046693,74.0544082 C140.059115,74.6115728 140.065327,74.8893259 140.078163,75.4464905" id="Fill-47" fill="#B4B6B4"></path>
                        <path d="M139.809008,63.3779082 C127.752524,61.3047089 115.687758,59.7878449 103.473921,58.7692785 C103.912437,62.1110222 104.131073,63.7816867 104.569175,67.1242595 C116.483214,68.1436551 128.242386,69.6601044 139.995346,71.7341329 C139.921225,68.3911456 139.88313,66.7196519 139.809008,63.3779082" id="Fill-48" fill="#B4B6B4"></path>
                        <path d="M140.117915,77.2017247 C128.564544,75.1281108 117.004132,73.6112468 105.286783,72.5914367 C106.395701,81.0413513 107.502135,89.4920949 108.610639,97.9424241 C119.416589,98.9622342 130.053177,100.479098 140.681485,102.551054 C140.491006,94.1015538 140.305496,85.6512247 140.117915,77.2017247" id="Fill-49" fill="#0C78ED"></path>
                        <path d="M101.469752,58.6444968 C76.9770676,57.6756772 52.8396676,59.0175981 28.777631,63.4400918 C29.9826169,66.78225 30.585938,68.4533291 31.7909239,71.7959019 C55.2247944,67.3688481 78.7389972,66.0306582 102.61511,66.9990633 C102.156718,63.6569051 101.92773,61.9866551 101.469752,58.6444968" id="Fill-50" fill="#CBCCC8"></path>
                        <path d="M67.0340704,72.5980696 C57.1697493,73.4926835 47.4346225,74.7504494 37.6936986,76.4459873 C37.9649239,77.2265981 38.1007437,77.6166962 38.3715549,78.3968924 C48.049538,76.7009399 57.7208958,75.4431741 67.5222761,74.547731 C67.3268282,73.7675348 67.2295183,73.3782658 67.0340704,72.5980696" id="Fill-51" fill="#CBCCC8"></path>
                        <path d="M67.7682423,75.5231835 C56.6620817,76.5363608 45.7343915,78.04825 34.8170535,80.1886076 C35.0982169,80.9679747 35.2402479,81.3589019 35.5214113,82.1395127 C46.3671127,79.9995696 57.222338,78.4880949 68.256862,77.4728449 C68.0614141,76.6922342 67.9632761,76.3037943 67.7682423,75.5231835" id="Fill-52" fill="#CBCCC8"></path>
                        <path d="M68.5015859,78.4478829 C57.5026732,79.4627184 46.6826451,80.9733639 35.8725549,83.113307 C36.1541324,83.8935032 36.294507,84.2827722 36.5760845,85.0625538 C47.3137099,82.9230253 58.0629296,81.410307 68.9922761,80.3979589 C68.7964141,79.6185918 68.6970338,79.2276646 68.5015859,78.4478829" id="Fill-53" fill="#CBCCC8"></path>
                        <path d="M69.237,81.3738259 C58.3428507,82.3870032 47.6304845,83.899307 36.9280563,86.0380063 C37.2088056,86.817788 37.3495944,87.2083006 37.6303437,87.9876677 C48.2611352,85.8481392 58.902693,84.3358354 69.726862,83.3226582 C69.531,82.542462 69.432862,82.1540222 69.237,81.3738259" id="Fill-54" fill="#CBCCC8"></path>
                        <path d="M69.9724141,84.2976962 C59.1834423,85.3121171 48.5770817,86.8231772 37.9819014,88.9631203 C38.2630648,89.7433165 38.4046817,90.133 38.6858451,90.9144399 C49.2089746,88.7736677 59.7428704,87.262193 70.4606197,86.2486013 C70.2651718,85.4684051 70.1686901,85.0774778 69.9724141,84.2976962" id="Fill-55" fill="#CBCCC8"></path>
                        <path d="M70.7049296,87.2228101 C60.0223775,88.237231 49.5249211,89.747462 39.0386451,91.8886487 C39.3198085,92.6680158 39.4589408,93.058943 39.7405183,93.8378956 C50.1559859,91.6962943 60.583462,90.187307 71.196862,89.1724715 C71.001,88.3926899 70.9003775,88.0030063 70.7049296,87.2228101" id="Fill-56" fill="#CBCCC8"></path>
                        <path d="M71.4399296,90.1483386 C60.8625549,91.1627595 50.4719324,92.6729905 40.0920761,94.8137627 C40.3732394,95.5939589 40.5140282,95.9823987 40.7951915,96.7625949 C51.1029972,94.6226519 61.4219831,93.1124209 71.9289634,92.0984146 C71.7331014,91.3182184 71.6362056,90.9285348 71.4399296,90.1483386" id="Fill-57" fill="#CBCCC8"></path>
                        <path d="M72.1741014,93.0734525 C61.7019042,94.0862152 51.4189437,95.5968608 41.1467493,97.7380475 C41.4279127,98.5182437 41.5691155,98.9087563 41.8502789,99.6893671 C52.0040451,97.4329335 62.2865915,96.0333892 72.6635493,95.0231139 C72.4676873,94.2433323 72.3699634,93.8536487 72.1741014,93.0734525" id="Fill-58" fill="#CBCCC8"></path>
                        <path d="M66.3338535,96.5963576 C58.2024761,97.6497468 50.2094028,98.9833766 42.2018366,100.663161 C42.483,101.443358 42.6233746,101.833041 42.9049521,102.613237 C50.8553746,100.932623 58.7913042,99.6023101 66.8676085,98.5464335 C66.6539408,97.7666519 66.5475211,97.3765538 66.3338535,96.5963576" id="Fill-59" fill="#CBCCC8"></path>
                        <path d="M103.610983,72.4819937 C93.281231,72.0375886 83.0077944,71.9592373 72.671831,72.2618639 C72.8532,73.0420601 72.9426423,73.4313291 73.1248394,74.2119399 C83.3995183,73.9080696 93.6091859,73.98725 103.877654,74.4324842 C103.771234,73.6518734 103.717403,73.2621899 103.610983,72.4819937" id="Fill-60" fill="#CBCCC8"></path>
                        <path d="M104.009746,75.4075222 C92.3511972,74.8959589 80.7692535,74.8951297 69.1111183,75.4307373 C69.3036676,76.210519 69.4005634,76.6010316 69.5926986,77.3812278 C81.1787831,76.8443766 92.6886761,76.8460348 104.276003,77.3575981 C104.169997,76.578231 104.11658,76.1877184 104.009746,75.4075222" id="Fill-61" fill="#CBCCC8"></path>
                        <path d="M104.408924,78.3322215 C92.8576225,77.8223165 81.3833408,77.8206582 69.8328676,78.3562658 C70.0254169,79.1360475 70.1218986,79.5253165 70.314862,80.3055127 C81.7932845,79.7699051 93.1946873,79.7707342 104.674352,80.282712 C104.567932,79.5021013 104.51493,79.1124177 104.408924,78.3322215" id="Fill-62" fill="#CBCCC8"></path>
                        <path d="M104.80893,81.25775 C93.364462,80.7461867 81.9974282,80.7453576 70.5537887,81.2822089 C70.746338,82.0607468 70.8436479,82.4508449 71.0361972,83.2306266 C82.4082,82.6946044 93.7015268,82.6958481 105.074358,83.2074114 C104.967938,82.4272152 104.914935,82.0379462 104.80893,81.25775" id="Fill-63" fill="#CBCCC8"></path>
                        <path d="M105.207279,84.1824494 C93.8708873,83.6713006 82.6127577,83.6683987 71.2771944,84.2056646 C71.4697437,84.9858608 71.5653972,85.3759589 71.7579465,86.1569842 C83.0214592,85.6197184 94.2071239,85.6213766 105.471879,86.1329399 C105.365873,85.3531582 105.313699,84.9626456 105.207279,84.1824494" id="Fill-64" fill="#CBCCC8"></path>
                        <path d="M105.605214,87.1079778 C94.3764845,86.5968291 83.2272592,86.5955854 71.9989437,87.1316076 C72.191493,87.9113892 72.2871465,88.3014873 72.4796958,89.081269 C83.6363746,88.5444177 94.7139634,88.5456614 105.871885,89.0580538 C105.765465,88.277443 105.711634,87.8877595 105.605214,87.1079778" id="Fill-65" fill="#CBCCC8"></path>
                        <path d="M106.004806,90.0335063 C94.8820817,89.5215285 83.8405183,89.5202848 72.7198648,90.0558924 C72.9124141,90.8360886 73.0088958,91.2270158 73.2014451,92.0051392 C84.2508761,91.4699462 95.2203887,91.4724335 106.270648,91.9831677 C106.164228,91.2033861 106.110811,90.8128734 106.004806,90.0335063" id="Fill-66" fill="#CBCCC8"></path>
                        <path d="M106.403155,92.9573766 C95.3889211,92.4458133 84.4554338,92.4453987 73.4424423,92.9810063 C73.6349915,93.7616171 73.7306451,94.1513006 73.9231944,94.9319114 C84.8645493,94.394231 95.7255718,94.3963038 106.668997,94.9082816 C106.562577,94.1297437 106.509161,93.7375728 106.403155,92.9573766" id="Fill-67" fill="#CBCCC8"></path>
                        <path d="M99.9927127,95.5209968 C91.3615352,95.3448101 82.7846028,95.4671044 74.1641915,95.9061203 C74.3567408,96.6863165 74.4519803,97.076 74.6449437,97.8557816 C83.2086254,97.4175949 91.7284141,97.2953006 100.302862,97.4719019 C100.179051,96.690462 100.116938,96.301193 99.9927127,95.5209968" id="Fill-68" fill="#CBCCC8"></path>
                        <path d="M140.732003,104.821582 C130.186513,102.748383 119.632327,101.232763 108.907952,100.212538 C110.016042,108.662453 111.124132,117.112367 112.233051,125.563525 C122.051823,126.606136 131.665208,128.120098 141.295986,130.172155 C141.107577,121.722241 140.919583,113.271082 140.732003,104.821582" id="Fill-69" fill="#B4B6B4"></path>
                        <path d="M73.9662592,100.217513 C64.9793831,101.11337 56.134538,102.369063 47.2838958,104.066674 C47.5555352,104.846456 47.6909408,105.236554 47.9621662,106.016335 C56.7506958,104.318725 65.5321859,103.062617 74.4577775,102.168832 C74.2623296,101.388636 74.1621211,100.997709 73.9662592,100.217513" id="Fill-70" fill="#CBCCC8"></path>
                        <path d="M74.7025014,103.142627 C64.5884873,104.178604 54.6935239,105.688835 44.7786845,107.808051 C45.060262,108.588661 45.2006366,108.978345 45.4818,109.758541 C55.3250028,107.638082 65.1483296,106.129509 75.1919493,105.093117 C74.9960873,104.31375 74.8975352,103.922408 74.7025014,103.142627" id="Fill-71" fill="#CBCCC8"></path>
                        <path d="M75.435431,106.068984 C65.4274225,107.104133 55.6409493,108.611877 45.8346,110.733994 C46.1157634,111.513361 46.2565521,111.903873 46.5377155,112.683241 C56.2724282,110.562367 65.988093,109.053794 75.9261211,108.018231 C75.7302592,107.238449 75.631293,106.84918 75.435431,106.068984" id="Fill-72" fill="#CBCCC8"></path>
                        <path d="M76.170431,108.992854 C66.2667718,110.029247 56.5875465,111.536991 46.8876169,113.659108 C47.1691944,114.438889 47.3108113,114.828158 47.5923887,115.608354 C57.2202676,113.487481 66.8278563,111.978079 76.660707,110.943345 C76.4648451,110.163563 76.366293,109.772636 76.170431,108.992854" id="Fill-73" fill="#CBCCC8"></path>
                        <path d="M76.905431,111.919212 C67.1073634,112.954361 57.5349718,114.462104 47.9435324,116.584636 C48.2242817,117.363174 48.3654845,117.752858 48.6466479,118.533468 C58.1664507,116.41218 67.6667915,114.904022 77.3940507,113.868459 C77.1986028,113.088263 77.101293,112.698579 76.905431,111.919212" id="Fill-74" fill="#CBCCC8"></path>
                        <path d="M77.6396028,114.844326 C67.9467127,115.87906 58.4823972,117.386804 48.9990338,119.50975 C49.2801972,120.289532 49.4209859,120.678801 49.7021493,121.458168 C59.1142901,119.335636 68.5065549,117.829136 78.1290507,116.793158 C77.9331887,116.013377 77.8350507,115.624522 77.6396028,114.844326" id="Fill-75" fill="#CBCCC8"></path>
                        <path d="M78.3737746,117.76944 C68.786062,118.803759 59.4298225,120.312332 50.053707,122.434864 C50.3348704,123.21506 50.4752451,123.604744 50.7568225,124.384111 C60.0608873,122.259921 69.3459042,120.75425 78.8632225,119.718272 C78.6673606,118.938491 78.5692225,118.548392 78.3737746,117.76944" id="Fill-76" fill="#CBCCC8"></path>
                        <path d="M79.1075324,120.694554 C69.6254113,121.729703 60.3764197,123.235373 51.1079662,125.358734 C51.3895437,126.13893 51.5295042,126.529028 51.8114958,127.310468 C61.0083127,125.185449 70.1852535,123.678949 79.5986366,122.644215 C79.4023606,121.864019 79.3033944,121.474335 79.1075324,120.694554" id="Fill-77" fill="#CBCCC8"></path>
                        <path d="M73.897107,124.218288 C66.5549746,125.272092 59.3668817,126.601576 52.1622254,128.284263 C52.4438028,129.064459 52.5854197,129.454142 52.8669972,130.233924 C60.0145099,128.551652 67.1462873,127.223826 74.4333465,126.167949 C74.2192648,125.387339 74.1111887,124.99807 73.897107,124.218288" id="Fill-78" fill="#CBCCC8"></path>
                        <path d="M107.378324,100.103509 C97.9371972,99.6574462 88.5590113,99.5782658 79.1112592,99.8825506 C79.2930423,100.662332 79.3828986,101.052016 79.5646817,101.831797 C88.949493,101.529171 98.2643239,101.607108 107.642924,102.053585 C107.536504,101.273389 107.48433,100.883706 107.378324,100.103509" id="Fill-79" fill="#CBCCC8"></path>
                        <path d="M107.776673,103.028209 C97.1313887,102.516646 86.5701634,102.514987 75.9261211,103.050595 C76.1186704,103.830791 76.2151521,104.221718 76.4077014,105.001915 C86.979693,104.46382 97.4688676,104.467136 108.042101,104.977456 C107.935682,104.198089 107.882679,103.808405 107.776673,103.028209" id="Fill-80" fill="#CBCCC8"></path>
                        <path d="M108.174608,105.953323 C97.6299465,105.462487 87.1925324,105.461244 76.6486986,105.976953 C76.8412479,106.756734 76.9369014,107.147247 77.1294507,107.927028 C87.602062,107.409661 97.9674254,107.412149 108.440865,107.90257 C108.334445,107.123203 108.281028,106.733519 108.174608,105.953323" id="Fill-81" fill="#CBCCC8"></path>
                        <path d="M108.5742,108.878437 C98.1363718,108.385943 87.8057915,108.385528 77.3692056,108.901652 C77.5617549,109.681848 77.6586507,110.072361 77.8512,110.852142 C88.2165634,110.33519 98.4742648,110.336848 108.840456,110.828098 C108.734037,110.047902 108.680206,109.658633 108.5742,108.878437" id="Fill-82" fill="#CBCCC8"></path>
                        <path d="M108.971721,111.803136 C98.6407268,111.312301 88.4198789,111.311057 78.0901268,111.826766 C78.2826761,112.606547 78.3804,112.995816 78.5729493,113.776013 C88.8302366,113.261547 98.979862,113.261547 109.238392,113.752797 C109.131972,112.973016 109.077727,112.583332 108.971721,111.803136" id="Fill-83" fill="#CBCCC8"></path>
                        <path d="M109.372141,114.729079 C99.1483944,114.237829 89.0347944,114.235756 78.8127042,114.75188 C79.0048394,115.531661 79.1021493,115.922589 79.2942845,116.70237 C89.444738,116.185832 99.4854592,116.187076 109.637155,116.677911 C109.530735,115.89813 109.478561,115.508861 109.372141,114.729079" id="Fill-84" fill="#CBCCC8"></path>
                        <path d="M109.770904,117.654608 C99.6548197,117.163358 89.6492958,117.160456 79.5348676,117.677408 C79.7265887,118.457604 79.8238986,118.847703 80.0160338,119.62707 C90.0588254,119.110532 99.9914704,119.110946 110.03509,119.60344 C109.929085,118.823658 109.87691,118.433975 109.770904,117.654608" id="Fill-85" fill="#CBCCC8"></path>
                        <path d="M110.168011,120.578892 C100.160003,120.087228 90.262969,120.08557 80.2562028,120.601278 C80.4487521,121.381475 80.5452338,121.772402 80.7377831,122.552598 C90.6733268,122.036889 100.497896,122.038133 110.434682,122.528968 C110.328676,121.749187 110.274431,121.359503 110.168011,120.578892" id="Fill-86" fill="#CBCCC8"></path>
                        <path d="M104.388634,123.142098 C96.5562254,122.984152 88.8004225,123.106861 80.9787803,123.526807 C81.1713296,124.307003 81.266569,124.697101 81.4595324,125.477297 C89.224031,125.05818 96.9231042,124.935057 104.699611,125.093418 C104.575386,124.312807 104.512859,123.922294 104.388634,123.142098" id="Fill-87" fill="#CBCCC8"></path>
                        <path d="M244.392676,135.978854 C212.316448,127.182785 179.125504,127.993244 146.955279,135.978854 C146.968944,92.8479335 146.98882,49.7145253 146.995031,6.5819462 C195.563417,-1.63125633 245.241549,-2.1921519 293.767285,6.5819462 C277.32109,49.7182563 260.848394,92.8458608 244.392676,135.978854" id="Fill-88" fill="#F3F3F2"></path>
                        <path d="M277.314465,29.8626361 C236.575175,23.0945791 195.327803,23.4892373 154.559527,29.8626361 C154.697417,23.3449715 154.837792,16.8277215 154.974854,10.3108861 C197.9502,3.91966139 241.415408,3.54407278 284.365082,10.3117152 C282.014738,16.8281361 279.665637,23.3449715 277.314465,29.8626361" id="Fill-89" fill="#0C78ED"></path>
                        <path d="M274.406349,37.9278418 C234.585499,31.1514937 194.240003,31.5594177 154.388924,37.9278418 C154.395135,37.6343354 154.397206,37.4871677 154.403831,37.1940759 C194.335656,30.8239937 234.76811,30.4198006 274.670535,37.1944905 C274.56453,37.4875823 274.511527,37.6351646 274.406349,37.9278418" id="Fill-90" fill="#B4B6B4"></path>
                        <path d="M276.697893,31.5735127 C264.048854,29.4310823 251.374969,27.9171203 238.562366,26.9172089 C238.11971,28.6765886 237.899003,29.5562785 237.456346,31.3156582 C250.110769,32.3155696 262.623989,33.8295316 275.111121,35.9723766 C275.745499,34.2134114 276.063101,33.3328924 276.697893,31.5735127" id="Fill-91" fill="#CBCCC8"></path>
                        <path d="M236.408299,26.790769 C208.899423,25.7319905 181.665085,27.2886519 154.523087,31.5726835 C154.485406,33.3328924 154.468014,34.2129968 154.430746,35.971962 C181.241476,31.6871013 208.146203,30.1341709 235.329194,31.1888038 C235.76067,29.4285949 235.976408,28.5509778 236.408299,26.790769" id="Fill-92" fill="#CBCCC8"></path>
                        <path d="M253.79902,92.6203418 C233.824411,88.6762468 213.847732,87.2655095 193.443304,87.7389335 C194.442076,81.232462 195.437949,74.7268196 196.436307,68.2207627 C218.139304,67.7261962 239.482462,69.1452247 260.779656,73.1025854 C258.452501,79.6082278 256.126175,86.1146994 253.79902,92.6203418" id="Fill-93" fill="#B4B6B4"></path>
                        <path d="M253.188245,94.3270728 C247.080499,92.9441108 240.890763,91.8670918 234.662104,91.0678259 C234.528769,91.5246677 234.461273,91.7526741 234.328352,92.2099304 C240.545003,93.109519 246.643639,94.1799051 252.779544,95.4691772 C252.943521,95.0123354 253.02551,94.7847437 253.188245,94.3270728" id="Fill-94" fill="#CBCCC8"></path>
                        <path d="M233.620268,90.9355823 C220.135606,89.5679589 206.740386,89.1069715 193.182017,89.44525 C193.111623,89.9025063 193.077254,90.1309272 193.007273,90.587769 C206.515538,90.2486614 219.857341,90.7092342 233.29107,92.0772722 C233.422335,91.6204304 233.488175,91.3928386 233.620268,90.9355823" id="Fill-95" fill="#CBCCC8"></path>
                        <path d="M252.247859,96.9582658 C246.143839,95.6685791 240.07833,94.598193 233.894392,93.6981899 C233.759814,94.1550316 233.693561,94.3838671 233.559811,94.8407089 C239.719318,95.7415411 245.759569,96.8123418 251.837915,98.1003703 C252.001065,97.6435285 252.083882,97.4151076 252.247859,96.9582658" id="Fill-96" fill="#CBCCC8"></path>
                        <path d="M232.860008,93.5667753 C219.494189,92.1983228 206.220296,91.7365063 192.779113,92.0760285 C192.708718,92.5336994 192.674763,92.7625348 192.604783,93.2185475 C205.995034,92.8798544 219.217166,93.3400127 232.532054,94.7084652 C232.664146,94.2528671 232.727501,94.022788 232.860008,93.5667753" id="Fill-97" fill="#CBCCC8"></path>
                        <path d="M251.305403,99.5890443 C245.260597,98.3006013 239.252231,97.2302152 233.124608,96.3297975 C232.991273,96.7862247 232.92502,97.0138165 232.791685,97.4714873 C238.894462,98.3723196 244.876741,99.4410475 250.896701,100.730734 C251.060679,100.274307 251.142254,100.045886 251.305403,99.5890443" id="Fill-98" fill="#CBCCC8"></path>
                        <path d="M232.102648,96.1979684 C218.855256,94.8295158 205.699792,94.3697722 192.375794,94.7076361 C192.305814,95.1644778 192.271445,95.3924842 192.201051,95.8493259 C205.473701,95.5106329 218.575749,95.9695475 231.771794,97.3392437 C231.903887,96.8824019 231.970141,96.6535665 232.102648,96.1979684" id="Fill-99" fill="#CBCCC8"></path>
                        <path d="M250.364603,102.219823 C244.376941,100.93138 238.426132,99.8614082 232.35731,98.9597468 C232.223561,99.4170032 232.156893,99.6445949 232.023144,100.101437 C238.069192,101.003098 243.993085,102.072241 249.955901,103.362342 C250.119465,102.905085 250.201868,102.67625 250.364603,102.219823" id="Fill-100" fill="#CBCCC8"></path>
                        <path d="M231.342389,98.8287468 C218.214254,97.4586361 205.178045,96.9980633 191.972062,97.3375854 C191.902082,97.7944272 191.867713,98.0232627 191.798146,98.4801044 C204.951955,98.1405823 217.936403,98.6007405 231.013192,99.9704367 C231.14487,99.5135949 231.21071,99.2843449 231.342389,98.8287468" id="Fill-101" fill="#CBCCC8"></path>
                        <path d="M249.423803,104.850187 C243.493699,103.561329 237.602104,102.490943 231.587527,101.591354 C231.454192,102.048196 231.387524,102.274959 231.254189,102.731801 C237.243093,103.631804 243.109014,104.701775 249.013445,105.99312 C249.177423,105.535864 249.260239,105.307028 249.423803,104.850187" id="Fill-102" fill="#CBCCC8"></path>
                        <path d="M230.5842,101.458696 C217.574079,100.089 204.657127,99.6309146 191.569158,99.9683639 C191.499592,100.42562 191.46398,100.653627 191.394414,101.109639 C204.430623,100.770946 217.2954,101.231104 230.254589,102.600801 C230.386268,102.144373 230.451693,101.915538 230.5842,101.458696" id="Fill-103" fill="#CBCCC8"></path>
                        <path d="M248.483003,107.48138 C242.610456,106.190864 236.776006,105.122136 230.818986,104.220475 C230.685651,104.677316 230.619397,104.905737 230.485648,105.362579 C236.417823,106.262997 242.2266,107.332554 248.074301,108.622241 C248.237451,108.165399 248.319854,107.938222 248.483003,107.48138" id="Fill-104" fill="#CBCCC8"></path>
                        <path d="M229.825183,104.089475 C216.93349,102.719778 204.136208,102.25962 191.166254,102.599557 C191.096687,103.05557 191.061076,103.283991 190.991096,103.740832 C203.910118,103.400066 216.654811,103.861468 229.494744,105.231165 C229.626837,104.773908 229.692262,104.545902 229.825183,104.089475" id="Fill-105" fill="#CBCCC8"></path>
                        <path d="M247.541789,110.111329 C241.7268,108.822057 235.950321,107.751671 230.050031,106.851253 C229.916696,107.308509 229.85127,107.53693 229.717935,107.993772 C235.592966,108.894604 241.343772,109.963747 247.13433,111.253434 C247.297479,110.796592 247.378225,110.567756 247.541789,110.111329" id="Fill-106" fill="#CBCCC8"></path>
                        <path d="M229.06658,106.720253 C216.29373,105.348899 203.615704,104.891228 190.763763,105.23075 C190.694197,105.685934 190.658172,105.91394 190.587777,106.371611 C203.3892,106.031674 216.015465,106.492247 228.736969,107.861943 C228.869062,107.405101 228.934073,107.176266 229.06658,106.720253" id="Fill-107" fill="#CBCCC8"></path>
                        <path d="M186.551696,124.422665 C175.141183,125.357905 163.992786,126.96307 152.827411,129.328532 C153.514377,99.1035981 154.196789,68.8786646 154.886654,38.6529019 C169.857051,36.2509589 184.855192,34.643307 200.018966,33.7466203 C195.529876,63.9719684 191.035403,94.1969019 186.551696,124.422665" id="Fill-108" fill="#CBCCC8"></path>
                        <path d="M224.876045,34.6395759 C217.099124,34.5371804 209.340423,34.577807 201.56433,34.760212 C201.630583,34.3274146 201.664124,34.1110158 201.730792,33.6778038 C209.529245,33.4949842 217.311135,33.4535285 225.113315,33.5571677 C225.017248,33.9903797 224.971699,34.2063639 224.876045,34.6395759" id="Fill-109" fill="#CBCCC8"></path>
                        <path d="M224.444983,36.6132816 C216.711127,36.5092278 208.996318,36.5506835 201.262876,36.7322595 C201.329958,36.299462 201.362256,36.0834778 201.42851,35.6502658 C209.184727,35.4670316 216.923966,35.4259905 224.682254,35.5296297 C224.587428,35.9632563 224.540223,36.1800696 224.444983,36.6132816" id="Fill-110" fill="#CBCCC8"></path>
                        <path d="M224.013093,38.5849146 C216.322301,38.4821044 208.649315,38.5231456 200.96018,38.7047215 C201.02602,38.2715095 201.059975,38.056769 201.125814,37.6231424 C208.838966,37.4394937 216.536383,37.3988671 224.250777,37.5025063 C224.156366,37.9357184 224.107918,38.1508734 224.013093,38.5849146" id="Fill-111" fill="#CBCCC8"></path>
                        <path d="M223.584101,40.5577911 C215.935132,40.4558101 208.305211,40.4964367 200.657485,40.6780127 C200.723324,40.2456297 200.757279,40.0296456 200.823532,39.596019 C208.494034,39.4140285 216.148386,39.3717437 223.820544,39.4757975 C223.725718,39.9085949 223.679341,40.1245791 223.584101,40.5577911" id="Fill-112" fill="#CBCCC8"></path>
                        <path d="M223.153039,42.5302532 C215.547135,42.4295158 207.959865,42.4688987 200.354789,42.6513038 C200.421042,42.2172627 200.454997,42.001693 200.522079,41.5688956 C208.149515,41.3869051 215.759561,41.3450348 223.389482,41.4482595 C223.294656,41.8814715 223.247451,42.0978703 223.153039,42.5302532" id="Fill-113" fill="#CBCCC8"></path>
                        <path d="M222.721563,44.5035443 C215.158724,44.4007342 207.614518,44.4413608 200.053749,44.6233513 C200.119589,44.1905538 200.152715,43.9741551 200.218555,43.5413576 C207.803755,43.3589525 215.371149,43.3183259 222.958006,43.4215506 C222.862766,43.8543481 222.816389,44.0711614 222.721563,44.5035443" id="Fill-114" fill="#CBCCC8"></path>
                        <path d="M222.290087,46.4768354 C214.769485,46.3736108 207.268344,46.4146519 199.750225,46.5962278 C199.816479,46.1638449 199.850434,45.9474462 199.916687,45.5146487 C207.457994,45.331 214.983152,45.2916171 222.52653,45.3944272 C222.432118,45.8276392 222.384499,46.0444525 222.290087,46.4768354" id="Fill-115" fill="#CBCCC8"></path>
                        <path d="M221.858611,48.4501266 C214.381487,48.3473165 206.923825,48.3887722 199.447944,48.569519 C199.514197,48.1367215 199.547324,47.9207373 199.613577,47.4871108 C207.112648,47.3051203 214.593913,47.2649082 222.095468,47.3673038 C222.000228,47.8005158 221.953437,48.0165 221.858611,48.4501266" id="Fill-116" fill="#CBCCC8"></path>
                        <path d="M221.427963,50.4217595 C213.993076,50.3193639 206.578893,50.3595759 199.145662,50.5428101 C199.211915,50.1100127 199.245456,49.8931994 199.31171,49.4604019 C206.767715,49.2779968 214.20633,49.2377848 221.663992,49.3405949 C221.569166,49.7729778 221.522789,49.9897911 221.427963,50.4217595" id="Fill-117" fill="#CBCCC8"></path>
                        <path d="M220.996487,52.3954652 C213.605493,52.2926551 206.233961,52.3332816 198.844208,52.5161013 C198.910048,52.0828892 198.942346,51.8660759 199.009428,51.4332785 C206.422783,51.2508734 213.817504,51.2098323 221.232515,51.313057 C221.13769,51.7458544 221.091727,51.9626677 220.996487,52.3954652" id="Fill-118" fill="#CBCCC8"></path>
                        <path d="M220.565011,54.3687563 C213.217082,54.2655316 205.887786,54.3061582 198.541099,54.4889778 C198.607766,54.0557658 198.640893,53.8393671 198.706732,53.4061551 C206.077023,53.2241646 213.429921,53.1831234 220.801868,53.2859335 C220.706628,53.718731 220.659837,53.9355443 220.565011,54.3687563" id="Fill-119" fill="#CBCCC8"></path>
                        <path d="M220.133535,56.3412184 C212.828256,56.2379937 205.543268,56.2786203 198.239231,56.4610253 C198.305485,56.0286424 198.337783,55.8122437 198.404865,55.3790316 C205.731676,55.196212 213.040268,55.156 220.370392,55.2588101 C220.275566,55.6920222 220.228775,55.9080063 220.133535,56.3412184" id="Fill-120" fill="#CBCCC8"></path>
                        <path d="M219.702473,58.3145095 C212.439845,58.2108703 205.197093,58.2523259 197.935293,58.4343165 C198.002375,58.0006899 198.034673,57.7851203 198.100927,57.3523228 C205.385915,57.1686741 212.65227,57.1288766 219.938915,57.2312722 C219.84409,57.6648987 219.797299,57.8804684 219.702473,58.3145095" id="Fill-121" fill="#CBCCC8"></path>
                        <path d="M219.270997,60.2873861 C212.051434,60.1845759 204.851746,60.2252025 197.633425,60.407193 C197.699679,59.973981 197.734048,59.7575823 197.799887,59.3243703 C205.041397,59.1427943 212.263859,59.1017532 219.507025,59.2041487 C219.412614,59.6373608 219.366237,59.8537595 219.270997,60.2873861" id="Fill-122" fill="#CBCCC8"></path>
                        <path d="M218.839935,62.2606772 C211.662608,62.157038 204.5064,62.1976646 197.331558,62.3804842 C197.397397,61.9468576 197.430938,61.7304589 197.496777,61.2972468 C204.695637,61.1160854 211.87669,61.0742152 219.077206,61.1774399 C218.98238,61.6102373 218.935175,61.8274652 218.839935,62.2606772" id="Fill-123" fill="#CBCCC8"></path>
                        <path d="M218.408873,64.2327247 C211.275025,64.1303291 204.161468,64.1713703 197.028448,64.3537753 C197.09553,63.9197342 197.128656,63.7033354 197.195324,63.2701234 C204.350704,63.088962 211.487865,63.0475063 218.64573,63.1503165 C218.550904,63.5835285 218.503285,63.7999272 218.408873,64.2327247" id="Fill-124" fill="#CBCCC8"></path>
                        <path d="M217.978639,66.2056013 C210.886614,66.1023766 203.816121,66.1442468 196.726166,66.3266519 C196.79242,65.8930253 196.826375,65.676212 196.892628,65.2434146 C204.005772,65.0610095 211.10111,65.0207975 218.215496,65.123193 C218.121499,65.5564051 218.073465,65.7732184 217.978639,66.2056013" id="Fill-125" fill="#CBCCC8"></path>
                        <path d="M244.220003,54.0002152 C237.015346,53.3336076 229.818558,52.819557 222.589056,52.4476994 C222.685124,52.0149019 222.733572,51.7976741 222.830054,51.364462 C230.083572,51.7367342 237.303549,52.2499557 244.532223,52.9161487 C244.406755,53.3501899 244.345056,53.5670032 244.220003,54.0002152" id="Fill-126" fill="#CBCCC8"></path>
                        <path d="M243.651051,55.9726772 C236.488631,55.3060696 229.334493,54.7928481 222.147642,54.4205759 C222.244124,53.9877785 222.292572,53.7709652 222.389054,53.3373386 C229.599921,53.7100253 236.778076,54.2228323 243.963685,54.8890253 C243.838217,55.3230665 243.77569,55.5398797 243.651051,55.9726772" id="Fill-127" fill="#CBCCC8"></path>
                        <path d="M243.082927,57.9455538 C235.963572,57.2793608 228.852085,56.7653101 221.70747,56.3938671 C221.803538,55.9602405 221.852814,55.7434272 221.949296,55.3106297 C229.116685,55.6829019 236.251361,56.1957089 243.394318,56.8631456 C243.269265,57.295943 243.207566,57.5123418 243.082927,57.9455538" id="Fill-128" fill="#CBCCC8"></path>
                        <path d="M242.512732,59.9192595 C235.436856,59.2518228 228.368434,58.7381867 221.267299,58.3659146 C221.362952,57.9335316 221.411814,57.7167184 221.507882,57.2839209 C228.633034,57.6549494 235.725473,58.1694146 242.825366,58.835193 C242.700727,59.2688196 242.637786,59.4852184 242.512732,59.9192595" id="Fill-129" fill="#CBCCC8"></path>
                        <path d="M241.942538,61.8908924 C234.909727,61.2246994 227.884369,60.7106487 220.826299,60.3392057 C220.92278,59.9068228 220.971642,59.6895949 221.06771,59.2563829 C228.150625,59.6286551 235.199172,60.1418766 242.256414,60.8088987 C242.130946,61.2412816 242.067592,61.4580949 241.942538,61.8908924" id="Fill-130" fill="#CBCCC8"></path>
                        <path d="M241.375656,63.8641835 C234.384254,63.1975759 227.401961,62.6843544 220.385713,62.3120823 C220.48178,61.8792848 220.530642,61.6624715 220.627124,61.2296741 C227.666561,61.6019462 234.673285,62.1143386 241.686634,62.7813608 C241.56158,63.2145728 241.500296,63.4313861 241.375656,63.8641835" id="Fill-131" fill="#CBCCC8"></path>
                        <path d="M240.805876,65.8370601 C233.858366,65.1704525 226.918724,64.6568165 219.944713,64.2849589 C220.042023,63.8517468 220.09047,63.6353481 220.186952,63.2021361 C227.184152,63.5744082 234.147397,64.0880443 241.11851,64.7542373 C240.99387,65.1870348 240.930515,65.4042627 240.805876,65.8370601" id="Fill-132" fill="#CBCCC8"></path>
                        <path d="M240.236924,67.8099367 C233.332479,67.1437437 226.435901,66.6301076 219.505783,66.25825 C219.601851,65.8242089 219.650713,65.6082247 219.747194,65.1750127 C226.70133,65.5476994 233.62151,66.0605063 240.549144,66.7271139 C240.424504,67.1599114 240.361977,67.3767247 240.236924,67.8099367" id="Fill-133" fill="#CBCCC8"></path>
                        <path d="M272.748769,39.6412057 C265.510158,38.3502753 258.274859,37.285693 250.963369,36.4180253 C251.090493,35.9848133 251.152606,35.7675854 251.280144,35.334788 C258.614823,36.2032848 265.873724,37.2666234 273.134696,38.5596266 C272.980242,38.9928386 272.903223,39.2079937 272.748769,39.6412057" id="Fill-134" fill="#CBCCC8"></path>
                        <path d="M272.042755,41.6144968 C264.847208,40.3231519 257.654561,39.2589842 250.384893,38.3900728 C250.512431,37.9572753 250.576614,37.740462 250.70291,37.3068354 C257.995352,38.1769905 265.211189,39.2395 272.429096,40.5316741 C272.274228,40.964057 272.198037,41.1825285 272.042755,41.6144968" id="Fill-135" fill="#CBCCC8"></path>
                        <path d="M271.336741,43.587788 C264.184259,42.2947848 257.034262,41.2322753 249.806831,40.3629494 C249.933955,39.9301519 249.996482,39.7129241 250.12402,39.279712 C257.375054,40.1494525 264.548654,41.211962 271.725152,42.5041361 C271.570285,42.9377627 271.492437,43.1545759 271.336741,43.587788" id="Fill-136" fill="#CBCCC8"></path>
                        <path d="M270.630313,45.5610791 C263.520896,44.2680759 256.413549,43.2047373 249.228355,42.3362405 C249.355893,41.9030285 249.419248,41.6862152 249.545958,41.2534177 C256.754341,42.1227437 263.88529,43.1852532 271.019552,44.4778418 C270.863856,44.9106392 270.786008,45.1278671 270.630313,45.5610791" id="Fill-137" fill="#CBCCC8"></path>
                        <path d="M269.924713,47.5331266 C262.857946,46.2413671 255.792008,45.1780285 248.650293,44.3091171 C248.777417,43.8759051 248.83953,43.6586772 248.966654,43.2262943 C256.1328,44.0956203 263.221927,45.1577152 270.313538,46.4507184 C270.15867,46.8839304 270.079994,47.1007437 269.924713,47.5331266" id="Fill-138" fill="#CBCCC8"></path>
                        <path d="M269.219113,49.5060032 C262.193755,48.2142437 255.172124,47.1509051 248.071817,46.2819937 C248.199355,45.8491962 248.26271,45.6323829 248.38942,45.2 C255.51333,46.0664241 262.558977,47.1305918 269.60711,48.4235949 C269.452242,48.856807 269.37398,49.0727911 269.219113,49.5060032" id="Fill-139" fill="#CBCCC8"></path>
                        <path d="M268.513927,51.4792943 C261.531634,50.1867057 254.551825,49.1233671 247.493755,48.2544557 C247.620879,47.8212437 247.685062,47.6056741 247.811772,47.172462 C254.893859,48.0393006 261.896442,49.1038829 268.902752,50.3964715 C268.74747,50.8296835 268.668794,51.0460823 268.513927,51.4792943" id="Fill-140" fill="#CBCCC8"></path>
                        <path d="M267.807913,53.4521709 C260.868685,52.1591677 253.931941,51.0966582 246.915279,50.2273323 C247.042817,49.7945348 247.106172,49.5777215 247.232882,49.1449241 C254.272732,50.01425 261.233079,51.0759304 268.196738,52.3693481 C268.041456,52.8025601 267.962366,53.0193734 267.807913,53.4521709" id="Fill-141" fill="#CBCCC8"></path>
                        <path d="M267.102727,55.425462 C260.206563,54.1320443 253.312056,53.0691203 246.337631,52.201038 C246.464755,51.7669968 246.527282,51.5514272 246.653992,51.1186297 C253.652848,51.9858829 260.57013,53.048807 267.489896,54.3418101 C267.334614,54.7750222 267.257594,54.9918354 267.102727,55.425462" id="Fill-142" fill="#CBCCC8"></path>
                        <path d="M266.396713,57.3979241 C259.543614,56.1053354 252.691344,55.0428259 245.759155,54.1735 C245.887107,53.7398734 245.949634,53.5243038 246.076344,53.0906772 C253.031721,53.9587595 259.906352,55.021269 266.784296,56.3151013 C266.629428,56.7478987 266.552408,56.964712 266.396713,57.3979241" id="Fill-143" fill="#CBCCC8"></path>
                        <path d="M265.692355,59.3708006 C258.880665,58.0769684 252.071459,57.0144589 245.181093,56.145962 C245.308631,55.7131646 245.371572,55.4959367 245.498282,55.0635538 C252.411008,55.9320506 259.243403,56.9945601 266.078696,58.2879778 C265.923414,58.7207753 265.847223,58.9380032 265.692355,59.3708006" id="Fill-144" fill="#CBCCC8"></path>
                        <path d="M264.985927,61.3440918 C258.216887,60.0498449 251.450332,58.9873354 244.602617,58.1192532 C244.730569,57.6860411 244.793096,57.4692278 244.919806,57.0364304 C251.790296,57.9053418 258.580039,58.9678513 265.372682,60.2608544 C265.217814,60.6936519 265.14038,60.9108797 264.985927,61.3440918" id="Fill-145" fill="#CBCCC8"></path>
                        <path d="M264.280741,63.3161392 C257.576299,61.9522468 250.822166,60.9585538 244.024969,60.0925443 C244.152093,59.6593323 244.21462,59.4429335 244.34133,59.0097215 C251.16213,59.8769747 257.939451,60.8702532 264.66791,62.233731 C264.513042,62.666943 264.436023,62.8837563 264.280741,63.3161392" id="Fill-146" fill="#CBCCC8"></path>
                        <path d="M263.573899,65.2894304 C256.912935,63.925538 250.201454,62.9322595 243.446079,62.0650063 C243.573617,61.6317943 243.636558,61.414981 243.763682,60.9825981 C250.541831,61.8502658 257.276501,62.8431297 263.961896,64.2066076 C263.806614,64.6402342 263.729594,64.8570475 263.573899,65.2894304" id="Fill-147" fill="#CBCCC8"></path>
                        <path d="M262.869955,67.262307 C256.251228,65.8967563 249.580741,64.9055506 242.868431,64.0378829 C242.995141,63.6050854 243.058082,63.3882722 243.184792,62.9554747 C249.921118,63.8231424 256.613966,64.8164209 263.256296,66.1798987 C263.101014,66.6126962 263.024408,66.8290949 262.869955,67.262307" id="Fill-148" fill="#CBCCC8"></path>
                        <path d="M262.163527,69.2351835 C255.588279,67.8692184 248.960028,66.8788418 242.289541,66.0107595 C242.417079,65.577962 242.480434,65.3615633 242.607558,64.9287658 C249.300406,65.7956044 255.951017,66.7888829 262.550282,68.1523608 C262.395828,68.5851582 262.31798,68.8019715 262.163527,69.2351835" id="Fill-149" fill="#CBCCC8"></path>
                        <path d="M261.455442,71.2084747 C254.923259,69.8425095 248.338901,68.8513038 241.711479,67.9836361 C241.838189,67.5508386 241.901544,67.3344399 242.028254,66.9008133 C248.680521,67.7688956 255.288068,68.7621741 261.84551,70.1252373 C261.690228,70.5584494 261.610724,70.7748481 261.455442,71.2084747" id="Fill-150" fill="#CBCCC8"></path>
                        <path d="M246.348397,113.451 C240.691589,112.178725 235.071634,111.120775 229.330352,110.226576 C229.457476,109.794193 229.520831,109.576551 229.648369,109.143753 C235.412425,110.036709 241.055569,111.095487 246.735566,112.367763 C246.581113,112.801389 246.503265,113.018203 246.348397,113.451" id="Fill-151" fill="#CBCCC8"></path>
                        <path d="M245.640313,115.424706 C240.026983,114.149943 234.451335,113.093237 228.751876,112.200282 C228.879,111.767484 228.942355,111.549842 229.069065,111.115801 C234.792127,112.009585 240.392206,113.06712 246.029966,114.340639 C245.87427,114.773851 245.79518,114.990665 245.640313,115.424706" id="Fill-152" fill="#CBCCC8"></path>
                        <path d="M244.934713,117.396753 C239.364034,116.123649 233.830623,115.066943 228.1734,114.172744 C228.300524,113.739117 228.364293,113.521889 228.491831,113.088677 C234.172242,113.982047 239.729256,115.039582 245.323538,116.312272 C245.16867,116.746728 245.089994,116.963956 244.934713,117.396753" id="Fill-153" fill="#CBCCC8"></path>
                        <path d="M244.231597,119.370044 C238.701913,118.096525 233.21198,117.038161 227.596166,116.146035 C227.722876,115.712408 227.786231,115.495595 227.912941,115.062383 C233.552358,115.956168 239.066307,117.013288 244.618766,118.286807 C244.463899,118.720434 244.386051,118.936418 244.231597,119.370044" id="Fill-154" fill="#CBCCC8"></path>
                        <path d="M243.525169,121.342921 C238.038135,120.069816 232.590439,119.011453 227.016034,118.119741 C227.143572,117.685699 227.206927,117.468472 227.334051,117.034845 C232.931231,117.92863 238.402115,118.986165 243.912338,120.260098 C243.757056,120.692481 243.680451,120.90888 243.525169,121.342921" id="Fill-155" fill="#CBCCC8"></path>
                        <path d="M242.818741,123.316212 C237.374772,122.042693 231.969727,120.985573 226.437972,120.091373 C226.56551,119.658161 226.629693,119.440934 226.756403,119.008136 C232.310518,119.901506 237.73958,120.959456 243.206324,122.232975 C243.051042,122.665358 242.974023,122.882585 242.818741,123.316212" id="Fill-156" fill="#CBCCC8"></path>
                        <path d="M242.112727,125.288674 C236.712237,124.014741 231.350256,122.958864 225.860738,122.06425 C225.987862,121.631038 226.050803,121.41381 226.178341,120.980598 C231.690634,121.873554 237.075389,122.930674 242.499482,124.205022 C242.343786,124.63782 242.267594,124.855047 242.112727,125.288674" id="Fill-157" fill="#CBCCC8"></path>
                        <path d="M241.407127,127.261136 C236.049287,125.987617 230.729958,124.930497 225.282262,124.037127 C225.410214,123.604744 225.473155,123.387101 225.599865,122.953889 C231.071163,123.847259 236.413268,124.902722 241.795124,126.178313 C241.640256,126.61194 241.56158,126.827924 241.407127,127.261136" id="Fill-158" fill="#CBCCC8"></path>
                        <path d="M240.701941,129.234013 C235.386338,127.961737 230.110073,126.904203 224.7042,126.010832 C224.831324,125.57762 224.894265,125.359978 225.021803,124.92718 C230.450451,125.82138 235.750318,126.876427 241.089524,128.150775 C240.934242,128.583573 240.857637,128.800801 240.701941,129.234013" id="Fill-159" fill="#CBCCC8"></path>
                        <path d="M228.054558,110.052877 C222.061513,109.401608 216.09207,108.888801 210.073766,108.50119 C210.170662,108.067978 210.21911,107.851165 210.315592,107.416709 C216.358327,107.805978 222.349301,108.319199 228.365535,108.970054 C228.24131,109.402437 228.180025,109.619665 228.054558,110.052877" id="Fill-160" fill="#CBCCC8"></path>
                        <path d="M227.485192,112.025753 C221.535625,111.374899 215.609662,110.862092 209.63318,110.473652 C209.729662,110.04044 209.777696,109.823212 209.874592,109.390415 C215.874676,109.778854 221.823828,110.290832 227.797825,110.943345 C227.672772,111.375313 227.610659,111.592541 227.485192,112.025753" id="Fill-161" fill="#CBCCC8"></path>
                        <path d="M226.916654,113.999044 C221.009324,113.347775 215.126425,112.835383 209.19218,112.446943 C209.288662,112.013316 209.338352,111.796503 209.434834,111.362877 C215.392268,111.751316 221.299597,112.264538 227.230115,112.915807 C227.104648,113.34819 227.041707,113.566247 226.916654,113.999044" id="Fill-162" fill="#CBCCC8"></path>
                        <path d="M226.348115,115.971092 C220.483851,115.321066 214.643189,114.808674 208.752423,114.41982 C208.848904,113.986193 208.898594,113.769794 208.99549,113.336582 C214.910687,113.725022 220.772468,114.236585 226.660749,114.888684 C226.535696,115.321896 226.473169,115.538709 226.348115,115.971092" id="Fill-163" fill="#CBCCC8"></path>
                        <path d="M225.778749,117.943968 C219.957135,117.293943 214.160366,116.781136 208.312251,116.392696 C208.408732,115.959484 208.45718,115.742256 208.553248,115.309873 C214.425794,115.697484 220.246166,116.209877 226.091797,116.861146 C225.96633,117.294772 225.904217,117.512 225.778749,117.943968" id="Fill-164" fill="#CBCCC8"></path>
                        <path d="M225.208969,119.917674 C219.43042,119.265991 213.676715,118.753184 207.870423,118.365573 C207.966904,117.932361 208.014524,117.715547 208.110592,117.282335 C213.94173,117.670361 219.719037,118.183168 225.522431,118.834022 C225.396963,119.268063 225.334023,119.484047 225.208969,119.917674" id="Fill-165" fill="#CBCCC8"></path>
                        <path d="M224.641673,121.890136 C218.904946,121.238867 213.193893,120.727304 207.429837,120.338449 C207.526732,119.905237 207.576008,119.688009 207.672076,119.255627 C213.459735,119.643237 219.194392,120.15563 224.954721,120.807728 C224.829254,121.24094 224.766313,121.456924 224.641673,121.890136" id="Fill-166" fill="#CBCCC8"></path>
                        <path d="M224.071479,123.862598 C218.378645,123.211744 212.711485,122.699766 206.990079,122.310911 C207.086561,121.877699 207.135423,121.660886 207.231904,121.227674 C212.976499,121.616528 218.66809,122.128921 224.384113,122.779775 C224.259059,123.213402 224.196946,123.430215 224.071479,123.862598" id="Fill-167" fill="#CBCCC8"></path>
                        <path d="M223.504183,125.836718 C217.853172,125.185449 212.22742,124.673472 206.549907,124.284203 C206.645975,123.850576 206.695665,123.634592 206.792146,123.201794 C212.494504,123.588991 218.142617,124.101797 223.816817,124.753481 C223.692177,125.186278 223.628823,125.403092 223.504183,125.836718" id="Fill-168" fill="#CBCCC8"></path>
                        <path d="M244.900344,51.640557 C237.644755,50.9735348 230.397034,50.4607278 223.117014,50.0876266 C224.343532,44.5947468 225.570465,39.1022816 226.796569,33.6085728 C234.433115,33.9816741 242.039848,34.494481 249.652377,35.1606741 C248.068504,40.6543829 246.484631,46.1472627 244.900344,51.640557" id="Fill-169" fill="#CBCCC8"></path>
                        <path d="M205.295231,124.232797 C199.460366,124.144911 193.664011,124.186367 187.831631,124.353019 C188.694583,118.730797 189.555879,113.108161 190.417589,107.485525 C196.615606,107.319703 202.781324,107.279076 208.980583,107.364889 C207.753237,112.988354 206.523406,118.609747 205.295231,124.232797" id="Fill-170" fill="#CBCCC8"></path>
                        <path d="M32.533862,54.5748544 L18.6301465,56.1095443 C16.0504,56.3947595 13.7526451,54.7477247 13.497569,52.4311804 C13.242493,50.1154652 15.1269915,48.0078576 17.7063239,47.7222278 L31.6104535,46.187538 C34.1897859,45.9031519 36.4875408,47.5493576 36.743031,49.8654873 C36.997693,52.1820316 35.1136085,54.2904684 32.533862,54.5748544 Z" id="Fill-171" fill="#FBD7A2"></path>
                        <path d="M40.9878113,56.7790538 C41.2428873,59.0955981 39.3588028,61.2036203 36.7794704,61.4884209 L19.4334704,63.4028449 C16.8533099,63.6876456 14.555969,62.0414399 14.300893,59.7248956 C14.0458169,57.4087658 15.9299014,55.3003291 18.5096479,55.015943 L35.8556479,53.101519 C38.4349803,52.8158892 40.7327352,54.4629241 40.9878113,56.7790538" id="Fill-172" fill="#FBD7A2"></path>
                        <path d="M41.7025211,63.2685285 C41.9575972,65.5850728 40.0735127,67.6930949 37.4941803,67.9778956 L20.1481803,69.8927342 C17.5684338,70.1771203 15.2706789,68.5305 15.0156028,66.2147848 C14.7605268,63.8986551 16.6446113,61.7902184 19.2243577,61.5050032 L36.5703577,59.5909937 C39.1496901,59.3057785 41.4474451,60.9523987 41.7025211,63.2685285" id="Fill-173" fill="#FBD7A2"></path>
                        <path d="M38.5844648,69.1179272 C38.7737014,70.8366804 37.3749239,72.4012184 35.4610254,72.6126424 L22.5900366,74.0333291 C20.6757239,74.2447532 18.970938,73.0230538 18.7812873,71.3043006 C18.5920507,69.5851329 19.9904141,68.0205949 21.9043127,67.8091709 L34.7757155,66.3884842 C36.6896141,66.1774747 38.3948141,67.3987595 38.5844648,69.1179272" id="Fill-174" fill="#FBD7A2"></path>
                        <path d="M254.274803,67.8654873 C254.020141,70.1820316 255.904639,72.2904684 258.483558,72.5748544 L272.388101,74.1095443 C274.967848,74.3947595 277.265603,72.7477247 277.520679,70.4311804 C277.775755,68.1154652 275.891256,66.0078576 273.31151,65.7222278 L259.407794,64.187538 C256.828048,63.9031519 254.530293,65.5493576 254.274803,67.8654873" id="Fill-175" fill="#F8DEB9"></path>
                        <path d="M250.030023,74.7790538 C249.774946,77.0955981 251.659859,79.2036203 254.239192,79.4884209 L271.584777,81.4028449 C274.164938,81.6876456 276.461865,80.0414399 276.717355,77.7248956 C276.972431,75.4087658 275.088346,73.3003291 272.508186,73.015943 L255.163014,71.101519 C252.582854,70.8158892 250.285513,72.4629241 250.030023,74.7790538" id="Fill-176" fill="#F8DEB9"></path>
                        <path d="M249.315313,81.2685285 C249.060237,83.5850728 250.944321,85.6930949 253.524068,85.9778956 L270.870068,87.8927342 C273.4494,88.1771203 275.747569,86.5305 276.002645,84.2147848 C276.257307,81.8986551 274.373637,79.7902184 271.79389,79.5050032 L254.447476,77.5909937 C251.868144,77.3057785 249.569975,78.9523987 249.315313,81.2685285" id="Fill-177" fill="#F8DEB9"></path>
                        <path d="M252.433369,87.1179272 C252.244546,88.8366804 253.643324,90.4012184 255.557223,90.6126424 L268.428625,92.0333291 C270.34211,92.2447532 272.04731,91.0230538 272.236961,89.3043006 C272.426197,87.5851329 271.02742,86.0205949 269.113521,85.8091709 L256.242118,84.3884842 C254.32822,84.1774747 252.623434,85.3987595 252.433369,87.1179272" id="Fill-178" fill="#F8DEB9"></path>
                    </g>
                </g>
            </g>
        </g>
    </g>
</svg>
