<?xml version="1.0" encoding="UTF-8" standalone="no"?>
<svg width="156px" height="117px" viewBox="0 0 156 117" version="1.1" xmlns="http://www.w3.org/2000/svg" xmlns:xlink="http://www.w3.org/1999/xlink" xmlns:sketch="http://www.bohemiancoding.com/sketch/ns">
    <!-- Generator: Sketch 3.4.4 (17249) - http://www.bohemiancoding.com/sketch -->
    <title>Desktop HD</title>
    <desc>Created with Sketch.</desc>
    <defs></defs>
    <g id="Page-1" stroke="none" stroke-width="1" fill="none" fill-rule="evenodd" sketch:type="MSPage">
        <g id="Desktop-HD" sketch:type="MSArtboardGroup" transform="translate(-373.000000, -1207.000000)">
            <g id="news-+-Desktop-HD" sketch:type="MSLayerGroup" transform="translate(373.000000, 1207.000000)">
                <g id="magazine" transform="translate(40.000000, 9.000000)" sketch:type="MSShapeGroup">
                    <path d="M70.3180473,69.3843047 L53.8371741,51.2437148 L40.3104577,58.8181816 C39.2111965,59.4338379 37.8803607,59.4576211 36.7602214,58.8816035 L17.4018085,48.9284297 L6.73213682,61.637748 C4.45929602,64.3447793 0.0662736318,62.711666 0.0662736318,59.1699023 L0.0662736318,3.81710742 C0.0664651741,1.70910352 1.75950746,0 3.84770149,0 L73.1044129,0 C75.192607,0 76.8856493,1.70910352 76.8856493,3.81710742 L76.8856493,66.8041172 C76.8856493,70.2741445 72.6441368,71.9445762 70.3180473,69.3843047 L70.3180473,69.3843047 Z" id="Shape" fill="#80D0E1"></path>
                    <path d="M73.1044129,0 L38.4760572,0 L38.4760572,59.2938457 C39.1085299,59.2938457 39.7404279,59.137418 40.3102662,58.8181816 L53.8369826,51.2437148 L70.3178557,69.3843047 C72.6452861,71.9457363 76.8858408,70.2731777 76.8858408,66.8041172 L76.8858408,3.81710742 C76.8856493,1.70910352 75.19299,0 73.1044129,0 L73.1044129,0 Z" id="Shape" fill="#51B3DA"></path>
                    <path d="M60.4995896,33.5169141 L16.4525249,33.5169141 C14.3643308,33.5169141 12.6712886,31.8078105 12.6712886,29.6998066 L12.6712886,16.5407344 C12.6712886,14.4327305 14.3643308,12.723627 16.4525249,12.723627 L60.4995896,12.723627 C62.5877836,12.723627 64.2808259,14.4327305 64.2808259,16.5407344 L64.2808259,29.7 C64.2808259,31.8080039 62.5881667,33.5169141 60.4995896,33.5169141 L60.4995896,33.5169141 Z" id="Shape" fill="#FFDA79"></path>
                    <g id="Group" transform="translate(0.000000, 40.218750)" fill="#36495E">
                        <path d="M73.1044129,58.78125 L3.84770149,58.78125 C1.75950746,58.78125 0.0664651741,57.0721465 0.0664651741,54.9641426 L0.0664651741,18.9511523 C0.0664651741,18.0471973 0.384042289,17.1728262 0.963074627,16.4833066 L13.5671318,1.46933789 C14.7010622,0.119109375 16.6057587,-0.267416016 18.1677861,0.535992188 L38.400398,10.9389199 L52.7750721,2.88975586 C54.3039627,2.03394727 56.2144055,2.34718945 57.3960299,3.64791797 L75.8911617,24.0057598 C77.2612637,25.5137695 76.8856493,24.037084 76.8856493,54.9647227 C76.8856493,57.0721465 75.19299,58.78125 73.1044129,58.78125 L73.1044129,58.78125 Z" id="Shape"></path>
                        <path d="M75.8913532,24.005373 L57.3962214,3.64753125 C56.2144055,2.34718945 54.3041542,2.03394727 52.7752637,2.88936914 L38.4762488,10.8961875 L38.4762488,58.78125 L73.1046045,58.78125 C75.1927985,58.78125 76.8858408,57.0721465 76.8858408,54.9641426 C76.8856493,24.4694355 77.2641368,25.5166699 75.8913532,24.005373 L75.8913532,24.005373 Z" id="Shape"></path>
                    </g>
                    <g id="Group" transform="translate(12.641791, 66.515625)" fill="#FFDA79">
                        <path d="M25.4896816,7.7972168 L3.81073383,7.7972168 C1.7225398,7.7972168 0.0294975124,6.08811328 0.0294975124,3.98010938 C0.0294975124,1.87210547 1.7225398,0.163001953 3.81073383,0.163001953 L25.4896816,0.163001953 C27.5778756,0.163001953 29.2709179,1.87210547 29.2709179,3.98010938 C29.2709179,6.08811328 27.5778756,7.7972168 25.4896816,7.7972168 L25.4896816,7.7972168 Z" id="Shape"></path>
                        <path d="M25.4896816,19.1195684 L3.81073383,19.1195684 C1.7225398,19.1195684 0.0294975124,17.4104648 0.0294975124,15.3024609 C0.0294975124,13.194457 1.7225398,11.4853535 3.81073383,11.4853535 L25.4896816,11.4853535 C27.5778756,11.4853535 29.2709179,13.194457 29.2709179,15.3024609 C29.2709179,17.4104648 27.5778756,19.1195684 25.4896816,19.1195684 L25.4896816,19.1195684 Z" id="Shape"></path>
                    </g>
                    <g id="Group" transform="translate(38.308458, 12.568359)" fill="#FFD155">
                        <path d="M22.1911318,0.155267578 L0.167599502,0.155267578 L0.167599502,20.948748 L22.1911318,20.948748 C24.2793259,20.948748 25.9723682,19.2396445 25.9723682,17.1316406 L25.9723682,3.972375 C25.9723682,1.86398437 24.279709,0.155267578 22.1911318,0.155267578 L22.1911318,0.155267578 Z" id="Shape"></path>
                        <path d="M3.60425124,57.927375 C3.60425124,55.9365469 2.09432338,54.3040137 0.167599502,54.1278633 L0.167599502,61.7268867 C2.09432338,61.551123 3.60425124,59.9182031 3.60425124,57.927375 L3.60425124,57.927375 Z" id="Shape"></path>
                        <path d="M3.60425124,69.2497266 C3.60425124,67.2588984 2.09432338,65.6263652 0.167599502,65.4502148 L0.167599502,73.0492383 C2.09432338,72.8730879 3.60425124,71.2403613 3.60425124,69.2497266 L3.60425124,69.2497266 Z" id="Shape"></path>
                    </g>
                </g>
            </g>
        </g>
    </g>
</svg>