<?xml version="1.0" encoding="UTF-8" standalone="no"?>
<svg width="133px" height="127px" viewBox="0 0 133 127" version="1.1" xmlns="http://www.w3.org/2000/svg" xmlns:xlink="http://www.w3.org/1999/xlink" xmlns:sketch="http://www.bohemiancoding.com/sketch/ns">
    <!-- Generator: Sketch 3.4.4 (17249) - http://www.bohemiancoding.com/sketch -->
    <title>calendar</title>
    <desc>Created with Sketch.</desc>
    <defs></defs>
    <g id="Page-1" stroke="none" stroke-width="1" fill="none" fill-rule="evenodd" sketch:type="MSPage">
        <g id="Desktop-HD" sketch:type="MSArtboardGroup" transform="translate(-548.000000, -1199.000000)">
            <g id="calendar-+-668,000-copy-+-impressions-each-mon-copy" sketch:type="MSLayerGroup" transform="translate(496.000000, 1207.000000)">
                <g id="calendar" transform="translate(62.000000, 0.000000)" sketch:type="MSShapeGroup">
                    <g id="Group">
                        <path d="M0,27.4715447 L0,100.138211 C0,105.02438 3.96051758,109 8.828125,109 L104.171875,109 C109.039482,109 113,105.02438 113,100.138211 L113,27.4715447 L0,27.4715447 L0,27.4715447 Z" id="Shape" fill="#D8DCE1"></path>
                        <path d="M104.171875,2.65853659 L8.828125,2.65853659 C3.96051758,2.65853659 0,6.6341565 0,11.5203252 L0,27.4715447 L113,27.4715447 L113,11.5203252 C113,6.6341565 109.039262,2.65853659 104.171875,2.65853659 L104.171875,2.65853659 Z M14.125,20.3821138 C11.1995801,20.3821138 8.828125,18.0016159 8.828125,15.0650407 C8.828125,12.1284654 11.1995801,9.74796748 14.125,9.74796748 C17.0504199,9.74796748 19.421875,12.1284654 19.421875,15.0650407 C19.421875,18.0016159 17.0504199,20.3821138 14.125,20.3821138 L14.125,20.3821138 Z M98.875,20.3821138 C95.9495801,20.3821138 93.578125,18.0016159 93.578125,15.0650407 C93.578125,12.1284654 95.9495801,9.74796748 98.875,9.74796748 C101.80042,9.74796748 104.171875,12.1284654 104.171875,15.0650407 C104.171875,18.0016159 101.80042,20.3821138 98.875,20.3821138 L98.875,20.3821138 Z" id="Shape" fill="#FF4F19"></path>
                        <g transform="translate(14.125000, 43.422764)" id="Shape" fill="#FFFFFF">
                            <path d="M42.375,0 C38.4800313,0 35.3125,3.17960976 35.3125,7.08943089 C35.3125,10.999252 38.4800313,14.1788618 42.375,14.1788618 C46.2699688,14.1788618 49.4375,10.999252 49.4375,7.08943089 C49.4375,3.17960976 46.2699688,0 42.375,0 L42.375,0 Z"></path>
                            <path d="M24.71875,0 C20.8237812,0 17.65625,3.17960976 17.65625,7.08943089 C17.65625,10.999252 20.8237812,14.1788618 24.71875,14.1788618 C28.6137187,14.1788618 31.78125,10.999252 31.78125,7.08943089 C31.78125,3.17960976 28.6137187,0 24.71875,0 L24.71875,0 Z"></path>
                            <path d="M7.0625,0 C3.16753125,0 0,3.17960976 0,7.08943089 C0,10.999252 3.16753125,14.1788618 7.0625,14.1788618 C10.9574687,14.1788618 14.125,10.999252 14.125,7.08943089 C14.125,3.17960976 10.9574687,0 7.0625,0 L7.0625,0 Z"></path>
                            <path d="M60.03125,0 C56.1362812,0 52.96875,3.17960976 52.96875,7.08943089 C52.96875,10.999252 56.1362812,14.1788618 60.03125,14.1788618 C63.9262188,14.1788618 67.09375,10.999252 67.09375,7.08943089 C67.09375,3.17960976 63.9262188,0 60.03125,0 L60.03125,0 Z"></path>
                            <path d="M77.6875,14.1788618 C81.5824688,14.1788618 84.75,10.999252 84.75,7.08943089 C84.75,3.17960976 81.5824688,0 77.6875,0 C73.7925312,0 70.625,3.17960976 70.625,7.08943089 C70.625,10.999252 73.7923105,14.1788618 77.6875,14.1788618 L77.6875,14.1788618 Z"></path>
                            <path d="M42.375,17.7235772 C38.4800313,17.7235772 35.3125,20.903187 35.3125,24.8130081 C35.3125,28.7228293 38.4800313,31.902439 42.375,31.902439 C46.2699688,31.902439 49.4375,28.7228293 49.4375,24.8130081 C49.4375,20.903187 46.2699688,17.7235772 42.375,17.7235772 L42.375,17.7235772 Z"></path>
                            <path d="M24.71875,17.7235772 C20.8237812,17.7235772 17.65625,20.903187 17.65625,24.8130081 C17.65625,28.7228293 20.8237812,31.902439 24.71875,31.902439 C28.6137187,31.902439 31.78125,28.7228293 31.78125,24.8130081 C31.78125,20.903187 28.6137187,17.7235772 24.71875,17.7235772 L24.71875,17.7235772 Z"></path>
                            <path d="M7.0625,17.7235772 C3.16753125,17.7235772 0,20.903187 0,24.8130081 C0,28.7228293 3.16753125,31.902439 7.0625,31.902439 C10.9574687,31.902439 14.125,28.7228293 14.125,24.8130081 C14.125,20.903187 10.9574687,17.7235772 7.0625,17.7235772 L7.0625,17.7235772 Z"></path>
                            <path d="M60.03125,17.7235772 C56.1362812,17.7235772 52.96875,20.903187 52.96875,24.8130081 C52.96875,28.7228293 56.1362812,31.902439 60.03125,31.902439 C63.9262188,31.902439 67.09375,28.7228293 67.09375,24.8130081 C67.09375,20.903187 63.9262188,17.7235772 60.03125,17.7235772 L60.03125,17.7235772 Z"></path>
                            <path d="M77.6875,17.7235772 C73.7925312,17.7235772 70.625,20.903187 70.625,24.8130081 C70.625,28.7228293 73.7925312,31.902439 77.6875,31.902439 C81.5824688,31.902439 84.75,28.7228293 84.75,24.8130081 C84.75,20.903187 81.5824688,17.7235772 77.6875,17.7235772 L77.6875,17.7235772 Z"></path>
                            <path d="M42.375,35.4471545 C38.4800313,35.4471545 35.3125,38.6267642 35.3125,42.5365854 C35.3125,46.4464065 38.4800313,49.6260163 42.375,49.6260163 C46.2699688,49.6260163 49.4375,46.4464065 49.4375,42.5365854 C49.4375,38.6265427 46.2699688,35.4471545 42.375,35.4471545 L42.375,35.4471545 Z"></path>
                            <path d="M24.71875,35.4471545 C20.8237812,35.4471545 17.65625,38.6267642 17.65625,42.5365854 C17.65625,46.4464065 20.8237812,49.6260163 24.71875,49.6260163 C28.6137187,49.6260163 31.78125,46.4464065 31.78125,42.5365854 C31.78125,38.6265427 28.6137187,35.4471545 24.71875,35.4471545 L24.71875,35.4471545 Z"></path>
                            <path d="M7.0625,35.4471545 C3.16753125,35.4471545 0,38.6267642 0,42.5365854 C0,46.4464065 3.16753125,49.6260163 7.0625,49.6260163 C10.9574687,49.6260163 14.125,46.4464065 14.125,42.5365854 C14.125,38.6265427 10.9574687,35.4471545 7.0625,35.4471545 L7.0625,35.4471545 Z"></path>
                            <path d="M60.03125,35.4471545 C56.1362812,35.4471545 52.96875,38.6267642 52.96875,42.5365854 C52.96875,46.4464065 56.1362812,49.6260163 60.03125,49.6260163 C63.9262188,49.6260163 67.09375,46.4464065 67.09375,42.5365854 C67.09375,38.6265427 63.9262188,35.4471545 60.03125,35.4471545 L60.03125,35.4471545 Z"></path>
                            <path d="M77.6875,35.4471545 C73.7925312,35.4471545 70.625,38.6267642 70.625,42.5365854 C70.625,46.4464065 73.7925312,49.6260163 77.6875,49.6260163 C81.5824688,49.6260163 84.75,46.4464065 84.75,42.5365854 C84.75,38.6265427 81.5824688,35.4471545 77.6875,35.4471545 L77.6875,35.4471545 Z"></path>
                        </g>
                        <path d="M14.125,17.7235772 C12.6628418,17.7235772 11.4765625,16.5336606 11.4765625,15.0650407 L11.4765625,2.65853659 C11.4765625,1.18991667 12.6628418,0 14.125,0 C15.5871582,0 16.7734375,1.18991667 16.7734375,2.65853659 L16.7734375,15.0650407 C16.7734375,16.5336606 15.5871582,17.7235772 14.125,17.7235772 L14.125,17.7235772 Z" id="Shape" fill="#5C546A"></path>
                        <path d="M98.875,17.7235772 C97.4128418,17.7235772 96.2265625,16.5336606 96.2265625,15.0650407 L96.2265625,2.65853659 C96.2265625,1.18991667 97.4128418,0 98.875,0 C100.337158,0 101.523438,1.18991667 101.523438,2.65853659 L101.523438,15.0650407 C101.523438,16.5336606 100.337158,17.7235772 98.875,17.7235772 L98.875,17.7235772 Z" id="Shape" fill="#5C546A"></path>
                        <ellipse id="Oval" fill="#FFD200" cx="21.1875" cy="50.5121951" rx="7.0625" ry="7.08943089"></ellipse>
                        <ellipse id="Oval" fill="#FF9600" cx="56.5" cy="85.9593496" rx="7.0625" ry="7.08943089"></ellipse>
                        <ellipse id="Oval" fill="#FF4F19" cx="74.15625" cy="68.2357724" rx="7.0625" ry="7.08943089"></ellipse>
                    </g>
                </g>
            </g>
        </g>
    </g>
</svg>