<?xml version="1.0" encoding="UTF-8"?>
<svg width="432px" height="142px" viewBox="0 0 432 142" version="1.1" xmlns="http://www.w3.org/2000/svg" xmlns:xlink="http://www.w3.org/1999/xlink">
    <!-- Generator: Sketch 45 (43475) - http://www.bohemiancoding.com/sketch -->
    <title>Group 9</title>
    <desc>Created with Sketch.</desc>
    <defs>
        <filter x="-0.7%" y="-2.1%" width="101.4%" height="104.3%" filterUnits="objectBoundingBox" id="filter-1">
            <feOffset dx="0" dy="0" in="SourceAlpha" result="shadowOffsetOuter1"></feOffset>
            <feGaussianBlur stdDeviation="1" in="shadowOffsetOuter1" result="shadowBlurOuter1"></feGaussianBlur>
            <feColorMatrix values="0 0 0 0 0   0 0 0 0 0   0 0 0 0 0  0 0 0 0.5 0" type="matrix" in="shadowBlurOuter1" result="shadowMatrixOuter1"></feColorMatrix>
            <feMerge>
                <feMergeNode in="shadowMatrixOuter1"></feMergeNode>
                <feMergeNode in="SourceGraphic"></feMergeNode>
            </feMerge>
        </filter>
    </defs>
    <g id="Page-1" stroke="none" stroke-width="1" fill="none" fill-rule="evenodd">
        <g id="Desktop-HD" transform="translate(-506.000000, -64.000000)">
            <g id="Group-8" filter="url(#filter-1)" transform="translate(505.000000, 66.000000)">
                <g id="Group-9">
                    <g id="Group-7" transform="translate(99.000000, 123.000000)">
                        <path d="M200.5,9 L232.280497,9" id="Line" stroke="#FFFFFF" stroke-width="2" stroke-linecap="square"></path>
                        <path d="M0.5,9 L32.2804972,9" id="Line-Copy" stroke="#FFFFFF" stroke-width="2" stroke-linecap="square"></path>
                        <text id="GETTING-OLD-SINCE-19" font-family="LFTEtica-SemiBoldItalic, LFT Etica" font-size="12" font-style="italic" font-weight="500" letter-spacing="0.53333348" fill="#FFFFFF">
                            <tspan x="40.4513317" y="14">GETTING OLD SINCE 1918</tspan>
                        </text>
                    </g>
                    <text id="CENTENNIAL" font-family="Adelle-SemiBoldItalic, Adelle" font-size="64" font-style="italic" font-weight="500" letter-spacing="0.639999986" fill="#FFFFFF">
                        <tspan x="0.308000064" y="100">CENTENNIA</tspan>
                        <tspan x="394.1" y="100">L</tspan>
                    </text>
                    <g id="ubyssey-logo" transform="translate(129.000000, 0.000000)" fill-rule="nonzero" fill="#FFFFFF">
                        <path d="M19.7722539,1.42244735 C20.6555383,1.76008709 21.3437813,2.33814047 21.8369828,3.15601824 C22.2783304,3.87018816 22.4992988,5.1688932 22.4992988,7.05213336 L22.4992988,7.71444936 L22.4992988,20.8829885 L22.518744,21.4869688 C22.5311182,22.0326135 22.6165594,22.4415524 22.7721211,22.7143747 C22.9017559,22.9477174 23.2199505,23.2399849 23.7267047,23.5905881 C23.4798093,23.9671183 23.2393957,24.2529041 23.006053,24.4479456 C22.7332307,24.6559505 22.3561113,24.8834007 21.8758732,25.1297068 C21.3697082,25.3895657 21.0255868,25.6299793 20.844098,25.8503585 C20.6490566,26.0583634 20.4799421,26.4219301 20.3373438,26.9416478 C19.4540594,26.7854968 18.7982251,26.4024849 18.369841,25.7920228 C18.1747996,25.506237 18.0257195,25.1685973 17.9214224,24.7791036 C17.8047511,24.3507195 17.700454,23.7272939 17.6097097,22.9088269 L17.5902644,22.6365938 C17.3180314,23.1303846 16.9409119,23.5846957 16.4606739,24.0001163 L15.6033164,24.7402132 C14.90211,25.3377118 14.5444358,26.0713269 14.5320616,26.9416478 L14.3570546,26.9416478 C12.4219605,26.9416478 10.6689444,26.506782 9.09741702,25.6364611 C7.51292616,24.7531766 6.27903852,23.552287 5.39634335,22.0326135 C4.50009546,20.4870131 4.05226613,18.7793692 4.05226613,16.9090925 C4.05226613,15.7017211 4.28619803,14.5067239 4.75347258,13.3246901 C5.19482016,12.1691726 5.85713616,11.0525456 6.74042058,9.9742197 C7.5842253,8.92241003 8.59714452,7.98078995 9.77917824,7.14994871 C10.7013531,6.52652315 11.2723355,6.21481037 11.4933039,6.21481037 C11.6229387,6.21481037 11.6883454,6.27314603 11.6883454,6.38981736 C11.6883454,6.46759824 11.59053,6.59782229 11.3960778,6.77990027 C10.4090855,7.57185107 9.61006374,8.63721346 8.99960167,9.9742197 C8.38913959,11.3124044 8.0844978,12.6429289 8.0844978,13.9675609 C8.0844978,15.266266 8.33787492,16.4995643 8.8440399,17.6686346 C9.35020489,18.8371156 10.0779275,19.8376606 11.0260294,20.6685018 C11.9735419,21.499343 13.071313,22.1292503 14.3181641,22.5582237 L14.3181641,3.5455119 C13.5262133,4.03930265 12.8308994,4.38342413 12.23399,4.57787634 C11.6883454,4.74699084 10.9411775,4.83125346 9.99366492,4.83125346 C9.51342689,4.83125346 8.81811294,4.79884476 7.90949081,4.73343811 C7.06509684,4.68217343 6.44167128,4.65565722 6.03921413,4.65565722 C4.90962359,4.65565722 3.98096699,4.92199782 3.25383359,5.45467902 C2.53966367,5.97439673 2.18257871,6.68208491 2.18257871,7.57833281 C2.18257871,8.17583141 2.37762016,8.6819964 2.76711382,9.09741702 C3.14364401,9.52639037 3.59147333,9.7402878 4.11119104,9.7402878 C4.66920995,9.7402878 5.17596419,9.55231733 5.6308645,9.17578715 C5.89013411,8.95481873 6.05276686,8.84462915 6.11817352,8.84462915 C6.29966224,8.84462915 6.3904066,8.9424445 6.3904066,9.13689671 C6.3904066,9.40971905 6.11817352,9.69550487 5.57252884,9.99425416 C5.03984764,10.28004 4.47475775,10.4232275 3.8778484,10.4232275 C3.13775151,10.4232275 2.48191725,10.2217043 1.91034562,9.81924718 C1.3258105,9.42975352 0.865017694,8.89059058 0.527377954,8.20234762 C0.175006986,7.51292616 0,6.7598658 0,5.94139878 C0,5.18833842 0.155561765,4.46120502 0.467274545,3.75940933 C0.778987324,3.07116636 1.20737143,2.47366777 1.7530161,1.96691353 C2.2856973,1.47371203 2.9480133,1.07832587 3.7399641,0.778987324 C4.48006099,0.493790755 5.28556452,0.350603221 6.15588546,0.350603221 C7.48051746,0.350603221 9.09034603,0.909211378 10.9871389,2.02583844 C11.5192309,2.33755122 11.9482042,2.5520379 12.2728805,2.66870922 C12.6105202,2.78538055 12.9870504,2.84371621 13.402471,2.84371621 C13.6358137,2.84371621 13.941634,2.79186229 14.3181641,2.68756519 L14.3181641,2.43418808 C14.3829815,0.811396025 14.7659935,0 15.4671999,0 C15.8307666,0 16.0122553,0.227450157 16.0122553,0.681761221 C16.0122553,1.25333286 15.6616521,2.00639322 14.9604457,2.94094231 L14.9604457,5.29793875 C15.3505286,4.89548161 15.7005426,4.59025057 16.0122553,4.38224564 C16.3634478,4.14890299 16.9344302,3.83660096 17.726381,3.4471073 C18.2979526,3.148358 18.7263367,2.85667969 19.0127118,2.57030462 C19.3108719,2.27273382 19.564249,1.8897219 19.7722539,1.42244735 Z M14.9604457,8.63014247 L14.9604457,13.1107927 L17.6486001,13.1107927 L17.6486001,8.70851261 C17.6486001,7.46166149 17.5572665,6.60430403 17.3757778,6.13702949 C17.1936998,5.68271842 16.8560601,5.45526827 16.3628586,5.45526827 C15.8301774,5.45526827 15.4666107,5.68861091 15.2715692,6.15647471 C15.0641535,6.62316 14.9604457,7.44810876 14.9604457,8.63014247 Z M17.6491894,15.389419 L17.6491894,13.8114099 L14.9610349,13.8114099 L14.9610349,15.389419 L17.6491894,15.389419 Z M17.6491894,18.9932666 L17.6491894,16.0906255 L14.9610349,16.0906255 L14.9610349,22.6554498 C15.1301494,22.7073037 15.2921929,22.7332307 15.4483439,22.7332307 C16.1495504,22.7332307 16.6951951,22.4480341 17.0846887,21.8758732 C17.4612189,21.3048908 17.6497786,20.5253143 17.6497786,19.538322 L17.6497786,18.9932666 L17.6491894,18.9932666 Z" id="Shape"></path>
                        <g id="Group" transform="translate(29.803590, 5.892491)">
                            <path d="M12.7042512,4.4741685 C12.4314289,3.29154553 12.1132344,2.54143141 11.7037062,2.13190328 C11.3171588,1.72237515 10.726142,1.58566936 9.40740245,1.58566936 L8.36148528,1.58566936 L8.36148528,12.3412334 C8.36148528,14.2739705 8.58893543,14.4106762 10.5900254,14.5697735 L10.5900254,15.3658491 L3.17668235,15.3658491 L3.17668235,14.5697735 C5.08643872,14.4106762 5.31388888,14.2745597 5.31388888,12.3412334 L5.31388888,1.58566936 L4.54079404,1.58566936 C2.67640986,1.58566936 2.26688172,1.83610023 1.92570649,2.19966693 C1.56213979,2.58621435 1.26633673,3.35930918 0.970533681,4.49655996 L0.152066666,4.49655996 C0.242811029,2.83664522 0.379516823,1.17673047 0.424889004,0.0164989751 L0.970533681,0.0164989751 C1.33468963,0.539752185 1.62990344,0.585124367 2.26688172,0.585124367 L11.4084924,0.585124367 C12.02249,0.585124367 12.3406845,0.449007822 12.7272319,0.0164989751 L13.2728766,0.0164989751 C13.2958573,0.971671783 13.4095824,2.97276176 13.5233075,4.42820707 L12.7042512,4.4741685 Z" id="Shape"></path>
                            <path d="M31.0552363,1.38119992 C29.2815964,1.54029718 29.1448907,1.67641372 29.1448907,3.60974005 L29.1448907,12.3642141 C29.1448907,14.2745597 29.3269686,14.4112655 31.0552363,14.5697735 L31.0552363,15.3658491 L24.1197742,15.3658491 L24.1197742,14.5697735 C25.9387862,14.4106762 26.0978835,14.251579 26.0978835,12.3412334 L26.0978835,8.11160326 L19.8901441,8.11160326 L19.8901441,12.3412334 C19.8901441,14.2739705 20.0716329,14.4106762 21.7545283,14.5697735 L21.7545283,15.3658491 L14.9781635,15.3658491 L14.9781635,14.5697735 C16.6380783,14.4106762 16.843137,14.2745597 16.843137,12.3412334 L16.843137,3.60974005 C16.843137,1.67700297 16.6386675,1.54029718 14.8874192,1.38119992 L14.8874192,0.585124367 L21.7091561,0.585124367 L21.7091561,1.38119992 C20.0716329,1.54029718 19.8901441,1.67641372 19.8901441,3.60974005 L19.8901441,6.95255026 L26.0978835,6.95255026 L26.0978835,3.60974005 C26.0978835,1.67700297 25.9158055,1.54029718 24.2329101,1.38119992 L24.2329101,0.585124367 L31.054647,0.585124367 L31.054647,1.38119992 L31.0552363,1.38119992 Z" id="Shape"></path>
                            <path d="M44.8807882,11.5917085 C44.7446716,12.614645 44.2667906,14.6840878 44.0847126,15.3664383 L32.4877009,15.3664383 L32.4877009,14.5703628 C34.4204379,14.4112655 34.6484773,14.275149 34.6484773,12.3418226 L34.6484773,3.60974005 C34.6484773,1.63163079 34.4210272,1.51790571 32.8064846,1.38119992 L32.8064846,0.585124367 L43.5166765,0.585124367 C43.5396572,0.99406325 43.6533823,2.58621435 43.7441266,3.99628747 L42.9256596,4.11001255 C42.6982094,3.313937 42.4024064,2.56382288 41.9928783,2.15429475 C41.6063308,1.74476662 40.9923333,1.58566936 39.7189659,1.58566936 L38.6276766,1.58566936 C37.7862289,1.58566936 37.6954845,1.63104154 37.6954845,2.38174491 L37.6954845,7.20298113 L39.2186934,7.20298113 C41.1284498,7.20298113 41.4242529,7.08925605 41.7430366,5.49710495 L42.5615037,5.49710495 L42.5615037,10.0903018 L41.7430366,10.0903018 C41.4242529,8.45336774 41.1520198,8.36203413 39.2186934,8.36203413 L37.6954845,8.36203413 L37.6954845,12.2958612 C37.6954845,13.3641698 37.7862289,13.9327952 38.2411292,14.1608346 C38.6500681,14.3429126 39.4231629,14.3882848 40.2875913,14.3882848 C41.4472336,14.3882848 42.2657006,14.2291875 42.8113453,13.6605621 C43.2432649,13.1602896 43.652793,12.432567 44.0847126,11.432022 L44.8807882,11.5917085 Z" id="Shape"></path>
                            <path d="M66.5062305,1.38119992 C65.2552547,1.44955281 64.6872185,1.92684459 64.5734934,2.72292014 C64.4597684,3.42766208 64.3684347,4.26910981 64.3684347,5.88365237 L64.3684347,8.36262338 C64.3684347,10.7732415 64.004868,12.6835871 62.7315007,14.0471095 C61.6855835,15.1389881 60.1393939,15.7070243 58.5248513,15.7070243 C57.0240338,15.7070243 55.5915692,15.3888298 54.4996906,14.5244013 C53.2033426,13.5238563 52.6123257,11.8409609 52.6123257,9.18109039 L52.6123257,3.83719021 C52.6123257,1.69998368 52.3848756,1.54029718 50.7025694,1.38119992 L50.7025694,0.585124367 L57.547287,0.585124367 L57.547287,1.38119992 C55.8873723,1.54029718 55.6599221,1.69998368 55.6599221,3.83719021 L55.6599221,8.77156226 C55.6599221,12.1827254 56.8879173,14.1608346 59.3433183,14.1608346 C62.0491502,14.1608346 63.2317732,12.1143725 63.2317732,8.31666195 L63.2317732,5.88365237 C63.2317732,4.26910981 63.1180481,3.40527061 63.004323,2.72292014 C62.890598,1.92684459 62.3449533,1.47194428 60.7981744,1.38119992 L60.7981744,0.585124367 L66.5062305,0.585124367 L66.5062305,1.38119992 Z" id="Shape"></path>
                            <path d="M75.7385856,7.42984204 C78.3766538,7.74803656 80.127313,8.81693444 80.127313,10.9771217 C80.127313,12.5003306 79.2858652,13.6829536 77.9901064,14.3882848 C76.8298749,15.0476545 75.0792158,15.3664383 73.1918509,15.3664383 L67.4160311,15.3664383 L67.4160311,14.5703628 C69.1672795,14.4112655 69.3717489,14.2521682 69.3717489,12.3194312 L69.3717489,3.63272077 C69.3717489,1.69998368 69.1672795,1.54088642 67.5527369,1.38178916 L67.5527369,0.585713616 L74.1929852,0.585713616 C75.9442335,0.585713616 77.0803058,0.813163773 77.9447342,1.38178916 C78.786182,1.92743384 79.2864545,2.83723447 79.2864545,3.973896 C79.2864545,6.13408324 77.3761089,7.02090315 75.7391748,7.33909767 L75.7391748,7.42984204 L75.7385856,7.42984204 Z M72.8966371,7.11164752 C75.0798051,7.11164752 76.0573693,6.24780832 76.0573693,4.36044342 C76.0573693,2.31398126 74.8299634,1.54088642 73.6013791,1.54088642 C73.1011066,1.54088642 72.7145591,1.67700297 72.5784426,1.81370876 C72.4193453,1.97280602 72.3739732,2.31398126 72.3739732,2.79127304 L72.3739732,7.11164752 L72.8966371,7.11164752 Z M72.3733839,12.2734697 C72.3733839,13.9563652 72.8282842,14.433657 74.0332987,14.4112655 C75.306666,14.3882848 76.7397198,13.4555034 76.7397198,11.2275526 C76.7397198,9.1127375 75.4203911,8.02144814 72.8282842,8.02144814 L72.3733839,8.02144814 L72.3733839,12.2734697 Z" id="Shape"></path>
                            <path d="M95.7954468,1.38119992 C94.3400015,1.54029718 93.8851012,1.94923606 93.0666342,3.29154553 C92.2257757,4.63326576 91.6341696,5.61141928 90.5198995,7.74803656 C90.201705,8.36203413 90.1103714,8.612465 90.1103714,9.31720694 L90.1103714,12.2275083 C90.1103714,14.2739705 90.2930386,14.4106762 92.3165201,14.592165 L92.3165201,15.3652598 L84.9261577,15.3652598 L84.9261577,14.592165 C86.8588948,14.4330677 87.0633642,14.2739705 87.0633642,12.2275083 L87.0633642,9.7031651 C87.0633642,9.13453971 86.9720306,8.90708956 86.7681504,8.47516996 C86.1541529,7.22478335 85.3127051,5.70098515 83.9485934,3.31334775 C83.1071457,1.81253026 82.7205983,1.56209939 81.4696224,1.38061067 L81.4696224,0.584535118 L87.9737541,0.584535118 L87.9737541,1.38061067 C86.4729366,1.58508011 86.4953281,1.88088316 86.9048562,2.69935018 C87.7003425,4.26852056 88.6101431,5.95141602 89.4969631,7.63372223 C90.1563328,6.33737418 91.3159751,4.20016766 91.8616197,2.81307525 C92.2257757,1.90386388 92.202795,1.60806082 90.5204888,1.38061067 L90.5204888,0.584535118 L95.7960361,0.584535118 L95.7960361,1.38119992 L95.7954468,1.38119992 Z" id="Shape"></path>
                            <path d="M104.572902,4.29209052 C104.095021,2.85962593 103.254162,1.17673047 101.389189,1.17673047 C100.115821,1.17673047 99.1836292,2.13190328 99.1836292,3.42766208 C99.1836292,4.67863794 100.002685,5.40577134 102.003775,6.40690558 C104.391413,7.56654783 106.028936,8.83991516 106.028936,11.0908468 C106.028936,13.6829536 103.822787,15.7070243 100.503547,15.7070243 C99.6844909,15.7070243 98.8890046,15.5932992 98.2066542,15.3888298 C97.5696759,15.2067518 97.1377563,15.0246738 96.8195618,14.8885573 C96.6145031,14.3199319 96.3192893,12.4095863 96.160192,11.0224939 L96.9562676,10.7726522 C97.4111679,12.2280975 98.7528881,14.7748322 100.935467,14.7748322 C102.322559,14.7748322 103.209379,13.8196594 103.209379,12.3871948 C103.209379,11.0454746 102.208834,10.2040268 100.503547,9.29481547 C98.161282,8.11219251 96.5467394,6.88419736 96.5467394,4.70161865 C96.5467394,2.20025618 98.5248487,0.244538381 101.753934,0.244538381 C103.209379,0.244538381 104.505138,0.699438694 104.914666,0.858535954 C105.00541,1.69998368 105.164508,2.70052867 105.346586,4.1106018 L104.572902,4.29209052 Z" id="Shape"></path>
                            <path d="M116.056777,4.29209052 C115.579486,2.85962593 114.738038,1.17673047 112.873654,1.17673047 C111.600286,1.17673047 110.667505,2.13190328 110.667505,3.42766208 C110.667505,4.67863794 111.486561,5.40577134 113.487062,6.40690558 C115.874699,7.56654783 117.512223,8.83991516 117.512223,11.0908468 C117.512223,13.6829536 115.306663,15.7070243 111.986834,15.7070243 C111.167778,15.7070243 110.372291,15.5932992 109.689941,15.3888298 C109.052963,15.2067518 108.621632,15.0246738 108.302848,14.8885573 C108.098379,14.3199319 107.801987,12.4095863 107.643479,11.0224939 L108.438965,10.7726522 C108.893865,12.2280975 110.235586,14.7748322 112.418164,14.7748322 C113.805257,14.7748322 114.692077,13.8196594 114.692077,12.3871948 C114.692077,11.0454746 113.691532,10.2040268 111.986245,9.29481547 C109.64339,8.11219251 108.029437,6.88419736 108.029437,4.70161865 C108.029437,2.20025618 110.007546,0.244538381 113.236631,0.244538381 C114.691487,0.244538381 115.988425,0.699438694 116.397363,0.858535954 C116.488108,1.69998368 116.647205,2.70052867 116.829283,4.1106018 L116.056777,4.29209052 Z" id="Shape"></path>
                            <path d="M130.951227,11.5917085 C130.814521,12.614645 130.33723,14.6840878 130.155152,15.3664383 L118.55814,15.3664383 L118.55814,14.5703628 C120.490877,14.4112655 120.718327,14.275149 120.718327,12.3418226 L120.718327,3.60974005 C120.718327,1.63163079 120.490877,1.51790571 118.876924,1.38119992 L118.876924,0.585124367 L129.587116,0.585124367 C129.609507,0.99406325 129.723232,2.58621435 129.814566,3.99628747 L128.996099,4.11001255 C128.768649,3.313937 128.472845,2.56382288 128.063317,2.15429475 C127.67677,1.74476662 127.062772,1.58566936 125.789405,1.58566936 L124.698116,1.58566936 C123.856668,1.58566936 123.765924,1.63104154 123.765924,2.38174491 L123.765924,7.20298113 L125.289133,7.20298113 C127.198889,7.20298113 127.495281,7.08925605 127.812886,5.49710495 L128.631353,5.49710495 L128.631353,10.0903018 L127.812886,10.0903018 C127.494692,8.45336774 127.22187,8.36203413 125.289133,8.36203413 L123.765924,8.36203413 L123.765924,12.2958612 C123.765924,13.3641698 123.856668,13.9327952 124.311568,14.1608346 C124.721096,14.3429126 125.494191,14.3882848 126.35862,14.3882848 C127.518262,14.3882848 128.336729,14.2291875 128.882374,13.6605621 C129.314293,13.1602896 129.723821,12.432567 130.155741,11.432022 L130.951227,11.5917085 Z" id="Shape"></path>
                            <path d="M145.868658,1.38119992 C144.413212,1.54029718 143.958901,1.94923606 143.139845,3.29154553 C142.298397,4.63326576 141.707381,5.61141928 140.59311,7.74803656 C140.274916,8.36203413 140.183582,8.612465 140.183582,9.31720694 L140.183582,12.2275083 C140.183582,14.2739705 140.36566,14.4106762 142.389731,14.592165 L142.389731,15.3652598 L134.999369,15.3652598 L134.999369,14.592165 C136.932695,14.4330677 137.137164,14.2739705 137.137164,12.2275083 L137.137164,9.7031651 C137.137164,9.13453971 137.04642,8.90708956 136.841361,8.47516996 C136.227364,7.22478335 135.385916,5.70098515 134.021804,3.31334775 C133.180357,1.81253026 132.793809,1.56209939 131.542833,1.38061067 L131.542833,0.584535118 L138.046376,0.584535118 L138.046376,1.38061067 C136.545558,1.58508011 136.56795,1.88088316 136.977478,2.69935018 C137.773553,4.26852056 138.683354,5.95141602 139.569585,7.63372223 C140.228954,6.33737418 141.388597,4.20016766 141.934831,2.81307525 C142.298987,1.90386388 142.276006,1.60806082 140.59311,1.38061067 L140.59311,0.584535118 L145.868658,0.584535118 L145.868658,1.38119992 Z" id="Shape"></path>
                        </g>
                    </g>
                </g>
            </g>
        </g>
    </g>
</svg>