<?xml version="1.0" encoding="UTF-8"?>
<svg version="1.1" viewBox="0 0 432 142" xmlns="http://www.w3.org/2000/svg">
<title>Group 8</title>
<desc>Created with Sketch.</desc>
<defs>
<filter id="a" x="-.7%" y="-2.1%" width="101.4%" height="104.3%">
<feOffset dx="0" dy="0" in="SourceAlpha" result="shadowOffsetOuter1"/>
<feGaussianBlur in="shadowOffsetOuter1" result="shadowBlurOuter1" stdDeviation="1"/>
<feColorMatrix in="shadowBlurOuter1" result="shadowMatrixOuter1" values="0 0 0 0 0   0 0 0 0 0   0 0 0 0 0  0 0 0 0.5 0"/>
<feMerge>
<feMergeNode in="shadowMatrixOuter1"/>
<feMergeNode in="SourceGraphic"/>
</feMerge>
</filter>
</defs>
<g fill="none" fill-rule="evenodd">
<g transform="translate(-507 -64)">
<g transform="translate(509 66)" filter="url(#a)">
<g transform="translate(95 123)">
<path d="m200.5 9h31.78" stroke="#fff" stroke-linecap="square" stroke-width="2"/>
<path d="m0.5 9h31.78" stroke="#fff" stroke-linecap="square" stroke-width="2"/>
<path d="m45.191 10.772h1.5l-0.24 1.416c-0.48 0.36-1.092 0.492-1.704 0.492-1.356 0-1.956-0.84-1.956-2.232 0-2.112 1.032-3.732 2.772-3.732 1.14 0 1.476 0.588 1.404 1.32h1.668c0.168-1.548-0.552-2.82-2.892-2.82-3.132 0-4.668 2.448-4.668 5.46 0 1.92 0.936 3.48 3.396 3.48 0.96 0 2.4-0.204 3.396-1.236l0.588-3.528h-3.036l-0.228 1.38zm4.6013 3.228h5.676l0.24-1.416h-4.056l0.372-2.22h3.624l0.24-1.464h-3.624l0.348-2.1h3.984l0.24-1.44h-5.604l-1.44 8.64zm9.5573 0h1.62l1.2-7.176h2.508l0.24-1.464h-6.66l-0.24 1.464h2.532l-1.2 7.176zm7.6973 0h1.62l1.2-7.176h2.508l0.24-1.464h-6.66l-0.24 1.464h2.532l-1.2 7.176zm5.7893 0h1.62l1.44-8.64h-1.62l-1.44 8.64zm3.8813 0h1.596l0.96-5.772 2.808 5.772h1.416l1.44-8.64h-1.608l-0.972 5.844-2.772-5.844h-1.428l-1.44 8.64zm13.505-3.228h1.5l-0.24 1.416c-0.48 0.36-1.092 0.492-1.704 0.492-1.356 0-1.956-0.84-1.956-2.232 0-2.112 1.032-3.732 2.772-3.732 1.14 0 1.476 0.588 1.404 1.32h1.668c0.168-1.548-0.552-2.82-2.892-2.82-3.132 0-4.668 2.448-4.668 5.46 0 1.92 0.936 3.48 3.396 3.48 0.96 0 2.4-0.204 3.396-1.236l0.588-3.528h-3.036l-0.228 1.38zm9.7427-1.176c-0.048 0.3-0.06 0.612-0.06 0.876 0 1.404 0.672 2.172 1.884 2.172 1.476 0 2.484-1.068 2.796-3.012 0.048-0.276 0.072-0.552 0.072-0.792 0-1.32-0.672-2.112-1.884-2.112-1.476 0-2.532 1.056-2.808 2.868zm-1.704 0.012c0.396-2.856 2.34-4.392 4.74-4.392 2.1 0 3.384 1.308 3.384 3.468 0 0.324-0.024 0.66-0.084 1.02-0.516 3.192-2.352 4.452-4.704 4.452-2.148 0-3.408-1.212-3.408-3.492 0-0.324 0.024-0.696 0.072-1.056zm10.733-4.248l-1.44 8.64h5.28l0.24-1.44h-3.66l1.2-7.2h-1.62zm9.6293 1.44h-1.176l-0.96 5.772h1.176c2.208 0 3.036-1.44 3.036-3.576 0-1.38-0.636-2.196-2.076-2.196zm-2.556-1.44h2.772c2.388 0 3.576 1.26 3.576 3.372 0 3.456-1.62 5.268-5.256 5.268h-2.532l1.44-8.64zm10.295 7.416c0.696 0.864 1.848 1.38 3.156 1.38 1.8 0 3.336-0.996 3.336-2.88 0-1.428-0.84-1.932-1.968-2.304-1.2-0.408-1.764-0.624-1.764-1.344 0-0.816 0.744-1.08 1.512-1.08 0.696 0 1.368 0.276 1.896 0.816l0.924-0.996c-0.636-0.768-1.548-1.152-2.796-1.152-1.812 0-3.228 0.996-3.228 2.748 0 1.26 0.828 1.824 2.148 2.268 0.948 0.324 1.56 0.504 1.56 1.356 0 0.672-0.6 1.188-1.488 1.188-0.84 0-1.644-0.384-2.316-1.032l-0.972 1.032zm7.9613 1.224h1.62l1.44-8.64h-1.62l-1.44 8.64zm3.8813 0h1.596l0.96-5.772 2.808 5.772h1.416l1.44-8.64h-1.608l-0.972 5.844-2.772-5.844h-1.428l-1.44 8.64zm15.341-2.34c-0.696 0.528-1.452 0.996-2.46 0.996-1.092 0-1.74-0.756-1.74-2.22 0-2.208 1.044-3.72 2.664-3.72 1.128 0 1.368 0.768 1.296 1.536h1.632c0.252-2.04-0.996-3.036-2.748-3.036-2.94 0-4.596 2.496-4.596 5.436 0 2.028 0.96 3.504 3.084 3.504 1.284 0 2.388-0.42 3.54-1.404l-0.672-1.092zm2.2133 2.34h5.676l0.24-1.416h-4.056l0.372-2.22h3.624l0.24-1.464h-3.624l0.348-2.1h3.984l0.24-1.44h-5.604l-1.44 8.64zm12.419-1.2h-1.728l-0.204 1.2h4.764l0.204-1.2h-1.512l1.224-7.32h-1.176c-0.708 0.696-1.776 1.272-2.64 1.488l0.024 1.056c0.72-0.084 1.356-0.3 1.944-0.6l-0.9 5.376zm10.289-3.504c-0.456 3.516-1.932 4.86-3.768 4.86-0.852 0-1.704-0.24-2.208-0.672l0.648-1.032c0.348 0.228 0.9 0.48 1.488 0.48 1.248 0 1.98-1.032 2.304-2.784-0.564 0.48-1.2 0.756-1.944 0.756-1.308 0-1.98-0.912-1.98-2.22 0-0.132 0.012-0.276 0.024-0.42 0.204-2.016 1.656-2.904 3.144-2.904 1.656 0 2.352 1.248 2.352 2.976 0 0.312-0.012 0.624-0.06 0.96zm-2.472-2.676c-0.972 0-1.536 0.768-1.536 1.872 0 0.828 0.372 1.164 0.996 1.164s1.26-0.372 1.608-0.72c0.048-0.3 0.06-0.552 0.06-0.792 0-1.02-0.384-1.524-1.128-1.524zm5.3693 6.18h-1.728l-0.204 1.2h4.764l0.204-1.2h-1.512l1.224-7.32h-1.176c-0.708 0.696-1.776 1.272-2.64 1.488l0.024 1.056c0.72-0.084 1.356-0.3 1.944-0.6l-0.9 5.376zm5.7413-0.864c0 0.612 0.396 0.996 1.164 0.996 0.912 0 1.572-0.636 1.572-1.44 0-0.756-0.72-1.164-1.248-1.416-0.744 0.36-1.488 0.948-1.488 1.86zm1.104-4.272c0 0.552 0.468 0.924 0.96 1.164 0.528-0.276 1.212-0.828 1.212-1.536 0-0.528-0.348-0.792-0.936-0.792-0.78 0-1.236 0.516-1.236 1.164zm-2.568 4.572c0-1.452 1.068-2.292 2.052-2.748-0.588-0.264-1.008-0.84-1.008-1.62 0-1.44 1.224-2.508 2.964-2.508 1.332 0 2.16 0.696 2.16 1.752 0 1.08-0.852 1.848-1.68 2.28 0.78 0.432 1.284 1.056 1.284 1.92 0 1.74-1.404 2.844-3.384 2.844-1.548 0-2.388-0.72-2.388-1.92z" fill="#fff"/>
</g>
<path d="m36.244 86.752h-5.12l-1.856 5.952c-0.192 0.64-0.384 0.96-0.896 1.152-2.176 0.832-5.248 1.152-8.064 1.152-8.128 0-12.352-5.12-12.352-14.72 0-13.952 7.488-21.568 17.92-21.568 2.752 0 5.248 0.576 6.656 1.152 0.64 0.256 0.768 0.512 0.768 1.28l0.192 6.016 5.312 0.384 1.536-11.2c-3.008-2.176-8.32-3.52-13.696-3.52-17.28 0-26.432 11.712-26.432 28.032 0 11.712 5.504 19.904 18.752 19.904 5.76 0 12.032-1.152 15.808-3.456l1.472-10.56zm38.72 13.248l1.6-11.776h-5.12l-1.728 5.632c-0.256 0.64-0.448 0.704-1.152 0.704h-14.144l2.048-15.104h15.936l0.768-5.568h-15.936l1.984-14.72h12.864c0.64 0 0.896 0.192 0.96 0.832l0.192 4.928 5.12 0.256 1.6-11.52h-32.256l-0.448 3.84 3.84 0.448c0.896 0.064 0.96 0.32 0.832 1.28l-4.864 35.264c-0.128 0.96-0.32 1.152-1.216 1.28l-4.032 0.448-0.448 3.776h33.6zm47.296 0l5.696-40.832c0.128-0.96 0.256-1.088 1.152-1.216l4.288-0.512 0.512-3.776h-16.064l-0.512 3.776 3.904 0.448c0.896 0.064 0.96 0.32 0.832 1.28l-4.288 31.296-16.384-36.8h-13.504l-0.448 3.776 3.84 0.448c0.896 0.064 0.96 0.32 0.832 1.28l-4.928 35.328c-0.128 0.96-0.32 1.152-1.216 1.28l-4.032 0.448-0.384 3.776h16.128l0.384-3.776-4.096-0.512c-0.96-0.128-0.96-0.256-0.832-1.28l4.352-31.36 16.704 36.928h8.064zm41.28 0h-22.656l0.512-3.84 6.464-0.448c0.832-0.064 1.024-0.32 1.152-1.28l4.864-35.264h-8.512c-0.704 0-0.896 0.064-1.088 0.704l-1.728 5.568h-5.12l1.536-11.776h38.784l-1.6 11.776h-5.12l-0.256-5.568c-0.064-0.64-0.256-0.704-0.896-0.704h-8.64l-4.864 35.264c-0.128 0.896-0.128 1.152 0.768 1.216l6.976 0.512-0.576 3.84zm46.784 0h-33.6l0.448-3.776 4.032-0.448c0.896-0.128 1.088-0.32 1.216-1.28l4.864-35.264c0.128-0.96 0.064-1.216-0.832-1.28l-3.84-0.448 0.448-3.84h32.256l-1.6 11.52-5.12-0.256-0.192-4.928c-0.064-0.64-0.32-0.832-0.96-0.832h-12.864l-1.984 14.72h15.936l-0.768 5.568h-15.936l-2.048 15.104h14.144c0.704 0 0.896-0.064 1.152-0.704l1.728-5.632h5.12l-1.6 11.776zm47.296 0h-8.064l-16.704-36.928-4.352 31.36c-0.128 1.024-0.128 1.152 0.832 1.28l4.096 0.512-0.384 3.776h-16.128l0.384-3.776 4.032-0.448c0.896-0.128 1.088-0.32 1.216-1.28l4.928-35.328c0.128-0.96 0.064-1.216-0.832-1.28l-3.84-0.448 0.448-3.776h13.504l16.384 36.8 4.288-31.296c0.128-0.96 0.064-1.216-0.832-1.28l-3.904-0.448 0.512-3.776h16.064l-0.512 3.776-4.288 0.512c-0.896 0.128-1.024 0.256-1.152 1.216l-5.696 40.832zm52.096 0h-8.064l-16.704-36.928-4.352 31.36c-0.128 1.024-0.128 1.152 0.832 1.28l4.096 0.512-0.384 3.776h-16.128l0.384-3.776 4.032-0.448c0.896-0.128 1.088-0.32 1.216-1.28l4.928-35.328c0.128-0.96 0.064-1.216-0.832-1.28l-3.84-0.448 0.448-3.776h13.504l16.384 36.8 4.288-31.296c0.128-0.96 0.064-1.216-0.832-1.28l-3.904-0.448 0.512-3.776h16.064l-0.512 3.776-4.288 0.512c-0.896 0.128-1.024 0.256-1.152 1.216l-5.696 40.832zm29.504 0h-18.752l0.448-3.776 4.672-0.448c0.896-0.064 1.024-0.32 1.152-1.28l4.928-35.328c0.128-0.96 0.064-1.216-0.832-1.28l-4.48-0.448 0.512-3.776h18.688l-0.448 3.776-4.928 0.512c-0.896 0.128-1.024 0.256-1.152 1.216l-4.928 35.264c-0.192 1.024-0.128 1.152 0.768 1.28l4.8 0.512-0.448 3.776zm48.64 0h-17.216l0.576-3.648 5.312-0.576-1.664-9.152h-16.768l-4.096 9.152 5.504 0.576-0.576 3.648h-16.192l0.576-3.648 2.752-0.704c0.96-0.256 1.472-0.768 1.856-1.408l19.2-40.576h8.832l8.32 40.896c0.128 0.64 0.576 0.896 1.344 1.088l2.816 0.704-0.576 3.648zm-13.824-18.944l-3.968-20.672-9.536 20.672h13.504zm51.584 18.944l1.664-12.224h-5.12l-1.856 6.08c-0.256 0.64-0.448 0.704-1.152 0.704h-14.208l4.992-35.328c0.128-0.896 0.192-1.152 1.152-1.216l5.312-0.512 0.448-3.84h-18.496l-0.448 3.84 3.84 0.448c0.896 0.064 0.96 0.32 0.832 1.28l-4.928 35.264c-0.128 0.96-0.32 1.152-1.216 1.28l-3.968 0.448-0.448 3.776h33.6z" fill="#fff"/>
<g transform="translate(125)" fill="#fff" fill-rule="nonzero">
<path d="m19.772 1.4224c0.88328 0.33764 1.5715 0.91569 2.0647 1.7336 0.44135 0.71417 0.66232 2.0129 0.66232 3.8961v0.66232 13.169l0.019445 0.60398c0.012374 0.54564 0.097815 0.95458 0.25338 1.2274 0.12963 0.23334 0.44783 0.52561 0.95458 0.87621-0.2469 0.37653-0.48731 0.66232-0.72065 0.85736-0.27282 0.208-0.64994 0.43546-1.1302 0.68176-0.50616 0.25986-0.85029 0.50027-1.0318 0.72065-0.19504 0.208-0.36416 0.57157-0.50675 1.0913-0.88328-0.15615-1.5391-0.53916-1.9675-1.1496-0.19504-0.28579-0.34412-0.62343-0.44842-1.0129-0.11667-0.42838-0.22097-1.0518-0.31171-1.8703l-0.019445-0.27223c-0.27223 0.49379-0.64935 0.9481-1.1296 1.3635l-0.85736 0.7401c-0.70121 0.5975-1.0589 1.3311-1.0713 2.2014h-0.17501c-1.9351 0-3.6881-0.43487-5.2596-1.3052-1.5845-0.88328-2.8184-2.0842-3.7011-3.6038-0.89625-1.5456-1.3441-3.2532-1.3441-5.1235 0-1.2074 0.23393-2.4024 0.70121-3.5844 0.44135-1.1555 1.1037-2.2721 1.9869-3.3505 0.8438-1.0518 1.8567-1.9934 3.0388-2.8243 0.92217-0.62343 1.4932-0.93514 1.7141-0.93514 0.12963 0 0.19504 0.058336 0.19504 0.17501 0 0.077781-0.097815 0.208-0.29227 0.39008-0.98699 0.79195-1.786 1.8573-2.3965 3.1943-0.61046 1.3382-0.9151 2.6687-0.9151 3.9933 0 1.2987 0.25338 2.532 0.75954 3.7011 0.50616 1.1685 1.2339 2.169 2.182 2.9999 0.94751 0.83084 2.0453 1.4607 3.2921 1.8897v-19.013c-0.79195 0.49379-1.4873 0.83791-2.0842 1.0324-0.54564 0.16911-1.2928 0.25338-2.2403 0.25338-0.48024 0-1.1756-0.032409-2.0842-0.097815-0.84439-0.051265-1.4678-0.077781-1.8703-0.077781-1.1296 0-2.0582 0.26634-2.7854 0.79902-0.71417 0.51972-1.0713 1.2274-1.0713 2.1237 0 0.5975 0.19504 1.1037 0.58454 1.5191 0.37653 0.42897 0.82436 0.64287 1.3441 0.64287 0.55802 0 1.0648-0.18797 1.5197-0.5645 0.25927-0.22097 0.4219-0.33116 0.48731-0.33116 0.18149 0 0.27223 0.097815 0.27223 0.29227 0 0.27282-0.27223 0.55861-0.81788 0.85736-0.53268 0.28579-1.0978 0.42897-1.6947 0.42897-0.7401 0-1.3959-0.20152-1.9675-0.60398-0.58454-0.38949-1.0453-0.92866-1.383-1.6169-0.35237-0.68942-0.52738-1.4425-0.52738-2.2609 0-0.75306 0.15556-1.4802 0.46727-2.182 0.31171-0.68824 0.7401-1.2857 1.2857-1.7925 0.53268-0.4932 1.195-0.88859 1.9869-1.1879 0.7401-0.2852 1.5456-0.42838 2.4159-0.42838 1.3246 0 2.9345 0.55861 4.8313 1.6752 0.53209 0.31171 0.96107 0.5262 1.2857 0.64287 0.33764 0.11667 0.71417 0.17501 1.1296 0.17501 0.23334 0 0.53916-0.051854 0.91569-0.15615v-0.25338c0.064817-1.6228 0.44783-2.4342 1.149-2.4342 0.36357 0 0.54506 0.22745 0.54506 0.68176 0 0.57157-0.3506 1.3246-1.0518 2.2592v2.357c0.39008-0.40246 0.7401-0.70769 1.0518-0.91569 0.35119-0.23334 0.92217-0.54564 1.7141-0.93514 0.57157-0.29875 0.99996-0.59043 1.2863-0.8768 0.29816-0.29757 0.55154-0.68058 0.75954-1.1479zm-4.8118 7.2077v4.4807h2.6882v-4.4023c0-1.2469-0.091334-2.1042-0.27282-2.5715-0.18208-0.45431-0.51972-0.68176-1.0129-0.68176-0.53268 0-0.89625 0.23334-1.0913 0.70121-0.20742 0.46669-0.31112 1.2916-0.31112 2.4737zm2.6887 6.7593v-1.578h-2.6882v1.578h2.6882zm0 3.6038v-2.9026h-2.6882v6.5648c0.16911 0.051854 0.33116 0.077781 0.48731 0.077781 0.70121 0 1.2469-0.2852 1.6363-0.85736 0.37653-0.57098 0.56509-1.3506 0.56509-2.3376v-0.54506h-5.892e-4z"/>
<g transform="translate(29.804 5.8925)">
<path d="m12.704 4.4742c-0.27282-1.1826-0.59102-1.9327-1.0005-2.3423-0.38655-0.40953-0.97756-0.54623-2.2963-0.54623h-1.0459v10.756c0 1.9327 0.22745 2.0694 2.2285 2.2285v0.79608h-7.4133v-0.79608c1.9098-0.1591 2.1372-0.29521 2.1372-2.2285v-10.756h-0.77309c-1.8644 0-2.2739 0.25043-2.6151 0.614-0.36357 0.38655-0.65937 1.1596-0.95517 2.2969h-0.81847c0.090744-1.6599 0.22745-3.3198 0.27282-4.4801h0.54564c0.36416 0.52325 0.65937 0.56863 1.2963 0.56863h9.1416c0.614 0 0.93219-0.13612 1.3187-0.56863h0.54564c0.022981 0.95517 0.13671 2.9563 0.25043 4.4117l-0.81906 0.045961z"/>
<path d="m31.055 1.3812c-1.7736 0.1591-1.9103 0.29521-1.9103 2.2285v8.7545c0 1.9103 0.18208 2.0471 1.9103 2.2056v0.79608h-6.9355v-0.79608c1.819-0.1591 1.9781-0.31819 1.9781-2.2285v-4.2296h-6.2077v4.2296c0 1.9327 0.18149 2.0694 1.8644 2.2285v0.79608h-6.7764v-0.79608c1.6599-0.1591 1.865-0.29521 1.865-2.2285v-8.7315c0-1.9327-0.20447-2.0694-1.9557-2.2285v-0.79608h6.8217v0.79608c-1.6375 0.1591-1.819 0.29521-1.819 2.2285v3.3428h6.2077v-3.3428c0-1.9327-0.18208-2.0694-1.865-2.2285v-0.79608h6.8217v0.79608h5.893e-4z"/>
<path d="m44.881 11.592c-0.13612 1.0229-0.614 3.0924-0.79608 3.7747h-11.597v-0.79608c1.9327-0.1591 2.1608-0.29521 2.1608-2.2285v-8.7321c0-1.9781-0.22745-2.0918-1.842-2.2285v-0.79608h10.71c0.022981 0.40894 0.13671 2.0011 0.22745 3.4112l-0.81847 0.11373c-0.22745-0.79608-0.52325-1.5462-0.93278-1.9557-0.38655-0.40953-1.0005-0.56863-2.2739-0.56863h-1.0913c-0.84145 0-0.93219 0.045372-0.93219 0.79608v4.8212h1.5232c1.9098 0 2.2056-0.11373 2.5243-1.7059h0.81847v4.5932h-0.81847c-0.31878-1.6369-0.59102-1.7283-2.5243-1.7283h-1.5232v3.9338c0 1.0683 0.090744 1.6369 0.54564 1.865 0.40894 0.18208 1.182 0.22745 2.0465 0.22745 1.1596 0 1.9781-0.1591 2.5238-0.72772 0.43192-0.50027 0.84145-1.228 1.2734-2.2285l0.79608 0.15969z"/>
<path d="m66.506 1.3812c-1.251 0.068353-1.819 0.54564-1.9327 1.3417-0.11372 0.70474-0.20506 1.5462-0.20506 3.1607v2.479c0 2.4106-0.36357 4.321-1.6369 5.6845-1.0459 1.0919-2.5921 1.6599-4.2066 1.6599-1.5008 0-2.9333-0.31819-4.0252-1.1826-1.2963-1.0005-1.8874-2.6834-1.8874-5.3433v-5.3439c0-2.1372-0.22745-2.2969-1.9098-2.456v-0.79608h6.8447v0.79608c-1.6599 0.1591-1.8874 0.31878-1.8874 2.456v4.9344c0 3.4112 1.228 5.3893 3.6834 5.3893 2.7058 0 3.8885-2.0465 3.8885-5.8442v-2.433c0-1.6145-0.11373-2.4784-0.22745-3.1607-0.11372-0.79608-0.65937-1.251-2.2061-1.3417v-0.79608h5.7081v0.79608z"/>
<path d="m75.739 7.4298c2.6381 0.31819 4.3887 1.3871 4.3887 3.5473 0 1.5232-0.84145 2.7058-2.1372 3.4112-1.1602 0.65937-2.9109 0.97815-4.7983 0.97815h-5.7758v-0.79608c1.7512-0.1591 1.9557-0.31819 1.9557-2.2509v-8.6867c0-1.9327-0.20447-2.0918-1.819-2.2509v-0.79608h6.6402c1.7512 0 2.8873 0.22745 3.7517 0.79608 0.84145 0.54564 1.3417 1.4554 1.3417 2.5921 0 2.1602-1.9103 3.047-3.5473 3.3652v0.090744h-5.892e-4zm-2.8419-0.31819c2.1832 0 3.1607-0.86384 3.1607-2.7512 0-2.0465-1.2274-2.8196-2.456-2.8196-0.50027 0-0.88682 0.13612-1.0229 0.27282-0.1591 0.1591-0.20447 0.50027-0.20447 0.97756v4.3204h0.52266zm-0.52325 5.1618c0 1.6829 0.4549 2.1602 1.6599 2.1378 1.2734-0.022981 2.7064-0.95576 2.7064-3.1837 0-2.1148-1.3193-3.2061-3.9114-3.2061h-0.4549v4.252z"/>
<path d="m95.795 1.3812c-1.4554 0.1591-1.9103 0.56804-2.7288 1.9103-0.84086 1.3417-1.4325 2.3199-2.5467 4.4565-0.31819 0.614-0.40953 0.86443-0.40953 1.5692v2.9103c0 2.0465 0.18267 2.1832 2.2061 2.3647v0.77309h-7.3904v-0.77309c1.9327-0.1591 2.1372-0.31819 2.1372-2.3647v-2.5243c0-0.56863-0.091334-0.79608-0.29521-1.228-0.614-1.2504-1.4554-2.7742-2.8196-5.1618-0.84145-1.5008-1.228-1.7512-2.479-1.9327v-0.79608h6.5041v0.79608c-1.5008 0.20447-1.4784 0.50027-1.0689 1.3187 0.79549 1.5692 1.7053 3.2521 2.5921 4.9344 0.65937-1.2963 1.819-3.4336 2.3647-4.8206 0.36416-0.90921 0.34118-1.205-1.3411-1.4325v-0.79608h5.2755v0.79666h-5.893e-4z"/>
<path d="m104.57 4.2921c-0.47788-1.4325-1.3187-3.1154-3.1837-3.1154-1.2734 0-2.2056 0.95517-2.2056 2.2509 0 1.251 0.81906 1.9781 2.8201 2.9792 2.3876 1.1596 4.0252 2.433 4.0252 4.6839 0 2.5921-2.2061 4.6162-5.5254 4.6162-0.81906 0-1.6145-0.11373-2.2969-0.31819-0.63698-0.18208-1.0689-0.36416-1.3871-0.50027-0.20506-0.56863-0.50027-2.479-0.65937-3.8661l0.79608-0.24984c0.4549 1.4554 1.7966 4.0022 3.9792 4.0022 1.3871 0 2.2739-0.95517 2.2739-2.3876 0-1.3417-1.0005-2.1832-2.7058-3.0924-2.3423-1.1826-3.9568-2.4106-3.9568-4.5932 0-2.5014 1.9781-4.4571 5.2072-4.4571 1.4554 0 2.7512 0.4549 3.1607 0.614 0.090744 0.84145 0.24984 1.842 0.43192 3.2521l-0.77368 0.18149z"/>
<path d="m116.06 4.2921c-0.47729-1.4325-1.3187-3.1154-3.1831-3.1154-1.2734 0-2.2061 0.95517-2.2061 2.2509 0 1.251 0.81906 1.9781 2.8196 2.9792 2.3876 1.1596 4.0252 2.433 4.0252 4.6839 0 2.5921-2.2056 4.6162-5.5254 4.6162-0.81906 0-1.6145-0.11373-2.2969-0.31819-0.63698-0.18208-1.0683-0.36416-1.3871-0.50027-0.20447-0.56863-0.50086-2.479-0.65937-3.8661l0.79549-0.24984c0.4549 1.4554 1.7966 4.0022 3.9792 4.0022 1.3871 0 2.2739-0.95517 2.2739-2.3876 0-1.3417-1.0005-2.1832-2.7058-3.0924-2.3429-1.1826-3.9568-2.4106-3.9568-4.5932 0-2.5014 1.9781-4.4571 5.2072-4.4571 1.4549 0 2.7518 0.4549 3.1607 0.614 0.090745 0.84145 0.24984 1.842 0.43192 3.2521l-0.77251 0.18149z"/>
<path d="m130.95 11.592c-0.13671 1.0229-0.614 3.0924-0.79608 3.7747h-11.597v-0.79608c1.9327-0.1591 2.1602-0.29521 2.1602-2.2285v-8.7321c0-1.9781-0.22745-2.0918-1.8414-2.2285v-0.79608h10.71c0.022391 0.40894 0.13612 2.0011 0.22745 3.4112l-0.81847 0.11373c-0.22745-0.79608-0.52325-1.5462-0.93278-1.9557-0.38655-0.40953-1.0005-0.56863-2.2739-0.56863h-1.0913c-0.84145 0-0.93219 0.045372-0.93219 0.79608v4.8212h1.5232c1.9098 0 2.2061-0.11373 2.5238-1.7059h0.81847v4.5932h-0.81847c-0.31819-1.6369-0.59102-1.7283-2.5238-1.7283h-1.5232v3.9338c0 1.0683 0.090744 1.6369 0.54564 1.865 0.40953 0.18208 1.1826 0.22745 2.0471 0.22745 1.1596 0 1.9781-0.1591 2.5238-0.72772 0.43192-0.50027 0.84145-1.228 1.2734-2.2285l0.79549 0.15969z"/>
<path d="m145.87 1.3812c-1.4554 0.1591-1.9098 0.56804-2.7288 1.9103-0.84145 1.3417-1.4325 2.3199-2.5467 4.4565-0.31819 0.614-0.40953 0.86443-0.40953 1.5692v2.9103c0 2.0465 0.18208 2.1832 2.2061 2.3647v0.77309h-7.3904v-0.77309c1.9333-0.1591 2.1378-0.31819 2.1378-2.3647v-2.5243c0-0.56863-0.090744-0.79608-0.2958-1.228-0.614-1.2504-1.4554-2.7742-2.8196-5.1618-0.84145-1.5008-1.228-1.7512-2.479-1.9327v-0.79608h6.5035v0.79608c-1.5008 0.20447-1.4784 0.50027-1.0689 1.3187 0.79608 1.5692 1.7059 3.2521 2.5921 4.9344 0.65937-1.2963 1.819-3.4336 2.3652-4.8206 0.36416-0.90921 0.34118-1.205-1.3417-1.4325v-0.79608h5.2755v0.79666z"/>
</g>
</g>
</g>
</g>
</g>
</svg>
