<?xml version="1.0" standalone="no"?>
<!DOCTYPE svg PUBLIC "-//W3C//DTD SVG 1.1//EN" "http://www.w3.org/Graphics/SVG/1.1/DTD/svg11.dtd" >
<svg xmlns="http://www.w3.org/2000/svg" xmlns:xlink="http://www.w3.org/1999/xlink" version="1.1">
<metadata>
Created by FontForge 20190611 at Mon Nov  2 22:24:41 2020
 By convertio
Copyright 2016 Google Inc. All Rights Reserved.
</metadata>
<defs>
<font id="NotoSerifDisplay-Regular" horiz-adv-x="0" >
  <font-face 
    font-family="Noto Serif Display"
    font-weight="400"
    font-stretch="normal"
    units-per-em="1000"
    panose-1="2 2 5 2 8 5 5 2 2 4"
    ascent="800"
    descent="-200"
    x-height="536"
    cap-height="714"
    bbox="-693 -389 2797 1048"
    underline-thickness="50"
    underline-position="-175"
    unicode-range="U+000D-FFFD"
  />
<missing-glyph horiz-adv-x="600" 
d="M94 0v714h411v-714h-411zM114 20h371v674h-371v-674z" />
    <glyph glyph-name="f_f" unicode="ff" horiz-adv-x="708" 
d="M27 0v10h13q30 0 48 8t26 25t8 44v439h-91v10h91v40q0 89 47 136.5t142 47.5q43 0 71 -9t42.5 -24.5t14.5 -36.5q0 -27 -23 -41.5t-59 -14.5q0 43 -6.5 68t-20.5 36.5t-38 11.5q-42 0 -59 -36.5t-17 -128.5v-49h245v-10h-245v-434q0 -30 8 -48t26.5 -26t47.5 -8h38v-10
h-309zM366 0v10h13q30 0 48 8t26 25t8 44v439h-91v10h91v23q0 68 25 115t67.5 71.5t96.5 24.5q43 0 71 -9t42.5 -24.5t14.5 -36.5q0 -18 -10.5 -30.5t-29 -19t-42.5 -6.5q0 64 -13 90t-47 26q-44 0 -62.5 -50t-18.5 -142v-32h141v-10h-141v-434q0 -30 8 -48t26.5 -26
t47.5 -8h38v-10h-309z" />
    <glyph glyph-name="fi" unicode="fi" horiz-adv-x="663" 
d="M27 0v10h13q23 0 41.5 5t29.5 20.5t11 46.5v444h-91v10h91v30q0 62 25.5 109t78.5 73.5t135 26.5q47 0 82 -6t58 -17t35 -26t12 -34q0 -29 -25 -47.5t-66 -18.5q0 38 -10 69t-34.5 50t-68.5 19q-51 0 -79 -25t-38.5 -69.5t-10.5 -104.5v-29h339v-454q0 -31 11 -46.5
t30 -20.5t41 -5h13v-10h-274v10h3q22 0 40.5 4.5t30 19t11.5 43.5v449h-245v-444q0 -31 11 -46.5t30 -20.5t41 -5h18v-10h-289z" />
    <glyph glyph-name="fl" unicode="fl" horiz-adv-x="662" 
d="M27 0v10h13q23 0 41.5 5t29.5 20.5t11 46.5v444h-91v10h91v25q0 62 25.5 109t78.5 73.5t135 26.5q27 0 50.5 -2.5t42.5 -7.5h100v-678q0 -31 11 -46.5t30 -20.5t41 -5h13v-10h-274v10h3q22 0 40.5 4.5t30 19t11.5 43.5v544q0 38 -10.5 69t-36 50t-69.5 19q-51 0 -79 -25
t-38.5 -69.5t-10.5 -104.5v-24h153v-10h-153v-444q0 -31 11 -46.5t30 -20.5t41 -5h18v-10h-289z" />
    <glyph glyph-name="f_f_i" unicode="ffi" horiz-adv-x="1002" 
d="M27 0v10h13q30 0 48 8t26 25t8 44v439h-91v10h91v40q0 89 47 136.5t142 47.5q43 0 71 -9t42.5 -24.5t14.5 -36.5q0 -27 -23 -41.5t-59 -14.5q0 43 -6.5 68t-20.5 36.5t-38 11.5q-42 0 -59 -36.5t-17 -128.5v-49h245v30q0 62 25.5 109t78.5 73.5t135 26.5q47 0 82 -6
t58 -17t35 -26t12 -34q0 -29 -25 -47.5t-66 -18.5q0 38 -10 69t-34.5 50t-68.5 19q-51 0 -79 -25t-38.5 -69.5t-10.5 -104.5v-29h339v-454q0 -31 11 -46.5t30 -20.5t41 -5h13v-10h-274v10h3q22 0 40.5 4.5t30 19t11.5 43.5v449h-245v-444q0 -31 11 -46.5t30 -20.5t41 -5h18
v-10h-289v10h13q23 0 41.5 5t29.5 20.5t11 46.5v444h-245v-434q0 -30 8 -48t26.5 -26t47.5 -8h38v-10h-309z" />
    <glyph glyph-name="f_f_l" unicode="ffl" horiz-adv-x="1001" 
d="M27 0v10h13q30 0 48 8t26 25t8 44v439h-91v10h91v40q0 89 47 136.5t142 47.5q43 0 71 -9t42.5 -24.5t14.5 -36.5q0 -27 -23 -41.5t-59 -14.5q0 43 -6.5 68t-20.5 36.5t-38 11.5q-42 0 -59 -36.5t-17 -128.5v-49h245v25q0 62 25.5 109t78.5 73.5t135 26.5q27 0 50.5 -2.5
t42.5 -7.5h100v-678q0 -31 11 -46.5t30 -20.5t41 -5h13v-10h-274v10h3q22 0 40.5 4.5t30 19t11.5 43.5v544q0 38 -10.5 69t-36 50t-69.5 19q-51 0 -79 -25t-38.5 -69.5t-10.5 -104.5v-24h153v-10h-153v-444q0 -31 11 -46.5t30 -20.5t41 -5h18v-10h-289v10h13q23 0 41.5 5
t29.5 20.5t11 46.5v444h-245v-434q0 -30 8 -48t26.5 -26t47.5 -8h38v-10h-309z" />
    <glyph glyph-name=".notdef" horiz-adv-x="600" 
d="M94 0v714h411v-714h-411zM114 20h371v674h-371v-674z" />
    <glyph glyph-name=".null" 
 />
    <glyph glyph-name="nonmarkingreturn" horiz-adv-x="333" 
 />
    <glyph glyph-name="NULL" 
 />
    <glyph glyph-name="NULL" 
 />
    <glyph glyph-name="CR" unicode="&#xd;" horiz-adv-x="225" 
 />
    <glyph glyph-name="space" unicode=" " horiz-adv-x="225" 
 />
    <glyph glyph-name="exclam" unicode="!" horiz-adv-x="333" 
d="M159 201l-51 513h116l-50 -513h-15zM166 -7q-27 0 -40.5 17t-13.5 51t13.5 51t40.5 17t40.5 -17t13.5 -51t-13.5 -51t-40.5 -17z" />
    <glyph glyph-name="quotedbl" unicode="&#x22;" horiz-adv-x="285" 
d="M70 479l-40 235h95l-40 -235h-15zM200 479l-40 235h95l-40 -235h-15z" />
    <glyph glyph-name="numbersign" unicode="#" horiz-adv-x="559" 
d="M100 0l43 233h-118v10h120l45 245h-133v10h135l40 216h10l-40 -216h191l40 216h10l-40 -216h131v-10h-133l-45 -245h146v-10h-148l-43 -233h-10l43 233h-191l-43 -233h-10zM155 243h191l45 245h-191z" />
    <glyph glyph-name="dollar" unicode="$" horiz-adv-x="559" 
d="M273 41q-52 0 -92.5 8t-68 24t-42 39.5t-14.5 53.5q0 25 8.5 42t24.5 26t39 9q1 -63 16.5 -105.5t47.5 -64t81 -22.5v271q-53 23 -89.5 44.5t-58.5 44t-32 49.5t-10 61q0 71 45 115t145 48v76h10v-76q59 0 100.5 -13t63.5 -37t22 -59q0 -34 -21.5 -51t-57.5 -17
q0 53 -11 89.5t-34.5 56t-61.5 21.5v-260q50 -23 88.5 -43t64.5 -41.5t39.5 -49.5t13.5 -69q0 -76 -49.5 -121t-156.5 -49v-120h-10v120zM283 51q58 2 91 33.5t33 92.5q0 47 -26 78t-98 62v-266zM273 674q-51 0 -80.5 -30.5t-29.5 -91.5q0 -30 9.5 -52.5t33.5 -41.5t67 -40
v256z" />
    <glyph glyph-name="percent" unicode="%" horiz-adv-x="896" 
d="M262 0l357 714h11l-357 -714h-11zM209 280q-86 0 -125 61.5t-39 161.5q0 101 39 161t126 60q82 0 122.5 -60t40.5 -161q0 -67 -18 -117t-54.5 -78t-91.5 -28zM209 290q27 0 43 21.5t23 68.5t7 123t-7 122.5t-23 67.5t-42 21q-27 0 -43.5 -21t-24 -67.5t-7.5 -122.5
t7.5 -123t24 -68.5t42.5 -21.5zM687 -10q-86 0 -125 61.5t-39 161.5q0 101 39 161t126 60q82 0 122.5 -60t40.5 -161q0 -67 -18 -117t-54.5 -78t-91.5 -28zM687 0q27 0 43 21.5t23 68.5t7 123t-7 122.5t-23 67.5t-42 21q-27 0 -43.5 -21t-24 -67.5t-7.5 -122.5t7.5 -123
t24 -68.5t42.5 -21.5z" />
    <glyph glyph-name="ampersand" unicode="&#x26;" horiz-adv-x="742" 
d="M272 -10q-77 0 -129.5 26.5t-79.5 72t-27 102.5q0 49 19 86t57.5 65t95.5 49q-33 37 -52.5 66t-28 56.5t-8.5 57.5q0 47 19.5 81.5t60 53t104.5 18.5q67 0 106.5 -18.5t57.5 -50.5t18 -72q0 -38 -16.5 -67.5t-55.5 -54.5t-107 -49l195 -207q11 46 15.5 93t4.5 84v39h180
v-10h-9q-31 0 -51 -10t-33 -33.5t-23 -64.5q-7 -31 -18.5 -65.5t-28.5 -71.5l69 -73q30 -31 50.5 -49.5t36 -26t30.5 -7.5h9v-10h-160l-82 88q-24 -27 -54.5 -49.5t-70.5 -35.5t-94 -13zM284 0q59 0 101 28t76 92l-244 261q-30 -20 -48 -46t-26.5 -61t-8.5 -82
q0 -49 9 -85.5t27.5 -60t46.5 -35t67 -11.5zM297 422q57 27 78.5 62.5t21.5 96.5q0 46 -11 75.5t-32 43.5t-53 14q-46 0 -70 -30.5t-24 -90.5q0 -33 7.5 -57t27 -49.5t55.5 -64.5z" />
    <glyph glyph-name="quotesingle" unicode="'" horiz-adv-x="155" 
d="M70 479l-40 235h95l-40 -235h-15z" />
    <glyph glyph-name="parenleft" unicode="(" horiz-adv-x="346" 
d="M314 -128q-92 37 -148.5 94.5t-82.5 144t-26 206.5t26 205.5t82.5 143.5t148.5 94v-10q-51 -31 -82 -75t-46 -99.5t-20 -120.5t-5 -138t5 -138.5t20 -121t46 -100t82 -75.5v-10z" />
    <glyph glyph-name="parenright" unicode=")" horiz-adv-x="346" 
d="M32 -118q51 31 82 75.5t46 100t20 121t5 138.5t-5 138t-20 120.5t-46 99.5t-82 75v10q92 -36 148.5 -94t82.5 -143.5t26 -205.5t-26 -206.5t-82.5 -144t-148.5 -94.5v10z" />
    <glyph glyph-name="asterisk" unicode="*" horiz-adv-x="500" 
d="M204 378l35 172l-163 -109l-35 78l187 50l-187 50l35 79l163 -111l-35 173h87l-37 -173l164 109l35 -78l-188 -49l188 -49l-35 -77l-164 107l37 -172h-87z" />
    <glyph glyph-name="plus" unicode="+" horiz-adv-x="559" 
d="M269 143v204h-204v20h204v205h20v-205h205v-20h-205v-204h-20z" />
    <glyph glyph-name="comma" unicode="," horiz-adv-x="250" 
d="M30 -144q31 10 54.5 24t37 33t13.5 44q0 21 -8.5 32.5t-20.5 18t-24.5 12.5t-21 17t-8.5 31q0 30 18.5 45.5t46.5 15.5q31 0 54 -21.5t23 -71.5q0 -58 -38.5 -111.5t-125.5 -78.5v10z" />
    <glyph glyph-name="hyphen" unicode="-" horiz-adv-x="310" 
d="M25 263v20h260v-20h-260z" />
    <glyph glyph-name="period" unicode="." horiz-adv-x="250" 
d="M125 -7q-27 0 -40.5 17t-13.5 51t13.5 51t40.5 17t40.5 -17t13.5 -51t-13.5 -51t-40.5 -17z" />
    <glyph glyph-name="slash" unicode="/" horiz-adv-x="288" 
d="M24 -121l230 881h10l-230 -881h-10z" />
    <glyph glyph-name="zero" unicode="0" horiz-adv-x="559" 
d="M280 -10q-82 0 -134 46t-76.5 129t-24.5 194t24.5 193t76.5 127t135 45q78 0 130 -45t77.5 -127.5t25.5 -193.5t-26 -193.5t-77.5 -128.5t-130.5 -46zM280 0q36 0 61 19t40 60.5t22 110.5t7 168t-7 167t-22 109.5t-39.5 60.5t-60.5 19q-37 0 -62 -19t-40.5 -60.5
t-22.5 -109.5t-7 -167t7 -168t22 -110.5t40.5 -60.5t61.5 -19z" />
    <glyph glyph-name="one" unicode="1" horiz-adv-x="559" 
d="M96 0v10h67q27 0 45.5 8t27.5 24t9 40v570q-41 -51 -65 -76t-38.5 -33t-28.5 -8q-24 0 -35.5 15t-11.5 39q41 1 70.5 7.5t52.5 21t46 38.5l59 62h52v-636q0 -24 9 -40t27.5 -24t45.5 -8h49v-10h-381z" />
    <glyph glyph-name="two" unicode="2" horiz-adv-x="559" 
d="M51 0v73l145 157q50 54 82 95.5t50 77.5t25 70.5t7 73.5q0 60 -11 97t-34 53.5t-60 16.5q-39 0 -62.5 -19t-34 -60.5t-10.5 -109.5q-24 0 -43.5 6t-31 21t-11.5 42q0 37 23 66.5t66.5 46.5t104.5 17q66 0 112 -21t69.5 -59t23.5 -91q0 -31 -10.5 -62.5t-38.5 -70
t-78.5 -91t-130.5 -126.5l-133 -123h315q48 0 67 17t23 63l1 13h10l-6 -173h-429z" />
    <glyph glyph-name="three" unicode="3" horiz-adv-x="559" 
d="M252 -10q-61 0 -104.5 15.5t-66.5 41.5t-23 57q0 28 17.5 44.5t45.5 16.5q0 -56 15 -92.5t44.5 -54.5t73.5 -18q50 0 81.5 22t46.5 63.5t15 99.5q0 68 -19.5 109t-59.5 59.5t-102 18.5h-32v10h32q54 0 88.5 20t51.5 60.5t17 101.5q0 78 -27 114t-79 36q-39 0 -63.5 -20.5
t-36 -62t-11.5 -106.5q-36 0 -61 16t-25 57q0 37 23 65t67 44.5t107 16.5q96 0 152.5 -42t56.5 -123q0 -49 -22.5 -86t-67 -60.5t-110.5 -32.5q56 -3 98 -16t70.5 -37t42.5 -57.5t14 -76.5q0 -56 -21 -95t-57 -63t-80 -34.5t-91 -10.5z" />
    <glyph glyph-name="four" unicode="4" horiz-adv-x="559" 
d="M215 0v10h28q27 0 45.5 8t27.5 24t9 40v114h-308v41l309 477h95v-462h124v-56h-124v-114q0 -24 9 -40t27.5 -24t45.5 -8h13v-10h-301zM38 252h287v185v56.5v73t0.5 74t1.5 58.5q-8 -13 -18.5 -29.5t-22 -34t-22.5 -35t-21 -32.5z" />
    <glyph glyph-name="five" unicode="5" horiz-adv-x="559" 
d="M249 -11q-66 0 -106.5 15.5t-59 40t-18.5 49.5q0 23 15.5 39.5t47.5 16.5q0 -52 15 -85.5t44 -49t70 -15.5q44 0 72 22t41 69t13 121t-15 118t-47 64t-84 20q-38 0 -64.5 -10t-44.5 -24.5t-32 -28.5l-12 4l31 358h334l5 -151h-10l-1 11q-2 23 -9.5 36t-22 18.5t-38.5 5.5
h-255l-24 -271q30 34 72.5 50.5t92.5 16.5q61 0 112.5 -22t83.5 -69t32 -122q0 -48 -13.5 -89.5t-42 -72t-74 -48t-108.5 -17.5z" />
    <glyph glyph-name="six" unicode="6" horiz-adv-x="559" 
d="M293 -10q-66 0 -118.5 37.5t-83 119t-30.5 213.5q0 71 16 136.5t48 117t81.5 81t115.5 29.5q56 0 92.5 -15t54.5 -39t18 -51q0 -28 -19.5 -44t-57.5 -16q0 52 -8.5 86t-28 51.5t-51.5 17.5q-50 0 -84 -35t-52.5 -108.5t-22.5 -190.5q17 15 38 27t47.5 19.5t58.5 7.5
q92 0 146.5 -54.5t54.5 -150.5q0 -70 -25.5 -124t-73.5 -84.5t-116 -30.5zM296 0q40 0 64 22t35 70t11 127q0 73 -12 117t-38 64.5t-69 20.5q-26 0 -49 -8.5t-42 -21t-33 -25.5q1 -99 8.5 -168.5t23.5 -113.5t41 -64t60 -20z" />
    <glyph glyph-name="seven" unicode="7" horiz-adv-x="559" 
d="M190 0l292 633h-312q-52 0 -73.5 -19.5t-26.5 -70.5l-1 -11h-10l6 181h446v-29l-246 -684h-75z" />
    <glyph glyph-name="eight" unicode="8" horiz-adv-x="559" 
d="M278 -10q-77 0 -128.5 24.5t-77.5 67t-26 94.5q0 65 40 111t125 69q-49 25 -80.5 53.5t-46.5 62t-15 73.5q0 46 21.5 87t67.5 66.5t119 25.5q67 0 112.5 -22t69 -61t23.5 -89q0 -59 -34.5 -99.5t-113.5 -63.5q63 -28 102.5 -60t58 -69t18.5 -82q0 -88 -64 -138t-171 -50z
M284 0q74 0 108.5 41t34.5 107q0 34 -9.5 59.5t-32.5 47.5t-62.5 44.5t-99.5 50.5q-46 -25 -65.5 -67.5t-19.5 -102.5q0 -96 38.5 -138t107.5 -42zM319 396q33 21 50 46t23 53.5t6 59.5q0 56 -13.5 91t-40.5 51.5t-67 16.5q-59 0 -89 -34.5t-30 -100.5q0 -53 18 -83
t53.5 -51.5t89.5 -48.5z" />
    <glyph glyph-name="nine" unicode="9" horiz-adv-x="559" 
d="M233 -11q-50 0 -83.5 13t-50.5 33t-17 42q0 17 10.5 29.5t29.5 16.5q10 -67 40 -95.5t79 -28.5q56 0 88 34.5t47.5 110t18.5 199.5q-14 -17 -35.5 -33t-50.5 -25.5t-67 -9.5q-55 0 -98 24.5t-68 71.5t-25 114q0 72 25.5 126t73.5 83.5t115 29.5q68 0 120.5 -35t82.5 -109
t30 -192q0 -79 -12.5 -150.5t-42.5 -127.5t-81 -88.5t-129 -32.5zM265 292q35 0 61 12t43.5 28.5t26.5 28.5q-1 95 -8 162.5t-22 109.5t-39 61.5t-60 19.5q-38 0 -63.5 -22.5t-37.5 -72t-12 -131.5q0 -70 11.5 -113.5t36 -63t63.5 -19.5z" />
    <glyph glyph-name="colon" unicode=":" horiz-adv-x="286" 
d="M143 405q-27 0 -40.5 17t-13.5 51t13.5 51t40.5 17t40.5 -17t13.5 -51t-13.5 -51t-40.5 -17zM143 -7q-27 0 -40.5 17t-13.5 51t13.5 51t40.5 17t40.5 -17t13.5 -51t-13.5 -51t-40.5 -17z" />
    <glyph glyph-name="semicolon" unicode=";" horiz-adv-x="286" 
d="M48 -144q31 10 54.5 24t37 33t13.5 44q0 21 -8.5 32.5t-20.5 18t-24.5 12.5t-21 17t-8.5 31q0 30 18.5 45.5t46.5 15.5q31 0 54 -21.5t23 -71.5q0 -58 -38.5 -111.5t-125.5 -78.5v10zM144 405q-27 0 -40.5 17t-13.5 51t13.5 51t40.5 17t40.5 -17t13.5 -51t-13.5 -51
t-40.5 -17z" />
    <glyph glyph-name="less" unicode="&#x3c;" horiz-adv-x="559" 
d="M494 119l-429 228v20l429 228v-23l-407 -215l407 -215v-23z" />
    <glyph glyph-name="equal" unicode="=" horiz-adv-x="559" 
d="M68 455v20h423v-20h-423zM68 239v20h423v-20h-423z" />
    <glyph glyph-name="greater" unicode="&#x3e;" horiz-adv-x="559" 
d="M65 119v23l407 215l-407 215v23l429 -228v-20z" />
    <glyph glyph-name="question" unicode="?" horiz-adv-x="500" 
d="M202 336q51 5 83 25.5t47 62.5t15 109q0 61 -11.5 101t-36 60t-64.5 20q-37 0 -61 -17.5t-36 -54t-12 -95.5q-36 0 -59.5 17.5t-23.5 51.5q0 31 22 55.5t64 38.5t100 14q104 0 162 -47t58 -136q0 -78 -49.5 -129.5t-152.5 -77.5l-15 -133h-15zM223 -7q-27 0 -40.5 17
t-13.5 51t13.5 51t40.5 17t40.5 -17t13.5 -51t-13.5 -51t-40.5 -17z" />
    <glyph glyph-name="at" unicode="@" horiz-adv-x="921" 
d="M432 -142q-107 0 -190 39.5t-130 119.5t-47 201q0 106 34 196.5t96 157.5t147.5 104.5t187.5 37.5q112 0 187 -43t113 -115.5t38 -163.5q0 -72 -18 -130.5t-48.5 -99.5t-67.5 -63t-75 -22q-19 0 -39 6.5t-37.5 22.5t-28 43t-10.5 69h-2q-13 -48 -35 -79t-51 -46.5
t-64 -15.5q-56 0 -92.5 40t-36.5 122q0 43 14.5 93t43.5 95t73.5 73.5t105.5 28.5q41 0 61.5 -12.5t31.5 -32.5l72 36h10l-51 -254q-7 -32 -11 -58t-4 -46q0 -39 16 -56.5t42 -17.5q28 0 53 18.5t44.5 56.5t31 95.5t11.5 136.5q0 108 -36 176.5t-100 100.5t-147 32
q-73 0 -141 -31.5t-122 -92.5t-85.5 -151.5t-31.5 -208.5q0 -99 23.5 -166.5t64.5 -108t94.5 -58.5t113.5 -18q68 0 137.5 24t135.5 73l6 -9q-43 -32 -90 -54.5t-96.5 -33.5t-100.5 -11zM416 95q29 0 53 18.5t42 54t28 87.5l42 224q-4 14 -22 26.5t-46 12.5
q-34 0 -60.5 -21.5t-45.5 -56.5t-31 -77t-17.5 -84t-5.5 -77q0 -60 17 -83.5t46 -23.5z" />
    <glyph glyph-name="A" unicode="A" horiz-adv-x="705" 
d="M0 0v10h29q22 0 37 7t26 24t21 47l218 626h51l251 -651q8 -20 16 -31.5t18.5 -16.5t24.5 -5h13v-10h-275v10h23q38 0 55 9t17 32q0 6 -1 12.5t-2.5 14.5t-5.5 17l-61 164h-271l-55 -157q-3 -8 -5 -16t-3 -14.5t-1 -12.5q0 -27 24 -38t77 -11h23v-10h-244zM187 269h264
l-73 195q-13 34 -24 65t-20.5 59.5t-17.5 55.5q-7 -22 -13 -40.5t-12 -36.5t-13.5 -38.5t-16.5 -47.5z" />
    <glyph glyph-name="B" unicode="B" horiz-adv-x="654" 
d="M38 0v10h13q27 0 45.5 8t27.5 24t9 40v554q0 23 -9 38t-27.5 22.5t-45.5 7.5h-13v10h268q128 0 192.5 -43t64.5 -127q0 -50 -21.5 -85.5t-64 -55.5t-106.5 -25v-2q119 -5 170.5 -54.5t51.5 -129.5q0 -97 -63.5 -144.5t-193.5 -47.5h-298zM331 10q84 0 119.5 42t35.5 140
q0 64 -15.5 102.5t-49 56.5t-88.5 18h-99v-359h97zM303 379q55 0 88.5 15.5t49 50t15.5 90.5q0 92 -35.5 130.5t-119.5 38.5h-67v-325h69z" />
    <glyph glyph-name="C" unicode="C" horiz-adv-x="614" 
d="M367 -10q-103 0 -172 46t-103.5 128t-34.5 191q0 110 35 193t106.5 129.5t180.5 46.5q65 0 109.5 -16t68 -42t23.5 -57q0 -34 -25 -50.5t-62 -16.5q0 62 -13 99.5t-41 54.5t-73 17q-70 0 -114 -40t-64 -118.5t-20 -194.5q0 -120 21.5 -200t68 -120t121.5 -40
q68 0 109.5 34.5t62.5 111.5q13 -5 19 -14.5t6 -23.5q0 -19 -13 -39.5t-39 -38.5t-65 -29t-92 -11z" />
    <glyph glyph-name="D" unicode="D" horiz-adv-x="727" 
d="M38 0v10h13q27 0 45.5 8t27.5 24t9 40v554q0 23 -9 38t-27.5 22.5t-45.5 7.5h-13v10h306q103 0 176 -41.5t111.5 -121t38.5 -193.5q0 -109 -36.5 -189.5t-108.5 -124.5t-181 -44h-306zM321 10q84 0 136.5 36t77 113t24.5 199q0 121 -24.5 197.5t-77 112.5t-135.5 36h-88
v-694h87z" />
    <glyph glyph-name="E" unicode="E" horiz-adv-x="623" 
d="M38 0v10h13q27 0 45.5 8t27.5 24t9 40v554q0 23 -9 38t-27.5 22.5t-45.5 7.5h-13v10h503l6 -175h-10l-2 33q-3 50 -17 79t-43.5 41t-80.5 12h-160v-325h251v-10h-251v-359h185q54 0 86 12t46.5 41t17.5 79l2 33h10l-7 -175h-536z" />
    <glyph glyph-name="F" unicode="F" horiz-adv-x="590" 
d="M38 0v10h13q27 0 45.5 8t27.5 24t9 40v554q0 23 -9 38t-27.5 22.5t-45.5 7.5h-13v10h504l6 -175h-10l-2 33q-3 50 -17 79t-44 41t-81 12h-160v-348h251v-10h-251v-264q0 -24 9 -40t27.5 -24t45.5 -8h13v-10h-291z" />
    <glyph glyph-name="G" unicode="G" horiz-adv-x="714" 
d="M401 -10q-116 0 -192.5 46t-114 128.5t-37.5 193.5q0 108 37 190.5t112.5 129t190.5 46.5q74 0 125.5 -14t78.5 -38.5t27 -56.5q0 -34 -21.5 -51.5t-71.5 -21.5q0 62 -14.5 100t-45.5 55t-82 17q-81 0 -130.5 -35.5t-72 -114t-22.5 -206.5q0 -129 25 -207.5t80 -114.5
t144 -36q29 0 56 4.5t48 10.5v237q0 23 -9 38t-27.5 22.5t-45.5 7.5h-4v10h260v-10h-4q-26 0 -41 -8t-21.5 -24t-6.5 -40v-212q-50 -23 -103 -34.5t-118 -11.5z" />
    <glyph glyph-name="H" unicode="H" horiz-adv-x="793" 
d="M39 0v10h13q27 0 45.5 8t27.5 24t9 40v554q0 23 -9 38t-27.5 22.5t-45.5 7.5h-13v10h291v-10h-13q-27 0 -45.5 -8t-27.5 -24t-9 -40v-254h324v254q0 24 -9 40t-27 24t-46 8h-13v10h291v-10h-13q-27 0 -45 -7.5t-27.5 -22.5t-9.5 -38v-554q0 -24 9.5 -40t27.5 -24t45 -8
h13v-10h-291v10h13q28 0 46 8t27 24t9 40v286h-324v-286q0 -24 9 -40t27.5 -24t45.5 -8h13v-10h-291z" />
    <glyph glyph-name="I" unicode="I" horiz-adv-x="367" 
d="M38 0v10h13q27 0 45.5 8t27.5 24t9 40v554q0 23 -9 38t-27.5 22.5t-45.5 7.5h-13v10h291v-10h-13q-27 0 -45.5 -8t-27.5 -24t-9 -40v-550q0 -24 9 -40t27.5 -24t45.5 -8h13v-10h-291z" />
    <glyph glyph-name="J" unicode="J" horiz-adv-x="357" 
d="M-11 -240v10h9q43 0 73 16.5t46 57t16 110.5v682q0 23 -9 38t-27.5 22.5t-45.5 7.5h-13v10h291v-10h-13q-27 0 -45.5 -8t-27.5 -24t-9 -40v-640q0 -67 -17.5 -112t-48.5 -71t-72.5 -37.5t-89.5 -11.5h-17z" />
    <glyph glyph-name="K" unicode="K" horiz-adv-x="700" 
d="M38 0v10h13q27 0 45.5 8t27.5 24t9 40v554q0 23 -9 38t-27.5 22.5t-45.5 7.5h-13v10h291v-10h-13q-27 0 -45.5 -8t-27.5 -24t-9 -40v-336l255 289q18 20 29.5 35.5t17 28t5.5 21.5q0 12 -10 19.5t-31 10.5t-53 3v11h221v-11q-22 0 -43 -8.5t-45 -29.5t-56 -57l-154 -173
l220 -312q23 -32 40.5 -54t31 -35t25 -18.5t23.5 -5.5h2v-10h-11q-50 0 -82.5 4t-53.5 14t-38 27.5t-36 44.5l-188 269l-69 -79v-198q0 -24 9 -40t27.5 -24t45.5 -8h13v-10h-291z" />
    <glyph glyph-name="L" unicode="L" horiz-adv-x="623" 
d="M38 0v10h13q27 0 45.5 8t27.5 24t9 40v554q0 23 -9 38t-27.5 22.5t-45.5 7.5h-13v10h291v-10h-13q-27 0 -45.5 -8t-27.5 -24t-9 -40v-622h185q53 0 84.5 15.5t46.5 53.5t19 103l2 33h10l-7 -215h-536z" />
    <glyph glyph-name="M" unicode="M" horiz-adv-x="938" 
d="M38 0v10h39q27 0 45.5 8t27.5 24t9 40v554q0 23 -9 38t-27.5 22.5t-45.5 7.5h-39v10h203l255 -602l221 602h183v-10h-13q-27 0 -45.5 -8t-27.5 -24t-9 -40v-550q0 -24 9 -40t27.5 -24t45.5 -8h13v-10h-266v10h3q22 0 38 8t25 24t9 40v580l-243 -662h-24l-273 649v-567
q0 -24 9 -40t27.5 -24t45.5 -8h18v-10h-231z" />
    <glyph glyph-name="N" unicode="N" horiz-adv-x="763" 
d="M38 0v10h29q27 0 45.5 8t27.5 24t9 40v554q0 23 -9 38t-27.5 22.5t-45.5 7.5h-29v10h195l381 -571v489q0 24 -9 40t-27 24t-46 8h-28v10h231v-10h-29q-27 0 -45 -8t-27.5 -24t-9.5 -40v-632h-30l-435 652v-570q0 -24 9 -40t27.5 -24t45.5 -8h28v-10h-231z" />
    <glyph glyph-name="O" unicode="O" horiz-adv-x="742" 
d="M371 -10q-106 0 -176 46t-104.5 129t-34.5 194t34.5 193t105 127.5t176.5 45.5q101 0 170.5 -45.5t106 -128t36.5 -193.5t-36.5 -193.5t-106.5 -128.5t-171 -46zM371 0q53 0 91.5 20.5t63 64t36.5 111.5t12 162t-12 161.5t-36.5 111t-62.5 64t-91 20.5q-54 0 -92.5 -20.5
t-63.5 -64t-37 -111t-12 -161.5t12 -162t36.5 -111.5t63 -64t92.5 -20.5z" />
    <glyph glyph-name="P" unicode="P" horiz-adv-x="604" 
d="M38 0v10h13q27 0 45.5 8t27.5 24t9 40v554q0 23 -9 38t-27.5 22.5t-45.5 7.5h-13v10h281q126 0 186 -55.5t60 -153.5q0 -45 -14 -85.5t-45.5 -72.5t-83 -50.5t-125.5 -18.5h-63v-196q0 -24 9 -40t27.5 -24t45.5 -8h13v-10h-291zM287 288q46 0 78 12t52.5 37.5t30 66
t9.5 97.5q0 73 -15.5 117.5t-49.5 65t-90 20.5h-68v-416h53z" />
    <glyph glyph-name="Q" unicode="Q" horiz-adv-x="742" 
d="M559 -230q-40 0 -78.5 11t-71.5 36t-54.5 68t-26.5 107q-91 10 -151.5 58t-90.5 127t-30 182q0 111 34.5 193t105 127.5t176.5 45.5q101 0 170.5 -45.5t106 -128t36.5 -193.5q0 -146 -63.5 -243t-183.5 -119q3 -65 15.5 -107.5t31.5 -66t45 -33t56 -9.5h16v-10h-43z
M371 0q53 0 91.5 20.5t63 64t36.5 111.5t12 162t-12 161.5t-36.5 111t-62.5 64t-91 20.5q-54 0 -92.5 -20.5t-63.5 -64t-37 -111t-12 -161.5t12 -162t36.5 -111.5t63 -64t92.5 -20.5z" />
    <glyph glyph-name="R" unicode="R" horiz-adv-x="656" 
d="M38 0v10h13q27 0 45.5 8t27.5 24t9 40v554q0 23 -9 38t-27.5 22.5t-45.5 7.5h-13v10h269q87 0 144 -21.5t85 -63.5t28 -102q0 -58 -23.5 -95.5t-60 -58.5t-75.5 -32l141 -220q21 -32 36.5 -53.5t28.5 -34t24.5 -18t23.5 -5.5h3v-10h-14q-47 0 -77.5 3.5t-50.5 12.5
t-35.5 26.5t-33.5 45.5l-154 245h-63v-251q0 -24 9 -40t27.5 -24t45.5 -8h13v-10h-291zM304 343q56 0 89.5 17.5t48.5 56.5t15 103q0 66 -15.5 106.5t-49.5 59t-90 18.5h-68v-361h70z" />
    <glyph glyph-name="S" unicode="S" horiz-adv-x="544" 
d="M258 -10q-49 0 -88 10.5t-66.5 29t-41.5 43.5t-14 55q0 23 8.5 38.5t24.5 23.5t39 8q1 -65 16.5 -109.5t47.5 -66.5t81 -22q64 0 103.5 37.5t39.5 110.5q0 45 -16.5 73t-53 50.5t-95.5 49.5q-31 15 -63.5 32.5t-60 42t-44 60t-16.5 84.5q0 60 26 101t73.5 62t111.5 21
q59 0 102.5 -16t68 -42t24.5 -57q0 -29 -22 -45.5t-57 -16.5q0 83 -27 125t-90 42q-38 0 -67 -15.5t-44.5 -46t-15.5 -76.5q0 -49 18 -79t54.5 -51.5t91.5 -47.5q50 -23 92.5 -48t68.5 -63t26 -100q0 -61 -27.5 -105t-80 -68t-127.5 -24z" />
    <glyph glyph-name="T" unicode="T" horiz-adv-x="613" 
d="M160 0v10h13q27 0 45.5 8t27.5 24t9 40v622h-82q-50 0 -80 -12t-44 -41t-17 -79l-2 -33h-10l6 175h561l6 -175h-10l-2 33q-3 50 -17 79t-43.5 41t-80.5 12h-84v-622q0 -24 9 -40t27.5 -24t45.5 -8h13v-10h-291z" />
    <glyph glyph-name="U" unicode="U" horiz-adv-x="717" 
d="M362 -10q-79 0 -135.5 22.5t-86.5 72.5t-30 131v420q0 23 -9 38t-27.5 22.5t-45.5 7.5h-13v10h291v-10h-13q-27 0 -45.5 -8t-27.5 -23.5t-9 -39.5v-423q0 -80 21.5 -125t59.5 -62.5t86 -17.5q68 0 117 24t75.5 69.5t26.5 107.5v430q0 23 -9 38t-27.5 22.5t-45.5 7.5h-13
v10h200v-10h-13q-27 0 -45.5 -8t-27.5 -24t-9 -40v-428q0 -66 -28 -114t-82.5 -74t-134.5 -26z" />
    <glyph glyph-name="V" unicode="V" horiz-adv-x="675" 
d="M85 650q-7 21 -16 32.5t-22 16.5t-34 5h-13v10h275v-10h-24q-32 0 -47 -8.5t-15 -29.5q0 -6 1 -13.5t3.5 -15.5t5.5 -18l124 -357q9 -25 16.5 -48t14.5 -45t12.5 -42t10.5 -39q8 26 17 55.5t19 60t19 58.5l114 349q4 11 6 19.5t3.5 16.5t1.5 14q0 24 -16 33.5t-51 9.5
h-59v10h244v-10h-36q-19 0 -32 -7t-23 -24t-20 -46l-207 -627h-43z" />
    <glyph glyph-name="W" unicode="W" horiz-adv-x="1047" 
d="M93 651q-6 20 -14.5 31.5t-22 16.5t-34.5 5h-13v10h275v-10h-23q-31 0 -45.5 -9t-14.5 -31q0 -6 1 -13t3 -15t4 -17l107 -352q9 -30 17 -60.5t15 -62t13 -64.5q6 29 16.5 70.5t22.5 89.5l119 467h42l146 -433q14 -41 25.5 -79.5t20.5 -71t14 -55.5q6 23 9.5 36.5t8 30.5
t12.5 48l111 420q5 17 7 30t2 23q0 27 -16.5 37.5t-51.5 10.5h-23v10h194v-10h-19q-21 0 -35 -7t-23.5 -24t-17.5 -47l-166 -626h-60l-198 597l-148 -597h-62z" />
    <glyph glyph-name="X" unicode="X" horiz-adv-x="660" 
d="M8 0v10h22q20 0 35.5 6.5t30.5 22.5t33 43l166 253l-176 315q-11 21 -23 32.5t-26.5 16.5t-36.5 5h-12v10h271v-10h-9q-28 0 -41.5 -6.5t-13.5 -22.5q0 -10 5.5 -24.5t16.5 -34.5l110 -196l127 194q14 22 21.5 37.5t7.5 25.5q0 15 -14.5 21t-43.5 6h-49v10h219v-10h-18
q-19 0 -35 -6.5t-31 -22t-33 -43.5l-146 -223l193 -345q12 -20 23.5 -32t26.5 -17t36 -5h8v-10h-270v10h12q28 0 41.5 6.5t13.5 22.5q0 10 -5.5 25t-16.5 34l-127 227l-147 -225q-9 -14 -15.5 -26t-10 -21t-3.5 -16q0 -15 14.5 -21t43.5 -6h64v-10h-238z" />
    <glyph glyph-name="Y" unicode="Y" horiz-adv-x="625" 
d="M159 0v10h23q27 0 45.5 8t27.5 24t9 40v231l-178 338q-10 20 -20 31.5t-22 16.5t-29 5h-20v10h275v-10h-34q-23 0 -34.5 -6t-11.5 -21q0 -10 5 -24t15 -34l86 -166q11 -20 20 -38.5t17 -35t15 -31t12 -26.5q12 23 29.5 58t37.5 73l76 147q12 23 18 40t6 29q0 20 -16 27.5
t-50 7.5h-40v10h214v-10h-25q-16 0 -28.5 -7t-25 -24t-28.5 -47l-163 -315v-229q0 -24 9 -40t27.5 -24t45.5 -8h23v-10h-311z" />
    <glyph glyph-name="Z" unicode="Z" horiz-adv-x="592" 
d="M36 0v10l385 694h-206q-55 0 -87 -13t-46.5 -43.5t-16.5 -83.5l-1 -25h-10l6 175h474v-10l-385 -694h240q53 0 84 13t46.5 43.5t19.5 83.5l2 25h10l-6 -175h-509z" />
    <glyph glyph-name="bracketleft" unicode="[" horiz-adv-x="360" 
d="M100 -128v888h223v-10h-43q-31 0 -49 -6.5t-25.5 -22t-7.5 -43.5v-724q0 -27 7.5 -43t25.5 -22.5t49 -6.5h43v-10h-223z" />
    <glyph glyph-name="backslash" unicode="\" horiz-adv-x="240" 
d="M230 -121l-230 881h10l230 -881h-10z" />
    <glyph glyph-name="bracketright" unicode="]" horiz-adv-x="360" 
d="M37 -128v10h43q31 0 49 6.5t25.5 22.5t7.5 43v724q0 28 -7.5 43.5t-25.5 22t-49 6.5h-43v10h223v-888h-223z" />
    <glyph glyph-name="asciicircum" unicode="^" horiz-adv-x="504" 
d="M55 261l184 453h24l186 -453h-22l-176 433l-174 -433h-22z" />
    <glyph glyph-name="underscore" unicode="_" horiz-adv-x="459" 
d="M-5 -123v20h469v-20h-469z" />
    <glyph glyph-name="grave" unicode="`" horiz-adv-x="254" 
d="M204 606q-19 15 -43 35.5t-47.5 42t-43 40.5t-30.5 32v10h90q11 -22 25 -49t29.5 -53t29.5 -48v-10h-10z" />
    <glyph glyph-name="a" unicode="a" horiz-adv-x="563" 
d="M215 -10q-76 0 -120.5 39.5t-44.5 108.5q0 77 56.5 115t171.5 42l83 3v75q0 56 -6 92t-26 53.5t-61 17.5q-58 0 -74.5 -36t-16.5 -113q-42 0 -63.5 14t-21.5 46q0 36 24.5 57.5t65.5 31.5t90 10q92 0 137.5 -39t45.5 -134v-299q0 -24 6 -38t20 -20t36 -6h3v-10h-151v105
h-2q-10 -40 -32 -65.5t-52.5 -37.5t-67.5 -12zM235 4q37 0 65.5 19t44.5 51t16 69v144l-64 -3q-85 -4 -117.5 -39t-32.5 -118q0 -40 9.5 -67.5t29.5 -41.5t49 -14z" />
    <glyph glyph-name="b" unicode="b" horiz-adv-x="614" 
d="M358 -10q-65 0 -103 37t-52 114h-2v-141h-183v10h8q30 0 48 8t26 25t8 44v585q0 28 -8 45t-26 25t-48 8h-3v10h179v-184v-75.5t-2 -103.5h2q14 76 52.5 112.5t105.5 36.5q98 0 148.5 -70t50.5 -207q0 -91 -23 -153.5t-67.5 -94t-110.5 -31.5zM341 5q44 0 70.5 26.5
t38.5 85t12 153.5q0 94 -12 151.5t-39 83.5t-71 26q-73 0 -105.5 -66t-32.5 -196q0 -134 34.5 -199t104.5 -65z" />
    <glyph glyph-name="c" unicode="c" horiz-adv-x="492" 
d="M285 -10q-68 0 -120 27.5t-81 89.5t-29 163q0 103 29.5 163.5t79.5 86.5t113 26q42 0 82.5 -11t66.5 -33.5t26 -59.5q0 -22 -10.5 -35.5t-30 -19.5t-48.5 -6q0 53 -7.5 87.5t-26.5 51t-54 16.5q-36 0 -64 -22.5t-43.5 -80t-15.5 -164.5q0 -98 15 -157.5t48 -85.5t85 -26
q33 0 59.5 11t46 38.5t30.5 75.5q10 -2 15.5 -10t5.5 -22q0 -24 -19 -47.5t-57 -39.5t-96 -16z" />
    <glyph glyph-name="d" unicode="d" horiz-adv-x="614" 
d="M256 -10q-65 0 -110 31.5t-68 94t-23 153.5q0 92 22.5 153.5t67 92.5t109.5 31q68 0 106.5 -36.5t51.5 -112.5h2q-1 36 -1.5 70.5t-0.5 63v45.5v96q0 28 -8 45t-26 25t-48 8h-3v10h179v-673q0 -27 8 -44t26.5 -25t47.5 -8h8v-10h-183v141h-2q-13 -77 -51.5 -114
t-103.5 -37zM273 5q71 0 105 65t34 199q0 87 -14.5 145t-44.5 87.5t-79 29.5q-44 0 -71 -26t-39 -83.5t-12 -151.5q0 -95 12 -153.5t39 -85t70 -26.5z" />
    <glyph glyph-name="e" unicode="e" horiz-adv-x="535" 
d="M292 -10q-112 0 -174.5 72t-62.5 202q0 140 58 211t164 71q97 0 152.5 -60t55.5 -179v-24h-333q1 -102 15 -164t45.5 -90.5t82.5 -28.5q38 0 67.5 14t49.5 41.5t27 67.5q12 -2 18 -12t6 -21q0 -20 -19 -43.5t-56.5 -40t-95.5 -16.5zM384 293q0 88 -11 141t-35 77.5
t-63 24.5q-41 0 -67 -24.5t-39 -77.5t-17 -141h232z" />
    <glyph glyph-name="f" unicode="f" horiz-adv-x="369" 
d="M27 0v10h13q30 0 48 8t26 25t8 44v439h-91v10h91v50q0 89 47 136.5t142 47.5q43 0 71 -9t42.5 -24.5t14.5 -36.5q0 -18 -10.5 -30.5t-29 -19t-42.5 -6.5q0 64 -14.5 90t-50.5 26q-42 0 -59 -36.5t-17 -128.5v-59h141v-10h-141v-434q0 -30 8 -48t26.5 -26t47.5 -8h38v-10
h-309z" />
    <glyph glyph-name="g" unicode="g" horiz-adv-x="538" 
d="M231 -240q-104 0 -156 37.5t-52 99.5q0 35 16 60.5t49 40.5t83 15q-39 12 -58.5 39t-19.5 57q0 29 19.5 55.5t60.5 40.5q-48 17 -76.5 56.5t-28.5 99.5q0 86 47 135.5t141 49.5q35 0 63 -8.5t50 -24.5q15 16 40 35t59 19q29 0 43.5 -15.5t14.5 -37.5q0 -20 -12.5 -33
t-40.5 -13q0 32 -10.5 47t-33.5 15q-13 0 -24 -4.5t-28 -18.5q29 -24 44 -61t15 -82q0 -74 -44.5 -123t-135.5 -49q-19 0 -36.5 2.5t-33.5 6.5q-24 -10 -33 -24t-9 -31q0 -26 18.5 -38t55.5 -12h113q89 0 127 -42t38 -107q0 -86 -64.5 -136.5t-200.5 -50.5zM239 -230
q95 0 140 34.5t45 101.5q0 52 -27.5 76.5t-84.5 24.5h-108q-27 0 -51.5 -10t-40 -35t-15.5 -69q0 -41 17 -68.5t48.5 -41t76.5 -13.5zM253 202q33 0 52.5 17t28 53t8.5 92q0 59 -9 97t-28.5 56.5t-52.5 18.5q-32 0 -52 -19.5t-29 -57.5t-9 -96q0 -55 9.5 -91t29.5 -53
t52 -17z" />
    <glyph glyph-name="h" unicode="h" horiz-adv-x="635" 
d="M18 0v10h8q31 0 49 8.5t25.5 28.5t7.5 55v558q0 34 -7.5 53.5t-24.5 28t-48 8.5h-5v10h179v-202v-38.5v-38.5t-1 -39h2q14 47 39 69t54.5 28.5t54.5 6.5q89 0 132.5 -46.5t43.5 -149.5v-248q0 -35 7 -55t23.5 -28.5t44.5 -8.5h5v-10h-174v384q0 65 -24 106t-83 41
q-47 0 -74 -25t-38.5 -64.5t-11.5 -82.5v-257q0 -35 7.5 -55t25 -28.5t47.5 -8.5h5v-10h-269z" />
    <glyph glyph-name="i" unicode="i" horiz-adv-x="320" 
d="M23 0v10h13q30 0 48 8t26 25t8 44v361q0 28 -8 45t-26 25t-48 8h-3v10h179v-444q0 -30 8 -48t26.5 -26t47.5 -8h13v-10h-284zM160 632q-19 0 -31.5 12.5t-12.5 43.5q0 32 12.5 44t31.5 12q18 0 31 -12t13 -44q0 -31 -13 -43.5t-31 -12.5z" />
    <glyph glyph-name="j" unicode="j" horiz-adv-x="300" 
d="M-12 -240v10h7q36 0 61.5 18t38.5 66t13 137v457q0 28 -8 45t-26 25t-48 8h-3v10h179v-544q0 -89 -25.5 -140t-70 -71.5t-102.5 -20.5h-16zM150 632q-19 0 -31.5 12.5t-12.5 43.5q0 32 12.5 44t31.5 12q18 0 31 -12t13 -44q0 -31 -13 -43.5t-31 -12.5z" />
    <glyph glyph-name="k" unicode="k" horiz-adv-x="585" 
d="M18 0v10h8q30 0 48 8t26 25t8 44v585q0 28 -8 45t-26 25t-48 8h-3v10h179v-414v-39.5t-0.5 -39.5t-1.5 -40l170 190q16 18 27 32.5t16.5 26t5.5 19.5q0 17 -22 24t-68 7v10h221v-10q-25 0 -44.5 -5t-43 -24t-62.5 -62l-78 -88l154 -237q31 -47 49.5 -68t31.5 -26.5
t26 -5.5h3v-10h-44q-30 0 -52.5 4t-40 12.5t-32 23t-28.5 36.5l-128 202l-59 -66v-120q0 -30 8 -48t26 -26t48 -8h3v-10h-269z" />
    <glyph glyph-name="l" unicode="l" horiz-adv-x="310" 
d="M13 0v10h13q30 0 48 8t26 25t8 44v585q0 28 -8 45t-26 25t-48 8h-13v10h189v-668q0 -30 8 -48t26 -26t48 -8h13v-10h-284z" />
    <glyph glyph-name="m" unicode="m" horiz-adv-x="945" 
d="M28 0v10h8q30 0 48 8t26 25t8 44v361q0 28 -8 45t-26 25t-48 8h-3v10h178v-95h2q14 44 37.5 66.5t52.5 30.5t59 8q53 0 95.5 -25.5t62.5 -96.5h2q13 54 36.5 80t52.5 34t57 8q86 0 127.5 -49.5t41.5 -149.5v-255q0 -30 8 -48t26.5 -26t47.5 -8h3v-10h-179v367
q0 83 -23 121t-74 38q-38 0 -65 -19.5t-40.5 -56.5t-13.5 -90v-268q0 -30 8 -48t26.5 -26t47.5 -8h3v-10h-179v367q0 83 -23.5 121t-76.5 38q-40 0 -67 -20t-40.5 -60t-13.5 -100v-254q0 -30 8 -48t26.5 -26t47.5 -8h3v-10h-269z" />
    <glyph glyph-name="n" unicode="n" horiz-adv-x="645" 
d="M28 0v10h8q31 0 49 8.5t25.5 28.5t7.5 55v334q0 34 -7.5 53.5t-24.5 28t-48 8.5h-5v10h178v-94h2q14 47 39 69t54.5 28.5t54.5 6.5q89 0 132.5 -46.5t43.5 -149.5v-248q0 -35 7 -55t23.5 -28.5t44.5 -8.5h5v-10h-174v384q0 65 -24 106t-83 41q-47 0 -74 -25t-38.5 -64.5
t-11.5 -82.5v-257q0 -35 7.5 -55t25 -28.5t47.5 -8.5h5v-10h-269z" />
    <glyph glyph-name="o" unicode="o" horiz-adv-x="577" 
d="M287 -10q-108 0 -170 69t-62 210q0 140 59.5 208.5t175.5 68.5q108 0 170 -68.5t62 -208.5q0 -141 -59.5 -210t-175.5 -69zM289 0q49 0 79 27t43.5 86t13.5 156q0 96 -13.5 155t-43.5 85.5t-80 26.5q-49 0 -79 -26.5t-43.5 -85.5t-13.5 -155q0 -97 13.5 -156t44 -86
t79.5 -27z" />
    <glyph glyph-name="p" unicode="p" horiz-adv-x="614" 
d="M18 -240v10h8q30 0 48 8t26 25t8 44v601q0 28 -8 45t-26 25t-48 8h-13v10h187v-139h2q14 76 52.5 112.5t105.5 36.5q98 0 148.5 -70t50.5 -207t-51.5 -208t-149.5 -71q-65 0 -103 37t-52 114h-2q1 -25 1 -50v-50v-189q0 -29 8 -47.5t26 -26.5t48 -8h3v-10h-269zM341 5
q44 0 70.5 26.5t38.5 85t12 153.5q0 94 -12 151.5t-39 83.5t-71 26q-48 0 -78.5 -29.5t-45 -87.5t-14.5 -145q0 -89 15 -148t46 -87.5t78 -28.5z" />
    <glyph glyph-name="q" unicode="q" horiz-adv-x="614" 
d="M297 -240v10h33q30 0 48 8t26 25t8 44v193q0 17 0.5 34t0.5 33.5v33.5h-2q-9 -51 -29 -84.5t-51 -50t-75 -16.5q-98 0 -149.5 71t-51.5 208q0 92 22.5 153.5t67 92.5t109.5 31q68 0 106.5 -36.5t51.5 -112.5h2v139h177v-10h-3q-29 0 -47.5 -8t-26.5 -25t-8 -45v-596
q0 -29 8 -47.5t26.5 -26.5t47.5 -8h8v-10h-299zM273 5q47 0 78 28.5t46 87.5t15 148q0 130 -32.5 196t-105.5 66q-44 0 -71 -26t-39 -83.5t-12 -151.5q0 -95 12 -153.5t39 -85t70 -26.5z" />
    <glyph glyph-name="r" unicode="r" horiz-adv-x="471" 
d="M23 0v10h13q30 0 48 8t26 25t8 44v361q0 28 -8 45t-26 25t-48 8h-3v10h178v-100h2q7 26 21 51t42.5 42t76.5 17q50 0 76.5 -19.5t26.5 -54.5q0 -30 -21.5 -50t-71.5 -20q0 62 -21 85.5t-47 23.5q-29 0 -46 -20.5t-25 -53t-10 -67t-2 -63.5v-215q0 -30 8 -48t26.5 -26
t47.5 -8h13v-10h-284z" />
    <glyph glyph-name="s" unicode="s" horiz-adv-x="451" 
d="M214 -10q-50 0 -88 12t-59.5 35.5t-21.5 58.5q0 27 11 42t25.5 21t26.5 6q0 -54 10 -90.5t34 -55.5t64 -19q53 0 84 27.5t31 81.5q0 35 -12 55.5t-39.5 36.5t-76.5 37q-57 25 -90 48.5t-47 51.5t-14 66q0 68 48 104.5t133 36.5q48 0 82.5 -12.5t52.5 -33.5t18 -46
q0 -27 -18.5 -43.5t-53.5 -16.5q0 77 -21 109.5t-65 32.5q-34 0 -56.5 -11t-34 -32t-11.5 -53q0 -35 14 -56t43.5 -36t73.5 -34q57 -23 90 -46.5t46.5 -52t13.5 -67.5q0 -78 -52 -117.5t-141 -39.5z" />
    <glyph glyph-name="t" unicode="t" horiz-adv-x="352" 
d="M240 -10q-76 0 -110.5 34.5t-34.5 120.5v381h-76v10q36 0 62.5 6.5t45.5 20.5q20 14 32.5 38t19.5 58h10v-123h140v-10h-140v-418q0 -52 20 -78t59 -26q14 0 29 3t32 9v-10q-13 -6 -39 -11t-50 -5z" />
    <glyph glyph-name="u" unicode="u" horiz-adv-x="635" 
d="M283 -10q-88 0 -131.5 46.5t-43.5 149.5v250q0 34 -7.5 53.5t-25.5 28t-49 8.5h-3v10h179v-355q0 -64 9 -102.5t30.5 -56.5t57.5 -18q45 0 74.5 23.5t44.5 69t15 109.5v230q0 34 -7.5 53.5t-25.5 28t-49 8.5h-3v10h179v-437q0 -34 7.5 -53.5t25.5 -27.5t49 -8h3v-10h-172
v137h-2q-8 -51 -25.5 -80.5t-40 -43.5t-46 -18.5t-43.5 -4.5z" />
    <glyph glyph-name="v" unicode="v" horiz-adv-x="579" 
d="M67 473q-7 20 -15.5 31.5t-19.5 16.5t-28 5v10h250v-10h-24q-32 0 -47.5 -8.5t-15.5 -29.5q0 -9 3 -20.5t8 -26.5l79 -221q13 -36 22.5 -63.5l19 -55t21.5 -65.5q6 19 11 35t11 33t14 39l101 292q5 16 8 28t3 22q0 23 -17.5 32t-55.5 9h-33v10h214v-10h-28
q-19 0 -32.5 -7t-23.5 -24t-20 -47l-154 -448h-79z" />
    <glyph glyph-name="w" unicode="w" horiz-adv-x="862" 
d="M71 473q-5 20 -13.5 31.5t-19.5 16.5t-26 5h-11v10h247v-10h-22q-34 0 -47.5 -8.5t-13.5 -28.5q0 -9 2.5 -21t6.5 -27l68 -248q7 -25 13.5 -50t13.5 -49.5t14 -49.5h2q7 26 13 51t12.5 50t13.5 51l88 337h64l113 -342q7 -20 13.5 -39.5t13 -38.5t13 -38.5t12.5 -39.5h2
q7 25 13 50t12.5 50t12.5 50l64 250q4 16 6.5 28.5t2.5 22.5q0 23 -16 31.5t-56 8.5h-35v10h214v-10h-26q-19 0 -33.5 -7t-24.5 -24t-18 -47l-115 -448h-79l-157 475l-124 -475h-75z" />
    <glyph glyph-name="x" unicode="x" horiz-adv-x="578" 
d="M5 0v10h24q20 0 35.5 5.5t30 19.5t31.5 37l132 185l-139 216q-13 20 -25 31.5t-25.5 16.5t-31.5 5h-13v10h254v-10h-7q-30 0 -43.5 -5.5t-13.5 -18.5q0 -9 6.5 -21.5t16.5 -29.5l84 -129l81 114q15 21 23 37t8 26q0 15 -15.5 21t-47.5 6h-43v10h219v-10h-14
q-20 0 -35.5 -5.5t-30 -19t-31.5 -37.5l-108 -151l163 -249q14 -20 25 -32t23 -17t27 -5h8v-10h-258v10h10q35 0 50 6.5t15 19.5q0 12 -10.5 31t-27.5 45l-88 135l-105 -147q-16 -22 -23.5 -37t-7.5 -26q0 -15 15.5 -21t47.5 -6h52v-10h-238z" />
    <glyph glyph-name="y" unicode="y" horiz-adv-x="565" 
d="M38 -230q71 0 114 10.5t68.5 33t43 58t36.5 84.5l-219 515q-9 22 -17.5 33.5t-17.5 16.5t-22 5h-20v10h240v-10h-3q-28 0 -44.5 -8.5t-16.5 -30.5q0 -9 3 -20.5t9 -25.5l86 -209q8 -18 16 -39t16 -43t15 -42t13 -37q13 39 25 74.5t20 60.5l73 229q5 14 7 25t2 20
q0 23 -15.5 34.5t-50.5 11.5h-42v10h208v-10h-8q-24 0 -39.5 -6t-25.5 -23t-21 -49l-146 -452q-23 -72 -45 -118t-51 -72t-72.5 -36t-109.5 -10h-9v10z" />
    <glyph glyph-name="z" unicode="z" horiz-adv-x="511" 
d="M42 0v10l302 511h-156q-41 0 -65.5 -10t-37 -33.5t-17.5 -64.5l-2 -19h-10l10 142h383v-10l-302 -511h176q42 0 66.5 11.5t37 38.5t16.5 73l2 24h10l-6 -162h-407z" />
    <glyph glyph-name="braceleft" unicode="{" horiz-adv-x="428" 
d="M312 -128q-70 0 -107 39t-37 105v184q0 44 -15.5 67.5t-42.5 33.5t-60 11v10q33 1 60 10.5t42.5 32t15.5 62.5v190q0 68 37 105.5t107 37.5h66v-10h-30q-44 0 -63 -26.5t-19 -78.5v-204q0 -32 -13 -58t-42 -42.5t-76 -22.5v-1q48 -6 76.5 -23t41.5 -42.5t13 -58.5v-206
q0 -51 19 -78t63 -27h30v-10h-66z" />
    <glyph glyph-name="bar" unicode="|" horiz-adv-x="559" 
d="M259 -240v1000h40v-1000h-40z" />
    <glyph glyph-name="braceright" unicode="}" horiz-adv-x="428" 
d="M50 -128v10h30q44 0 63 27t19 78v206q0 33 12.5 58.5t41.5 42.5t77 23v1q-47 6 -76 22.5t-42 42.5t-13 58v204q0 52 -19 78.5t-63 26.5h-30v10h66q71 0 107.5 -37.5t36.5 -105.5v-190q0 -40 16 -62.5t42.5 -32t59.5 -10.5v-10q-33 -1 -59.5 -11t-42.5 -33.5t-16 -67.5
v-184q0 -66 -36.5 -105t-107.5 -39h-66z" />
    <glyph glyph-name="asciitilde" unicode="~" horiz-adv-x="559" 
d="M64 277q5 23 10.5 50t16.5 52t30 41t49 16q35 0 62 -20.5t52 -46.5q26 -26 50.5 -49t54.5 -23t46 22.5t24.5 55t15.5 61.5h19q-3 -18 -9 -45t-17.5 -53t-31 -43.5t-49.5 -17.5q-37 0 -65 26t-54 54q-15 17 -30 30t-31 21t-36 8q-28 0 -44 -17.5t-25.5 -49t-17.5 -72.5
h-20z" />
    <glyph glyph-name="uni00A0" unicode="&#xa0;" horiz-adv-x="225" 
 />
    <glyph glyph-name="exclamdown" unicode="&#xa1;" horiz-adv-x="333" 
d="M108 -180l50 514h15l51 -514h-116zM166 406q-27 0 -40.5 17t-13.5 51t13.5 51t40.5 17t40.5 -17t13.5 -51t-13.5 -51t-40.5 -17z" />
    <glyph glyph-name="cent" unicode="&#xa2;" horiz-adv-x="559" 
d="M305 86q-66 2 -117 30.5t-80 89.5t-29 160q0 102 31 162t82.5 86.5t112.5 27.5v72h10v-72q51 0 92 -11t65 -34t24 -59q0 -22 -10.5 -35.5t-30 -19.5t-48.5 -6q0 53 -9.5 86.5t-29.5 50.5t-53 18v-536q47 0 76.5 11t48 38.5t30.5 75.5q10 -2 15.5 -10t5.5 -22
q0 -24 -18 -47.5t-57 -39.5t-101 -16v-86h-10v86zM305 632q-45 -1 -73.5 -29.5t-42 -87t-13.5 -150.5q0 -89 13 -146.5t41.5 -86.5t74.5 -35v535z" />
    <glyph glyph-name="sterling" unicode="&#xa3;" horiz-adv-x="559" 
d="M406 -10q-25 0 -44.5 9.5t-37.5 21.5q-23 16 -47.5 30t-58.5 14q-42 0 -78 -21t-62 -39l-14 -10l-6 8l18 13q18 13 44 41t45.5 70t19.5 96q0 37 -9 69.5t-22 63.5h-105v10h101q-16 41 -31.5 83.5t-15.5 92.5q0 86 54 134t157 48q58 0 95.5 -14.5t56 -39t18.5 -55.5
q0 -35 -21.5 -51.5t-57.5 -16.5q0 57 -11.5 94t-36 55t-63.5 18q-55 0 -82.5 -37t-27.5 -107q0 -41 8 -76t20.5 -66.5t23.5 -61.5h164v-10h-160q6 -17 11 -34.5t8 -35t3 -36.5q0 -33 -11.5 -62.5t-36 -58.5t-65.5 -61l1 -2q19 14 53.5 33.5t76.5 19.5q32 0 55 -12t41 -25
q23 -16 43 -29t41 -13q22 0 38 13.5t32 38.5l8 -6q-9 -15 -27 -38t-44 -40.5t-61 -17.5z" />
    <glyph glyph-name="currency" unicode="&#xa4;" horiz-adv-x="559" 
d="M106 143l-42 42l65 66q-16 23 -24.5 50t-8.5 57t9 57.5t25 49.5l-66 66l42 42l65 -66q23 17 50 26t58 9q29 0 56.5 -9t49.5 -26l67 67l42 -43l-66 -66q17 -22 26 -49.5t9 -57.5t-9 -57t-26 -50l66 -66l-41 -42l-67 66q-22 -16 -49.5 -25t-57.5 -9t-57 9t-50 25zM279 230
q36 0 65 17.5t46 46.5t17 64q0 36 -17 65.5t-46 46.5t-65 17q-35 0 -64 -17t-46 -46.5t-17 -65.5q0 -35 17 -64t46 -46.5t64 -17.5z" />
    <glyph glyph-name="yen" unicode="&#xa5;" horiz-adv-x="559" 
d="M129 0v10h23q27 0 45.5 8t27.5 24t9 40v114h-150v10h150v103h-150v10h148l-169 332q-15 30 -26.5 41.5t-25.5 11.5h-6v10h243v-10h-36q-23 0 -34.5 -6t-11.5 -21q0 -10 5.5 -24t14.5 -34l78 -165q11 -22 19.5 -40.5t16 -34t13.5 -29.5t12 -26q5 14 10.5 28t21.5 52
l82 197q9 21 13.5 37t4.5 27q0 22 -15.5 30.5t-48.5 8.5h-43v10h204v-10h-12q-28 0 -46 -17t-36 -61l-127 -307h148v-10h-150v-103h150v-10h-150v-114q0 -24 9 -40t27.5 -24t45.5 -8h23v-10h-307z" />
    <glyph glyph-name="brokenbar" unicode="&#xa6;" horiz-adv-x="559" 
d="M269 360v400h20v-400h-20zM269 -240v400h20v-400h-20z" />
    <glyph glyph-name="section" unicode="&#xa7;" horiz-adv-x="544" 
d="M276 -114q-38 0 -70 7.5t-55.5 22t-36.5 36t-13 49.5t11 43t25.5 21.5t26.5 6.5q0 -86 28 -131t95 -45q37 0 65 14t43.5 41t15.5 67q0 39 -16.5 63.5t-54.5 47.5t-101 55q-34 17 -63 35t-51 39.5t-34.5 47.5t-12.5 60q0 40 17.5 68t48.5 46q-21 23 -32.5 51.5t-11.5 65.5
q0 80 49 121.5t132 41.5q51 0 88 -14.5t57.5 -40t20.5 -58.5q0 -31 -19.5 -45.5t-51.5 -14.5q0 77 -23.5 120t-81.5 43q-30 0 -54 -12t-38.5 -37t-14.5 -64q0 -40 17.5 -65.5t54.5 -47t94 -49.5q46 -22 82.5 -45.5t58.5 -55.5t22 -79q0 -44 -19 -73t-48 -48q18 -21 28 -48
t10 -65q0 -50 -19.5 -89.5t-61 -62.5t-107.5 -23zM416 184q11 14 16 30.5t5 35.5t-7 38t-29.5 39t-68.5 41q-58 28 -104 52t-76 52q-12 -11 -17.5 -26t-5.5 -33q0 -31 17.5 -53.5t53 -44t88.5 -49.5q27 -14 50.5 -27t43 -26t34.5 -29z" />
    <glyph glyph-name="dieresis" unicode="&#xa8;" horiz-adv-x="577" 
d="M383 632q-19 0 -31.5 12.5t-12.5 43.5q0 32 12.5 44t31.5 12q18 0 31 -12t13 -44q0 -31 -13 -43.5t-31 -12.5zM193 632q-19 0 -31.5 12.5t-12.5 43.5q0 32 12.5 44t31.5 12q18 0 31 -12t13 -44q0 -31 -13 -43.5t-31 -12.5z" />
    <glyph glyph-name="copyright" unicode="&#xa9;" horiz-adv-x="845" 
d="M422 -10q-80 0 -147 27t-116.5 76.5t-76.5 117t-27 147.5t27 147t76 116t116.5 76.5t147.5 27.5t147.5 -27t117 -76.5t76.5 -117t27 -147.5t-27 -147t-76.5 -116.5t-117 -76.5t-147.5 -27zM424 129q-68 0 -114 28.5t-69 80t-23 120.5q0 71 25.5 121.5t74.5 78t121 27.5
q40 0 71.5 -8.5t50 -24.5t18.5 -38q0 -24 -20.5 -37t-49.5 -13q0 38 -9.5 62.5t-29 36t-50.5 11.5q-42 0 -68 -22.5t-38 -70.5t-12 -123q0 -76 15.5 -124.5t46 -71.5t73.5 -23q47 0 80 26.5t46 77.5q8 -3 12.5 -10.5t4.5 -17.5q0 -21 -20 -40.5t-55 -32.5t-81 -13zM424 0
q77 0 141.5 26.5t112 75t74 113.5t26.5 143q0 77 -26.5 142.5t-74 113.5t-112.5 74.5t-143 26.5q-77 0 -142 -26.5t-112.5 -74.5t-74 -113t-26.5 -143q0 -79 27 -145t76 -113.5t114 -73.5t140 -26z" />
    <glyph glyph-name="ordfeminine" unicode="&#xaa;" horiz-adv-x="382" 
d="M136 380q-46 0 -73.5 24t-27.5 67q0 50 40 74t121 28l43 2v39q0 54 -10.5 74.5t-38.5 20.5t-38.5 -20.5t-10.5 -74.5q-37 0 -58 10t-21 34q0 22 17.5 35.5t47 19.5t64.5 6q66 0 98.5 -24.5t32.5 -83.5v-176q0 -22 9.5 -30.5t33.5 -8.5v-10h-120v69h-2q-13 -37 -39.5 -56
t-67.5 -19zM173 405q20 0 34.5 12.5t23 33t8.5 43.5v70l-31 -1q-49 -1 -67.5 -23.5t-18.5 -59.5q0 -36 14 -55.5t37 -19.5z" />
    <glyph glyph-name="guillemotleft" unicode="&#xab;" horiz-adv-x="514" 
d="M434 80l-188 185v10l188 185h15l-111 -190l111 -190h-15zM253 80l-188 185v10l188 185h15l-111 -190l111 -190h-15z" />
    <glyph glyph-name="logicalnot" unicode="&#xac;" horiz-adv-x="559" 
d="M467 120v235h-405v20h425v-255h-20z" />
    <glyph glyph-name="uni00AD" unicode="&#xad;" horiz-adv-x="310" 
d="M25 263v20h260v-20h-260z" />
    <glyph glyph-name="registered" unicode="&#xae;" horiz-adv-x="845" 
d="M422 -10q-80 0 -147 27t-116.5 76.5t-76.5 117t-27 147.5t27 147t76 116t116.5 76.5t147.5 27.5t147.5 -27t117 -76.5t76.5 -117t27 -147.5t-27 -147t-76.5 -116.5t-117 -76.5t-147.5 -27zM424 0q77 0 141.5 26.5t112 75t74 113.5t26.5 143q0 77 -26.5 142.5t-74 113.5
t-112.5 74.5t-143 26.5q-77 0 -142 -26.5t-112.5 -74.5t-74 -113t-26.5 -143q0 -79 27 -145t76 -113.5t114 -73.5t140 -26zM230 141v10h13q20 0 34.5 6t14.5 29v342q0 23 -14.5 29t-34.5 6h-13v10h183q86 0 129 -30t43 -87q0 -33 -13 -55t-34.5 -35.5t-48.5 -21.5l97 -156
q14 -21 25.5 -29t27.5 -8v-10h-109l-119 201h-41v-156q0 -23 15 -29t34 -6h14v-10h-203zM412 352q51 0 72.5 24.5t21.5 81.5t-22 81t-75 24h-39v-211h42z" />
    <glyph glyph-name="overscore" unicode="&#xaf;" horiz-adv-x="459" 
d="M-5 780v20h469v-20h-469z" />
    <glyph glyph-name="degree" unicode="&#xb0;" horiz-adv-x="400" 
d="M199 423q-67 0 -109 42t-42 109t42 109.5t109 42.5q68 0 110 -42.5t42 -109.5t-42 -109t-110 -42zM200 443q57 0 93 36t36 95q0 60 -36.5 96t-92.5 36t-93 -36t-37 -96q0 -59 36.5 -95t93.5 -36z" />
    <glyph glyph-name="plusminus" unicode="&#xb1;" horiz-adv-x="559" 
d="M65 19v20h429v-20h-429zM269 143v204h-204v20h204v205h20v-205h205v-20h-205v-204h-20z" />
    <glyph glyph-name="uni00B2" unicode="&#xb2;" horiz-adv-x="400" 
d="M42 387v45l121 110q31 29 49.5 55.5t26.5 55t8 62.5q0 32 -5.5 54.5t-19 34t-36.5 11.5q-22 0 -36 -11.5t-21 -37.5t-7 -68q-34 0 -53 11t-19 38q0 24 15.5 41.5t46.5 27t76 9.5q74 0 111.5 -28.5t37.5 -83.5q0 -25 -10 -46.5t-33.5 -45t-65.5 -55.5l-153 -116h203
q32 0 45 11t15 39l1 12h10l-5 -125h-302z" />
    <glyph glyph-name="uni00B3" unicode="&#xb3;" horiz-adv-x="400" 
d="M177 380q-67 0 -102 22.5t-35 58.5q0 23 13.5 36.5t34.5 13.5q0 -64 20 -92.5t66 -28.5q44 0 65 25t21 80q0 60 -25 87t-81 27h-33v10h33q47 0 68 26.5t21 82.5q0 46 -15 66t-45 20q-34 0 -48.5 -27.5t-14.5 -89.5q-34 0 -54 8.5t-20 35.5q0 24 16 42.5t47 29.5t76 11
q68 0 108.5 -27.5t40.5 -74.5q0 -43 -33 -72t-89 -34v-2q62 -5 100.5 -31t38.5 -81q0 -49 -27.5 -75.5t-67.5 -36.5t-79 -10z" />
    <glyph glyph-name="acute" unicode="&#xb4;" horiz-adv-x="254" 
d="M40 616q14 22 29.5 48t30 53t24.5 49h90v-10q-11 -13 -30.5 -32t-43 -40.5t-47 -42t-43.5 -35.5h-10v10z" />
    <glyph glyph-name="uni00B5" unicode="&#xb5;" horiz-adv-x="615" 
d="M164 -240q-21 0 -38.5 9.5t-28.5 37t-11 82.5q0 23 2 54.5t4 73.5t4 93.5t2 114.5v311h94v-336q0 -68 9.5 -111t31.5 -63.5t58 -20.5q39 0 66.5 22.5t41.5 69t14 119.5v320h94v-439q0 -48 14 -67.5t49 -19.5h3v-10h-54q-48 0 -73.5 26.5t-31.5 81.5h-2q-15 -61 -48 -89.5
t-94 -28.5q-42 0 -75.5 14t-56 42.5t-32.5 72.5q0 -59 4 -103t13.5 -75t24.5 -50.5t37 -30t52 -13.5q0 -37 -15 -62t-58 -25z" />
    <glyph glyph-name="paragraph" unicode="&#xb6;" horiz-adv-x="617" 
d="M169 -111v10h13q23 0 41.5 5t29.5 20.5t11 46.5v415h-71q-58 0 -91.5 27.5t-47.5 72t-14 96.5q0 54 15 94t49.5 62t90.5 22h381v-10h-13q-22 0 -41 -5t-30 -20t-11 -47v-707q0 -31 11 -46.5t30 -20.5t41 -5h13v-10h-156v861h-95v-861h-156z" />
    <glyph glyph-name="periodcentered" unicode="&#xb7;" horiz-adv-x="250" 
d="M125 288q-27 0 -40.5 17t-13.5 51t13.5 51t40.5 17t40.5 -17t13.5 -51t-13.5 -51t-40.5 -17z" />
    <glyph glyph-name="cedilla" unicode="&#xb8;" horiz-adv-x="333" 
d="M138 -240q-26 0 -44.5 3.5t-33.5 7.5v11q14 -4 27 -6t26 -2q40 0 58 21.5t18 67.5q0 23 -5.5 39.5t-16.5 26.5t-30 12l14 59h10l-11 -50q56 -4 87.5 -26t31.5 -64q0 -43 -31 -71.5t-100 -28.5z" />
    <glyph glyph-name="uni00B9" unicode="&#xb9;" horiz-adv-x="400" 
d="M62 387v10h55q17 0 29 6.5t12 31.5v331q-20 -23 -32.5 -37t-22.5 -20t-23 -6q-19 0 -28.5 11.5t-9.5 29.5q29 1 48.5 4t35 10t30.5 19l52 42h40v-384q0 -25 12.5 -31.5t29.5 -6.5h46v-10h-274z" />
    <glyph glyph-name="ordmasculine" unicode="&#xba;" horiz-adv-x="397" 
d="M198 380q-77 0 -120 42.5t-43 127.5q0 86 41.5 127.5t123.5 41.5q75 0 118.5 -41.5t43.5 -127.5q0 -85 -42 -127.5t-122 -42.5zM199 390q43 0 60 36t17 124q0 89 -17 124t-61 35q-42 0 -59 -35t-17 -124q0 -88 17 -124t60 -36z" />
    <glyph glyph-name="guillemotright" unicode="&#xbb;" horiz-adv-x="514" 
d="M246 80l111 190l-111 190h15l188 -185v-10l-188 -185h-15zM65 80l111 190l-111 190h15l188 -185v-10l-188 -185h-15z" />
    <glyph glyph-name="onequarter" unicode="&#xbc;" horiz-adv-x="840" 
d="M30 287v10h55q17 0 29 6.5t12 31.5v331q-20 -23 -32.5 -37t-22.5 -20t-23 -6q-19 0 -28.5 11.5t-9.5 29.5q29 1 48.5 4t35 10t30.5 19l52 42h40v-384q0 -25 12.5 -31.5t29.5 -6.5h46v-10h-274zM237 0l357 714h11l-357 -714h-11zM563 0v10h28q17 0 29 6.5t12 31.5v79h-178
v30l187 275h80v-262h96v-43h-96v-79q0 -25 13 -31.5t29 -6.5h20v-10h-220zM475 170h157v173v20.5t0.5 20t1.5 23.5q-4 -9 -13.5 -23t-25.5 -37z" />
    <glyph glyph-name="onehalf" unicode="&#xbd;" horiz-adv-x="840" 
d="M30 287v10h55q17 0 29 6.5t12 31.5v331q-20 -23 -32.5 -37t-22.5 -20t-23 -6q-19 0 -28.5 11.5t-9.5 29.5q29 1 48.5 4t35 10t30.5 19l52 42h40v-384q0 -25 12.5 -31.5t29.5 -6.5h46v-10h-274zM217 0l357 714h11l-357 -714h-11zM496 0v45l121 110q31 29 49.5 55.5
t26.5 55t8 62.5q0 32 -5.5 54.5t-19 34t-36.5 11.5q-22 0 -36 -11.5t-21 -37.5t-7 -68q-34 0 -53 11t-19 38q0 24 15.5 41.5t46.5 27t76 9.5q74 0 111.5 -28.5t37.5 -83.5q0 -25 -10 -46.5t-33.5 -45t-65.5 -55.5l-153 -116h203q32 0 45 11t15 39l1 12h10l-5 -125h-302z" />
    <glyph glyph-name="threequarters" unicode="&#xbe;" horiz-adv-x="840" 
d="M177 280q-67 0 -102 22.5t-35 58.5q0 23 13.5 36.5t34.5 13.5q0 -64 20 -92.5t66 -28.5q44 0 65 25t21 80q0 60 -25 87t-81 27h-33v10h33q47 0 68 26.5t21 82.5q0 46 -15 66t-45 20q-34 0 -48.5 -27.5t-14.5 -89.5q-34 0 -54 8.5t-20 35.5q0 24 16 42.5t47 29.5t76 11
q68 0 108.5 -27.5t40.5 -74.5q0 -43 -33 -72t-89 -34v-2q62 -5 100.5 -31t38.5 -81q0 -49 -27.5 -75.5t-67.5 -36.5t-79 -10zM257 0l357 714h11l-357 -714h-11zM563 0v10h28q17 0 29 6.5t12 31.5v79h-178v30l187 275h80v-262h96v-43h-96v-79q0 -25 13 -31.5t29 -6.5h20v-10
h-220zM475 170h157v173v20.5t0.5 20t1.5 23.5q-4 -9 -13.5 -23t-25.5 -37z" />
    <glyph glyph-name="questiondown" unicode="&#xbf;" horiz-adv-x="500" 
d="M298 196q-51 -5 -83 -25.5t-47 -62.5t-15 -109q0 -61 11.5 -101t36 -60t64.5 -20q37 0 61 17.5t36 54t12 95.5q36 0 59.5 -17.5t23.5 -51.5q0 -31 -22 -55.5t-64 -38.5t-100 -14q-104 0 -162 47t-58 136q0 78 49.5 129.5t152.5 77.5l15 133h15zM277 539q27 0 40.5 -17
t13.5 -51t-13.5 -51t-40.5 -17t-40.5 17t-13.5 51t13.5 51t40.5 17z" />
    <glyph glyph-name="Agrave" unicode="&#xc0;" horiz-adv-x="705" 
d="M0 0v10h29q22 0 37 7t26 24t21 47l218 626h51l251 -651q8 -20 16 -31.5t18.5 -16.5t24.5 -5h13v-10h-275v10h23q38 0 55 9t17 32q0 6 -1 12.5t-2.5 14.5t-5.5 17l-61 164h-271l-55 -157q-3 -8 -5 -16t-3 -14.5t-1 -12.5q0 -27 24 -38t77 -11h23v-10h-244zM187 269h264
l-73 195q-13 34 -24 65t-20.5 59.5t-17.5 55.5q-7 -22 -13 -40.5t-12 -36.5t-13.5 -38.5t-16.5 -47.5zM372 771q-19 15 -43 35.5t-47.5 42t-43 40.5t-30.5 32v10h90q11 -22 25 -49t29.5 -53t29.5 -48v-10h-10z" />
    <glyph glyph-name="Aacute" unicode="&#xc1;" horiz-adv-x="705" 
d="M0 0v10h29q22 0 37 7t26 24t21 47l218 626h51l251 -651q8 -20 16 -31.5t18.5 -16.5t24.5 -5h13v-10h-275v10h23q38 0 55 9t17 32q0 6 -1 12.5t-2.5 14.5t-5.5 17l-61 164h-271l-55 -157q-3 -8 -5 -16t-3 -14.5t-1 -12.5q0 -27 24 -38t77 -11h23v-10h-244zM187 269h264
l-73 195q-13 34 -24 65t-20.5 59.5t-17.5 55.5q-7 -22 -13 -40.5t-12 -36.5t-13.5 -38.5t-16.5 -47.5zM324 781q14 22 29.5 48t30 53t24.5 49h90v-10q-11 -13 -30.5 -32t-43 -40.5t-47 -42t-43.5 -35.5h-10v10z" />
    <glyph glyph-name="Acircumflex" unicode="&#xc2;" horiz-adv-x="705" 
d="M0 0v10h29q22 0 37 7t26 24t21 47l218 626h51l251 -651q8 -20 16 -31.5t18.5 -16.5t24.5 -5h13v-10h-275v10h23q38 0 55 9t17 32q0 6 -1 12.5t-2.5 14.5t-5.5 17l-61 164h-271l-55 -157q-3 -8 -5 -16t-3 -14.5t-1 -12.5q0 -27 24 -38t77 -11h23v-10h-244zM187 269h264
l-73 195q-13 34 -24 65t-20.5 59.5t-17.5 55.5q-7 -22 -13 -40.5t-12 -36.5t-13.5 -38.5t-16.5 -47.5zM206 781q20 22 40 48t38.5 53t31.5 49h75q13 -22 31.5 -49t39 -53t39.5 -48v-10h-10q-19 11 -45.5 28.5t-51.5 36.5t-40 35q-15 -16 -40.5 -35t-52 -36.5t-45.5 -28.5
h-10v10z" />
    <glyph glyph-name="Atilde" unicode="&#xc3;" horiz-adv-x="705" 
d="M0 0v10h29q22 0 37 7t26 24t21 47l218 626h51l251 -651q8 -20 16 -31.5t18.5 -16.5t24.5 -5h13v-10h-275v10h23q38 0 55 9t17 32q0 6 -1 12.5t-2.5 14.5t-5.5 17l-61 164h-271l-55 -157q-3 -8 -5 -16t-3 -14.5t-1 -12.5q0 -27 24 -38t77 -11h23v-10h-244zM187 269h264
l-73 195q-13 34 -24 65t-20.5 59.5t-17.5 55.5q-7 -22 -13 -40.5t-12 -36.5t-13.5 -38.5t-16.5 -47.5zM435 771q-25 0 -49 9.5t-47.5 22t-47.5 22t-51 9.5q-33 0 -41.5 -16.5t-13.5 -36.5h-10q3 30 13 57t30.5 44t52.5 17q26 0 49.5 -9.5t47 -22t48 -22t50.5 -9.5
q31 0 41 15.5t14 37.5h10q-3 -28 -13 -55.5t-30 -45t-53 -17.5z" />
    <glyph glyph-name="Adieresis" unicode="&#xc4;" horiz-adv-x="705" 
d="M0 0v10h29q22 0 37 7t26 24t21 47l218 626h51l251 -651q8 -20 16 -31.5t18.5 -16.5t24.5 -5h13v-10h-275v10h23q38 0 55 9t17 32q0 6 -1 12.5t-2.5 14.5t-5.5 17l-61 164h-271l-55 -157q-3 -8 -5 -16t-3 -14.5t-1 -12.5q0 -27 24 -38t77 -11h23v-10h-244zM187 269h264
l-73 195q-13 34 -24 65t-20.5 59.5t-17.5 55.5q-7 -22 -13 -40.5t-12 -36.5t-13.5 -38.5t-16.5 -47.5zM448 797q-19 0 -31.5 12.5t-12.5 43.5q0 32 12.5 44t31.5 12q18 0 31 -12t13 -44q0 -31 -13 -43.5t-31 -12.5zM258 797q-19 0 -31.5 12.5t-12.5 43.5q0 32 12.5 44
t31.5 12q18 0 31 -12t13 -44q0 -31 -13 -43.5t-31 -12.5z" />
    <glyph glyph-name="Aring" unicode="&#xc5;" horiz-adv-x="705" 
d="M0 0v10h29q22 0 37 7.5t26.5 24.5t21.5 47l202 580q-38 9 -60 36.5t-22 68.5q0 53 35 81t85 28t85 -28t35 -81q0 -40 -20 -66.5t-55 -36.5l234 -608q8 -20 16 -31.5t18.5 -16.5t24.5 -5h13v-10h-275v10h23q38 0 55 9t17 32q0 6 -1 12.5t-2.5 14.5t-5.5 17l-61 164h-271
l-55 -157q-3 -8 -5 -16t-3 -14.5t-1 -12.5q0 -27 24 -38t77 -11h23v-10h-244zM187 269h264l-73 195q-13 34 -24 65t-20.5 59.5t-17.5 55.5q-9 -29 -17 -52.5t-16.5 -49t-21.5 -61.5zM354 675q44 0 76 23t32 76t-32 76t-76 23t-76 -23t-32 -76t32 -76t76 -23z" />
    <glyph glyph-name="AE" unicode="&#xc6;" horiz-adv-x="951" 
d="M0 0v10h26q19 0 33 7.5t27.5 24.5t28.5 46l332 616h-131v10h553l6 -175h-10l-2 33q-3 50 -17 79t-43.5 41t-80.5 12h-160v-325h251v-10h-251v-359h185q54 0 86 12t46.5 41t17.5 79l2 33h10l-7 -175h-536v10h13q31 0 49 6t25.5 21t7.5 40v182h-242l-84 -156
q-10 -19 -14.5 -33.5t-4.5 -25.5q0 -19 15.5 -26.5t47.5 -7.5h64v-10h-243zM224 269h237v435h-2z" />
    <glyph glyph-name="Ccedilla" unicode="&#xc7;" horiz-adv-x="614" 
d="M367 -10q-103 0 -172 46t-103.5 128t-34.5 191q0 110 35 193t106.5 129.5t180.5 46.5q65 0 109.5 -16t68 -42t23.5 -57q0 -34 -25 -50.5t-62 -16.5q0 62 -13 99.5t-41 54.5t-73 17q-70 0 -114 -40t-64 -118.5t-20 -194.5q0 -120 21.5 -200t68 -120t121.5 -40
q68 0 109.5 34.5t62.5 111.5q13 -5 19 -14.5t6 -23.5q0 -19 -13 -39.5t-39 -38.5t-65 -29t-92 -11zM330 -240q-26 0 -44.5 3.5t-33.5 7.5v11q14 -4 27 -6t26 -2q40 0 58 21.5t18 67.5q0 23 -5.5 39.5t-16.5 26.5t-30 12l14 59h10l-11 -50q56 -4 87.5 -26t31.5 -64
q0 -43 -31 -71.5t-100 -28.5z" />
    <glyph glyph-name="Egrave" unicode="&#xc8;" horiz-adv-x="623" 
d="M38 0v10h13q27 0 45.5 8t27.5 24t9 40v554q0 23 -9 38t-27.5 22.5t-45.5 7.5h-13v10h503l6 -175h-10l-2 33q-3 50 -17 79t-43.5 41t-80.5 12h-160v-325h251v-10h-251v-359h185q54 0 86 12t46.5 41t17.5 79l2 33h10l-7 -175h-536zM341 771q-19 15 -43 35.5t-47.5 42
t-43 40.5t-30.5 32v10h90q11 -22 25 -49t29.5 -53t29.5 -48v-10h-10z" />
    <glyph glyph-name="Eacute" unicode="&#xc9;" horiz-adv-x="623" 
d="M38 0v10h13q27 0 45.5 8t27.5 24t9 40v554q0 23 -9 38t-27.5 22.5t-45.5 7.5h-13v10h503l6 -175h-10l-2 33q-3 50 -17 79t-43.5 41t-80.5 12h-160v-325h251v-10h-251v-359h185q54 0 86 12t46.5 41t17.5 79l2 33h10l-7 -175h-536zM279 781q14 22 29.5 48t30 53t24.5 49h90
v-10q-11 -13 -30.5 -32t-43 -40.5t-47 -42t-43.5 -35.5h-10v10z" />
    <glyph glyph-name="Ecircumflex" unicode="&#xca;" horiz-adv-x="623" 
d="M38 0v10h13q27 0 45.5 8t27.5 24t9 40v554q0 23 -9 38t-27.5 22.5t-45.5 7.5h-13v10h503l6 -175h-10l-2 33q-3 50 -17 79t-43.5 41t-80.5 12h-160v-325h251v-10h-251v-359h185q54 0 86 12t46.5 41t17.5 79l2 33h10l-7 -175h-536zM171 781q20 22 40 48t38.5 53t31.5 49h75
q13 -22 31.5 -49t39 -53t39.5 -48v-10h-10q-19 11 -45.5 28.5t-51.5 36.5t-40 35q-15 -16 -40.5 -35t-52 -36.5t-45.5 -28.5h-10v10z" />
    <glyph glyph-name="Edieresis" unicode="&#xcb;" horiz-adv-x="623" 
d="M38 0v10h13q27 0 45.5 8t27.5 24t9 40v554q0 23 -9 38t-27.5 22.5t-45.5 7.5h-13v10h503l6 -175h-10l-2 33q-3 50 -17 79t-43.5 41t-80.5 12h-160v-325h251v-10h-251v-359h185q54 0 86 12t46.5 41t17.5 79l2 33h10l-7 -175h-536zM408 797q-19 0 -31.5 12.5t-12.5 43.5
q0 32 12.5 44t31.5 12q18 0 31 -12t13 -44q0 -31 -13 -43.5t-31 -12.5zM218 797q-19 0 -31.5 12.5t-12.5 43.5q0 32 12.5 44t31.5 12q18 0 31 -12t13 -44q0 -31 -13 -43.5t-31 -12.5z" />
    <glyph glyph-name="Igrave" unicode="&#xcc;" horiz-adv-x="367" 
d="M38 0v10h13q27 0 45.5 8t27.5 24t9 40v554q0 23 -9 38t-27.5 22.5t-45.5 7.5h-13v10h291v-10h-13q-27 0 -45.5 -8t-27.5 -24t-9 -40v-550q0 -24 9 -40t27.5 -24t45.5 -8h13v-10h-291zM209 771q-19 15 -43 35.5t-47.5 42t-43 40.5t-30.5 32v10h90q11 -22 25 -49t29.5 -53
t29.5 -48v-10h-10z" />
    <glyph glyph-name="Iacute" unicode="&#xcd;" horiz-adv-x="367" 
d="M38 0v10h13q27 0 45.5 8t27.5 24t9 40v554q0 23 -9 38t-27.5 22.5t-45.5 7.5h-13v10h291v-10h-13q-27 0 -45.5 -8t-27.5 -24t-9 -40v-550q0 -24 9 -40t27.5 -24t45.5 -8h13v-10h-291zM145 781q14 22 29.5 48t30 53t24.5 49h90v-10q-11 -13 -30.5 -32t-43 -40.5t-47 -42
t-43.5 -35.5h-10v10z" />
    <glyph glyph-name="Icircumflex" unicode="&#xce;" horiz-adv-x="367" 
d="M38 0v10h13q27 0 45.5 8t27.5 24t9 40v554q0 23 -9 38t-27.5 22.5t-45.5 7.5h-13v10h291v-10h-13q-27 0 -45.5 -8t-27.5 -24t-9 -40v-550q0 -24 9 -40t27.5 -24t45.5 -8h13v-10h-291zM35 781q20 22 40 48t38.5 53t31.5 49h75q13 -22 31.5 -49t39 -53t39.5 -48v-10h-10
q-19 11 -45.5 28.5t-51.5 36.5t-40 35q-15 -16 -40.5 -35t-52 -36.5t-45.5 -28.5h-10v10z" />
    <glyph glyph-name="Idieresis" unicode="&#xcf;" horiz-adv-x="367" 
d="M38 0v10h13q27 0 45.5 8t27.5 24t9 40v554q0 23 -9 38t-27.5 22.5t-45.5 7.5h-13v10h291v-10h-13q-27 0 -45.5 -8t-27.5 -24t-9 -40v-550q0 -24 9 -40t27.5 -24t45.5 -8h13v-10h-291zM276 797q-19 0 -31.5 12.5t-12.5 43.5q0 32 12.5 44t31.5 12q18 0 31 -12t13 -44
q0 -31 -13 -43.5t-31 -12.5zM86 797q-19 0 -31.5 12.5t-12.5 43.5q0 32 12.5 44t31.5 12q18 0 31 -12t13 -44q0 -31 -13 -43.5t-31 -12.5z" />
    <glyph glyph-name="Eth" unicode="&#xd0;" horiz-adv-x="727" 
d="M38 0v10h13q27 0 45.5 8t27.5 24t9 40v287h-95v10h95v257q0 23 -9 38t-27.5 22.5t-45.5 7.5h-13v10h306q103 0 176 -41.5t111.5 -121t38.5 -193.5q0 -109 -36.5 -189.5t-108.5 -124.5t-181 -44h-306zM321 10q84 0 136.5 36t77 113t24.5 199q0 121 -24.5 197.5t-77 112.5
t-135.5 36h-88v-325h170v-10h-170v-359h87z" />
    <glyph glyph-name="Ntilde" unicode="&#xd1;" horiz-adv-x="763" 
d="M38 0v10h29q27 0 45.5 8t27.5 24t9 40v554q0 23 -9 38t-27.5 22.5t-45.5 7.5h-29v10h195l381 -571v489q0 24 -9 40t-27 24t-46 8h-28v10h231v-10h-29q-27 0 -45 -8t-27.5 -24t-9.5 -40v-632h-30l-435 652v-570q0 -24 9 -40t27.5 -24t45.5 -8h28v-10h-231zM476 771
q-25 0 -49 9.5t-47.5 22t-47.5 22t-51 9.5q-33 0 -41.5 -16.5t-13.5 -36.5h-10q3 30 13 57t30.5 44t52.5 17q26 0 49.5 -9.5t47 -22t48 -22t50.5 -9.5q31 0 41 15.5t14 37.5h10q-3 -28 -13 -55.5t-30 -45t-53 -17.5z" />
    <glyph glyph-name="Ograve" unicode="&#xd2;" horiz-adv-x="742" 
d="M371 -10q-106 0 -176 46t-104.5 129t-34.5 194t34.5 193t105 127.5t176.5 45.5q101 0 170.5 -45.5t106 -128t36.5 -193.5t-36.5 -193.5t-106.5 -128.5t-171 -46zM371 0q53 0 91.5 20.5t63 64t36.5 111.5t12 162t-12 161.5t-36.5 111t-62.5 64t-91 20.5q-54 0 -92.5 -20.5
t-63.5 -64t-37 -111t-12 -161.5t12 -162t36.5 -111.5t63 -64t92.5 -20.5zM399 771q-19 15 -43 35.5t-47.5 42t-43 40.5t-30.5 32v10h90q11 -22 25 -49t29.5 -53t29.5 -48v-10h-10z" />
    <glyph glyph-name="Oacute" unicode="&#xd3;" horiz-adv-x="742" 
d="M371 -10q-106 0 -176 46t-104.5 129t-34.5 194t34.5 193t105 127.5t176.5 45.5q101 0 170.5 -45.5t106 -128t36.5 -193.5t-36.5 -193.5t-106.5 -128.5t-171 -46zM371 0q53 0 91.5 20.5t63 64t36.5 111.5t12 162t-12 161.5t-36.5 111t-62.5 64t-91 20.5q-54 0 -92.5 -20.5
t-63.5 -64t-37 -111t-12 -161.5t12 -162t36.5 -111.5t63 -64t92.5 -20.5zM330 781q14 22 29.5 48t30 53t24.5 49h90v-10q-11 -13 -30.5 -32t-43 -40.5t-47 -42t-43.5 -35.5h-10v10z" />
    <glyph glyph-name="Ocircumflex" unicode="&#xd4;" horiz-adv-x="742" 
d="M371 -10q-106 0 -176 46t-104.5 129t-34.5 194t34.5 193t105 127.5t176.5 45.5q101 0 170.5 -45.5t106 -128t36.5 -193.5t-36.5 -193.5t-106.5 -128.5t-171 -46zM371 0q53 0 91.5 20.5t63 64t36.5 111.5t12 162t-12 161.5t-36.5 111t-62.5 64t-91 20.5q-54 0 -92.5 -20.5
t-63.5 -64t-37 -111t-12 -161.5t12 -162t36.5 -111.5t63 -64t92.5 -20.5zM224 781q20 22 40 48t38.5 53t31.5 49h75q13 -22 31.5 -49t39 -53t39.5 -48v-10h-10q-19 11 -45.5 28.5t-51.5 36.5t-40 35q-15 -16 -40.5 -35t-52 -36.5t-45.5 -28.5h-10v10z" />
    <glyph glyph-name="Otilde" unicode="&#xd5;" horiz-adv-x="742" 
d="M371 -10q-106 0 -176 46t-104.5 129t-34.5 194t34.5 193t105 127.5t176.5 45.5q101 0 170.5 -45.5t106 -128t36.5 -193.5t-36.5 -193.5t-106.5 -128.5t-171 -46zM371 0q53 0 91.5 20.5t63 64t36.5 111.5t12 162t-12 161.5t-36.5 111t-62.5 64t-91 20.5q-54 0 -92.5 -20.5
t-63.5 -64t-37 -111t-12 -161.5t12 -162t36.5 -111.5t63 -64t92.5 -20.5zM446 771q-25 0 -49 9.5t-47.5 22t-47.5 22t-51 9.5q-33 0 -41.5 -16.5t-13.5 -36.5h-10q3 30 13 57t30.5 44t52.5 17q26 0 49.5 -9.5t47 -22t48 -22t50.5 -9.5q31 0 41 15.5t14 37.5h10
q-3 -28 -13 -55.5t-30 -45t-53 -17.5z" />
    <glyph glyph-name="Odieresis" unicode="&#xd6;" horiz-adv-x="742" 
d="M371 -10q-106 0 -176 46t-104.5 129t-34.5 194t34.5 193t105 127.5t176.5 45.5q101 0 170.5 -45.5t106 -128t36.5 -193.5t-36.5 -193.5t-106.5 -128.5t-171 -46zM371 0q53 0 91.5 20.5t63 64t36.5 111.5t12 162t-12 161.5t-36.5 111t-62.5 64t-91 20.5q-54 0 -92.5 -20.5
t-63.5 -64t-37 -111t-12 -161.5t12 -162t36.5 -111.5t63 -64t92.5 -20.5zM463 797q-19 0 -31.5 12.5t-12.5 43.5q0 32 12.5 44t31.5 12q18 0 31 -12t13 -44q0 -31 -13 -43.5t-31 -12.5zM273 797q-19 0 -31.5 12.5t-12.5 43.5q0 32 12.5 44t31.5 12q18 0 31 -12t13 -44
q0 -31 -13 -43.5t-31 -12.5z" />
    <glyph glyph-name="multiply" unicode="&#xd7;" horiz-adv-x="559" 
d="M82 145l-14 14l198 198l-198 198l14 14l198 -198l197 198l14 -14l-198 -198l198 -198l-14 -14l-197 198z" />
    <glyph glyph-name="Oslash" unicode="&#xd8;" horiz-adv-x="742" 
d="M191 39q-68 46 -101.5 128.5t-33.5 191.5q0 111 34.5 193t105 127.5t176.5 45.5q50 0 92.5 -11.5t77.5 -33.5l41 75h11l-44 -81q66 -45 100.5 -126.5t34.5 -189.5q0 -111 -36.5 -193.5t-106.5 -128.5t-171 -46q-52 0 -94.5 11.5t-77.5 32.5l-41 -74h-11zM520 640
q-25 38 -61.5 56.5t-86.5 18.5q-54 0 -92.5 -20.5t-63.5 -64t-37 -111t-12 -161.5t11.5 -161.5t36.5 -111.5zM371 0q53 0 91.5 20.5t63 64t36.5 111.5t12 162t-11.5 162t-36.5 111l-305 -556q25 -38 62.5 -56.5t87.5 -18.5z" />
    <glyph glyph-name="Ugrave" unicode="&#xd9;" horiz-adv-x="717" 
d="M362 -10q-79 0 -135.5 22.5t-86.5 72.5t-30 131v420q0 23 -9 38t-27.5 22.5t-45.5 7.5h-13v10h291v-10h-13q-27 0 -45.5 -8t-27.5 -23.5t-9 -39.5v-423q0 -80 21.5 -125t59.5 -62.5t86 -17.5q68 0 117 24t75.5 69.5t26.5 107.5v430q0 23 -9 38t-27.5 22.5t-45.5 7.5h-13
v10h200v-10h-13q-27 0 -45.5 -8t-27.5 -24t-9 -40v-428q0 -66 -28 -114t-82.5 -74t-134.5 -26zM395 771q-19 15 -43 35.5t-47.5 42t-43 40.5t-30.5 32v10h90q11 -22 25 -49t29.5 -53t29.5 -48v-10h-10z" />
    <glyph glyph-name="Uacute" unicode="&#xda;" horiz-adv-x="717" 
d="M362 -10q-79 0 -135.5 22.5t-86.5 72.5t-30 131v420q0 23 -9 38t-27.5 22.5t-45.5 7.5h-13v10h291v-10h-13q-27 0 -45.5 -8t-27.5 -23.5t-9 -39.5v-423q0 -80 21.5 -125t59.5 -62.5t86 -17.5q68 0 117 24t75.5 69.5t26.5 107.5v430q0 23 -9 38t-27.5 22.5t-45.5 7.5h-13
v10h200v-10h-13q-27 0 -45.5 -8t-27.5 -24t-9 -40v-428q0 -66 -28 -114t-82.5 -74t-134.5 -26zM330 781q14 22 29.5 48t30 53t24.5 49h90v-10q-11 -13 -30.5 -32t-43 -40.5t-47 -42t-43.5 -35.5h-10v10z" />
    <glyph glyph-name="Ucircumflex" unicode="&#xdb;" horiz-adv-x="717" 
d="M362 -10q-79 0 -135.5 22.5t-86.5 72.5t-30 131v420q0 23 -9 38t-27.5 22.5t-45.5 7.5h-13v10h291v-10h-13q-27 0 -45.5 -8t-27.5 -23.5t-9 -39.5v-423q0 -80 21.5 -125t59.5 -62.5t86 -17.5q68 0 117 24t75.5 69.5t26.5 107.5v430q0 23 -9 38t-27.5 22.5t-45.5 7.5h-13
v10h200v-10h-13q-27 0 -45.5 -8t-27.5 -24t-9 -40v-428q0 -66 -28 -114t-82.5 -74t-134.5 -26zM230 781q20 22 40 48t38.5 53t31.5 49h75q13 -22 31.5 -49t39 -53t39.5 -48v-10h-10q-19 11 -45.5 28.5t-51.5 36.5t-40 35q-15 -16 -40.5 -35t-52 -36.5t-45.5 -28.5h-10v10z
" />
    <glyph glyph-name="Udieresis" unicode="&#xdc;" horiz-adv-x="717" 
d="M362 -10q-79 0 -135.5 22.5t-86.5 72.5t-30 131v420q0 23 -9 38t-27.5 22.5t-45.5 7.5h-13v10h291v-10h-13q-27 0 -45.5 -8t-27.5 -23.5t-9 -39.5v-423q0 -80 21.5 -125t59.5 -62.5t86 -17.5q68 0 117 24t75.5 69.5t26.5 107.5v430q0 23 -9 38t-27.5 22.5t-45.5 7.5h-13
v10h200v-10h-13q-27 0 -45.5 -8t-27.5 -24t-9 -40v-428q0 -66 -28 -114t-82.5 -74t-134.5 -26zM474 797q-19 0 -31.5 12.5t-12.5 43.5q0 32 12.5 44t31.5 12q18 0 31 -12t13 -44q0 -31 -13 -43.5t-31 -12.5zM284 797q-19 0 -31.5 12.5t-12.5 43.5q0 32 12.5 44t31.5 12
q18 0 31 -12t13 -44q0 -31 -13 -43.5t-31 -12.5z" />
    <glyph glyph-name="Yacute" unicode="&#xdd;" horiz-adv-x="625" 
d="M159 0v10h23q27 0 45.5 8t27.5 24t9 40v231l-178 338q-10 20 -20 31.5t-22 16.5t-29 5h-20v10h275v-10h-34q-23 0 -34.5 -6t-11.5 -21q0 -10 5 -24t15 -34l86 -166q11 -20 20 -38.5t17 -35t15 -31t12 -26.5q12 23 29.5 58t37.5 73l76 147q12 23 18 40t6 29q0 20 -16 27.5
t-50 7.5h-40v10h214v-10h-25q-16 0 -28.5 -7t-25 -24t-28.5 -47l-163 -315v-229q0 -24 9 -40t27.5 -24t45.5 -8h23v-10h-311zM290 781q14 22 29.5 48t30 53t24.5 49h90v-10q-11 -13 -30.5 -32t-43 -40.5t-47 -42t-43.5 -35.5h-10v10z" />
    <glyph glyph-name="Thorn" unicode="&#xde;" horiz-adv-x="604" 
d="M38 0v10h13q27 0 45.5 8t27.5 24t9 40v554q0 23 -9 38t-27.5 22.5t-45.5 7.5h-13v10h291v-10h-13q-27 0 -45.5 -8t-27.5 -24t-9 -40v-62h85q126 0 186 -50.5t60 -148.5q0 -59 -25.5 -108.5t-84.5 -79t-158 -29.5h-63v-72q0 -24 9 -40t27.5 -24t45.5 -8h13v-10h-291z
M287 164q61 0 98.5 20.5t54.5 65t17 117.5q0 70 -15.5 112t-49.5 61.5t-90 19.5h-68v-396h53z" />
    <glyph glyph-name="germandbls" unicode="&#xdf;" horiz-adv-x="647" 
d="M431 -10q-44 0 -78.5 11.5t-54.5 34.5t-20 59q0 27 10 42t23.5 21.5t23.5 6.5q0 -55 11.5 -91.5t35 -55t59.5 -18.5q29 0 49 11.5t31 34.5t11 59q0 33 -10.5 55t-35 40.5t-66.5 40.5q-37 20 -65.5 39.5t-45 47t-16.5 71.5t17.5 75t54.5 47.5t93 16.5q0 78 -12.5 125
t-40 68.5t-72.5 21.5q-65 0 -93 -39.5t-28 -133.5v-580h-189v10h13q27 0 45.5 8t27.5 24t9 40v444h-81v10h81v30q0 74 28.5 117t77.5 61.5t110 18.5q83 0 130.5 -30t67.5 -83t20 -124h-73q-35 0 -62 -9.5t-42 -30t-15 -53.5q0 -29 12 -48.5t36 -35t59 -34.5q39 -21 69.5 -42
t48.5 -51t18 -79q0 -75 -44.5 -114t-127.5 -39z" />
    <glyph glyph-name="agrave" unicode="&#xe0;" horiz-adv-x="563" 
d="M215 -10q-76 0 -120.5 39.5t-44.5 108.5q0 77 56.5 115t171.5 42l83 3v75q0 56 -6 92t-26 53.5t-61 17.5q-58 0 -74.5 -36t-16.5 -113q-42 0 -63.5 14t-21.5 46q0 36 24.5 57.5t65.5 31.5t90 10q92 0 137.5 -39t45.5 -134v-299q0 -24 6 -38t20 -20t36 -6h3v-10h-151v105
h-2q-10 -40 -32 -65.5t-52.5 -37.5t-67.5 -12zM235 4q37 0 65.5 19t44.5 51t16 69v144l-64 -3q-85 -4 -117.5 -39t-32.5 -118q0 -40 9.5 -67.5t29.5 -41.5t49 -14zM304 606q-19 15 -43 35.5t-47.5 42t-43 40.5t-30.5 32v10h90q11 -22 25 -49t29.5 -53t29.5 -48v-10h-10z" />
    <glyph glyph-name="aacute" unicode="&#xe1;" horiz-adv-x="563" 
d="M215 -10q-76 0 -120.5 39.5t-44.5 108.5q0 77 56.5 115t171.5 42l83 3v75q0 56 -6 92t-26 53.5t-61 17.5q-58 0 -74.5 -36t-16.5 -113q-42 0 -63.5 14t-21.5 46q0 36 24.5 57.5t65.5 31.5t90 10q92 0 137.5 -39t45.5 -134v-299q0 -24 6 -38t20 -20t36 -6h3v-10h-151v105
h-2q-10 -40 -32 -65.5t-52.5 -37.5t-67.5 -12zM235 4q37 0 65.5 19t44.5 51t16 69v144l-64 -3q-85 -4 -117.5 -39t-32.5 -118q0 -40 9.5 -67.5t29.5 -41.5t49 -14zM243 616q14 22 29.5 48t30 53t24.5 49h90v-10q-11 -13 -30.5 -32t-43 -40.5t-47 -42t-43.5 -35.5h-10v10z
" />
    <glyph glyph-name="acircumflex" unicode="&#xe2;" horiz-adv-x="563" 
d="M215 -10q-76 0 -120.5 39.5t-44.5 108.5q0 77 56.5 115t171.5 42l83 3v75q0 56 -6 92t-26 53.5t-61 17.5q-58 0 -74.5 -36t-16.5 -113q-42 0 -63.5 14t-21.5 46q0 36 24.5 57.5t65.5 31.5t90 10q92 0 137.5 -39t45.5 -134v-299q0 -24 6 -38t20 -20t36 -6h3v-10h-151v105
h-2q-10 -40 -32 -65.5t-52.5 -37.5t-67.5 -12zM235 4q37 0 65.5 19t44.5 51t16 69v144l-64 -3q-85 -4 -117.5 -39t-32.5 -118q0 -40 9.5 -67.5t29.5 -41.5t49 -14zM127 616q20 22 40 48t38.5 53t31.5 49h75q13 -22 31.5 -49t39 -53t39.5 -48v-10h-10q-19 11 -45.5 28.5
t-51.5 36.5t-40 35q-15 -16 -40.5 -35t-52 -36.5t-45.5 -28.5h-10v10z" />
    <glyph glyph-name="atilde" unicode="&#xe3;" horiz-adv-x="563" 
d="M215 -10q-76 0 -120.5 39.5t-44.5 108.5q0 77 56.5 115t171.5 42l83 3v75q0 56 -6 92t-26 53.5t-61 17.5q-58 0 -74.5 -36t-16.5 -113q-42 0 -63.5 14t-21.5 46q0 36 24.5 57.5t65.5 31.5t90 10q92 0 137.5 -39t45.5 -134v-299q0 -24 6 -38t20 -20t36 -6h3v-10h-151v105
h-2q-10 -40 -32 -65.5t-52.5 -37.5t-67.5 -12zM235 4q37 0 65.5 19t44.5 51t16 69v144l-64 -3q-85 -4 -117.5 -39t-32.5 -118q0 -40 9.5 -67.5t29.5 -41.5t49 -14zM360 606q-25 0 -49 9.5t-47.5 22t-47.5 22t-51 9.5q-33 0 -41.5 -16.5t-13.5 -36.5h-10q3 30 13 57t30.5 44
t52.5 17q26 0 49.5 -9.5t47 -22t48 -22t50.5 -9.5q31 0 41 15.5t14 37.5h10q-3 -28 -13 -55.5t-30 -45t-53 -17.5z" />
    <glyph glyph-name="adieresis" unicode="&#xe4;" horiz-adv-x="563" 
d="M215 -10q-76 0 -120.5 39.5t-44.5 108.5q0 77 56.5 115t171.5 42l83 3v75q0 56 -6 92t-26 53.5t-61 17.5q-58 0 -74.5 -36t-16.5 -113q-42 0 -63.5 14t-21.5 46q0 36 24.5 57.5t65.5 31.5t90 10q92 0 137.5 -39t45.5 -134v-299q0 -24 6 -38t20 -20t36 -6h3v-10h-151v105
h-2q-10 -40 -32 -65.5t-52.5 -37.5t-67.5 -12zM235 4q37 0 65.5 19t44.5 51t16 69v144l-64 -3q-85 -4 -117.5 -39t-32.5 -118q0 -40 9.5 -67.5t29.5 -41.5t49 -14zM366 632q-19 0 -31.5 12.5t-12.5 43.5q0 32 12.5 44t31.5 12q18 0 31 -12t13 -44q0 -31 -13 -43.5t-31 -12.5
zM176 632q-19 0 -31.5 12.5t-12.5 43.5q0 32 12.5 44t31.5 12q18 0 31 -12t13 -44q0 -31 -13 -43.5t-31 -12.5z" />
    <glyph glyph-name="aring" unicode="&#xe5;" horiz-adv-x="563" 
d="M215 -10q-76 0 -120.5 39.5t-44.5 108.5q0 77 56.5 115t171.5 42l83 3v75q0 56 -6 92t-26 53.5t-61 17.5q-58 0 -74.5 -36t-16.5 -113q-42 0 -63.5 14t-21.5 46q0 36 24.5 57.5t65.5 31.5t90 10q92 0 137.5 -39t45.5 -134v-299q0 -24 6 -38t20 -20t36 -6h3v-10h-151v105
h-2q-10 -40 -32 -65.5t-52.5 -37.5t-67.5 -12zM235 4q37 0 65.5 19t44.5 51t16 69v144l-64 -3q-85 -4 -117.5 -39t-32.5 -118q0 -40 9.5 -67.5t29.5 -41.5t49 -14zM280 596q-50 0 -85 28t-35 81t35 81t85 28t85 -28t35 -81t-35 -81t-85 -28zM280 606q48 0 78 25t30 74
q0 50 -30 74.5t-78 24.5t-78 -24.5t-30 -74.5q0 -49 30 -74t78 -25z" />
    <glyph glyph-name="ae" unicode="&#xe6;" horiz-adv-x="841" 
d="M215 -10q-51 0 -88 18t-57 51t-20 79q0 77 56.5 115t171.5 42l83 3v75q0 56 -6 92t-26 53.5t-61 17.5q-58 0 -74.5 -36t-16.5 -113q-42 0 -63.5 14t-21.5 46q0 36 24.5 57.5t65.5 31.5t90 10q38 0 67.5 -6t52 -19.5t36.5 -35.5q28 31 67 46t88 15q97 0 152.5 -60
t55.5 -179v-24h-333q1 -102 15 -164t45.5 -90.5t82.5 -28.5q38 0 67.5 14t49.5 41.5t27 67.5q12 -2 18 -12t6 -21q0 -20 -19 -43.5t-56.5 -40t-95.5 -16.5q-78 0 -133 35.5t-81 102.5q-13 -43 -35.5 -74t-55.5 -47.5t-78 -16.5zM235 4q37 0 65.5 18.5t44.5 50t16 70.5v144
l-64 -3q-57 -2 -89.5 -18t-46.5 -49.5t-14 -89.5q0 -61 22 -92t66 -31zM690 293q0 88 -11 141t-35 77.5t-63 24.5q-41 0 -67 -24.5t-39 -77.5t-17 -141h232z" />
    <glyph glyph-name="ccedilla" unicode="&#xe7;" horiz-adv-x="492" 
d="M285 -10q-68 0 -120 27.5t-81 89.5t-29 163q0 103 29.5 163.5t79.5 86.5t113 26q42 0 82.5 -11t66.5 -33.5t26 -59.5q0 -22 -10.5 -35.5t-30 -19.5t-48.5 -6q0 53 -7.5 87.5t-26.5 51t-54 16.5q-36 0 -64 -22.5t-43.5 -80t-15.5 -164.5q0 -98 15 -157.5t48 -85.5t85 -26
q33 0 59.5 11t46 38.5t30.5 75.5q10 -2 15.5 -10t5.5 -22q0 -24 -19 -47.5t-57 -39.5t-96 -16zM256 -240q-26 0 -44.5 3.5t-33.5 7.5v11q14 -4 27 -6t26 -2q40 0 58 21.5t18 67.5q0 23 -5.5 39.5t-16.5 26.5t-30 12l14 59h10l-11 -50q56 -4 87.5 -26t31.5 -64
q0 -43 -31 -71.5t-100 -28.5z" />
    <glyph glyph-name="egrave" unicode="&#xe8;" horiz-adv-x="535" 
d="M292 -10q-112 0 -174.5 72t-62.5 202q0 140 58 211t164 71q97 0 152.5 -60t55.5 -179v-24h-333q1 -102 15 -164t45.5 -90.5t82.5 -28.5q38 0 67.5 14t49.5 41.5t27 67.5q12 -2 18 -12t6 -21q0 -20 -19 -43.5t-56.5 -40t-95.5 -16.5zM384 293q0 88 -11 141t-35 77.5
t-63 24.5q-41 0 -67 -24.5t-39 -77.5t-17 -141h232zM312 606q-19 15 -43 35.5t-47.5 42t-43 40.5t-30.5 32v10h90q11 -22 25 -49t29.5 -53t29.5 -48v-10h-10z" />
    <glyph glyph-name="eacute" unicode="&#xe9;" horiz-adv-x="535" 
d="M292 -10q-112 0 -174.5 72t-62.5 202q0 140 58 211t164 71q97 0 152.5 -60t55.5 -179v-24h-333q1 -102 15 -164t45.5 -90.5t82.5 -28.5q38 0 67.5 14t49.5 41.5t27 67.5q12 -2 18 -12t6 -21q0 -20 -19 -43.5t-56.5 -40t-95.5 -16.5zM384 293q0 88 -11 141t-35 77.5
t-63 24.5q-41 0 -67 -24.5t-39 -77.5t-17 -141h232zM244 616q14 22 29.5 48t30 53t24.5 49h90v-10q-11 -13 -30.5 -32t-43 -40.5t-47 -42t-43.5 -35.5h-10v10z" />
    <glyph glyph-name="ecircumflex" unicode="&#xea;" horiz-adv-x="535" 
d="M292 -10q-112 0 -174.5 72t-62.5 202q0 140 58 211t164 71q97 0 152.5 -60t55.5 -179v-24h-333q1 -102 15 -164t45.5 -90.5t82.5 -28.5q38 0 67.5 14t49.5 41.5t27 67.5q12 -2 18 -12t6 -21q0 -20 -19 -43.5t-56.5 -40t-95.5 -16.5zM384 293q0 88 -11 141t-35 77.5
t-63 24.5q-41 0 -67 -24.5t-39 -77.5t-17 -141h232zM124 616q20 22 40 48t38.5 53t31.5 49h75q13 -22 31.5 -49t39 -53t39.5 -48v-10h-10q-19 11 -45.5 28.5t-51.5 36.5t-40 35q-15 -16 -40.5 -35t-52 -36.5t-45.5 -28.5h-10v10z" />
    <glyph glyph-name="edieresis" unicode="&#xeb;" horiz-adv-x="535" 
d="M292 -10q-112 0 -174.5 72t-62.5 202q0 140 58 211t164 71q97 0 152.5 -60t55.5 -179v-24h-333q1 -102 15 -164t45.5 -90.5t82.5 -28.5q38 0 67.5 14t49.5 41.5t27 67.5q12 -2 18 -12t6 -21q0 -20 -19 -43.5t-56.5 -40t-95.5 -16.5zM384 293q0 88 -11 141t-35 77.5
t-63 24.5q-41 0 -67 -24.5t-39 -77.5t-17 -141h232zM364 632q-19 0 -31.5 12.5t-12.5 43.5q0 32 12.5 44t31.5 12q18 0 31 -12t13 -44q0 -31 -13 -43.5t-31 -12.5zM174 632q-19 0 -31.5 12.5t-12.5 43.5q0 32 12.5 44t31.5 12q18 0 31 -12t13 -44q0 -31 -13 -43.5t-31 -12.5
z" />
    <glyph glyph-name="igrave" unicode="&#xec;" horiz-adv-x="320" 
d="M23 0v10h13q30 0 48 8t26 25t8 44v361q0 28 -8 45t-26 25t-48 8h-3v10h179v-444q0 -30 8 -48t26.5 -26t47.5 -8h13v-10h-284zM191 606q-19 15 -43 35.5t-47.5 42t-43 40.5t-30.5 32v10h90q11 -22 25 -49t29.5 -53t29.5 -48v-10h-10z" />
    <glyph glyph-name="iacute" unicode="&#xed;" horiz-adv-x="320" 
d="M23 0v10h13q30 0 48 8t26 25t8 44v361q0 28 -8 45t-26 25t-48 8h-3v10h179v-444q0 -30 8 -48t26.5 -26t47.5 -8h13v-10h-284zM130 616q14 22 29.5 48t30 53t24.5 49h90v-10q-11 -13 -30.5 -32t-43 -40.5t-47 -42t-43.5 -35.5h-10v10z" />
    <glyph glyph-name="icircumflex" unicode="&#xee;" horiz-adv-x="320" 
d="M23 0v10h13q30 0 48 8t26 25t8 44v361q0 28 -8 45t-26 25t-48 8h-3v10h179v-444q0 -30 8 -48t26.5 -26t47.5 -8h13v-10h-284zM10 616q20 22 40 48t38.5 53t31.5 49h75q13 -22 31.5 -49t39 -53t39.5 -48v-10h-10q-19 11 -45.5 28.5t-51.5 36.5t-40 35q-15 -16 -40.5 -35
t-52 -36.5t-45.5 -28.5h-10v10z" />
    <glyph glyph-name="idieresis" unicode="&#xef;" horiz-adv-x="320" 
d="M23 0v10h13q30 0 48 8t26 25t8 44v361q0 28 -8 45t-26 25t-48 8h-3v10h179v-444q0 -30 8 -48t26.5 -26t47.5 -8h13v-10h-284zM239 632q-19 0 -31.5 12.5t-12.5 43.5q0 32 12.5 44t31.5 12q18 0 31 -12t13 -44q0 -31 -13 -43.5t-31 -12.5zM49 632q-19 0 -31.5 12.5
t-12.5 43.5q0 32 12.5 44t31.5 12q18 0 31 -12t13 -44q0 -31 -13 -43.5t-31 -12.5z" />
    <glyph glyph-name="eth" unicode="&#xf0;" horiz-adv-x="577" 
d="M287 -10q-72 0 -124 28.5t-80 86t-28 144.5t28.5 144t78.5 85t114 28q34 0 60.5 -8.5t46.5 -23.5t32 -35q-12 68 -39 120t-62 89l-135 -77v12l127 73q-35 37 -76 60t-80 35v10q55 -13 102.5 -35t86.5 -51l113 65v-12l-104 -60q85 -65 129.5 -161.5t44.5 -215.5
q0 -101 -26.5 -168t-79 -100t-129.5 -33zM289 0q48 0 78 26t44 81t14 142t-15 141.5t-46.5 80t-79.5 25.5q-47 0 -76.5 -25.5t-42.5 -80t-13 -141.5t14 -142t44.5 -81t78.5 -26z" />
    <glyph glyph-name="ntilde" unicode="&#xf1;" horiz-adv-x="645" 
d="M28 0v10h8q31 0 49 8.5t25.5 28.5t7.5 55v334q0 34 -7.5 53.5t-24.5 28t-48 8.5h-5v10h178v-94h2q14 47 39 69t54.5 28.5t54.5 6.5q89 0 132.5 -46.5t43.5 -149.5v-248q0 -35 7 -55t23.5 -28.5t44.5 -8.5h5v-10h-174v384q0 65 -24 106t-83 41q-47 0 -74 -25t-38.5 -64.5
t-11.5 -82.5v-257q0 -35 7.5 -55t25 -28.5t47.5 -8.5h5v-10h-269zM409 606q-25 0 -49 9.5t-47.5 22t-47.5 22t-51 9.5q-33 0 -41.5 -16.5t-13.5 -36.5h-10q3 30 13 57t30.5 44t52.5 17q26 0 49.5 -9.5t47 -22t48 -22t50.5 -9.5q31 0 41 15.5t14 37.5h10q-3 -28 -13 -55.5
t-30 -45t-53 -17.5z" />
    <glyph glyph-name="ograve" unicode="&#xf2;" horiz-adv-x="577" 
d="M287 -10q-108 0 -170 69t-62 210q0 140 59.5 208.5t175.5 68.5q108 0 170 -68.5t62 -208.5q0 -141 -59.5 -210t-175.5 -69zM289 0q49 0 79 27t43.5 86t13.5 156q0 96 -13.5 155t-43.5 85.5t-80 26.5q-49 0 -79 -26.5t-43.5 -85.5t-13.5 -155q0 -97 13.5 -156t44 -86
t79.5 -27zM318 606q-19 15 -43 35.5t-47.5 42t-43 40.5t-30.5 32v10h90q11 -22 25 -49t29.5 -53t29.5 -48v-10h-10z" />
    <glyph glyph-name="oacute" unicode="&#xf3;" horiz-adv-x="577" 
d="M287 -10q-108 0 -170 69t-62 210q0 140 59.5 208.5t175.5 68.5q108 0 170 -68.5t62 -208.5q0 -141 -59.5 -210t-175.5 -69zM289 0q49 0 79 27t43.5 86t13.5 156q0 96 -13.5 155t-43.5 85.5t-80 26.5q-49 0 -79 -26.5t-43.5 -85.5t-13.5 -155q0 -97 13.5 -156t44 -86
t79.5 -27zM263 616q14 22 29.5 48t30 53t24.5 49h90v-10q-11 -13 -30.5 -32t-43 -40.5t-47 -42t-43.5 -35.5h-10v10z" />
    <glyph glyph-name="ocircumflex" unicode="&#xf4;" horiz-adv-x="577" 
d="M287 -10q-108 0 -170 69t-62 210q0 140 59.5 208.5t175.5 68.5q108 0 170 -68.5t62 -208.5q0 -141 -59.5 -210t-175.5 -69zM289 0q49 0 79 27t43.5 86t13.5 156q0 96 -13.5 155t-43.5 85.5t-80 26.5q-49 0 -79 -26.5t-43.5 -85.5t-13.5 -155q0 -97 13.5 -156t44 -86
t79.5 -27zM138 616q20 22 40 48t38.5 53t31.5 49h75q13 -22 31.5 -49t39 -53t39.5 -48v-10h-10q-19 11 -45.5 28.5t-51.5 36.5t-40 35q-15 -16 -40.5 -35t-52 -36.5t-45.5 -28.5h-10v10z" />
    <glyph glyph-name="otilde" unicode="&#xf5;" horiz-adv-x="577" 
d="M287 -10q-108 0 -170 69t-62 210q0 140 59.5 208.5t175.5 68.5q108 0 170 -68.5t62 -208.5q0 -141 -59.5 -210t-175.5 -69zM289 0q49 0 79 27t43.5 86t13.5 156q0 96 -13.5 155t-43.5 85.5t-80 26.5q-49 0 -79 -26.5t-43.5 -85.5t-13.5 -155q0 -97 13.5 -156t44 -86
t79.5 -27zM367 606q-25 0 -49 9.5t-47.5 22t-47.5 22t-51 9.5q-33 0 -41.5 -16.5t-13.5 -36.5h-10q3 30 13 57t30.5 44t52.5 17q26 0 49.5 -9.5t47 -22t48 -22t50.5 -9.5q31 0 41 15.5t14 37.5h10q-3 -28 -13 -55.5t-30 -45t-53 -17.5z" />
    <glyph glyph-name="odieresis" unicode="&#xf6;" horiz-adv-x="577" 
d="M287 -10q-108 0 -170 69t-62 210q0 140 59.5 208.5t175.5 68.5q108 0 170 -68.5t62 -208.5q0 -141 -59.5 -210t-175.5 -69zM289 0q49 0 79 27t43.5 86t13.5 156q0 96 -13.5 155t-43.5 85.5t-80 26.5q-49 0 -79 -26.5t-43.5 -85.5t-13.5 -155q0 -97 13.5 -156t44 -86
t79.5 -27zM379 632q-19 0 -31.5 12.5t-12.5 43.5q0 32 12.5 44t31.5 12q18 0 31 -12t13 -44q0 -31 -13 -43.5t-31 -12.5zM189 632q-19 0 -31.5 12.5t-12.5 43.5q0 32 12.5 44t31.5 12q18 0 31 -12t13 -44q0 -31 -13 -43.5t-31 -12.5z" />
    <glyph glyph-name="divide" unicode="&#xf7;" horiz-adv-x="559" 
d="M65 347v20h429v-20h-429zM280 144q-17 0 -29 9.5t-12 32.5q0 25 12 34t29 9t29 -9t12 -34q0 -23 -12 -32.5t-29 -9.5zM280 486q-17 0 -29 9.5t-12 33.5t12 33t29 9t29 -9t12 -33t-12 -33.5t-29 -9.5z" />
    <glyph glyph-name="oslash" unicode="&#xf8;" horiz-adv-x="577" 
d="M143 34q-42 34 -65 92t-23 143q0 140 59.5 208.5t175.5 68.5q43 0 78.5 -10.5t63.5 -31.5l45 72h10l-48 -78q40 -33 61.5 -90t21.5 -139q0 -141 -59.5 -210t-175.5 -69q-81 0 -137 39l-42 -69h-11zM289 0q49 0 79 27t43.5 86t13.5 156q0 57 -4.5 100.5t-14.5 74.5
l-228 -370q16 -39 43.5 -56.5t67.5 -17.5zM402 455q-16 43 -43.5 62t-70.5 19q-49 0 -79 -26.5t-43.5 -85.5t-13.5 -155q0 -122 22 -185z" />
    <glyph glyph-name="ugrave" unicode="&#xf9;" horiz-adv-x="635" 
d="M283 -10q-88 0 -131.5 46.5t-43.5 149.5v250q0 34 -7.5 53.5t-25.5 28t-49 8.5h-3v10h179v-355q0 -64 9 -102.5t30.5 -56.5t57.5 -18q45 0 74.5 23.5t44.5 69t15 109.5v230q0 34 -7.5 53.5t-25.5 28t-49 8.5h-3v10h179v-437q0 -34 7.5 -53.5t25.5 -27.5t49 -8h3v-10h-172
v137h-2q-8 -51 -25.5 -80.5t-40 -43.5t-46 -18.5t-43.5 -4.5zM326 606q-19 15 -43 35.5t-47.5 42t-43 40.5t-30.5 32v10h90q11 -22 25 -49t29.5 -53t29.5 -48v-10h-10z" />
    <glyph glyph-name="uacute" unicode="&#xfa;" horiz-adv-x="635" 
d="M283 -10q-88 0 -131.5 46.5t-43.5 149.5v250q0 34 -7.5 53.5t-25.5 28t-49 8.5h-3v10h179v-355q0 -64 9 -102.5t30.5 -56.5t57.5 -18q45 0 74.5 23.5t44.5 69t15 109.5v230q0 34 -7.5 53.5t-25.5 28t-49 8.5h-3v10h179v-437q0 -34 7.5 -53.5t25.5 -27.5t49 -8h3v-10h-172
v137h-2q-8 -51 -25.5 -80.5t-40 -43.5t-46 -18.5t-43.5 -4.5zM277 616q14 22 29.5 48t30 53t24.5 49h90v-10q-11 -13 -30.5 -32t-43 -40.5t-47 -42t-43.5 -35.5h-10v10z" />
    <glyph glyph-name="ucircumflex" unicode="&#xfb;" horiz-adv-x="635" 
d="M283 -10q-88 0 -131.5 46.5t-43.5 149.5v250q0 34 -7.5 53.5t-25.5 28t-49 8.5h-3v10h179v-355q0 -64 9 -102.5t30.5 -56.5t57.5 -18q45 0 74.5 23.5t44.5 69t15 109.5v230q0 34 -7.5 53.5t-25.5 28t-49 8.5h-3v10h179v-437q0 -34 7.5 -53.5t25.5 -27.5t49 -8h3v-10h-172
v137h-2q-8 -51 -25.5 -80.5t-40 -43.5t-46 -18.5t-43.5 -4.5zM167 616q20 22 40 48t38.5 53t31.5 49h75q13 -22 31.5 -49t39 -53t39.5 -48v-10h-10q-19 11 -45.5 28.5t-51.5 36.5t-40 35q-15 -16 -40.5 -35t-52 -36.5t-45.5 -28.5h-10v10z" />
    <glyph glyph-name="udieresis" unicode="&#xfc;" horiz-adv-x="635" 
d="M283 -10q-88 0 -131.5 46.5t-43.5 149.5v250q0 34 -7.5 53.5t-25.5 28t-49 8.5h-3v10h179v-355q0 -64 9 -102.5t30.5 -56.5t57.5 -18q45 0 74.5 23.5t44.5 69t15 109.5v230q0 34 -7.5 53.5t-25.5 28t-49 8.5h-3v10h179v-437q0 -34 7.5 -53.5t25.5 -27.5t49 -8h3v-10h-172
v137h-2q-8 -51 -25.5 -80.5t-40 -43.5t-46 -18.5t-43.5 -4.5zM411 632q-19 0 -31.5 12.5t-12.5 43.5q0 32 12.5 44t31.5 12q18 0 31 -12t13 -44q0 -31 -13 -43.5t-31 -12.5zM221 632q-19 0 -31.5 12.5t-12.5 43.5q0 32 12.5 44t31.5 12q18 0 31 -12t13 -44q0 -31 -13 -43.5
t-31 -12.5z" />
    <glyph glyph-name="yacute" unicode="&#xfd;" horiz-adv-x="565" 
d="M38 -230q71 0 114 10.5t68.5 33t43 58t36.5 84.5l-219 515q-9 22 -17.5 33.5t-17.5 16.5t-22 5h-20v10h240v-10h-3q-28 0 -44.5 -8.5t-16.5 -30.5q0 -9 3 -20.5t9 -25.5l86 -209q8 -18 16 -39t16 -43t15 -42t13 -37q13 39 25 74.5t20 60.5l73 229q5 14 7 25t2 20
q0 23 -15.5 34.5t-50.5 11.5h-42v10h208v-10h-8q-24 0 -39.5 -6t-25.5 -23t-21 -49l-146 -452q-23 -72 -45 -118t-51 -72t-72.5 -36t-109.5 -10h-9v10zM259 616q14 22 29.5 48t30 53t24.5 49h90v-10q-11 -13 -30.5 -32t-43 -40.5t-47 -42t-43.5 -35.5h-10v10z" />
    <glyph glyph-name="thorn" unicode="&#xfe;" horiz-adv-x="614" 
d="M13 -240v10h13q30 0 48 8t26 25t8 44v825q0 28 -8 45t-26 25t-48 8h-3v10h179v-184v-45.5t-0.5 -63t-1.5 -70.5h2q14 76 52.5 112.5t105.5 36.5q98 0 148.5 -70t50.5 -207t-51.5 -208t-149.5 -71q-65 0 -103 37t-52 114h-2q1 -14 1 -29.5v-31v-30.5v-198q0 -29 8 -47.5
t26 -26.5t48 -8h13v-10h-284zM341 5q44 0 70.5 26.5t38.5 85t12 153.5q0 94 -12 151.5t-39 83.5t-71 26q-48 0 -78.5 -29.5t-45 -87.5t-14.5 -145q0 -89 15 -148t46 -87.5t78 -28.5z" />
    <glyph glyph-name="ydieresis" unicode="&#xff;" horiz-adv-x="565" 
d="M38 -230q71 0 114 10.5t68.5 33t43 58t36.5 84.5l-219 515q-9 22 -17.5 33.5t-17.5 16.5t-22 5h-20v10h240v-10h-3q-28 0 -44.5 -8.5t-16.5 -30.5q0 -9 3 -20.5t9 -25.5l86 -209q8 -18 16 -39t16 -43t15 -42t13 -37q13 39 25 74.5t20 60.5l73 229q5 14 7 25t2 20
q0 23 -15.5 34.5t-50.5 11.5h-42v10h208v-10h-8q-24 0 -39.5 -6t-25.5 -23t-21 -49l-146 -452q-23 -72 -45 -118t-51 -72t-72.5 -36t-109.5 -10h-9v10zM394 632q-19 0 -31.5 12.5t-12.5 43.5q0 32 12.5 44t31.5 12q18 0 31 -12t13 -44q0 -31 -13 -43.5t-31 -12.5zM204 632
q-19 0 -31.5 12.5t-12.5 43.5q0 32 12.5 44t31.5 12q18 0 31 -12t13 -44q0 -31 -13 -43.5t-31 -12.5z" />
    <glyph glyph-name="Amacron" unicode="&#x100;" horiz-adv-x="705" 
d="M0 0v10h29q22 0 37 7t26 24t21 47l218 626h51l251 -651q8 -20 16 -31.5t18.5 -16.5t24.5 -5h13v-10h-275v10h23q38 0 55 9t17 32q0 6 -1 12.5t-2.5 14.5t-5.5 17l-61 164h-271l-55 -157q-3 -8 -5 -16t-3 -14.5t-1 -12.5q0 -27 24 -38t77 -11h23v-10h-244zM187 269h264
l-73 195q-13 34 -24 65t-20.5 59.5t-17.5 55.5q-7 -22 -13 -40.5t-12 -36.5t-13.5 -38.5t-16.5 -47.5zM205 801v20h290v-20h-290z" />
    <glyph glyph-name="amacron" unicode="&#x101;" horiz-adv-x="563" 
d="M215 -10q-76 0 -120.5 39.5t-44.5 108.5q0 77 56.5 115t171.5 42l83 3v75q0 56 -6 92t-26 53.5t-61 17.5q-58 0 -74.5 -36t-16.5 -113q-42 0 -63.5 14t-21.5 46q0 36 24.5 57.5t65.5 31.5t90 10q92 0 137.5 -39t45.5 -134v-299q0 -24 6 -38t20 -20t36 -6h3v-10h-151v105
h-2q-10 -40 -32 -65.5t-52.5 -37.5t-67.5 -12zM235 4q37 0 65.5 19t44.5 51t16 69v144l-64 -3q-85 -4 -117.5 -39t-32.5 -118q0 -40 9.5 -67.5t29.5 -41.5t49 -14zM127 636v20h290v-20h-290z" />
    <glyph glyph-name="Abreve" unicode="&#x102;" horiz-adv-x="705" 
d="M0 0v10h29q22 0 37 7t26 24t21 47l218 626h51l251 -651q8 -20 16 -31.5t18.5 -16.5t24.5 -5h13v-10h-275v10h23q38 0 55 9t17 32q0 6 -1 12.5t-2.5 14.5t-5.5 17l-61 164h-271l-55 -157q-3 -8 -5 -16t-3 -14.5t-1 -12.5q0 -27 24 -38t77 -11h23v-10h-244zM187 269h264
l-73 195q-13 34 -24 65t-20.5 59.5t-17.5 55.5q-7 -22 -13 -40.5t-12 -36.5t-13.5 -38.5t-16.5 -47.5zM350 771q-47 0 -77 18.5t-45 50t-18 68.5h10q8 -24 22.5 -39t41 -22t66.5 -7q41 0 67 7t41 22t22 39h10q-3 -37 -18 -68.5t-44.5 -50t-77.5 -18.5z" />
    <glyph glyph-name="abreve" unicode="&#x103;" horiz-adv-x="563" 
d="M215 -10q-76 0 -120.5 39.5t-44.5 108.5q0 77 56.5 115t171.5 42l83 3v75q0 56 -6 92t-26 53.5t-61 17.5q-58 0 -74.5 -36t-16.5 -113q-42 0 -63.5 14t-21.5 46q0 36 24.5 57.5t65.5 31.5t90 10q92 0 137.5 -39t45.5 -134v-299q0 -24 6 -38t20 -20t36 -6h3v-10h-151v105
h-2q-10 -40 -32 -65.5t-52.5 -37.5t-67.5 -12zM235 4q37 0 65.5 19t44.5 51t16 69v144l-64 -3q-85 -4 -117.5 -39t-32.5 -118q0 -40 9.5 -67.5t29.5 -41.5t49 -14zM275 606q-47 0 -77 18.5t-45 50t-18 68.5h10q8 -24 22.5 -39t41 -22t66.5 -7q41 0 67 7t41 22t22 39h10
q-3 -37 -18 -68.5t-44.5 -50t-77.5 -18.5z" />
    <glyph glyph-name="Aogonek" unicode="&#x104;" horiz-adv-x="705" 
d="M0 0v10h29q22 0 37 7t26 24t21 47l218 626h51l251 -651q8 -20 16 -31.5t18.5 -16.5t24.5 -5h13v-10h-275v10h23q38 0 55 9t17 32q0 6 -1 12.5t-2.5 14.5t-5.5 17l-61 164h-271l-55 -157q-3 -8 -5 -16t-3 -14.5t-1 -12.5q0 -27 24 -38t77 -11h23v-10h-244zM187 269h264
l-73 195q-13 34 -24 65t-20.5 59.5t-17.5 55.5q-7 -22 -13 -40.5t-12 -36.5t-13.5 -38.5t-16.5 -47.5zM590 -240q-54 0 -90 24t-36 72q0 32 17 59t48.5 48.5t72.5 36.5h21q-40 -13 -61.5 -45t-21.5 -86q0 -48 18 -72.5t56 -24.5q15 0 30.5 3.5t33.5 10.5v-10
q-16 -7 -39 -11.5t-49 -4.5z" />
    <glyph glyph-name="aogonek" unicode="&#x105;" horiz-adv-x="563" 
d="M215 -10q-76 0 -120.5 39.5t-44.5 108.5q0 77 56.5 115t171.5 42l83 3v75q0 56 -6 92t-26 53.5t-61 17.5q-58 0 -74.5 -36t-16.5 -113q-42 0 -63.5 14t-21.5 46q0 36 24.5 57.5t65.5 31.5t90 10q92 0 137.5 -39t45.5 -134v-299q0 -24 6 -38t20 -20t36 -6h3v-10h-151v105
h-2q-10 -40 -32 -65.5t-52.5 -37.5t-67.5 -12zM235 4q37 0 65.5 19t44.5 51t16 69v144l-64 -3q-85 -4 -117.5 -39t-32.5 -118q0 -40 9.5 -67.5t29.5 -41.5t49 -14zM393 -240q-54 0 -90 24t-36 72q0 32 17 59t48.5 48.5t72.5 36.5h21q-40 -13 -61.5 -45t-21.5 -86
q0 -48 18 -72.5t56 -24.5q15 0 30.5 3.5t33.5 10.5v-10q-16 -7 -39 -11.5t-49 -4.5z" />
    <glyph glyph-name="Cacute" unicode="&#x106;" horiz-adv-x="614" 
d="M367 -10q-103 0 -172 46t-103.5 128t-34.5 191q0 110 35 193t106.5 129.5t180.5 46.5q65 0 109.5 -16t68 -42t23.5 -57q0 -34 -25 -50.5t-62 -16.5q0 62 -13 99.5t-41 54.5t-73 17q-70 0 -114 -40t-64 -118.5t-20 -194.5q0 -120 21.5 -200t68 -120t121.5 -40
q68 0 109.5 34.5t62.5 111.5q13 -5 19 -14.5t6 -23.5q0 -19 -13 -39.5t-39 -38.5t-65 -29t-92 -11zM334 781q14 22 29.5 48t30 53t24.5 49h90v-10q-11 -13 -30.5 -32t-43 -40.5t-47 -42t-43.5 -35.5h-10v10z" />
    <glyph glyph-name="cacute" unicode="&#x107;" horiz-adv-x="492" 
d="M285 -10q-68 0 -120 27.5t-81 89.5t-29 163q0 103 29.5 163.5t79.5 86.5t113 26q42 0 82.5 -11t66.5 -33.5t26 -59.5q0 -22 -10.5 -35.5t-30 -19.5t-48.5 -6q0 53 -7.5 87.5t-26.5 51t-54 16.5q-36 0 -64 -22.5t-43.5 -80t-15.5 -164.5q0 -98 15 -157.5t48 -85.5t85 -26
q33 0 59.5 11t46 38.5t30.5 75.5q10 -2 15.5 -10t5.5 -22q0 -24 -19 -47.5t-57 -39.5t-96 -16zM240 616q14 22 29.5 48t30 53t24.5 49h90v-10q-11 -13 -30.5 -32t-43 -40.5t-47 -42t-43.5 -35.5h-10v10z" />
    <glyph glyph-name="Ccircumflex" unicode="&#x108;" horiz-adv-x="614" 
d="M367 -10q-103 0 -172 46t-103.5 128t-34.5 191q0 110 35 193t106.5 129.5t180.5 46.5q65 0 109.5 -16t68 -42t23.5 -57q0 -34 -25 -50.5t-62 -16.5q0 62 -13 99.5t-41 54.5t-73 17q-70 0 -114 -40t-64 -118.5t-20 -194.5q0 -120 21.5 -200t68 -120t121.5 -40
q68 0 109.5 34.5t62.5 111.5q13 -5 19 -14.5t6 -23.5q0 -19 -13 -39.5t-39 -38.5t-65 -29t-92 -11zM224 781q20 22 40 48t38.5 53t31.5 49h75q13 -22 31.5 -49t39 -53t39.5 -48v-10h-10q-19 11 -45.5 28.5t-51.5 36.5t-40 35q-15 -16 -40.5 -35t-52 -36.5t-45.5 -28.5h-10
v10z" />
    <glyph glyph-name="ccircumflex" unicode="&#x109;" horiz-adv-x="492" 
d="M285 -10q-68 0 -120 27.5t-81 89.5t-29 163q0 103 29.5 163.5t79.5 86.5t113 26q42 0 82.5 -11t66.5 -33.5t26 -59.5q0 -22 -10.5 -35.5t-30 -19.5t-48.5 -6q0 53 -7.5 87.5t-26.5 51t-54 16.5q-36 0 -64 -22.5t-43.5 -80t-15.5 -164.5q0 -98 15 -157.5t48 -85.5t85 -26
q33 0 59.5 11t46 38.5t30.5 75.5q10 -2 15.5 -10t5.5 -22q0 -24 -19 -47.5t-57 -39.5t-96 -16zM135 616q20 22 40 48t38.5 53t31.5 49h75q13 -22 31.5 -49t39 -53t39.5 -48v-10h-10q-19 11 -45.5 28.5t-51.5 36.5t-40 35q-15 -16 -40.5 -35t-52 -36.5t-45.5 -28.5h-10v10z
" />
    <glyph glyph-name="Cdot" unicode="&#x10a;" horiz-adv-x="614" 
d="M367 -10q-103 0 -172 46t-103.5 128t-34.5 191q0 110 35 193t106.5 129.5t180.5 46.5q65 0 109.5 -16t68 -42t23.5 -57q0 -34 -25 -50.5t-62 -16.5q0 62 -13 99.5t-41 54.5t-73 17q-70 0 -114 -40t-64 -118.5t-20 -194.5q0 -120 21.5 -200t68 -120t121.5 -40
q68 0 109.5 34.5t62.5 111.5q13 -5 19 -14.5t6 -23.5q0 -19 -13 -39.5t-39 -38.5t-65 -29t-92 -11zM375 797q-19 0 -31.5 12.5t-12.5 43.5q0 32 12.5 44t31.5 12q18 0 31 -12t13 -44q0 -31 -13 -43.5t-31 -12.5z" />
    <glyph glyph-name="cdot" unicode="&#x10b;" horiz-adv-x="492" 
d="M285 -10q-68 0 -120 27.5t-81 89.5t-29 163q0 103 29.5 163.5t79.5 86.5t113 26q42 0 82.5 -11t66.5 -33.5t26 -59.5q0 -22 -10.5 -35.5t-30 -19.5t-48.5 -6q0 53 -7.5 87.5t-26.5 51t-54 16.5q-36 0 -64 -22.5t-43.5 -80t-15.5 -164.5q0 -98 15 -157.5t48 -85.5t85 -26
q33 0 59.5 11t46 38.5t30.5 75.5q10 -2 15.5 -10t5.5 -22q0 -24 -19 -47.5t-57 -39.5t-96 -16zM283 632q-19 0 -31.5 12.5t-12.5 43.5q0 32 12.5 44t31.5 12q18 0 31 -12t13 -44q0 -31 -13 -43.5t-31 -12.5z" />
    <glyph glyph-name="Ccaron" unicode="&#x10c;" horiz-adv-x="614" 
d="M367 -10q-103 0 -172 46t-103.5 128t-34.5 191q0 110 35 193t106.5 129.5t180.5 46.5q65 0 109.5 -16t68 -42t23.5 -57q0 -34 -25 -50.5t-62 -16.5q0 62 -13 99.5t-41 54.5t-73 17q-70 0 -114 -40t-64 -118.5t-20 -194.5q0 -120 21.5 -200t68 -120t121.5 -40
q68 0 109.5 34.5t62.5 111.5q13 -5 19 -14.5t6 -23.5q0 -19 -13 -39.5t-39 -38.5t-65 -29t-92 -11zM323 771q-13 23 -31.5 49.5t-38.5 53t-40 47.5v10h10q19 -11 45.5 -28.5t52 -36.5t40.5 -35q15 16 40 35t51.5 36.5t45.5 28.5h10v-10q-19 -21 -39.5 -47.5t-39 -53
t-31.5 -49.5h-75z" />
    <glyph glyph-name="ccaron" unicode="&#x10d;" horiz-adv-x="492" 
d="M285 -10q-68 0 -120 27.5t-81 89.5t-29 163q0 103 29.5 163.5t79.5 86.5t113 26q42 0 82.5 -11t66.5 -33.5t26 -59.5q0 -22 -10.5 -35.5t-30 -19.5t-48.5 -6q0 53 -7.5 87.5t-26.5 51t-54 16.5q-36 0 -64 -22.5t-43.5 -80t-15.5 -164.5q0 -98 15 -157.5t48 -85.5t85 -26
q33 0 59.5 11t46 38.5t30.5 75.5q10 -2 15.5 -10t5.5 -22q0 -24 -19 -47.5t-57 -39.5t-96 -16zM243 606q-13 23 -31.5 49.5t-38.5 53t-40 47.5v10h10q19 -11 45.5 -28.5t52 -36.5t40.5 -35q15 16 40 35t51.5 36.5t45.5 28.5h10v-10q-19 -21 -39.5 -47.5t-39 -53t-31.5 -49.5
h-75z" />
    <glyph glyph-name="Dcaron" unicode="&#x10e;" horiz-adv-x="727" 
d="M38 0v10h13q27 0 45.5 8t27.5 24t9 40v554q0 23 -9 38t-27.5 22.5t-45.5 7.5h-13v10h306q103 0 176 -41.5t111.5 -121t38.5 -193.5q0 -109 -36.5 -189.5t-108.5 -124.5t-181 -44h-306zM321 10q84 0 136.5 36t77 113t24.5 199q0 121 -24.5 197.5t-77 112.5t-135.5 36h-88
v-694h87zM294 771q-13 23 -31.5 49.5t-38.5 53t-40 47.5v10h10q19 -11 45.5 -28.5t52 -36.5t40.5 -35q15 16 40 35t51.5 36.5t45.5 28.5h10v-10q-19 -21 -39.5 -47.5t-39 -53t-31.5 -49.5h-75z" />
    <glyph glyph-name="dcaron" unicode="&#x10f;" horiz-adv-x="614" 
d="M563 614q9 26 15 49.5t11 47t9 49.5h75v-10q-10 -21 -26 -46.5t-35 -52t-39 -51.5h-10v14zM256 -10q-65 0 -110 31.5t-68 94t-23 153.5q0 92 22.5 153.5t67 92.5t109.5 31q68 0 106.5 -36.5t51.5 -112.5h2q-1 36 -1.5 70.5t-0.5 63v45.5v96q0 28 -8 45t-26 25t-48 8h-3
v10h179v-673q0 -27 8 -44t26.5 -25t47.5 -8h8v-10h-183v141h-2q-13 -77 -51.5 -114t-103.5 -37zM273 5q71 0 105 65t34 199q0 87 -14.5 145t-44.5 87.5t-79 29.5q-44 0 -71 -26t-39 -83.5t-12 -151.5q0 -95 12 -153.5t39 -85t70 -26.5z" />
    <glyph glyph-name="Dcroat" unicode="&#x110;" horiz-adv-x="727" 
d="M38 0v10h13q27 0 45.5 8t27.5 24t9 40v287h-95v10h95v257q0 23 -9 38t-27.5 22.5t-45.5 7.5h-13v10h306q103 0 176 -41.5t111.5 -121t38.5 -193.5q0 -109 -36.5 -189.5t-108.5 -124.5t-181 -44h-306zM321 10q84 0 136.5 36t77 113t24.5 199q0 121 -24.5 197.5t-77 112.5
t-135.5 36h-88v-325h170v-10h-170v-359h87z" />
    <glyph glyph-name="dcroat" unicode="&#x111;" horiz-adv-x="614" 
d="M256 -10q-65 0 -110 31t-68 91.5t-23 146.5q0 87 22.5 146.5t67 90t109.5 30.5q68 0 106.5 -36.5t51.5 -112.5h2q-1 36 -1.5 72.5t-0.5 65.5v41v56h-171v10h171v50q0 28 -8 45t-26 25t-48 8h-3v10h179v-138h91v-10h-91v-525q0 -27 8 -44t26.5 -25t47.5 -8h8v-10h-183v141
h-2q-13 -77 -51.5 -114t-103.5 -37zM273 5q71 0 105 63.5t34 190.5q0 82 -14.5 138t-44.5 85t-79 29q-44 0 -71 -25.5t-39 -81t-12 -144.5q0 -90 12 -146.5t39 -82.5t70 -26z" />
    <glyph glyph-name="Emacron" unicode="&#x112;" horiz-adv-x="623" 
d="M38 0v10h13q27 0 45.5 8t27.5 24t9 40v554q0 23 -9 38t-27.5 22.5t-45.5 7.5h-13v10h503l6 -175h-10l-2 33q-3 50 -17 79t-43.5 41t-80.5 12h-160v-325h251v-10h-251v-359h185q54 0 86 12t46.5 41t17.5 79l2 33h10l-7 -175h-536zM173 801v20h290v-20h-290z" />
    <glyph glyph-name="emacron" unicode="&#x113;" horiz-adv-x="535" 
d="M292 -10q-112 0 -174.5 72t-62.5 202q0 140 58 211t164 71q97 0 152.5 -60t55.5 -179v-24h-333q1 -102 15 -164t45.5 -90.5t82.5 -28.5q38 0 67.5 14t49.5 41.5t27 67.5q12 -2 18 -12t6 -21q0 -20 -19 -43.5t-56.5 -40t-95.5 -16.5zM384 293q0 88 -11 141t-35 77.5
t-63 24.5q-41 0 -67 -24.5t-39 -77.5t-17 -141h232zM128 636v20h290v-20h-290z" />
    <glyph glyph-name="Ebreve" unicode="&#x114;" horiz-adv-x="623" 
d="M38 0v10h13q27 0 45.5 8t27.5 24t9 40v554q0 23 -9 38t-27.5 22.5t-45.5 7.5h-13v10h503l6 -175h-10l-2 33q-3 50 -17 79t-43.5 41t-80.5 12h-160v-325h251v-10h-251v-359h185q54 0 86 12t46.5 41t17.5 79l2 33h10l-7 -175h-536zM312 771q-47 0 -77 18.5t-45 50t-18 68.5
h10q8 -24 22.5 -39t41 -22t66.5 -7q41 0 67 7t41 22t22 39h10q-3 -37 -18 -68.5t-44.5 -50t-77.5 -18.5z" />
    <glyph glyph-name="ebreve" unicode="&#x115;" horiz-adv-x="535" 
d="M292 -10q-112 0 -174.5 72t-62.5 202q0 140 58 211t164 71q97 0 152.5 -60t55.5 -179v-24h-333q1 -102 15 -164t45.5 -90.5t82.5 -28.5q38 0 67.5 14t49.5 41.5t27 67.5q12 -2 18 -12t6 -21q0 -20 -19 -43.5t-56.5 -40t-95.5 -16.5zM384 293q0 88 -11 141t-35 77.5
t-63 24.5q-41 0 -67 -24.5t-39 -77.5t-17 -141h232zM277 606q-47 0 -77 18.5t-45 50t-18 68.5h10q8 -24 22.5 -39t41 -22t66.5 -7q41 0 67 7t41 22t22 39h10q-3 -37 -18 -68.5t-44.5 -50t-77.5 -18.5z" />
    <glyph glyph-name="Edotaccent" unicode="&#x116;" horiz-adv-x="623" 
d="M38 0v10h13q27 0 45.5 8t27.5 24t9 40v554q0 23 -9 38t-27.5 22.5t-45.5 7.5h-13v10h503l6 -175h-10l-2 33q-3 50 -17 79t-43.5 41t-80.5 12h-160v-325h251v-10h-251v-359h185q54 0 86 12t46.5 41t17.5 79l2 33h10l-7 -175h-536zM322 783q-19 0 -31.5 12.5t-12.5 43.5
q0 32 12.5 44t31.5 12q18 0 31 -12t13 -44q0 -31 -13 -43.5t-31 -12.5z" />
    <glyph glyph-name="edotaccent" unicode="&#x117;" horiz-adv-x="535" 
d="M292 -10q-112 0 -174.5 72t-62.5 202q0 140 58 211t164 71q97 0 152.5 -60t55.5 -179v-24h-333q1 -102 15 -164t45.5 -90.5t82.5 -28.5q38 0 67.5 14t49.5 41.5t27 67.5q12 -2 18 -12t6 -21q0 -20 -19 -43.5t-56.5 -40t-95.5 -16.5zM384 293q0 88 -11 141t-35 77.5
t-63 24.5q-41 0 -67 -24.5t-39 -77.5t-17 -141h232zM275 632q-19 0 -31.5 12.5t-12.5 43.5q0 32 12.5 44t31.5 12q18 0 31 -12t13 -44q0 -31 -13 -43.5t-31 -12.5z" />
    <glyph glyph-name="Eogonek" unicode="&#x118;" horiz-adv-x="623" 
d="M38 0v10h13q27 0 45.5 8t27.5 24t9 40v554q0 23 -9 38t-27.5 22.5t-45.5 7.5h-13v10h503l6 -175h-10l-2 33q-3 50 -17 79t-43.5 41t-80.5 12h-160v-325h251v-10h-251v-359h185q54 0 86 12t46.5 41t17.5 79l2 33h10l-7 -175h-536zM472 -240q-54 0 -90 24t-36 72
q0 32 17 59t48.5 48.5t72.5 36.5h21q-40 -13 -61.5 -45t-21.5 -86q0 -48 18 -72.5t56 -24.5q15 0 30.5 3.5t33.5 10.5v-10q-16 -7 -39 -11.5t-49 -4.5z" />
    <glyph glyph-name="eogonek" unicode="&#x119;" horiz-adv-x="535" 
d="M354 -233q-54 0 -90 24t-36 72q0 28 13 51.5t39 44t64 36.5q-19 -3 -30 -4t-22 -1q-112 0 -174.5 72t-62.5 202q0 140 58 211t164 71q97 0 152.5 -60t55.5 -179v-24h-333q1 -102 15 -164t45.5 -90.5t82.5 -28.5q38 0 67.5 14t49.5 41.5t27 67.5q12 -2 18 -12t6 -21
q0 -22 -22 -48t-68 -40q-34 -15 -51.5 -45.5t-17.5 -80.5q0 -48 18 -72.5t56 -24.5q15 0 30.5 3.5t33.5 10.5v-10q-16 -7 -39 -11.5t-49 -4.5zM384 293q0 88 -11 141t-35 77.5t-63 24.5q-41 0 -67 -24.5t-39 -77.5t-17 -141h232z" />
    <glyph glyph-name="Ecaron" unicode="&#x11a;" horiz-adv-x="623" 
d="M38 0v10h13q27 0 45.5 8t27.5 24t9 40v554q0 23 -9 38t-27.5 22.5t-45.5 7.5h-13v10h503l6 -175h-10l-2 33q-3 50 -17 79t-43.5 41t-80.5 12h-160v-325h251v-10h-251v-359h185q54 0 86 12t46.5 41t17.5 79l2 33h10l-7 -175h-536zM272 771q-13 23 -31.5 49.5t-38.5 53
t-40 47.5v10h10q19 -11 45.5 -28.5t52 -36.5t40.5 -35q15 16 40 35t51.5 36.5t45.5 28.5h10v-10q-19 -21 -39.5 -47.5t-39 -53t-31.5 -49.5h-75z" />
    <glyph glyph-name="ecaron" unicode="&#x11b;" horiz-adv-x="535" 
d="M292 -10q-112 0 -174.5 72t-62.5 202q0 140 58 211t164 71q97 0 152.5 -60t55.5 -179v-24h-333q1 -102 15 -164t45.5 -90.5t82.5 -28.5q38 0 67.5 14t49.5 41.5t27 67.5q12 -2 18 -12t6 -21q0 -20 -19 -43.5t-56.5 -40t-95.5 -16.5zM384 293q0 88 -11 141t-35 77.5
t-63 24.5q-41 0 -67 -24.5t-39 -77.5t-17 -141h232zM237 606q-13 23 -31.5 49.5t-38.5 53t-40 47.5v10h10q19 -11 45.5 -28.5t52 -36.5t40.5 -35q15 16 40 35t51.5 36.5t45.5 28.5h10v-10q-19 -21 -39.5 -47.5t-39 -53t-31.5 -49.5h-75z" />
    <glyph glyph-name="Gcircumflex" unicode="&#x11c;" horiz-adv-x="714" 
d="M401 -10q-116 0 -192.5 46t-114 128.5t-37.5 193.5q0 108 37 190.5t112.5 129t190.5 46.5q74 0 125.5 -14t78.5 -38.5t27 -56.5q0 -34 -21.5 -51.5t-71.5 -21.5q0 62 -14.5 100t-45.5 55t-82 17q-81 0 -130.5 -35.5t-72 -114t-22.5 -206.5q0 -129 25 -207.5t80 -114.5
t144 -36q29 0 56 4.5t48 10.5v237q0 23 -9 38t-27.5 22.5t-45.5 7.5h-4v10h260v-10h-4q-26 0 -41 -8t-21.5 -24t-6.5 -40v-212q-50 -23 -103 -34.5t-118 -11.5zM246 781q20 22 40 48t38.5 53t31.5 49h75q13 -22 31.5 -49t39 -53t39.5 -48v-10h-10q-19 11 -45.5 28.5
t-51.5 36.5t-40 35q-15 -16 -40.5 -35t-52 -36.5t-45.5 -28.5h-10v10z" />
    <glyph glyph-name="gcircumflex" unicode="&#x11d;" horiz-adv-x="538" 
d="M231 -240q-104 0 -156 37.5t-52 99.5q0 35 16 60.5t49 40.5t83 15q-39 12 -58.5 39t-19.5 57q0 29 19.5 55.5t60.5 40.5q-48 17 -76.5 56.5t-28.5 99.5q0 86 47 135.5t141 49.5q35 0 63 -8.5t50 -24.5q15 16 40 35t59 19q29 0 43.5 -15.5t14.5 -37.5q0 -20 -12.5 -33
t-40.5 -13q0 32 -10.5 47t-33.5 15q-13 0 -24 -4.5t-28 -18.5q29 -24 44 -61t15 -82q0 -74 -44.5 -123t-135.5 -49q-19 0 -36.5 2.5t-33.5 6.5q-24 -10 -33 -24t-9 -31q0 -26 18.5 -38t55.5 -12h113q89 0 127 -42t38 -107q0 -86 -64.5 -136.5t-200.5 -50.5zM239 -230
q95 0 140 34.5t45 101.5q0 52 -27.5 76.5t-84.5 24.5h-108q-27 0 -51.5 -10t-40 -35t-15.5 -69q0 -41 17 -68.5t48.5 -41t76.5 -13.5zM253 202q33 0 52.5 17t28 53t8.5 92q0 59 -9 97t-28.5 56.5t-52.5 18.5q-32 0 -52 -19.5t-29 -57.5t-9 -96q0 -55 9.5 -91t29.5 -53
t52 -17zM112 616q20 22 40 48t38.5 53t31.5 49h75q13 -22 31.5 -49t39 -53t39.5 -48v-10h-10q-19 11 -45.5 28.5t-51.5 36.5t-40 35q-15 -16 -40.5 -35t-52 -36.5t-45.5 -28.5h-10v10z" />
    <glyph glyph-name="Gbreve" unicode="&#x11e;" horiz-adv-x="714" 
d="M401 -10q-116 0 -192.5 46t-114 128.5t-37.5 193.5q0 108 37 190.5t112.5 129t190.5 46.5q74 0 125.5 -14t78.5 -38.5t27 -56.5q0 -34 -21.5 -51.5t-71.5 -21.5q0 62 -14.5 100t-45.5 55t-82 17q-81 0 -130.5 -35.5t-72 -114t-22.5 -206.5q0 -129 25 -207.5t80 -114.5
t144 -36q29 0 56 4.5t48 10.5v237q0 23 -9 38t-27.5 22.5t-45.5 7.5h-4v10h260v-10h-4q-26 0 -41 -8t-21.5 -24t-6.5 -40v-212q-50 -23 -103 -34.5t-118 -11.5zM394 771q-47 0 -77 18.5t-45 50t-18 68.5h10q8 -24 22.5 -39t41 -22t66.5 -7q41 0 67 7t41 22t22 39h10
q-3 -37 -18 -68.5t-44.5 -50t-77.5 -18.5z" />
    <glyph glyph-name="gbreve" unicode="&#x11f;" horiz-adv-x="538" 
d="M231 -240q-104 0 -156 37.5t-52 99.5q0 35 16 60.5t49 40.5t83 15q-39 12 -58.5 39t-19.5 57q0 29 19.5 55.5t60.5 40.5q-48 17 -76.5 56.5t-28.5 99.5q0 86 47 135.5t141 49.5q35 0 63 -8.5t50 -24.5q15 16 40 35t59 19q29 0 43.5 -15.5t14.5 -37.5q0 -20 -12.5 -33
t-40.5 -13q0 32 -10.5 47t-33.5 15q-13 0 -24 -4.5t-28 -18.5q29 -24 44 -61t15 -82q0 -74 -44.5 -123t-135.5 -49q-19 0 -36.5 2.5t-33.5 6.5q-24 -10 -33 -24t-9 -31q0 -26 18.5 -38t55.5 -12h113q89 0 127 -42t38 -107q0 -86 -64.5 -136.5t-200.5 -50.5zM239 -230
q95 0 140 34.5t45 101.5q0 52 -27.5 76.5t-84.5 24.5h-108q-27 0 -51.5 -10t-40 -35t-15.5 -69q0 -41 17 -68.5t48.5 -41t76.5 -13.5zM253 202q33 0 52.5 17t28 53t8.5 92q0 59 -9 97t-28.5 56.5t-52.5 18.5q-32 0 -52 -19.5t-29 -57.5t-9 -96q0 -55 9.5 -91t29.5 -53
t52 -17zM256 606q-47 0 -77 18.5t-45 50t-18 68.5h10q8 -24 22.5 -39t41 -22t66.5 -7q41 0 67 7t41 22t22 39h10q-3 -37 -18 -68.5t-44.5 -50t-77.5 -18.5z" />
    <glyph glyph-name="Gdot" unicode="&#x120;" horiz-adv-x="714" 
d="M401 -10q-116 0 -192.5 46t-114 128.5t-37.5 193.5q0 108 37 190.5t112.5 129t190.5 46.5q74 0 125.5 -14t78.5 -38.5t27 -56.5q0 -34 -21.5 -51.5t-71.5 -21.5q0 62 -14.5 100t-45.5 55t-82 17q-81 0 -130.5 -35.5t-72 -114t-22.5 -206.5q0 -129 25 -207.5t80 -114.5
t144 -36q29 0 56 4.5t48 10.5v237q0 23 -9 38t-27.5 22.5t-45.5 7.5h-4v10h260v-10h-4q-26 0 -41 -8t-21.5 -24t-6.5 -40v-212q-50 -23 -103 -34.5t-118 -11.5zM403 797q-19 0 -31.5 12.5t-12.5 43.5q0 32 12.5 44t31.5 12q18 0 31 -12t13 -44q0 -31 -13 -43.5t-31 -12.5z
" />
    <glyph glyph-name="gdot" unicode="&#x121;" horiz-adv-x="538" 
d="M231 -240q-104 0 -156 37.5t-52 99.5q0 35 16 60.5t49 40.5t83 15q-39 12 -58.5 39t-19.5 57q0 29 19.5 55.5t60.5 40.5q-48 17 -76.5 56.5t-28.5 99.5q0 86 47 135.5t141 49.5q35 0 63 -8.5t50 -24.5q15 16 40 35t59 19q29 0 43.5 -15.5t14.5 -37.5q0 -20 -12.5 -33
t-40.5 -13q0 32 -10.5 47t-33.5 15q-13 0 -24 -4.5t-28 -18.5q29 -24 44 -61t15 -82q0 -74 -44.5 -123t-135.5 -49q-19 0 -36.5 2.5t-33.5 6.5q-24 -10 -33 -24t-9 -31q0 -26 18.5 -38t55.5 -12h113q89 0 127 -42t38 -107q0 -86 -64.5 -136.5t-200.5 -50.5zM239 -230
q95 0 140 34.5t45 101.5q0 52 -27.5 76.5t-84.5 24.5h-108q-27 0 -51.5 -10t-40 -35t-15.5 -69q0 -41 17 -68.5t48.5 -41t76.5 -13.5zM253 202q33 0 52.5 17t28 53t8.5 92q0 59 -9 97t-28.5 56.5t-52.5 18.5q-32 0 -52 -19.5t-29 -57.5t-9 -96q0 -55 9.5 -91t29.5 -53
t52 -17zM256 632q-19 0 -31.5 12.5t-12.5 43.5q0 32 12.5 44t31.5 12q18 0 31 -12t13 -44q0 -31 -13 -43.5t-31 -12.5z" />
    <glyph glyph-name="uni0122" unicode="&#x122;" horiz-adv-x="714" 
d="M401 -10q-116 0 -192.5 46t-114 128.5t-37.5 193.5q0 108 37 190.5t112.5 129t190.5 46.5q74 0 125.5 -14t78.5 -38.5t27 -56.5q0 -34 -21.5 -51.5t-71.5 -21.5q0 62 -14.5 100t-45.5 55t-82 17q-81 0 -130.5 -35.5t-72 -114t-22.5 -206.5q0 -129 25 -207.5t80 -114.5
t144 -36q29 0 56 4.5t48 10.5v237q0 23 -9 38t-27.5 22.5t-45.5 7.5h-4v10h260v-10h-4q-26 0 -41 -8t-21.5 -24t-6.5 -40v-212q-50 -23 -103 -34.5t-118 -11.5zM329 -213q9 29 15 53.5t11 48.5t9 50h75v-10q-10 -21 -26 -46.5t-35 -52t-39 -51.5h-10v8z" />
    <glyph glyph-name="uni0123" unicode="&#x123;" horiz-adv-x="538" 
d="M214 616q11 21 26.5 46.5t34.5 52.5t39 51h10v-14q-8 -25 -14.5 -49t-11.5 -47.5t-9 -49.5h-75v10zM231 -240q-104 0 -156 37.5t-52 99.5q0 35 16 60.5t49 40.5t83 15q-39 12 -58.5 39t-19.5 57q0 29 19.5 55.5t60.5 40.5q-48 17 -76.5 56.5t-28.5 99.5q0 86 47 135.5
t141 49.5q35 0 63 -8.5t50 -24.5q15 16 40 35t59 19q29 0 43.5 -15.5t14.5 -37.5q0 -20 -12.5 -33t-40.5 -13q0 32 -10.5 47t-33.5 15q-13 0 -24 -4.5t-28 -18.5q29 -24 44 -61t15 -82q0 -74 -44.5 -123t-135.5 -49q-19 0 -36.5 2.5t-33.5 6.5q-24 -10 -33 -24t-9 -31
q0 -26 18.5 -38t55.5 -12h113q89 0 127 -42t38 -107q0 -86 -64.5 -136.5t-200.5 -50.5zM239 -230q95 0 140 34.5t45 101.5q0 52 -27.5 76.5t-84.5 24.5h-108q-27 0 -51.5 -10t-40 -35t-15.5 -69q0 -41 17 -68.5t48.5 -41t76.5 -13.5zM253 202q33 0 52.5 17t28 53t8.5 92
q0 59 -9 97t-28.5 56.5t-52.5 18.5q-32 0 -52 -19.5t-29 -57.5t-9 -96q0 -55 9.5 -91t29.5 -53t52 -17z" />
    <glyph glyph-name="Hcircumflex" unicode="&#x124;" horiz-adv-x="793" 
d="M39 0v10h13q27 0 45.5 8t27.5 24t9 40v554q0 23 -9 38t-27.5 22.5t-45.5 7.5h-13v10h291v-10h-13q-27 0 -45.5 -8t-27.5 -24t-9 -40v-254h324v254q0 24 -9 40t-27 24t-46 8h-13v10h291v-10h-13q-27 0 -45 -7.5t-27.5 -22.5t-9.5 -38v-554q0 -24 9.5 -40t27.5 -24t45 -8
h13v-10h-291v10h13q28 0 46 8t27 24t9 40v286h-324v-286q0 -24 9 -40t27.5 -24t45.5 -8h13v-10h-291zM249 781q20 22 40 48t38.5 53t31.5 49h75q13 -22 31.5 -49t39 -53t39.5 -48v-10h-10q-19 11 -45.5 28.5t-51.5 36.5t-40 35q-15 -16 -40.5 -35t-52 -36.5t-45.5 -28.5h-10
v10z" />
    <glyph glyph-name="hcircumflex" unicode="&#x125;" horiz-adv-x="635" 
d="M18 0v10h8q31 0 49 8.5t25.5 28.5t7.5 55v558q0 34 -7.5 53.5t-24.5 28t-48 8.5h-5v10h179v-202v-38.5v-38.5t-1 -39h2q14 47 39 69t54.5 28.5t54.5 6.5q89 0 132.5 -46.5t43.5 -149.5v-248q0 -35 7 -55t23.5 -28.5t44.5 -8.5h5v-10h-174v384q0 65 -24 106t-83 41
q-47 0 -74 -25t-38.5 -64.5t-11.5 -82.5v-257q0 -35 7.5 -55t25 -28.5t47.5 -8.5h5v-10h-269zM162 808q20 22 40 48t38.5 53t31.5 49h75q13 -22 31.5 -49t39 -53t39.5 -48v-10h-10q-19 11 -45.5 28.5t-51.5 36.5t-40 35q-15 -16 -40.5 -35t-52 -36.5t-45.5 -28.5h-10v10z
" />
    <glyph glyph-name="Hbar" unicode="&#x126;" horiz-adv-x="793" 
d="M39 0v10h13q27 0 45.5 8t27.5 24t9 40v437h-96v10h96v107q0 23 -9 38t-27.5 22.5t-45.5 7.5h-13v10h291v-10h-13q-27 0 -45.5 -8t-27.5 -24t-9 -40v-103h324v103q0 24 -9 40t-27 24t-46 8h-13v10h291v-10h-13q-27 0 -45 -7.5t-27.5 -22.5t-9.5 -38v-107h95v-10h-95v-437
q0 -24 9.5 -40t27.5 -24t45 -8h13v-10h-291v10h13q28 0 46 8t27 24t9 40v286h-324v-286q0 -24 9 -40t27.5 -24t45.5 -8h13v-10h-291zM235 378h324v141h-324v-141z" />
    <glyph glyph-name="hbar" unicode="&#x127;" horiz-adv-x="635" 
d="M18 0v10h8q31 0 49 8.5t25.5 28.5t7.5 55v510h-91v10h91v38q0 34 -7.5 53.5t-24.5 28t-48 8.5h-5v10h179v-138h171v-10h-171v-74v-58t-1 -58h2q14 47 39 69t54.5 28.5t54.5 6.5q89 0 132.5 -46.5t43.5 -149.5v-228q0 -35 7 -55t23.5 -28.5t44.5 -8.5h5v-10h-174v364
q0 65 -24 106t-83 41q-47 0 -74 -25t-38.5 -64.5t-11.5 -82.5v-237q0 -35 7.5 -55t25 -28.5t47.5 -8.5h5v-10h-269z" />
    <glyph glyph-name="Itilde" unicode="&#x128;" horiz-adv-x="367" 
d="M38 0v10h13q27 0 45.5 8t27.5 24t9 40v554q0 23 -9 38t-27.5 22.5t-45.5 7.5h-13v10h291v-10h-13q-27 0 -45.5 -8t-27.5 -24t-9 -40v-550q0 -24 9 -40t27.5 -24t45.5 -8h13v-10h-291zM265 771q-25 0 -49 9.5t-47.5 22t-47.5 22t-51 9.5q-33 0 -41.5 -16.5t-13.5 -36.5
h-10q3 30 13 57t30.5 44t52.5 17q26 0 49.5 -9.5t47 -22t48 -22t50.5 -9.5q31 0 41 15.5t14 37.5h10q-3 -28 -13 -55.5t-30 -45t-53 -17.5z" />
    <glyph glyph-name="itilde" unicode="&#x129;" horiz-adv-x="320" 
d="M23 0v10h13q30 0 48 8t26 25t8 44v361q0 28 -8 45t-26 25t-48 8h-3v10h179v-444q0 -30 8 -48t26.5 -26t47.5 -8h13v-10h-284zM236 606q-25 0 -49 9.5t-47.5 22t-47.5 22t-51 9.5q-33 0 -41.5 -16.5t-13.5 -36.5h-10q3 30 13 57t30.5 44t52.5 17q26 0 49.5 -9.5t47 -22
t48 -22t50.5 -9.5q31 0 41 15.5t14 37.5h10q-3 -28 -13 -55.5t-30 -45t-53 -17.5z" />
    <glyph glyph-name="Imacron" unicode="&#x12a;" horiz-adv-x="367" 
d="M38 0v10h13q27 0 45.5 8t27.5 24t9 40v554q0 23 -9 38t-27.5 22.5t-45.5 7.5h-13v10h291v-10h-13q-27 0 -45.5 -8t-27.5 -24t-9 -40v-550q0 -24 9 -40t27.5 -24t45.5 -8h13v-10h-291zM38 801v20h290v-20h-290z" />
    <glyph glyph-name="imacron" unicode="&#x12b;" horiz-adv-x="320" 
d="M23 0v10h13q30 0 48 8t26 25t8 44v361q0 28 -8 45t-26 25t-48 8h-3v10h179v-444q0 -30 8 -48t26.5 -26t47.5 -8h13v-10h-284zM0 636v20h290v-20h-290z" />
    <glyph glyph-name="Ibreve" unicode="&#x12c;" horiz-adv-x="367" 
d="M38 0v10h13q27 0 45.5 8t27.5 24t9 40v554q0 23 -9 38t-27.5 22.5t-45.5 7.5h-13v10h291v-10h-13q-27 0 -45.5 -8t-27.5 -24t-9 -40v-550q0 -24 9 -40t27.5 -24t45.5 -8h13v-10h-291zM183 771q-47 0 -77 18.5t-45 50t-18 68.5h10q8 -24 22.5 -39t41 -22t66.5 -7
q41 0 67 7t41 22t22 39h10q-3 -37 -18 -68.5t-44.5 -50t-77.5 -18.5z" />
    <glyph glyph-name="ibreve" unicode="&#x12d;" horiz-adv-x="320" 
d="M23 0v10h13q30 0 48 8t26 25t8 44v361q0 28 -8 45t-26 25t-48 8h-3v10h179v-444q0 -30 8 -48t26.5 -26t47.5 -8h13v-10h-284zM152 606q-47 0 -77 18.5t-45 50t-18 68.5h10q8 -24 22.5 -39t41 -22t66.5 -7q41 0 67 7t41 22t22 39h10q-3 -37 -18 -68.5t-44.5 -50
t-77.5 -18.5z" />
    <glyph glyph-name="Iogonek" unicode="&#x12e;" horiz-adv-x="367" 
d="M38 0v10h13q27 0 45.5 8t27.5 24t9 40v554q0 23 -9 38t-27.5 22.5t-45.5 7.5h-13v10h291v-10h-13q-27 0 -45.5 -8t-27.5 -24t-9 -40v-550q0 -24 9 -40t27.5 -24t45.5 -8h13v-10h-291zM211 -240q-54 0 -90 24t-36 72q0 32 17 59t48.5 48.5t72.5 36.5h21q-40 -13 -61.5 -45
t-21.5 -86q0 -48 18 -72.5t56 -24.5q15 0 30.5 3.5t33.5 10.5v-10q-16 -7 -39 -11.5t-49 -4.5z" />
    <glyph glyph-name="iogonek" unicode="&#x12f;" horiz-adv-x="320" 
d="M23 0v10h13q30 0 48 8t26 25t8 44v361q0 28 -8 45t-26 25t-48 8h-3v10h179v-444q0 -30 8 -48t26.5 -26t47.5 -8h13v-10h-284zM160 632q-19 0 -31.5 12.5t-12.5 43.5q0 32 12.5 44t31.5 12q18 0 31 -12t13 -44q0 -31 -13 -43.5t-31 -12.5zM193 -240q-54 0 -90 24t-36 72
q0 32 17 59t48.5 48.5t72.5 36.5h21q-40 -13 -61.5 -45t-21.5 -86q0 -48 18 -72.5t56 -24.5q15 0 30.5 3.5t33.5 10.5v-10q-16 -7 -39 -11.5t-49 -4.5z" />
    <glyph glyph-name="Idotaccent" unicode="&#x130;" horiz-adv-x="367" 
d="M38 0v10h13q27 0 45.5 8t27.5 24t9 40v554q0 23 -9 38t-27.5 22.5t-45.5 7.5h-13v10h291v-10h-13q-27 0 -45.5 -8t-27.5 -24t-9 -40v-550q0 -24 9 -40t27.5 -24t45.5 -8h13v-10h-291zM183 797q-19 0 -31.5 12.5t-12.5 43.5q0 32 12.5 44t31.5 12q18 0 31 -12t13 -44
q0 -31 -13 -43.5t-31 -12.5z" />
    <glyph glyph-name="dotlessi" unicode="&#x131;" horiz-adv-x="320" 
d="M23 0v10h13q30 0 48 8t26 25t8 44v361q0 28 -8 45t-26 25t-48 8h-3v10h179v-444q0 -30 8 -48t26.5 -26t47.5 -8h13v-10h-284z" />
    <glyph glyph-name="IJ" unicode="&#x132;" horiz-adv-x="696" 
d="M38 0v10h13q27 0 45.5 8t27.5 24t9 40v554q0 23 -9 38t-27.5 22.5t-45.5 7.5h-13v10h291v-10h-13q-27 0 -45.5 -8t-27.5 -24t-9 -40v-550q0 -24 9 -40t27.5 -24t45.5 -8h13v-10h-291zM328 -240v10h9q43 0 73 16.5t46 57t16 110.5v682q0 23 -9 38t-27.5 22.5t-45.5 7.5
h-13v10h291v-10h-13q-27 0 -45.5 -8t-27.5 -24t-9 -40v-640q0 -67 -17.5 -112t-48.5 -71t-72.5 -37.5t-89.5 -11.5h-17z" />
    <glyph glyph-name="ij" unicode="&#x133;" horiz-adv-x="620" 
d="M23 0v10h13q30 0 48 8t26 25t8 44v361q0 28 -8 45t-26 25t-48 8h-3v10h179v-444q0 -30 8 -48t26.5 -26t47.5 -8h13v-10h-284zM160 632q-19 0 -31.5 12.5t-12.5 43.5q0 32 12.5 44t31.5 12q18 0 31 -12t13 -44q0 -31 -13 -43.5t-31 -12.5zM308 -240v10h7q36 0 61.5 18
t38.5 66t13 137v457q0 28 -8 45t-26 25t-48 8h-3v10h179v-544q0 -89 -25.5 -140t-70 -71.5t-102.5 -20.5h-16zM470 632q-19 0 -31.5 12.5t-12.5 43.5q0 32 12.5 44t31.5 12q18 0 31 -12t13 -44q0 -31 -13 -43.5t-31 -12.5z" />
    <glyph glyph-name="Jcircumflex" unicode="&#x134;" horiz-adv-x="357" 
d="M-11 -240v10h9q43 0 73 16.5t46 57t16 110.5v682q0 23 -9 38t-27.5 22.5t-45.5 7.5h-13v10h291v-10h-13q-27 0 -45.5 -8t-27.5 -24t-9 -40v-640q0 -67 -17.5 -112t-48.5 -71t-72.5 -37.5t-89.5 -11.5h-17zM35 781q20 22 40 48t38.5 53t31.5 49h75q13 -22 31.5 -49t39 -53
t39.5 -48v-10h-10q-19 11 -45.5 28.5t-51.5 36.5t-40 35q-15 -16 -40.5 -35t-52 -36.5t-45.5 -28.5h-10v10z" />
    <glyph glyph-name="jcircumflex" unicode="&#x135;" horiz-adv-x="300" 
d="M-12 -240v10h7q36 0 61.5 18t38.5 66t13 137v457q0 28 -8 45t-26 25t-48 8h-3v10h179v-544q0 -89 -25.5 -140t-70 -71.5t-102.5 -20.5h-16zM-12 616q20 22 40 48t38.5 53t31.5 49h75q13 -22 31.5 -49t39 -53t39.5 -48v-10h-10q-19 11 -45.5 28.5t-51.5 36.5t-40 35
q-15 -16 -40.5 -35t-52 -36.5t-45.5 -28.5h-10v10z" />
    <glyph glyph-name="uni0136" unicode="&#x136;" horiz-adv-x="700" 
d="M38 0v10h13q27 0 45.5 8t27.5 24t9 40v554q0 23 -9 38t-27.5 22.5t-45.5 7.5h-13v10h291v-10h-13q-27 0 -45.5 -8t-27.5 -24t-9 -40v-336l255 289q18 20 29.5 35.5t17 28t5.5 21.5q0 12 -10 19.5t-31 10.5t-53 3v11h221v-11q-22 0 -43 -8.5t-45 -29.5t-56 -57l-154 -173
l220 -312q23 -32 40.5 -54t31 -35t25 -18.5t23.5 -5.5h2v-10h-11q-50 0 -82.5 4t-53.5 14t-38 27.5t-36 44.5l-188 269l-69 -79v-198q0 -24 9 -40t27.5 -24t45.5 -8h13v-10h-291zM307 -213q9 29 15 53.5t11 48.5t9 50h75v-10q-10 -21 -26 -46.5t-35 -52t-39 -51.5h-10v8z
" />
    <glyph glyph-name="uni0137" unicode="&#x137;" horiz-adv-x="585" 
d="M18 0v10h8q30 0 48 8t26 25t8 44v585q0 28 -8 45t-26 25t-48 8h-3v10h179v-414v-39.5t-0.5 -39.5t-1.5 -40l170 190q16 18 27 32.5t16.5 26t5.5 19.5q0 17 -22 24t-68 7v10h221v-10q-25 0 -44.5 -5t-43 -24t-62.5 -62l-78 -88l154 -237q31 -47 49.5 -68t31.5 -26.5
t26 -5.5h3v-10h-44q-30 0 -52.5 4t-40 12.5t-32 23t-28.5 36.5l-128 202l-59 -66v-120q0 -30 8 -48t26 -26t48 -8h3v-10h-269zM249 -213q9 29 15 53.5t11 48.5t9 50h75v-10q-10 -21 -26 -46.5t-35 -52t-39 -51.5h-10v8z" />
    <glyph glyph-name="kgreenlandic" unicode="&#x138;" horiz-adv-x="585" 
d="M18 0v10h8q30 0 48 8t26 25t8 44v361q0 28 -8 45t-26 25t-48 8h-8v10h184v-190v-39.5t-0.5 -39.5t-1.5 -40l170 190q16 18 27 32.5t16.5 26t5.5 19.5q0 17 -22 24t-68 7v10h221v-10q-19 0 -34.5 -2.5t-31 -11t-35.5 -27t-49 -50.5l-78 -88l154 -237q31 -47 49.5 -68
t31.5 -26.5t26 -5.5h3v-10h-44q-30 0 -52.5 4t-40 12.5t-32 23t-28.5 36.5l-128 202l-59 -66v-120q0 -30 8 -48t26 -26t48 -8h3v-10h-269z" />
    <glyph glyph-name="Lacute" unicode="&#x139;" horiz-adv-x="623" 
d="M38 0v10h13q27 0 45.5 8t27.5 24t9 40v554q0 23 -9 38t-27.5 22.5t-45.5 7.5h-13v10h291v-10h-13q-27 0 -45.5 -8t-27.5 -24t-9 -40v-622h185q53 0 84.5 15.5t46.5 53.5t19 103l2 33h10l-7 -215h-536zM161 781q14 22 29.5 48t30 53t24.5 49h90v-10q-11 -13 -30.5 -32
t-43 -40.5t-47 -42t-43.5 -35.5h-10v10z" />
    <glyph glyph-name="lacute" unicode="&#x13a;" horiz-adv-x="310" 
d="M13 0v10h13q30 0 48 8t26 25t8 44v585q0 28 -8 45t-26 25t-48 8h-13v10h189v-668q0 -30 8 -48t26 -26t48 -8h13v-10h-284zM118 809q14 22 29.5 48t30 53t24.5 49h90v-10q-11 -13 -30.5 -32t-43 -40.5t-47 -42t-43.5 -35.5h-10v10z" />
    <glyph glyph-name="uni013B" unicode="&#x13b;" horiz-adv-x="623" 
d="M38 0v10h13q27 0 45.5 8t27.5 24t9 40v554q0 23 -9 38t-27.5 22.5t-45.5 7.5h-13v10h291v-10h-13q-27 0 -45.5 -8t-27.5 -24t-9 -40v-622h185q53 0 84.5 15.5t46.5 53.5t19 103l2 33h10l-7 -215h-536zM263 -213q9 29 15 53.5t11 48.5t9 50h75v-10q-10 -21 -26 -46.5
t-35 -52t-39 -51.5h-10v8z" />
    <glyph glyph-name="uni013C" unicode="&#x13c;" horiz-adv-x="310" 
d="M13 0v10h13q30 0 48 8t26 25t8 44v585q0 28 -8 45t-26 25t-48 8h-13v10h189v-668q0 -30 8 -48t26 -26t48 -8h13v-10h-284zM87 -213q9 29 15 53.5t11 48.5t9 50h75v-10q-10 -21 -26 -46.5t-35 -52t-39 -51.5h-10v8z" />
    <glyph glyph-name="Lcaron" unicode="&#x13d;" horiz-adv-x="623" 
d="M424 568q9 26 15 49.5t11 47t9 49.5h75v-10q-10 -21 -26 -46.5t-35 -52t-39 -51.5h-10v14zM38 0v10h13q27 0 45.5 8t27.5 24t9 40v554q0 23 -9 38t-27.5 22.5t-45.5 7.5h-13v10h291v-10h-13q-27 0 -45.5 -8t-27.5 -24t-9 -40v-622h185q53 0 84.5 15.5t46.5 53.5t19 103
l2 33h10l-7 -215h-536z" />
    <glyph glyph-name="lcaron" unicode="&#x13e;" horiz-adv-x="310" 
d="M259 614q9 26 15 49.5t11 47t9 49.5h75v-10q-10 -21 -26 -46.5t-35 -52t-39 -51.5h-10v14zM13 0v10h13q30 0 48 8t26 25t8 44v585q0 28 -8 45t-26 25t-48 8h-13v10h189v-668q0 -30 8 -48t26 -26t48 -8h13v-10h-284z" />
    <glyph glyph-name="Ldot" unicode="&#x13f;" horiz-adv-x="623" 
d="M38 0v10h13q27 0 45.5 8t27.5 24t9 40v554q0 23 -9 38t-27.5 22.5t-45.5 7.5h-13v10h291v-10h-13q-27 0 -45.5 -8t-27.5 -24t-9 -40v-622h185q53 0 84.5 15.5t46.5 53.5t19 103l2 33h10l-7 -215h-536zM487 317q-19 0 -31.5 12.5t-12.5 43.5q0 32 12.5 44t31.5 12
q18 0 31 -12t13 -44q0 -31 -13 -43.5t-31 -12.5z" />
    <glyph glyph-name="ldot" unicode="&#x140;" horiz-adv-x="370" 
d="M13 0v10h13q30 0 48 8t26 25t8 44v585q0 28 -8 45t-26 25t-48 8h-13v10h189v-668q0 -30 8 -48t26 -26t48 -8h13v-10h-284zM340 262q-19 0 -31.5 12.5t-12.5 43.5q0 32 12.5 44t31.5 12q18 0 31 -12t13 -44q0 -31 -13 -43.5t-31 -12.5z" />
    <glyph glyph-name="Lslash" unicode="&#x141;" horiz-adv-x="623" 
d="M38 0v10h13q27 0 45.5 8t27.5 24t9 40v224l-95 -55v11l95 55v319q0 23 -9 38t-27.5 22.5t-45.5 7.5h-13v10h291v-10h-13q-27 0 -45.5 -8t-27.5 -24t-9 -40v-256l156 90v-11l-156 -90v-355h185q53 0 84.5 15.5t46.5 53.5t19 103l2 33h10l-7 -215h-536z" />
    <glyph glyph-name="lslash" unicode="&#x142;" horiz-adv-x="324" 
d="M28 0v10h13q30 0 48 8t26 25t8 44v212l-85 -49v12l85 49v361q0 28 -8 45t-26 25t-48 8h-13v10h189v-395l94 54v-12l-94 -54v-261q0 -30 8 -48t26.5 -26t47.5 -8h13v-10h-284z" />
    <glyph glyph-name="Nacute" unicode="&#x143;" horiz-adv-x="763" 
d="M38 0v10h29q27 0 45.5 8t27.5 24t9 40v554q0 23 -9 38t-27.5 22.5t-45.5 7.5h-29v10h195l381 -571v489q0 24 -9 40t-27 24t-46 8h-28v10h231v-10h-29q-27 0 -45 -8t-27.5 -24t-9.5 -40v-632h-30l-435 652v-570q0 -24 9 -40t27.5 -24t45.5 -8h28v-10h-231zM358 781
q14 22 29.5 48t30 53t24.5 49h90v-10q-11 -13 -30.5 -32t-43 -40.5t-47 -42t-43.5 -35.5h-10v10z" />
    <glyph glyph-name="nacute" unicode="&#x144;" horiz-adv-x="645" 
d="M28 0v10h8q31 0 49 8.5t25.5 28.5t7.5 55v334q0 34 -7.5 53.5t-24.5 28t-48 8.5h-5v10h178v-94h2q14 47 39 69t54.5 28.5t54.5 6.5q89 0 132.5 -46.5t43.5 -149.5v-248q0 -35 7 -55t23.5 -28.5t44.5 -8.5h5v-10h-174v384q0 65 -24 106t-83 41q-47 0 -74 -25t-38.5 -64.5
t-11.5 -82.5v-257q0 -35 7.5 -55t25 -28.5t47.5 -8.5h5v-10h-269zM291 616q14 22 29.5 48t30 53t24.5 49h90v-10q-11 -13 -30.5 -32t-43 -40.5t-47 -42t-43.5 -35.5h-10v10z" />
    <glyph glyph-name="uni0145" unicode="&#x145;" horiz-adv-x="763" 
d="M38 0v10h29q27 0 45.5 8t27.5 24t9 40v554q0 23 -9 38t-27.5 22.5t-45.5 7.5h-29v10h195l381 -571v489q0 24 -9 40t-27 24t-46 8h-28v10h231v-10h-29q-27 0 -45 -8t-27.5 -24t-9.5 -40v-632h-30l-435 652v-570q0 -24 9 -40t27.5 -24t45.5 -8h28v-10h-231zM336 -213
q9 29 15 53.5t11 48.5t9 50h75v-10q-10 -21 -26 -46.5t-35 -52t-39 -51.5h-10v8z" />
    <glyph glyph-name="uni0146" unicode="&#x146;" horiz-adv-x="645" 
d="M28 0v10h8q31 0 49 8.5t25.5 28.5t7.5 55v334q0 34 -7.5 53.5t-24.5 28t-48 8.5h-5v10h178v-94h2q14 47 39 69t54.5 28.5t54.5 6.5q89 0 132.5 -46.5t43.5 -149.5v-248q0 -35 7 -55t23.5 -28.5t44.5 -8.5h5v-10h-174v384q0 65 -24 106t-83 41q-47 0 -74 -25t-38.5 -64.5
t-11.5 -82.5v-257q0 -35 7.5 -55t25 -28.5t47.5 -8.5h5v-10h-269zM268 -213q9 29 15 53.5t11 48.5t9 50h75v-10q-10 -21 -26 -46.5t-35 -52t-39 -51.5h-10v8z" />
    <glyph glyph-name="Ncaron" unicode="&#x147;" horiz-adv-x="763" 
d="M38 0v10h29q27 0 45.5 8t27.5 24t9 40v554q0 23 -9 38t-27.5 22.5t-45.5 7.5h-29v10h195l381 -571v489q0 24 -9 40t-27 24t-46 8h-28v10h231v-10h-29q-27 0 -45 -8t-27.5 -24t-9.5 -40v-632h-30l-435 652v-570q0 -24 9 -40t27.5 -24t45.5 -8h28v-10h-231zM367 771
q-13 23 -31.5 49.5t-38.5 53t-40 47.5v10h10q19 -11 45.5 -28.5t52 -36.5t40.5 -35q15 16 40 35t51.5 36.5t45.5 28.5h10v-10q-19 -21 -39.5 -47.5t-39 -53t-31.5 -49.5h-75z" />
    <glyph glyph-name="ncaron" unicode="&#x148;" horiz-adv-x="645" 
d="M28 0v10h8q31 0 49 8.5t25.5 28.5t7.5 55v334q0 34 -7.5 53.5t-24.5 28t-48 8.5h-5v10h178v-94h2q14 47 39 69t54.5 28.5t54.5 6.5q89 0 132.5 -46.5t43.5 -149.5v-248q0 -35 7 -55t23.5 -28.5t44.5 -8.5h5v-10h-174v384q0 65 -24 106t-83 41q-47 0 -74 -25t-38.5 -64.5
t-11.5 -82.5v-257q0 -35 7.5 -55t25 -28.5t47.5 -8.5h5v-10h-269zM293 606q-13 23 -31.5 49.5t-38.5 53t-40 47.5v10h10q19 -11 45.5 -28.5t52 -36.5t40.5 -35q15 16 40 35t51.5 36.5t45.5 28.5h10v-10q-19 -21 -39.5 -47.5t-39 -53t-31.5 -49.5h-75z" />
    <glyph glyph-name="napostrophe" unicode="&#x149;" horiz-adv-x="780" 
d="M163 0v10h8q31 0 49 8.5t25.5 28.5t7.5 55v334q0 34 -7.5 53.5t-24.5 28t-48 8.5h-5v10h178v-94h2q14 47 39 69t54.5 28.5t54.5 6.5q89 0 132.5 -46.5t43.5 -149.5v-248q0 -35 7 -55t23.5 -28.5t44.5 -8.5h5v-10h-174v384q0 65 -24 106t-83 41q-47 0 -74 -25t-38.5 -64.5
t-11.5 -82.5v-257q0 -35 7.5 -55t25 -28.5t47.5 -8.5h5v-10h-269zM0 441q31 10 54.5 24t37 33t13.5 44q0 21 -8.5 32.5t-20.5 18t-24.5 12.5t-21 17t-8.5 31q0 30 18.5 45.5t46.5 15.5q31 0 54 -21.5t23 -71.5q0 -58 -38.5 -111.5t-125.5 -78.5v10z" />
    <glyph glyph-name="Eng" unicode="&#x14a;" horiz-adv-x="763" 
d="M449 -240v10h14q49 0 82.5 25.5t51 75t17.5 119.5v10l-455 652v-570q0 -24 9 -40t27.5 -24t45.5 -8h28v-10h-231v10h29q27 0 45.5 8t27.5 24t9 40v554q0 23 -9 38t-27.5 22.5t-45.5 7.5h-29v10h195l381 -547v465q0 24 -9 40t-27 24t-46 8h-28v10h231v-10h-29
q-27 0 -45 -8t-27.5 -24t-9.5 -40v-640q0 -89 -17 -140t-50.5 -71.5t-84.5 -20.5h-23z" />
    <glyph glyph-name="eng" unicode="&#x14b;" horiz-adv-x="635" 
d="M337 -240v10h6q32 0 54.5 16.5t34 57t11.5 110.5v430q0 65 -24 106t-83 41q-47 0 -74 -25t-38.5 -64.5t-11.5 -82.5v-257q0 -35 7.5 -55t25 -28.5t47.5 -8.5h5v-10h-269v10h8q31 0 49 8.5t25.5 28.5t7.5 55v334q0 34 -7.5 53.5t-24.5 28t-48 8.5h-5v10h178v-94h2
q14 47 39 69t54.5 28.5t54.5 6.5q89 0 132.5 -46.5t43.5 -149.5v-358q0 -89 -24 -140t-65.5 -71.5t-95.5 -20.5h-15z" />
    <glyph glyph-name="Omacron" unicode="&#x14c;" horiz-adv-x="742" 
d="M371 -10q-106 0 -176 46t-104.5 129t-34.5 194t34.5 193t105 127.5t176.5 45.5q101 0 170.5 -45.5t106 -128t36.5 -193.5t-36.5 -193.5t-106.5 -128.5t-171 -46zM371 0q53 0 91.5 20.5t63 64t36.5 111.5t12 162t-12 161.5t-36.5 111t-62.5 64t-91 20.5q-54 0 -92.5 -20.5
t-63.5 -64t-37 -111t-12 -161.5t12 -162t36.5 -111.5t63 -64t92.5 -20.5zM224 801v20h290v-20h-290z" />
    <glyph glyph-name="omacron" unicode="&#x14d;" horiz-adv-x="577" 
d="M287 -10q-108 0 -170 69t-62 210q0 140 59.5 208.5t175.5 68.5q108 0 170 -68.5t62 -208.5q0 -141 -59.5 -210t-175.5 -69zM289 0q49 0 79 27t43.5 86t13.5 156q0 96 -13.5 155t-43.5 85.5t-80 26.5q-49 0 -79 -26.5t-43.5 -85.5t-13.5 -155q0 -97 13.5 -156t44 -86
t79.5 -27zM141 636v20h290v-20h-290z" />
    <glyph glyph-name="Obreve" unicode="&#x14e;" horiz-adv-x="742" 
d="M371 -10q-106 0 -176 46t-104.5 129t-34.5 194t34.5 193t105 127.5t176.5 45.5q101 0 170.5 -45.5t106 -128t36.5 -193.5t-36.5 -193.5t-106.5 -128.5t-171 -46zM371 0q53 0 91.5 20.5t63 64t36.5 111.5t12 162t-12 161.5t-36.5 111t-62.5 64t-91 20.5q-54 0 -92.5 -20.5
t-63.5 -64t-37 -111t-12 -161.5t12 -162t36.5 -111.5t63 -64t92.5 -20.5zM371 771q-47 0 -77 18.5t-45 50t-18 68.5h10q8 -24 22.5 -39t41 -22t66.5 -7q41 0 67 7t41 22t22 39h10q-3 -37 -18 -68.5t-44.5 -50t-77.5 -18.5z" />
    <glyph glyph-name="obreve" unicode="&#x14f;" horiz-adv-x="577" 
d="M287 -10q-108 0 -170 69t-62 210q0 140 59.5 208.5t175.5 68.5q108 0 170 -68.5t62 -208.5q0 -141 -59.5 -210t-175.5 -69zM289 0q49 0 79 27t43.5 86t13.5 156q0 96 -13.5 155t-43.5 85.5t-80 26.5q-49 0 -79 -26.5t-43.5 -85.5t-13.5 -155q0 -97 13.5 -156t44 -86
t79.5 -27zM288 606q-47 0 -77 18.5t-45 50t-18 68.5h10q8 -24 22.5 -39t41 -22t66.5 -7q41 0 67 7t41 22t22 39h10q-3 -37 -18 -68.5t-44.5 -50t-77.5 -18.5z" />
    <glyph glyph-name="Ohungarumlaut" unicode="&#x150;" horiz-adv-x="742" 
d="M371 -10q-106 0 -176 46t-104.5 129t-34.5 194t34.5 193t105 127.5t176.5 45.5q101 0 170.5 -45.5t106 -128t36.5 -193.5t-36.5 -193.5t-106.5 -128.5t-171 -46zM371 0q53 0 91.5 20.5t63 64t36.5 111.5t12 162t-12 161.5t-36.5 111t-62.5 64t-91 20.5q-54 0 -92.5 -20.5
t-63.5 -64t-37 -111t-12 -161.5t12 -162t36.5 -111.5t63 -64t92.5 -20.5zM230 781q21 32 44.5 74t39.5 76h90v-10q-11 -13 -30.5 -32t-43 -40.5t-47 -42t-43.5 -35.5h-10v10zM410 781q21 32 44.5 74t39.5 76h90v-10q-11 -13 -30.5 -32t-43 -40.5t-47 -42t-43.5 -35.5h-10v10
z" />
    <glyph glyph-name="ohungarumlaut" unicode="&#x151;" horiz-adv-x="577" 
d="M287 -10q-108 0 -170 69t-62 210q0 140 59.5 208.5t175.5 68.5q108 0 170 -68.5t62 -208.5q0 -141 -59.5 -210t-175.5 -69zM289 0q49 0 79 27t43.5 86t13.5 156q0 96 -13.5 155t-43.5 85.5t-80 26.5q-49 0 -79 -26.5t-43.5 -85.5t-13.5 -155q0 -97 13.5 -156t44 -86
t79.5 -27zM149 616q21 32 44.5 74t39.5 76h90v-10q-11 -13 -30.5 -32t-43 -40.5t-47 -42t-43.5 -35.5h-10v10zM329 616q21 32 44.5 74t39.5 76h90v-10q-11 -13 -30.5 -32t-43 -40.5t-47 -42t-43.5 -35.5h-10v10z" />
    <glyph glyph-name="OE" unicode="&#x152;" horiz-adv-x="959" 
d="M371 -10q-106 0 -176 46t-104.5 129t-34.5 194t34.5 193t105 127.5t176.5 45.5q24 0 53.5 -3t49.5 -8h402l6 -175h-10l-2 33q-3 50 -17 79t-43.5 41t-80.5 12h-160v-325h251v-10h-251v-359h185q54 0 86 12t46.5 41t17.5 79l2 33h10l-7 -175h-436q-20 -4 -50 -7t-53 -3z
M371 0q29 0 54 4t44 11v683q-19 8 -43.5 12.5t-53.5 4.5q-74 0 -119.5 -39t-65.5 -118t-20 -200t20 -200.5t65 -118.5t119 -39z" />
    <glyph glyph-name="oe" unicode="&#x153;" horiz-adv-x="905" 
d="M287 -10q-108 0 -170 69t-62 210q0 140 59.5 208.5t175.5 68.5q60 0 106.5 -23.5t75.5 -81.5q29 57 73 81t102 24q97 0 152.5 -60t55.5 -179v-24h-333q1 -102 15 -164t45.5 -90.5t82.5 -28.5q38 0 67.5 14t49.5 41.5t27 67.5q12 -2 18 -12t6 -21q0 -20 -19 -43.5
t-56.5 -40t-95.5 -16.5q-62 0 -109 24.5t-78 82.5q-28 -58 -75.5 -82.5t-112.5 -24.5zM289 0q49 0 79 27t43.5 86t13.5 156q0 96 -13.5 155t-43.5 85.5t-80 26.5q-49 0 -79 -26.5t-43.5 -85.5t-13.5 -155q0 -97 13.5 -156t44 -86t79.5 -27zM754 293q0 88 -11 141t-35 77.5
t-63 24.5q-41 0 -67 -24.5t-39 -77.5t-17 -141h232z" />
    <glyph glyph-name="Racute" unicode="&#x154;" horiz-adv-x="656" 
d="M38 0v10h13q27 0 45.5 8t27.5 24t9 40v554q0 23 -9 38t-27.5 22.5t-45.5 7.5h-13v10h269q87 0 144 -21.5t85 -63.5t28 -102q0 -58 -23.5 -95.5t-60 -58.5t-75.5 -32l141 -220q21 -32 36.5 -53.5t28.5 -34t24.5 -18t23.5 -5.5h3v-10h-14q-47 0 -77.5 3.5t-50.5 12.5
t-35.5 26.5t-33.5 45.5l-154 245h-63v-251q0 -24 9 -40t27.5 -24t45.5 -8h13v-10h-291zM304 343q56 0 89.5 17.5t48.5 56.5t15 103q0 66 -15.5 106.5t-49.5 59t-90 18.5h-68v-361h70zM269 781q14 22 29.5 48t30 53t24.5 49h90v-10q-11 -13 -30.5 -32t-43 -40.5t-47 -42
t-43.5 -35.5h-10v10z" />
    <glyph glyph-name="racute" unicode="&#x155;" horiz-adv-x="471" 
d="M23 0v10h13q30 0 48 8t26 25t8 44v361q0 28 -8 45t-26 25t-48 8h-3v10h178v-100h2q7 26 21 51t42.5 42t76.5 17q50 0 76.5 -19.5t26.5 -54.5q0 -30 -21.5 -50t-71.5 -20q0 62 -21 85.5t-47 23.5q-29 0 -46 -20.5t-25 -53t-10 -67t-2 -63.5v-215q0 -30 8 -48t26.5 -26
t47.5 -8h13v-10h-284zM195 616q14 22 29.5 48t30 53t24.5 49h90v-10q-11 -13 -30.5 -32t-43 -40.5t-47 -42t-43.5 -35.5h-10v10z" />
    <glyph glyph-name="uni0156" unicode="&#x156;" horiz-adv-x="656" 
d="M38 0v10h13q27 0 45.5 8t27.5 24t9 40v554q0 23 -9 38t-27.5 22.5t-45.5 7.5h-13v10h269q87 0 144 -21.5t85 -63.5t28 -102q0 -58 -23.5 -95.5t-60 -58.5t-75.5 -32l141 -220q21 -32 36.5 -53.5t28.5 -34t24.5 -18t23.5 -5.5h3v-10h-14q-47 0 -77.5 3.5t-50.5 12.5
t-35.5 26.5t-33.5 45.5l-154 245h-63v-251q0 -24 9 -40t27.5 -24t45.5 -8h13v-10h-291zM304 343q56 0 89.5 17.5t48.5 56.5t15 103q0 66 -15.5 106.5t-49.5 59t-90 18.5h-68v-361h70zM268 -213q9 29 15 53.5t11 48.5t9 50h75v-10q-10 -21 -26 -46.5t-35 -52t-39 -51.5h-10v8
z" />
    <glyph glyph-name="uni0157" unicode="&#x157;" horiz-adv-x="471" 
d="M23 0v10h13q30 0 48 8t26 25t8 44v361q0 28 -8 45t-26 25t-48 8h-3v10h178v-100h2q7 26 21 51t42.5 42t76.5 17q50 0 76.5 -19.5t26.5 -54.5q0 -30 -21.5 -50t-71.5 -20q0 62 -21 85.5t-47 23.5q-29 0 -46 -20.5t-25 -53t-10 -67t-2 -63.5v-215q0 -30 8 -48t26.5 -26
t47.5 -8h13v-10h-284zM95 -213q9 29 15 53.5t11 48.5t9 50h75v-10q-10 -21 -26 -46.5t-35 -52t-39 -51.5h-10v8z" />
    <glyph glyph-name="Rcaron" unicode="&#x158;" horiz-adv-x="656" 
d="M38 0v10h13q27 0 45.5 8t27.5 24t9 40v554q0 23 -9 38t-27.5 22.5t-45.5 7.5h-13v10h269q87 0 144 -21.5t85 -63.5t28 -102q0 -58 -23.5 -95.5t-60 -58.5t-75.5 -32l141 -220q21 -32 36.5 -53.5t28.5 -34t24.5 -18t23.5 -5.5h3v-10h-14q-47 0 -77.5 3.5t-50.5 12.5
t-35.5 26.5t-33.5 45.5l-154 245h-63v-251q0 -24 9 -40t27.5 -24t45.5 -8h13v-10h-291zM304 343q56 0 89.5 17.5t48.5 56.5t15 103q0 66 -15.5 106.5t-49.5 59t-90 18.5h-68v-361h70zM267 771q-13 23 -31.5 49.5t-38.5 53t-40 47.5v10h10q19 -11 45.5 -28.5t52 -36.5
t40.5 -35q15 16 40 35t51.5 36.5t45.5 28.5h10v-10q-19 -21 -39.5 -47.5t-39 -53t-31.5 -49.5h-75z" />
    <glyph glyph-name="rcaron" unicode="&#x159;" horiz-adv-x="471" 
d="M23 0v10h13q30 0 48 8t26 25t8 44v361q0 28 -8 45t-26 25t-48 8h-3v10h178v-100h2q7 26 21 51t42.5 42t76.5 17q50 0 76.5 -19.5t26.5 -54.5q0 -30 -21.5 -50t-71.5 -20q0 62 -21 85.5t-47 23.5q-29 0 -46 -20.5t-25 -53t-10 -67t-2 -63.5v-215q0 -30 8 -48t26.5 -26
t47.5 -8h13v-10h-284zM185 606q-13 23 -31.5 49.5t-38.5 53t-40 47.5v10h10q19 -11 45.5 -28.5t52 -36.5t40.5 -35q15 16 40 35t51.5 36.5t45.5 28.5h10v-10q-19 -21 -39.5 -47.5t-39 -53t-31.5 -49.5h-75z" />
    <glyph glyph-name="Sacute" unicode="&#x15a;" horiz-adv-x="544" 
d="M258 -10q-49 0 -88 10.5t-66.5 29t-41.5 43.5t-14 55q0 23 8.5 38.5t24.5 23.5t39 8q1 -65 16.5 -109.5t47.5 -66.5t81 -22q64 0 103.5 37.5t39.5 110.5q0 45 -16.5 73t-53 50.5t-95.5 49.5q-31 15 -63.5 32.5t-60 42t-44 60t-16.5 84.5q0 60 26 101t73.5 62t111.5 21
q59 0 102.5 -16t68 -42t24.5 -57q0 -29 -22 -45.5t-57 -16.5q0 83 -27 125t-90 42q-38 0 -67 -15.5t-44.5 -46t-15.5 -76.5q0 -49 18 -79t54.5 -51.5t91.5 -47.5q50 -23 92.5 -48t68.5 -63t26 -100q0 -61 -27.5 -105t-80 -68t-127.5 -24zM233 781q14 22 29.5 48t30 53
t24.5 49h90v-10q-11 -13 -30.5 -32t-43 -40.5t-47 -42t-43.5 -35.5h-10v10z" />
    <glyph glyph-name="sacute" unicode="&#x15b;" horiz-adv-x="451" 
d="M214 -10q-50 0 -88 12t-59.5 35.5t-21.5 58.5q0 27 11 42t25.5 21t26.5 6q0 -54 10 -90.5t34 -55.5t64 -19q53 0 84 27.5t31 81.5q0 35 -12 55.5t-39.5 36.5t-76.5 37q-57 25 -90 48.5t-47 51.5t-14 66q0 68 48 104.5t133 36.5q48 0 82.5 -12.5t52.5 -33.5t18 -46
q0 -27 -18.5 -43.5t-53.5 -16.5q0 77 -21 109.5t-65 32.5q-34 0 -56.5 -11t-34 -32t-11.5 -53q0 -35 14 -56t43.5 -36t73.5 -34q57 -23 90 -46.5t46.5 -52t13.5 -67.5q0 -78 -52 -117.5t-141 -39.5zM191 616q14 22 29.5 48t30 53t24.5 49h90v-10q-11 -13 -30.5 -32
t-43 -40.5t-47 -42t-43.5 -35.5h-10v10z" />
    <glyph glyph-name="Scircumflex" unicode="&#x15c;" horiz-adv-x="544" 
d="M258 -10q-49 0 -88 10.5t-66.5 29t-41.5 43.5t-14 55q0 23 8.5 38.5t24.5 23.5t39 8q1 -65 16.5 -109.5t47.5 -66.5t81 -22q64 0 103.5 37.5t39.5 110.5q0 45 -16.5 73t-53 50.5t-95.5 49.5q-31 15 -63.5 32.5t-60 42t-44 60t-16.5 84.5q0 60 26 101t73.5 62t111.5 21
q59 0 102.5 -16t68 -42t24.5 -57q0 -29 -22 -45.5t-57 -16.5q0 83 -27 125t-90 42q-38 0 -67 -15.5t-44.5 -46t-15.5 -76.5q0 -49 18 -79t54.5 -51.5t91.5 -47.5q50 -23 92.5 -48t68.5 -63t26 -100q0 -61 -27.5 -105t-80 -68t-127.5 -24zM131 781q20 22 40 48t38.5 53
t31.5 49h75q13 -22 31.5 -49t39 -53t39.5 -48v-10h-10q-19 11 -45.5 28.5t-51.5 36.5t-40 35q-15 -16 -40.5 -35t-52 -36.5t-45.5 -28.5h-10v10z" />
    <glyph glyph-name="scircumflex" unicode="&#x15d;" horiz-adv-x="451" 
d="M214 -10q-50 0 -88 12t-59.5 35.5t-21.5 58.5q0 27 11 42t25.5 21t26.5 6q0 -54 10 -90.5t34 -55.5t64 -19q53 0 84 27.5t31 81.5q0 35 -12 55.5t-39.5 36.5t-76.5 37q-57 25 -90 48.5t-47 51.5t-14 66q0 68 48 104.5t133 36.5q48 0 82.5 -12.5t52.5 -33.5t18 -46
q0 -27 -18.5 -43.5t-53.5 -16.5q0 77 -21 109.5t-65 32.5q-34 0 -56.5 -11t-34 -32t-11.5 -53q0 -35 14 -56t43.5 -36t73.5 -34q57 -23 90 -46.5t46.5 -52t13.5 -67.5q0 -78 -52 -117.5t-141 -39.5zM91 616q20 22 40 48t38.5 53t31.5 49h75q13 -22 31.5 -49t39 -53t39.5 -48
v-10h-10q-19 11 -45.5 28.5t-51.5 36.5t-40 35q-15 -16 -40.5 -35t-52 -36.5t-45.5 -28.5h-10v10z" />
    <glyph glyph-name="Scedilla" unicode="&#x15e;" horiz-adv-x="544" 
d="M258 -10q-49 0 -88 10.5t-66.5 29t-41.5 43.5t-14 55q0 23 8.5 38.5t24.5 23.5t39 8q1 -65 16.5 -109.5t47.5 -66.5t81 -22q64 0 103.5 37.5t39.5 110.5q0 45 -16.5 73t-53 50.5t-95.5 49.5q-31 15 -63.5 32.5t-60 42t-44 60t-16.5 84.5q0 60 26 101t73.5 62t111.5 21
q59 0 102.5 -16t68 -42t24.5 -57q0 -29 -22 -45.5t-57 -16.5q0 83 -27 125t-90 42q-38 0 -67 -15.5t-44.5 -46t-15.5 -76.5q0 -49 18 -79t54.5 -51.5t91.5 -47.5q50 -23 92.5 -48t68.5 -63t26 -100q0 -61 -27.5 -105t-80 -68t-127.5 -24zM238 -240q-26 0 -44.5 3.5
t-33.5 7.5v11q14 -4 27 -6t26 -2q40 0 58 21.5t18 67.5q0 23 -5.5 39.5t-16.5 26.5t-30 12l14 59h10l-11 -50q56 -4 87.5 -26t31.5 -64q0 -43 -31 -71.5t-100 -28.5z" />
    <glyph glyph-name="scedilla" unicode="&#x15f;" horiz-adv-x="451" 
d="M214 -10q-50 0 -88 12t-59.5 35.5t-21.5 58.5q0 27 11 42t25.5 21t26.5 6q0 -54 10 -90.5t34 -55.5t64 -19q53 0 84 27.5t31 81.5q0 35 -12 55.5t-39.5 36.5t-76.5 37q-57 25 -90 48.5t-47 51.5t-14 66q0 68 48 104.5t133 36.5q48 0 82.5 -12.5t52.5 -33.5t18 -46
q0 -27 -18.5 -43.5t-53.5 -16.5q0 77 -21 109.5t-65 32.5q-34 0 -56.5 -11t-34 -32t-11.5 -53q0 -35 14 -56t43.5 -36t73.5 -34q57 -23 90 -46.5t46.5 -52t13.5 -67.5q0 -78 -52 -117.5t-141 -39.5zM193 -240q-26 0 -44.5 3.5t-33.5 7.5v11q14 -4 27 -6t26 -2q40 0 58 21.5
t18 67.5q0 23 -5.5 39.5t-16.5 26.5t-30 12l14 59h10l-11 -50q56 -4 87.5 -26t31.5 -64q0 -43 -31 -71.5t-100 -28.5z" />
    <glyph glyph-name="Scaron" unicode="&#x160;" horiz-adv-x="544" 
d="M258 -10q-49 0 -88 10.5t-66.5 29t-41.5 43.5t-14 55q0 23 8.5 38.5t24.5 23.5t39 8q1 -65 16.5 -109.5t47.5 -66.5t81 -22q64 0 103.5 37.5t39.5 110.5q0 45 -16.5 73t-53 50.5t-95.5 49.5q-31 15 -63.5 32.5t-60 42t-44 60t-16.5 84.5q0 60 26 101t73.5 62t111.5 21
q59 0 102.5 -16t68 -42t24.5 -57q0 -29 -22 -45.5t-57 -16.5q0 83 -27 125t-90 42q-38 0 -67 -15.5t-44.5 -46t-15.5 -76.5q0 -49 18 -79t54.5 -51.5t91.5 -47.5q50 -23 92.5 -48t68.5 -63t26 -100q0 -61 -27.5 -105t-80 -68t-127.5 -24zM238 771q-13 23 -31.5 49.5
t-38.5 53t-40 47.5v10h10q19 -11 45.5 -28.5t52 -36.5t40.5 -35q15 16 40 35t51.5 36.5t45.5 28.5h10v-10q-19 -21 -39.5 -47.5t-39 -53t-31.5 -49.5h-75z" />
    <glyph glyph-name="scaron" unicode="&#x161;" horiz-adv-x="451" 
d="M214 -10q-50 0 -88 12t-59.5 35.5t-21.5 58.5q0 27 11 42t25.5 21t26.5 6q0 -54 10 -90.5t34 -55.5t64 -19q53 0 84 27.5t31 81.5q0 35 -12 55.5t-39.5 36.5t-76.5 37q-57 25 -90 48.5t-47 51.5t-14 66q0 68 48 104.5t133 36.5q48 0 82.5 -12.5t52.5 -33.5t18 -46
q0 -27 -18.5 -43.5t-53.5 -16.5q0 77 -21 109.5t-65 32.5q-34 0 -56.5 -11t-34 -32t-11.5 -53q0 -35 14 -56t43.5 -36t73.5 -34q57 -23 90 -46.5t46.5 -52t13.5 -67.5q0 -78 -52 -117.5t-141 -39.5zM192 606q-13 23 -31.5 49.5t-38.5 53t-40 47.5v10h10q19 -11 45.5 -28.5
t52 -36.5t40.5 -35q15 16 40 35t51.5 36.5t45.5 28.5h10v-10q-19 -21 -39.5 -47.5t-39 -53t-31.5 -49.5h-75z" />
    <glyph glyph-name="uni0162" unicode="&#x162;" horiz-adv-x="613" 
d="M160 0v10h13q27 0 45.5 8t27.5 24t9 40v622h-82q-50 0 -80 -12t-44 -41t-17 -79l-2 -33h-10l6 175h561l6 -175h-10l-2 33q-3 50 -17 79t-43.5 41t-80.5 12h-84v-622q0 -24 9 -40t27.5 -24t45.5 -8h13v-10h-291zM285 -240q-26 0 -44.5 3.5t-33.5 7.5v11q14 -4 27 -6t26 -2
q40 0 58 21.5t18 67.5q0 23 -5.5 39.5t-16.5 26.5t-30 12l14 59h10l-11 -50q56 -4 87.5 -26t31.5 -64q0 -43 -31 -71.5t-100 -28.5z" />
    <glyph glyph-name="uni0163" unicode="&#x163;" horiz-adv-x="352" 
d="M240 -10q-76 0 -110.5 34.5t-34.5 120.5v381h-76v10q36 0 62.5 6.5t45.5 20.5q20 14 32.5 38t19.5 58h10v-123h140v-10h-140v-418q0 -52 20 -78t59 -26q14 0 29 3t32 9v-10q-13 -6 -39 -11t-50 -5zM191 -240q-26 0 -44.5 3.5t-33.5 7.5v11q14 -4 27 -6t26 -2
q40 0 58 21.5t18 67.5q0 23 -5.5 39.5t-16.5 26.5t-30 12l14 59h10l-11 -50q56 -4 87.5 -26t31.5 -64q0 -43 -31 -71.5t-100 -28.5z" />
    <glyph glyph-name="Tcaron" unicode="&#x164;" horiz-adv-x="613" 
d="M160 0v10h13q27 0 45.5 8t27.5 24t9 40v622h-82q-50 0 -80 -12t-44 -41t-17 -79l-2 -33h-10l6 175h561l6 -175h-10l-2 33q-3 50 -17 79t-43.5 41t-80.5 12h-84v-622q0 -24 9 -40t27.5 -24t45.5 -8h13v-10h-291zM268 771q-13 23 -31.5 49.5t-38.5 53t-40 47.5v10h10
q19 -11 45.5 -28.5t52 -36.5t40.5 -35q15 16 40 35t51.5 36.5t45.5 28.5h10v-10q-19 -21 -39.5 -47.5t-39 -53t-31.5 -49.5h-75z" />
    <glyph glyph-name="tcaron" unicode="&#x165;" horiz-adv-x="352" 
d="M262 614q9 26 15 49.5t11 47t9 49.5h75v-10q-10 -21 -26 -46.5t-35 -52t-39 -51.5h-10v14zM240 -10q-76 0 -110.5 34.5t-34.5 120.5v381h-76v10q36 0 62.5 6.5t45.5 20.5q20 14 32.5 38t19.5 58h10v-123h140v-10h-140v-418q0 -52 20 -78t59 -26q14 0 29 3t32 9v-10
q-13 -6 -39 -11t-50 -5z" />
    <glyph glyph-name="Tbar" unicode="&#x166;" horiz-adv-x="613" 
d="M160 0v10h13q27 0 45.5 8t27.5 24t9 40v266h-167v10h167v346h-82q-50 0 -80 -12t-44 -41t-17 -79l-2 -33h-10l6 175h561l6 -175h-10l-2 33q-3 50 -17 79t-43.5 41t-80.5 12h-84v-346h169v-10h-169v-266q0 -24 9 -40t27.5 -24t45.5 -8h13v-10h-291z" />
    <glyph glyph-name="tbar" unicode="&#x167;" horiz-adv-x="352" 
d="M19 310v10h311v-10h-311zM240 -10q-76 0 -110.5 34.5t-34.5 120.5v381h-76v10q36 0 62.5 6.5t45.5 20.5q20 14 32.5 38t19.5 58h10v-123h140v-10h-140v-418q0 -52 20 -78t59 -26q14 0 29 3t32 9v-10q-13 -6 -39 -11t-50 -5z" />
    <glyph glyph-name="Utilde" unicode="&#x168;" horiz-adv-x="717" 
d="M362 -10q-79 0 -135.5 22.5t-86.5 72.5t-30 131v420q0 23 -9 38t-27.5 22.5t-45.5 7.5h-13v10h291v-10h-13q-27 0 -45.5 -8t-27.5 -23.5t-9 -39.5v-423q0 -80 21.5 -125t59.5 -62.5t86 -17.5q68 0 117 24t75.5 69.5t26.5 107.5v430q0 23 -9 38t-27.5 22.5t-45.5 7.5h-13
v10h200v-10h-13q-27 0 -45.5 -8t-27.5 -24t-9 -40v-428q0 -66 -28 -114t-82.5 -74t-134.5 -26zM452 771q-25 0 -49 9.5t-47.5 22t-47.5 22t-51 9.5q-33 0 -41.5 -16.5t-13.5 -36.5h-10q3 30 13 57t30.5 44t52.5 17q26 0 49.5 -9.5t47 -22t48 -22t50.5 -9.5q31 0 41 15.5
t14 37.5h10q-3 -28 -13 -55.5t-30 -45t-53 -17.5z" />
    <glyph glyph-name="utilde" unicode="&#x169;" horiz-adv-x="635" 
d="M283 -10q-88 0 -131.5 46.5t-43.5 149.5v250q0 34 -7.5 53.5t-25.5 28t-49 8.5h-3v10h179v-355q0 -64 9 -102.5t30.5 -56.5t57.5 -18q45 0 74.5 23.5t44.5 69t15 109.5v230q0 34 -7.5 53.5t-25.5 28t-49 8.5h-3v10h179v-437q0 -34 7.5 -53.5t25.5 -27.5t49 -8h3v-10h-172
v137h-2q-8 -51 -25.5 -80.5t-40 -43.5t-46 -18.5t-43.5 -4.5zM392 606q-25 0 -49 9.5t-47.5 22t-47.5 22t-51 9.5q-33 0 -41.5 -16.5t-13.5 -36.5h-10q3 30 13 57t30.5 44t52.5 17q26 0 49.5 -9.5t47 -22t48 -22t50.5 -9.5q31 0 41 15.5t14 37.5h10q-3 -28 -13 -55.5
t-30 -45t-53 -17.5z" />
    <glyph glyph-name="Umacron" unicode="&#x16a;" horiz-adv-x="717" 
d="M362 -10q-79 0 -135.5 22.5t-86.5 72.5t-30 131v420q0 23 -9 38t-27.5 22.5t-45.5 7.5h-13v10h291v-10h-13q-27 0 -45.5 -8t-27.5 -23.5t-9 -39.5v-423q0 -80 21.5 -125t59.5 -62.5t86 -17.5q68 0 117 24t75.5 69.5t26.5 107.5v430q0 23 -9 38t-27.5 22.5t-45.5 7.5h-13
v10h200v-10h-13q-27 0 -45.5 -8t-27.5 -24t-9 -40v-428q0 -66 -28 -114t-82.5 -74t-134.5 -26zM232 801v20h290v-20h-290z" />
    <glyph glyph-name="umacron" unicode="&#x16b;" horiz-adv-x="635" 
d="M283 -10q-88 0 -131.5 46.5t-43.5 149.5v250q0 34 -7.5 53.5t-25.5 28t-49 8.5h-3v10h179v-355q0 -64 9 -102.5t30.5 -56.5t57.5 -18q45 0 74.5 23.5t44.5 69t15 109.5v230q0 34 -7.5 53.5t-25.5 28t-49 8.5h-3v10h179v-437q0 -34 7.5 -53.5t25.5 -27.5t49 -8h3v-10h-172
v137h-2q-8 -51 -25.5 -80.5t-40 -43.5t-46 -18.5t-43.5 -4.5zM160 636v20h290v-20h-290z" />
    <glyph glyph-name="Ubreve" unicode="&#x16c;" horiz-adv-x="717" 
d="M362 -10q-79 0 -135.5 22.5t-86.5 72.5t-30 131v420q0 23 -9 38t-27.5 22.5t-45.5 7.5h-13v10h291v-10h-13q-27 0 -45.5 -8t-27.5 -23.5t-9 -39.5v-423q0 -80 21.5 -125t59.5 -62.5t86 -17.5q68 0 117 24t75.5 69.5t26.5 107.5v430q0 23 -9 38t-27.5 22.5t-45.5 7.5h-13
v10h200v-10h-13q-27 0 -45.5 -8t-27.5 -24t-9 -40v-428q0 -66 -28 -114t-82.5 -74t-134.5 -26zM371 771q-47 0 -77 18.5t-45 50t-18 68.5h10q8 -24 22.5 -39t41 -22t66.5 -7q41 0 67 7t41 22t22 39h10q-3 -37 -18 -68.5t-44.5 -50t-77.5 -18.5z" />
    <glyph glyph-name="ubreve" unicode="&#x16d;" horiz-adv-x="635" 
d="M283 -10q-88 0 -131.5 46.5t-43.5 149.5v250q0 34 -7.5 53.5t-25.5 28t-49 8.5h-3v10h179v-355q0 -64 9 -102.5t30.5 -56.5t57.5 -18q45 0 74.5 23.5t44.5 69t15 109.5v230q0 34 -7.5 53.5t-25.5 28t-49 8.5h-3v10h179v-437q0 -34 7.5 -53.5t25.5 -27.5t49 -8h3v-10h-172
v137h-2q-8 -51 -25.5 -80.5t-40 -43.5t-46 -18.5t-43.5 -4.5zM310 606q-47 0 -77 18.5t-45 50t-18 68.5h10q8 -24 22.5 -39t41 -22t66.5 -7q41 0 67 7t41 22t22 39h10q-3 -37 -18 -68.5t-44.5 -50t-77.5 -18.5z" />
    <glyph glyph-name="Uring" unicode="&#x16e;" horiz-adv-x="717" 
d="M362 -10q-79 0 -135.5 22.5t-86.5 72.5t-30 131v420q0 23 -9 38t-27.5 22.5t-45.5 7.5h-13v10h291v-10h-13q-27 0 -45.5 -8t-27.5 -23.5t-9 -39.5v-423q0 -80 21.5 -125t59.5 -62.5t86 -17.5q68 0 117 24t75.5 69.5t26.5 107.5v430q0 23 -9 38t-27.5 22.5t-45.5 7.5h-13
v10h200v-10h-13q-27 0 -45.5 -8t-27.5 -24t-9 -40v-428q0 -66 -28 -114t-82.5 -74t-134.5 -26zM371 761q-50 0 -85 28t-35 81t35 81t85 28t85 -28t35 -81t-35 -81t-85 -28zM371 771q48 0 78 25t30 74q0 50 -30 74.5t-78 24.5t-78 -24.5t-30 -74.5q0 -49 30 -74t78 -25z" />
    <glyph glyph-name="uring" unicode="&#x16f;" horiz-adv-x="635" 
d="M283 -10q-88 0 -131.5 46.5t-43.5 149.5v250q0 34 -7.5 53.5t-25.5 28t-49 8.5h-3v10h179v-355q0 -64 9 -102.5t30.5 -56.5t57.5 -18q45 0 74.5 23.5t44.5 69t15 109.5v230q0 34 -7.5 53.5t-25.5 28t-49 8.5h-3v10h179v-437q0 -34 7.5 -53.5t25.5 -27.5t49 -8h3v-10h-172
v137h-2q-8 -51 -25.5 -80.5t-40 -43.5t-46 -18.5t-43.5 -4.5zM304 596q-50 0 -85 28t-35 81t35 81t85 28t85 -28t35 -81t-35 -81t-85 -28zM304 606q48 0 78 25t30 74q0 50 -30 74.5t-78 24.5t-78 -24.5t-30 -74.5q0 -49 30 -74t78 -25z" />
    <glyph glyph-name="Uhungarumlaut" unicode="&#x170;" horiz-adv-x="717" 
d="M362 -10q-79 0 -135.5 22.5t-86.5 72.5t-30 131v420q0 23 -9 38t-27.5 22.5t-45.5 7.5h-13v10h291v-10h-13q-27 0 -45.5 -8t-27.5 -23.5t-9 -39.5v-423q0 -80 21.5 -125t59.5 -62.5t86 -17.5q68 0 117 24t75.5 69.5t26.5 107.5v430q0 23 -9 38t-27.5 22.5t-45.5 7.5h-13
v10h200v-10h-13q-27 0 -45.5 -8t-27.5 -24t-9 -40v-428q0 -66 -28 -114t-82.5 -74t-134.5 -26zM237 781q21 32 44.5 74t39.5 76h90v-10q-11 -13 -30.5 -32t-43 -40.5t-47 -42t-43.5 -35.5h-10v10zM417 781q21 32 44.5 74t39.5 76h90v-10q-11 -13 -30.5 -32t-43 -40.5
t-47 -42t-43.5 -35.5h-10v10z" />
    <glyph glyph-name="uhungarumlaut" unicode="&#x171;" horiz-adv-x="635" 
d="M283 -10q-88 0 -131.5 46.5t-43.5 149.5v250q0 34 -7.5 53.5t-25.5 28t-49 8.5h-3v10h179v-355q0 -64 9 -102.5t30.5 -56.5t57.5 -18q45 0 74.5 23.5t44.5 69t15 109.5v230q0 34 -7.5 53.5t-25.5 28t-49 8.5h-3v10h179v-437q0 -34 7.5 -53.5t25.5 -27.5t49 -8h3v-10h-172
v137h-2q-8 -51 -25.5 -80.5t-40 -43.5t-46 -18.5t-43.5 -4.5zM178 616q21 32 44.5 74t39.5 76h90v-10q-11 -13 -30.5 -32t-43 -40.5t-47 -42t-43.5 -35.5h-10v10zM358 616q21 32 44.5 74t39.5 76h90v-10q-11 -13 -30.5 -32t-43 -40.5t-47 -42t-43.5 -35.5h-10v10z" />
    <glyph glyph-name="Uogonek" unicode="&#x172;" horiz-adv-x="725" 
d="M370 -10q-79 0 -135.5 22.5t-86.5 72.5t-30 131v420q0 23 -9 38t-27.5 22.5t-45.5 7.5h-13v10h291v-10h-13q-27 0 -45.5 -8t-27.5 -23.5t-9 -39.5v-423q0 -80 21.5 -125t59.5 -62.5t86 -17.5q68 0 117 24t75.5 69.5t26.5 107.5v430q0 23 -9 38t-27.5 22.5t-45.5 7.5h-13
v10h200v-10h-13q-27 0 -45.5 -8t-27.5 -24t-9 -40v-428q0 -66 -28 -114t-82.5 -74t-134.5 -26zM398 -240q-54 0 -90 24t-36 72q0 32 17 59t48.5 48.5t72.5 36.5h21q-40 -13 -61.5 -45t-21.5 -86q0 -48 18 -72.5t56 -24.5q15 0 30.5 3.5t33.5 10.5v-10q-16 -7 -39 -11.5
t-49 -4.5z" />
    <glyph glyph-name="uogonek" unicode="&#x173;" horiz-adv-x="635" 
d="M283 -10q-88 0 -131.5 46.5t-43.5 149.5v250q0 34 -7.5 53.5t-25.5 28t-49 8.5h-3v10h179v-355q0 -64 9 -102.5t30.5 -56.5t57.5 -18q45 0 74.5 23.5t44.5 69t15 109.5v230q0 34 -7.5 53.5t-25.5 28t-49 8.5h-3v10h179v-437q0 -34 7.5 -53.5t25.5 -27.5t49 -8h3v-10h-172
v137h-2q-8 -51 -25.5 -80.5t-40 -43.5t-46 -18.5t-43.5 -4.5zM461 -240q-54 0 -90 24t-36 72q0 32 17 59t48.5 48.5t72.5 36.5h21q-40 -13 -61.5 -45t-21.5 -86q0 -48 18 -72.5t56 -24.5q15 0 30.5 3.5t33.5 10.5v-10q-16 -7 -39 -11.5t-49 -4.5z" />
    <glyph glyph-name="Wcircumflex" unicode="&#x174;" horiz-adv-x="1047" 
d="M93 651q-6 20 -14.5 31.5t-22 16.5t-34.5 5h-13v10h275v-10h-23q-31 0 -45.5 -9t-14.5 -31q0 -6 1 -13t3 -15t4 -17l107 -352q9 -30 17 -60.5t15 -62t13 -64.5q6 29 16.5 70.5t22.5 89.5l119 467h42l146 -433q14 -41 25.5 -79.5t20.5 -71t14 -55.5q6 23 9.5 36.5t8 30.5
t12.5 48l111 420q5 17 7 30t2 23q0 27 -16.5 37.5t-51.5 10.5h-23v10h194v-10h-19q-21 0 -35 -7t-23.5 -24t-17.5 -47l-166 -626h-60l-198 597l-148 -597h-62zM394 781q20 22 40 48t38.5 53t31.5 49h75q13 -22 31.5 -49t39 -53t39.5 -48v-10h-10q-19 11 -45.5 28.5
t-51.5 36.5t-40 35q-15 -16 -40.5 -35t-52 -36.5t-45.5 -28.5h-10v10z" />
    <glyph glyph-name="wcircumflex" unicode="&#x175;" horiz-adv-x="862" 
d="M71 473q-5 20 -13.5 31.5t-19.5 16.5t-26 5h-11v10h247v-10h-22q-34 0 -47.5 -8.5t-13.5 -28.5q0 -9 2.5 -21t6.5 -27l68 -248q7 -25 13.5 -50t13.5 -49.5t14 -49.5h2q7 26 13 51t12.5 50t13.5 51l88 337h64l113 -342q7 -20 13.5 -39.5t13 -38.5t13 -38.5t12.5 -39.5h2
q7 25 13 50t12.5 50t12.5 50l64 250q4 16 6.5 28.5t2.5 22.5q0 23 -16 31.5t-56 8.5h-35v10h214v-10h-26q-19 0 -33.5 -7t-24.5 -24t-18 -47l-115 -448h-79l-157 475l-124 -475h-75zM297 616q20 22 40 48t38.5 53t31.5 49h75q13 -22 31.5 -49t39 -53t39.5 -48v-10h-10
q-19 11 -45.5 28.5t-51.5 36.5t-40 35q-15 -16 -40.5 -35t-52 -36.5t-45.5 -28.5h-10v10z" />
    <glyph glyph-name="Ycircumflex" unicode="&#x176;" horiz-adv-x="625" 
d="M159 0v10h23q27 0 45.5 8t27.5 24t9 40v231l-178 338q-10 20 -20 31.5t-22 16.5t-29 5h-20v10h275v-10h-34q-23 0 -34.5 -6t-11.5 -21q0 -10 5 -24t15 -34l86 -166q11 -20 20 -38.5t17 -35t15 -31t12 -26.5q12 23 29.5 58t37.5 73l76 147q12 23 18 40t6 29q0 20 -16 27.5
t-50 7.5h-40v10h214v-10h-25q-16 0 -28.5 -7t-25 -24t-28.5 -47l-163 -315v-229q0 -24 9 -40t27.5 -24t45.5 -8h23v-10h-311zM167 781q20 22 40 48t38.5 53t31.5 49h75q13 -22 31.5 -49t39 -53t39.5 -48v-10h-10q-19 11 -45.5 28.5t-51.5 36.5t-40 35q-15 -16 -40.5 -35
t-52 -36.5t-45.5 -28.5h-10v10z" />
    <glyph glyph-name="ycircumflex" unicode="&#x177;" horiz-adv-x="565" 
d="M38 -230q71 0 114 10.5t68.5 33t43 58t36.5 84.5l-219 515q-9 22 -17.5 33.5t-17.5 16.5t-22 5h-20v10h240v-10h-3q-28 0 -44.5 -8.5t-16.5 -30.5q0 -9 3 -20.5t9 -25.5l86 -209q8 -18 16 -39t16 -43t15 -42t13 -37q13 39 25 74.5t20 60.5l73 229q5 14 7 25t2 20
q0 23 -15.5 34.5t-50.5 11.5h-42v10h208v-10h-8q-24 0 -39.5 -6t-25.5 -23t-21 -49l-146 -452q-23 -72 -45 -118t-51 -72t-72.5 -36t-109.5 -10h-9v10zM148 616q20 22 40 48t38.5 53t31.5 49h75q13 -22 31.5 -49t39 -53t39.5 -48v-10h-10q-19 11 -45.5 28.5t-51.5 36.5
t-40 35q-15 -16 -40.5 -35t-52 -36.5t-45.5 -28.5h-10v10z" />
    <glyph glyph-name="Ydieresis" unicode="&#x178;" horiz-adv-x="625" 
d="M159 0v10h23q27 0 45.5 8t27.5 24t9 40v231l-178 338q-10 20 -20 31.5t-22 16.5t-29 5h-20v10h275v-10h-34q-23 0 -34.5 -6t-11.5 -21q0 -10 5 -24t15 -34l86 -166q11 -20 20 -38.5t17 -35t15 -31t12 -26.5q12 23 29.5 58t37.5 73l76 147q12 23 18 40t6 29q0 20 -16 27.5
t-50 7.5h-40v10h214v-10h-25q-16 0 -28.5 -7t-25 -24t-28.5 -47l-163 -315v-229q0 -24 9 -40t27.5 -24t45.5 -8h23v-10h-311zM416 797q-19 0 -31.5 12.5t-12.5 43.5q0 32 12.5 44t31.5 12q18 0 31 -12t13 -44q0 -31 -13 -43.5t-31 -12.5zM226 797q-19 0 -31.5 12.5
t-12.5 43.5q0 32 12.5 44t31.5 12q18 0 31 -12t13 -44q0 -31 -13 -43.5t-31 -12.5z" />
    <glyph glyph-name="Zacute" unicode="&#x179;" horiz-adv-x="592" 
d="M36 0v10l385 694h-206q-55 0 -87 -13t-46.5 -43.5t-16.5 -83.5l-1 -25h-10l6 175h474v-10l-385 -694h240q53 0 84 13t46.5 43.5t19.5 83.5l2 25h10l-6 -175h-509zM255 781q14 22 29.5 48t30 53t24.5 49h90v-10q-11 -13 -30.5 -32t-43 -40.5t-47 -42t-43.5 -35.5h-10v10z
" />
    <glyph glyph-name="zacute" unicode="&#x17a;" horiz-adv-x="511" 
d="M42 0v10l302 511h-156q-41 0 -65.5 -10t-37 -33.5t-17.5 -64.5l-2 -19h-10l10 142h383v-10l-302 -511h176q42 0 66.5 11.5t37 38.5t16.5 73l2 24h10l-6 -162h-407zM222 616q14 22 29.5 48t30 53t24.5 49h90v-10q-11 -13 -30.5 -32t-43 -40.5t-47 -42t-43.5 -35.5h-10v10z
" />
    <glyph glyph-name="Zdotaccent" unicode="&#x17b;" horiz-adv-x="592" 
d="M36 0v10l385 694h-206q-55 0 -87 -13t-46.5 -43.5t-16.5 -83.5l-1 -25h-10l6 175h474v-10l-385 -694h240q53 0 84 13t46.5 43.5t19.5 83.5l2 25h10l-6 -175h-509zM311 797q-19 0 -31.5 12.5t-12.5 43.5q0 32 12.5 44t31.5 12q18 0 31 -12t13 -44q0 -31 -13 -43.5
t-31 -12.5z" />
    <glyph glyph-name="zdotaccent" unicode="&#x17c;" horiz-adv-x="511" 
d="M42 0v10l302 511h-156q-41 0 -65.5 -10t-37 -33.5t-17.5 -64.5l-2 -19h-10l10 142h383v-10l-302 -511h176q42 0 66.5 11.5t37 38.5t16.5 73l2 24h10l-6 -162h-407zM266 632q-19 0 -31.5 12.5t-12.5 43.5q0 32 12.5 44t31.5 12q18 0 31 -12t13 -44q0 -31 -13 -43.5
t-31 -12.5z" />
    <glyph glyph-name="Zcaron" unicode="&#x17d;" horiz-adv-x="592" 
d="M36 0v10l385 694h-206q-55 0 -87 -13t-46.5 -43.5t-16.5 -83.5l-1 -25h-10l6 175h474v-10l-385 -694h240q53 0 84 13t46.5 43.5t19.5 83.5l2 25h10l-6 -175h-509zM266 771q-13 23 -31.5 49.5t-38.5 53t-40 47.5v10h10q19 -11 45.5 -28.5t52 -36.5t40.5 -35q15 16 40 35
t51.5 36.5t45.5 28.5h10v-10q-19 -21 -39.5 -47.5t-39 -53t-31.5 -49.5h-75z" />
    <glyph glyph-name="zcaron" unicode="&#x17e;" horiz-adv-x="511" 
d="M42 0v10l302 511h-156q-41 0 -65.5 -10t-37 -33.5t-17.5 -64.5l-2 -19h-10l10 142h383v-10l-302 -511h176q42 0 66.5 11.5t37 38.5t16.5 73l2 24h10l-6 -162h-407zM230 606q-13 23 -31.5 49.5t-38.5 53t-40 47.5v10h10q19 -11 45.5 -28.5t52 -36.5t40.5 -35q15 16 40 35
t51.5 36.5t45.5 28.5h10v-10q-19 -21 -39.5 -47.5t-39 -53t-31.5 -49.5h-75z" />
    <glyph glyph-name="longs" unicode="&#x17f;" horiz-adv-x="355" 
d="M13 0v10h13q30 0 48 8t26 25t8 44v499q0 89 46.5 136.5t143.5 47.5q42 0 70.5 -8.5t42.5 -23.5t14 -36q0 -27 -23 -42.5t-59 -15.5q0 63 -15.5 89.5t-50.5 26.5q-42 0 -58.5 -38t-16.5 -127v-503q0 -30 8 -48t26 -26t48 -8h38v-10h-309z" />
    <glyph glyph-name="uni0180" unicode="&#x180;" horiz-adv-x="614" 
d="M358 -10q-65 0 -103 37t-52 114h-2v-141h-183v10h8q30 0 48 8t26 25t8 44v524h-91v10h91v51q0 28 -8 45t-26 25t-48 8h-3v10h179v-139h171v-10h-171v-35v-75.5t-2 -103.5h2q14 76 52.5 112.5t105.5 36.5q98 0 148.5 -70t50.5 -207q0 -91 -23 -153.5t-67.5 -94
t-110.5 -31.5zM341 5q44 0 70.5 26.5t38.5 85t12 153.5q0 94 -12 151.5t-39 83.5t-71 26q-73 0 -105.5 -66t-32.5 -196q0 -134 34.5 -199t104.5 -65z" />
    <glyph glyph-name="uni0181" unicode="&#x181;" horiz-adv-x="731" 
d="M115 0v10h13q23 0 41.5 5t29.5 20.5t11 46.5v553q0 30 -9.5 44.5t-23 19t-27.5 4.5q-39 0 -52.5 -23t-13.5 -60q0 -26 5 -39t13 -26q-7 -7 -16 -11t-22 -4q-26 0 -40 18.5t-14 51.5q0 38 18 61t51.5 33t82.5 10h221q128 0 192.5 -43t64.5 -133q0 -48 -19.5 -81.5
t-61.5 -52.5t-110 -25v-2q79 -4 127.5 -27.5t71 -63.5t22.5 -95q0 -95 -64 -143t-193 -48h-298zM408 10q80 0 117.5 44t37.5 140q0 62 -16 100.5t-49.5 56.5t-87.5 18h-99v-359h97zM380 379q53 0 87 17t50 53.5t16 93.5q0 85 -36.5 123t-118.5 38h-67v-325h69z" />
    <glyph glyph-name="uni0182" unicode="&#x182;" horiz-adv-x="604" 
d="M38 0v10h13q27 0 45.5 8t27.5 24t9 40v554q0 23 -9 38t-27.5 22.5t-45.5 7.5h-13v10h481l6 -175h-10l-2 33q-3 50 -17 79t-44 41t-81 12h-137v-309h63q97 0 155.5 -25t85.5 -69.5t27 -102.5t-26.5 -103t-81 -70t-138.5 -25h-281zM302 10q57 0 91 17.5t49 57.5t15 108
q0 75 -17.5 116.5t-54.5 58.5t-98 17h-53v-375h68z" />
    <glyph glyph-name="uni0183" unicode="&#x183;" horiz-adv-x="614" 
d="M358 -10q-65 0 -103 37t-52 114h-2v-141h-183v10h8q30 0 48 8t26 25t8 44v585q0 28 -8 45t-26 25t-48 8h-3v10h480l5 -150h-10l-1 18q-3 51 -17 77t-44 35.5t-81 9.5h-153v-174v-75.5t-2 -103.5h2q14 76 52.5 112.5t105.5 36.5q98 0 148.5 -70t50.5 -207
q0 -91 -23 -153.5t-67.5 -94t-110.5 -31.5zM341 5q44 0 70.5 26.5t38.5 85t12 153.5q0 94 -12 151.5t-39 83.5t-71 26q-73 0 -105.5 -66t-32.5 -196q0 -134 34.5 -199t104.5 -65z" />
    <glyph glyph-name="uni0184" unicode="&#x184;" horiz-adv-x="581" 
d="M326 -10q-74 0 -122 25t-71 70t-23 103v444q0 32 -11 47t-29.5 20t-41.5 5h-13v10h311v-10h-33q-22 0 -40.5 -4.5t-30 -18.5t-11.5 -44v-242h63q97 0 155.5 -26.5t85.5 -72t27 -103.5t-23 -104t-71 -72.5t-122 -26.5zM323 0q41 0 65 18.5t35 60t11 109.5q0 75 -17.5 118
t-54.5 61t-98 18h-53v-202q0 -68 11 -108t35.5 -57.5t65.5 -17.5z" />
    <glyph glyph-name="uni0185" unicode="&#x185;" horiz-adv-x="604" 
d="M323 -10q-54 0 -96 16.5t-71 50t-43.5 86t-14.5 124.5v415q0 30 -11.5 44.5t-30 19t-40.5 4.5h-8v10h184v-184v-63.5t-2 -95.5h2q14 75 54.5 102t98.5 27q99 0 151.5 -66.5t52.5 -210.5q0 -96 -26 -158t-76.5 -91.5t-123.5 -29.5zM329 0q31 0 54 13t38.5 43.5t23 83
t7.5 130.5q0 96 -12.5 153t-39.5 82.5t-72 25.5q-52 0 -81.5 -25.5t-42 -82.5t-12.5 -154q0 -100 13 -159t43 -84.5t81 -25.5z" />
    <glyph glyph-name="uni0186" unicode="&#x186;" horiz-adv-x="613" 
d="M259 -10q-81 0 -128 19t-66.5 47.5t-19.5 56.5q0 37 22.5 55.5t61.5 18.5q0 -56 13 -98.5t42.5 -65.5t76.5 -23q65 0 105.5 37.5t59.5 117t19 205.5t-18 204t-56 114t-99 36q-43 0 -73.5 -21.5t-46 -61.5t-15.5 -97q-24 0 -42.5 7t-29 21.5t-10.5 34.5q0 25 13.5 47.5
t40.5 40.5t68.5 28.5t96.5 10.5q89 0 152 -41t96.5 -121.5t33.5 -198.5q0 -113 -34.5 -197t-101 -130t-161.5 -46z" />
    <glyph glyph-name="uni0187" unicode="&#x187;" horiz-adv-x="614" 
d="M367 -10q-103 0 -172 46t-103.5 128t-34.5 191q0 110 35 193t106.5 129.5t180.5 46.5q51 0 89.5 -4t64 -16.5t37.5 -39.5v56q0 42 5 73t23 48t57 17q32 0 52 -14t20 -41q0 -22 -15 -37q-12 8 -24 12t-32 4q-39 0 -57.5 -15.5t-18.5 -56.5v-101q0 -34 -25 -50.5t-62 -16.5
q0 62 -13 99.5t-41 54.5t-73 17q-70 0 -114 -40t-64 -118.5t-20 -194.5q0 -120 21.5 -200t68 -120t121.5 -40q68 0 109.5 34.5t62.5 111.5q13 -5 19 -14.5t6 -23.5q0 -19 -13 -39.5t-39 -38.5t-65 -29t-92 -11z" />
    <glyph glyph-name="uni0188" unicode="&#x188;" horiz-adv-x="492" 
d="M285 -10q-68 0 -120 27.5t-81 89.5t-29 163q0 103 29.5 163.5t79.5 86.5t113 26q50 0 98 -15.5t67 -49.5v141q0 42 5 73t23 48t57 17q32 0 52 -14t20 -41q0 -22 -15 -37q-12 8 -24 12t-32 4q-39 0 -57.5 -15.5t-18.5 -56.5v-170q0 -22 -10.5 -35.5t-30 -19.5t-48.5 -6
q0 53 -7.5 87.5t-26.5 51t-54 16.5q-36 0 -64 -22.5t-43.5 -80t-15.5 -164.5q0 -98 15 -157.5t48 -85.5t85 -26q50 0 84.5 26.5t51.5 98.5q10 -2 15.5 -10t5.5 -22q0 -24 -19 -47.5t-57 -39.5t-96 -16z" />
    <glyph glyph-name="uni0189" unicode="&#x189;" horiz-adv-x="727" 
d="M38 0v10h13q27 0 45.5 8t27.5 24t9 40v287h-95v10h95v257q0 23 -9 38t-27.5 22.5t-45.5 7.5h-13v10h306q103 0 176 -41.5t111.5 -121t38.5 -193.5q0 -109 -36.5 -189.5t-108.5 -124.5t-181 -44h-306zM321 10q84 0 136.5 36t77 113t24.5 199q0 121 -24.5 197.5t-77 112.5
t-135.5 36h-88v-325h170v-10h-170v-359h87z" />
    <glyph glyph-name="uni018A" unicode="&#x18a;" horiz-adv-x="805" 
d="M116 0v10h13q27 0 45.5 8t27.5 24t9 40v554q0 30 -9.5 44t-23.5 18.5t-28 4.5q-39 0 -52.5 -23t-13.5 -60q0 -26 5 -39t13 -26q-7 -7 -16 -11t-22 -4q-26 0 -40 18.5t-14 51.5q0 38 18 61t51.5 33t82.5 10h260q103 0 176 -41.5t111.5 -121t38.5 -193.5
q0 -109 -36.5 -189.5t-108.5 -124.5t-181 -44h-306zM399 10q84 0 136.5 36t77 113t24.5 199q0 121 -24.5 197.5t-77 112.5t-135.5 36h-88v-694h87z" />
    <glyph glyph-name="uni018B" unicode="&#x18b;" horiz-adv-x="604" 
d="M286 0q-84 0 -138.5 25t-81 70t-26.5 103t27 102.5t86 69.5t155 25h63v309h-138q-50 0 -80.5 -12t-44.5 -41t-17 -79l-2 -33h-10l6 175h481v-10h-12q-27 0 -45 -7.5t-27.5 -22.5t-9.5 -38v-554q0 -24 9.5 -40t27.5 -24t45 -8h13v-10h-281zM303 10h68v375h-53
q-60 0 -97.5 -17t-55 -58.5t-17.5 -116.5q0 -68 15 -108t49 -57.5t91 -17.5z" />
    <glyph glyph-name="uni018C" unicode="&#x18c;" horiz-adv-x="614" 
d="M256 -10q-65 0 -110 31.5t-68 94t-23 153.5q0 92 22.5 153.5t67 92.5t109.5 31q68 0 106.5 -36.5t51.5 -112.5h2q-1 36 -1.5 70.5t-0.5 63v45.5v174h-153q-54 0 -85.5 -12t-44.5 -39.5t-13 -76.5v-12h-10v150h400v-673q0 -27 8 -44t26.5 -25t47.5 -8h8v-10h-183v141h-2
q-13 -77 -51.5 -114t-103.5 -37zM273 5q71 0 105 65t34 199q0 87 -14.5 145t-44.5 87.5t-79 29.5q-44 0 -71 -26t-39 -83.5t-12 -151.5q0 -95 12 -153.5t39 -85t70 -26.5z" />
    <glyph glyph-name="uni018D" unicode="&#x18d;" horiz-adv-x="577" 
d="M285 546q67 0 121 -26t85.5 -76.5t31.5 -121.5q0 -69 -27 -116.5t-73 -78t-102 -47.5q33 -22 59.5 -46.5t42 -54.5t15.5 -67q0 -46 -23 -77t-64 -47.5t-93 -16.5q-56 0 -93 16.5t-55.5 41.5t-18.5 51q0 28 19.5 43t54.5 15q0 -77 28 -117t81 -40q42 0 67.5 24.5
t25.5 74.5q0 37 -15 62.5t-45 47.5t-75 51q-54 34 -93.5 71t-61.5 84t-22 112q0 75 28 128.5t79.5 81.5t122.5 28zM285 536q-71 0 -107.5 -52t-36.5 -143q0 -59 17 -102t53.5 -78.5t96.5 -72.5q41 15 68 47t40 80t13 112q0 106 -37.5 157.5t-106.5 51.5z" />
    <glyph glyph-name="uni018E" unicode="&#x18e;" horiz-adv-x="623" 
d="M585 0v10h-13q-27 0 -45.5 8t-27.5 24t-9 40v554q0 23 9 38t27.5 22.5t45.5 7.5h13v10h-503l-6 -175h10l2 33q3 50 17 79t43.5 41t80.5 12h160v-325h-251v-10h251v-359h-185q-54 0 -86 12t-46.5 41t-17.5 79l-2 33h-10l7 -175h536z" />
    <glyph glyph-name="uni018F" unicode="&#x18f;" horiz-adv-x="690" 
d="M329 -10q-73 0 -125.5 26t-85.5 73t-48.5 110.5t-15.5 138.5v29h468q0 96 -14.5 163t-42 107.5t-67.5 59t-91 18.5q-61 0 -106 -27.5t-77 -96.5q-11 4 -18 13t-7 21q0 29 33.5 51.5t85 35.5t105.5 13q101 0 170 -46t104.5 -129t35.5 -194q0 -113 -36 -195t-104 -126.5
t-164 -44.5zM336 0q63 0 104 37t61.5 116t20.5 204h-362q1 -94 11 -161.5t31 -111t54 -64t80 -20.5z" />
    <glyph glyph-name="uni0190" unicode="&#x190;" horiz-adv-x="593" 
d="M323 -11q-64 0 -113.5 13t-84 38t-52 60.5t-17.5 81.5q0 61 25 101t74 62t122 26q-97 5 -149 51t-52 123q0 58 30.5 98t84 60.5t123.5 20.5q73 0 122.5 -17.5t74.5 -47.5t25 -69q0 -25 -11.5 -39.5t-31 -20t-43.5 -5.5q0 60 -10.5 102t-40 64.5t-85.5 22.5
q-66 0 -99.5 -42.5t-33.5 -126.5q0 -56 17.5 -94t52.5 -57t87 -19h85v-10h-85q-85 0 -128 -46t-43 -137q0 -61 19 -101.5t56 -61t92 -20.5q41 0 76 10t62 40.5t41 90.5q16 -5 22.5 -14.5t6.5 -22.5q0 -25 -23 -51.5t-71 -44.5t-125 -18z" />
    <glyph glyph-name="uni0191" unicode="&#x191;" horiz-adv-x="706" 
d="M146 -240q-45 0 -81 12t-56.5 35.5t-20.5 58.5q0 27 11 42t25.5 21t26.5 6q0 -81 20 -123t74 -42q32 0 55 14.5t36 45.5t13 80v726q0 23 -9 38t-27.5 22.5t-45.5 7.5h-13v10h504l6 -175h-10l-2 33q-3 50 -17 79t-44 41t-81 12h-160v-328h251v-10h-251v-418
q0 -65 -24.5 -106.5t-70 -61.5t-109.5 -20z" />
    <glyph glyph-name="florin" unicode="&#x192;" horiz-adv-x="439" 
d="M105 -240q-37 0 -63.5 9.5t-40.5 26t-14 38.5q0 17 8 28.5t24 17.5t40 6q0 -64 14 -90t48 -26q38 0 54.5 36.5t16.5 128.5v591h-91v10h91v50q0 89 47 136.5t142 47.5q43 0 71 -9t42.5 -24.5t14.5 -36.5q0 -18 -10.5 -30.5t-29 -19t-42.5 -6.5q0 64 -14.5 90t-50.5 26
q-42 0 -59 -36.5t-17 -128.5v-59h141v-10h-141v-582q0 -59 -20 -100.5t-60 -62.5t-101 -21z" />
    <glyph glyph-name="uni0193" unicode="&#x193;" horiz-adv-x="714" 
d="M401 -10q-116 0 -192.5 46t-114 128.5t-37.5 193.5q0 108 37 190.5t112.5 129t190.5 46.5q89 0 145.5 -20t75.5 -53v75q0 42 5 73t23 48t57 17q32 0 52 -14t20 -41q0 -22 -15 -37q-12 8 -24 12t-32 4q-39 0 -57.5 -15.5t-18.5 -56.5v-101q0 -34 -21.5 -51.5t-71.5 -21.5
q0 62 -14.5 100t-45.5 55t-82 17q-81 0 -130.5 -35.5t-72 -114t-22.5 -206.5q0 -129 25 -207.5t80 -114.5t144 -36q29 0 56 4.5t48 10.5v237q0 23 -9 38t-27.5 22.5t-45.5 7.5h-4v10h260v-10h-4q-26 0 -41 -8t-21.5 -24t-6.5 -40v-212q-50 -23 -103 -34.5t-118 -11.5z" />
    <glyph glyph-name="uni0194" unicode="&#x194;" horiz-adv-x="675" 
d="M325 -240q-31 0 -54 14t-35 39.5t-12 60.5q0 48 24 111t61 133l-225 533q-8 20 -17.5 31.5t-22 16.5t-31.5 5h-13v10h275v-10h-25q-34 0 -49.5 -8t-15.5 -28q0 -9 3 -21t10 -28l166 -403l165 350q14 29 21 50.5t7 37.5q0 28 -22.5 39t-70.5 11h-33v10h244v-10h-19
q-19 0 -33.5 -7t-26.5 -23.5t-26 -45.5l-200 -425q23 -57 39.5 -101t26.5 -78t14.5 -61.5t4.5 -50.5q0 -46 -16 -80.5t-45 -53t-69 -18.5zM303 -224q32 0 49.5 24.5t17.5 84.5q0 25 -3 48.5t-9.5 48.5t-17 55t-26.5 69q-37 -69 -58.5 -128.5t-21.5 -102.5q0 -27 8.5 -49.5
t24.5 -36t36 -13.5z" />
    <glyph glyph-name="uni0195" unicode="&#x195;" horiz-adv-x="911" 
d="M613 -10q-100 0 -150 44t-50 141v209q0 65 -22 105t-76 40q-43 0 -67.5 -25.5t-35 -64.5t-10.5 -80v-257q0 -35 7.5 -55t25 -28.5t47.5 -8.5h5v-10h-269v10h8q31 0 49 8.5t25.5 28.5t7.5 55v558q0 34 -7.5 53.5t-24.5 28t-48 8.5h-5v10h179v-202v-58.5t-1 -57.5h2
q13 47 36.5 69t51 28.5t51.5 6.5q83 0 124 -46.5t41 -149.5v-218q0 -46 11 -75t34.5 -43t60.5 -14t60.5 15.5t34.5 49t11 85.5v304q0 32 -11 47t-29 20t-41 5h-4v10h179v-353q0 -66 -22 -109t-66.5 -63.5t-111.5 -20.5z" />
    <glyph glyph-name="uni0196" unicode="&#x196;" horiz-adv-x="367" 
d="M267 -10q-47 0 -76.5 15t-43.5 46.5t-14 81.5v499q0 32 -11 47t-29.5 20t-41.5 5h-13v10h291v-10h-13q-22 0 -41 -5t-30 -20t-11 -47v-543q0 -27 8 -45.5t21.5 -28t30.5 -9.5q8 0 17 2.5t18 7.5v-11q-8 -5 -26.5 -10t-35.5 -5z" />
    <glyph glyph-name="uni0197" unicode="&#x197;" horiz-adv-x="367" 
d="M38 0v10h13q27 0 45.5 8t27.5 24t9 40v287h-113v10h113v257q0 23 -9 38t-27.5 22.5t-45.5 7.5h-13v10h291v-10h-13q-27 0 -45.5 -8t-27.5 -24t-9 -40v-253h113v-10h-113v-287q0 -24 9 -40t27.5 -24t45.5 -8h13v-10h-291z" />
    <glyph glyph-name="uni0198" unicode="&#x198;" horiz-adv-x="700" 
d="M38 0v10h13q22 0 40.5 4.5t30 19t11.5 43.5v559q0 30 -11.5 44.5t-30 19t-40.5 4.5h-13v10h291v-10h-13q-22 0 -41 -5t-30 -20t-11 -47v-318l247 296q26 32 46.5 53t37 34t31 18.5t29.5 5.5q30 0 48.5 -19t18.5 -50q0 -19 -6.5 -33t-17 -22t-22.5 -9q-4 22 -20 40t-45 18
q-18 0 -38 -10t-44 -37l-132 -150l232 -336q27 -39 46.5 -61.5t34.5 -32t30 -9.5h2v-10h-11q-52 0 -86 4t-56 13t-37.5 24.5t-30.5 38.5l-194 290l-63 -72v-216q0 -31 11 -46.5t30 -20.5t41 -5h13v-10h-291z" />
    <glyph glyph-name="uni0199" unicode="&#x199;" horiz-adv-x="585" 
d="M18 0v10h8q30 0 48 8t26 25t8 44v478q0 102 41 151t126 49q40 0 65.5 -11t38.5 -29t13 -39q0 -16 -8 -29t-25 -20.5t-44 -7.5q0 38 -4 66.5t-15.5 44t-32.5 15.5q-24 0 -37 -11t-18.5 -36t-5.5 -67v-295v-39.5t-0.5 -39.5t-1.5 -40l170 190q16 18 27 32.5t16.5 26
t5.5 19.5q0 17 -22 24t-68 7v10h221v-10q-25 0 -44.5 -5t-43 -24t-62.5 -62l-78 -88l154 -237q31 -47 49.5 -68t31.5 -26.5t26 -5.5h3v-10h-44q-30 0 -52.5 4t-40 12.5t-32 23t-28.5 36.5l-128 202l-59 -66v-120q0 -30 8 -48t26 -26t48 -8h3v-10h-269z" />
    <glyph glyph-name="uni019A" unicode="&#x19a;" horiz-adv-x="310" 
d="M13 0v10h13q30 0 48 8t26 25t8 44v297h-98v10h98v278q0 28 -8 45t-26 25t-48 8h-3v10h179v-366h98v-10h-98v-292q0 -30 8 -48t26 -26t48 -8h13v-10h-284z" />
    <glyph glyph-name="uni019B" unicode="&#x19b;" horiz-adv-x="535" 
d="M303 572q-5 21 -11 38.5t-14 30.5l-154 -87v12l149 84q-14 23 -31.5 36.5t-38 19.5t-44.5 6q-37 0 -58.5 -12.5t-39.5 -35.5q-8 6 -12.5 16.5t-4.5 23.5q0 27 22.5 46.5t76.5 19.5q36 0 62.5 -11t46.5 -35t36 -65l109 62v-12l-106 -60q5 -13 10 -29t9 -34l100 -390
q14 -55 30.5 -89t37.5 -49.5t49 -15.5h5v-42h-2q-32 0 -53.5 17.5t-38.5 59t-37 114.5q-4 15 -9.5 36t-12 47t-14.5 56.5t-16.5 64t-17.5 69.5h-2q-10 -27 -19.5 -49.5t-18.5 -43.5t-20 -43l-160 -328h-103z" />
    <glyph glyph-name="uni019C" unicode="&#x19c;" horiz-adv-x="1054" 
d="M302 -10q-54 0 -97.5 20.5t-69 65.5t-25.5 120v440q0 30 -11.5 44.5t-30 19t-40.5 4.5h-13v10h291v-10h-13q-22 0 -41 -5t-30 -20t-11 -47v-498q0 -44 11.5 -72.5t35 -42.5t58.5 -14q75 0 112 40.5t37 129.5v461q0 30 -11.5 44.5t-30 19t-40.5 4.5h-13v10h291v-10h-13
q-22 0 -41 -5t-30 -20t-11 -47v-486q0 -53 15.5 -84t39.5 -44t49 -13q54 0 87 28.5t48 72t15 88.5v438q0 32 -11 47t-29.5 20t-41.5 5h-13v10h291v-10h-13q-22 0 -41 -5t-30 -20t-11 -47v-550q0 -31 11 -46.5t30 -20.5t41 -5h13v-10h-195v115h-2q-19 -63 -62 -94t-108 -31
q-39 0 -72.5 12.5t-59.5 41.5t-45 78q-7 -45 -29.5 -74.5t-58 -43.5t-82.5 -14z" />
    <glyph glyph-name="uni019D" unicode="&#x19d;" horiz-adv-x="763" 
d="M19 -240v10h2q46 0 74 19.5t41 65.5t13 125v656q0 23 -9 38t-27.5 22.5t-45.5 7.5h-29v10h195l381 -571v489q0 24 -9 40t-27 24t-46 8h-28v10h231v-10h-29q-27 0 -45 -8t-27.5 -24t-9.5 -40v-632h-30l-435 652v-680q0 -88 -12 -133.5t-40 -62t-77 -16.5h-11z" />
    <glyph glyph-name="uni019E" unicode="&#x19e;" horiz-adv-x="645" 
d="M353 -240v10h8q31 0 49 8.5t25.5 28.5t7.5 55v522q0 65 -24 106t-83 41q-47 0 -74 -25t-38.5 -64.5t-11.5 -82.5v-257q0 -35 7.5 -55t25 -28.5t47.5 -8.5h5v-10h-269v10h8q31 0 49 8.5t25.5 28.5t7.5 55v334q0 34 -7.5 53.5t-24.5 28t-48 8.5h-5v10h178v-94h2
q14 47 39 69t54.5 28.5t54.5 6.5q89 0 132.5 -46.5t43.5 -149.5v-488q0 -35 7.5 -55t25 -28.5t47.5 -8.5h5v-10h-269z" />
    <glyph glyph-name="uni019F" unicode="&#x19f;" horiz-adv-x="742" 
d="M371 -10q-106 0 -176 46t-104.5 129t-34.5 194t34.5 193t105 127.5t176.5 45.5q101 0 170.5 -45.5t106 -128t36.5 -193.5t-36.5 -193.5t-106.5 -128.5t-171 -46zM371 0q74 0 118.5 38.5t64.5 120t20 209.5h-407q0 -97 11.5 -167t36 -114.5t63.5 -65.5t93 -21zM574 378
q-1 118 -23 192.5t-66 109.5t-113 35t-114 -35t-67 -109.5t-24 -192.5h407z" />
    <glyph glyph-name="Ohorn" unicode="&#x1a0;" horiz-adv-x="778" 
d="M371 -10q-106 0 -176 46t-104.5 129t-34.5 194t34.5 193t105 127.5t176.5 45.5q97 0 165.5 -42.5t105.5 -118.5q20 7 36 17t25 23t9 30q0 15 -6.5 23.5t-15.5 13t-18.5 10t-16 14.5t-6.5 25q0 21 14.5 35.5t42.5 14.5q29 0 45 -16.5t16 -46.5t-11 -58.5t-37 -52
t-73 -41.5q19 -41 28.5 -91t9.5 -106q0 -111 -36.5 -193.5t-106.5 -128.5t-171 -46zM371 0q53 0 91.5 20.5t63 64t36.5 111.5t12 162t-12 161.5t-36.5 111t-62.5 64t-91 20.5q-54 0 -92.5 -20.5t-63.5 -64t-37 -111t-12 -161.5t12 -162t36.5 -111.5t63 -64t92.5 -20.5z" />
    <glyph glyph-name="ohorn" unicode="&#x1a1;" horiz-adv-x="607" 
d="M287 -10q-108 0 -170 69t-62 210q0 140 59.5 208.5t175.5 68.5q73 0 125 -30.5t79 -93.5q30 11 50 28t20 42q0 15 -6.5 23.5t-15.5 13t-18.5 10t-16 14.5t-6.5 25q0 21 14.5 35.5t42.5 14.5q29 0 45 -16.5t16 -46.5q0 -46 -25.5 -86t-95.5 -66q12 -29 18 -65t6 -79
q0 -141 -59.5 -210t-175.5 -69zM289 0q49 0 79 27t43.5 86t13.5 156q0 96 -13.5 155t-43.5 85.5t-80 26.5q-49 0 -79 -26.5t-43.5 -85.5t-13.5 -155q0 -97 13.5 -156t44 -86t79.5 -27z" />
    <glyph glyph-name="uni01A2" unicode="&#x1a2;" horiz-adv-x="1102" 
d="M793 -240v10h13q23 0 41.5 5t29.5 20.5t11 46.5v738q0 66 -27.5 98.5t-88.5 32.5q-60 0 -93 -43t-33 -121v-239q0 -95 -23.5 -157t-64 -97t-93.5 -49.5t-112 -14.5q-97 0 -163 46t-100 129t-34 194t34.5 193t105 127.5t176.5 45.5q55 0 102.5 -14t85 -45.5t61.5 -83.5
q20 68 60 105t109 37q58 0 103 -20.5t70.5 -65.5t25.5 -120v-680q0 -29 11.5 -44t30 -19.5t40.5 -4.5h13v-10h-291zM353 0q40 0 74.5 11t60.5 42.5t41 94.5t15 166v146q0 98 -24 153.5t-63.5 78.5t-84.5 23q-74 0 -119.5 -39t-65.5 -118t-20 -200t19.5 -200.5t60.5 -118.5
t106 -39z" />
    <glyph glyph-name="uni01A3" unicode="&#x1a3;" horiz-adv-x="849" 
d="M657 419q0 62 -19 86.5t-54 24.5q-32 0 -49.5 -20.5t-24 -55t-6.5 -77.5v-108q0 -141 -56 -210t-168 -69q-105 0 -165 69t-60 210q0 140 57.5 208.5t169.5 68.5q66 0 115.5 -28.5t74.5 -88.5h2q20 61 53.5 89t90.5 28q42 0 71.5 -19.5t45.5 -56.5t16 -92v-536
q0 -31 9.5 -46.5t27 -20.5t39.5 -5h4v-10h-174v659zM281 0q48 0 76 27.5t40.5 87t12.5 154.5q0 96 -12.5 155t-41 85.5t-75.5 26.5t-75.5 -26.5t-41 -85.5t-12.5 -155q0 -95 12.5 -154.5t41 -87t75.5 -27.5z" />
    <glyph glyph-name="uni01A4" unicode="&#x1a4;" horiz-adv-x="681" 
d="M115 0v10h13q23 0 41.5 5t29.5 20.5t11 46.5v554q0 30 -9 44.5t-21.5 19t-25.5 4.5q-28 0 -42.5 -13t-20 -32t-5.5 -37q0 -14 3.5 -32.5t12.5 -34.5q-7 -7 -16 -11t-22 -4q-26 0 -40 19t-14 52q0 38 18 60.5t51.5 32.5t82.5 10h234q126 0 186 -55.5t60 -153.5
q0 -45 -14 -85.5t-45.5 -72.5t-83 -50.5t-125.5 -18.5h-63v-201q0 -29 11.5 -43.5t30 -19t40.5 -4.5h33v-10h-311zM364 288q47 0 79.5 11t52.5 36t29 66t9 100q0 75 -15 119.5t-48.5 64t-91.5 19.5h-68v-416h53z" />
    <glyph glyph-name="uni01A5" unicode="&#x1a5;" horiz-adv-x="614" 
d="M18 -240v10h8q30 0 48 8t26 25t8 44v718q0 102 41 151t126 49q40 0 65.5 -11t38.5 -29t13 -39q0 -16 -8 -29t-25 -20.5t-44 -7.5q0 38 -4 66.5t-15.5 44t-32.5 15.5q-24 0 -37 -10.5t-18.5 -35t-5.5 -66.5v-107q0 -23 -0.5 -46.5t-0.5 -46.5t-1 -46h2q14 76 52.5 112.5
t105.5 36.5q98 0 148.5 -70t50.5 -207t-51.5 -208t-149.5 -71q-65 0 -103 37t-52 114h-2q1 -25 1 -50v-50v-189q0 -29 8 -47.5t26 -26.5t48 -8h3v-10h-269zM341 5q44 0 70.5 26.5t38.5 85t12 153.5q0 94 -12 151.5t-39 83.5t-71 26q-48 0 -78.5 -29.5t-45 -87.5t-14.5 -145
q0 -89 15 -148t46 -87.5t78 -28.5z" />
    <glyph glyph-name="uni01A6" unicode="&#x1a6;" horiz-adv-x="656" 
d="M648 -120q-62 0 -98.5 6.5t-59 26t-43.5 57.5l-130 237h-83v-130q0 -29 11.5 -43.5t30 -19t40.5 -4.5h13v-10h-291v10h13q22 0 40.5 4.5t30 19t11.5 43.5v559q0 30 -11.5 44.5t-30 19t-40.5 4.5h-13v10h291v-10h-13q-22 0 -40.5 -4.5t-30 -18.5t-11.5 -44v-43h73
q87 0 144 -21t85 -62t28 -102q0 -57 -22 -93.5t-55.5 -58t-69.5 -33.5l132 -222q26 -42 44 -66.5t33.5 -35t31.5 -10.5h4v-10h-14zM304 217q55 0 88.5 19t49 60t15.5 106q0 67 -15.5 107t-49.5 57.5t-90 17.5h-68v-367h70z" />
    <glyph glyph-name="uni01A7" unicode="&#x1a7;" horiz-adv-x="544" 
d="M286 -10q-84 0 -136 25.5t-75.5 70t-23.5 100.5q0 64 25 102t68 63t96 48q52 23 88 43.5t55 50t19 78.5q0 43 -14.5 75t-42.5 50t-69 18q-61 0 -89.5 -42.5t-28.5 -129.5q-36 0 -57.5 16.5t-21.5 46.5q0 31 23 58t67 44t107 17q73 0 119 -23.5t68 -65t22 -95.5
q0 -50 -16.5 -85.5t-43.5 -59.5t-59 -41.5t-64 -31.5q-47 -21 -84.5 -43t-59.5 -53.5t-22 -81.5q0 -44 19.5 -76.5t56 -50t87.5 -17.5q48 0 84 15t60 46.5t36 79.5q8 -2 13.5 -7.5t8 -13t2.5 -16.5q0 -19 -13.5 -39.5t-40.5 -37t-67.5 -27t-95.5 -10.5z" />
    <glyph glyph-name="uni01A8" unicode="&#x1a8;" horiz-adv-x="451" 
d="M235 -10q-64 0 -106.5 19t-63.5 54.5t-21 84.5q0 48 18.5 76t52.5 48t82 41q45 20 74 36.5t43 37.5t14 55q0 30 -10.5 50.5t-31 31.5t-51.5 11q-33 0 -54.5 -14t-32.5 -45t-11 -83q-34 0 -53 15t-19 40q0 26 20 48t58 35.5t90 13.5q78 0 122 -34.5t44 -106.5
q0 -46 -18 -74.5t-51.5 -48.5t-80.5 -42q-46 -22 -76 -39t-44 -38t-14 -55q0 -59 35.5 -83t86.5 -24q59 0 99 29.5t51 95.5q12 -4 17.5 -14.5t5.5 -23.5q0 -24 -19 -46t-57.5 -36.5t-98.5 -14.5z" />
    <glyph glyph-name="uni01A9" unicode="&#x1a9;" horiz-adv-x="605" 
d="M23 0v32l226 287l-214 385v10h478l6 -175h-10l-3 43q-3 47 -15 73.5t-37 37.5t-68 11h-244l172 -309v-10l-231 -293h361q38 0 60.5 8.5t33.5 29.5t13 57l2 30h10l-7 -217h-533z" />
    <glyph glyph-name="uni01AA" unicode="&#x1aa;" horiz-adv-x="300" 
d="M253 -240q-50 0 -82.5 15t-47.5 49t-15 91v653q-8 -23 -30 -33t-44 -10q-46 0 -72 30.5t-26 82.5q0 59 36 93t97 34q37 0 67 -14.5t48 -45t18 -79.5v-748q0 -35 9 -58t26.5 -34t42.5 -11q14 0 29.5 3t32.5 8v-10q-13 -6 -39 -11t-50 -5zM34 535q38 0 56 26.5t18 80.5
q0 51 -17.5 77t-55.5 26q-40 0 -63.5 -30t-23.5 -80q0 -48 23 -74t63 -26z" />
    <glyph glyph-name="uni01AB" unicode="&#x1ab;" horiz-adv-x="352" 
d="M244 -196q-31 0 -51.5 14t-20.5 41q0 22 15 37q12 -8 24 -12t32 -4q39 0 57.5 16t18.5 56v60h10v-70q0 -42 -5 -73t-22.5 -48t-57.5 -17zM240 -10q-76 0 -110.5 34.5t-34.5 120.5v381h-76v10q36 0 62.5 6.5t45.5 20.5q20 14 32.5 38t19.5 58h10v-123h140v-10h-140v-418
q0 -52 20 -78t59 -26q14 0 29 3t32 9v-10q-13 -6 -39 -11t-50 -5z" />
    <glyph glyph-name="uni01AC" unicode="&#x1ac;" horiz-adv-x="628" 
d="M165 0v10h23q22 0 40.5 4.5t30 19t11.5 43.5v627h-72q-40 0 -63.5 -11t-33.5 -32.5t-10 -52.5q0 -24 5 -37t14 -26q-9 -8 -18 -11.5t-20 -3.5q-28 0 -45 20t-17 55q0 37 19 61t54 36t84 12h435l6 -175h-10l-2 33q-3 50 -16.5 79t-42.5 41t-79 12h-87v-622q0 -31 11 -46.5
t30 -20.5t41 -5h23v-10h-311z" />
    <glyph glyph-name="uni01AD" unicode="&#x1ad;" horiz-adv-x="352" 
d="M240 -10q-76 0 -110.5 34.5t-34.5 120.5v381h-76v10q52 0 86 12t53 40t24 76q6 55 25.5 75.5t50.5 20.5q28 0 43 -13.5t15 -39.5q0 -13 -4 -22.5t-11 -16.5q-12 8 -24 12t-31 4q-22 0 -39.5 -10.5t-17.5 -51.5v-86h131v-10h-131v-418q0 -54 20 -78t59 -24q14 0 29 3t32 7
v-10q-13 -6 -39 -11t-50 -5z" />
    <glyph glyph-name="uni01AE" unicode="&#x1ae;" horiz-adv-x="613" 
d="M408 -240q-53 0 -87 15.5t-50 49t-16 88.5v791h-82q-50 0 -80 -12t-44 -41t-17 -79l-2 -33h-10l6 175h561l6 -175h-10l-2 33q-3 50 -17 79t-43.5 41t-80.5 12h-84v-830q0 -49 19 -73.5t55 -24.5q11 0 23.5 2.5t25.5 6.5v-10q-10 -5 -31 -10t-40 -5z" />
    <glyph glyph-name="Uhorn" unicode="&#x1af;" horiz-adv-x="778" 
d="M362 -10q-79 0 -135.5 22.5t-86.5 72.5t-30 131v420q0 23 -9 38t-27.5 22.5t-45.5 7.5h-13v10h291v-10h-13q-27 0 -45.5 -8t-27.5 -23.5t-9 -39.5v-423q0 -80 21.5 -125t59.5 -62.5t86 -17.5q68 0 117 24t75.5 69.5t26.5 107.5v430q0 23 -9 38t-27.5 22.5t-45.5 7.5h-23
v10h115v-162q58 13 82 33.5t24 48.5q0 15 -6.5 23.5t-15.5 13t-18.5 9.5t-16 13.5t-6.5 24.5q0 23 14.5 37.5t42.5 14.5q29 0 45 -17.5t16 -55.5q0 -27 -12 -58t-46.5 -57t-102.5 -39v-339q0 -66 -28 -114t-82.5 -74t-134.5 -26z" />
    <glyph glyph-name="uhorn" unicode="&#x1b0;" horiz-adv-x="676" 
d="M283 -10q-88 0 -131.5 46.5t-43.5 149.5v250q0 34 -7.5 53.5t-25.5 28t-49 8.5h-3v10h179v-355q0 -64 9 -102.5t30.5 -56.5t57.5 -18q45 0 74.5 23.5t44.5 69t15 109.5v230q0 34 -7.5 53.5t-25.5 28t-49 8.5h-3v10h179v-126q58 13 82 33.5t24 48.5q0 15 -6.5 23.5
t-15.5 13t-18.5 9.5t-16 13.5t-6.5 24.5q0 23 14.5 37.5t42.5 14.5q29 0 45 -17.5t16 -55.5q0 -27 -12 -57.5t-46.5 -56.5t-102.5 -40v-302q0 -34 7.5 -53.5t25.5 -27.5t49 -8h3v-10h-172v137h-2q-8 -51 -25.5 -80.5t-40 -43.5t-46 -18.5t-43.5 -4.5z" />
    <glyph glyph-name="uni01B1" unicode="&#x1b1;" horiz-adv-x="742" 
d="M380 -11q-105 0 -175 46t-105 129.5t-35 195.5q0 63 11 112.5t27.5 88t33.5 67.5q14 25 21 39.5t7 22.5q0 10 -6.5 12t-23.5 2h-52v10h211v-10q-40 -32 -63.5 -72.5t-35.5 -86.5t-15.5 -94.5t-3.5 -97.5q0 -87 13 -153.5t39 -111t64 -67t88 -22.5t88 22.5t64 67t39 111
t13 153.5q0 49 -6.5 97.5t-20.5 94.5t-36.5 86.5t-54.5 72.5v10h211v-10h-51q-18 0 -24 -2t-6 -12q0 -8 7 -22.5t21 -39.5q18 -31 34.5 -69.5t26.5 -86t10 -108.5q0 -114 -35 -198t-104.5 -130.5t-175.5 -46.5z" />
    <glyph glyph-name="uni01B2" unicode="&#x1b2;" horiz-adv-x="685" 
d="M286 -10q-48 0 -88 18.5t-64 57t-24 98.5v472q0 30 -11.5 44.5t-30 19t-40.5 4.5h-13v10h291v-10h-13q-22 0 -41 -5t-30 -20t-11 -47v-512q0 -58 24.5 -86.5t71.5 -28.5q60 0 111.5 39.5t90.5 106.5t61 150.5t22 171.5q0 73 -14.5 110t-43.5 50t-75 13q0 36 22 57.5
t56 21.5q23 0 43.5 -11t37 -34t26 -60t9.5 -89q0 -59 -16.5 -131.5t-48 -144.5t-76.5 -132t-101.5 -96.5t-124.5 -36.5z" />
    <glyph glyph-name="uni01B3" unicode="&#x1b3;" horiz-adv-x="677" 
d="M159 0v10h23q27 0 45.5 8t27.5 24t9 40v231l-178 338q-10 20 -20 31.5t-22 16.5t-29 5h-20v10h275v-10h-34q-23 0 -34.5 -6t-11.5 -21q0 -10 5 -24t15 -34l86 -166q11 -20 20 -38.5t17 -35t15 -31t12 -26.5q12 23 30.5 60t36.5 75l65 140q20 43 37 70t37.5 40t51.5 13
q33 0 48.5 -16t15.5 -37q0 -16 -8.5 -30t-24.5 -20q-5 13 -17 21t-34 8q-19 0 -36.5 -8t-36 -30.5t-41.5 -67.5l-119 -229v-229q0 -24 9 -40t27.5 -24t45.5 -8h23v-10h-311z" />
    <glyph glyph-name="uni01B4" unicode="&#x1b4;" horiz-adv-x="615" 
d="M38 -230q67 0 112 15.5t73.5 42t46.5 60t30 68.5l-219 515q-9 22 -17.5 33.5t-17.5 16.5t-22 5h-20v10h240v-10h-3q-28 0 -44.5 -8.5t-16.5 -30.5q0 -9 3 -20.5t9 -25.5l86 -209q10 -24 21.5 -53.5t22.5 -58t18 -50.5q13 41 24 76t19 60l54 171q22 69 40 105.5t37 50
t44 13.5q32 0 47 -16t15 -42q0 -14 -4 -23.5t-12 -16.5q-10 15 -24.5 23.5t-34.5 8.5q-19 0 -35 -10t-29.5 -33t-27.5 -63l-127 -377q-24 -72 -46.5 -118.5t-51 -72.5t-72 -36t-109.5 -10h-9v10z" />
    <glyph glyph-name="uni01B5" unicode="&#x1b5;" horiz-adv-x="592" 
d="M36 0v10l199 359h-154v10h160l180 325h-206q-55 0 -87 -13t-46.5 -43.5t-16.5 -83.5l-1 -25h-10l6 175h474v-10l-180 -325h154v-10h-160l-199 -359h240q53 0 84 13t46.5 43.5t19.5 83.5l2 25h10l-6 -175h-509z" />
    <glyph glyph-name="uni01B6" unicode="&#x1b6;" horiz-adv-x="511" 
d="M42 0v10l154 260h-120v10h126l142 241h-156q-41 0 -65.5 -10t-37 -33.5t-17.5 -64.5l-2 -19h-10l10 142h383v-10l-145 -246h119v-10h-125l-151 -255h176q42 0 66.5 11.5t37 38.5t16.5 73l2 24h10l-6 -162h-407z" />
    <glyph glyph-name="uni01B7" unicode="&#x1b7;" horiz-adv-x="603" 
d="M274 -11q-58 0 -101.5 11.5t-71.5 30t-42 41.5t-14 47q0 22 10 37t29 23t45 8q0 -64 17.5 -105.5t52 -62t85.5 -20.5q50 0 82.5 20.5t48.5 62.5t16 109q0 65 -17 105.5t-60 59.5t-120 19h-21v11l244 247h-275q-43 0 -61 -13.5t-22 -48.5l-1 -9h-10l5 152h418v-41
l-284 -287q85 0 145 -11t97.5 -34t55 -58t17.5 -83q0 -68 -31 -115.5t-90.5 -71.5t-146.5 -24z" />
    <glyph glyph-name="uni01B8" unicode="&#x1b8;" horiz-adv-x="603" 
d="M335 -10q-71 0 -134 21t-101.5 67.5t-38.5 121.5q0 66 37.5 106.5t114.5 59t195 18.5l-316 289v41h418l5 -152h-10l-1 9q-2 24 -10.5 37.5t-26 19t-46.5 5.5h-269l270 -248v-11h-43q-115 0 -161 -44t-46 -139q0 -67 18 -109t55.5 -62t96.5 -20q38 0 69.5 8t56.5 24.5
t43.5 43.5t29.5 65q12 -5 18 -14t6 -22q0 -26 -26.5 -53t-78 -44.5t-125.5 -17.5z" />
    <glyph glyph-name="uni01B9" unicode="&#x1b9;" horiz-adv-x="547" 
d="M307 -240q-68 0 -125.5 25t-92 77t-34.5 131q0 47 20 86.5t58.5 68t95.5 44t132 15.5l-280 280v49h388l6 -157h-10l-1 14q-2 36 -16.5 49.5t-49.5 13.5h-269l246 -249v-10h-23q-70 0 -114 -22.5t-65 -67.5t-21 -114q0 -117 37.5 -170t116.5 -53q27 0 53.5 6.5t49.5 21.5
t40 40t24 61q11 -4 16.5 -14.5t5.5 -22.5q0 -27 -24 -50t-66.5 -37.5t-97.5 -14.5z" />
    <glyph glyph-name="uni01BA" unicode="&#x1ba;" horiz-adv-x="489" 
d="M207 -240q-30 0 -62.5 4t-60.5 15.5t-45.5 33.5t-17.5 58q0 26 10 44.5t29.5 31.5t48.5 21t68 11q45 4 76 14.5t49.5 28t26.5 43.5t8 61q0 52 -15 85t-46 48.5t-81 15.5h-13v10l180 171h-224q-28 0 -45.5 -5.5t-26.5 -19.5t-13 -38l-2 -14h-10l6 157h368v-49l-220 -202
q82 0 134.5 -16.5t78.5 -50.5t26 -86q0 -36 -13.5 -63.5t-39.5 -46.5t-64 -30.5t-88 -16.5q-46 -4 -70.5 -16.5t-33.5 -34.5t-9 -53q0 -42 13 -64t35.5 -29.5t50.5 -7.5q37 0 70 11t57.5 39t34.5 79q8 -4 15 -13.5t7 -26.5q0 -25 -21.5 -48t-64 -37t-106.5 -14z" />
    <glyph glyph-name="uni01BB" unicode="&#x1bb;" horiz-adv-x="555" 
d="M51 0v73l181 221q20 25 36.5 48.5t28.5 45.5h-217v10h223q15 29 24 57.5t13 60t4 67.5q0 59 -11 95.5t-32.5 54t-54.5 17.5q-36 0 -57.5 -19.5t-31 -61.5t-9.5 -108q-24 0 -43.5 5.5t-31 20.5t-11.5 43q0 37 21.5 66.5t64 46.5t104.5 17q60 0 103.5 -21.5t66.5 -60.5
t23 -92q0 -34 -6.5 -65t-22 -61t-42.5 -62h116v-10h-124q-4 -4 -8.5 -9l-9 -10t-9.5 -10l-269 -279h319q48 0 67 17t23 63l1 13h10l-6 -173h-433z" />
    <glyph glyph-name="uni01BC" unicode="&#x1bc;" horiz-adv-x="558" 
d="M247 -10q-65 0 -113.5 17.5t-75 48t-26.5 69.5q0 35 20.5 56.5t54.5 21.5q3 -77 19.5 -121.5t46 -63t70.5 -18.5q53 0 86 25t48.5 72.5t15.5 112.5q0 75 -19.5 119.5t-58.5 64t-100 19.5h-91v187q0 48 -10.5 70t-28.5 28t-41 6h-5v10h432l5 -175h-10l-2 23
q-4 54 -17.5 85t-40 44t-70.5 13h-111v-281h13q132 0 199 -49.5t67 -157.5q0 -71 -29 -121.5t-86 -77.5t-142 -27z" />
    <glyph glyph-name="uni01BD" unicode="&#x1bd;" horiz-adv-x="480" 
d="M212 -10q-54 0 -94.5 14.5t-63 40.5t-22.5 61q0 27 12 42t28 21t29 6q0 -98 29 -136.5t81 -38.5q62 0 90 44t28 120q0 83 -32 115t-98 32h-98v156q0 19 -5.5 32t-19.5 20t-40 7v10h366l6 -134h-10l-1 15q-2 42 -13.5 65.5t-36 33.5t-65.5 10h-87v-205h21q99 0 154.5 -37
t55.5 -120q0 -53 -25.5 -92.5t-73 -60.5t-115.5 -21z" />
    <glyph glyph-name="uni01BE" unicode="&#x1be;" horiz-adv-x="430" 
d="M202 -10q-56 0 -96 16t-61 43t-21 60q0 18 6.5 32.5t20.5 23t36 8.5q0 -85 24.5 -129t90.5 -44q48 0 80.5 26t32.5 87q0 26 -8.5 44.5t-28 34t-54.5 31.5q-39 19 -61 38.5t-31 49t-9 78.5v137h-76v10q38 0 65.5 7t46.5 23q19 14 30.5 37.5t17.5 55.5h10v-123h131v-10
h-131v-122q0 -33 2.5 -51t14.5 -29.5t42 -25.5q37 -17 61.5 -38.5t36.5 -49t12 -63.5q0 -78 -49 -117.5t-135 -39.5z" />
    <glyph glyph-name="uni01BF" unicode="&#x1bf;" horiz-adv-x="614" 
d="M18 -240v10h8q23 0 41.5 5t29.5 20.5t11 46.5v616q0 30 -11.5 44.5t-30 19t-40.5 4.5h-13v10h187v-120h2q15 73 55.5 101.5t101.5 28.5q95 0 147.5 -57.5t52.5 -164.5q0 -57 -22.5 -115t-67 -107t-111.5 -80.5t-156 -36.5v-148q0 -29 11 -43.5t29.5 -19t40.5 -4.5h14v-10
h-279zM202 -5q53 4 100 24.5t83 59t56.5 95t20.5 132.5q0 115 -31 170t-98 55q-74 0 -102.5 -62.5t-28.5 -170.5v-303z" />
    <glyph glyph-name="uni01C0" unicode="&#x1c0;" horiz-adv-x="408" 
d="M174 0v760h60v-760h-60z" />
    <glyph glyph-name="uni01C1" unicode="&#x1c1;" horiz-adv-x="556" 
d="M322 0v760h60v-760h-60zM174 0v760h60v-760h-60z" />
    <glyph glyph-name="uni01C2" unicode="&#x1c2;" horiz-adv-x="551" 
d="M245 0v276h-195v40h195v126h-195v40h195v278h60v-278h196v-40h-196v-126h196v-40h-196v-276h-60z" />
    <glyph glyph-name="uni01C3" unicode="&#x1c3;" horiz-adv-x="333" 
d="M159 201l-51 513h116l-50 -513h-15zM166 -7q-27 0 -40.5 17t-13.5 51t13.5 51t40.5 17t40.5 -17t13.5 -51t-13.5 -51t-40.5 -17z" />
    <glyph glyph-name="uni01C4" unicode="&#x1c4;" horiz-adv-x="1319" 
d="M38 0v10h13q27 0 45.5 8t27.5 24t9 40v554q0 23 -9 38t-27.5 22.5t-45.5 7.5h-13v10h306q103 0 176 -41.5t111.5 -121t38.5 -193.5q0 -109 -36.5 -189.5t-108.5 -124.5t-181 -44h-306zM321 10q84 0 136.5 36t77 113t24.5 199q0 121 -24.5 197.5t-77 112.5t-135.5 36h-88
v-694h87zM763 0v10l385 694h-206q-55 0 -87 -13t-46.5 -43.5t-16.5 -83.5l-1 -25h-10l6 175h474v-10l-385 -694h240q53 0 84 13t46.5 43.5t19.5 83.5l2 25h10l-6 -175h-509zM993 771q-13 23 -31.5 49.5t-38.5 53t-40 47.5v10h10q19 -11 45.5 -28.5t52 -36.5t40.5 -35
q15 16 40 35t51.5 36.5t45.5 28.5h10v-10q-19 -21 -39.5 -47.5t-39 -53t-31.5 -49.5h-75z" />
    <glyph glyph-name="uni01C5" unicode="&#x1c5;" horiz-adv-x="1238" 
d="M38 0v10h13q27 0 45.5 8t27.5 24t9 40v554q0 23 -9 38t-27.5 22.5t-45.5 7.5h-13v10h306q103 0 176 -41.5t111.5 -121t38.5 -193.5q0 -109 -36.5 -189.5t-108.5 -124.5t-181 -44h-306zM321 10q84 0 136.5 36t77 113t24.5 199q0 121 -24.5 197.5t-77 112.5t-135.5 36h-88
v-694h87zM769 0v10l302 511h-156q-41 0 -65.5 -10t-37 -33.5t-17.5 -64.5l-2 -19h-10l10 142h383v-10l-302 -511h176q42 0 66.5 11.5t37 38.5t16.5 73l2 24h10l-6 -162h-407zM957 606q-13 23 -31.5 49.5t-38.5 53t-40 47.5v10h10q19 -11 45.5 -28.5t52 -36.5t40.5 -35
q15 16 40 35t51.5 36.5t45.5 28.5h10v-10q-19 -21 -39.5 -47.5t-39 -53t-31.5 -49.5h-75z" />
    <glyph glyph-name="uni01C6" unicode="&#x1c6;" horiz-adv-x="1125" 
d="M256 -10q-65 0 -110 31.5t-68 94t-23 153.5q0 92 22.5 153.5t67 92.5t109.5 31q68 0 106.5 -36.5t51.5 -112.5h2q-1 36 -1.5 70.5t-0.5 63v45.5v96q0 28 -8 45t-26 25t-48 8h-3v10h179v-673q0 -27 8 -44t26.5 -25t47.5 -8h8v-10h-183v141h-2q-13 -77 -51.5 -114
t-103.5 -37zM273 5q71 0 105 65t34 199q0 87 -14.5 145t-44.5 87.5t-79 29.5q-44 0 -71 -26t-39 -83.5t-12 -151.5q0 -95 12 -153.5t39 -85t70 -26.5zM656 0v10l302 511h-156q-41 0 -65.5 -10t-37 -33.5t-17.5 -64.5l-2 -19h-10l10 142h383v-10l-302 -511h176
q42 0 66.5 11.5t37 38.5t16.5 73l2 24h10l-6 -162h-407zM844 606q-13 23 -31.5 49.5t-38.5 53t-40 47.5v10h10q19 -11 45.5 -28.5t52 -36.5t40.5 -35q15 16 40 35t51.5 36.5t45.5 28.5h10v-10q-19 -21 -39.5 -47.5t-39 -53t-31.5 -49.5h-75z" />
    <glyph glyph-name="uni01C7" unicode="&#x1c7;" horiz-adv-x="980" 
d="M612 -240v10h9q43 0 73 16.5t46 57t16 110.5v682q0 23 -9 38t-27.5 22.5t-45.5 7.5h-13v10h291v-10h-13q-27 0 -45.5 -8t-27.5 -24t-9 -40v-640q0 -67 -17.5 -112t-48.5 -71t-72.5 -37.5t-89.5 -11.5h-17zM38 0v10h13q27 0 45.5 8t27.5 24t9 40v554q0 23 -9 38
t-27.5 22.5t-45.5 7.5h-13v10h291v-10h-13q-27 0 -45.5 -8t-27.5 -24t-9 -40v-622h185q53 0 84.5 15.5t46.5 53.5t19 103l2 33h10l-7 -215h-536z" />
    <glyph glyph-name="uni01C8" unicode="&#x1c8;" horiz-adv-x="923" 
d="M38 0v10h13q27 0 45.5 8t27.5 24t9 40v554q0 23 -9 38t-27.5 22.5t-45.5 7.5h-13v10h291v-10h-13q-27 0 -45.5 -8t-27.5 -24t-9 -40v-622h185q53 0 84.5 15.5t46.5 53.5t19 103l2 33h10l-7 -215h-536zM611 -240v10h7q36 0 61.5 18t38.5 66t13 137v457q0 28 -8 45t-26 25
t-48 8h-3v10h179v-544q0 -89 -25.5 -140t-70 -71.5t-102.5 -20.5h-16zM773 632q-19 0 -31.5 12.5t-12.5 43.5q0 32 12.5 44t31.5 12q18 0 31 -12t13 -44q0 -31 -13 -43.5t-31 -12.5z" />
    <glyph glyph-name="uni01C9" unicode="&#x1c9;" horiz-adv-x="610" 
d="M298 -240v10h7q36 0 61.5 18t38.5 66t13 137v457q0 28 -8 45t-26 25t-48 8h-3v10h179v-544q0 -89 -25.5 -140t-70 -71.5t-102.5 -20.5h-16zM460 632q-19 0 -31.5 12.5t-12.5 43.5q0 32 12.5 44t31.5 12q18 0 31 -12t13 -44q0 -31 -13 -43.5t-31 -12.5zM13 0v10h13
q30 0 48 8t26 25t8 44v585q0 28 -8 45t-26 25t-48 8h-13v10h189v-668q0 -30 8 -48t26 -26t48 -8h13v-10h-284z" />
    <glyph glyph-name="uni01CA" unicode="&#x1ca;" horiz-adv-x="1120" 
d="M752 -240v10h9q43 0 73 16.5t46 57t16 110.5v682q0 23 -9 38t-27.5 22.5t-45.5 7.5h-13v10h291v-10h-13q-27 0 -45.5 -8t-27.5 -24t-9 -40v-640q0 -67 -17.5 -112t-48.5 -71t-72.5 -37.5t-89.5 -11.5h-17zM38 0v10h29q27 0 45.5 8t27.5 24t9 40v554q0 23 -9 38
t-27.5 22.5t-45.5 7.5h-29v10h195l381 -571v489q0 24 -9 40t-27 24t-46 8h-28v10h231v-10h-29q-27 0 -45 -8t-27.5 -24t-9.5 -40v-632h-30l-435 652v-570q0 -24 9 -40t27.5 -24t45.5 -8h28v-10h-231z" />
    <glyph glyph-name="uni01CB" unicode="&#x1cb;" horiz-adv-x="1063" 
d="M38 0v10h29q27 0 45.5 8t27.5 24t9 40v554q0 23 -9 38t-27.5 22.5t-45.5 7.5h-29v10h195l381 -571v489q0 24 -9 40t-27 24t-46 8h-28v10h231v-10h-29q-27 0 -45 -8t-27.5 -24t-9.5 -40v-632h-30l-435 652v-570q0 -24 9 -40t27.5 -24t45.5 -8h28v-10h-231zM751 -240v10h7
q36 0 61.5 18t38.5 66t13 137v457q0 28 -8 45t-26 25t-48 8h-3v10h179v-544q0 -89 -25.5 -140t-70 -71.5t-102.5 -20.5h-16zM913 632q-19 0 -31.5 12.5t-12.5 43.5q0 32 12.5 44t31.5 12q18 0 31 -12t13 -44q0 -31 -13 -43.5t-31 -12.5z" />
    <glyph glyph-name="uni01CC" unicode="&#x1cc;" horiz-adv-x="945" 
d="M633 -240v10h7q36 0 61.5 18t38.5 66t13 137v457q0 28 -8 45t-26 25t-48 8h-3v10h179v-544q0 -89 -25.5 -140t-70 -71.5t-102.5 -20.5h-16zM795 632q-19 0 -31.5 12.5t-12.5 43.5q0 32 12.5 44t31.5 12q18 0 31 -12t13 -44q0 -31 -13 -43.5t-31 -12.5zM28 0v10h8
q31 0 49 8.5t25.5 28.5t7.5 55v334q0 34 -7.5 53.5t-24.5 28t-48 8.5h-5v10h178v-94h2q14 47 39 69t54.5 28.5t54.5 6.5q89 0 132.5 -46.5t43.5 -149.5v-248q0 -35 7 -55t23.5 -28.5t44.5 -8.5h5v-10h-174v384q0 65 -24 106t-83 41q-47 0 -74 -25t-38.5 -64.5t-11.5 -82.5
v-257q0 -35 7.5 -55t25 -28.5t47.5 -8.5h5v-10h-269z" />
    <glyph glyph-name="uni01CD" unicode="&#x1cd;" horiz-adv-x="705" 
d="M0 0v10h29q22 0 37 7t26 24t21 47l218 626h51l251 -651q8 -20 16 -31.5t18.5 -16.5t24.5 -5h13v-10h-275v10h23q38 0 55 9t17 32q0 6 -1 12.5t-2.5 14.5t-5.5 17l-61 164h-271l-55 -157q-3 -8 -5 -16t-3 -14.5t-1 -12.5q0 -27 24 -38t77 -11h23v-10h-244zM187 269h264
l-73 195q-13 34 -24 65t-20.5 59.5t-17.5 55.5q-7 -22 -13 -40.5t-12 -36.5t-13.5 -38.5t-16.5 -47.5zM325 771q-13 23 -31.5 49.5t-38.5 53t-40 47.5v10h10q19 -11 45.5 -28.5t52 -36.5t40.5 -35q15 16 40 35t51.5 36.5t45.5 28.5h10v-10q-19 -21 -39.5 -47.5t-39 -53
t-31.5 -49.5h-75z" />
    <glyph glyph-name="uni01CE" unicode="&#x1ce;" horiz-adv-x="563" 
d="M215 -10q-76 0 -120.5 39.5t-44.5 108.5q0 77 56.5 115t171.5 42l83 3v75q0 56 -6 92t-26 53.5t-61 17.5q-58 0 -74.5 -36t-16.5 -113q-42 0 -63.5 14t-21.5 46q0 36 24.5 57.5t65.5 31.5t90 10q92 0 137.5 -39t45.5 -134v-299q0 -24 6 -38t20 -20t36 -6h3v-10h-151v105
h-2q-10 -40 -32 -65.5t-52.5 -37.5t-67.5 -12zM235 4q37 0 65.5 19t44.5 51t16 69v144l-64 -3q-85 -4 -117.5 -39t-32.5 -118q0 -40 9.5 -67.5t29.5 -41.5t49 -14zM239 606q-13 23 -31.5 49.5t-38.5 53t-40 47.5v10h10q19 -11 45.5 -28.5t52 -36.5t40.5 -35q15 16 40 35
t51.5 36.5t45.5 28.5h10v-10q-19 -21 -39.5 -47.5t-39 -53t-31.5 -49.5h-75z" />
    <glyph glyph-name="uni01CF" unicode="&#x1cf;" horiz-adv-x="367" 
d="M38 0v10h13q27 0 45.5 8t27.5 24t9 40v554q0 23 -9 38t-27.5 22.5t-45.5 7.5h-13v10h291v-10h-13q-27 0 -45.5 -8t-27.5 -24t-9 -40v-550q0 -24 9 -40t27.5 -24t45.5 -8h13v-10h-291zM146 771q-13 23 -31.5 49.5t-38.5 53t-40 47.5v10h10q19 -11 45.5 -28.5t52 -36.5
t40.5 -35q15 16 40 35t51.5 36.5t45.5 28.5h10v-10q-19 -21 -39.5 -47.5t-39 -53t-31.5 -49.5h-75z" />
    <glyph glyph-name="uni01D0" unicode="&#x1d0;" horiz-adv-x="320" 
d="M123 606q-13 23 -31.5 49.5t-38.5 53t-40 47.5v10h10q19 -11 45.5 -28.5t52 -36.5t40.5 -35q15 16 40 35t51.5 36.5t45.5 28.5h10v-10q-19 -21 -39.5 -47.5t-39 -53t-31.5 -49.5h-75zM23 0v10h13q30 0 48 8t26 25t8 44v361q0 28 -8 45t-26 25t-48 8h-3v10h179v-444
q0 -30 8 -48t26.5 -26t47.5 -8h13v-10h-284z" />
    <glyph glyph-name="uni01D1" unicode="&#x1d1;" horiz-adv-x="742" 
d="M371 -10q-106 0 -176 46t-104.5 129t-34.5 194t34.5 193t105 127.5t176.5 45.5q101 0 170.5 -45.5t106 -128t36.5 -193.5t-36.5 -193.5t-106.5 -128.5t-171 -46zM371 0q53 0 91.5 20.5t63 64t36.5 111.5t12 162t-12 161.5t-36.5 111t-62.5 64t-91 20.5q-54 0 -92.5 -20.5
t-63.5 -64t-37 -111t-12 -161.5t12 -162t36.5 -111.5t63 -64t92.5 -20.5zM333 771q-13 23 -31.5 49.5t-38.5 53t-40 47.5v10h10q19 -11 45.5 -28.5t52 -36.5t40.5 -35q15 16 40 35t51.5 36.5t45.5 28.5h10v-10q-19 -21 -39.5 -47.5t-39 -53t-31.5 -49.5h-75z" />
    <glyph glyph-name="uni01D2" unicode="&#x1d2;" horiz-adv-x="577" 
d="M287 -10q-108 0 -170 69t-62 210q0 140 59.5 208.5t175.5 68.5q108 0 170 -68.5t62 -208.5q0 -141 -59.5 -210t-175.5 -69zM289 0q49 0 79 27t43.5 86t13.5 156q0 96 -13.5 155t-43.5 85.5t-80 26.5q-49 0 -79 -26.5t-43.5 -85.5t-13.5 -155q0 -97 13.5 -156t44 -86
t79.5 -27zM251 606q-13 23 -31.5 49.5t-38.5 53t-40 47.5v10h10q19 -11 45.5 -28.5t52 -36.5t40.5 -35q15 16 40 35t51.5 36.5t45.5 28.5h10v-10q-19 -21 -39.5 -47.5t-39 -53t-31.5 -49.5h-75z" />
    <glyph glyph-name="uni01D3" unicode="&#x1d3;" horiz-adv-x="717" 
d="M362 -10q-79 0 -135.5 22.5t-86.5 72.5t-30 131v420q0 23 -9 38t-27.5 22.5t-45.5 7.5h-13v10h291v-10h-13q-27 0 -45.5 -8t-27.5 -23.5t-9 -39.5v-423q0 -80 21.5 -125t59.5 -62.5t86 -17.5q68 0 117 24t75.5 69.5t26.5 107.5v430q0 23 -9 38t-27.5 22.5t-45.5 7.5h-13
v10h200v-10h-13q-27 0 -45.5 -8t-27.5 -24t-9 -40v-428q0 -66 -28 -114t-82.5 -74t-134.5 -26zM341 771q-13 23 -31.5 49.5t-38.5 53t-40 47.5v10h10q19 -11 45.5 -28.5t52 -36.5t40.5 -35q15 16 40 35t51.5 36.5t45.5 28.5h10v-10q-19 -21 -39.5 -47.5t-39 -53t-31.5 -49.5
h-75z" />
    <glyph glyph-name="uni01D4" unicode="&#x1d4;" horiz-adv-x="635" 
d="M283 -10q-88 0 -131.5 46.5t-43.5 149.5v250q0 34 -7.5 53.5t-25.5 28t-49 8.5h-3v10h179v-355q0 -64 9 -102.5t30.5 -56.5t57.5 -18q45 0 74.5 23.5t44.5 69t15 109.5v230q0 34 -7.5 53.5t-25.5 28t-49 8.5h-3v10h179v-437q0 -34 7.5 -53.5t25.5 -27.5t49 -8h3v-10h-172
v137h-2q-8 -51 -25.5 -80.5t-40 -43.5t-46 -18.5t-43.5 -4.5zM270 606q-13 23 -31.5 49.5t-38.5 53t-40 47.5v10h10q19 -11 45.5 -28.5t52 -36.5t40.5 -35q15 16 40 35t51.5 36.5t45.5 28.5h10v-10q-19 -21 -39.5 -47.5t-39 -53t-31.5 -49.5h-75z" />
    <glyph glyph-name="uni01D5" unicode="&#x1d5;" horiz-adv-x="717" 
d="M234 961v20h289v-20h-289zM283 777q-19 0 -31.5 12.5t-12.5 43.5q0 32 12.5 44t31.5 12q18 0 31 -12t13 -44q0 -31 -13 -43.5t-31 -12.5zM474 777q-19 0 -31.5 12.5t-12.5 43.5q0 32 12.5 44t31.5 12q18 0 31 -12t13 -44q0 -31 -13 -43.5t-31 -12.5zM362 -10
q-79 0 -135.5 22.5t-86.5 72.5t-30 131v420q0 23 -9 38t-27.5 22.5t-45.5 7.5h-13v10h291v-10h-13q-27 0 -45.5 -8t-27.5 -23.5t-9 -39.5v-423q0 -80 21.5 -125t59.5 -62.5t86 -17.5q68 0 117 24t75.5 69.5t26.5 107.5v430q0 23 -9 38t-27.5 22.5t-45.5 7.5h-13v10h200v-10
h-13q-27 0 -45.5 -8t-27.5 -24t-9 -40v-428q0 -66 -28 -114t-82.5 -74t-134.5 -26z" />
    <glyph glyph-name="uni01D6" unicode="&#x1d6;" horiz-adv-x="635" 
d="M163 796v20h289v-20h-289zM212 612q-19 0 -31.5 12.5t-12.5 43.5q0 32 12.5 44t31.5 12q18 0 31 -12t13 -44q0 -31 -13 -43.5t-31 -12.5zM403 612q-19 0 -31.5 12.5t-12.5 43.5q0 32 12.5 44t31.5 12q18 0 31 -12t13 -44q0 -31 -13 -43.5t-31 -12.5zM283 -10
q-88 0 -131.5 46.5t-43.5 149.5v250q0 34 -7.5 53.5t-25.5 28t-49 8.5h-3v10h179v-355q0 -64 9 -102.5t30.5 -56.5t57.5 -18q45 0 74.5 23.5t44.5 69t15 109.5v230q0 34 -7.5 53.5t-25.5 28t-49 8.5h-3v10h179v-437q0 -34 7.5 -53.5t25.5 -27.5t49 -8h3v-10h-172v137h-2
q-8 -51 -25.5 -80.5t-40 -43.5t-46 -18.5t-43.5 -4.5z" />
    <glyph glyph-name="uni01D7" unicode="&#x1d7;" horiz-adv-x="717" 
d="M357 896q13 22 25.5 45t24.5 47.5t22 47.5h90v-10q-12 -13 -29.5 -30.5t-39 -37t-43 -38.5t-40.5 -34h-10v10zM282 767q-19 0 -31.5 12.5t-12.5 43.5q0 32 12.5 44t31.5 12q18 0 31 -12t13 -44q0 -31 -13 -43.5t-31 -12.5zM473 767q-19 0 -31.5 12.5t-12.5 43.5
q0 32 12.5 44t31.5 12q18 0 31 -12t13 -44q0 -31 -13 -43.5t-31 -12.5zM362 -10q-79 0 -135.5 22.5t-86.5 72.5t-30 131v420q0 23 -9 38t-27.5 22.5t-45.5 7.5h-13v10h291v-10h-13q-27 0 -45.5 -8t-27.5 -23.5t-9 -39.5v-423q0 -80 21.5 -125t59.5 -62.5t86 -17.5
q68 0 117 24t75.5 69.5t26.5 107.5v430q0 23 -9 38t-27.5 22.5t-45.5 7.5h-13v10h200v-10h-13q-27 0 -45.5 -8t-27.5 -24t-9 -40v-428q0 -66 -28 -114t-82.5 -74t-134.5 -26z" />
    <glyph glyph-name="uni01D8" unicode="&#x1d8;" horiz-adv-x="635" 
d="M286 731q13 22 25.5 45t24.5 47.5t22 47.5h90v-10q-12 -13 -29.5 -30.5t-39 -37t-43 -38.5t-40.5 -34h-10v10zM211 602q-19 0 -31.5 12.5t-12.5 43.5q0 32 12.5 44t31.5 12q18 0 31 -12t13 -44q0 -31 -13 -43.5t-31 -12.5zM402 602q-19 0 -31.5 12.5t-12.5 43.5
q0 32 12.5 44t31.5 12q18 0 31 -12t13 -44q0 -31 -13 -43.5t-31 -12.5zM283 -10q-88 0 -131.5 46.5t-43.5 149.5v250q0 34 -7.5 53.5t-25.5 28t-49 8.5h-3v10h179v-355q0 -64 9 -102.5t30.5 -56.5t57.5 -18q45 0 74.5 23.5t44.5 69t15 109.5v230q0 34 -7.5 53.5t-25.5 28
t-49 8.5h-3v10h179v-437q0 -34 7.5 -53.5t25.5 -27.5t49 -8h3v-10h-172v137h-2q-8 -51 -25.5 -80.5t-40 -43.5t-46 -18.5t-43.5 -4.5z" />
    <glyph glyph-name="uni01D9" unicode="&#x1d9;" horiz-adv-x="717" 
d="M340 896q-13 20 -31.5 43t-38.5 46t-40 41v10h10q19 -9 45.5 -24.5t52 -32t40.5 -30.5q15 14 40 30.5t51.5 32t45.5 24.5h10v-10q-19 -18 -39.5 -41t-39 -46t-31.5 -43h-75zM283 767q-19 0 -31.5 12.5t-12.5 43.5q0 32 12.5 44t31.5 12q18 0 31 -12t13 -44
q0 -31 -13 -43.5t-31 -12.5zM474 767q-19 0 -31.5 12.5t-12.5 43.5q0 32 12.5 44t31.5 12q18 0 31 -12t13 -44q0 -31 -13 -43.5t-31 -12.5zM362 -10q-79 0 -135.5 22.5t-86.5 72.5t-30 131v420q0 23 -9 38t-27.5 22.5t-45.5 7.5h-13v10h291v-10h-13q-27 0 -45.5 -8
t-27.5 -23.5t-9 -39.5v-423q0 -80 21.5 -125t59.5 -62.5t86 -17.5q68 0 117 24t75.5 69.5t26.5 107.5v430q0 23 -9 38t-27.5 22.5t-45.5 7.5h-13v10h200v-10h-13q-27 0 -45.5 -8t-27.5 -24t-9 -40v-428q0 -66 -28 -114t-82.5 -74t-134.5 -26z" />
    <glyph glyph-name="uni01DA" unicode="&#x1da;" horiz-adv-x="635" 
d="M269 731q-13 20 -31.5 43t-38.5 46t-40 41v10h10q19 -9 45.5 -24.5t52 -32t40.5 -30.5q15 14 40 30.5t51.5 32t45.5 24.5h10v-10q-19 -18 -39.5 -41t-39 -46t-31.5 -43h-75zM212 602q-19 0 -31.5 12.5t-12.5 43.5q0 32 12.5 44t31.5 12q18 0 31 -12t13 -44
q0 -31 -13 -43.5t-31 -12.5zM403 602q-19 0 -31.5 12.5t-12.5 43.5q0 32 12.5 44t31.5 12q18 0 31 -12t13 -44q0 -31 -13 -43.5t-31 -12.5zM283 -10q-88 0 -131.5 46.5t-43.5 149.5v250q0 34 -7.5 53.5t-25.5 28t-49 8.5h-3v10h179v-355q0 -64 9 -102.5t30.5 -56.5t57.5 -18
q45 0 74.5 23.5t44.5 69t15 109.5v230q0 34 -7.5 53.5t-25.5 28t-49 8.5h-3v10h179v-437q0 -34 7.5 -53.5t25.5 -27.5t49 -8h3v-10h-172v137h-2q-8 -51 -25.5 -80.5t-40 -43.5t-46 -18.5t-43.5 -4.5z" />
    <glyph glyph-name="uni01DB" unicode="&#x1db;" horiz-adv-x="717" 
d="M390 886q-19 15 -40.5 34t-43 38.5t-39 37t-29.5 30.5v10h90q11 -23 22.5 -47.5t24 -47.5t25.5 -45v-10h-10zM284 767q-18 0 -31 12.5t-13 43.5q0 32 13 44t31 12q19 0 31.5 -12t12.5 -44q0 -31 -12.5 -43.5t-31.5 -12.5zM475 767q-18 0 -31 12.5t-13 43.5q0 32 13 44
t31 12q19 0 31.5 -12t12.5 -44q0 -31 -12.5 -43.5t-31.5 -12.5zM362 -10q-79 0 -135.5 22.5t-86.5 72.5t-30 131v420q0 23 -9 38t-27.5 22.5t-45.5 7.5h-13v10h291v-10h-13q-27 0 -45.5 -8t-27.5 -23.5t-9 -39.5v-423q0 -80 21.5 -125t59.5 -62.5t86 -17.5q68 0 117 24
t75.5 69.5t26.5 107.5v430q0 23 -9 38t-27.5 22.5t-45.5 7.5h-13v10h200v-10h-13q-27 0 -45.5 -8t-27.5 -24t-9 -40v-428q0 -66 -28 -114t-82.5 -74t-134.5 -26z" />
    <glyph glyph-name="uni01DC" unicode="&#x1dc;" horiz-adv-x="635" 
d="M319 721q-19 15 -40.5 34t-43 38.5t-39 37t-29.5 30.5v10h90q11 -23 22.5 -47.5t24 -47.5t25.5 -45v-10h-10zM213 602q-18 0 -31 12.5t-13 43.5q0 32 13 44t31 12q19 0 31.5 -12t12.5 -44q0 -31 -12.5 -43.5t-31.5 -12.5zM404 602q-18 0 -31 12.5t-13 43.5q0 32 13 44
t31 12q19 0 31.5 -12t12.5 -44q0 -31 -12.5 -43.5t-31.5 -12.5zM283 -10q-88 0 -131.5 46.5t-43.5 149.5v250q0 34 -7.5 53.5t-25.5 28t-49 8.5h-3v10h179v-355q0 -64 9 -102.5t30.5 -56.5t57.5 -18q45 0 74.5 23.5t44.5 69t15 109.5v230q0 34 -7.5 53.5t-25.5 28t-49 8.5
h-3v10h179v-437q0 -34 7.5 -53.5t25.5 -27.5t49 -8h3v-10h-172v137h-2q-8 -51 -25.5 -80.5t-40 -43.5t-46 -18.5t-43.5 -4.5z" />
    <glyph glyph-name="uni01DD" unicode="&#x1dd;" horiz-adv-x="535" 
d="M258 -10q-97 0 -152.5 60.5t-55.5 178.5v24h333q0 102 -14.5 164.5t-45.5 90.5t-83 28q-37 0 -67 -14t-50 -41t-27 -68q-12 2 -18 12t-6 21q0 21 19 44t57 39.5t95 16.5q113 0 175 -72t62 -202q0 -140 -57.5 -211t-164.5 -71zM260 0q41 0 67 24.5t39.5 78t16.5 140.5
h-232q0 -87 11 -140.5t35 -78t63 -24.5z" />
    <glyph glyph-name="uni01DE" unicode="&#x1de;" horiz-adv-x="705" 
d="M213 961v20h289v-20h-289zM262 777q-19 0 -31.5 12.5t-12.5 43.5q0 32 12.5 44t31.5 12q18 0 31 -12t13 -44q0 -31 -13 -43.5t-31 -12.5zM453 777q-19 0 -31.5 12.5t-12.5 43.5q0 32 12.5 44t31.5 12q18 0 31 -12t13 -44q0 -31 -13 -43.5t-31 -12.5zM0 0v10h29q22 0 37 7
t26 24t21 47l218 626h51l251 -651q8 -20 16 -31.5t18.5 -16.5t24.5 -5h13v-10h-275v10h23q38 0 55 9t17 32q0 6 -1 12.5t-2.5 14.5t-5.5 17l-61 164h-271l-55 -157q-3 -8 -5 -16t-3 -14.5t-1 -12.5q0 -27 24 -38t77 -11h23v-10h-244zM187 269h264l-73 195q-13 34 -24 65
t-20.5 59.5t-17.5 55.5q-7 -22 -13 -40.5t-12 -36.5t-13.5 -38.5t-16.5 -47.5z" />
    <glyph glyph-name="uni01DF" unicode="&#x1df;" horiz-adv-x="563" 
d="M127 796v20h289v-20h-289zM176 612q-19 0 -31.5 12.5t-12.5 43.5q0 32 12.5 44t31.5 12q18 0 31 -12t13 -44q0 -31 -13 -43.5t-31 -12.5zM367 612q-19 0 -31.5 12.5t-12.5 43.5q0 32 12.5 44t31.5 12q18 0 31 -12t13 -44q0 -31 -13 -43.5t-31 -12.5zM215 -10
q-76 0 -120.5 39.5t-44.5 108.5q0 77 56.5 115t171.5 42l83 3v75q0 56 -6 92t-26 53.5t-61 17.5q-58 0 -74.5 -36t-16.5 -113q-42 0 -63.5 14t-21.5 46q0 36 24.5 57.5t65.5 31.5t90 10q92 0 137.5 -39t45.5 -134v-299q0 -24 6 -38t20 -20t36 -6h3v-10h-151v105h-2
q-10 -40 -32 -65.5t-52.5 -37.5t-67.5 -12zM235 4q37 0 65.5 19t44.5 51t16 69v144l-64 -3q-85 -4 -117.5 -39t-32.5 -118q0 -40 9.5 -67.5t29.5 -41.5t49 -14z" />
    <glyph glyph-name="uni01E0" unicode="&#x1e0;" horiz-adv-x="705" 
d="M213 946v20h289v-20h-289zM357 762q-19 0 -31.5 12.5t-12.5 43.5q0 32 12.5 44t31.5 12q18 0 31 -12t13 -44q0 -31 -13 -43.5t-31 -12.5zM0 0v10h29q22 0 37 7t26 24t21 47l218 626h51l251 -651q8 -20 16 -31.5t18.5 -16.5t24.5 -5h13v-10h-275v10h23q38 0 55 9t17 32
q0 6 -1 12.5t-2.5 14.5t-5.5 17l-61 164h-271l-55 -157q-3 -8 -5 -16t-3 -14.5t-1 -12.5q0 -27 24 -38t77 -11h23v-10h-244zM187 269h264l-73 195q-13 34 -24 65t-20.5 59.5t-17.5 55.5q-7 -22 -13 -40.5t-12 -36.5t-13.5 -38.5t-16.5 -47.5z" />
    <glyph glyph-name="uni01E1" unicode="&#x1e1;" horiz-adv-x="563" 
d="M127 796v20h289v-20h-289zM271 612q-19 0 -31.5 12.5t-12.5 43.5q0 32 12.5 44t31.5 12q18 0 31 -12t13 -44q0 -31 -13 -43.5t-31 -12.5zM215 -10q-76 0 -120.5 39.5t-44.5 108.5q0 77 56.5 115t171.5 42l83 3v75q0 56 -6 92t-26 53.5t-61 17.5q-58 0 -74.5 -36
t-16.5 -113q-42 0 -63.5 14t-21.5 46q0 36 24.5 57.5t65.5 31.5t90 10q92 0 137.5 -39t45.5 -134v-299q0 -24 6 -38t20 -20t36 -6h3v-10h-151v105h-2q-10 -40 -32 -65.5t-52.5 -37.5t-67.5 -12zM235 4q37 0 65.5 19t44.5 51t16 69v144l-64 -3q-85 -4 -117.5 -39t-32.5 -118
q0 -40 9.5 -67.5t29.5 -41.5t49 -14z" />
    <glyph glyph-name="uni01E2" unicode="&#x1e2;" horiz-adv-x="951" 
d="M0 0v10h26q19 0 33 7.5t27.5 24.5t28.5 46l332 616h-131v10h553l6 -175h-10l-2 33q-3 50 -17 79t-43.5 41t-80.5 12h-160v-325h251v-10h-251v-359h185q54 0 86 12t46.5 41t17.5 79l2 33h10l-7 -175h-536v10h13q31 0 49 6t25.5 21t7.5 40v182h-242l-84 -156
q-10 -19 -14.5 -33.5t-4.5 -25.5q0 -19 15.5 -26.5t47.5 -7.5h64v-10h-243zM224 269h237v435h-2zM405 811v20h290v-20h-290z" />
    <glyph glyph-name="uni01E3" unicode="&#x1e3;" horiz-adv-x="841" 
d="M215 -10q-51 0 -88 18t-57 51t-20 79q0 77 56.5 115t171.5 42l83 3v75q0 56 -6 92t-26 53.5t-61 17.5q-58 0 -74.5 -36t-16.5 -113q-42 0 -63.5 14t-21.5 46q0 36 24.5 57.5t65.5 31.5t90 10q38 0 67.5 -6t52 -19.5t36.5 -35.5q28 31 67 46t88 15q97 0 152.5 -60
t55.5 -179v-24h-333q1 -102 15 -164t45.5 -90.5t82.5 -28.5q38 0 67.5 14t49.5 41.5t27 67.5q12 -2 18 -12t6 -21q0 -20 -19 -43.5t-56.5 -40t-95.5 -16.5q-78 0 -133 35.5t-81 102.5q-13 -43 -35.5 -74t-55.5 -47.5t-78 -16.5zM235 4q37 0 65.5 18.5t44.5 50t16 70.5v144
l-64 -3q-57 -2 -89.5 -18t-46.5 -49.5t-14 -89.5q0 -61 22 -92t66 -31zM690 293q0 88 -11 141t-35 77.5t-63 24.5q-41 0 -67 -24.5t-39 -77.5t-17 -141h232zM275 646v20h290v-20h-290z" />
    <glyph glyph-name="uni01E4" unicode="&#x1e4;" horiz-adv-x="714" 
d="M401 -10q-116 0 -192.5 46t-114 128.5t-37.5 193.5q0 108 37 190.5t112.5 129t190.5 46.5q74 0 125.5 -14t78.5 -38.5t27 -56.5q0 -34 -21.5 -51.5t-71.5 -21.5q0 62 -14.5 100t-45.5 55t-82 17q-81 0 -130.5 -35.5t-72 -114t-22.5 -206.5q0 -129 25 -207.5t80 -114.5
t144 -36q29 0 56 4.5t48 10.5v157h-130v10h130v70q0 23 -9 38t-27.5 22.5t-45.5 7.5h-4v10h260v-10h-4q-26 0 -41 -8t-21.5 -24t-6.5 -40v-66h77v-10h-77v-136q-50 -23 -103 -34.5t-118 -11.5z" />
    <glyph glyph-name="uni01E5" unicode="&#x1e5;" horiz-adv-x="538" 
d="M231 -240q-104 0 -156 37.5t-52 99.5q0 35 16 60.5t49 40.5t83 15q-39 12 -58.5 39t-19.5 57q0 29 19.5 55.5t60.5 40.5q-48 17 -76.5 56.5t-28.5 99.5q0 86 47 135.5t141 49.5q35 0 63 -8.5t50 -24.5q15 16 40 35t59 19q29 0 43.5 -15.5t14.5 -37.5q0 -20 -12.5 -33
t-40.5 -13q0 32 -10.5 47t-33.5 15q-13 0 -24 -4.5t-28 -18.5q29 -24 44 -61t15 -82q0 -74 -44.5 -123t-135.5 -49q-19 0 -36.5 2.5t-33.5 6.5q-24 -10 -33 -24t-9 -31q0 -26 18.5 -38t55.5 -12h113q89 0 127 -42t38 -107q0 -7 -0.5 -13.5t-1.5 -13.5h58v-10h-59
q-13 -70 -77 -110t-185 -40zM239 -230q95 0 140 34t45 106h-178v10h177q-3 44 -30.5 65.5t-80.5 21.5h-108q-27 0 -51.5 -10t-40 -35t-15.5 -69q0 -41 17 -68.5t48.5 -41t76.5 -13.5zM253 202q33 0 52.5 17t28 53t8.5 92q0 59 -9 97t-28.5 56.5t-52.5 18.5q-32 0 -52 -19.5
t-29 -57.5t-9 -96q0 -55 9.5 -91t29.5 -53t52 -17z" />
    <glyph glyph-name="uni01E6" unicode="&#x1e6;" horiz-adv-x="714" 
d="M401 -10q-116 0 -192.5 46t-114 128.5t-37.5 193.5q0 108 37 190.5t112.5 129t190.5 46.5q74 0 125.5 -14t78.5 -38.5t27 -56.5q0 -34 -21.5 -51.5t-71.5 -21.5q0 62 -14.5 100t-45.5 55t-82 17q-81 0 -130.5 -35.5t-72 -114t-22.5 -206.5q0 -129 25 -207.5t80 -114.5
t144 -36q29 0 56 4.5t48 10.5v237q0 23 -9 38t-27.5 22.5t-45.5 7.5h-4v10h260v-10h-4q-26 0 -41 -8t-21.5 -24t-6.5 -40v-212q-50 -23 -103 -34.5t-118 -11.5zM359 771q-13 23 -31.5 49.5t-38.5 53t-40 47.5v10h10q19 -11 45.5 -28.5t52 -36.5t40.5 -35q15 16 40 35
t51.5 36.5t45.5 28.5h10v-10q-19 -21 -39.5 -47.5t-39 -53t-31.5 -49.5h-75z" />
    <glyph glyph-name="uni01E7" unicode="&#x1e7;" horiz-adv-x="538" 
d="M231 -240q-104 0 -156 37.5t-52 99.5q0 35 16 60.5t49 40.5t83 15q-39 12 -58.5 39t-19.5 57q0 29 19.5 55.5t60.5 40.5q-48 17 -76.5 56.5t-28.5 99.5q0 86 47 135.5t141 49.5q35 0 63 -8.5t50 -24.5q15 16 40 35t59 19q29 0 43.5 -15.5t14.5 -37.5q0 -20 -12.5 -33
t-40.5 -13q0 32 -10.5 47t-33.5 15q-13 0 -24 -4.5t-28 -18.5q29 -24 44 -61t15 -82q0 -74 -44.5 -123t-135.5 -49q-19 0 -36.5 2.5t-33.5 6.5q-24 -10 -33 -24t-9 -31q0 -26 18.5 -38t55.5 -12h113q89 0 127 -42t38 -107q0 -86 -64.5 -136.5t-200.5 -50.5zM239 -230
q95 0 140 34.5t45 101.5q0 52 -27.5 76.5t-84.5 24.5h-108q-27 0 -51.5 -10t-40 -35t-15.5 -69q0 -41 17 -68.5t48.5 -41t76.5 -13.5zM253 202q33 0 52.5 17t28 53t8.5 92q0 59 -9 97t-28.5 56.5t-52.5 18.5q-32 0 -52 -19.5t-29 -57.5t-9 -96q0 -55 9.5 -91t29.5 -53
t52 -17zM222 606q-13 23 -31.5 49.5t-38.5 53t-40 47.5v10h10q19 -11 45.5 -28.5t52 -36.5t40.5 -35q15 16 40 35t51.5 36.5t45.5 28.5h10v-10q-19 -21 -39.5 -47.5t-39 -53t-31.5 -49.5h-75z" />
    <glyph glyph-name="uni01E8" unicode="&#x1e8;" horiz-adv-x="700" 
d="M38 0v10h13q27 0 45.5 8t27.5 24t9 40v554q0 23 -9 38t-27.5 22.5t-45.5 7.5h-13v10h291v-10h-13q-27 0 -45.5 -8t-27.5 -24t-9 -40v-336l255 289q18 20 29.5 35.5t17 28t5.5 21.5q0 12 -10 19.5t-31 10.5t-53 3v11h221v-11q-22 0 -43 -8.5t-45 -29.5t-56 -57l-154 -173
l220 -312q23 -32 40.5 -54t31 -35t25 -18.5t23.5 -5.5h2v-10h-11q-50 0 -82.5 4t-53.5 14t-38 27.5t-36 44.5l-188 269l-69 -79v-198q0 -24 9 -40t27.5 -24t45.5 -8h13v-10h-291zM344 771q-13 23 -31.5 49.5t-38.5 53t-40 47.5v10h10q19 -11 45.5 -28.5t52 -36.5t40.5 -35
q15 16 40 35t51.5 36.5t45.5 28.5h10v-10q-19 -21 -39.5 -47.5t-39 -53t-31.5 -49.5h-75z" />
    <glyph glyph-name="uni01E9" unicode="&#x1e9;" horiz-adv-x="585" 
d="M18 0v10h8q30 0 48 8t26 25t8 44v585q0 28 -8 45t-26 25t-48 8h-3v10h179v-414v-39.5t-0.5 -39.5t-1.5 -40l170 190q16 18 27 32.5t16.5 26t5.5 19.5q0 17 -22 24t-68 7v10h221v-10q-25 0 -44.5 -5t-43 -24t-62.5 -62l-78 -88l154 -237q31 -47 49.5 -68t31.5 -26.5
t26 -5.5h3v-10h-44q-30 0 -52.5 4t-40 12.5t-32 23t-28.5 36.5l-128 202l-59 -66v-120q0 -30 8 -48t26 -26t48 -8h3v-10h-269zM255 796q-13 23 -31.5 49.5t-38.5 53t-40 47.5v10h10q19 -11 45.5 -28.5t52 -36.5t40.5 -35q15 16 40 35t51.5 36.5t45.5 28.5h10v-10
q-19 -21 -39.5 -47.5t-39 -53t-31.5 -49.5h-75z" />
    <glyph glyph-name="uni01EA" unicode="&#x1ea;" horiz-adv-x="742" 
d="M371 -10q-106 0 -176 46t-104.5 129t-34.5 194t34.5 193t105 127.5t176.5 45.5q101 0 170.5 -45.5t106 -128t36.5 -193.5t-36.5 -193.5t-106.5 -128.5t-171 -46zM371 0q53 0 91.5 20.5t63 64t36.5 111.5t12 162t-12 161.5t-36.5 111t-62.5 64t-91 20.5q-54 0 -92.5 -20.5
t-63.5 -64t-37 -111t-12 -161.5t12 -162t36.5 -111.5t63 -64t92.5 -20.5zM387 -240q-54 0 -90 24t-36 72q0 32 17 59t48.5 48.5t72.5 36.5h21q-40 -13 -61.5 -45t-21.5 -86q0 -48 18 -72.5t56 -24.5q15 0 30.5 3.5t33.5 10.5v-10q-16 -7 -39 -11.5t-49 -4.5z" />
    <glyph glyph-name="uni01EB" unicode="&#x1eb;" horiz-adv-x="577" 
d="M287 -10q-108 0 -170 69t-62 210q0 140 59.5 208.5t175.5 68.5q108 0 170 -68.5t62 -208.5q0 -141 -59.5 -210t-175.5 -69zM289 0q49 0 79 27t43.5 86t13.5 156q0 96 -13.5 155t-43.5 85.5t-80 26.5q-49 0 -79 -26.5t-43.5 -85.5t-13.5 -155q0 -97 13.5 -156t44 -86
t79.5 -27zM294 -245q-54 0 -90 24t-36 72q0 32 17 59t48.5 48.5t72.5 36.5h21q-40 -13 -61.5 -45t-21.5 -86q0 -48 18 -72.5t56 -24.5q15 0 30.5 3.5t33.5 10.5v-10q-16 -7 -39 -11.5t-49 -4.5z" />
    <glyph glyph-name="uni01EC" unicode="&#x1ec;" horiz-adv-x="742" 
d="M371 -10q-106 0 -176 46t-104.5 129t-34.5 194t34.5 193t105 127.5t176.5 45.5q101 0 170.5 -45.5t106 -128t36.5 -193.5t-36.5 -193.5t-106.5 -128.5t-171 -46zM371 0q53 0 91.5 20.5t63 64t36.5 111.5t12 162t-12 161.5t-36.5 111t-62.5 64t-91 20.5q-54 0 -92.5 -20.5
t-63.5 -64t-37 -111t-12 -161.5t12 -162t36.5 -111.5t63 -64t92.5 -20.5zM387 -240q-54 0 -90 24t-36 72q0 32 17 59t48.5 48.5t72.5 36.5h21q-40 -13 -61.5 -45t-21.5 -86q0 -48 18 -72.5t56 -24.5q15 0 30.5 3.5t33.5 10.5v-10q-16 -7 -39 -11.5t-49 -4.5zM224 801v20h290
v-20h-290z" />
    <glyph glyph-name="uni01ED" unicode="&#x1ed;" horiz-adv-x="577" 
d="M287 -10q-108 0 -170 69t-62 210q0 140 59.5 208.5t175.5 68.5q108 0 170 -68.5t62 -208.5q0 -141 -59.5 -210t-175.5 -69zM289 0q49 0 79 27t43.5 86t13.5 156q0 96 -13.5 155t-43.5 85.5t-80 26.5q-49 0 -79 -26.5t-43.5 -85.5t-13.5 -155q0 -97 13.5 -156t44 -86
t79.5 -27zM140 636v20h290v-20h-290zM299 -240q-54 0 -90 24t-36 72q0 32 17 59t48.5 48.5t72.5 36.5h21q-40 -13 -61.5 -45t-21.5 -86q0 -48 18 -72.5t56 -24.5q15 0 30.5 3.5t33.5 10.5v-10q-16 -7 -39 -11.5t-49 -4.5z" />
    <glyph glyph-name="uni01EE" unicode="&#x1ee;" horiz-adv-x="603" 
d="M261 771q-13 23 -31.5 49.5t-38.5 53t-40 47.5v10h10q19 -11 45.5 -28.5t52 -36.5t40.5 -35q15 16 40 35t51.5 36.5t45.5 28.5h10v-10q-19 -21 -39.5 -47.5t-39 -53t-31.5 -49.5h-75zM274 -11q-58 0 -101.5 11.5t-71.5 30t-42 41.5t-14 47q0 22 10 37t29 23t45 8
q0 -64 17.5 -105.5t52 -62t85.5 -20.5q50 0 82.5 20.5t48.5 62.5t16 109q0 65 -17 105.5t-60 59.5t-120 19h-21v11l244 247h-275q-43 0 -61 -13.5t-22 -48.5l-1 -9h-10l5 152h418v-41l-284 -287q85 0 145 -11t97.5 -34t55 -58t17.5 -83q0 -68 -31 -115.5t-90.5 -71.5
t-146.5 -24z" />
    </font>
</defs>
</svg>
