<?xml version="1.0" standalone="no"?>
<!DOCTYPE svg PUBLIC "-//W3C//DTD SVG 1.1//EN" "http://www.w3.org/Graphics/SVG/1.1/DTD/svg11.dtd" >
<svg xmlns="http://www.w3.org/2000/svg" xmlns:xlink="http://www.w3.org/1999/xlink" version="1.1">
<metadata>
Created by FontForge 20190611 at Mon Nov  2 21:56:36 2020
 By convertio
Copyright 2016 Google Inc. All Rights Reserved.
</metadata>
<defs>
<font id="NotoSerifDisplay-MediumItalic" horiz-adv-x="0" >
  <font-face 
    font-family="Noto Serif Display Medium"
    font-weight="500"
    font-style="italic"
    font-stretch="normal"
    units-per-em="1000"
    panose-1="2 2 5 2 8 5 5 9 2 4"
    ascent="800"
    descent="-200"
    x-height="536"
    cap-height="714"
    bbox="-810 -470 2797 1077"
    underline-thickness="50"
    underline-position="-175"
    slope="-12"
    unicode-range="U+000D-FFFD"
  />
<missing-glyph horiz-adv-x="572" 
d="M82 0v714h408v-714h-408zM132 50h307v614h-307v-614z" />
    <glyph glyph-name="f_f" unicode="ff" horiz-adv-x="649" 
d="M-81 -240q-15 0 -32 2.5t-27 5.5l2 10q9 -2 23 -4.5t27 -2.5q33 0 55.5 20.5t39 67t33.5 123.5l116 544h-92l1 6l94 4l6 28q20 95 71 143.5t136 48.5q46 0 73 -9t40 -24t13 -33q0 -28 -20.5 -44.5t-61.5 -16.5q0 29 -2.5 56t-12.5 44t-33 17q-34 0 -53 -37.5t-37 -122.5
l-10 -50h194l-1 -10h-195l-113 -529q-15 -70 -38 -115.5t-53 -72t-66 -38t-77 -11.5zM223 -240q-15 0 -32 2.5t-27 5.5l2 10q8 -2 21.5 -4.5t24.5 -2.5q35 0 58 20.5t40.5 67t33.5 123.5l117 544h-92l1 6l92 4l7 31q14 58 40 104t67 72.5t99 26.5q68 0 102.5 -21.5
t34.5 -56.5q0 -33 -23.5 -49.5t-68.5 -16.5q1 58 -7 96t-39 38q-23 0 -39 -19t-28 -57t-23 -93l-12 -55h115l-2 -10h-115l-113 -529q-14 -70 -37 -116t-53.5 -72t-66.5 -37.5t-77 -11.5z" />
    <glyph glyph-name="fi" unicode="fi" horiz-adv-x="605" 
d="M-87 -240q-15 0 -32 2.5t-27 5.5l2 10q8 -2 21.5 -4.5t24.5 -2.5q35 0 58 20.5t40.5 67t33.5 123.5l117 544h-92l1 7l92 3l12 51q20 89 77 136t163 47q58 0 95 -10t55 -27.5t18 -40.5q0 -33 -31.5 -49.5t-84.5 -16.5q0 40 -4 70t-17 47t-38 17q-34 0 -57 -16t-37.5 -49
t-25.5 -86l-15 -73h295l-71 -332q-2 -13 -6 -33t-6.5 -40.5t-2.5 -34.5q1 -33 11 -50t31 -17q24 0 41 9.5t35 22.5l6 -9q-22 -20 -59.5 -41t-80.5 -21q-44 0 -68.5 28t-24.5 71q0 37 7.5 76.5t13.5 71.5l61 289h-184l-113 -529q-14 -70 -37.5 -115.5t-53.5 -72t-66 -38
t-77 -11.5z" />
    <glyph glyph-name="fl" unicode="fl" horiz-adv-x="614" 
d="M-80 -240q-15 0 -32 2.5t-27 5.5l2 10q8 -2 21.5 -4.5t24.5 -2.5q34 0 57.5 21t40.5 67t34 123l116 544h-92l2 7l92 3l12 51q20 88 76 135.5t159 47.5q30 0 58.5 -7t46.5 -19l80 16h21l-119 -556q-3 -13 -6.5 -33.5t-6.5 -41t-3 -33.5q1 -33 10.5 -50t32.5 -17
q19 0 38 9.5t39 22.5l5 -9q-23 -20 -60.5 -41t-80.5 -21q-45 0 -68.5 28.5t-23.5 74.5q0 21 3.5 46.5t8.5 51.5t9 47l94 441q-2 39 -25.5 60t-58.5 21q-49 0 -74.5 -36.5t-41.5 -114.5l-15 -73h115l-2 -10h-116l-112 -529q-15 -69 -38 -115t-53.5 -72.5t-66 -38t-76.5 -11.5
z" />
    <glyph glyph-name="f_f_i" unicode="ffi" horiz-adv-x="915" 
d="M-81 -240q-15 0 -32 2.5t-27 5.5l2 10q9 -2 23 -4.5t27 -2.5q33 0 55.5 20.5t39 67t33.5 123.5l116 544h-92l1 6l94 4l6 28q20 95 71 143.5t136 48.5q46 0 73 -9t40 -24t13 -33q0 -28 -20.5 -44.5t-61.5 -16.5q0 29 -2.5 56t-12.5 44t-33 17q-34 0 -53 -37.5t-37 -122.5
l-10 -50h194l12 51q14 58 43 98.5t77.5 62.5t119.5 22q58 0 95 -10t55 -27.5t18 -40.5q0 -33 -31 -49.5t-84 -16.5q0 39 -5.5 69t-20 47t-42.5 17q-32 0 -53 -16t-34.5 -49t-24.5 -85l-15 -73h295l-71 -332q-2 -12 -5.5 -32t-6 -42t-2.5 -42q0 -25 9 -43.5t32 -18.5
q18 0 38.5 10t38.5 24l5 -8q-22 -20 -59.5 -41t-80.5 -21q-44 0 -68 28t-24 80q0 19 3 43.5t8 50t9 45.5l61 289h-184l-113 -529q-14 -70 -37 -115.5t-53.5 -72t-66.5 -38t-77 -11.5q-15 0 -32 2.5t-27 5.5l2 10q9 -2 23.5 -4.5t26.5 -2.5q34 0 56.5 20.5t39 67t32.5 123.5
l117 544h-195l-113 -529q-15 -70 -38 -115.5t-53 -72t-66 -38t-77 -11.5z" />
    <glyph glyph-name="f_f_l" unicode="ffl" horiz-adv-x="916" 
d="M-81 -240q-15 0 -32 2.5t-27 5.5l2 10q9 -2 23.5 -4.5t27.5 -2.5q33 0 55 20.5t39 67t33 123.5l117 544h-92l1 6l92 4l6 28q21 95 72.5 143.5t136.5 48.5q45 0 72.5 -9t40.5 -24t13 -33q0 -28 -21 -44.5t-62 -16.5q0 29 -3.5 56t-14 44t-31.5 17q-34 0 -52 -37.5
t-36 -122.5l-11 -50h194l12 51q10 44 29 78.5t47.5 57.5t67 35t89.5 12q32 0 60.5 -7t47.5 -19l79 16h21l-119 -556q-2 -13 -5.5 -33.5t-6 -42.5t-2.5 -38q0 -30 10 -47t32 -17q18 0 38 10.5t38 24.5l5 -9q-22 -20 -60 -41t-80 -21q-46 0 -69 28t-23 78q0 20 3.5 45t8 50.5
t9.5 46.5l93 441q-2 40 -25.5 60t-55.5 20q-53 0 -78 -36t-41 -114l-15 -73h115l-2 -10h-115l-113 -529q-14 -70 -37 -115.5t-53.5 -72t-66.5 -38t-77 -11.5q-15 0 -32 2.5t-27 5.5l2 10q9 -2 23.5 -4.5t27.5 -2.5q34 0 56 20.5t38.5 67t32.5 123.5l117 544h-195l-113 -529
q-14 -70 -37.5 -115.5t-53.5 -72t-66 -38t-77 -11.5z" />
    <glyph glyph-name=".notdef" horiz-adv-x="572" 
d="M82 0v714h408v-714h-408zM132 50h307v614h-307v-614z" />
    <glyph glyph-name=".null" 
 />
    <glyph glyph-name="nonmarkingreturn" horiz-adv-x="333" 
 />
    <glyph glyph-name="NULL" 
 />
    <glyph glyph-name="NULL" 
 />
    <glyph glyph-name="CR" unicode="&#xd;" horiz-adv-x="250" 
 />
    <glyph glyph-name="space" unicode=" " horiz-adv-x="250" 
 />
    <glyph glyph-name="exclam" unicode="!" horiz-adv-x="350" 
d="M151 208l51 506h133l-169 -506h-15zM123 -8q-23 0 -37 12t-14 40q0 37 20 65t54 28q22 0 36 -12t14 -41q0 -25 -8 -46t-24 -33.5t-41 -12.5z" />
    <glyph glyph-name="quotedbl" unicode="&#x22;" horiz-adv-x="299" 
d="M120 479l5 235h105l-95 -235h-15zM255 479l5 235h105l-95 -235h-15z" />
    <glyph glyph-name="numbersign" unicode="#" horiz-adv-x="559" 
d="M69 0l69 234h-116v10h118l76 254h-117v10h119l60 206h10l-60 -206h211l60 206h10l-60 -206h131v-10h-133l-76 -254h132v-10h-134l-69 -234h-10l69 234h-211l-69 -234h-10zM150 244h211l76 254h-211z" />
    <glyph glyph-name="dollar" unicode="$" horiz-adv-x="559" 
d="M234 37q-63 0 -107.5 18.5t-68.5 49t-24 67.5q0 30 13 48.5t33.5 27t39.5 8.5q0 -57 13.5 -104t39 -75t63.5 -31l56 272l-36 19q-38 20 -64.5 43.5t-40.5 53.5t-14 68q0 61 29 101.5t81.5 61t122.5 20.5l16 75h10l-16 -75q53 -1 91 -14.5t58 -36t20 -52.5q0 -32 -21 -52
t-69 -20q0 37 -7.5 74.5t-25.5 63t-48 28.5l-55 -260l30 -16q48 -25 79.5 -49.5t46.5 -53.5t15 -68q0 -60 -31.5 -103.5t-88 -66.5t-131.5 -23l-24 -115h-10zM245 46q46 2 79 22.5t50.5 55t17.5 77.5q0 23 -8 41.5t-27.5 36t-54.5 35.5zM367 676q-34 -1 -63.5 -20.5
t-47.5 -53t-18 -79.5q0 -20 8 -39t24.5 -35t44.5 -29z" />
    <glyph glyph-name="percent" unicode="%" horiz-adv-x="902" 
d="M211 0l500 714h11l-500 -714h-11zM208 281q-61 0 -97.5 39.5t-36.5 121.5q0 41 12.5 89.5t38.5 92.5t66.5 71.5t98.5 27.5q72 0 104 -44t32 -115q0 -31 -8 -69t-24.5 -75.5t-42.5 -69t-61.5 -50.5t-81.5 -19zM214 291q24 0 43.5 19.5t34.5 51.5t25 70.5t15 77.5t5 72
q0 65 -10.5 98.5t-38.5 33.5q-24 0 -44 -20t-35.5 -53t-26 -72t-16 -77.5t-5.5 -68.5q0 -65 12 -98.5t41 -33.5zM649 -9q-61 0 -97.5 40t-36.5 121q0 42 12.5 90.5t38.5 92t66.5 71.5t98.5 28q72 0 104 -44t32 -116q0 -31 -8 -68.5t-24.5 -75.5t-42.5 -69.5t-61.5 -50.5
t-81.5 -19zM655 1q24 0 43.5 19.5t34.5 52t25.5 71t15.5 77.5t5 71q0 65 -12 98.5t-39 33.5q-24 0 -44.5 -20t-35.5 -53t-25 -71.5t-15 -77t-5 -68.5q0 -64 11 -98.5t41 -34.5z" />
    <glyph glyph-name="ampersand" unicode="&#x26;" horiz-adv-x="764" 
d="M260 -10q-76 0 -126.5 24.5t-74.5 65.5t-24 94q0 64 28.5 106.5t79 68t115.5 37.5q-31 50 -45 88.5t-14 75.5q0 58 26 97t74.5 58t114.5 19q60 0 98 -17t56.5 -46t18.5 -67q0 -50 -24 -82.5t-73 -55t-126 -42.5l147 -200q21 40 35.5 84.5t23.5 85.5l8 38h188l-2 -10h-13
q-29 0 -48.5 -8t-35 -27.5t-34.5 -55.5q-20 -38 -40.5 -78.5t-44.5 -78.5l63 -84q27 -37 43 -53.5t42 -16.5h8l-2 -10h-165l-57 79q-39 -37 -92.5 -63t-127.5 -26zM272 0q57 0 100.5 34t76.5 89l-185 255q-42 -22 -68 -49.5t-37.5 -64t-11.5 -87.5q0 -53 14.5 -93t42.5 -62
t68 -22zM359 421q49 28 77.5 54.5t40.5 57t12 70.5q0 47 -19.5 79t-59.5 32q-52 0 -78.5 -35t-26.5 -109q0 -23 5.5 -46.5t17 -48.5t31.5 -54z" />
    <glyph glyph-name="quotesingle" unicode="'" horiz-adv-x="165" 
d="M120 479l5 235h105l-95 -235h-15z" />
    <glyph glyph-name="parenleft" unicode="(" horiz-adv-x="361" 
d="M233 -131q-67 27 -109.5 76.5t-62 113t-19.5 136.5q0 92 23.5 183t70.5 169.5t118.5 135t168.5 80.5l-2 -9q-63 -36 -109.5 -95.5t-77.5 -131t-49 -143.5t-25.5 -134.5t-7.5 -104.5q0 -63 6 -110t24.5 -84t52.5 -73z" />
    <glyph glyph-name="parenright" unicode=")" horiz-adv-x="361" 
d="M-42 -127q69 38 116.5 98t77.5 131t46.5 142.5t22.5 133.5t6 103q0 58 -4.5 107t-22 89t-56.5 71l2 10q68 -28 110 -77t61.5 -113t19.5 -137q0 -92 -23.5 -182.5t-70.5 -169t-118.5 -135.5t-168.5 -81z" />
    <glyph glyph-name="asterisk" unicode="*" horiz-adv-x="520" 
d="M331 369l-92 19l73 164l-182 -79l-20 91l196 7l-177 85l55 76l135 -147l-1 181l92 -19l-75 -165l183 79l20 -91l-197 -6l178 -84l-54 -74l-137 143z" />
    <glyph glyph-name="plus" unicode="+" horiz-adv-x="559" 
d="M288 143v204h-204v20h204v205h20v-205h205v-20h-205v-204h-20z" />
    <glyph glyph-name="comma" unicode="," horiz-adv-x="261" 
d="M-21 -137q37 9 62 22.5t37.5 32.5t12.5 45q0 24 -10.5 36.5t-23.5 21t-23.5 19.5t-10.5 33q0 30 19.5 46t46.5 16q33 0 56.5 -22t23.5 -63q0 -46 -20.5 -85.5t-63 -68t-108.5 -43.5z" />
    <glyph glyph-name="hyphen" unicode="-" horiz-adv-x="310" 
d="M24 263l4 20h260l-4 -20h-260z" />
    <glyph glyph-name="period" unicode="." horiz-adv-x="250" 
d="M78 -8q-23 0 -37 12t-14 40q0 37 20 65t54 28q22 0 36 -12t14 -41q0 -25 -8 -46t-24 -33.5t-41 -12.5z" />
    <glyph glyph-name="slash" unicode="/" horiz-adv-x="247" 
d="M-78 -121l415 881h10l-415 -881h-10z" />
    <glyph glyph-name="zero" unicode="0" horiz-adv-x="559" 
d="M246 -11q-87 0 -141.5 62.5t-54.5 186.5q0 60 11 127t34.5 130.5t59.5 115.5t85.5 83t114.5 31q53 0 97 -24t70 -76t26 -136q0 -59 -10.5 -127t-33.5 -134t-58.5 -120t-85 -86.5t-114.5 -32.5zM247 -1q33 0 61 23.5t49.5 64.5t37.5 94t26.5 111.5t15.5 118t5 111.5
q0 74 -9 116t-29 59.5t-51 17.5q-40 0 -71.5 -34t-55 -90t-39.5 -125t-24 -140.5t-8 -133.5q0 -73 11 -115t31 -60t50 -18z" />
    <glyph glyph-name="one" unicode="1" horiz-adv-x="559" 
d="M49 0l1 10h54q25 0 44 5t32.5 20t18.5 45l85 399q6 27 12.5 55.5t14 57.5t13.5 55h-1q-34 -40 -60.5 -66.5t-49 -39t-44.5 -12.5t-33 17t-11 43q45 -1 76.5 4.5t57 18.5t52.5 37l75 69h63l-136 -640q-1 -6 -3 -15.5t-2 -14.5q0 -24 20.5 -31t52.5 -7h53l-2 -10h-383z" />
    <glyph glyph-name="two" unicode="2" horiz-adv-x="559" 
d="M1 0l21 86l229 199q54 46 88 86.5t52.5 77t26 72t7.5 73.5q0 64 -21.5 92t-63.5 28q-31 0 -54 -12.5t-39 -37t-26 -62t-15 -87.5q-36 0 -59.5 16.5t-23.5 53.5q0 36 26 67.5t76 51.5t121 20q96 0 145.5 -39.5t49.5 -106.5q0 -46 -23.5 -90t-72 -91t-124.5 -103l-281 -206
h334q30 0 48 9.5t30 26t18 35.5l8 23h10l-43 -182h-444z" />
    <glyph glyph-name="three" unicode="3" horiz-adv-x="559" 
d="M205 -10q-72 0 -116 16t-63 41t-19 52q0 37 24 57t61 20q1 -62 12.5 -100.5t38 -57t68.5 -18.5q32 0 60.5 11.5t50.5 36.5t34.5 66t12.5 99q0 76 -34 115.5t-98 39.5h-49l2 10h36q42 0 78 14.5t62.5 42.5t41 68.5t14.5 91.5q0 62 -17.5 90.5t-58.5 28.5q-44 0 -71.5 -23
t-43.5 -66t-25 -103q-36 0 -60.5 13.5t-24.5 50.5q0 41 30.5 72t82 48.5t114.5 17.5q86 0 138 -37.5t52 -105.5q0 -42 -17 -76.5t-49 -61.5t-79 -44t-106 -25q64 -4 108.5 -22.5t68 -52t23.5 -81.5q0 -63 -25.5 -107t-67.5 -70.5t-91 -38.5t-98 -12z" />
    <glyph glyph-name="four" unicode="4" horiz-adv-x="559" 
d="M148 0l1 10h41q24 0 43 5.5t33 21t20 45.5l79 374q11 48 27 114l32 132q-15 -19 -31 -38t-32.5 -38.5t-35.5 -41.5l-290 -341l1 9h514l-13 -59h-528l11 47l404 474h107l-135 -635l-2.5 -15t-1.5 -14q0 -25 19.5 -32.5t50.5 -7.5h21l-2 -10h-333z" />
    <glyph glyph-name="five" unicode="5" horiz-adv-x="559" 
d="M191 -10q-65 0 -104.5 14t-57 38t-17.5 53t19 48t61 19q0 -48 8 -84.5t30.5 -57t64.5 -20.5q37 0 68 14.5t53.5 45t35 78t12.5 111.5q0 52 -10 89.5t-34 58t-67 20.5q-30 0 -67.5 -14t-76.5 -48l-11 2l107 357h341l-27 -160h-10q1 13 2 27.5t1 20.5q0 11 -9 17.5t-34 6.5
h-280l-76 -257q24 22 50.5 35t53 19t49.5 6q65 0 113.5 -21t75 -62.5t26.5 -101.5q0 -54 -20 -100t-57 -81t-91 -54t-122 -19z" />
    <glyph glyph-name="six" unicode="6" horiz-adv-x="559" 
d="M262 -10q-56 0 -100.5 26.5t-70.5 80.5t-26 138q0 69 14 138.5t41.5 132.5t69.5 112t97.5 77.5t125.5 28.5q79 0 120 -28t41 -66q0 -36 -25.5 -56.5t-72.5 -20.5q1 44 -2.5 80.5t-18 58.5t-44.5 22q-35 0 -66 -19.5t-58 -60t-49.5 -103t-42.5 -147.5q23 16 60.5 33.5
t86.5 17.5q58 0 95.5 -23.5t56 -63t18.5 -88.5q0 -52 -15.5 -100.5t-46 -86.5t-77.5 -60.5t-111 -22.5zM269 0q34 0 58.5 21.5t40.5 58.5t23.5 84t7.5 99q0 49 -7 84.5t-25 54.5t-51 19q-30 0 -65 -16.5t-58 -34.5q-6 -27 -10 -54t-6 -56t-2 -61q0 -69 9.5 -113.5t30.5 -65
t54 -20.5z" />
    <glyph glyph-name="seven" unicode="7" horiz-adv-x="559" 
d="M121 0l434 626h-357q-27 0 -44.5 -12.5t-24.5 -38.5l-14 -50h-10l44 189h454l-7 -37l-396 -677h-79z" />
    <glyph glyph-name="eight" unicode="8" horiz-adv-x="559" 
d="M245 -10q-102 0 -160 48t-58 123q0 56 24.5 92.5t71 61t112.5 42.5q-37 25 -61 52t-35.5 58t-11.5 64q0 54 25 98t78.5 69.5t139.5 25.5q92 0 140.5 -41.5t48.5 -105.5q0 -51 -21.5 -86.5t-63 -59.5t-101.5 -42q44 -24 75.5 -51t48.5 -60t17 -76q0 -73 -35.5 -120
t-96 -69.5t-137.5 -22.5zM258 0q46 0 79 19t51 55.5t18 89.5q0 43 -17.5 73.5t-53 57t-91.5 56.5q-35 -24 -59.5 -51t-37.5 -64t-13 -92q0 -42 13.5 -74.5t41 -51t69.5 -18.5zM362 395q55 38 76.5 83t21.5 109q0 36 -8.5 64.5t-29.5 45.5t-59 17q-43 0 -71.5 -20t-42.5 -55
t-14 -82q0 -35 13 -63t41 -51.5t73 -47.5z" />
    <glyph glyph-name="nine" unicode="9" horiz-adv-x="559" 
d="M192 -10q-59 0 -94 13.5t-49 35t-14 44.5q0 27 17 44t47 17q1 -37 9 -70.5t29.5 -53.5t61.5 -20q38 0 68.5 22t55.5 65.5t46.5 108t41.5 147.5q-22 -25 -57 -45.5t-83 -20.5q-86 0 -133 51t-47 132q0 55 17.5 103t51 84t79.5 56.5t103 20.5q58 0 102 -26.5t69 -79
t25 -131.5q0 -51 -11 -116.5t-35.5 -132.5t-65 -123t-98 -90.5t-136.5 -34.5zM295 293q36 0 65.5 19.5t54.5 48.5q4 23 6.5 51.5t4.5 57.5t2 54q0 64 -9 106t-28 63t-50 21q-37 0 -63.5 -23t-42.5 -61.5t-24 -85t-8 -94.5q0 -56 10 -90.5t30.5 -50.5t51.5 -16z" />
    <glyph glyph-name="colon" unicode=":" horiz-adv-x="306" 
d="M94 -8q-23 0 -36.5 12t-13.5 40q0 37 19.5 65t53.5 28q23 0 37 -12t14 -41q0 -25 -8 -46t-24.5 -33.5t-41.5 -12.5zM182 396q-23 0 -37 12.5t-14 39.5q0 38 20 65.5t54 27.5q22 0 36.5 -12t14.5 -40q0 -25 -8.5 -46.5t-24.5 -34t-41 -12.5z" />
    <glyph glyph-name="semicolon" unicode=";" horiz-adv-x="306" 
d="M-9 -137q38 9 62.5 22.5t37 32.5t12.5 45q0 24 -10.5 36.5t-23.5 21t-23.5 19.5t-10.5 33q0 30 19.5 46t46.5 16q34 0 57.5 -22t23.5 -63q0 -46 -20.5 -85.5t-62.5 -68t-109 -43.5zM183 396q-23 0 -37 12.5t-14 39.5q0 38 19.5 65.5t54.5 27.5q22 0 36 -12t14 -40
q0 -25 -8 -46.5t-24.5 -34t-40.5 -12.5z" />
    <glyph glyph-name="less" unicode="&#x3c;" horiz-adv-x="559" 
d="M488 119l-429 228v20l429 228v-23l-407 -215l407 -215v-23z" />
    <glyph glyph-name="equal" unicode="=" horiz-adv-x="559" 
d="M87 455v20h423v-20h-423zM87 239v20h423v-20h-423z" />
    <glyph glyph-name="greater" unicode="&#x3e;" horiz-adv-x="559" 
d="M108 119v23l407 215l-407 215v23l429 -228v-20z" />
    <glyph glyph-name="question" unicode="?" horiz-adv-x="510" 
d="M204 333q46 4 82.5 25t62 54.5t39 76.5t13.5 91q0 43 -9.5 72.5t-29 45.5t-49.5 16q-39 0 -63 -24t-37 -65.5t-18 -96.5q-43 0 -65 17t-22 48q0 36 25 66t72.5 47.5t112.5 17.5q91 0 144 -40.5t53 -115.5q0 -63 -35 -111t-91.5 -79.5t-124.5 -46.5l-50 -123h-14zM177 -8
q-23 0 -37 12t-14 40q0 37 20 65t54 28q22 0 36.5 -12t14.5 -41q0 -25 -8.5 -46t-24.5 -33.5t-41 -12.5z" />
    <glyph glyph-name="at" unicode="@" horiz-adv-x="921" 
d="M430 -142q-107 0 -190.5 39.5t-131 120t-47.5 201.5q0 106 34.5 196t97 157t149 104.5t189.5 37.5q113 0 188.5 -43t114 -116t38.5 -165q0 -71 -18 -129t-49 -99t-68.5 -63t-76.5 -22q-20 0 -40.5 6.5t-38.5 22.5t-29 43t-11 69h-2q-13 -49 -35 -80t-51 -46t-63 -15
q-56 0 -93 40t-37 121q0 43 14.5 93.5t44 95.5t74.5 73.5t106 28.5q41 0 61 -12.5t31 -32.5l79 36h10l-51 -254q-6 -28 -10.5 -56.5t-4.5 -51.5q0 -37 14.5 -53.5t38.5 -16.5q29 0 54 20.5t43.5 60.5t29.5 97t11 131q0 107 -34 175t-95.5 100t-144.5 32q-78 0 -147.5 -33
t-123 -95.5t-84.5 -153.5t-31 -207q0 -95 22 -161t61.5 -106.5t93 -59.5t116.5 -19q70 0 140 23.5t137 73.5l6 -9q-44 -33 -91.5 -55t-97.5 -33t-102 -11zM418 96q26 0 49 18.5t41.5 53.5t27.5 86l43 225q-4 13 -21.5 26t-44.5 13q-32 0 -57.5 -21.5t-43.5 -56.5t-30 -77
t-17.5 -84t-5.5 -76q0 -58 16 -82.5t43 -24.5z" />
    <glyph glyph-name="A" unicode="A" horiz-adv-x="710" 
d="M-61 0l2 10h24q20 0 34 6t27.5 22.5t32.5 49.5l358 626h74l92 -645q3 -24 9.5 -36.5t18.5 -17.5t31 -5h12l-2 -10h-288l2 10h25q38 0 57 12.5t19 36.5q0 8 -0.5 17t-1.5 16l-46 380q-4 30 -8.5 66.5t-7.5 70.5t-5 55q-7 -16 -19.5 -38t-27 -47l-29 -50t-27.5 -48
l-217 -379q-11 -20 -15.5 -33.5t-4.5 -24.5q0 -18 14 -26t43 -8h65l-2 -10h-239zM162 260l4 10h340v-10h-344z" />
    <glyph glyph-name="B" unicode="B" horiz-adv-x="653" 
d="M-21 0l2 10h13q33 0 60 12t36 57l118 557q2 7 3 16.5t1 13.5q0 25 -21 31.5t-51 6.5h-13l2 10h274q118 0 176 -38t58 -112q0 -60 -30.5 -100.5t-84 -61.5t-123.5 -26v-2q65 -3 108.5 -21t65.5 -51t22 -81q0 -52 -18.5 -93t-54.5 -69.5t-90 -43.5t-125 -15h-328zM266 10
q58 0 97 17t62.5 47.5t34.5 71.5t11 89q0 67 -33.5 101t-102.5 34h-67l-76 -360h74zM340 380q48 0 81 15.5t53 42.5t29 62.5t9 74.5q0 63 -29.5 96t-91.5 33h-53l-68 -324h70z" />
    <glyph glyph-name="C" unicode="C" horiz-adv-x="645" 
d="M345 -10q-89 0 -152.5 32t-97 93t-33.5 149q0 66 17.5 132t52 125.5t84.5 105t116 72t147 26.5q94 0 143 -31t49 -81q0 -39 -29.5 -60.5t-75.5 -21.5q0 32 -1 64.5t-9.5 59.5t-28 43.5t-55.5 16.5q-51 0 -94.5 -27t-79 -73.5t-60 -106.5t-38 -127t-13.5 -133
q0 -82 19.5 -137t58 -82.5t96.5 -27.5q51 0 84.5 18.5t56 52.5t38.5 79q9 -3 15 -12.5t6 -20.5q0 -28 -23 -58t-70.5 -50t-122.5 -20z" />
    <glyph glyph-name="D" unicode="D" horiz-adv-x="737" 
d="M-22 0l3 10h13q33 0 60 12t36 57l117 556q2 8 3.5 16.5t1.5 14.5q0 25 -21.5 31.5t-50.5 6.5h-13l2 10h291q140 0 215 -69.5t75 -202.5q0 -69 -16.5 -134.5t-49 -121.5t-82 -97.5t-115 -65t-148.5 -23.5h-321zM266 11q63 0 113.5 22.5t88.5 63.5t64 97.5t39 124.5t13 144
q0 85 -20 138t-59 78t-98 25h-69l-147 -693h75z" />
    <glyph glyph-name="E" unicode="E" horiz-adv-x="625" 
d="M-21 0l2 10h13q32 0 58.5 11t35.5 54l119 559q2 7 3 13.5t1 11.5q0 30 -20.5 37.5t-50.5 7.5h-13l2 10h515l-33 -178h-10q2 7 3 18t2.5 23.5t1.5 21.5q0 29 -6 52.5t-25 38t-57 14.5h-182l-68 -324h237l-2 -10h-237l-77 -360h205q35 0 59.5 10t41.5 27.5t28.5 39.5
t19.5 47l15 44h10l-45 -178h-546z" />
    <glyph glyph-name="F" unicode="F" horiz-adv-x="593" 
d="M-21 0l2 10h13q35 0 60 11.5t35 53.5l118 557q2 7 3 16.5t1 13.5q0 27 -19 34.5t-52 7.5h-13l2 10h517l-33 -178h-10q3 18 5 35.5t2 26.5q0 30 -8 53.5t-30.5 38t-67.5 14.5h-165l-74 -348h240l-2 -10h-240l-56 -266q-1 -7 -2 -13t-1 -11q0 -30 15.5 -38t39.5 -8h30
l-2 -10h-308z" />
    <glyph glyph-name="G" unicode="G" horiz-adv-x="736" 
d="M352 -10q-144 0 -217 73t-73 201q0 72 18.5 140.5t54.5 126.5t88.5 101t121 67.5t152.5 24.5q57 0 99 -8.5t68.5 -24t39.5 -35.5t13 -43q0 -28 -14.5 -46.5t-39 -27.5t-55.5 -9q0 58 -7.5 98.5t-33.5 63t-80 22.5q-42 0 -80.5 -17t-72 -48.5t-60.5 -74.5t-46.5 -96.5
t-30 -114.5t-10.5 -127q0 -73 15.5 -126t53.5 -81.5t104 -28.5q30 0 57.5 3.5t46.5 9.5l50 239q2 8 3.5 17t1.5 13q0 25 -21 31.5t-51 6.5h-10l2 10h284l-1 -10h-5q-19 0 -36.5 -4.5t-30.5 -19t-19 -45.5l-46 -215q-57 -23 -112.5 -34.5t-120.5 -11.5z" />
    <glyph glyph-name="H" unicode="H" horiz-adv-x="785" 
d="M-21 0l2 10h13q33 0 60 12t36 57l118 557q2 8 3 17t1 13q0 16 -8 24t-24.5 11t-39.5 3h-13l2 10h305l-2 -10h-13q-33 0 -59.5 -12t-35.5 -57l-54 -257h307l55 258q2 8 3 17t1 13q0 23 -18 30.5t-52 7.5h-13l2 10h304l-2 -10h-13q-34 0 -60.5 -12t-36.5 -59l-117 -554
q-1 -9 -2.5 -17.5t-1.5 -13.5q0 -15 8.5 -23t24.5 -11.5t39 -3.5h12l-2 -10h-304l2 10h13q33 0 59.5 12.5t36.5 59.5l59 286h-307l-61 -292q-1 -6 -2.5 -14.5t-1.5 -13.5q0 -23 19 -30.5t51 -7.5h13l-2 -10h-304z" />
    <glyph glyph-name="I" unicode="I" horiz-adv-x="361" 
d="M-21 0l1 10h13q34 0 60.5 12t35.5 57l119 557q2 8 3 17t1 13q0 25 -20 31.5t-52 6.5h-13l2 10h306l-2 -10h-13q-34 0 -60.5 -12t-36.5 -59l-117 -553q-1 -8 -3 -17t-2 -15q0 -24 20.5 -31t51.5 -7h13l-2 -10h-305z" />
    <glyph glyph-name="J" unicode="J" horiz-adv-x="369" 
d="M-72 -240q-27 0 -46 3t-38 8l3 10q13 -4 31.5 -6.5t33.5 -2.5q37 0 66 18.5t50.5 65t37.5 128.5l138 655q2 6 3 14.5t1 12.5q0 25 -20 31.5t-52 6.5h-13l3 10h305l-2 -10h-13q-34 0 -60 -12t-36 -57l-137 -642q-17 -81 -50.5 -132.5t-84.5 -76t-120 -24.5z" />
    <glyph glyph-name="K" unicode="K" horiz-adv-x="712" 
d="M-21 0l2 10h13q22 0 41.5 4.5t34 19.5t20.5 45l118 557q2 7 3 15.5t1 13.5q0 25 -19 32t-53 7h-13l2 10h305l-2 -10h-13q-22 0 -41 -4.5t-33.5 -19t-20.5 -45.5l-73 -335l298 273q38 34 55 54t17 42q0 13 -8 20t-25.5 11t-48.5 4l2 10h230l-3 -10q-16 0 -34 -5.5
t-36.5 -16t-38 -25.5t-40.5 -35l-235 -217l36 45l134 -328q16 -39 28.5 -64t25.5 -36.5t32 -11.5h3l-2 -10h-25q-46 0 -77 6t-51.5 18t-34 32.5t-24.5 49.5l-100 257l41 27l-122 -105l-42 -209q-1 -6 -2.5 -14.5t-1.5 -13.5q0 -24 20.5 -31t51.5 -7h12l-2 -10h-305z" />
    <glyph glyph-name="L" unicode="L" horiz-adv-x="628" 
d="M-21 0l3 10h14q21 0 40 4.5t33.5 19.5t19.5 45l119 557q2 7 3 16t1 14q0 25 -20 31.5t-52 6.5h-13l2 10h306l-2 -10h-13q-33 0 -59.5 -11t-35.5 -54l-134 -629h209q42 0 71 18.5t48 49t30 65.5l22 74h10l-53 -217h-549z" />
    <glyph glyph-name="M" unicode="M" horiz-adv-x="927" 
d="M-21 0l2 10h19q27 0 50.5 4.5t41 18t24.5 42.5l119 561q3 8 4 16.5t1 13.5q0 25 -26.5 31.5t-67.5 6.5h-19l2 10h224l113 -595l341 595h194l-2 -10h-13q-34 0 -60.5 -12t-35.5 -57l-119 -558q-1 -7 -2.5 -15.5t-1.5 -13.5q0 -24 20.5 -31t51.5 -7h13l-2 -10h-287l2 10h6
q24 0 41 4.5t29 18t17 39.5l124 578l-372 -650h-34l-125 663l-124 -586q-1 -6 -2.5 -14t-1.5 -13q0 -26 26.5 -33t70.5 -7h12l-2 -10h-251z" />
    <glyph glyph-name="N" unicode="N" horiz-adv-x="754" 
d="M-21 0l2 10h19q27 0 50 4.5t39 19t23 45.5l118 557q2 7 3.5 16t1.5 14q0 25 -24.5 31.5t-64.5 6.5h-19l2 10h211l250 -569l105 492q2 7 3 15t1 13q0 25 -27 32t-70 7h-17l2 10h252l-2 -10h-20q-26 0 -49 -4t-40 -18.5t-24 -46.5l-134 -635h-37l-289 651l-123 -573
q-1 -8 -2.5 -16t-1.5 -13q0 -24 29 -31.5t74 -7.5h12l-2 -10h-251z" />
    <glyph glyph-name="O" unicode="O" horiz-adv-x="756" 
d="M332 -11q-78 0 -139 31t-96 94t-35 157q0 54 14.5 115.5t46 121t79.5 109t114.5 79t151.5 29.5q71 0 131.5 -28.5t97 -90t36.5 -159.5q0 -42 -10 -91.5t-30.5 -101t-53 -99t-76.5 -85t-101.5 -59.5t-129.5 -22zM336 -1q56 0 100 31.5t76.5 83t54 115t32 129t10.5 123.5
q0 92 -18.5 142.5t-51 71t-77.5 20.5q-55 0 -99.5 -30.5t-77.5 -82t-55 -115t-33 -130t-11 -125.5q0 -90 19.5 -141t54 -71.5t76.5 -20.5z" />
    <glyph glyph-name="P" unicode="P" horiz-adv-x="629" 
d="M-21 0l2 10h13q33 0 59.5 12t35.5 57l119 557q2 8 3 16.5t1 13.5q0 25 -20 31.5t-52 6.5h-13l2 10h266q73 0 125.5 -22t80.5 -64.5t28 -106.5q0 -30 -7.5 -63.5t-26.5 -66t-54 -58t-89 -41t-132 -15.5h-72l-43 -199q-1 -7 -2.5 -16t-1.5 -14q0 -24 16 -31t39 -7h33
l-2 -10h-308zM297 287q59 0 99.5 20t65 55.5t35 82t10.5 98.5q0 85 -30.5 123t-97.5 38h-40l-89 -417h47z" />
    <glyph glyph-name="Q" unicode="Q" horiz-adv-x="757" 
d="M467 -228q-52 0 -88 16t-59.5 45t-35.5 70.5t-14 91.5q-61 12 -107.5 47t-73 94t-26.5 141q0 53 14.5 114t46 120t79 107.5t114 77.5t151.5 29q71 0 132 -29.5t97.5 -91.5t36.5 -161q0 -47 -12 -103t-38 -112t-66 -105.5t-95.5 -84t-128.5 -44.5q3 -58 11.5 -98t23 -63
t33.5 -33.5t43 -10.5q19 0 33 3t27 6l2 -10q-21 -7 -43.5 -11.5t-56.5 -4.5zM339 -1q56 0 99.5 30.5t76 81t54 113t31.5 128.5t10 126q0 88 -18 140t-50.5 74.5t-77.5 22.5q-55 0 -99.5 -29.5t-78 -80t-55.5 -113t-33 -129.5t-11 -129q0 -86 18.5 -138t53 -74.5t80.5 -22.5z
" />
    <glyph glyph-name="R" unicode="R" horiz-adv-x="677" 
d="M-21 0l2 10h13q22 0 41 4.5t33.5 19t20.5 45.5l119 557q1 8 2.5 17t1.5 13q0 25 -20 31.5t-52 6.5h-13l2 10h279q117 0 174 -42t57 -127q0 -49 -17.5 -83.5t-46 -58t-61 -37.5t-63.5 -22l73 -222q13 -38 23.5 -63t23.5 -37t34 -12h8l-2 -10h-17q-61 0 -99.5 9.5
t-60.5 35.5t-35 76l-58 213h-81l-54 -254q-2 -9 -3.5 -18t-1.5 -14q0 -24 20.5 -31t51.5 -7h33l-2 -10h-325zM332 344q56 0 97 22t63.5 67.5t22.5 117.5q0 57 -12.5 90.5t-38 48t-64.5 14.5h-61l-77 -360h70z" />
    <glyph glyph-name="S" unicode="S" horiz-adv-x="556" 
d="M235 -10q-74 0 -124.5 19.5t-76 52.5t-25.5 72q0 40 27 60.5t63 20.5q0 -59 12 -108t42.5 -78t85.5 -29q54 0 88 20.5t49.5 56.5t15.5 82q0 32 -9.5 56.5t-37.5 48.5t-81 54q-45 25 -77.5 53.5t-50 66t-17.5 87.5q0 40 15.5 76t47 64t78 43.5t107.5 15.5q62 0 106 -14
t68 -38.5t24 -56.5q0 -34 -21.5 -54t-68.5 -20q0 31 -2.5 61.5t-12.5 56t-32 40.5t-61 15q-40 0 -71.5 -17.5t-50 -51.5t-18.5 -87q0 -39 14.5 -65t43.5 -46.5t71 -44.5q50 -29 83 -58t48.5 -63t15.5 -75q0 -48 -17 -87.5t-51 -68.5t-84.5 -44.5t-115.5 -15.5z" />
    <glyph glyph-name="T" unicode="T" horiz-adv-x="624" 
d="M99 0l2 10h12q27 0 48 7.5t34.5 23t18.5 38.5l132 625h-80q-48 0 -81 -12.5t-54.5 -41.5t-35.5 -78l-11 -38h-10l44 180h578l-32 -180h-10q3 18 4.5 33t3 26.5t1.5 19.5q0 50 -27.5 70.5t-89.5 20.5h-83l-132 -623q-2 -7 -3 -12.5t-1 -10.5q0 -24 19 -36t55 -12h12
l-2 -10h-312z" />
    <glyph glyph-name="U" unicode="U" horiz-adv-x="720" 
d="M332 -10q-111 0 -171 45.5t-60 127.5q0 16 3.5 44t7.5 45l81 380q2 9 3.5 19t1.5 15q0 25 -20 31.5t-52 6.5h-13l2 10h306l-1 -10h-13q-22 0 -42 -4.5t-34 -19t-21 -44.5l-83 -388q-3 -18 -6 -35t-5 -33.5t-2 -34.5q0 -68 32.5 -106t96.5 -38q79 0 130 27t80.5 74
t42.5 107l91 428q2 7 3 16t1 13q0 25 -20 31.5t-52 6.5h-15l2 10h204l-2 -10h-14q-22 0 -42 -4.5t-34.5 -19t-20.5 -45.5l-91 -427q-14 -69 -47.5 -117.5t-89 -74.5t-137.5 -26z" />
    <glyph glyph-name="V" unicode="V" horiz-adv-x="682" 
d="M161 652q-4 32 -17.5 42t-41.5 10h-13l3 10h288l-2 -10h-25q-32 0 -52 -9t-20 -37q0 -8 0.5 -18.5t1.5 -17.5l43 -359l6 -46t5.5 -45t4 -41.5t3.5 -35.5q13 22 26 47.5t27.5 53.5t31.5 59l191 358q10 19 14 32t4 23q0 20 -17.5 28t-51.5 8h-43l2 10h246l-3 -10h-24
q-23 0 -41 -5t-33.5 -21.5t-32.5 -48.5l-336 -629h-55z" />
    <glyph glyph-name="W" unicode="W" horiz-adv-x="1051" 
d="M167 652q-2 21 -8.5 32.5t-18.5 15.5t-31 4h-13l2 10h287l-2 -10h-25q-32 0 -52 -12t-20 -36q0 -8 0.5 -18t1.5 -19l27 -351q3 -32 4.5 -55.5t3 -41.5t2 -32t1 -27t1.5 -26q16 34 32 67t40 86l218 468h47l59 -433q3 -29 6.5 -55.5t6 -49.5t4.5 -42t3 -34q8 15 16.5 34
t18 41t21 47t24.5 51l162 347q9 19 12.5 31t3.5 25q0 18 -13 26.5t-44 8.5h-38l2 10h229l-2 -10h-24q-23 0 -41.5 -5t-34.5 -21.5t-32 -50.5l-294 -627h-72l-72 568l-267 -568h-75z" />
    <glyph glyph-name="X" unicode="X" horiz-adv-x="680" 
d="M-47 0l2 10h6q23 0 44.5 5.5t43.5 21t48 45.5l244 280l-23 -32l-116 323q-10 30 -27 40.5t-45 10.5h-14l2 10h288l-2 -10h-27q-25 0 -35 -7t-10 -21q0 -10 4.5 -24t11.5 -36l64 -199l-20 -17l181 215q14 17 23 30.5t9 28.5q0 12 -7.5 18t-23 9t-39.5 3h-16l2 10h221
l-2 -10h-9q-22 0 -43.5 -7t-43 -22.5t-45.5 -44.5l-207 -245l21 30l126 -352q12 -31 27.5 -42t37.5 -11h13l-2 -10h-287l2 10h17q30 0 45 10t15 25q0 14 -4.5 28.5t-14.5 43.5l-69 210l20 18l-206 -238q-18 -20 -28.5 -34.5t-10.5 -30.5q0 -11 7 -18t22.5 -10.5t40.5 -3.5
h30l-2 -10h-239z" />
    <glyph glyph-name="Y" unicode="Y" horiz-adv-x="644" 
d="M105 0l2 10h24q33 0 59 11t36 54l45 214l-111 362q-9 29 -19.5 41t-37.5 12h-13l2 10h286l-2 -10h-52q-21 0 -30.5 -7t-9.5 -21q0 -7 1.5 -16t4 -20t6.5 -23l56 -207q6 -20 11 -39.5t10.5 -38t9.5 -37.5l32 46t34 50l149 217q16 23 22.5 37t6.5 27q0 17 -11.5 24.5
t-39.5 7.5h-62l2 10h225l-2 -10h-22q-16 0 -30.5 -8t-28.5 -24t-32 -41l-239 -347l-44 -208q-2 -7 -3.5 -15t-1.5 -13q0 -24 21 -31t52 -7h23l-2 -10h-327z" />
    <glyph glyph-name="Z" unicode="Z" horiz-adv-x="622" 
d="M-18 0l2 10l522 694h-226q-45 0 -76 -14.5t-51.5 -42t-33.5 -66.5l-15 -51h-10l44 184h508l-2 -10l-524 -694h249q54 0 88 17t54.5 47t32.5 70l13 40h10l-44 -184h-541z" />
    <glyph glyph-name="bracketleft" unicode="[" horiz-adv-x="329" 
d="M-24 -128l189 888h238l-2 -10h-43q-23 0 -42.5 -5t-33.5 -20t-21 -47l-155 -724q-1 -8 -2.5 -17.5t-1.5 -14.5q0 -25 20 -32.5t50 -7.5h44l-2 -10h-238z" />
    <glyph glyph-name="backslash" unicode="\" horiz-adv-x="243" 
d="M150 -121l-45 881h9l46 -881h-10z" />
    <glyph glyph-name="bracketright" unicode="]" horiz-adv-x="328" 
d="M-53 -128l2 10h43q23 0 42.5 5.5t33.5 21t20 45.5l155 723q2 8 3 17.5t1 13.5q0 27 -20 34.5t-51 7.5h-43l2 10h238l-189 -888h-237z" />
    <glyph glyph-name="asciicircum" unicode="^" horiz-adv-x="559" 
d="M81 261l184 453h24l186 -453h-22l-176 433l-174 -433h-22z" />
    <glyph glyph-name="underscore" unicode="_" horiz-adv-x="459" 
d="M-87 -124l4 20h468l-4 -20h-468z" />
    <glyph glyph-name="grave" unicode="`" horiz-adv-x="272" 
d="M294 606q-18 14 -40 34t-43.5 41.5t-39.5 41t-27 33.5l2 10h99q6 -22 16.5 -49.5t22.5 -53.5t22 -48l-2 -9h-10z" />
    <glyph glyph-name="a" unicode="a" horiz-adv-x="597" 
d="M168 -10q-46 0 -76.5 23.5t-45 65.5t-14.5 96q0 46 12.5 97t37 99t61 88t85 63.5t108.5 23.5q40 0 63.5 -11t41.5 -28l67 28h34l-69 -327q-2 -13 -6 -33t-6.5 -41t-2.5 -36q0 -37 10.5 -56t29.5 -19q18 0 37 10t39 25l6 -8q-16 -14 -39.5 -28t-51 -23t-55.5 -9
q-38 0 -61 22.5t-23 64.5q0 22 2 39.5t6 39.5h-1q-34 -82 -81 -124t-108 -42zM215 20q26 0 50 19.5t44 49t33.5 62t19.5 58.5l61 293q-10 16 -29.5 24t-41.5 8q-39 0 -71.5 -24.5t-57.5 -65.5t-41.5 -90.5t-25 -99t-8.5 -91.5q0 -53 9 -84t24 -45t34 -14z" />
    <glyph glyph-name="b" unicode="b" horiz-adv-x="581" 
d="M247 -10q-36 0 -61 10t-46 30l-64 -33h-39l139 654q5 20 7 33t2 21q0 28 -18.5 36.5t-46.5 8.5h-12l2 10h204l-46 -215q-4 -19 -10.5 -45t-14 -51.5t-12.5 -44.5h3q23 44 49 75.5t59.5 49t75.5 17.5q39 0 68 -20t46 -60.5t17 -102.5q0 -43 -11.5 -93.5t-35 -100
t-59.5 -90t-84.5 -65t-111.5 -24.5zM233 2q40 0 71.5 25.5t56 68.5t40.5 94.5t24 103t8 92.5q0 48 -6.5 78t-19.5 44t-33 14q-28 0 -53.5 -19.5t-45 -48.5t-33 -59.5t-18.5 -51.5l-67 -308q12 -14 31 -23.5t45 -9.5z" />
    <glyph glyph-name="c" unicode="c" horiz-adv-x="491" 
d="M243 -10q-62 0 -108 23t-71.5 69.5t-25.5 117.5q0 43 11 90.5t33.5 92.5t58.5 82t85.5 59t113.5 22q54 0 88 -14t50 -36.5t16 -48.5q0 -20 -11 -37t-33.5 -27t-57.5 -10q1 10 1.5 21.5t0.5 23.5q0 56 -15 86.5t-50 30.5q-32 0 -59 -22t-48.5 -60t-36 -84.5t-22.5 -94
t-8 -89.5q0 -90 25.5 -136.5t80.5 -46.5q36 0 62 15.5t44.5 45t31.5 68.5q9 -3 15 -11t6 -18q0 -23 -18.5 -49t-57 -44.5t-101.5 -18.5z" />
    <glyph glyph-name="d" unicode="d" horiz-adv-x="597" 
d="M166 -10q-44 0 -74 23.5t-45 65.5t-15 98q0 45 12 95.5t36.5 98.5t60.5 88t84.5 63.5t108.5 23.5q29 0 53 -6t43 -17q2 13 5 27.5t6 28.5l18 81q3 14 5.5 27t2.5 23q0 24 -16.5 32t-46.5 8h-14l2 10h199l-117 -548q-2 -12 -6.5 -34t-7 -44t-2.5 -36q0 -36 10 -55t31 -19
q18 0 38 10.5t38 23.5l5 -8q-16 -14 -39.5 -28t-51 -23t-54.5 -9q-39 0 -61.5 22.5t-22.5 63.5q0 17 2.5 37t6.5 43h-3q-23 -56 -52 -92.5t-64 -55t-75 -18.5zM215 19q24 0 46.5 17t42.5 44t34.5 58.5t20.5 60.5l67 310q-13 10 -33 17.5t-44 7.5q-39 0 -70.5 -24t-55.5 -65
t-40.5 -90t-25 -99.5t-8.5 -94.5q0 -51 8.5 -82t24 -45.5t33.5 -14.5z" />
    <glyph glyph-name="e" unicode="e" horiz-adv-x="491" 
d="M240 -10q-58 0 -104 23t-72.5 68.5t-26.5 115.5q0 43 12 91t36 94t60.5 83t86.5 59t113 22q66 0 102.5 -30t36.5 -86q0 -49 -37.5 -90t-103 -66.5t-149.5 -25.5h-35q-1 -8 -2.5 -19t-2 -21.5t-0.5 -19.5q0 -61 11.5 -103t34 -63.5t53.5 -21.5q58 0 92.5 37t52.5 94
q10 -3 15.5 -11t5.5 -22q0 -20 -19 -45.5t-58.5 -44t-101.5 -18.5zM185 258q42 0 76.5 13t58.5 37.5t37.5 58.5t13.5 75q0 47 -13.5 69.5t-39.5 22.5q-29 0 -53.5 -23t-45 -63t-35 -89.5t-23.5 -100.5h24z" />
    <glyph glyph-name="f" unicode="f" horiz-adv-x="339" 
d="M-87 -240q-15 0 -32 2.5t-27 5.5l2 10q8 -2 21.5 -4.5t24.5 -2.5q35 0 58.5 20.5t40.5 67t33 123.5l117 544h-92l1 6l92 4l11 51q18 89 66.5 136t135.5 47q68 0 102.5 -21.5t34.5 -56.5q0 -33 -23.5 -49.5t-68.5 -16.5q1 58 -7 96t-39 38q-23 0 -38.5 -14.5t-26.5 -47.5
t-22 -89l-15 -73h115l-2 -10h-115l-113 -529q-14 -70 -37.5 -116t-53.5 -72t-66 -37.5t-77 -11.5z" />
    <glyph glyph-name="g" unicode="g" horiz-adv-x="563" 
d="M169 -240q-75 0 -124.5 14.5t-73.5 42.5t-24 68q0 39 23 66.5t65.5 43t101.5 17.5q-44 15 -60.5 37.5t-16.5 48.5q0 32 26.5 61t86.5 40q-41 15 -62.5 47t-21.5 80q0 35 13.5 73.5t42 72t73.5 54t105 20.5q35 0 63.5 -8.5t47.5 -25.5q13 19 29 35.5t36 26.5t43 10
q26 0 39 -13.5t13 -34.5q0 -23 -12.5 -43.5t-47.5 -20.5q0 26 -10 42.5t-34 16.5q-12 0 -25 -6.5t-23 -18.5q16 -17 26.5 -40t10.5 -56q0 -34 -13.5 -72.5t-42 -72t-72.5 -55t-105 -21.5q-9 0 -20.5 0.5t-22 2.5t-19.5 4q-27 -10 -41 -23.5t-14 -33.5t18.5 -27.5t51.5 -11.5
l93 -9q51 -5 86 -20.5t53.5 -43.5t18.5 -69q0 -42 -16.5 -78t-51 -63t-87.5 -42t-126 -15zM173 -230q63 0 102.5 20t58.5 52t19 69q0 42 -24.5 61.5t-76.5 24.5l-101 10q-47 -8 -80.5 -36.5t-33.5 -81.5q0 -52 30 -85.5t106 -33.5zM252 199q26 0 46 14.5t34.5 39.5t24 55
t14.5 61t5 58q0 38 -6 62t-18 35.5t-32 11.5q-27 0 -48 -14.5t-36.5 -38.5t-25.5 -53.5t-14.5 -59t-4.5 -54.5q0 -60 15.5 -88.5t45.5 -28.5z" />
    <glyph glyph-name="h" unicode="h" horiz-adv-x="616" 
d="M467 -10q-48 0 -73 28.5t-25 73.5q0 25 4.5 55.5t13.5 73.5l20 89q3 14 8 35t8.5 45.5t3.5 46.5q0 18 -3.5 36.5t-14 30.5t-31.5 12q-26 0 -52 -19t-48.5 -48.5t-38 -62.5t-21.5 -59l-71 -327h-108l137 654q5 18 7 32t2 19q0 27 -18 36t-48 9h-11l2 10h200l-41 -194
q-5 -24 -10.5 -48t-11 -46.5t-9.5 -39.5t-7 -26h4q26 44 55 75t63 47.5t75 16.5t64.5 -15t34.5 -40.5t11 -56.5q0 -25 -6.5 -55t-11.5 -56l-28 -125q-6 -27 -9.5 -53.5t-3.5 -48.5q0 -34 12.5 -51.5t36.5 -17.5q15 0 31 9t34 23l6 -8q-16 -14 -36 -28t-43.5 -23t-52.5 -9z
" />
    <glyph glyph-name="i" unicode="i" horiz-adv-x="317" 
d="M160 -10q-44 0 -68.5 28.5t-24.5 76.5q0 21 3.5 45.5t8.5 50t9 46.5l46 216q2 10 3 18t1 14q0 26 -15 33.5t-44 7.5h-14l2 10h195l-71 -332q-2 -13 -6 -33t-6 -40.5t-2 -34.5q0 -33 10 -50t31 -17q23 0 41 9.5t35 22.5l6 -9q-22 -20 -59.5 -41t-80.5 -21zM224 633
q-22 0 -37 12.5t-15 40.5q0 24 7.5 39.5t21 22.5t30.5 7q22 0 37 -11t15 -42q0 -38 -18.5 -53.5t-40.5 -15.5z" />
    <glyph glyph-name="j" unicode="j" horiz-adv-x="304" 
d="M-71 -240q-19 0 -37.5 3t-31.5 6l2 10q8 -2 21.5 -4.5t24.5 -2.5q34 0 58 21t40.5 67.5t31.5 124.5l100 468q2 10 3 17.5t1 14.5q0 25 -15 33t-44 8h-14l2 10h194l-114 -541q-19 -89 -51 -140.5t-75 -73t-96 -21.5zM228 633q-23 0 -37.5 12t-14.5 41q0 24 7.5 39.5
t21 22.5t29.5 7q22 0 37.5 -11t15.5 -42q0 -40 -18 -54.5t-41 -14.5z" />
    <glyph glyph-name="k" unicode="k" horiz-adv-x="589" 
d="M516 -7q-55 1 -89 9.5t-55 30.5t-40 65l-81 175l26 19l-84 -72l-46 -220h-109l138 654q5 19 7 31.5t2 19.5q0 29 -18.5 37t-46.5 8h-12l2 10h200l-44 -206q-5 -21 -12 -54t-15 -70.5t-16.5 -75t-15.5 -68.5t-11 -51l201 174q40 35 55.5 52.5t15.5 34.5q0 15 -19 22.5
t-71 7.5l2 10h230l-2 -10q-40 0 -82 -28t-95 -73l-143 -124l43 43l116 -237q17 -33 29 -56.5t25.5 -35.5t34.5 -12l-2 -10h-18z" />
    <glyph glyph-name="l" unicode="l" horiz-adv-x="319" 
d="M162 -10q-45 0 -68.5 28t-23.5 71q0 20 3.5 46.5t8.5 54t9 48.5l91 421q3 14 4.5 27.5t1.5 18.5q0 27 -18.5 36t-47.5 9h-14l2 10h203l-119 -556q-2 -13 -6 -33t-6.5 -40.5t-2.5 -34.5q0 -33 9.5 -50t34.5 -17q18 0 37 9.5t37 22.5l5 -9q-14 -13 -36 -27.5t-48.5 -24.5
t-55.5 -10z" />
    <glyph glyph-name="m" unicode="m" horiz-adv-x="918" 
d="M768 -10q-47 0 -72.5 28.5t-25.5 73.5q0 25 5 56t14 74l20 88q3 14 8 35.5t9 45.5t4 44q0 15 -2.5 33t-14 31t-39.5 13q-25 0 -48 -16.5t-42 -40.5t-32 -48t-19 -38l-37 -167q-4 -17 -9 -45t-9.5 -59.5t-8 -58t-3.5 -39.5h-112q1 14 4.5 41.5t9 61t12 65.5t11.5 55l19 87
q6 24 13 61t7 64q0 19 -4 36.5t-16.5 28.5t-36.5 11q-26 0 -50 -18t-44 -44.5t-33 -52t-16 -41.5l-78 -355h-108l91 436q3 14 4.5 27.5t1.5 18.5q0 28 -18.5 36t-46.5 8h-11l2 10h198l-25 -125h2q28 46 56.5 76t61 44.5t71.5 14.5q60 0 84.5 -33.5t24.5 -78.5v-12.5
t-1 -12.5h2q27 46 55 76t60.5 45.5t73.5 15.5t64.5 -15t34.5 -40t11 -56q0 -25 -6 -55.5t-12 -56.5l-28 -126q-6 -27 -9.5 -53.5t-3.5 -48.5q0 -32 11.5 -50t33.5 -18q13 0 24.5 4t23 11t21.5 16l6 -8q-24 -21 -56.5 -40.5t-76.5 -19.5z" />
    <glyph glyph-name="n" unicode="n" horiz-adv-x="621" 
d="M472 -10q-48 0 -73 28.5t-25 73.5q0 24 4 55t14 74l20 88q3 13 7.5 35t8.5 46t4 44q0 16 -3.5 34t-16 30.5t-37.5 12.5q-26 0 -50.5 -17.5t-44.5 -43.5t-33 -51t-16 -40l-79 -359h-108l91 436q3 14 4.5 27.5t1.5 18.5q0 27 -18 35.5t-47 8.5h-11l2 10h199l-26 -125h2
q27 45 56 75t62 44.5t73 14.5q41 0 65 -15t34.5 -40.5t10.5 -56.5q0 -25 -6.5 -55t-11.5 -56l-28 -125q-6 -28 -9.5 -55t-3.5 -53q0 -29 11 -45t34 -16q13 0 24.5 4t22.5 10.5t22 15.5l6 -8q-24 -21 -56 -40.5t-76 -19.5z" />
    <glyph glyph-name="o" unicode="o" horiz-adv-x="575" 
d="M235 -10q-88 0 -143 51.5t-55 156.5q0 44 11.5 92.5t36 94t60.5 82t85.5 58t112.5 21.5q54 0 98 -21t70.5 -67t26.5 -120q0 -43 -11.5 -90.5t-35 -93.5t-59 -82.5t-85 -59t-112.5 -22.5zM237 0q40 0 69.5 24t51.5 64.5t36 89t20.5 98t6.5 92.5q0 62 -9 99t-27 53t-48 16
q-38 0 -68 -24.5t-52 -64.5t-36 -89t-20.5 -98.5t-6.5 -91.5q0 -92 22 -130t61 -38z" />
    <glyph glyph-name="p" unicode="p" horiz-adv-x="585" 
d="M133 430q4 19 6 33t2 18q0 28 -18 36.5t-47 8.5h-11l2 10h188l-25 -139h3q20 42 45.5 76t60 53.5t81.5 19.5q42 0 71.5 -20.5t45.5 -60.5t16 -100q0 -44 -12 -94.5t-36 -100.5t-60 -90.5t-84.5 -65t-110.5 -24.5q-30 0 -52 7.5t-42 21.5q-4 -15 -6 -26t-6 -28l-21 -98
q-2 -7 -5 -25t-3 -28q0 -29 19 -36.5t47 -7.5h19l-2 -10h-206zM241 2q37 0 68 24t54.5 64.5t39.5 89.5t24.5 99.5t8.5 93.5q0 38 -5 70t-19.5 52t-42.5 20q-26 0 -49.5 -17.5t-43 -44t-32 -55t-17.5 -49.5l-68 -319q11 -9 30.5 -18.5t51.5 -9.5z" />
    <glyph glyph-name="q" unicode="q" horiz-adv-x="567" 
d="M315 -40q3 16 9.5 44.5t13.5 59.5t13 55.5t8 33.5h-3q-20 -47 -46.5 -84t-62 -58t-82.5 -21q-41 0 -71 21.5t-46 62.5t-16 99q0 46 12 97t36.5 99.5t61 88.5t84.5 64t107 24q39 0 64.5 -8.5t41.5 -21.5l69 30h37l-145 -686q-3 -14 -5 -27t-2 -18q0 -28 19 -36.5t46 -8.5
h15l-2 -10h-197zM220 19q23 0 45.5 18t42 46t33 60t19.5 60l65 306q-13 11 -30.5 18t-43.5 7q-41 0 -73.5 -25t-56.5 -66t-40.5 -90.5t-24.5 -99.5t-8 -91q0 -52 9 -83.5t25.5 -45.5t37.5 -14z" />
    <glyph glyph-name="r" unicode="r" horiz-adv-x="497" 
d="M143 436q3 14 4.5 27.5t1.5 18.5q0 27 -22.5 35.5t-50.5 8.5h-11l2 10h194l-24 -148h3q20 46 42.5 81.5t54.5 56t77 20.5t67 -20.5t22 -52.5q0 -26 -10.5 -44.5t-31.5 -28t-53 -9.5q2 11 2 20.5v18.5q0 27 -5 45t-16 27t-29 9q-21 0 -41 -17.5t-38 -45.5t-30.5 -59
t-19.5 -59l-71 -330h-109z" />
    <glyph glyph-name="s" unicode="s" horiz-adv-x="478" 
d="M194 -10q-51 0 -89.5 13.5t-60 38.5t-21.5 60q0 28 12.5 43.5t31 21.5t35.5 6q-1 -8 -1.5 -16.5t-0.5 -16.5q0 -41 11 -72.5t34 -49.5t58 -18q53 0 82.5 30.5t29.5 81.5q0 31 -10.5 52.5t-33 38t-60.5 33.5q-39 18 -67 38.5t-43.5 49t-15.5 68.5q0 45 24 79t69.5 54
t108.5 20q59 0 95 -13.5t52.5 -35.5t16.5 -45q0 -34 -24.5 -50t-62.5 -16q1 9 1.5 17.5t0.5 16.5q0 51 -19.5 83.5t-66.5 32.5q-52 0 -74.5 -30.5t-22.5 -71.5q0 -30 11 -50t34 -36t59 -32q40 -17 67.5 -38.5t42 -49.5t14.5 -66q0 -49 -25 -88t-73.5 -61t-118.5 -22z" />
    <glyph glyph-name="t" unicode="t" horiz-adv-x="381" 
d="M186 -10q-36 0 -61.5 13t-39 39t-13.5 64q0 13 1.5 28t4 29.5t4.5 27.5l72 335h-78l2 10q42 0 74.5 7.5t57 23.5t43 41.5t32.5 62.5h9l-28 -135h121l-2 -10h-121l-73 -336q-3 -16 -6 -33t-5 -32t-2 -27q0 -39 16.5 -57.5t47.5 -18.5q22 0 44.5 8.5t41.5 20.5l5 -9
q-33 -24 -68.5 -38t-78.5 -14z" />
    <glyph glyph-name="u" unicode="u" horiz-adv-x="622" 
d="M469 -10q-30 0 -51 13t-31 34.5t-10 47.5q0 7 0.5 18t2 23t2.5 22h-4q-24 -47 -53 -82.5t-65 -55t-82 -19.5q-40 0 -64 15.5t-34.5 41t-10.5 54.5q0 25 6 55t12 55l45 210q3 16 6 34t3 26q0 28 -18 36t-47 8h-11l2 10h200l-68 -310q-4 -18 -8.5 -40.5t-7.5 -44t-3 -35.5
q0 -38 12 -61t43 -23q23 0 47.5 18t46.5 46.5t38 61t22 61.5l70 327h113l-72 -334q-2 -12 -6 -32t-6 -40t-2 -34q0 -36 11 -54t32 -18q18 0 34.5 8.5t35.5 24.5l5 -7q-22 -21 -57 -40.5t-78 -19.5z" />
    <glyph glyph-name="v" unicode="v" horiz-adv-x="515" 
d="M86 473q-3 21 -10 32.5t-18 16t-28 4.5h-10l2 10h163l47 -308q6 -38 10.5 -75t8.5 -68t6 -51h2q55 57 99.5 118t71 120t26.5 108q0 45 -26.5 62.5t-74.5 17.5q0 40 20.5 61t49.5 21q32 0 50.5 -21.5t18.5 -71.5q0 -47 -17 -97.5t-45 -100.5t-61 -96.5t-67.5 -86
t-63.5 -68.5l-78 -9z" />
    <glyph glyph-name="w" unicode="w" horiz-adv-x="819" 
d="M447 -10q0 40 -1.5 90t-3.5 103.5t-4 107.5t-4 103.5t-3 89.5q-12 -29 -30 -71.5t-40 -90.5t-45.5 -97t-45 -93t-39 -78t-28.5 -53l-85 -9l-8 466q0 29 -7 43.5t-18 19.5t-28 5h-11l3 10h163q1 -44 2 -94t1.5 -101t1 -101t0.5 -97t-1 -89h3q18 34 40.5 78t46.5 95
t47 103.5t44.5 102.5t39.5 94l91 5q3 -28 5 -74t4.5 -101t4 -113t2.5 -112.5t1 -98.5h2q61 73 109 139t76.5 124.5t28.5 107.5q0 37 -18.5 55t-57.5 24q2 28 18 45.5t42 17.5q28 0 43 -19.5t15 -58.5q0 -47 -20 -99.5t-56.5 -111.5t-86 -123.5t-106.5 -133.5z" />
    <glyph glyph-name="x" unicode="x" horiz-adv-x="553" 
d="M-22 0l2 10h12q24 0 44 4.5t40 19.5t44 47l124 165l-82 214q-9 24 -17 38.5t-17.5 21t-26.5 6.5h-12l2 10h157l74 -216l150 216h99l-3 -10h-13q-20 0 -40.5 -6t-41.5 -21.5t-43 -46.5l-104 -143l86 -227q11 -30 19 -46t17.5 -21t27.5 -5h12l-2 -10h-160l-79 235
l-167 -235h-102z" />
    <glyph glyph-name="y" unicode="y" horiz-adv-x="528" 
d="M-59 -240q-29 0 -55.5 5.5t-45.5 14.5l3 10q13 -4 35 -8t60 -4q47 0 88 9.5t77 28t67 46.5t57 64l-148 547q-8 30 -19 41.5t-38 11.5h-10l2 10h167l70 -286q5 -19 12 -50.5t15.5 -65.5t14.5 -62t8 -42h2q33 49 63 99t54 98t37.5 90t13.5 74q0 25 -10 42t-32 26t-58 9
q0 38 20.5 57.5t47.5 19.5q34 0 52 -21.5t18 -63.5q0 -53 -21.5 -116t-60.5 -134.5t-91 -149.5q-51 -76 -93 -132.5t-84.5 -93.5t-94.5 -55.5t-123 -18.5z" />
    <glyph glyph-name="z" unicode="z" horiz-adv-x="517" 
d="M0 0l2 10l366 516h-127q-39 0 -66.5 -12t-46.5 -38.5t-33 -71.5l-5 -16h-10l41 148h368l-2 -10l-379 -516h172q47 0 75.5 13t47 41t32.5 71l11 32h10l-40 -167h-416z" />
    <glyph glyph-name="braceleft" unicode="{" horiz-adv-x="432" 
d="M234 -127q-62 0 -94 26.5t-32 76.5q0 10 1.5 21.5t4.5 28.5l36 164q3 14 4 22.5t1 15.5q-1 48 -28.5 66t-68.5 19l2 10q35 2 64 11.5t49.5 34t28.5 69.5l38 177q10 46 28 78.5t54.5 49.5t99.5 17h75l-2 -10h-33q-31 0 -51.5 -12t-32.5 -36t-20 -60l-41 -199
q-8 -34 -28 -60t-54.5 -42.5t-86.5 -22.5l-1 -3q43 -5 69.5 -18.5t39 -33t12.5 -44.5q0 -7 -1 -14.5t-3 -15.5l-38 -176q-3 -13 -5 -26.5t-2 -29.5q0 -32 13 -53t45 -21h33l-2 -10h-74z" />
    <glyph glyph-name="bar" unicode="|" horiz-adv-x="559" 
d="M254 -240v1000h49v-1000h-49z" />
    <glyph glyph-name="braceright" unicode="}" horiz-adv-x="431" 
d="M-45 -127l2 10h33q33 0 53 14.5t32.5 43.5t20.5 70l39 180q8 34 27 60t52 43t82 23v3q-39 5 -64 18.5t-36.5 33t-11.5 43.5q0 7 1.5 14.5t2.5 15.5l38 175q3 14 5 27.5t2 27.5q0 34 -14.5 54.5t-44.5 20.5h-32l2 10h74q63 0 94.5 -26.5t31.5 -76.5q0 -10 -1.5 -21.5
t-5.5 -28.5l-35 -168l-3.5 -17.5t-0.5 -15.5q0 -48 26.5 -65t68.5 -19l-2 -10q-34 -1 -63 -11t-49.5 -35t-28.5 -70l-38 -178q-9 -46 -27.5 -78.5t-54.5 -49.5t-101 -17h-74z" />
    <glyph glyph-name="asciitilde" unicode="~" horiz-adv-x="559" 
d="M83 277q5 23 10.5 50t16.5 52t30 41t49 16q35 0 62 -20.5t52 -46.5q26 -26 50.5 -49t54.5 -23t46 22.5t24.5 55t15.5 61.5h19q-3 -18 -9 -45t-17.5 -53t-31 -43.5t-49.5 -17.5q-37 0 -65 26t-54 54q-15 17 -30 30t-31 21t-36 8q-28 0 -44 -17.5t-25.5 -49t-17.5 -72.5
h-20z" />
    <glyph glyph-name="uni00A0" unicode="&#xa0;" horiz-adv-x="250" 
 />
    <glyph glyph-name="exclamdown" unicode="&#xa1;" horiz-adv-x="350" 
d="M199 326l-51 -506h-133l169 506h15zM227 542q23 0 37 -12t14 -40q0 -37 -20 -65t-54 -28q-22 0 -36 12t-14 41q0 25 8 46t24 33.5t41 12.5z" />
    <glyph glyph-name="cent" unicode="&#xa2;" horiz-adv-x="559" 
d="M251 0l149 714h10l-149 -714h-10zM285 86q-63 0 -109 23t-71.5 69.5t-25.5 117.5q0 43 11 90.5t34 92.5t58.5 82t85 59t113.5 22q54 0 88 -14t50 -36.5t16 -48.5q0 -20 -11 -37t-33.5 -27t-56.5 -10q1 10 1.5 21.5t0.5 23.5q0 56 -15.5 86.5t-49.5 30.5q-32 0 -59.5 -22
t-48.5 -60.5t-36 -84.5t-22.5 -94t-7.5 -90q0 -89 25 -136t81 -47q35 0 61 16t45 45.5t32 68.5q8 -3 14 -11t6 -18q0 -24 -18.5 -49.5t-57 -44t-100.5 -18.5z" />
    <glyph glyph-name="sterling" unicode="&#xa3;" horiz-adv-x="559" 
d="M346 -10q-31 0 -53.5 8t-43 19.5t-44 19.5t-56.5 8q-30 0 -56.5 -7.5t-55.5 -21.5l-27 -15l-4 9l35 20q28 15 52 36.5t43 50.5t29.5 65.5t10.5 82.5q0 14 -1.5 30t-4.5 33l-6 34h-102l2 10h98q-5 30 -10.5 61t-5.5 59q0 74 30.5 126t86.5 79t132 27q57 0 95 -13t57 -36
t19 -52q0 -39 -24.5 -60.5t-70.5 -21.5q1 60 -7.5 98t-28 56.5t-52.5 18.5q-65 0 -98.5 -54t-33.5 -145q0 -40 5 -74t10 -69h165l-2 -10h-162q2 -10 3 -21t2 -22.5t1 -24.5q0 -52 -24.5 -94.5t-60 -75.5t-71.5 -58l2 -3q26 15 45 24.5t37.5 15.5t41.5 6q24 0 46.5 -7.5
t44 -17.5t44 -17t46.5 -7q29 0 49 10.5t43 31.5l7 -6q-19 -23 -47.5 -48t-61.5 -41.5t-68 -16.5z" />
    <glyph glyph-name="currency" unicode="&#xa4;" horiz-adv-x="559" 
d="M128 144l-44 44l63 64q-16 23 -24 49.5t-8 55.5q0 30 8.5 57.5t24.5 49.5l-64 64l44 44l64 -64q23 16 49.5 24.5t56.5 8.5q29 0 56 -8.5t49 -24.5l65 65l44 -45l-64 -65q16 -22 25 -49t9 -57q0 -29 -8.5 -55.5t-25.5 -49.5l64 -64l-43 -44l-65 64q-22 -16 -49 -25t-57 -9
q-29 0 -56 9t-50 25zM298 233q35 0 63.5 17t44.5 45t16 62q0 36 -16 64.5t-44.5 45t-63.5 16.5q-34 0 -62.5 -16.5t-45 -45t-16.5 -64.5q0 -34 16.5 -62t45 -45t62.5 -17z" />
    <glyph glyph-name="yen" unicode="&#xa5;" horiz-adv-x="559" 
d="M62 0l2 10h24q33 0 59 11t36 54l24 117h-139l2 10h139l21 99h-140l2 10h137l-77 340q-7 30 -15.5 41.5t-37.5 11.5h-5l2 10h244l-2 -10h-9q-31 0 -48.5 -6.5t-17.5 -26.5q0 -11 3 -29t8 -43l28 -134q6 -24 11.5 -50l11 -52t10.5 -50q16 27 35 57.5t31 49.5l113 185
q13 20 20 35.5t7 30.5q0 18 -15.5 25.5t-54.5 7.5h-33l2 10h204l-2 -10h-7q-18 0 -32.5 -6.5t-29 -23.5t-33.5 -48l-196 -315h140l-2 -10h-141l-21 -99h141l-2 -10h-141l-24 -115q-1 -7 -2.5 -15.5t-1.5 -13.5q0 -24 20.5 -31t51.5 -7h23l-2 -10h-321z" />
    <glyph glyph-name="brokenbar" unicode="&#xa6;" horiz-adv-x="559" 
d="M268 360v400h20v-400h-20zM268 -240v400h20v-400h-20z" />
    <glyph glyph-name="section" unicode="&#xa7;" horiz-adv-x="544" 
d="M196 -115q-52 0 -92 13.5t-61.5 39t-21.5 60.5q0 29 12 44t28.5 20.5t30.5 5.5q0 -50 10 -89.5t35 -61.5t69 -22q41 0 72 18.5t48 49.5t17 68q0 29 -9.5 51.5t-39.5 46.5t-92 57q-45 25 -70.5 50t-35.5 51.5t-10 55.5q0 52 28.5 86t66.5 55q-11 16 -20.5 40t-9.5 56
q0 58 28.5 97.5t77 61t108.5 21.5q52 0 88 -13.5t55.5 -35.5t19.5 -50q0 -40 -22 -55t-64 -15q0 49 -6.5 84t-26 54.5t-59.5 19.5q-29 0 -55 -14t-43 -42.5t-17 -72.5q0 -33 12 -55.5t40.5 -42t77.5 -46.5q45 -23 72 -46.5t40 -49.5t13 -56q0 -34 -13.5 -61.5t-36 -48.5
t-48.5 -37q10 -14 20 -36t10 -55q0 -53 -26 -99.5t-76 -74t-124 -27.5zM386 184q12 18 20.5 38.5t8.5 48.5q0 20 -10 39.5t-33.5 39t-64.5 41.5q-26 15 -48 28t-40 27.5t-32 30.5q-14 -16 -23 -35.5t-9 -48.5q0 -25 11 -45.5t37.5 -41t72.5 -44.5q34 -19 62.5 -38t47.5 -40z
" />
    <glyph glyph-name="dieresis" unicode="&#xa8;" horiz-adv-x="577" 
d="M473 629q-21 0 -34 13t-13 40q0 20 6 35t18 23.5t27 8.5q20 0 33 -13t13 -40q0 -37 -16 -52t-34 -15zM278 629q-21 0 -33.5 13t-12.5 40q0 20 6 35t17.5 23.5t26.5 8.5q20 0 33 -13t13 -40q0 -37 -16 -52t-34 -15z" />
    <glyph glyph-name="copyright" unicode="&#xa9;" horiz-adv-x="845" 
d="M441 -10q-80 0 -147 27t-116.5 76.5t-76.5 117t-27 147.5t27 147t76 116t116.5 76.5t147.5 27.5t147.5 -27t117 -76.5t76.5 -117t27 -147.5t-27 -147t-76.5 -116.5t-117 -76.5t-147.5 -27zM445 128q-69 0 -115.5 28.5t-69.5 80.5t-23 121q0 71 25.5 122t75 78.5
t121.5 27.5q40 0 71.5 -8.5t50 -24.5t18.5 -38q0 -24 -20.5 -37t-49.5 -13q0 38 -9.5 62.5t-29 36t-50.5 11.5q-42 0 -68.5 -22.5t-38.5 -70.5t-12 -124t15.5 -125t46 -72t73.5 -23q48 0 81.5 27t45.5 79q8 -4 13 -11.5t5 -18.5q0 -21 -20 -40.5t-55 -32.5t-81 -13zM443 0
q77 0 141.5 26.5t112 75t74 113.5t26.5 143q0 77 -26.5 142.5t-74 113.5t-112.5 74.5t-143 26.5q-77 0 -142 -26.5t-112.5 -74.5t-74 -113t-26.5 -143q0 -79 27 -145t76 -113.5t114 -73.5t140 -26z" />
    <glyph glyph-name="ordfeminine" unicode="&#xaa;" horiz-adv-x="415" 
d="M171 381q-47 0 -68.5 32.5t-21.5 78.5q0 35 13 74.5t40 73.5t66 55.5t90 21.5q25 0 42 -6.5t30 -14.5l42 14h28l-48 -191q-3 -12 -7 -32.5t-4 -31.5q0 -21 5 -32t18 -11t25 7t23 16l5 -8q-13 -13 -37.5 -29.5t-55.5 -16.5q-26 0 -42 14.5t-16 41.5q0 10 1.5 23t3.5 28h-3
q-21 -48 -54 -77.5t-75 -29.5zM219 412q14 0 28.5 14.5t26.5 34.5t16 39l50 191q-7 9 -19 12t-25 3q-30 0 -52.5 -21t-37.5 -54.5t-22.5 -69.5t-7.5 -66q0 -45 12.5 -64t30.5 -19z" />
    <glyph glyph-name="guillemotleft" unicode="&#xab;" horiz-adv-x="520" 
d="M393 77l-153 191l2 10l233 185h15l-150 -196l67 -190h-14zM202 77l-153 191l2 10l233 185h15l-150 -196l67 -190h-14z" />
    <glyph glyph-name="logicalnot" unicode="&#xac;" horiz-adv-x="559" 
d="M468 120v235h-405v20h425v-255h-20z" />
    <glyph glyph-name="uni00AD" unicode="&#xad;" horiz-adv-x="310" 
d="M24 263l4 20h260l-4 -20h-260z" />
    <glyph glyph-name="registered" unicode="&#xae;" horiz-adv-x="845" 
d="M441 -10q-80 0 -147 27t-116.5 76.5t-76.5 117t-27 147.5t27 147t76 116t116.5 76.5t147.5 27.5t147.5 -27t117 -76.5t76.5 -117t27 -147.5t-27 -147t-76.5 -116.5t-117 -76.5t-147.5 -27zM443 0q77 0 141.5 26.5t112 75t74 113.5t26.5 143q0 77 -26.5 142.5t-74 113.5
t-112.5 74.5t-143 26.5q-77 0 -142 -26.5t-112.5 -74.5t-74 -113t-26.5 -143q0 -79 27 -145t76 -113.5t114 -73.5t140 -26zM250 141v10h13q20 0 34.5 6t14.5 29v343q0 24 -14.5 30t-34.5 6h-13v10h183q86 0 129.5 -30.5t43.5 -87.5q0 -50 -28.5 -75t-68.5 -37l98 -157
q14 -21 25 -29t25 -8v-10h-107l-120 201h-40v-156q0 -23 15 -29t34 -6h14v-10h-203zM432 352q51 0 72.5 24.5t21.5 81.5q0 58 -22 82.5t-75 24.5h-39v-213h42z" />
    <glyph glyph-name="overscore" unicode="&#xaf;" horiz-adv-x="459" 
d="M102 773l5 20h469l-5 -20h-469z" />
    <glyph glyph-name="degree" unicode="&#xb0;" horiz-adv-x="400" 
d="M264 421q-67 0 -109 42t-42 109t42 109.5t109 42.5t109.5 -42.5t42.5 -109.5t-42.5 -109t-109.5 -42zM266 441q59 0 94.5 37.5t35.5 95.5t-36 94t-94 36t-95.5 -36t-37.5 -94t37 -95.5t96 -37.5z" />
    <glyph glyph-name="plusminus" unicode="&#xb1;" horiz-adv-x="559" 
d="M48 15v20h429v-20h-429zM252 143v204h-204v20h204v205h20v-205h205v-20h-205v-204h-20z" />
    <glyph glyph-name="uni00B2" unicode="&#xb2;" horiz-adv-x="400" 
d="M73 386l7 38l149 122q31 25 52 47.5t33.5 45t18 47t5.5 54.5q0 17 -2.5 34t-12.5 28.5t-31 11.5q-26 0 -41.5 -16.5t-24 -45.5t-13.5 -65q-31 0 -49 13.5t-18 34.5q0 26 18.5 46t52.5 31.5t82 11.5q61 0 96.5 -25.5t35.5 -68.5q0 -38 -19.5 -66t-52.5 -52.5t-74 -52.5
l-158 -110h207q16 0 26.5 5t17.5 14t10 20l7 23h10l-28 -125h-304z" />
    <glyph glyph-name="uni00B3" unicode="&#xb3;" horiz-adv-x="400" 
d="M215 380q-65 0 -100 21.5t-35 56.5q0 27 18 41t44 14q0 -54 14.5 -88.5t60.5 -34.5q43 0 71 29t28 94q0 40 -19 66t-69 26h-32l2 10h33q31 0 56.5 15t40 44.5t14.5 73.5q0 26 -8.5 46t-35.5 20q-24 0 -39.5 -15.5t-25 -42t-15.5 -60.5q-32 0 -51 9.5t-19 33.5t19 43
t53 30.5t82 11.5q70 0 103 -26.5t33 -64.5q0 -54 -43.5 -82t-110.5 -39v-3q57 -4 92 -27t35 -70q0 -41 -25 -71t-69 -45.5t-102 -15.5z" />
    <glyph glyph-name="acute" unicode="&#xb4;" horiz-adv-x="255" 
d="M114 616q17 22 35.5 48t36 53t31.5 49h104l-3 -10q-12 -13 -35 -32t-50.5 -41t-56 -42t-52.5 -35h-12z" />
    <glyph glyph-name="uni00B5" unicode="&#xb5;" horiz-adv-x="624" 
d="M67 -240q-29 0 -49 17t-20 59q0 40 14 92.5t35 124.5t42 172l67 311h110l-67 -313q-6 -28 -11.5 -60.5t-5.5 -59.5q0 -45 14.5 -70.5t48.5 -25.5q25 0 48 14.5t42 38t32 52.5t19 58l78 366h110l-79 -371q-5 -21 -9 -45t-4 -42q0 -25 10.5 -40.5t29.5 -15.5q14 0 31 8.5
t32 20.5l5 -9q-21 -16 -52 -34t-73 -18q-32 0 -52 15t-28.5 41t-9.5 57h-3q-26 -51 -62.5 -82t-88.5 -31q-34 0 -60 8.5t-44.5 26t-28.5 45t-11 64.5q-7 -31 -13 -58.5t-9.5 -52t-3.5 -49.5q0 -51 25 -85t82 -42q-5 -44 -31 -65.5t-60 -21.5z" />
    <glyph glyph-name="paragraph" unicode="&#xb6;" horiz-adv-x="620" 
d="M181 -111v10h13q23 0 41.5 5t29.5 20.5t11 46.5v415h-71q-58 0 -91.5 27.5t-47.5 72t-14 96.5q0 54 15 94t49.5 62t90.5 22h384v-10h-13q-22 0 -41 -5t-30 -20t-11 -47v-707q0 -31 11 -46.5t30 -20.5t41 -5h13v-10h-159v861h-92v-861h-159z" />
    <glyph glyph-name="periodcentered" unicode="&#xb7;" horiz-adv-x="291" 
d="M152 283q-23 0 -36.5 12.5t-13.5 39.5q0 38 19.5 65.5t53.5 27.5q22 0 36.5 -12t14.5 -40q0 -25 -8.5 -46.5t-24.5 -34t-41 -12.5z" />
    <glyph glyph-name="cedilla" unicode="&#xb8;" horiz-adv-x="333" 
d="M114 -240q-28 0 -46 3.5t-33 8.5l2 10q13 -4 26.5 -6t26.5 -2q33 0 53.5 15t31 40.5t10.5 54.5q0 25 -9 39.5t-30 20.5l26 57h10l-20 -44q37 -5 61 -16.5t36 -28t12 -39.5q0 -37 -20.5 -62.5t-56.5 -38t-80 -12.5z" />
    <glyph glyph-name="uni00B9" unicode="&#xb9;" horiz-adv-x="400" 
d="M95 387l2 10h48q17 0 31 6.5t19 31.5l70 334h-1q-20 -25 -35 -40t-27.5 -22t-29.5 -7q-16 0 -24.5 12t-7.5 31q30 0 56.5 6.5t57.5 23.5t72 46h42l-75 -358q-2 -10 -4.5 -20.5t-2.5 -18.5q0 -16 11 -20.5t25 -4.5h45l-2 -10h-270z" />
    <glyph glyph-name="ordmasculine" unicode="&#xba;" horiz-adv-x="398" 
d="M227 381q-64 0 -103.5 32t-39.5 93q0 34 13.5 70.5t40.5 69t66 52.5t91 20q40 0 71 -13t50.5 -40.5t19.5 -70.5q0 -31 -12.5 -68t-38.5 -70t-65 -54t-93 -21zM229 391q31 0 52 21t33 53.5t17.5 69t5.5 69.5q0 53 -8.5 78.5t-40.5 25.5q-29 0 -49.5 -20t-33.5 -52
t-19.5 -68.5t-6.5 -70.5q0 -55 10 -80.5t40 -25.5z" />
    <glyph glyph-name="guillemotright" unicode="&#xbb;" horiz-adv-x="525" 
d="M224 77l148 196l-65 190h15l151 -191l-2 -10l-231 -185h-16zM29 77l148 196l-65 190h15l151 -191l-2 -10l-231 -185h-16z" />
    <glyph glyph-name="onequarter" unicode="&#xbc;" horiz-adv-x="986" 
d="M74 287l2 10h48q17 0 31 6.5t19 31.5l70 334h-1q-20 -25 -35 -40t-27.5 -22t-29.5 -7q-16 0 -24.5 12t-7.5 31q30 0 56.5 6.5t57.5 23.5t72 46h42l-75 -358q-2 -10 -4.5 -20.5t-2.5 -18.5q0 -16 11 -20.5t25 -4.5h45l-2 -10h-270zM275 0l509 714h11l-509 -714h-11zM660 0
l2 10h28q17 0 30.5 6.5t18.5 31.5l16 76h-178l7 33l244 275h84l-56 -262h92l-10 -46h-91l-14 -65q-2 -9 -3 -14.5t-1 -9.5q0 -16 10.5 -20.5t24.5 -4.5h20l-2 -10h-222zM611 170h154l36 168q3 12 5 22t5 20.5t6 23.5q-6 -8 -16.5 -19.5t-26.5 -30.5z" />
    <glyph glyph-name="onehalf" unicode="&#xbd;" horiz-adv-x="986" 
d="M74 287l2 10h48q17 0 31 6.5t19 31.5l70 334h-1q-20 -25 -35 -40t-27.5 -22t-29.5 -7q-16 0 -24.5 12t-7.5 31q30 0 56.5 6.5t57.5 23.5t72 46h42l-75 -358q-2 -10 -4.5 -20.5t-2.5 -18.5q0 -16 11 -20.5t25 -4.5h45l-2 -10h-270zM252 0l509 714h11l-509 -714h-11z
M577 -1l7 38l149 122q31 25 52 47.5t33.5 45t18 47t5.5 54.5q0 17 -2.5 34t-12.5 28.5t-31 11.5q-26 0 -41.5 -16.5t-24 -45.5t-13.5 -65q-31 0 -49 13.5t-18 34.5q0 26 18.5 46t52.5 31.5t82 11.5q61 0 96.5 -25.5t35.5 -68.5q0 -38 -19.5 -66t-52.5 -52.5t-74 -52.5
l-158 -110h207q16 0 26.5 5t17.5 14t10 20l7 23h10l-28 -125h-304z" />
    <glyph glyph-name="threequarters" unicode="&#xbe;" horiz-adv-x="986" 
d="M193 277q-65 0 -100 21.5t-35 56.5q0 27 18 41t44 14q0 -54 14.5 -88.5t60.5 -34.5q43 0 71 29t28 94q0 40 -19 66t-69 26h-32l2 10h33q31 0 56.5 15t40 44.5t14.5 73.5q0 26 -8.5 46t-35.5 20q-24 0 -39.5 -15.5t-25 -42t-15.5 -60.5q-32 0 -51 9.5t-19 33.5t19 43
t53 30.5t82 11.5q70 0 103 -26.5t33 -64.5q0 -54 -43.5 -82t-110.5 -39v-3q57 -4 92 -27t35 -70q0 -41 -25 -71t-69 -45.5t-102 -15.5zM275 0l509 714h11l-509 -714h-11zM660 0l2 10h28q17 0 30.5 6.5t18.5 31.5l16 76h-178l7 33l244 275h84l-56 -262h92l-10 -46h-91
l-14 -65q-2 -9 -3 -14.5t-1 -9.5q0 -16 10.5 -20.5t24.5 -4.5h20l-2 -10h-222zM611 170h154l36 168q3 12 5 22t5 20.5t6 23.5q-6 -8 -16.5 -19.5t-26.5 -30.5z" />
    <glyph glyph-name="questiondown" unicode="&#xbf;" horiz-adv-x="510" 
d="M306 204q-46 -4 -82.5 -25t-62 -54.5t-39 -76.5t-13.5 -91q0 -43 9.5 -72.5t29 -45.5t49.5 -16q39 0 63 24t37 65.5t18 96.5q43 0 65 -17t22 -48q0 -36 -25 -66t-72.5 -47.5t-112.5 -17.5q-91 0 -144 40.5t-53 115.5q0 63 35 111t91.5 79.5t124.5 46.5l50 123h14z
M333 545q23 0 37 -12t14 -40q0 -37 -20 -65t-54 -28q-22 0 -36.5 12t-14.5 41q0 25 8.5 46t24.5 33.5t41 12.5z" />
    <glyph glyph-name="Agrave" unicode="&#xc0;" horiz-adv-x="710" 
d="M-61 0l2 10h24q20 0 34 6t27.5 22.5t32.5 49.5l358 626h74l92 -645q3 -24 9.5 -36.5t18.5 -17.5t31 -5h12l-2 -10h-288l2 10h25q38 0 57 12.5t19 36.5q0 8 -0.5 17t-1.5 16l-46 380q-4 30 -8.5 66.5t-7.5 70.5t-5 55q-7 -16 -19.5 -38t-27 -47l-29 -50t-27.5 -48
l-217 -379q-11 -20 -15.5 -33.5t-4.5 -24.5q0 -18 14 -26t43 -8h65l-2 -10h-239zM162 260l4 10h340v-10h-344zM513 784q-18 14 -40 34t-43.5 41.5t-39.5 41t-27 33.5l2 10h99q6 -22 16.5 -49.5t22.5 -53.5t22 -48l-2 -9h-10z" />
    <glyph glyph-name="Aacute" unicode="&#xc1;" horiz-adv-x="710" 
d="M-61 0l2 10h24q20 0 34 6t27.5 22.5t32.5 49.5l358 626h74l92 -645q3 -24 9.5 -36.5t18.5 -17.5t31 -5h12l-2 -10h-288l2 10h25q38 0 57 12.5t19 36.5q0 8 -0.5 17t-1.5 16l-46 380q-4 30 -8.5 66.5t-7.5 70.5t-5 55q-7 -16 -19.5 -38t-27 -47l-29 -50t-27.5 -48
l-217 -379q-11 -20 -15.5 -33.5t-4.5 -24.5q0 -18 14 -26t43 -8h65l-2 -10h-239zM162 260l4 10h340v-10h-344zM408 784q17 22 35.5 48t36 53t31.5 49h104l-3 -10q-12 -13 -35 -32t-50.5 -41t-56 -42t-52.5 -35h-12z" />
    <glyph glyph-name="Acircumflex" unicode="&#xc2;" horiz-adv-x="710" 
d="M-61 0l2 10h24q20 0 34 6t27.5 22.5t32.5 49.5l358 626h74l92 -645q3 -24 9.5 -36.5t18.5 -17.5t31 -5h12l-2 -10h-288l2 10h25q38 0 57 12.5t19 36.5q0 8 -0.5 17t-1.5 16l-46 380q-4 30 -8.5 66.5t-7.5 70.5t-5 55q-7 -16 -19.5 -38t-27 -47l-29 -50t-27.5 -48
l-217 -379q-11 -20 -15.5 -33.5t-4.5 -24.5q0 -18 14 -26t43 -8h65l-2 -10h-239zM162 260l4 10h340v-10h-344zM304 793q22 21 49 47t52.5 53.5t42.5 50.5h84q8 -22 21.5 -50t29.5 -54.5t28 -46.5l-1 -9h-10q-35 20 -65.5 47.5t-52.5 52.5q-23 -17 -51.5 -35.5t-58.5 -35
t-59 -29.5h-11z" />
    <glyph glyph-name="Atilde" unicode="&#xc3;" horiz-adv-x="710" 
d="M-61 0l2 10h24q20 0 34 6t27.5 22.5t32.5 49.5l358 626h74l92 -645q3 -24 9.5 -36.5t18.5 -17.5t31 -5h12l-2 -10h-288l2 10h25q38 0 57 12.5t19 36.5q0 8 -0.5 17t-1.5 16l-46 380q-4 30 -8.5 66.5t-7.5 70.5t-5 55q-7 -16 -19.5 -38t-27 -47l-29 -50t-27.5 -48
l-217 -379q-11 -20 -15.5 -33.5t-4.5 -24.5q0 -18 14 -26t43 -8h65l-2 -10h-239zM162 260l4 10h340v-10h-344zM528 785q-29 0 -49.5 9.5t-37.5 22.5t-37 23t-49 10q-22 0 -35.5 -8.5t-22 -21t-14.5 -26.5h-10q9 33 26 61t43.5 46t62.5 18q29 0 48.5 -10t37 -23t38 -22.5
t49.5 -9.5q32 0 46 17t24 38h10q-8 -31 -24.5 -59.5t-43 -46.5t-62.5 -18z" />
    <glyph glyph-name="Adieresis" unicode="&#xc4;" horiz-adv-x="710" 
d="M-61 0l2 10h24q20 0 34 6t27.5 22.5t32.5 49.5l358 626h74l92 -645q3 -24 9.5 -36.5t18.5 -17.5t31 -5h12l-2 -10h-288l2 10h25q38 0 57 12.5t19 36.5q0 8 -0.5 17t-1.5 16l-46 380q-4 30 -8.5 66.5t-7.5 70.5t-5 55q-7 -16 -19.5 -38t-27 -47l-29 -50t-27.5 -48
l-217 -379q-11 -20 -15.5 -33.5t-4.5 -24.5q0 -18 14 -26t43 -8h65l-2 -10h-239zM162 260l4 10h340v-10h-344zM568 807q-21 0 -34 13t-13 40q0 20 6 35t18 23.5t27 8.5q20 0 33 -13t13 -40q0 -37 -16 -52t-34 -15zM373 807q-21 0 -33.5 13t-12.5 40q0 20 6 35t17.5 23.5
t26.5 8.5q20 0 33 -13t13 -40q0 -37 -16 -52t-34 -15z" />
    <glyph glyph-name="Aring" unicode="&#xc5;" horiz-adv-x="718" 
d="M-54 0l2 10h23q20 0 34 6t28 22.5t33 49.5l345 603l28 -8h31l31 6l88 -620q4 -24 10.5 -36.5t18.5 -17.5t31 -5h12l-2 -10h-289l2 10h26q38 0 57 12.5t19 36.5q0 8 -0.5 17t-1.5 16l-47 380q-3 30 -7.5 66.5t-7.5 70.5t-5 55q-8 -16 -20.5 -38t-27 -47l-29 -50t-27.5 -48
l-216 -379q-11 -20 -16 -33.5t-5 -24.5q0 -18 14.5 -26t42.5 -8h66l-2 -10h-239zM169 260l4 10h340v-10h-344zM468 679q-50 0 -85 28t-35 81q0 54 35 82t85 28t85 -28t35 -82q0 -53 -35 -81t-85 -28zM468 689q47 0 77.5 25t30.5 75q0 51 -30.5 75t-77.5 24t-77.5 -24
t-30.5 -75q0 -50 30.5 -75t77.5 -25z" />
    <glyph glyph-name="AE" unicode="&#xc6;" horiz-adv-x="952" 
d="M-60 0l1 10h19q22 0 38.5 6.5t33.5 23.5t39 48l448 616h-124l2 10h574l-33 -178h-10q1 5 2 16.5t2.5 24t1.5 20.5q0 31 -8 55t-31 38t-67 14h-163l-69 -324h246l-2 -10h-246l-76 -360h185q52 0 85 17.5t53 45.5t31 61l15 44h10l-45 -178h-547l2 10h13q22 0 42 4.5
t34 18.5t20 42l39 185h-246l-115 -158q-13 -18 -19.5 -32.5t-6.5 -26.5q0 -17 12 -25t40 -8h69l-2 -10h-247zM217 270h240l91 434h-19q-21 -31 -46.5 -67t-53.5 -75t-58 -79z" />
    <glyph glyph-name="Ccedilla" unicode="&#xc7;" horiz-adv-x="645" 
d="M345 -10q-89 0 -152.5 32t-97 93t-33.5 149q0 66 17.5 132t52 125.5t84.5 105t116 72t147 26.5q94 0 143 -31t49 -81q0 -39 -29.5 -60.5t-75.5 -21.5q0 32 -1 64.5t-9.5 59.5t-28 43.5t-55.5 16.5q-51 0 -94.5 -27t-79 -73.5t-60 -106.5t-38 -127t-13.5 -133
q0 -82 19.5 -137t58 -82.5t96.5 -27.5q51 0 84.5 18.5t56 52.5t38.5 79q9 -3 15 -12.5t6 -20.5q0 -28 -23 -58t-70.5 -50t-122.5 -20zM247 -240q-28 0 -46 3.5t-33 8.5l2 10q13 -4 26.5 -6t26.5 -2q33 0 53.5 15t31 40.5t10.5 54.5q0 25 -9 39.5t-30 20.5l26 57h10l-20 -44
q37 -5 61 -16.5t36 -28t12 -39.5q0 -37 -20.5 -62.5t-56.5 -38t-80 -12.5z" />
    <glyph glyph-name="Egrave" unicode="&#xc8;" horiz-adv-x="625" 
d="M-21 0l2 10h13q32 0 58.5 11t35.5 54l119 559q2 7 3 13.5t1 11.5q0 30 -20.5 37.5t-50.5 7.5h-13l2 10h515l-33 -178h-10q2 7 3 18t2.5 23.5t1.5 21.5q0 29 -6 52.5t-25 38t-57 14.5h-182l-68 -324h237l-2 -10h-237l-77 -360h205q35 0 59.5 10t41.5 27.5t28.5 39.5
t19.5 47l15 44h10l-45 -178h-546zM459 771q-18 14 -40 34t-43.5 41.5t-39.5 41t-27 33.5l2 10h99q6 -22 16.5 -49.5t22.5 -53.5t22 -48l-2 -9h-10z" />
    <glyph glyph-name="Eacute" unicode="&#xc9;" horiz-adv-x="625" 
d="M-21 0l2 10h13q32 0 58.5 11t35.5 54l119 559q2 7 3 13.5t1 11.5q0 30 -20.5 37.5t-50.5 7.5h-13l2 10h515l-33 -178h-10q2 7 3 18t2.5 23.5t1.5 21.5q0 29 -6 52.5t-25 38t-57 14.5h-182l-68 -324h237l-2 -10h-237l-77 -360h205q35 0 59.5 10t41.5 27.5t28.5 39.5
t19.5 47l15 44h10l-45 -178h-546zM384 781q17 22 35.5 48t36 53t31.5 49h104l-3 -10q-12 -13 -35 -32t-50.5 -41t-56 -42t-52.5 -35h-12z" />
    <glyph glyph-name="Ecircumflex" unicode="&#xca;" horiz-adv-x="625" 
d="M-21 0l2 10h13q32 0 58.5 11t35.5 54l119 559q2 7 3 13.5t1 11.5q0 30 -20.5 37.5t-50.5 7.5h-13l2 10h515l-33 -178h-10q2 7 3 18t2.5 23.5t1.5 21.5q0 29 -6 52.5t-25 38t-57 14.5h-182l-68 -324h237l-2 -10h-237l-77 -360h205q35 0 59.5 10t41.5 27.5t28.5 39.5
t19.5 47l15 44h10l-45 -178h-546zM299 780q22 21 49 47t52.5 53.5t42.5 50.5h84q8 -22 21.5 -50t29.5 -54.5t28 -46.5l-1 -9h-10q-35 20 -65.5 47.5t-52.5 52.5q-23 -17 -51.5 -35.5t-58.5 -35t-59 -29.5h-11z" />
    <glyph glyph-name="Edieresis" unicode="&#xcb;" horiz-adv-x="625" 
d="M-21 0l2 10h13q32 0 58.5 11t35.5 54l119 559q2 7 3 13.5t1 11.5q0 30 -20.5 37.5t-50.5 7.5h-13l2 10h515l-33 -178h-10q2 7 3 18t2.5 23.5t1.5 21.5q0 29 -6 52.5t-25 38t-57 14.5h-182l-68 -324h237l-2 -10h-237l-77 -360h205q35 0 59.5 10t41.5 27.5t28.5 39.5
t19.5 47l15 44h10l-45 -178h-546zM545 794q-21 0 -34 13t-13 40q0 20 6 35t18 23.5t27 8.5q20 0 33 -13t13 -40q0 -37 -16 -52t-34 -15zM350 794q-21 0 -33.5 13t-12.5 40q0 20 6 35t17.5 23.5t26.5 8.5q20 0 33 -13t13 -40q0 -37 -16 -52t-34 -15z" />
    <glyph glyph-name="Igrave" unicode="&#xcc;" horiz-adv-x="361" 
d="M-21 0l1 10h13q34 0 60.5 12t35.5 57l119 557q2 8 3 17t1 13q0 25 -20 31.5t-52 6.5h-13l2 10h306l-2 -10h-13q-34 0 -60.5 -12t-36.5 -59l-117 -553q-1 -8 -3 -17t-2 -15q0 -24 20.5 -31t51.5 -7h13l-2 -10h-305zM337 771q-18 14 -40 34t-43.5 41.5t-39.5 41t-27 33.5
l2 10h99q6 -22 16.5 -49.5t22.5 -53.5t22 -48l-2 -9h-10z" />
    <glyph glyph-name="Iacute" unicode="&#xcd;" horiz-adv-x="361" 
d="M-21 0l1 10h13q34 0 60.5 12t35.5 57l119 557q2 8 3 17t1 13q0 25 -20 31.5t-52 6.5h-13l2 10h306l-2 -10h-13q-34 0 -60.5 -12t-36.5 -59l-117 -553q-1 -8 -3 -17t-2 -15q0 -24 20.5 -31t51.5 -7h13l-2 -10h-305zM233 781q17 22 35.5 48t36 53t31.5 49h104l-3 -10
q-12 -13 -35 -32t-50.5 -41t-56 -42t-52.5 -35h-12z" />
    <glyph glyph-name="Icircumflex" unicode="&#xce;" horiz-adv-x="361" 
d="M-21 0l1 10h13q34 0 60.5 12t35.5 57l119 557q2 8 3 17t1 13q0 25 -20 31.5t-52 6.5h-13l2 10h306l-2 -10h-13q-34 0 -60.5 -12t-36.5 -59l-117 -553q-1 -8 -3 -17t-2 -15q0 -24 20.5 -31t51.5 -7h13l-2 -10h-305zM135 780q22 21 49 47t52.5 53.5t42.5 50.5h84
q8 -22 21.5 -50t29.5 -54.5t28 -46.5l-1 -9h-10q-35 20 -65.5 47.5t-52.5 52.5q-23 -17 -51.5 -35.5t-58.5 -35t-59 -29.5h-11z" />
    <glyph glyph-name="Idieresis" unicode="&#xcf;" horiz-adv-x="361" 
d="M-21 0l1 10h13q34 0 60.5 12t35.5 57l119 557q2 8 3 17t1 13q0 25 -20 31.5t-52 6.5h-13l2 10h306l-2 -10h-13q-34 0 -60.5 -12t-36.5 -59l-117 -553q-1 -8 -3 -17t-2 -15q0 -24 20.5 -31t51.5 -7h13l-2 -10h-305zM404 807q-21 0 -34 13t-13 40q0 20 6 35t18 23.5t27 8.5
q20 0 33 -13t13 -40q0 -37 -16 -52t-34 -15zM209 807q-21 0 -33.5 13t-12.5 40q0 20 6 35t17.5 23.5t26.5 8.5q20 0 33 -13t13 -40q0 -37 -16 -52t-34 -15z" />
    <glyph glyph-name="Eth" unicode="&#xd0;" horiz-adv-x="737" 
d="M59 371l2 10h366l-2 -10h-366zM-22 0l3 10h13q33 0 60 12t36 57l117 556q2 8 3.5 16.5t1.5 14.5q0 25 -21.5 31.5t-50.5 6.5h-13l2 10h291q140 0 215 -69.5t75 -202.5q0 -69 -16.5 -134.5t-49 -121.5t-82 -97.5t-115 -65t-148.5 -23.5h-321zM266 11q63 0 113.5 22.5
t88.5 63.5t64 97.5t39 124.5t13 144q0 85 -20 138t-59 78t-98 25h-69l-147 -693h75z" />
    <glyph glyph-name="Ntilde" unicode="&#xd1;" horiz-adv-x="754" 
d="M-21 0l2 10h19q27 0 50 4.5t39 19t23 45.5l118 557q2 7 3.5 16t1.5 14q0 25 -24.5 31.5t-64.5 6.5h-19l2 10h211l250 -569l105 492q2 7 3 15t1 13q0 25 -27 32t-70 7h-17l2 10h252l-2 -10h-20q-26 0 -49 -4t-40 -18.5t-24 -46.5l-134 -635h-37l-289 651l-123 -573
q-1 -8 -2.5 -16t-1.5 -13q0 -24 29 -31.5t74 -7.5h12l-2 -10h-251zM573 785q-29 0 -49.5 9.5t-37.5 22.5t-37 23t-49 10q-22 0 -35.5 -8.5t-22 -21t-14.5 -26.5h-10q9 33 26 61t43.5 46t62.5 18q29 0 48.5 -10t37 -23t38 -22.5t49.5 -9.5q32 0 46 17t24 38h10
q-8 -31 -24.5 -59.5t-43 -46.5t-62.5 -18z" />
    <glyph glyph-name="Ograve" unicode="&#xd2;" horiz-adv-x="756" 
d="M332 -11q-78 0 -139 31t-96 94t-35 157q0 54 14.5 115.5t46 121t79.5 109t114.5 79t151.5 29.5q71 0 131.5 -28.5t97 -90t36.5 -159.5q0 -42 -10 -91.5t-30.5 -101t-53 -99t-76.5 -85t-101.5 -59.5t-129.5 -22zM336 -1q56 0 100 31.5t76.5 83t54 115t32 129t10.5 123.5
q0 92 -18.5 142.5t-51 71t-77.5 20.5q-55 0 -99.5 -30.5t-77.5 -82t-55 -115t-33 -130t-11 -125.5q0 -90 19.5 -141t54 -71.5t76.5 -20.5zM552 784q-18 14 -40 34t-43.5 41.5t-39.5 41t-27 33.5l2 10h99q6 -22 16.5 -49.5t22.5 -53.5t22 -48l-2 -9h-10z" />
    <glyph glyph-name="Oacute" unicode="&#xd3;" horiz-adv-x="756" 
d="M332 -11q-78 0 -139 31t-96 94t-35 157q0 54 14.5 115.5t46 121t79.5 109t114.5 79t151.5 29.5q71 0 131.5 -28.5t97 -90t36.5 -159.5q0 -42 -10 -91.5t-30.5 -101t-53 -99t-76.5 -85t-101.5 -59.5t-129.5 -22zM336 -1q56 0 100 31.5t76.5 83t54 115t32 129t10.5 123.5
q0 92 -18.5 142.5t-51 71t-77.5 20.5q-55 0 -99.5 -30.5t-77.5 -82t-55 -115t-33 -130t-11 -125.5q0 -90 19.5 -141t54 -71.5t76.5 -20.5zM447 784q17 22 35.5 48t36 53t31.5 49h104l-3 -10q-12 -13 -35 -32t-50.5 -41t-56 -42t-52.5 -35h-12z" />
    <glyph glyph-name="Ocircumflex" unicode="&#xd4;" horiz-adv-x="756" 
d="M332 -11q-78 0 -139 31t-96 94t-35 157q0 54 14.5 115.5t46 121t79.5 109t114.5 79t151.5 29.5q71 0 131.5 -28.5t97 -90t36.5 -159.5q0 -42 -10 -91.5t-30.5 -101t-53 -99t-76.5 -85t-101.5 -59.5t-129.5 -22zM336 -1q56 0 100 31.5t76.5 83t54 115t32 129t10.5 123.5
q0 92 -18.5 142.5t-51 71t-77.5 20.5q-55 0 -99.5 -30.5t-77.5 -82t-55 -115t-33 -130t-11 -125.5q0 -90 19.5 -141t54 -71.5t76.5 -20.5zM343 793q22 21 49 47t52.5 53.5t42.5 50.5h84q8 -22 21.5 -50t29.5 -54.5t28 -46.5l-1 -9h-10q-35 20 -65.5 47.5t-52.5 52.5
q-23 -17 -51.5 -35.5t-58.5 -35t-59 -29.5h-11z" />
    <glyph glyph-name="Otilde" unicode="&#xd5;" horiz-adv-x="756" 
d="M332 -11q-78 0 -139 31t-96 94t-35 157q0 54 14.5 115.5t46 121t79.5 109t114.5 79t151.5 29.5q71 0 131.5 -28.5t97 -90t36.5 -159.5q0 -42 -10 -91.5t-30.5 -101t-53 -99t-76.5 -85t-101.5 -59.5t-129.5 -22zM336 -1q56 0 100 31.5t76.5 83t54 115t32 129t10.5 123.5
q0 92 -18.5 142.5t-51 71t-77.5 20.5q-55 0 -99.5 -30.5t-77.5 -82t-55 -115t-33 -130t-11 -125.5q0 -90 19.5 -141t54 -71.5t76.5 -20.5zM567 785q-29 0 -49.5 9.5t-37.5 22.5t-37 23t-49 10q-22 0 -35.5 -8.5t-22 -21t-14.5 -26.5h-10q9 33 26 61t43.5 46t62.5 18
q29 0 48.5 -10t37 -23t38 -22.5t49.5 -9.5q32 0 46 17t24 38h10q-8 -31 -24.5 -59.5t-43 -46.5t-62.5 -18z" />
    <glyph glyph-name="Odieresis" unicode="&#xd6;" horiz-adv-x="756" 
d="M332 -11q-78 0 -139 31t-96 94t-35 157q0 54 14.5 115.5t46 121t79.5 109t114.5 79t151.5 29.5q71 0 131.5 -28.5t97 -90t36.5 -159.5q0 -42 -10 -91.5t-30.5 -101t-53 -99t-76.5 -85t-101.5 -59.5t-129.5 -22zM336 -1q56 0 100 31.5t76.5 83t54 115t32 129t10.5 123.5
q0 92 -18.5 142.5t-51 71t-77.5 20.5q-55 0 -99.5 -30.5t-77.5 -82t-55 -115t-33 -130t-11 -125.5q0 -90 19.5 -141t54 -71.5t76.5 -20.5zM607 807q-21 0 -34 13t-13 40q0 20 6 35t18 23.5t27 8.5q20 0 33 -13t13 -40q0 -37 -16 -52t-34 -15zM412 807q-21 0 -33.5 13
t-12.5 40q0 20 6 35t17.5 23.5t26.5 8.5q20 0 33 -13t13 -40q0 -37 -16 -52t-34 -15z" />
    <glyph glyph-name="multiply" unicode="&#xd7;" horiz-adv-x="559" 
d="M101 145l-14 14l198 198l-198 198l14 14l198 -198l197 198l14 -14l-198 -198l198 -198l-14 -14l-197 198z" />
    <glyph glyph-name="Oslash" unicode="&#xd8;" horiz-adv-x="756" 
d="M99 -42l583 799h11l-583 -799h-11zM332 -11q-78 0 -139 31t-96 94t-35 157q0 54 14.5 115.5t46 121t79.5 109t114.5 79t151.5 29.5q71 0 131.5 -28.5t97 -90t36.5 -159.5q0 -42 -10 -91.5t-30.5 -101t-53 -99t-76.5 -85t-101.5 -59.5t-129.5 -22zM336 -1q56 0 100 31.5
t76.5 83t54 115t32 129t10.5 123.5q0 92 -18.5 142.5t-51 71t-77.5 20.5q-55 0 -99.5 -30.5t-77.5 -82t-55 -115t-33 -130t-11 -125.5q0 -90 19.5 -141t54 -71.5t76.5 -20.5z" />
    <glyph glyph-name="Ugrave" unicode="&#xd9;" horiz-adv-x="720" 
d="M332 -10q-111 0 -171 45.5t-60 127.5q0 16 3.5 44t7.5 45l81 380q2 9 3.5 19t1.5 15q0 25 -20 31.5t-52 6.5h-13l2 10h306l-1 -10h-13q-22 0 -42 -4.5t-34 -19t-21 -44.5l-83 -388q-3 -18 -6 -35t-5 -33.5t-2 -34.5q0 -68 32.5 -106t96.5 -38q79 0 130 27t80.5 74
t42.5 107l91 428q2 7 3 16t1 13q0 25 -20 31.5t-52 6.5h-15l2 10h204l-2 -10h-14q-22 0 -42 -4.5t-34.5 -19t-20.5 -45.5l-91 -427q-14 -69 -47.5 -117.5t-89 -74.5t-137.5 -26zM549 784q-18 14 -40 34t-43.5 41.5t-39.5 41t-27 33.5l2 10h99q6 -22 16.5 -49.5t22.5 -53.5
t22 -48l-2 -9h-10z" />
    <glyph glyph-name="Uacute" unicode="&#xda;" horiz-adv-x="720" 
d="M332 -10q-111 0 -171 45.5t-60 127.5q0 16 3.5 44t7.5 45l81 380q2 9 3.5 19t1.5 15q0 25 -20 31.5t-52 6.5h-13l2 10h306l-1 -10h-13q-22 0 -42 -4.5t-34 -19t-21 -44.5l-83 -388q-3 -18 -6 -35t-5 -33.5t-2 -34.5q0 -68 32.5 -106t96.5 -38q79 0 130 27t80.5 74
t42.5 107l91 428q2 7 3 16t1 13q0 25 -20 31.5t-52 6.5h-15l2 10h204l-2 -10h-14q-22 0 -42 -4.5t-34.5 -19t-20.5 -45.5l-91 -427q-14 -69 -47.5 -117.5t-89 -74.5t-137.5 -26zM444 784q17 22 35.5 48t36 53t31.5 49h104l-3 -10q-12 -13 -35 -32t-50.5 -41t-56 -42
t-52.5 -35h-12z" />
    <glyph glyph-name="Ucircumflex" unicode="&#xdb;" horiz-adv-x="720" 
d="M332 -10q-111 0 -171 45.5t-60 127.5q0 16 3.5 44t7.5 45l81 380q2 9 3.5 19t1.5 15q0 25 -20 31.5t-52 6.5h-13l2 10h306l-1 -10h-13q-22 0 -42 -4.5t-34 -19t-21 -44.5l-83 -388q-3 -18 -6 -35t-5 -33.5t-2 -34.5q0 -68 32.5 -106t96.5 -38q79 0 130 27t80.5 74
t42.5 107l91 428q2 7 3 16t1 13q0 25 -20 31.5t-52 6.5h-15l2 10h204l-2 -10h-14q-22 0 -42 -4.5t-34.5 -19t-20.5 -45.5l-91 -427q-14 -69 -47.5 -117.5t-89 -74.5t-137.5 -26zM340 793q22 21 49 47t52.5 53.5t42.5 50.5h84q8 -22 21.5 -50t29.5 -54.5t28 -46.5l-1 -9h-10
q-35 20 -65.5 47.5t-52.5 52.5q-23 -17 -51.5 -35.5t-58.5 -35t-59 -29.5h-11z" />
    <glyph glyph-name="Udieresis" unicode="&#xdc;" horiz-adv-x="720" 
d="M332 -10q-111 0 -171 45.5t-60 127.5q0 16 3.5 44t7.5 45l81 380q2 9 3.5 19t1.5 15q0 25 -20 31.5t-52 6.5h-13l2 10h306l-1 -10h-13q-22 0 -42 -4.5t-34 -19t-21 -44.5l-83 -388q-3 -18 -6 -35t-5 -33.5t-2 -34.5q0 -68 32.5 -106t96.5 -38q79 0 130 27t80.5 74
t42.5 107l91 428q2 7 3 16t1 13q0 25 -20 31.5t-52 6.5h-15l2 10h204l-2 -10h-14q-22 0 -42 -4.5t-34.5 -19t-20.5 -45.5l-91 -427q-14 -69 -47.5 -117.5t-89 -74.5t-137.5 -26zM604 807q-21 0 -34 13t-13 40q0 20 6 35t18 23.5t27 8.5q20 0 33 -13t13 -40q0 -37 -16 -52
t-34 -15zM409 807q-21 0 -33.5 13t-12.5 40q0 20 6 35t17.5 23.5t26.5 8.5q20 0 33 -13t13 -40q0 -37 -16 -52t-34 -15z" />
    <glyph glyph-name="Yacute" unicode="&#xdd;" horiz-adv-x="644" 
d="M105 0l2 10h24q33 0 59 11t36 54l45 214l-111 362q-9 29 -19.5 41t-37.5 12h-13l2 10h286l-2 -10h-52q-21 0 -30.5 -7t-9.5 -21q0 -7 1.5 -16t4 -20t6.5 -23l56 -207q6 -20 11 -39.5t10.5 -38t9.5 -37.5l32 46t34 50l149 217q16 23 22.5 37t6.5 27q0 17 -11.5 24.5
t-39.5 7.5h-62l2 10h225l-2 -10h-22q-16 0 -30.5 -8t-28.5 -24t-32 -41l-239 -347l-44 -208q-2 -7 -3.5 -15t-1.5 -13q0 -24 21 -31t52 -7h23l-2 -10h-327zM388 784q17 22 35.5 48t36 53t31.5 49h104l-3 -10q-12 -13 -35 -32t-50.5 -41t-56 -42t-52.5 -35h-12z" />
    <glyph glyph-name="Thorn" unicode="&#xde;" horiz-adv-x="613" 
d="M-21 0l2 10h13q33 0 59.5 12t35.5 57l119 558q2 7 3 16t1 13q0 25 -20 31.5t-52 6.5h-13l2 10h313l-2 -10h-20q-34 0 -60.5 -12t-35.5 -57l-11 -49h57q109 0 170 -46t61 -140q0 -37 -13.5 -79.5t-47 -80.5t-93 -61.5t-151.5 -23.5h-75l-16 -80q-1 -6 -2.5 -14t-1.5 -13
q0 -24 20.5 -31t51.5 -7h20l-2 -10h-312zM271 164q59 0 99 23t64 59.5t34.5 79t10.5 82.5q0 92 -33 130t-95 38h-40l-88 -412h48z" />
    <glyph glyph-name="germandbls" unicode="&#xdf;" horiz-adv-x="646" 
d="M-79 -240q-16 0 -33 2.5t-27 6.5l2 10q8 -3 21 -5t25 -2q34 0 57.5 20.5t41 67t32.5 123.5l116 543h-81l2 10h81l7 31q13 54 36 92t56.5 62t75.5 35t91 11q100 0 146 -43t46 -114q0 -18 -1.5 -38.5t-5.5 -41.5h-81q-40 0 -67 -13t-40 -37t-13 -59q0 -23 8 -40.5t27 -34
t51 -37.5q32 -19 53 -41.5t31.5 -49t10.5 -58.5q0 -52 -23 -90.5t-67.5 -59t-109.5 -20.5q-48 0 -83 12.5t-54 35.5t-19 55q0 34 22 52.5t55 18.5q0 -45 5 -82t23.5 -59.5t56.5 -22.5q48 0 72.5 30.5t24.5 80.5q0 30 -7.5 52.5t-24.5 41.5t-49 39q-30 19 -52.5 40t-35 46.5
t-12.5 58.5q0 38 13.5 66.5t38.5 46.5t60.5 27t79.5 9q5 24 8 46.5t3 42.5q0 59 -20 94.5t-74 35.5q-39 0 -66.5 -20t-46 -59.5t-29.5 -99.5l-126 -586q-14 -68 -37 -112.5t-53 -71t-65.5 -37.5t-75.5 -11z" />
    <glyph glyph-name="agrave" unicode="&#xe0;" horiz-adv-x="597" 
d="M168 -10q-46 0 -76.5 23.5t-45 65.5t-14.5 96q0 46 12.5 97t37 99t61 88t85 63.5t108.5 23.5q40 0 63.5 -11t41.5 -28l67 28h34l-69 -327q-2 -13 -6 -33t-6.5 -41t-2.5 -36q0 -37 10.5 -56t29.5 -19q18 0 37 10t39 25l6 -8q-16 -14 -39.5 -28t-51 -23t-55.5 -9
q-38 0 -61 22.5t-23 64.5q0 22 2 39.5t6 39.5h-1q-34 -82 -81 -124t-108 -42zM215 20q26 0 50 19.5t44 49t33.5 62t19.5 58.5l61 293q-10 16 -29.5 24t-41.5 8q-39 0 -71.5 -24.5t-57.5 -65.5t-41.5 -90.5t-25 -99t-8.5 -91.5q0 -53 9 -84t24 -45t34 -14zM421 606
q-18 14 -40 34t-43.5 41.5t-39.5 41t-27 33.5l2 10h99q6 -22 16.5 -49.5t22.5 -53.5t22 -48l-2 -9h-10z" />
    <glyph glyph-name="aacute" unicode="&#xe1;" horiz-adv-x="597" 
d="M168 -10q-46 0 -76.5 23.5t-45 65.5t-14.5 96q0 46 12.5 97t37 99t61 88t85 63.5t108.5 23.5q40 0 63.5 -11t41.5 -28l67 28h34l-69 -327q-2 -13 -6 -33t-6.5 -41t-2.5 -36q0 -37 10.5 -56t29.5 -19q18 0 37 10t39 25l6 -8q-16 -14 -39.5 -28t-51 -23t-55.5 -9
q-38 0 -61 22.5t-23 64.5q0 22 2 39.5t6 39.5h-1q-34 -82 -81 -124t-108 -42zM215 20q26 0 50 19.5t44 49t33.5 62t19.5 58.5l61 293q-10 16 -29.5 24t-41.5 8q-39 0 -71.5 -24.5t-57.5 -65.5t-41.5 -90.5t-25 -99t-8.5 -91.5q0 -53 9 -84t24 -45t34 -14zM316 606
q17 22 35.5 48t36 53t31.5 49h104l-3 -10q-12 -13 -35 -32t-50.5 -41t-56 -42t-52.5 -35h-12z" />
    <glyph glyph-name="acircumflex" unicode="&#xe2;" horiz-adv-x="597" 
d="M168 -10q-46 0 -76.5 23.5t-45 65.5t-14.5 96q0 46 12.5 97t37 99t61 88t85 63.5t108.5 23.5q40 0 63.5 -11t41.5 -28l67 28h34l-69 -327q-2 -13 -6 -33t-6.5 -41t-2.5 -36q0 -37 10.5 -56t29.5 -19q18 0 37 10t39 25l6 -8q-16 -14 -39.5 -28t-51 -23t-55.5 -9
q-38 0 -61 22.5t-23 64.5q0 22 2 39.5t6 39.5h-1q-34 -82 -81 -124t-108 -42zM215 20q26 0 50 19.5t44 49t33.5 62t19.5 58.5l61 293q-10 16 -29.5 24t-41.5 8q-39 0 -71.5 -24.5t-57.5 -65.5t-41.5 -90.5t-25 -99t-8.5 -91.5q0 -53 9 -84t24 -45t34 -14zM212 615
q22 21 49 47t52.5 53.5t42.5 50.5h84q8 -22 21.5 -50t29.5 -54.5t28 -46.5l-1 -9h-10q-35 20 -65.5 47.5t-52.5 52.5q-23 -17 -51.5 -35.5t-58.5 -35t-59 -29.5h-11z" />
    <glyph glyph-name="atilde" unicode="&#xe3;" horiz-adv-x="597" 
d="M168 -10q-46 0 -76.5 23.5t-45 65.5t-14.5 96q0 46 12.5 97t37 99t61 88t85 63.5t108.5 23.5q40 0 63.5 -11t41.5 -28l67 28h34l-69 -327q-2 -13 -6 -33t-6.5 -41t-2.5 -36q0 -37 10.5 -56t29.5 -19q18 0 37 10t39 25l6 -8q-16 -14 -39.5 -28t-51 -23t-55.5 -9
q-38 0 -61 22.5t-23 64.5q0 22 2 39.5t6 39.5h-1q-34 -82 -81 -124t-108 -42zM215 20q26 0 50 19.5t44 49t33.5 62t19.5 58.5l61 293q-10 16 -29.5 24t-41.5 8q-39 0 -71.5 -24.5t-57.5 -65.5t-41.5 -90.5t-25 -99t-8.5 -91.5q0 -53 9 -84t24 -45t34 -14zM436 607
q-29 0 -49.5 9.5t-37.5 22.5t-37 23t-49 10q-22 0 -35.5 -8.5t-22 -21t-14.5 -26.5h-10q9 33 26 61t43.5 46t62.5 18q29 0 48.5 -10t37 -23t38 -22.5t49.5 -9.5q32 0 46 17t24 38h10q-8 -31 -24.5 -59.5t-43 -46.5t-62.5 -18z" />
    <glyph glyph-name="adieresis" unicode="&#xe4;" horiz-adv-x="597" 
d="M168 -10q-46 0 -76.5 23.5t-45 65.5t-14.5 96q0 46 12.5 97t37 99t61 88t85 63.5t108.5 23.5q40 0 63.5 -11t41.5 -28l67 28h34l-69 -327q-2 -13 -6 -33t-6.5 -41t-2.5 -36q0 -37 10.5 -56t29.5 -19q18 0 37 10t39 25l6 -8q-16 -14 -39.5 -28t-51 -23t-55.5 -9
q-38 0 -61 22.5t-23 64.5q0 22 2 39.5t6 39.5h-1q-34 -82 -81 -124t-108 -42zM215 20q26 0 50 19.5t44 49t33.5 62t19.5 58.5l61 293q-10 16 -29.5 24t-41.5 8q-39 0 -71.5 -24.5t-57.5 -65.5t-41.5 -90.5t-25 -99t-8.5 -91.5q0 -53 9 -84t24 -45t34 -14zM476 629
q-21 0 -34 13t-13 40q0 20 6 35t18 23.5t27 8.5q20 0 33 -13t13 -40q0 -37 -16 -52t-34 -15zM281 629q-21 0 -33.5 13t-12.5 40q0 20 6 35t17.5 23.5t26.5 8.5q20 0 33 -13t13 -40q0 -37 -16 -52t-34 -15z" />
    <glyph glyph-name="aring" unicode="&#xe5;" horiz-adv-x="597" 
d="M168 -10q-46 0 -76.5 23.5t-45 65.5t-14.5 96q0 46 12.5 97t37 99t61 88t85 63.5t108.5 23.5q40 0 63.5 -11t41.5 -28l67 28h34l-69 -327q-2 -13 -6 -33t-6.5 -41t-2.5 -36q0 -37 10.5 -56t29.5 -19q18 0 37 10t39 25l6 -8q-16 -14 -39.5 -28t-51 -23t-55.5 -9
q-38 0 -61 22.5t-23 64.5q0 22 2 39.5t6 39.5h-1q-34 -82 -81 -124t-108 -42zM215 20q26 0 50 19.5t44 49t33.5 62t19.5 58.5l61 293q-10 16 -29.5 24t-41.5 8q-39 0 -71.5 -24.5t-57.5 -65.5t-41.5 -90.5t-25 -99t-8.5 -91.5q0 -53 9 -84t24 -45t34 -14zM382 594
q-50 0 -85 28t-35 81q0 54 35 82t85 28t85 -28t35 -82q0 -53 -35 -81t-85 -28zM382 604q47 0 77.5 25t30.5 75t-30.5 74.5t-77.5 24.5t-77.5 -24.5t-30.5 -74.5t30.5 -75t77.5 -25z" />
    <glyph glyph-name="ae" unicode="&#xe6;" horiz-adv-x="831" 
d="M193 -10q-44 0 -78 22t-53.5 66t-19.5 109q0 44 11.5 93.5t34.5 97t58 85t83.5 60.5t110.5 23q43 0 78 -14t70 -55q37 32 84 50.5t103 18.5q66 0 103 -29.5t37 -86.5q0 -49 -38 -90t-103.5 -66t-150.5 -25h-34q-2 -13 -3.5 -30.5t-1.5 -30.5q0 -92 22 -140t74 -48
q59 0 95.5 37t57.5 94q7 -3 11.5 -10.5t4.5 -18.5q0 -23 -18.5 -49t-58 -44.5t-101.5 -18.5q-53 0 -93.5 16t-67.5 50.5t-39 88.5h-1q-33 -86 -75 -120.5t-102 -34.5zM240 14q34 0 68 38t60 120v16.5v17.5q0 51 13.5 100t39 92t60.5 73q-29 32 -55.5 44.5t-56.5 12.5
q-41 0 -74.5 -23.5t-58.5 -62t-42.5 -85t-26.5 -94t-9 -87.5q0 -86 21 -124t61 -38zM503 259q56 0 100.5 23t71 66t26.5 101q0 42 -11.5 64t-39.5 22q-31 0 -57 -23.5t-47 -63.5t-35.5 -89t-20.5 -100h13z" />
    <glyph glyph-name="ccedilla" unicode="&#xe7;" horiz-adv-x="491" 
d="M243 -10q-62 0 -108 23t-71.5 69.5t-25.5 117.5q0 43 11 90.5t33.5 92.5t58.5 82t85.5 59t113.5 22q54 0 88 -14t50 -36.5t16 -48.5q0 -20 -11 -37t-33.5 -27t-57.5 -10q1 10 1.5 21.5t0.5 23.5q0 56 -15 86.5t-50 30.5q-32 0 -59 -22t-48.5 -60t-36 -84.5t-22.5 -94
t-8 -89.5q0 -90 25.5 -136.5t80.5 -46.5q36 0 62 15.5t44.5 45t31.5 68.5q9 -3 15 -11t6 -18q0 -23 -18.5 -49t-57 -44.5t-101.5 -18.5zM164 -240q-28 0 -46 3.5t-33 8.5l2 10q13 -4 26.5 -6t26.5 -2q33 0 53.5 15t31 40.5t10.5 54.5q0 25 -9 39.5t-30 20.5l26 57h10
l-20 -44q37 -5 61 -16.5t36 -28t12 -39.5q0 -37 -20.5 -62.5t-56.5 -38t-80 -12.5z" />
    <glyph glyph-name="egrave" unicode="&#xe8;" horiz-adv-x="491" 
d="M240 -10q-58 0 -104 23t-72.5 68.5t-26.5 115.5q0 43 12 91t36 94t60.5 83t86.5 59t113 22q66 0 102.5 -30t36.5 -86q0 -49 -37.5 -90t-103 -66.5t-149.5 -25.5h-35q-1 -8 -2.5 -19t-2 -21.5t-0.5 -19.5q0 -61 11.5 -103t34 -63.5t53.5 -21.5q58 0 92.5 37t52.5 94
q10 -3 15.5 -11t5.5 -22q0 -20 -19 -45.5t-58.5 -44t-101.5 -18.5zM185 258q42 0 76.5 13t58.5 37.5t37.5 58.5t13.5 75q0 47 -13.5 69.5t-39.5 22.5q-29 0 -53.5 -23t-45 -63t-35 -89.5t-23.5 -100.5h24zM401 606q-18 14 -40 34t-43.5 41.5t-39.5 41t-27 33.5l2 10h99
q6 -22 16.5 -49.5t22.5 -53.5t22 -48l-2 -9h-10z" />
    <glyph glyph-name="eacute" unicode="&#xe9;" horiz-adv-x="491" 
d="M240 -10q-58 0 -104 23t-72.5 68.5t-26.5 115.5q0 43 12 91t36 94t60.5 83t86.5 59t113 22q66 0 102.5 -30t36.5 -86q0 -49 -37.5 -90t-103 -66.5t-149.5 -25.5h-35q-1 -8 -2.5 -19t-2 -21.5t-0.5 -19.5q0 -61 11.5 -103t34 -63.5t53.5 -21.5q58 0 92.5 37t52.5 94
q10 -3 15.5 -11t5.5 -22q0 -20 -19 -45.5t-58.5 -44t-101.5 -18.5zM185 258q42 0 76.5 13t58.5 37.5t37.5 58.5t13.5 75q0 47 -13.5 69.5t-39.5 22.5q-29 0 -53.5 -23t-45 -63t-35 -89.5t-23.5 -100.5h24zM296 606q17 22 35.5 48t36 53t31.5 49h104l-3 -10q-12 -13 -35 -32
t-50.5 -41t-56 -42t-52.5 -35h-12z" />
    <glyph glyph-name="ecircumflex" unicode="&#xea;" horiz-adv-x="491" 
d="M240 -10q-58 0 -104 23t-72.5 68.5t-26.5 115.5q0 43 12 91t36 94t60.5 83t86.5 59t113 22q66 0 102.5 -30t36.5 -86q0 -49 -37.5 -90t-103 -66.5t-149.5 -25.5h-35q-1 -8 -2.5 -19t-2 -21.5t-0.5 -19.5q0 -61 11.5 -103t34 -63.5t53.5 -21.5q58 0 92.5 37t52.5 94
q10 -3 15.5 -11t5.5 -22q0 -20 -19 -45.5t-58.5 -44t-101.5 -18.5zM185 258q42 0 76.5 13t58.5 37.5t37.5 58.5t13.5 75q0 47 -13.5 69.5t-39.5 22.5q-29 0 -53.5 -23t-45 -63t-35 -89.5t-23.5 -100.5h24zM192 615q22 21 49 47t52.5 53.5t42.5 50.5h84q8 -22 21.5 -50
t29.5 -54.5t28 -46.5l-1 -9h-10q-35 20 -65.5 47.5t-52.5 52.5q-23 -17 -51.5 -35.5t-58.5 -35t-59 -29.5h-11z" />
    <glyph glyph-name="edieresis" unicode="&#xeb;" horiz-adv-x="491" 
d="M240 -10q-58 0 -104 23t-72.5 68.5t-26.5 115.5q0 43 12 91t36 94t60.5 83t86.5 59t113 22q66 0 102.5 -30t36.5 -86q0 -49 -37.5 -90t-103 -66.5t-149.5 -25.5h-35q-1 -8 -2.5 -19t-2 -21.5t-0.5 -19.5q0 -61 11.5 -103t34 -63.5t53.5 -21.5q58 0 92.5 37t52.5 94
q10 -3 15.5 -11t5.5 -22q0 -20 -19 -45.5t-58.5 -44t-101.5 -18.5zM185 258q42 0 76.5 13t58.5 37.5t37.5 58.5t13.5 75q0 47 -13.5 69.5t-39.5 22.5q-29 0 -53.5 -23t-45 -63t-35 -89.5t-23.5 -100.5h24zM456 629q-21 0 -34 13t-13 40q0 20 6 35t18 23.5t27 8.5
q20 0 33 -13t13 -40q0 -37 -16 -52t-34 -15zM261 629q-21 0 -33.5 13t-12.5 40q0 20 6 35t17.5 23.5t26.5 8.5q20 0 33 -13t13 -40q0 -37 -16 -52t-34 -15z" />
    <glyph glyph-name="igrave" unicode="&#xec;" horiz-adv-x="314" 
d="M163 -10q-44 0 -68.5 28.5t-24.5 76.5q0 21 3.5 45.5t8.5 50t9 46.5l46 216q2 10 3 18t1 14q0 25 -14 33t-45 8h-14l2 10h195l-71 -332q-2 -13 -6 -33t-6.5 -40.5t-2.5 -34.5q1 -33 11 -50t31 -17q23 0 41 9.5t35 22.5l6 -9q-22 -20 -59.5 -41t-80.5 -21zM268 606
q-18 14 -40 34t-43.5 41.5t-39.5 41t-27 33.5l2 10h99q6 -22 16.5 -49.5t22.5 -53.5t22 -48l-2 -9h-10z" />
    <glyph glyph-name="iacute" unicode="&#xed;" horiz-adv-x="314" 
d="M163 -10q-44 0 -68.5 28.5t-24.5 76.5q0 21 3.5 45.5t8.5 50t9 46.5l46 216q2 10 3 18t1 14q0 25 -14 33t-45 8h-14l2 10h195l-71 -332q-2 -13 -6 -33t-6.5 -40.5t-2.5 -34.5q1 -33 11 -50t31 -17q23 0 41 9.5t35 22.5l6 -9q-22 -20 -59.5 -41t-80.5 -21zM164 606
q17 22 35.5 48t36 53t31.5 49h104l-3 -10q-12 -13 -35 -32t-50.5 -41t-56 -42t-52.5 -35h-12z" />
    <glyph glyph-name="icircumflex" unicode="&#xee;" horiz-adv-x="314" 
d="M163 -10q-44 0 -68.5 28.5t-24.5 76.5q0 21 3.5 45.5t8.5 50t9 46.5l46 216q2 10 3 18t1 14q0 25 -14 33t-45 8h-14l2 10h195l-71 -332q-2 -13 -6 -33t-6.5 -40.5t-2.5 -34.5q1 -33 11 -50t31 -17q23 0 41 9.5t35 22.5l6 -9q-22 -20 -59.5 -41t-80.5 -21zM59 615
q22 21 49 47t52.5 53.5t42.5 50.5h84q8 -22 21.5 -50t29.5 -54.5t28 -46.5l-1 -9h-10q-35 20 -65.5 47.5t-52.5 52.5q-23 -17 -51.5 -35.5t-58.5 -35t-59 -29.5h-11z" />
    <glyph glyph-name="idieresis" unicode="&#xef;" horiz-adv-x="314" 
d="M163 -10q-44 0 -68.5 28.5t-24.5 76.5q0 21 3.5 45.5t8.5 50t9 46.5l46 216q2 10 3 18t1 14q0 25 -14 33t-45 8h-14l2 10h195l-71 -332q-2 -13 -6 -33t-6.5 -40.5t-2.5 -34.5q1 -33 11 -50t31 -17q23 0 41 9.5t35 22.5l6 -9q-22 -20 -59.5 -41t-80.5 -21zM323 629
q-21 0 -34 13t-13 40q0 20 6 35t18 23.5t27 8.5q20 0 33 -13t13 -40q0 -37 -16 -52t-34 -15zM128 629q-21 0 -33.5 13t-12.5 40q0 20 6 35t17.5 23.5t26.5 8.5q20 0 33 -13t13 -40q0 -37 -16 -52t-34 -15z" />
    <glyph glyph-name="eth" unicode="&#xf0;" horiz-adv-x="585" 
d="M243 -10q-60 1 -105.5 23t-70.5 66.5t-25 110.5q0 40 10.5 84t32 85.5t54.5 75t78 54t102 20.5q28 0 49 -6.5t35 -18t24 -27.5q-6 57 -23 104t-43.5 85t-61 65t-76.5 42l3 9q70 -17 127.5 -49.5t99.5 -82.5t65 -116.5t23 -149.5q0 -78 -18.5 -146t-56 -119t-93.5 -80
t-130 -29zM245 0q38 0 67.5 21.5t50.5 57t34 79.5t19.5 89t6.5 85q0 84 -23 124t-67 40q-37 0 -65.5 -21.5t-49 -58t-34 -80.5t-19.5 -89.5t-6 -85.5q0 -56 10 -91.5t29 -52.5t47 -17zM212 565l3 13l319 177l-3 -13z" />
    <glyph glyph-name="ntilde" unicode="&#xf1;" horiz-adv-x="621" 
d="M472 -10q-48 0 -73 28.5t-25 73.5q0 24 4 55t14 74l20 88q3 13 7.5 35t8.5 46t4 44q0 16 -3.5 34t-16 30.5t-37.5 12.5q-26 0 -50.5 -17.5t-44.5 -43.5t-33 -51t-16 -40l-79 -359h-108l91 436q3 14 4.5 27.5t1.5 18.5q0 27 -18 35.5t-47 8.5h-11l2 10h199l-26 -125h2
q27 45 56 75t62 44.5t73 14.5q41 0 65 -15t34.5 -40.5t10.5 -56.5q0 -25 -6.5 -55t-11.5 -56l-28 -125q-6 -28 -9.5 -55t-3.5 -53q0 -29 11 -45t34 -16q13 0 24.5 4t22.5 10.5t22 15.5l6 -8q-24 -21 -56 -40.5t-76 -19.5zM456 607q-29 0 -49.5 9.5t-37.5 22.5t-37 23t-49 10
q-22 0 -35.5 -8.5t-22 -21t-14.5 -26.5h-10q9 33 26 61t43.5 46t62.5 18q29 0 48.5 -10t37 -23t38 -22.5t49.5 -9.5q32 0 46 17t24 38h10q-8 -31 -24.5 -59.5t-43 -46.5t-62.5 -18z" />
    <glyph glyph-name="ograve" unicode="&#xf2;" horiz-adv-x="575" 
d="M235 -10q-88 0 -143 51.5t-55 156.5q0 44 11.5 92.5t36 94t60.5 82t85.5 58t112.5 21.5q54 0 98 -21t70.5 -67t26.5 -120q0 -43 -11.5 -90.5t-35 -93.5t-59 -82.5t-85 -59t-112.5 -22.5zM237 0q40 0 69.5 24t51.5 64.5t36 89t20.5 98t6.5 92.5q0 62 -9 99t-27 53t-48 16
q-38 0 -68 -24.5t-52 -64.5t-36 -89t-20.5 -98.5t-6.5 -91.5q0 -92 22 -130t61 -38zM417 606q-18 14 -40 34t-43.5 41.5t-39.5 41t-27 33.5l2 10h99q6 -22 16.5 -49.5t22.5 -53.5t22 -48l-2 -9h-10z" />
    <glyph glyph-name="oacute" unicode="&#xf3;" horiz-adv-x="575" 
d="M235 -10q-88 0 -143 51.5t-55 156.5q0 44 11.5 92.5t36 94t60.5 82t85.5 58t112.5 21.5q54 0 98 -21t70.5 -67t26.5 -120q0 -43 -11.5 -90.5t-35 -93.5t-59 -82.5t-85 -59t-112.5 -22.5zM237 0q40 0 69.5 24t51.5 64.5t36 89t20.5 98t6.5 92.5q0 62 -9 99t-27 53t-48 16
q-38 0 -68 -24.5t-52 -64.5t-36 -89t-20.5 -98.5t-6.5 -91.5q0 -92 22 -130t61 -38zM312 606q17 22 35.5 48t36 53t31.5 49h104l-3 -10q-12 -13 -35 -32t-50.5 -41t-56 -42t-52.5 -35h-12z" />
    <glyph glyph-name="ocircumflex" unicode="&#xf4;" horiz-adv-x="575" 
d="M235 -10q-88 0 -143 51.5t-55 156.5q0 44 11.5 92.5t36 94t60.5 82t85.5 58t112.5 21.5q54 0 98 -21t70.5 -67t26.5 -120q0 -43 -11.5 -90.5t-35 -93.5t-59 -82.5t-85 -59t-112.5 -22.5zM237 0q40 0 69.5 24t51.5 64.5t36 89t20.5 98t6.5 92.5q0 62 -9 99t-27 53t-48 16
q-38 0 -68 -24.5t-52 -64.5t-36 -89t-20.5 -98.5t-6.5 -91.5q0 -92 22 -130t61 -38zM208 615q22 21 49 47t52.5 53.5t42.5 50.5h84q8 -22 21.5 -50t29.5 -54.5t28 -46.5l-1 -9h-10q-35 20 -65.5 47.5t-52.5 52.5q-23 -17 -51.5 -35.5t-58.5 -35t-59 -29.5h-11z" />
    <glyph glyph-name="otilde" unicode="&#xf5;" horiz-adv-x="575" 
d="M235 -10q-88 0 -143 51.5t-55 156.5q0 44 11.5 92.5t36 94t60.5 82t85.5 58t112.5 21.5q54 0 98 -21t70.5 -67t26.5 -120q0 -43 -11.5 -90.5t-35 -93.5t-59 -82.5t-85 -59t-112.5 -22.5zM237 0q40 0 69.5 24t51.5 64.5t36 89t20.5 98t6.5 92.5q0 62 -9 99t-27 53t-48 16
q-38 0 -68 -24.5t-52 -64.5t-36 -89t-20.5 -98.5t-6.5 -91.5q0 -92 22 -130t61 -38zM432 607q-29 0 -49.5 9.5t-37.5 22.5t-37 23t-49 10q-22 0 -35.5 -8.5t-22 -21t-14.5 -26.5h-10q9 33 26 61t43.5 46t62.5 18q29 0 48.5 -10t37 -23t38 -22.5t49.5 -9.5q32 0 46 17t24 38
h10q-8 -31 -24.5 -59.5t-43 -46.5t-62.5 -18z" />
    <glyph glyph-name="odieresis" unicode="&#xf6;" horiz-adv-x="575" 
d="M235 -10q-88 0 -143 51.5t-55 156.5q0 44 11.5 92.5t36 94t60.5 82t85.5 58t112.5 21.5q54 0 98 -21t70.5 -67t26.5 -120q0 -43 -11.5 -90.5t-35 -93.5t-59 -82.5t-85 -59t-112.5 -22.5zM237 0q40 0 69.5 24t51.5 64.5t36 89t20.5 98t6.5 92.5q0 62 -9 99t-27 53t-48 16
q-38 0 -68 -24.5t-52 -64.5t-36 -89t-20.5 -98.5t-6.5 -91.5q0 -92 22 -130t61 -38zM472 629q-21 0 -34 13t-13 40q0 20 6 35t18 23.5t27 8.5q20 0 33 -13t13 -40q0 -37 -16 -52t-34 -15zM277 629q-21 0 -33.5 13t-12.5 40q0 20 6 35t17.5 23.5t26.5 8.5q20 0 33 -13t13 -40
q0 -37 -16 -52t-34 -15z" />
    <glyph glyph-name="divide" unicode="&#xf7;" horiz-adv-x="559" 
d="M84 347v20h429v-20h-429zM299 144q-17 0 -29 9.5t-12 32.5q0 25 12 34t29 9t29 -9t12 -34q0 -23 -12 -32.5t-29 -9.5zM299 486q-17 0 -29 9.5t-12 33.5t12 33t29 9t29 -9t12 -33t-12 -33.5t-29 -9.5z" />
    <glyph glyph-name="oslash" unicode="&#xf8;" horiz-adv-x="586" 
d="M15 -50l548 636h11l-548 -636h-11zM235 -10q-88 0 -143 51.5t-55 156.5q0 44 11.5 92.5t36 94t60.5 82t85.5 58t112.5 21.5q54 0 98 -21t70.5 -67t26.5 -120q0 -43 -11.5 -90.5t-35 -93.5t-59 -82.5t-85 -59t-112.5 -22.5zM237 0q40 0 69.5 24t51.5 64.5t36 89t20.5 98
t6.5 92.5q0 62 -9 99t-27 53t-48 16q-38 0 -68 -24.5t-52 -64.5t-36 -89t-20.5 -98.5t-6.5 -91.5q0 -92 22 -130t61 -38z" />
    <glyph glyph-name="ugrave" unicode="&#xf9;" horiz-adv-x="622" 
d="M469 -10q-30 0 -51 13t-31 34.5t-10 47.5q0 7 0.5 18t2 23t2.5 22h-4q-24 -47 -53 -82.5t-65 -55t-82 -19.5q-40 0 -64 15.5t-34.5 41t-10.5 54.5q0 25 6 55t12 55l45 210q3 16 6 34t3 26q0 28 -18 36t-47 8h-11l2 10h200l-68 -310q-4 -18 -8.5 -40.5t-7.5 -44t-3 -35.5
q0 -38 12 -61t43 -23q23 0 47.5 18t46.5 46.5t38 61t22 61.5l70 327h113l-72 -334q-2 -12 -6 -32t-6 -40t-2 -34q0 -36 11 -54t32 -18q18 0 34.5 8.5t35.5 24.5l5 -7q-22 -21 -57 -40.5t-78 -19.5zM435 606q-18 14 -40 34t-43.5 41.5t-39.5 41t-27 33.5l2 10h99
q6 -22 16.5 -49.5t22.5 -53.5t22 -48l-2 -9h-10z" />
    <glyph glyph-name="uacute" unicode="&#xfa;" horiz-adv-x="622" 
d="M469 -10q-30 0 -51 13t-31 34.5t-10 47.5q0 7 0.5 18t2 23t2.5 22h-4q-24 -47 -53 -82.5t-65 -55t-82 -19.5q-40 0 -64 15.5t-34.5 41t-10.5 54.5q0 25 6 55t12 55l45 210q3 16 6 34t3 26q0 28 -18 36t-47 8h-11l2 10h200l-68 -310q-4 -18 -8.5 -40.5t-7.5 -44t-3 -35.5
q0 -38 12 -61t43 -23q23 0 47.5 18t46.5 46.5t38 61t22 61.5l70 327h113l-72 -334q-2 -12 -6 -32t-6 -40t-2 -34q0 -36 11 -54t32 -18q18 0 34.5 8.5t35.5 24.5l5 -7q-22 -21 -57 -40.5t-78 -19.5zM330 606q17 22 35.5 48t36 53t31.5 49h104l-3 -10q-12 -13 -35 -32
t-50.5 -41t-56 -42t-52.5 -35h-12z" />
    <glyph glyph-name="ucircumflex" unicode="&#xfb;" horiz-adv-x="622" 
d="M469 -10q-30 0 -51 13t-31 34.5t-10 47.5q0 7 0.5 18t2 23t2.5 22h-4q-24 -47 -53 -82.5t-65 -55t-82 -19.5q-40 0 -64 15.5t-34.5 41t-10.5 54.5q0 25 6 55t12 55l45 210q3 16 6 34t3 26q0 28 -18 36t-47 8h-11l2 10h200l-68 -310q-4 -18 -8.5 -40.5t-7.5 -44t-3 -35.5
q0 -38 12 -61t43 -23q23 0 47.5 18t46.5 46.5t38 61t22 61.5l70 327h113l-72 -334q-2 -12 -6 -32t-6 -40t-2 -34q0 -36 11 -54t32 -18q18 0 34.5 8.5t35.5 24.5l5 -7q-22 -21 -57 -40.5t-78 -19.5zM226 615q22 21 49 47t52.5 53.5t42.5 50.5h84q8 -22 21.5 -50t29.5 -54.5
t28 -46.5l-1 -9h-10q-35 20 -65.5 47.5t-52.5 52.5q-23 -17 -51.5 -35.5t-58.5 -35t-59 -29.5h-11z" />
    <glyph glyph-name="udieresis" unicode="&#xfc;" horiz-adv-x="622" 
d="M469 -10q-30 0 -51 13t-31 34.5t-10 47.5q0 7 0.5 18t2 23t2.5 22h-4q-24 -47 -53 -82.5t-65 -55t-82 -19.5q-40 0 -64 15.5t-34.5 41t-10.5 54.5q0 25 6 55t12 55l45 210q3 16 6 34t3 26q0 28 -18 36t-47 8h-11l2 10h200l-68 -310q-4 -18 -8.5 -40.5t-7.5 -44t-3 -35.5
q0 -38 12 -61t43 -23q23 0 47.5 18t46.5 46.5t38 61t22 61.5l70 327h113l-72 -334q-2 -12 -6 -32t-6 -40t-2 -34q0 -36 11 -54t32 -18q18 0 34.5 8.5t35.5 24.5l5 -7q-22 -21 -57 -40.5t-78 -19.5zM490 629q-21 0 -34 13t-13 40q0 20 6 35t18 23.5t27 8.5q20 0 33 -13
t13 -40q0 -37 -16 -52t-34 -15zM295 629q-21 0 -33.5 13t-12.5 40q0 20 6 35t17.5 23.5t26.5 8.5q20 0 33 -13t13 -40q0 -37 -16 -52t-34 -15z" />
    <glyph glyph-name="yacute" unicode="&#xfd;" horiz-adv-x="528" 
d="M-59 -240q-29 0 -55.5 5.5t-45.5 14.5l3 10q13 -4 35 -8t60 -4q47 0 88 9.5t77 28t67 46.5t57 64l-148 547q-8 30 -19 41.5t-38 11.5h-10l2 10h167l70 -286q5 -19 12 -50.5t15.5 -65.5t14.5 -62t8 -42h2q33 49 63 99t54 98t37.5 90t13.5 74q0 25 -10 42t-32 26t-58 9
q0 38 20.5 57.5t47.5 19.5q34 0 52 -21.5t18 -63.5q0 -53 -21.5 -116t-60.5 -134.5t-91 -149.5q-51 -76 -93 -132.5t-84.5 -93.5t-94.5 -55.5t-123 -18.5zM254 606q17 22 35.5 48t36 53t31.5 49h104l-3 -10q-12 -13 -35 -32t-50.5 -41t-56 -42t-52.5 -35h-12z" />
    <glyph glyph-name="thorn" unicode="&#xfe;" horiz-adv-x="579" 
d="M164 654q5 19 7 33t2 18q0 28 -18.5 36.5t-47.5 8.5h-11l2 10h199l-52 -244q-4 -19 -9 -38t-10 -37.5t-11 -38.5h3q20 39 45 72t59.5 52.5t80.5 19.5q42 0 71.5 -20.5t45.5 -61t16 -100.5q0 -43 -11.5 -93t-35 -100t-59.5 -91t-84.5 -65.5t-110.5 -24.5q-31 0 -54 7.5
t-42 21.5q-3 -15 -5 -26t-6 -28l-21 -98q-2 -7 -5.5 -25t-3.5 -28q0 -29 19.5 -36.5t47.5 -7.5h18l-1 -10h-207zM225 2q37 0 67.5 24t54 63.5t40 88.5t25 98.5t8.5 92.5q0 39 -5.5 72t-20 53t-42.5 20q-26 0 -49.5 -17.5t-42.5 -44t-31.5 -54.5t-17.5 -49l-68 -319
q11 -9 30.5 -18.5t51.5 -9.5z" />
    <glyph glyph-name="ydieresis" unicode="&#xff;" horiz-adv-x="528" 
d="M-59 -240q-29 0 -55.5 5.5t-45.5 14.5l3 10q13 -4 35 -8t60 -4q47 0 88 9.5t77 28t67 46.5t57 64l-148 547q-8 30 -19 41.5t-38 11.5h-10l2 10h167l70 -286q5 -19 12 -50.5t15.5 -65.5t14.5 -62t8 -42h2q33 49 63 99t54 98t37.5 90t13.5 74q0 25 -10 42t-32 26t-58 9
q0 38 20.5 57.5t47.5 19.5q34 0 52 -21.5t18 -63.5q0 -53 -21.5 -116t-60.5 -134.5t-91 -149.5q-51 -76 -93 -132.5t-84.5 -93.5t-94.5 -55.5t-123 -18.5zM414 629q-21 0 -34 13t-13 40q0 20 6 35t18 23.5t27 8.5q20 0 33 -13t13 -40q0 -37 -16 -52t-34 -15zM219 629
q-21 0 -33.5 13t-12.5 40q0 20 6 35t17.5 23.5t26.5 8.5q20 0 33 -13t13 -40q0 -37 -16 -52t-34 -15z" />
    <glyph glyph-name="Amacron" unicode="&#x100;" horiz-adv-x="710" 
d="M-61 0l2 10h24q20 0 34 6t27.5 22.5t32.5 49.5l358 626h74l92 -645q3 -24 9.5 -36.5t18.5 -17.5t31 -5h12l-2 -10h-288l2 10h25q38 0 57 12.5t19 36.5q0 8 -0.5 17t-1.5 16l-46 380q-4 30 -8.5 66.5t-7.5 70.5t-5 55q-7 -16 -19.5 -38t-27 -47l-29 -50t-27.5 -48
l-217 -379q-11 -20 -15.5 -33.5t-4.5 -24.5q0 -18 14 -26t43 -8h65l-2 -10h-239zM162 260l4 10h340v-10h-344zM316 807l4 20h290l-4 -20h-290z" />
    <glyph glyph-name="amacron" unicode="&#x101;" horiz-adv-x="597" 
d="M168 -10q-46 0 -76.5 23.5t-45 65.5t-14.5 96q0 46 12.5 97t37 99t61 88t85 63.5t108.5 23.5q40 0 63.5 -11t41.5 -28l67 28h34l-69 -327q-2 -13 -6 -33t-6.5 -41t-2.5 -36q0 -37 10.5 -56t29.5 -19q18 0 37 10t39 25l6 -8q-16 -14 -39.5 -28t-51 -23t-55.5 -9
q-38 0 -61 22.5t-23 64.5q0 22 2 39.5t6 39.5h-1q-34 -82 -81 -124t-108 -42zM215 20q26 0 50 19.5t44 49t33.5 62t19.5 58.5l61 293q-10 16 -29.5 24t-41.5 8q-39 0 -71.5 -24.5t-57.5 -65.5t-41.5 -90.5t-25 -99t-8.5 -91.5q0 -53 9 -84t24 -45t34 -14zM225 629l4 20h290
l-4 -20h-290z" />
    <glyph glyph-name="Abreve" unicode="&#x102;" horiz-adv-x="710" 
d="M-61 0l2 10h24q20 0 34 6t27.5 22.5t32.5 49.5l358 626h74l92 -645q3 -24 9.5 -36.5t18.5 -17.5t31 -5h12l-2 -10h-288l2 10h25q38 0 57 12.5t19 36.5q0 8 -0.5 17t-1.5 16l-46 380q-4 30 -8.5 66.5t-7.5 70.5t-5 55q-7 -16 -19.5 -38t-27 -47l-29 -50t-27.5 -48
l-217 -379q-11 -20 -15.5 -33.5t-4.5 -24.5q0 -18 14 -26t43 -8h65l-2 -10h-239zM162 260l4 10h340v-10h-344zM452 784q-63 0 -94.5 37.5t-35.5 105.5h10q6 -34 39.5 -53t87.5 -19q37 0 65 7.5t49 23.5t34 41h10q-8 -39 -30 -72t-55.5 -52t-79.5 -19z" />
    <glyph glyph-name="abreve" unicode="&#x103;" horiz-adv-x="597" 
d="M168 -10q-46 0 -76.5 23.5t-45 65.5t-14.5 96q0 46 12.5 97t37 99t61 88t85 63.5t108.5 23.5q40 0 63.5 -11t41.5 -28l67 28h34l-69 -327q-2 -13 -6 -33t-6.5 -41t-2.5 -36q0 -37 10.5 -56t29.5 -19q18 0 37 10t39 25l6 -8q-16 -14 -39.5 -28t-51 -23t-55.5 -9
q-38 0 -61 22.5t-23 64.5q0 22 2 39.5t6 39.5h-1q-34 -82 -81 -124t-108 -42zM215 20q26 0 50 19.5t44 49t33.5 62t19.5 58.5l61 293q-10 16 -29.5 24t-41.5 8q-39 0 -71.5 -24.5t-57.5 -65.5t-41.5 -90.5t-25 -99t-8.5 -91.5q0 -53 9 -84t24 -45t34 -14zM360 606
q-63 0 -94.5 37.5t-35.5 105.5h10q6 -34 39.5 -53t87.5 -19q37 0 65 7.5t49 23.5t34 41h10q-8 -39 -30 -72t-55.5 -52t-79.5 -19z" />
    <glyph glyph-name="Aogonek" unicode="&#x104;" horiz-adv-x="710" 
d="M-61 0l2 10h24q20 0 34 6t27.5 22.5t32.5 49.5l358 626h74l92 -645q3 -24 9.5 -36.5t18.5 -17.5t31 -5h12l-2 -10h-288l2 10h25q38 0 57 12.5t19 36.5q0 8 -0.5 17t-1.5 16l-46 380q-4 30 -8.5 66.5t-7.5 70.5t-5 55q-7 -16 -19.5 -38t-27 -47l-29 -50t-27.5 -48
l-217 -379q-11 -20 -15.5 -33.5t-4.5 -24.5q0 -18 14 -26t43 -8h65l-2 -10h-239zM162 260l4 10h340v-10h-344zM473 -239q-54 0 -85 23.5t-31 65.5q0 29 13.5 52t37.5 41.5t56 33t69 25.5h21q-28 -12 -52 -30.5t-39 -49t-15 -79.5q0 -32 15.5 -49.5t42.5 -17.5q9 0 24 3t32 9
l-2 -10q-17 -7 -40 -12t-47 -5z" />
    <glyph glyph-name="aogonek" unicode="&#x105;" horiz-adv-x="597" 
d="M168 -10q-46 0 -76.5 23.5t-45 65.5t-14.5 96q0 46 12.5 97t37 99t61 88t85 63.5t108.5 23.5q40 0 63.5 -11t41.5 -28l67 28h34l-69 -327q-2 -13 -6 -33t-6.5 -41t-2.5 -36q0 -37 10.5 -56t29.5 -19q18 0 37 10t39 25l6 -8q-16 -14 -39.5 -28t-51 -23t-55.5 -9
q-38 0 -61 22.5t-23 64.5q0 22 2 39.5t6 39.5h-1q-34 -82 -81 -124t-108 -42zM215 20q26 0 50 19.5t44 49t33.5 62t19.5 58.5l61 293q-10 16 -29.5 24t-41.5 8q-39 0 -71.5 -24.5t-57.5 -65.5t-41.5 -90.5t-25 -99t-8.5 -91.5q0 -53 9 -84t24 -45t34 -14zM397 -239
q-54 0 -85 23.5t-31 65.5q0 29 13.5 52t37.5 41.5t56 33t69 25.5h21q-28 -12 -52 -30.5t-39 -49t-15 -79.5q0 -32 15.5 -49.5t42.5 -17.5q9 0 24 3t32 9l-2 -10q-17 -7 -40 -12t-47 -5z" />
    <glyph glyph-name="Cacute" unicode="&#x106;" horiz-adv-x="645" 
d="M345 -10q-89 0 -152.5 32t-97 93t-33.5 149q0 66 17.5 132t52 125.5t84.5 105t116 72t147 26.5q94 0 143 -31t49 -81q0 -39 -29.5 -60.5t-75.5 -21.5q0 32 -1 64.5t-9.5 59.5t-28 43.5t-55.5 16.5q-51 0 -94.5 -27t-79 -73.5t-60 -106.5t-38 -127t-13.5 -133
q0 -82 19.5 -137t58 -82.5t96.5 -27.5q51 0 84.5 18.5t56 52.5t38.5 79q9 -3 15 -12.5t6 -20.5q0 -28 -23 -58t-70.5 -50t-122.5 -20zM445 784q17 22 35.5 48t36 53t31.5 49h104l-3 -10q-12 -13 -35 -32t-50.5 -41t-56 -42t-52.5 -35h-12z" />
    <glyph glyph-name="cacute" unicode="&#x107;" horiz-adv-x="491" 
d="M243 -10q-62 0 -108 23t-71.5 69.5t-25.5 117.5q0 43 11 90.5t33.5 92.5t58.5 82t85.5 59t113.5 22q54 0 88 -14t50 -36.5t16 -48.5q0 -20 -11 -37t-33.5 -27t-57.5 -10q1 10 1.5 21.5t0.5 23.5q0 56 -15 86.5t-50 30.5q-32 0 -59 -22t-48.5 -60t-36 -84.5t-22.5 -94
t-8 -89.5q0 -90 25.5 -136.5t80.5 -46.5q36 0 62 15.5t44.5 45t31.5 68.5q9 -3 15 -11t6 -18q0 -23 -18.5 -49t-57 -44.5t-101.5 -18.5zM293 606q17 22 35.5 48t36 53t31.5 49h104l-3 -10q-12 -13 -35 -32t-50.5 -41t-56 -42t-52.5 -35h-12z" />
    <glyph glyph-name="Ccircumflex" unicode="&#x108;" horiz-adv-x="645" 
d="M345 -10q-89 0 -152.5 32t-97 93t-33.5 149q0 66 17.5 132t52 125.5t84.5 105t116 72t147 26.5q94 0 143 -31t49 -81q0 -39 -29.5 -60.5t-75.5 -21.5q0 32 -1 64.5t-9.5 59.5t-28 43.5t-55.5 16.5q-51 0 -94.5 -27t-79 -73.5t-60 -106.5t-38 -127t-13.5 -133
q0 -82 19.5 -137t58 -82.5t96.5 -27.5q51 0 84.5 18.5t56 52.5t38.5 79q9 -3 15 -12.5t6 -20.5q0 -28 -23 -58t-70.5 -50t-122.5 -20zM341 793q22 21 49 47t52.5 53.5t42.5 50.5h84q8 -22 21.5 -50t29.5 -54.5t28 -46.5l-1 -9h-10q-35 20 -65.5 47.5t-52.5 52.5
q-23 -17 -51.5 -35.5t-58.5 -35t-59 -29.5h-11z" />
    <glyph glyph-name="ccircumflex" unicode="&#x109;" horiz-adv-x="491" 
d="M243 -10q-62 0 -108 23t-71.5 69.5t-25.5 117.5q0 43 11 90.5t33.5 92.5t58.5 82t85.5 59t113.5 22q54 0 88 -14t50 -36.5t16 -48.5q0 -20 -11 -37t-33.5 -27t-57.5 -10q1 10 1.5 21.5t0.5 23.5q0 56 -15 86.5t-50 30.5q-32 0 -59 -22t-48.5 -60t-36 -84.5t-22.5 -94
t-8 -89.5q0 -90 25.5 -136.5t80.5 -46.5q36 0 62 15.5t44.5 45t31.5 68.5q9 -3 15 -11t6 -18q0 -23 -18.5 -49t-57 -44.5t-101.5 -18.5zM189 615q22 21 49 47t52.5 53.5t42.5 50.5h84q8 -22 21.5 -50t29.5 -54.5t28 -46.5l-1 -9h-10q-35 20 -65.5 47.5t-52.5 52.5
q-23 -17 -51.5 -35.5t-58.5 -35t-59 -29.5h-11z" />
    <glyph glyph-name="Cdot" unicode="&#x10a;" horiz-adv-x="645" 
d="M345 -10q-89 0 -152.5 32t-97 93t-33.5 149q0 66 17.5 132t52 125.5t84.5 105t116 72t147 26.5q94 0 143 -31t49 -81q0 -39 -29.5 -60.5t-75.5 -21.5q0 32 -1 64.5t-9.5 59.5t-28 43.5t-55.5 16.5q-51 0 -94.5 -27t-79 -73.5t-60 -106.5t-38 -127t-13.5 -133
q0 -82 19.5 -137t58 -82.5t96.5 -27.5q51 0 84.5 18.5t56 52.5t38.5 79q9 -3 15 -12.5t6 -20.5q0 -28 -23 -58t-70.5 -50t-122.5 -20zM508 811q-22 0 -37 12.5t-15 40.5q0 24 7.5 39.5t21 22.5t30.5 7q22 0 37 -11t15 -42q0 -38 -18.5 -53.5t-40.5 -15.5z" />
    <glyph glyph-name="cdot" unicode="&#x10b;" horiz-adv-x="491" 
d="M243 -10q-62 0 -108 23t-71.5 69.5t-25.5 117.5q0 43 11 90.5t33.5 92.5t58.5 82t85.5 59t113.5 22q54 0 88 -14t50 -36.5t16 -48.5q0 -20 -11 -37t-33.5 -27t-57.5 -10q1 10 1.5 21.5t0.5 23.5q0 56 -15 86.5t-50 30.5q-32 0 -59 -22t-48.5 -60t-36 -84.5t-22.5 -94
t-8 -89.5q0 -90 25.5 -136.5t80.5 -46.5q36 0 62 15.5t44.5 45t31.5 68.5q9 -3 15 -11t6 -18q0 -23 -18.5 -49t-57 -44.5t-101.5 -18.5zM356 633q-22 0 -37 12.5t-15 40.5q0 24 7.5 39.5t21 22.5t30.5 7q22 0 37 -11t15 -42q0 -38 -18.5 -53.5t-40.5 -15.5z" />
    <glyph glyph-name="Ccaron" unicode="&#x10c;" horiz-adv-x="645" 
d="M345 -10q-89 0 -152.5 32t-97 93t-33.5 149q0 66 17.5 132t52 125.5t84.5 105t116 72t147 26.5q94 0 143 -31t49 -81q0 -39 -29.5 -60.5t-75.5 -21.5q0 32 -1 64.5t-9.5 59.5t-28 43.5t-55.5 16.5q-51 0 -94.5 -27t-79 -73.5t-60 -106.5t-38 -127t-13.5 -133
q0 -82 19.5 -137t58 -82.5t96.5 -27.5q51 0 84.5 18.5t56 52.5t38.5 79q9 -3 15 -12.5t6 -20.5q0 -28 -23 -58t-70.5 -50t-122.5 -20zM454 784q-8 24 -22 51.5t-29 54t-28 45.5l2 9h10q33 -21 64.5 -48t53.5 -53q22 17 51 35.5t59.5 35.5t58.5 30h10l-1 -9
q-33 -31 -74 -72.5t-70 -78.5h-85z" />
    <glyph glyph-name="ccaron" unicode="&#x10d;" horiz-adv-x="491" 
d="M243 -10q-62 0 -108 23t-71.5 69.5t-25.5 117.5q0 43 11 90.5t33.5 92.5t58.5 82t85.5 59t113.5 22q54 0 88 -14t50 -36.5t16 -48.5q0 -20 -11 -37t-33.5 -27t-57.5 -10q1 10 1.5 21.5t0.5 23.5q0 56 -15 86.5t-50 30.5q-32 0 -59 -22t-48.5 -60t-36 -84.5t-22.5 -94
t-8 -89.5q0 -90 25.5 -136.5t80.5 -46.5q36 0 62 15.5t44.5 45t31.5 68.5q9 -3 15 -11t6 -18q0 -23 -18.5 -49t-57 -44.5t-101.5 -18.5zM302 606q-8 24 -22 51.5t-29 54t-28 45.5l2 9h10q33 -21 64.5 -48t53.5 -53q22 17 51 35.5t59.5 35.5t58.5 30h10l-1 -9
q-33 -31 -74 -72.5t-70 -78.5h-85z" />
    <glyph glyph-name="Dcaron" unicode="&#x10e;" horiz-adv-x="737" 
d="M-22 0l3 10h13q33 0 60 12t36 57l117 556q2 8 3.5 16.5t1.5 14.5q0 25 -21.5 31.5t-50.5 6.5h-13l2 10h291q140 0 215 -69.5t75 -202.5q0 -69 -16.5 -134.5t-49 -121.5t-82 -97.5t-115 -65t-148.5 -23.5h-321zM266 11q63 0 113.5 22.5t88.5 63.5t64 97.5t39 124.5t13 144
q0 85 -20 138t-59 78t-98 25h-69l-147 -693h75zM440 784q-8 24 -22 51.5t-29 54t-28 45.5l2 9h10q33 -21 64.5 -48t53.5 -53q22 17 51 35.5t59.5 35.5t58.5 30h10l-1 -9q-33 -31 -74 -72.5t-70 -78.5h-85z" />
    <glyph glyph-name="dcaron" unicode="&#x10f;" horiz-adv-x="597" 
d="M627 613q20 36 34.5 72.5t27.5 74.5h86l-2 -10q-15 -21 -38 -47.5t-48.5 -53t-50.5 -49.5h-11zM166 -10q-44 0 -74 23.5t-45 65.5t-15 98q0 45 12 95.5t36.5 98.5t60.5 88t84.5 63.5t108.5 23.5q29 0 53 -6t43 -17q2 13 5 27.5t6 28.5l18 81q3 14 5.5 27t2.5 23
q0 24 -16.5 32t-46.5 8h-14l2 10h199l-117 -548q-2 -12 -6.5 -34t-7 -44t-2.5 -36q0 -36 10 -55t31 -19q18 0 38 10.5t38 23.5l5 -8q-16 -14 -39.5 -28t-51 -23t-54.5 -9q-39 0 -61.5 22.5t-22.5 63.5q0 17 2.5 37t6.5 43h-3q-23 -56 -52 -92.5t-64 -55t-75 -18.5zM215 19
q24 0 46.5 17t42.5 44t34.5 58.5t20.5 60.5l67 310q-13 10 -33 17.5t-44 7.5q-39 0 -70.5 -24t-55.5 -65t-40.5 -90t-25 -99.5t-8.5 -94.5q0 -51 8.5 -82t24 -45.5t33.5 -14.5z" />
    <glyph glyph-name="Dcroat" unicode="&#x110;" horiz-adv-x="737" 
d="M59 371l2 10h366l-2 -10h-366zM-22 0l3 10h13q33 0 60 12t36 57l117 556q2 8 3.5 16.5t1.5 14.5q0 25 -21.5 31.5t-50.5 6.5h-13l2 10h291q140 0 215 -69.5t75 -202.5q0 -69 -16.5 -134.5t-49 -121.5t-82 -97.5t-115 -65t-148.5 -23.5h-321zM266 11q63 0 113.5 22.5
t88.5 63.5t64 97.5t39 124.5t13 144q0 85 -20 138t-59 78t-98 25h-69l-147 -693h75z" />
    <glyph glyph-name="dcroat" unicode="&#x111;" horiz-adv-x="597" 
d="M295 631l2 10h369l-2 -10h-369zM166 -10q-44 0 -74 23.5t-45 65.5t-15 98q0 45 12 95.5t36.5 98.5t60.5 88t84.5 63.5t108.5 23.5q29 0 53 -6t43 -17q2 13 5 27.5t6 28.5l18 81q3 14 5.5 27t2.5 23q0 24 -16.5 32t-46.5 8h-14l2 10h199l-117 -548q-2 -12 -6.5 -34t-7 -44
t-2.5 -36q0 -36 10 -55t31 -19q18 0 38 10.5t38 23.5l5 -8q-16 -14 -39.5 -28t-51 -23t-54.5 -9q-39 0 -61.5 22.5t-22.5 63.5q0 17 2.5 37t6.5 43h-3q-23 -56 -52 -92.5t-64 -55t-75 -18.5zM215 19q24 0 46.5 17t42.5 44t34.5 58.5t20.5 60.5l67 310q-13 10 -33 17.5
t-44 7.5q-39 0 -70.5 -24t-55.5 -65t-40.5 -90t-25 -99.5t-8.5 -94.5q0 -51 8.5 -82t24 -45.5t33.5 -14.5z" />
    <glyph glyph-name="Emacron" unicode="&#x112;" horiz-adv-x="625" 
d="M-21 0l2 10h13q32 0 58.5 11t35.5 54l119 559q2 7 3 13.5t1 11.5q0 30 -20.5 37.5t-50.5 7.5h-13l2 10h515l-33 -178h-10q2 7 3 18t2.5 23.5t1.5 21.5q0 29 -6 52.5t-25 38t-57 14.5h-182l-68 -324h237l-2 -10h-237l-77 -360h205q35 0 59.5 10t41.5 27.5t28.5 39.5
t19.5 47l15 44h10l-45 -178h-546zM299 807l4 20h290l-4 -20h-290z" />
    <glyph glyph-name="emacron" unicode="&#x113;" horiz-adv-x="491" 
d="M240 -10q-58 0 -104 23t-72.5 68.5t-26.5 115.5q0 43 12 91t36 94t60.5 83t86.5 59t113 22q66 0 102.5 -30t36.5 -86q0 -49 -37.5 -90t-103 -66.5t-149.5 -25.5h-35q-1 -8 -2.5 -19t-2 -21.5t-0.5 -19.5q0 -61 11.5 -103t34 -63.5t53.5 -21.5q58 0 92.5 37t52.5 94
q10 -3 15.5 -11t5.5 -22q0 -20 -19 -45.5t-58.5 -44t-101.5 -18.5zM185 258q42 0 76.5 13t58.5 37.5t37.5 58.5t13.5 75q0 47 -13.5 69.5t-39.5 22.5q-29 0 -53.5 -23t-45 -63t-35 -89.5t-23.5 -100.5h24zM205 629l4 20h290l-4 -20h-290z" />
    <glyph glyph-name="Ebreve" unicode="&#x114;" horiz-adv-x="625" 
d="M-21 0l2 10h13q32 0 58.5 11t35.5 54l119 559q2 7 3 13.5t1 11.5q0 30 -20.5 37.5t-50.5 7.5h-13l2 10h515l-33 -178h-10q2 7 3 18t2.5 23.5t1.5 21.5q0 29 -6 52.5t-25 38t-57 14.5h-182l-68 -324h237l-2 -10h-237l-77 -360h205q35 0 59.5 10t41.5 27.5t28.5 39.5
t19.5 47l15 44h10l-45 -178h-546zM434 784q-63 0 -94.5 37.5t-35.5 105.5h10q6 -34 39.5 -53t87.5 -19q37 0 65 7.5t49 23.5t34 41h10q-8 -39 -30 -72t-55.5 -52t-79.5 -19z" />
    <glyph glyph-name="ebreve" unicode="&#x115;" horiz-adv-x="491" 
d="M240 -10q-58 0 -104 23t-72.5 68.5t-26.5 115.5q0 43 12 91t36 94t60.5 83t86.5 59t113 22q66 0 102.5 -30t36.5 -86q0 -49 -37.5 -90t-103 -66.5t-149.5 -25.5h-35q-1 -8 -2.5 -19t-2 -21.5t-0.5 -19.5q0 -61 11.5 -103t34 -63.5t53.5 -21.5q58 0 92.5 37t52.5 94
q10 -3 15.5 -11t5.5 -22q0 -20 -19 -45.5t-58.5 -44t-101.5 -18.5zM185 258q42 0 76.5 13t58.5 37.5t37.5 58.5t13.5 75q0 47 -13.5 69.5t-39.5 22.5q-29 0 -53.5 -23t-45 -63t-35 -89.5t-23.5 -100.5h24zM340 606q-63 0 -94.5 37.5t-35.5 105.5h10q6 -34 39.5 -53t87.5 -19
q37 0 65 7.5t49 23.5t34 41h10q-8 -39 -30 -72t-55.5 -52t-79.5 -19z" />
    <glyph glyph-name="Edotaccent" unicode="&#x116;" horiz-adv-x="625" 
d="M-21 0l2 10h13q32 0 58.5 11t35.5 54l119 559q2 7 3 13.5t1 11.5q0 30 -20.5 37.5t-50.5 7.5h-13l2 10h515l-33 -178h-10q2 7 3 18t2.5 23.5t1.5 21.5q0 29 -6 52.5t-25 38t-57 14.5h-182l-68 -324h237l-2 -10h-237l-77 -360h205q35 0 59.5 10t41.5 27.5t28.5 39.5
t19.5 47l15 44h10l-45 -178h-546zM453 811q-22 0 -37 12.5t-15 40.5q0 24 7.5 39.5t21 22.5t30.5 7q22 0 37 -11t15 -42q0 -38 -18.5 -53.5t-40.5 -15.5z" />
    <glyph glyph-name="edotaccent" unicode="&#x117;" horiz-adv-x="491" 
d="M240 -10q-58 0 -104 23t-72.5 68.5t-26.5 115.5q0 43 12 91t36 94t60.5 83t86.5 59t113 22q66 0 102.5 -30t36.5 -86q0 -49 -37.5 -90t-103 -66.5t-149.5 -25.5h-35q-1 -8 -2.5 -19t-2 -21.5t-0.5 -19.5q0 -61 11.5 -103t34 -63.5t53.5 -21.5q58 0 92.5 37t52.5 94
q10 -3 15.5 -11t5.5 -22q0 -20 -19 -45.5t-58.5 -44t-101.5 -18.5zM185 258q42 0 76.5 13t58.5 37.5t37.5 58.5t13.5 75q0 47 -13.5 69.5t-39.5 22.5q-29 0 -53.5 -23t-45 -63t-35 -89.5t-23.5 -100.5h24zM359 633q-22 0 -37 12.5t-15 40.5q0 24 7.5 39.5t21 22.5t30.5 7
q22 0 37 -11t15 -42q0 -38 -18.5 -53.5t-40.5 -15.5z" />
    <glyph glyph-name="Eogonek" unicode="&#x118;" horiz-adv-x="625" 
d="M-21 0l2 10h13q32 0 58.5 11t35.5 54l119 559q2 7 3 13.5t1 11.5q0 30 -20.5 37.5t-50.5 7.5h-13l2 10h515l-33 -178h-10q2 7 3 18t2.5 23.5t1.5 21.5q0 29 -6 52.5t-25 38t-57 14.5h-182l-68 -324h237l-2 -10h-237l-77 -360h205q35 0 59.5 10t41.5 27.5t28.5 39.5
t19.5 47l15 44h10l-45 -178h-546zM380 -239q-54 0 -85 23.5t-31 65.5q0 29 13.5 52t37.5 41.5t56 33t69 25.5h21q-28 -12 -52 -30.5t-39 -49t-15 -79.5q0 -32 15.5 -49.5t42.5 -17.5q9 0 24 3t32 9l-2 -10q-17 -7 -40 -12t-47 -5z" />
    <glyph glyph-name="eogonek" unicode="&#x119;" horiz-adv-x="491" 
d="M240 -10q-58 0 -104 23t-72.5 68.5t-26.5 115.5q0 43 12 91t36 94t60.5 83t86.5 59t113 22q66 0 102.5 -30t36.5 -86q0 -49 -37.5 -90t-103 -66.5t-149.5 -25.5h-35q-1 -8 -2.5 -19t-2 -21.5t-0.5 -19.5q0 -61 11.5 -103t34 -63.5t53.5 -21.5q58 0 92.5 37t52.5 94
q10 -3 15.5 -11t5.5 -22q0 -20 -19 -45.5t-58.5 -44t-101.5 -18.5zM185 258q42 0 76.5 13t58.5 37.5t37.5 58.5t13.5 75q0 47 -13.5 69.5t-39.5 22.5q-29 0 -53.5 -23t-45 -63t-35 -89.5t-23.5 -100.5h24zM275 -224q-54 0 -85 23.5t-31 65.5q0 29 13.5 52t37.5 41.5t56 33
t69 25.5h21q-28 -12 -52 -30.5t-39 -49t-15 -79.5q0 -32 15.5 -49.5t42.5 -17.5q9 0 24 3t32 9l-2 -10q-17 -7 -40 -12t-47 -5z" />
    <glyph glyph-name="Ecaron" unicode="&#x11a;" horiz-adv-x="625" 
d="M-21 0l2 10h13q32 0 58.5 11t35.5 54l119 559q2 7 3 13.5t1 11.5q0 30 -20.5 37.5t-50.5 7.5h-13l2 10h515l-33 -178h-10q2 7 3 18t2.5 23.5t1.5 21.5q0 29 -6 52.5t-25 38t-57 14.5h-182l-68 -324h237l-2 -10h-237l-77 -360h205q35 0 59.5 10t41.5 27.5t28.5 39.5
t19.5 47l15 44h10l-45 -178h-546zM399 784q-8 24 -22 51.5t-29 54t-28 45.5l2 9h10q33 -21 64.5 -48t53.5 -53q22 17 51 35.5t59.5 35.5t58.5 30h10l-1 -9q-33 -31 -74 -72.5t-70 -78.5h-85z" />
    <glyph glyph-name="ecaron" unicode="&#x11b;" horiz-adv-x="491" 
d="M240 -10q-58 0 -104 23t-72.5 68.5t-26.5 115.5q0 43 12 91t36 94t60.5 83t86.5 59t113 22q66 0 102.5 -30t36.5 -86q0 -49 -37.5 -90t-103 -66.5t-149.5 -25.5h-35q-1 -8 -2.5 -19t-2 -21.5t-0.5 -19.5q0 -61 11.5 -103t34 -63.5t53.5 -21.5q58 0 92.5 37t52.5 94
q10 -3 15.5 -11t5.5 -22q0 -20 -19 -45.5t-58.5 -44t-101.5 -18.5zM185 258q42 0 76.5 13t58.5 37.5t37.5 58.5t13.5 75q0 47 -13.5 69.5t-39.5 22.5q-29 0 -53.5 -23t-45 -63t-35 -89.5t-23.5 -100.5h24zM305 606q-8 24 -22 51.5t-29 54t-28 45.5l2 9h10q33 -21 64.5 -48
t53.5 -53q22 17 51 35.5t59.5 35.5t58.5 30h10l-1 -9q-33 -31 -74 -72.5t-70 -78.5h-85z" />
    <glyph glyph-name="Gcircumflex" unicode="&#x11c;" horiz-adv-x="736" 
d="M352 -10q-144 0 -217 73t-73 201q0 72 18.5 140.5t54.5 126.5t88.5 101t121 67.5t152.5 24.5q57 0 99 -8.5t68.5 -24t39.5 -35.5t13 -43q0 -28 -14.5 -46.5t-39 -27.5t-55.5 -9q0 58 -7.5 98.5t-33.5 63t-80 22.5q-42 0 -80.5 -17t-72 -48.5t-60.5 -74.5t-46.5 -96.5
t-30 -114.5t-10.5 -127q0 -73 15.5 -126t53.5 -81.5t104 -28.5q30 0 57.5 3.5t46.5 9.5l50 239q2 8 3.5 17t1.5 13q0 25 -21 31.5t-51 6.5h-10l2 10h284l-1 -10h-5q-19 0 -36.5 -4.5t-30.5 -19t-19 -45.5l-46 -215q-57 -23 -112.5 -34.5t-120.5 -11.5zM350 793q22 21 49 47
t52.5 53.5t42.5 50.5h84q8 -22 21.5 -50t29.5 -54.5t28 -46.5l-1 -9h-10q-35 20 -65.5 47.5t-52.5 52.5q-23 -17 -51.5 -35.5t-58.5 -35t-59 -29.5h-11z" />
    <glyph glyph-name="gcircumflex" unicode="&#x11d;" horiz-adv-x="563" 
d="M169 -240q-75 0 -124.5 14.5t-73.5 42.5t-24 68q0 39 23 66.5t65.5 43t101.5 17.5q-44 15 -60.5 37.5t-16.5 48.5q0 32 26.5 61t86.5 40q-41 15 -62.5 47t-21.5 80q0 35 13.5 73.5t42 72t73.5 54t105 20.5q35 0 63.5 -8.5t47.5 -25.5q13 19 29 35.5t36 26.5t43 10
q26 0 39 -13.5t13 -34.5q0 -23 -12.5 -43.5t-47.5 -20.5q0 26 -10 42.5t-34 16.5q-12 0 -25 -6.5t-23 -18.5q16 -17 26.5 -40t10.5 -56q0 -34 -13.5 -72.5t-42 -72t-72.5 -55t-105 -21.5q-9 0 -20.5 0.5t-22 2.5t-19.5 4q-27 -10 -41 -23.5t-14 -33.5t18.5 -27.5t51.5 -11.5
l93 -9q51 -5 86 -20.5t53.5 -43.5t18.5 -69q0 -42 -16.5 -78t-51 -63t-87.5 -42t-126 -15zM173 -230q63 0 102.5 20t58.5 52t19 69q0 42 -24.5 61.5t-76.5 24.5l-101 10q-47 -8 -80.5 -36.5t-33.5 -81.5q0 -52 30 -85.5t106 -33.5zM252 199q26 0 46 14.5t34.5 39.5t24 55
t14.5 61t5 58q0 38 -6 62t-18 35.5t-32 11.5q-27 0 -48 -14.5t-36.5 -38.5t-25.5 -53.5t-14.5 -59t-4.5 -54.5q0 -60 15.5 -88.5t45.5 -28.5zM190 615q22 21 49 47t52.5 53.5t42.5 50.5h84q8 -22 21.5 -50t29.5 -54.5t28 -46.5l-1 -9h-10q-35 20 -65.5 47.5t-52.5 52.5
q-23 -17 -51.5 -35.5t-58.5 -35t-59 -29.5h-11z" />
    <glyph glyph-name="Gbreve" unicode="&#x11e;" horiz-adv-x="736" 
d="M352 -10q-144 0 -217 73t-73 201q0 72 18.5 140.5t54.5 126.5t88.5 101t121 67.5t152.5 24.5q57 0 99 -8.5t68.5 -24t39.5 -35.5t13 -43q0 -28 -14.5 -46.5t-39 -27.5t-55.5 -9q0 58 -7.5 98.5t-33.5 63t-80 22.5q-42 0 -80.5 -17t-72 -48.5t-60.5 -74.5t-46.5 -96.5
t-30 -114.5t-10.5 -127q0 -73 15.5 -126t53.5 -81.5t104 -28.5q30 0 57.5 3.5t46.5 9.5l50 239q2 8 3.5 17t1.5 13q0 25 -21 31.5t-51 6.5h-10l2 10h284l-1 -10h-5q-19 0 -36.5 -4.5t-30.5 -19t-19 -45.5l-46 -215q-57 -23 -112.5 -34.5t-120.5 -11.5zM498 784
q-63 0 -94.5 37.5t-35.5 105.5h10q6 -34 39.5 -53t87.5 -19q37 0 65 7.5t49 23.5t34 41h10q-8 -39 -30 -72t-55.5 -52t-79.5 -19z" />
    <glyph glyph-name="gbreve" unicode="&#x11f;" horiz-adv-x="563" 
d="M169 -240q-75 0 -124.5 14.5t-73.5 42.5t-24 68q0 39 23 66.5t65.5 43t101.5 17.5q-44 15 -60.5 37.5t-16.5 48.5q0 32 26.5 61t86.5 40q-41 15 -62.5 47t-21.5 80q0 35 13.5 73.5t42 72t73.5 54t105 20.5q35 0 63.5 -8.5t47.5 -25.5q13 19 29 35.5t36 26.5t43 10
q26 0 39 -13.5t13 -34.5q0 -23 -12.5 -43.5t-47.5 -20.5q0 26 -10 42.5t-34 16.5q-12 0 -25 -6.5t-23 -18.5q16 -17 26.5 -40t10.5 -56q0 -34 -13.5 -72.5t-42 -72t-72.5 -55t-105 -21.5q-9 0 -20.5 0.5t-22 2.5t-19.5 4q-27 -10 -41 -23.5t-14 -33.5t18.5 -27.5t51.5 -11.5
l93 -9q51 -5 86 -20.5t53.5 -43.5t18.5 -69q0 -42 -16.5 -78t-51 -63t-87.5 -42t-126 -15zM173 -230q63 0 102.5 20t58.5 52t19 69q0 42 -24.5 61.5t-76.5 24.5l-101 10q-47 -8 -80.5 -36.5t-33.5 -81.5q0 -52 30 -85.5t106 -33.5zM252 199q26 0 46 14.5t34.5 39.5t24 55
t14.5 61t5 58q0 38 -6 62t-18 35.5t-32 11.5q-27 0 -48 -14.5t-36.5 -38.5t-25.5 -53.5t-14.5 -59t-4.5 -54.5q0 -60 15.5 -88.5t45.5 -28.5zM338 606q-63 0 -94.5 37.5t-35.5 105.5h10q6 -34 39.5 -53t87.5 -19q37 0 65 7.5t49 23.5t34 41h10q-8 -39 -30 -72t-55.5 -52
t-79.5 -19z" />
    <glyph glyph-name="Gdot" unicode="&#x120;" horiz-adv-x="736" 
d="M352 -10q-144 0 -217 73t-73 201q0 72 18.5 140.5t54.5 126.5t88.5 101t121 67.5t152.5 24.5q57 0 99 -8.5t68.5 -24t39.5 -35.5t13 -43q0 -28 -14.5 -46.5t-39 -27.5t-55.5 -9q0 58 -7.5 98.5t-33.5 63t-80 22.5q-42 0 -80.5 -17t-72 -48.5t-60.5 -74.5t-46.5 -96.5
t-30 -114.5t-10.5 -127q0 -73 15.5 -126t53.5 -81.5t104 -28.5q30 0 57.5 3.5t46.5 9.5l50 239q2 8 3.5 17t1.5 13q0 25 -21 31.5t-51 6.5h-10l2 10h284l-1 -10h-5q-19 0 -36.5 -4.5t-30.5 -19t-19 -45.5l-46 -215q-57 -23 -112.5 -34.5t-120.5 -11.5zM517 811
q-22 0 -37 12.5t-15 40.5q0 24 7.5 39.5t21 22.5t30.5 7q22 0 37 -11t15 -42q0 -38 -18.5 -53.5t-40.5 -15.5z" />
    <glyph glyph-name="gdot" unicode="&#x121;" horiz-adv-x="563" 
d="M169 -240q-75 0 -124.5 14.5t-73.5 42.5t-24 68q0 39 23 66.5t65.5 43t101.5 17.5q-44 15 -60.5 37.5t-16.5 48.5q0 32 26.5 61t86.5 40q-41 15 -62.5 47t-21.5 80q0 35 13.5 73.5t42 72t73.5 54t105 20.5q35 0 63.5 -8.5t47.5 -25.5q13 19 29 35.5t36 26.5t43 10
q26 0 39 -13.5t13 -34.5q0 -23 -12.5 -43.5t-47.5 -20.5q0 26 -10 42.5t-34 16.5q-12 0 -25 -6.5t-23 -18.5q16 -17 26.5 -40t10.5 -56q0 -34 -13.5 -72.5t-42 -72t-72.5 -55t-105 -21.5q-9 0 -20.5 0.5t-22 2.5t-19.5 4q-27 -10 -41 -23.5t-14 -33.5t18.5 -27.5t51.5 -11.5
l93 -9q51 -5 86 -20.5t53.5 -43.5t18.5 -69q0 -42 -16.5 -78t-51 -63t-87.5 -42t-126 -15zM173 -230q63 0 102.5 20t58.5 52t19 69q0 42 -24.5 61.5t-76.5 24.5l-101 10q-47 -8 -80.5 -36.5t-33.5 -81.5q0 -52 30 -85.5t106 -33.5zM252 199q26 0 46 14.5t34.5 39.5t24 55
t14.5 61t5 58q0 38 -6 62t-18 35.5t-32 11.5q-27 0 -48 -14.5t-36.5 -38.5t-25.5 -53.5t-14.5 -59t-4.5 -54.5q0 -60 15.5 -88.5t45.5 -28.5zM357 633q-22 0 -37 12.5t-15 40.5q0 24 7.5 39.5t21 22.5t30.5 7q22 0 37 -11t15 -42q0 -38 -18.5 -53.5t-40.5 -15.5z" />
    <glyph glyph-name="uni0122" unicode="&#x122;" horiz-adv-x="736" 
d="M352 -10q-144 0 -217 73t-73 201q0 72 18.5 140.5t54.5 126.5t88.5 101t121 67.5t152.5 24.5q57 0 99 -8.5t68.5 -24t39.5 -35.5t13 -43q0 -28 -14.5 -46.5t-39 -27.5t-55.5 -9q0 58 -7.5 98.5t-33.5 63t-80 22.5q-42 0 -80.5 -17t-72 -48.5t-60.5 -74.5t-46.5 -96.5
t-30 -114.5t-10.5 -127q0 -73 15.5 -126t53.5 -81.5t104 -28.5q30 0 57.5 3.5t46.5 9.5l50 239q2 8 3.5 17t1.5 13q0 25 -21 31.5t-51 6.5h-10l2 10h284l-1 -10h-5q-19 0 -36.5 -4.5t-30.5 -19t-19 -45.5l-46 -215q-57 -23 -112.5 -34.5t-120.5 -11.5zM224 -212
q20 40 34.5 76.5t26.5 74.5h87l-2 -10q-15 -21 -38 -47.5t-48.5 -53t-50.5 -49.5h-11z" />
    <glyph glyph-name="uni0123" unicode="&#x123;" horiz-adv-x="563" 
d="M294 616q15 21 38 47.5t49 53.5t50 49h11l-2 -13q-19 -36 -34 -72t-27 -75h-87zM169 -240q-75 0 -124.5 14.5t-73.5 42.5t-24 68q0 39 23 66.5t65.5 43t101.5 17.5q-44 15 -60.5 37.5t-16.5 48.5q0 32 26.5 61t86.5 40q-41 15 -62.5 47t-21.5 80q0 35 13.5 73.5t42 72
t73.5 54t105 20.5q35 0 63.5 -8.5t47.5 -25.5q13 19 29 35.5t36 26.5t43 10q26 0 39 -13.5t13 -34.5q0 -23 -12.5 -43.5t-47.5 -20.5q0 26 -10 42.5t-34 16.5q-12 0 -25 -6.5t-23 -18.5q16 -17 26.5 -40t10.5 -56q0 -34 -13.5 -72.5t-42 -72t-72.5 -55t-105 -21.5
q-9 0 -20.5 0.5t-22 2.5t-19.5 4q-27 -10 -41 -23.5t-14 -33.5t18.5 -27.5t51.5 -11.5l93 -9q51 -5 86 -20.5t53.5 -43.5t18.5 -69q0 -42 -16.5 -78t-51 -63t-87.5 -42t-126 -15zM173 -230q63 0 102.5 20t58.5 52t19 69q0 42 -24.5 61.5t-76.5 24.5l-101 10
q-47 -8 -80.5 -36.5t-33.5 -81.5q0 -52 30 -85.5t106 -33.5zM252 199q26 0 46 14.5t34.5 39.5t24 55t14.5 61t5 58q0 38 -6 62t-18 35.5t-32 11.5q-27 0 -48 -14.5t-36.5 -38.5t-25.5 -53.5t-14.5 -59t-4.5 -54.5q0 -60 15.5 -88.5t45.5 -28.5z" />
    <glyph glyph-name="Hcircumflex" unicode="&#x124;" horiz-adv-x="785" 
d="M-21 0l2 10h13q33 0 60 12t36 57l118 557q2 8 3 17t1 13q0 16 -8 24t-24.5 11t-39.5 3h-13l2 10h305l-2 -10h-13q-33 0 -59.5 -12t-35.5 -57l-54 -257h307l55 258q2 8 3 17t1 13q0 23 -18 30.5t-52 7.5h-13l2 10h304l-2 -10h-13q-34 0 -60.5 -12t-36.5 -59l-117 -554
q-1 -9 -2.5 -17.5t-1.5 -13.5q0 -15 8.5 -23t24.5 -11.5t39 -3.5h12l-2 -10h-304l2 10h13q33 0 59.5 12.5t36.5 59.5l59 286h-307l-61 -292q-1 -6 -2.5 -14.5t-1.5 -13.5q0 -23 19 -30.5t51 -7.5h13l-2 -10h-304zM364 793q22 21 49 47t52.5 53.5t42.5 50.5h84
q8 -22 21.5 -50t29.5 -54.5t28 -46.5l-1 -9h-10q-35 20 -65.5 47.5t-52.5 52.5q-23 -17 -51.5 -35.5t-58.5 -35t-59 -29.5h-11z" />
    <glyph glyph-name="hcircumflex" unicode="&#x125;" horiz-adv-x="616" 
d="M467 -10q-48 0 -73 28.5t-25 73.5q0 25 4.5 55.5t13.5 73.5l20 89q3 14 8 35t8.5 45.5t3.5 46.5q0 18 -3.5 36.5t-14 30.5t-31.5 12q-26 0 -52 -19t-48.5 -48.5t-38 -62.5t-21.5 -59l-71 -327h-108l137 654q5 18 7 32t2 19q0 27 -18 36t-48 9h-11l2 10h200l-41 -194
q-5 -24 -10.5 -48t-11 -46.5t-9.5 -39.5t-7 -26h4q26 44 55 75t63 47.5t75 16.5t64.5 -15t34.5 -40.5t11 -56.5q0 -25 -6.5 -55t-11.5 -56l-28 -125q-6 -27 -9.5 -53.5t-3.5 -48.5q0 -34 12.5 -51.5t36.5 -17.5q15 0 31 9t34 23l6 -8q-16 -14 -36 -28t-43.5 -23t-52.5 -9z
M274 807q22 21 49 47t52.5 53.5t42.5 50.5h84q8 -22 21.5 -50t29.5 -54.5t28 -46.5l-1 -9h-10q-35 20 -65.5 47.5t-52.5 52.5q-23 -17 -51.5 -35.5t-58.5 -35t-59 -29.5h-11z" />
    <glyph glyph-name="Hbar" unicode="&#x126;" horiz-adv-x="800" 
d="M85 520l3 10h735l-2 -10h-736zM-21 0l2 10h13q33 0 60 12t36 57l118 557q2 8 3 17t1 13q0 16 -8 24t-24.5 11t-39.5 3h-13l2 10h305l-2 -10h-13q-33 0 -59.5 -12t-35.5 -57l-54 -257h307l55 258q2 8 3 17t1 13q0 23 -18 30.5t-52 7.5h-13l2 10h304l-2 -10h-13
q-34 0 -60.5 -12t-36.5 -59l-117 -554q-1 -9 -2.5 -17.5t-1.5 -13.5q0 -15 8.5 -23t24.5 -11.5t39 -3.5h12l-2 -10h-304l2 10h13q33 0 59.5 12.5t36.5 59.5l59 286h-307l-61 -292q-1 -6 -2.5 -14.5t-1.5 -13.5q0 -23 19 -30.5t51 -7.5h13l-2 -10h-304z" />
    <glyph glyph-name="hbar" unicode="&#x127;" horiz-adv-x="615" 
d="M77 612l2 10h367l-2 -10h-367zM467 -10q-48 0 -73 28.5t-25 73.5q0 25 4.5 55.5t13.5 73.5l20 89q3 14 8 35t8.5 45.5t3.5 46.5q0 18 -3.5 36.5t-14 30.5t-31.5 12q-26 0 -52 -19t-48.5 -48.5t-38 -62.5t-21.5 -59l-71 -327h-108l137 654q5 18 7 32t2 19q0 27 -18 36
t-48 9h-11l2 10h200l-41 -194q-5 -24 -10.5 -48t-11 -46.5t-9.5 -39.5t-7 -26h4q26 44 55 75t63 47.5t75 16.5t64.5 -15t34.5 -40.5t11 -56.5q0 -25 -6.5 -55t-11.5 -56l-28 -125q-6 -27 -9.5 -53.5t-3.5 -48.5q0 -34 12.5 -51.5t36.5 -17.5q15 0 31 9t34 23l6 -8
q-16 -14 -36 -28t-43.5 -23t-52.5 -9z" />
    <glyph glyph-name="Itilde" unicode="&#x128;" horiz-adv-x="361" 
d="M-21 0l1 10h13q34 0 60.5 12t35.5 57l119 557q2 8 3 17t1 13q0 25 -20 31.5t-52 6.5h-13l2 10h306l-2 -10h-13q-34 0 -60.5 -12t-36.5 -59l-117 -553q-1 -8 -3 -17t-2 -15q0 -24 20.5 -31t51.5 -7h13l-2 -10h-305zM364 785q-29 0 -49.5 9.5t-37.5 22.5t-37 23t-49 10
q-22 0 -35.5 -8.5t-22 -21t-14.5 -26.5h-10q9 33 26 61t43.5 46t62.5 18q29 0 48.5 -10t37 -23t38 -22.5t49.5 -9.5q32 0 46 17t24 38h10q-8 -31 -24.5 -59.5t-43 -46.5t-62.5 -18z" />
    <glyph glyph-name="itilde" unicode="&#x129;" horiz-adv-x="314" 
d="M163 -10q-44 0 -68.5 28.5t-24.5 76.5q0 21 3.5 45.5t8.5 50t9 46.5l46 216q2 10 3 18t1 14q0 25 -14 33t-45 8h-14l2 10h195l-71 -332q-2 -13 -6 -33t-6.5 -40.5t-2.5 -34.5q1 -33 11 -50t31 -17q23 0 41 9.5t35 22.5l6 -9q-22 -20 -59.5 -41t-80.5 -21zM284 607
q-29 0 -49.5 9.5t-37.5 22.5t-37 23t-49 10q-22 0 -35.5 -8.5t-22 -21t-14.5 -26.5h-10q9 33 26 61t43.5 46t62.5 18q29 0 48.5 -10t37 -23t38 -22.5t49.5 -9.5q32 0 46 17t24 38h10q-8 -31 -24.5 -59.5t-43 -46.5t-62.5 -18z" />
    <glyph glyph-name="Imacron" unicode="&#x12a;" horiz-adv-x="361" 
d="M-21 0l1 10h13q34 0 60.5 12t35.5 57l119 557q2 8 3 17t1 13q0 25 -20 31.5t-52 6.5h-13l2 10h306l-2 -10h-13q-34 0 -60.5 -12t-36.5 -59l-117 -553q-1 -8 -3 -17t-2 -15q0 -24 20.5 -31t51.5 -7h13l-2 -10h-305zM153 807l4 20h290l-4 -20h-290z" />
    <glyph glyph-name="imacron" unicode="&#x12b;" horiz-adv-x="314" 
d="M163 -10q-44 0 -68.5 28.5t-24.5 76.5q0 21 3.5 45.5t8.5 50t9 46.5l46 216q2 10 3 18t1 14q0 25 -14 33t-45 8h-14l2 10h195l-71 -332q-2 -13 -6 -33t-6.5 -40.5t-2.5 -34.5q1 -33 11 -50t31 -17q23 0 41 9.5t35 22.5l6 -9q-22 -20 -59.5 -41t-80.5 -21zM72 629l4 20
h290l-4 -20h-290z" />
    <glyph glyph-name="Ibreve" unicode="&#x12c;" horiz-adv-x="361" 
d="M-21 0l1 10h13q34 0 60.5 12t35.5 57l119 557q2 8 3 17t1 13q0 25 -20 31.5t-52 6.5h-13l2 10h306l-2 -10h-13q-34 0 -60.5 -12t-36.5 -59l-117 -553q-1 -8 -3 -17t-2 -15q0 -24 20.5 -31t51.5 -7h13l-2 -10h-305zM288 784q-63 0 -94.5 37.5t-35.5 105.5h10
q6 -34 39.5 -53t87.5 -19q37 0 65 7.5t49 23.5t34 41h10q-8 -39 -30 -72t-55.5 -52t-79.5 -19z" />
    <glyph glyph-name="ibreve" unicode="&#x12d;" horiz-adv-x="314" 
d="M163 -10q-44 0 -68.5 28.5t-24.5 76.5q0 21 3.5 45.5t8.5 50t9 46.5l46 216q2 10 3 18t1 14q0 25 -14 33t-45 8h-14l2 10h195l-71 -332q-2 -13 -6 -33t-6.5 -40.5t-2.5 -34.5q1 -33 11 -50t31 -17q23 0 41 9.5t35 22.5l6 -9q-22 -20 -59.5 -41t-80.5 -21zM207 606
q-63 0 -94.5 37.5t-35.5 105.5h10q6 -34 39.5 -53t87.5 -19q37 0 65 7.5t49 23.5t34 41h10q-8 -39 -30 -72t-55.5 -52t-79.5 -19z" />
    <glyph glyph-name="Iogonek" unicode="&#x12e;" horiz-adv-x="361" 
d="M-21 0l1 10h13q34 0 60.5 12t35.5 57l119 557q2 8 3 17t1 13q0 25 -20 31.5t-52 6.5h-13l2 10h306l-2 -10h-13q-34 0 -60.5 -12t-36.5 -59l-117 -553q-1 -8 -3 -17t-2 -15q0 -24 20.5 -31t51.5 -7h13l-2 -10h-305zM134 -239q-54 0 -85 23.5t-31 65.5q0 29 13.5 52
t37.5 41.5t56 33t69 25.5h21q-28 -12 -52 -30.5t-39 -49t-15 -79.5q0 -32 15.5 -49.5t42.5 -17.5q9 0 24 3t32 9l-2 -10q-17 -7 -40 -12t-47 -5z" />
    <glyph glyph-name="iogonek" unicode="&#x12f;" horiz-adv-x="317" 
d="M160 -10q-44 0 -68.5 28.5t-24.5 76.5q0 21 3.5 45.5t8.5 50t9 46.5l46 216q2 10 3 18t1 14q0 26 -15 33.5t-44 7.5h-14l2 10h195l-71 -332q-2 -13 -6 -33t-6 -40.5t-2 -34.5q0 -33 10 -50t31 -17q23 0 41 9.5t35 22.5l6 -9q-22 -20 -59.5 -41t-80.5 -21zM224 633
q-22 0 -37 12.5t-15 40.5q0 24 7.5 39.5t21 22.5t30.5 7q22 0 37 -11t15 -42q0 -38 -18.5 -53.5t-40.5 -15.5zM125 -239q-54 0 -85 23.5t-31 65.5q0 29 13.5 52t37.5 41.5t56 33t69 25.5h21q-28 -12 -52 -30.5t-39 -49t-15 -79.5q0 -32 15.5 -49.5t42.5 -17.5q9 0 24 3t32 9
l-2 -10q-17 -7 -40 -12t-47 -5z" />
    <glyph glyph-name="Idotaccent" unicode="&#x130;" horiz-adv-x="361" 
d="M-21 0l1 10h13q34 0 60.5 12t35.5 57l119 557q2 8 3 17t1 13q0 25 -20 31.5t-52 6.5h-13l2 10h306l-2 -10h-13q-34 0 -60.5 -12t-36.5 -59l-117 -553q-1 -8 -3 -17t-2 -15q0 -24 20.5 -31t51.5 -7h13l-2 -10h-305zM301 798q-22 0 -37 12.5t-15 40.5q0 24 7.5 39.5
t21 22.5t30.5 7q22 0 37 -11t15 -42q0 -38 -18.5 -53.5t-40.5 -15.5z" />
    <glyph glyph-name="dotlessi" unicode="&#x131;" horiz-adv-x="314" 
d="M163 -10q-44 0 -68.5 28.5t-24.5 76.5q0 21 3.5 45.5t8.5 50t9 46.5l46 216q2 10 3 18t1 14q0 25 -14 33t-45 8h-14l2 10h195l-71 -332q-2 -13 -6 -33t-6.5 -40.5t-2.5 -34.5q1 -33 11 -50t31 -17q23 0 41 9.5t35 22.5l6 -9q-22 -20 -59.5 -41t-80.5 -21z" />
    <glyph glyph-name="IJ" unicode="&#x132;" horiz-adv-x="731" 
d="M-21 0l1 10h13q34 0 60.5 12t35.5 57l119 557q2 8 3 17t1 13q0 25 -20 31.5t-52 6.5h-13l2 10h306l-2 -10h-13q-34 0 -60.5 -12t-36.5 -59l-117 -553q-1 -8 -3 -17t-2 -15q0 -24 20.5 -31t51.5 -7h13l-2 -10h-305zM289 -240q-27 0 -46 3t-38 8l3 10q13 -4 31.5 -6.5
t33.5 -2.5q37 0 66 18.5t50.5 65t37.5 128.5l138 655q2 6 3 14.5t1 12.5q0 25 -20 31.5t-52 6.5h-13l3 10h305l-2 -10h-13q-34 0 -60 -12t-36 -57l-137 -642q-17 -81 -50.5 -132.5t-84.5 -76t-120 -24.5z" />
    <glyph glyph-name="ij" unicode="&#x133;" horiz-adv-x="621" 
d="M160 -10q-44 0 -68.5 28.5t-24.5 76.5q0 21 3.5 45.5t8.5 50t9 46.5l46 216q2 10 3 18t1 14q0 26 -15 33.5t-44 7.5h-14l2 10h195l-71 -332q-2 -13 -6 -33t-6 -40.5t-2 -34.5q0 -33 10 -50t31 -17q23 0 41 9.5t35 22.5l6 -9q-22 -20 -59.5 -41t-80.5 -21zM224 633
q-22 0 -37 12.5t-15 40.5q0 24 7.5 39.5t21 22.5t30.5 7q22 0 37 -11t15 -42q0 -38 -18.5 -53.5t-40.5 -15.5zM246 -240q-19 0 -37.5 3t-31.5 6l2 10q8 -2 21.5 -4.5t24.5 -2.5q34 0 58 21t40.5 67.5t31.5 124.5l100 468q2 10 3 17.5t1 14.5q0 25 -15 33t-44 8h-14l2 10h194
l-114 -541q-19 -89 -51 -140.5t-75 -73t-96 -21.5zM545 633q-23 0 -37.5 12t-14.5 41q0 24 7.5 39.5t21 22.5t29.5 7q22 0 37.5 -11t15.5 -42q0 -40 -18 -54.5t-41 -14.5z" />
    <glyph glyph-name="Jcircumflex" unicode="&#x134;" horiz-adv-x="369" 
d="M-72 -240q-27 0 -46 3t-38 8l3 10q13 -4 31.5 -6.5t33.5 -2.5q37 0 66 18.5t50.5 65t37.5 128.5l138 655q2 6 3 14.5t1 12.5q0 25 -20 31.5t-52 6.5h-13l3 10h305l-2 -10h-13q-34 0 -60 -12t-36 -57l-137 -642q-17 -81 -50.5 -132.5t-84.5 -76t-120 -24.5zM143 793
q22 21 49 47t52.5 53.5t42.5 50.5h84q8 -22 21.5 -50t29.5 -54.5t28 -46.5l-1 -9h-10q-35 20 -65.5 47.5t-52.5 52.5q-23 -17 -51.5 -35.5t-58.5 -35t-59 -29.5h-11z" />
    <glyph glyph-name="jcircumflex" unicode="&#x135;" horiz-adv-x="305" 
d="M-71 -240q-19 0 -37.5 3t-31.5 6l2 10q8 -2 21.5 -4.5t24.5 -2.5q34 0 58 21t40.5 67.5t31.5 124.5l100 468q2 10 3 17.5t1 14.5q0 25 -15 33t-44 8h-14l2 10h194l-114 -541q-19 -89 -51 -140.5t-75 -73t-96 -21.5zM53 615q22 21 49 47t52.5 53.5t42.5 50.5h84
q8 -22 21.5 -50t29.5 -54.5t28 -46.5l-1 -9h-10q-35 20 -65.5 47.5t-52.5 52.5q-23 -17 -51.5 -35.5t-58.5 -35t-59 -29.5h-11z" />
    <glyph glyph-name="uni0136" unicode="&#x136;" horiz-adv-x="712" 
d="M-21 0l2 10h13q22 0 41.5 4.5t34 19.5t20.5 45l118 557q2 7 3 15.5t1 13.5q0 25 -19 32t-53 7h-13l2 10h305l-2 -10h-13q-22 0 -41 -4.5t-33.5 -19t-20.5 -45.5l-73 -335l298 273q38 34 55 54t17 42q0 13 -8 20t-25.5 11t-48.5 4l2 10h230l-3 -10q-16 0 -34 -5.5
t-36.5 -16t-38 -25.5t-40.5 -35l-235 -217l36 45l134 -328q16 -39 28.5 -64t25.5 -36.5t32 -11.5h3l-2 -10h-25q-46 0 -77 6t-51.5 18t-34 32.5t-24.5 49.5l-100 257l41 27l-122 -105l-42 -209q-1 -6 -2.5 -14.5t-1.5 -13.5q0 -24 20.5 -31t51.5 -7h12l-2 -10h-305z
M197 -212q20 40 34.5 76.5t26.5 74.5h87l-2 -10q-15 -21 -38 -47.5t-48.5 -53t-50.5 -49.5h-11z" />
    <glyph glyph-name="uni0137" unicode="&#x137;" horiz-adv-x="589" 
d="M516 -7q-55 1 -89 9.5t-55 30.5t-40 65l-81 175l26 19l-84 -72l-46 -220h-109l138 654q5 19 7 31.5t2 19.5q0 29 -18.5 37t-46.5 8h-12l2 10h200l-44 -206q-5 -21 -12 -54t-15 -70.5t-16.5 -75t-15.5 -68.5t-11 -51l201 174q40 35 55.5 52.5t15.5 34.5q0 15 -19 22.5
t-71 7.5l2 10h230l-2 -10q-40 0 -82 -28t-95 -73l-143 -124l43 43l116 -237q17 -33 29 -56.5t25.5 -35.5t34.5 -12l-2 -10h-18zM130 -212q20 40 34.5 76.5t26.5 74.5h87l-2 -10q-15 -21 -38 -47.5t-48.5 -53t-50.5 -49.5h-11z" />
    <glyph glyph-name="kgreenlandic" unicode="&#x138;" horiz-adv-x="589" 
d="M515 -7q-55 1 -88.5 9.5t-55 30.5t-40.5 65l-81 176l26 18l-83 -72l-47 -220h-108l90 430q5 19 7 31.5t2 19.5q0 29 -18.5 37t-46.5 8h-12l2 10h199l-38 -179l-6 -30t-6.5 -30l-7 -30t-7.5 -31l200 173q40 35 55.5 52.5t15.5 34.5q0 10 -8 16.5t-27.5 10t-54.5 3.5l2 10
h230l-2 -10q-26 0 -53.5 -13t-58 -35.5t-65.5 -52.5l-143 -124l43 43l115 -237q16 -31 29.5 -54.5t28 -36.5t32.5 -13l-2 -10h-18z" />
    <glyph glyph-name="Lacute" unicode="&#x139;" horiz-adv-x="628" 
d="M-21 0l3 10h14q21 0 40 4.5t33.5 19.5t19.5 45l119 557q2 7 3 16t1 14q0 25 -20 31.5t-52 6.5h-13l2 10h306l-2 -10h-13q-33 0 -59.5 -11t-35.5 -54l-134 -629h209q42 0 71 18.5t48 49t30 65.5l22 74h10l-53 -217h-549zM252 784q17 22 35.5 48t36 53t31.5 49h104l-3 -10
q-12 -13 -35 -32t-50.5 -41t-56 -42t-52.5 -35h-12z" />
    <glyph glyph-name="lacute" unicode="&#x13a;" horiz-adv-x="319" 
d="M162 -10q-45 0 -68.5 28t-23.5 71q0 20 3.5 46.5t8.5 54t9 48.5l91 421q3 14 4.5 27.5t1.5 18.5q0 27 -18.5 36t-47.5 9h-14l2 10h203l-119 -556q-2 -13 -6 -33t-6.5 -40.5t-2.5 -34.5q0 -33 9.5 -50t34.5 -17q18 0 37 9.5t37 22.5l5 -9q-14 -13 -36 -27.5t-48.5 -24.5
t-55.5 -10zM226 810q17 22 35.5 48t36 53t31.5 49h104l-3 -10q-12 -13 -35 -32t-50.5 -41t-56 -42t-52.5 -35h-12z" />
    <glyph glyph-name="uni013B" unicode="&#x13b;" horiz-adv-x="628" 
d="M-21 0l3 10h14q21 0 40 4.5t33.5 19.5t19.5 45l119 557q2 7 3 16t1 14q0 25 -20 31.5t-52 6.5h-13l2 10h306l-2 -10h-13q-33 0 -59.5 -11t-35.5 -54l-134 -629h209q42 0 71 18.5t48 49t30 65.5l22 74h10l-53 -217h-549zM157 -212q20 40 34.5 76.5t26.5 74.5h87l-2 -10
q-15 -21 -38 -47.5t-48.5 -53t-50.5 -49.5h-11z" />
    <glyph glyph-name="uni013C" unicode="&#x13c;" horiz-adv-x="319" 
d="M162 -10q-45 0 -68.5 28t-23.5 71q0 20 3.5 46.5t8.5 54t9 48.5l91 421q3 14 4.5 27.5t1.5 18.5q0 27 -18.5 36t-47.5 9h-14l2 10h203l-119 -556q-2 -13 -6 -33t-6.5 -40.5t-2.5 -34.5q0 -33 9.5 -50t34.5 -17q18 0 37 9.5t37 22.5l5 -9q-14 -13 -36 -27.5t-48.5 -24.5
t-55.5 -10zM3 -212q20 40 34.5 76.5t26.5 74.5h87l-2 -10q-15 -21 -38 -47.5t-48.5 -53t-50.5 -49.5h-11z" />
    <glyph glyph-name="Lcaron" unicode="&#x13d;" horiz-adv-x="634" 
d="M540 567q19 36 34 72.5t27 74.5h86l-2 -10q-15 -21 -38 -47.5t-48.5 -53t-49.5 -49.5h-11zM-21 0l3 10h14q21 0 40 4.5t33.5 19.5t19.5 45l119 557q2 7 3 16t1 14q0 25 -20 31.5t-52 6.5h-13l2 10h306l-2 -10h-13q-33 0 -59.5 -11t-35.5 -54l-134 -629h209q42 0 71 18.5
t48 49t30 65.5l22 74h10l-53 -217h-549z" />
    <glyph glyph-name="lcaron" unicode="&#x13e;" horiz-adv-x="319" 
d="M352 613q20 36 34.5 72.5t27.5 74.5h86l-2 -10q-15 -21 -38 -47.5t-48.5 -53t-50.5 -49.5h-11zM162 -10q-45 0 -68.5 28t-23.5 71q0 20 3.5 46.5t8.5 54t9 48.5l91 421q3 14 4.5 27.5t1.5 18.5q0 27 -18.5 36t-47.5 9h-14l2 10h203l-119 -556q-2 -13 -6 -33t-6.5 -40.5
t-2.5 -34.5q0 -33 9.5 -50t34.5 -17q18 0 37 9.5t37 22.5l5 -9q-14 -13 -36 -27.5t-48.5 -24.5t-55.5 -10z" />
    <glyph glyph-name="Ldot" unicode="&#x13f;" horiz-adv-x="633" 
d="M-21 0l3 10h14q21 0 40 4.5t33.5 19.5t19.5 45l119 557q2 7 3 16t1 14q0 25 -20 31.5t-52 6.5h-13l2 10h306l-2 -10h-13q-33 0 -59.5 -11t-35.5 -54l-134 -629h209q42 0 71 18.5t48 49t30 65.5l22 74h10l-53 -217h-549zM528 320q-22 0 -37 12.5t-15 40.5q0 24 7.5 39.5
t21 22.5t30.5 7q22 0 37 -11t15 -42q0 -38 -18.5 -53.5t-40.5 -15.5z" />
    <glyph glyph-name="ldot" unicode="&#x140;" horiz-adv-x="438" 
d="M162 -10q-45 0 -68.5 28t-23.5 71q0 20 3.5 46.5t8.5 54t9 48.5l91 421q3 14 4.5 27.5t1.5 18.5q0 27 -18.5 36t-47.5 9h-14l2 10h203l-119 -556q-2 -13 -6 -33t-6.5 -40.5t-2.5 -34.5q0 -33 9.5 -50t34.5 -17q18 0 37 9.5t37 22.5l5 -9q-14 -13 -36 -27.5t-48.5 -24.5
t-55.5 -10zM391 326q-22 0 -37 12.5t-15 40.5q0 24 7.5 39.5t21 22.5t30.5 7q22 0 37 -11t15 -42q0 -38 -18.5 -53.5t-40.5 -15.5z" />
    <glyph glyph-name="Lslash" unicode="&#x141;" horiz-adv-x="632" 
d="M32 256l2 11l406 209l-2 -10zM-21 0l3 10h14q21 0 40 4.5t33.5 19.5t19.5 45l119 557q2 7 3 16t1 14q0 25 -20 31.5t-52 6.5h-13l2 10h306l-2 -10h-13q-33 0 -59.5 -11t-35.5 -54l-134 -629h209q42 0 71 18.5t48 49t30 65.5l22 74h10l-53 -217h-549z" />
    <glyph glyph-name="lslash" unicode="&#x142;" horiz-adv-x="332" 
d="M11 266l2 10l319 162l-2 -11zM162 -10q-45 0 -68.5 28t-23.5 71q0 20 3.5 46.5t8.5 54t9 48.5l91 421q3 14 4.5 27.5t1.5 18.5q0 27 -18.5 36t-47.5 9h-14l2 10h203l-119 -556q-2 -13 -6 -33t-6.5 -40.5t-2.5 -34.5q0 -33 9.5 -50t34.5 -17q18 0 37 9.5t37 22.5l5 -9
q-14 -13 -36 -27.5t-48.5 -24.5t-55.5 -10z" />
    <glyph glyph-name="Nacute" unicode="&#x143;" horiz-adv-x="754" 
d="M-21 0l2 10h19q27 0 50 4.5t39 19t23 45.5l118 557q2 7 3.5 16t1.5 14q0 25 -24.5 31.5t-64.5 6.5h-19l2 10h211l250 -569l105 492q2 7 3 15t1 13q0 25 -27 32t-70 7h-17l2 10h252l-2 -10h-20q-26 0 -49 -4t-40 -18.5t-24 -46.5l-134 -635h-37l-289 651l-123 -573
q-1 -8 -2.5 -16t-1.5 -13q0 -24 29 -31.5t74 -7.5h12l-2 -10h-251zM453 784q17 22 35.5 48t36 53t31.5 49h104l-3 -10q-12 -13 -35 -32t-50.5 -41t-56 -42t-52.5 -35h-12z" />
    <glyph glyph-name="nacute" unicode="&#x144;" horiz-adv-x="621" 
d="M472 -10q-48 0 -73 28.5t-25 73.5q0 24 4 55t14 74l20 88q3 13 7.5 35t8.5 46t4 44q0 16 -3.5 34t-16 30.5t-37.5 12.5q-26 0 -50.5 -17.5t-44.5 -43.5t-33 -51t-16 -40l-79 -359h-108l91 436q3 14 4.5 27.5t1.5 18.5q0 27 -18 35.5t-47 8.5h-11l2 10h199l-26 -125h2
q27 45 56 75t62 44.5t73 14.5q41 0 65 -15t34.5 -40.5t10.5 -56.5q0 -25 -6.5 -55t-11.5 -56l-28 -125q-6 -28 -9.5 -55t-3.5 -53q0 -29 11 -45t34 -16q13 0 24.5 4t22.5 10.5t22 15.5l6 -8q-24 -21 -56 -40.5t-76 -19.5zM336 606q17 22 35.5 48t36 53t31.5 49h104l-3 -10
q-12 -13 -35 -32t-50.5 -41t-56 -42t-52.5 -35h-12z" />
    <glyph glyph-name="uni0145" unicode="&#x145;" horiz-adv-x="754" 
d="M-21 0l2 10h19q27 0 50 4.5t39 19t23 45.5l118 557q2 7 3.5 16t1.5 14q0 25 -24.5 31.5t-64.5 6.5h-19l2 10h211l250 -569l105 492q2 7 3 15t1 13q0 25 -27 32t-70 7h-17l2 10h252l-2 -10h-20q-26 0 -49 -4t-40 -18.5t-24 -46.5l-134 -635h-37l-289 651l-123 -573
q-1 -8 -2.5 -16t-1.5 -13q0 -24 29 -31.5t74 -7.5h12l-2 -10h-251zM226 -212q20 40 34.5 76.5t26.5 74.5h87l-2 -10q-15 -21 -38 -47.5t-48.5 -53t-50.5 -49.5h-11z" />
    <glyph glyph-name="uni0146" unicode="&#x146;" horiz-adv-x="621" 
d="M472 -10q-48 0 -73 28.5t-25 73.5q0 24 4 55t14 74l20 88q3 13 7.5 35t8.5 46t4 44q0 16 -3.5 34t-16 30.5t-37.5 12.5q-26 0 -50.5 -17.5t-44.5 -43.5t-33 -51t-16 -40l-79 -359h-108l91 436q3 14 4.5 27.5t1.5 18.5q0 27 -18 35.5t-47 8.5h-11l2 10h199l-26 -125h2
q27 45 56 75t62 44.5t73 14.5q41 0 65 -15t34.5 -40.5t10.5 -56.5q0 -25 -6.5 -55t-11.5 -56l-28 -125q-6 -28 -9.5 -55t-3.5 -53q0 -29 11 -45t34 -16q13 0 24.5 4t22.5 10.5t22 15.5l6 -8q-24 -21 -56 -40.5t-76 -19.5zM152 -212q20 40 34.5 76.5t26.5 74.5h87l-2 -10
q-15 -21 -38 -47.5t-48.5 -53t-50.5 -49.5h-11z" />
    <glyph glyph-name="Ncaron" unicode="&#x147;" horiz-adv-x="754" 
d="M-21 0l2 10h19q27 0 50 4.5t39 19t23 45.5l118 557q2 7 3.5 16t1.5 14q0 25 -24.5 31.5t-64.5 6.5h-19l2 10h211l250 -569l105 492q2 7 3 15t1 13q0 25 -27 32t-70 7h-17l2 10h252l-2 -10h-20q-26 0 -49 -4t-40 -18.5t-24 -46.5l-134 -635h-37l-289 651l-123 -573
q-1 -8 -2.5 -16t-1.5 -13q0 -24 29 -31.5t74 -7.5h12l-2 -10h-251zM462 784q-8 24 -22 51.5t-29 54t-28 45.5l2 9h10q33 -21 64.5 -48t53.5 -53q22 17 51 35.5t59.5 35.5t58.5 30h10l-1 -9q-33 -31 -74 -72.5t-70 -78.5h-85z" />
    <glyph glyph-name="ncaron" unicode="&#x148;" horiz-adv-x="621" 
d="M472 -10q-48 0 -73 28.5t-25 73.5q0 24 4 55t14 74l20 88q3 13 7.5 35t8.5 46t4 44q0 16 -3.5 34t-16 30.5t-37.5 12.5q-26 0 -50.5 -17.5t-44.5 -43.5t-33 -51t-16 -40l-79 -359h-108l91 436q3 14 4.5 27.5t1.5 18.5q0 27 -18 35.5t-47 8.5h-11l2 10h199l-26 -125h2
q27 45 56 75t62 44.5t73 14.5q41 0 65 -15t34.5 -40.5t10.5 -56.5q0 -25 -6.5 -55t-11.5 -56l-28 -125q-6 -28 -9.5 -55t-3.5 -53q0 -29 11 -45t34 -16q13 0 24.5 4t22.5 10.5t22 15.5l6 -8q-24 -21 -56 -40.5t-76 -19.5zM345 606q-8 24 -22 51.5t-29 54t-28 45.5l2 9h10
q33 -21 64.5 -48t53.5 -53q22 17 51 35.5t59.5 35.5t58.5 30h10l-1 -9q-33 -31 -74 -72.5t-70 -78.5h-85z" />
    <glyph glyph-name="napostrophe" unicode="&#x149;" horiz-adv-x="745" 
d="M-32 441q58 15 90 41t32 61q0 18 -11.5 28.5t-26 19.5t-26 22.5t-11.5 35.5q0 32 19.5 48.5t46.5 16.5q36 0 58 -22.5t22 -60.5q0 -46 -22 -87t-65.5 -70t-106.5 -43zM596 -10q-48 0 -73 28.5t-25 73.5q0 24 4 55t14 74l20 88q3 13 7.5 35t8.5 46t4 44q0 16 -3.5 34
t-16 30.5t-37.5 12.5q-26 0 -50.5 -17.5t-44.5 -43.5t-33 -51t-16 -40l-79 -359h-108l91 436q3 14 4.5 27.5t1.5 18.5q0 27 -18 35.5t-47 8.5h-11l2 10h199l-26 -125h2q27 45 56 75t62 44.5t73 14.5q41 0 65 -15t34.5 -40.5t10.5 -56.5q0 -25 -6.5 -55t-11.5 -56l-28 -125
q-6 -28 -9.5 -55t-3.5 -53q0 -29 11 -45t34 -16q13 0 24.5 4t22.5 10.5t22 15.5l6 -8q-24 -21 -56 -40.5t-76 -19.5z" />
    <glyph glyph-name="Eng" unicode="&#x14a;" horiz-adv-x="770" 
d="M360 -240q-25 0 -46 4.5t-36 10.5l4 9q13 -5 29.5 -8.5t38.5 -3.5q37 0 69.5 14.5t59.5 43.5t47.5 72t33.5 98l-315 654l-124 -576q-1 -8 -2.5 -16t-1.5 -13q0 -24 29 -31.5t74 -7.5h12l-2 -10h-251l2 10h19q27 0 50 4.5t39 19t23 45.5l118 557q2 7 3.5 16t1.5 14
q0 25 -24.5 31.5t-64.5 6.5h-19l2 10h208l261 -533l97 456q2 7 3 15t1 13q0 25 -27 32t-70 7h-17l2 10h252l-2 -10h-20q-26 0 -49 -4t-40 -18.5t-24 -46.5l-135 -641q-19 -85 -46 -136.5t-67 -74.5t-96 -23z" />
    <glyph glyph-name="eng" unicode="&#x14b;" horiz-adv-x="593" 
d="M232 -240q-19 0 -37.5 3t-31.5 6l2 10q8 -2 21.5 -4.5t24.5 -2.5q34 0 57.5 21t40.5 67.5t32 124.5l69 324q3 13 8 35t9 46t4 44q0 16 -4 34t-16.5 30.5t-36.5 12.5q-27 0 -51 -17.5t-44 -43.5t-33.5 -51t-16.5 -40l-78 -359h-109l92 436q2 14 4 27.5t2 18.5
q0 27 -18 35.5t-47 8.5h-11l2 10h198l-26 -125h3q27 45 55.5 75t62 44.5t72.5 14.5q42 0 65.5 -15t34.5 -40.5t11 -56.5q0 -16 -3 -35.5t-7 -39t-8 -36.5l-70 -327q-19 -89 -51 -140.5t-74.5 -73t-96.5 -21.5z" />
    <glyph glyph-name="Omacron" unicode="&#x14c;" horiz-adv-x="756" 
d="M332 -11q-78 0 -139 31t-96 94t-35 157q0 54 14.5 115.5t46 121t79.5 109t114.5 79t151.5 29.5q71 0 131.5 -28.5t97 -90t36.5 -159.5q0 -42 -10 -91.5t-30.5 -101t-53 -99t-76.5 -85t-101.5 -59.5t-129.5 -22zM336 -1q56 0 100 31.5t76.5 83t54 115t32 129t10.5 123.5
q0 92 -18.5 142.5t-51 71t-77.5 20.5q-55 0 -99.5 -30.5t-77.5 -82t-55 -115t-33 -130t-11 -125.5q0 -90 19.5 -141t54 -71.5t76.5 -20.5zM356 807l4 20h290l-4 -20h-290z" />
    <glyph glyph-name="omacron" unicode="&#x14d;" horiz-adv-x="575" 
d="M235 -10q-88 0 -143 51.5t-55 156.5q0 44 11.5 92.5t36 94t60.5 82t85.5 58t112.5 21.5q54 0 98 -21t70.5 -67t26.5 -120q0 -43 -11.5 -90.5t-35 -93.5t-59 -82.5t-85 -59t-112.5 -22.5zM237 0q40 0 69.5 24t51.5 64.5t36 89t20.5 98t6.5 92.5q0 62 -9 99t-27 53t-48 16
q-38 0 -68 -24.5t-52 -64.5t-36 -89t-20.5 -98.5t-6.5 -91.5q0 -92 22 -130t61 -38zM220 629l4 20h290l-4 -20h-290z" />
    <glyph glyph-name="Obreve" unicode="&#x14e;" horiz-adv-x="756" 
d="M332 -11q-78 0 -139 31t-96 94t-35 157q0 54 14.5 115.5t46 121t79.5 109t114.5 79t151.5 29.5q71 0 131.5 -28.5t97 -90t36.5 -159.5q0 -42 -10 -91.5t-30.5 -101t-53 -99t-76.5 -85t-101.5 -59.5t-129.5 -22zM336 -1q56 0 100 31.5t76.5 83t54 115t32 129t10.5 123.5
q0 92 -18.5 142.5t-51 71t-77.5 20.5q-55 0 -99.5 -30.5t-77.5 -82t-55 -115t-33 -130t-11 -125.5q0 -90 19.5 -141t54 -71.5t76.5 -20.5zM491 784q-63 0 -94.5 37.5t-35.5 105.5h10q6 -34 39.5 -53t87.5 -19q37 0 65 7.5t49 23.5t34 41h10q-8 -39 -30 -72t-55.5 -52
t-79.5 -19z" />
    <glyph glyph-name="obreve" unicode="&#x14f;" horiz-adv-x="575" 
d="M235 -10q-88 0 -143 51.5t-55 156.5q0 44 11.5 92.5t36 94t60.5 82t85.5 58t112.5 21.5q54 0 98 -21t70.5 -67t26.5 -120q0 -43 -11.5 -90.5t-35 -93.5t-59 -82.5t-85 -59t-112.5 -22.5zM237 0q40 0 69.5 24t51.5 64.5t36 89t20.5 98t6.5 92.5q0 62 -9 99t-27 53t-48 16
q-38 0 -68 -24.5t-52 -64.5t-36 -89t-20.5 -98.5t-6.5 -91.5q0 -92 22 -130t61 -38zM356 606q-63 0 -94.5 37.5t-35.5 105.5h10q6 -34 39.5 -53t87.5 -19q37 0 65 7.5t49 23.5t34 41h10q-8 -39 -30 -72t-55.5 -52t-79.5 -19z" />
    <glyph glyph-name="Ohungarumlaut" unicode="&#x150;" horiz-adv-x="756" 
d="M332 -11q-78 0 -139 31t-96 94t-35 157q0 54 14.5 115.5t46 121t79.5 109t114.5 79t151.5 29.5q71 0 131.5 -28.5t97 -90t36.5 -159.5q0 -42 -10 -91.5t-30.5 -101t-53 -99t-76.5 -85t-101.5 -59.5t-129.5 -22zM336 -1q56 0 100 31.5t76.5 83t54 115t32 129t10.5 123.5
q0 92 -18.5 142.5t-51 71t-77.5 20.5q-55 0 -99.5 -30.5t-77.5 -82t-55 -115t-33 -130t-11 -125.5q0 -90 19.5 -141t54 -71.5t76.5 -20.5zM533 783q26 33 54.5 75.5t43.5 75.5h99l-2 -9q-12 -14 -34 -34t-48.5 -41.5t-53.5 -41t-48 -34.5h-12zM354 783q26 33 54 75t43 76
h100l-3 -9q-12 -14 -34 -34t-48.5 -41.5t-53.5 -41t-48 -34.5h-12z" />
    <glyph glyph-name="ohungarumlaut" unicode="&#x151;" horiz-adv-x="575" 
d="M235 -10q-88 0 -143 51.5t-55 156.5q0 44 11.5 92.5t36 94t60.5 82t85.5 58t112.5 21.5q54 0 98 -21t70.5 -67t26.5 -120q0 -43 -11.5 -90.5t-35 -93.5t-59 -82.5t-85 -59t-112.5 -22.5zM237 0q40 0 69.5 24t51.5 64.5t36 89t20.5 98t6.5 92.5q0 62 -9 99t-27 53t-48 16
q-38 0 -68 -24.5t-52 -64.5t-36 -89t-20.5 -98.5t-6.5 -91.5q0 -92 22 -130t61 -38zM398 605q26 33 54.5 75.5t43.5 75.5h99l-2 -9q-12 -14 -34 -34t-48.5 -41.5t-53.5 -41t-48 -34.5h-12zM219 605q26 33 54 75t43 76h100l-3 -9q-12 -14 -34 -34t-48.5 -41.5t-53.5 -41
t-48 -34.5h-12z" />
    <glyph glyph-name="OE" unicode="&#x152;" horiz-adv-x="977" 
d="M334 -9q-77 0 -138.5 31.5t-97 95t-35.5 159.5q0 53 14.5 114t45.5 119.5t79.5 107t115.5 77.5t154 29q17 0 33 -1.5t32.5 -3.5t31.5 -5h427l-33 -178h-10q2 7 3 18.5t2.5 23.5t1.5 18q0 30 -6.5 54.5t-26 39t-61.5 14.5h-176l-69 -324h237l-1 -10h-238l-76 -360h196
q51 0 81 16t47.5 44.5t29.5 63.5l15 44h10l-45 -178h-443q-13 -2 -31 -4.5t-36 -3.5t-33 -1zM335 1q26 0 51 4t43 11l143 680q-16 6 -39.5 12t-60.5 6q-58 0 -104 -30.5t-80 -81t-56.5 -113.5t-33.5 -129t-11 -126q0 -82 19.5 -133.5t53 -75.5t75.5 -24z" />
    <glyph glyph-name="oe" unicode="&#x153;" horiz-adv-x="861" 
d="M235 -10q-88 0 -143 51.5t-55 156.5q0 44 11.5 92.5t36 94t60.5 82t85.5 58t112.5 21.5q54 0 98 -21.5t69 -67.5q25 27 55.5 47t67.5 31t80 11q68 0 104.5 -30t36.5 -86q0 -49 -38 -90t-103.5 -66.5t-148.5 -25.5h-18h-18q-1 -8 -2 -19t-1.5 -21.5t-0.5 -19.5
q0 -61 11.5 -103t33.5 -63.5t54 -21.5q57 0 91.5 37t53.5 94q10 -3 15.5 -11t5.5 -22q0 -20 -19 -45.5t-58.5 -44t-101.5 -18.5q-57 0 -101.5 22t-71.5 67q-24 -26 -54 -46t-67 -31.5t-81 -11.5zM237 0q40 0 69.5 24t51.5 64.5t36 89t20.5 98t6.5 92.5q0 62 -9 99t-27 53
t-48 16q-38 0 -68 -24.5t-52 -64.5t-36 -89t-20.5 -98.5t-6.5 -91.5q0 -61 10 -98t28.5 -53.5t44.5 -16.5zM555 258q56 0 97.5 23t64.5 64.5t23 96.5q0 47 -13.5 69.5t-39.5 22.5q-28 0 -53 -23t-45 -63t-35 -89.5t-24 -100.5h25z" />
    <glyph glyph-name="Racute" unicode="&#x154;" horiz-adv-x="677" 
d="M-21 0l2 10h13q22 0 41 4.5t33.5 19t20.5 45.5l119 557q1 8 2.5 17t1.5 13q0 25 -20 31.5t-52 6.5h-13l2 10h279q117 0 174 -42t57 -127q0 -49 -17.5 -83.5t-46 -58t-61 -37.5t-63.5 -22l73 -222q13 -38 23.5 -63t23.5 -37t34 -12h8l-2 -10h-17q-61 0 -99.5 9.5
t-60.5 35.5t-35 76l-58 213h-81l-54 -254q-2 -9 -3.5 -18t-1.5 -14q0 -24 20.5 -31t51.5 -7h33l-2 -10h-325zM332 344q56 0 97 22t63.5 67.5t22.5 117.5q0 57 -12.5 90.5t-38 48t-64.5 14.5h-61l-77 -360h70zM391 784q17 22 35.5 48t36 53t31.5 49h104l-3 -10
q-12 -13 -35 -32t-50.5 -41t-56 -42t-52.5 -35h-12z" />
    <glyph glyph-name="racute" unicode="&#x155;" horiz-adv-x="497" 
d="M143 436q3 14 4.5 27.5t1.5 18.5q0 27 -22.5 35.5t-50.5 8.5h-11l2 10h194l-24 -148h3q20 46 42.5 81.5t54.5 56t77 20.5t67 -20.5t22 -52.5q0 -26 -10.5 -44.5t-31.5 -28t-53 -9.5q2 11 2 20.5v18.5q0 27 -5 45t-16 27t-29 9q-21 0 -41 -17.5t-38 -45.5t-30.5 -59
t-19.5 -59l-71 -330h-109zM279 606q17 22 35.5 48t36 53t31.5 49h104l-3 -10q-12 -13 -35 -32t-50.5 -41t-56 -42t-52.5 -35h-12z" />
    <glyph glyph-name="uni0156" unicode="&#x156;" horiz-adv-x="677" 
d="M-21 0l2 10h13q22 0 41 4.5t33.5 19t20.5 45.5l119 557q1 8 2.5 17t1.5 13q0 25 -20 31.5t-52 6.5h-13l2 10h279q117 0 174 -42t57 -127q0 -49 -17.5 -83.5t-46 -58t-61 -37.5t-63.5 -22l73 -222q13 -38 23.5 -63t23.5 -37t34 -12h8l-2 -10h-17q-61 0 -99.5 9.5
t-60.5 35.5t-35 76l-58 213h-81l-54 -254q-2 -9 -3.5 -18t-1.5 -14q0 -24 20.5 -31t51.5 -7h33l-2 -10h-325zM332 344q56 0 97 22t63.5 67.5t22.5 117.5q0 57 -12.5 90.5t-38 48t-64.5 14.5h-61l-77 -360h70zM179 -212q20 40 34.5 76.5t26.5 74.5h87l-2 -10
q-15 -21 -38 -47.5t-48.5 -53t-50.5 -49.5h-11z" />
    <glyph glyph-name="uni0157" unicode="&#x157;" horiz-adv-x="497" 
d="M143 436q3 14 4.5 27.5t1.5 18.5q0 27 -22.5 35.5t-50.5 8.5h-11l2 10h194l-24 -148h3q20 46 42.5 81.5t54.5 56t77 20.5t67 -20.5t22 -52.5q0 -26 -10.5 -44.5t-31.5 -28t-53 -9.5q2 11 2 20.5v18.5q0 27 -5 45t-16 27t-29 9q-21 0 -41 -17.5t-38 -45.5t-30.5 -59
t-19.5 -59l-71 -330h-109zM1 -212q20 40 34.5 76.5t26.5 74.5h87l-2 -10q-15 -21 -38 -47.5t-48.5 -53t-50.5 -49.5h-11z" />
    <glyph glyph-name="Rcaron" unicode="&#x158;" horiz-adv-x="677" 
d="M-21 0l2 10h13q22 0 41 4.5t33.5 19t20.5 45.5l119 557q1 8 2.5 17t1.5 13q0 25 -20 31.5t-52 6.5h-13l2 10h279q117 0 174 -42t57 -127q0 -49 -17.5 -83.5t-46 -58t-61 -37.5t-63.5 -22l73 -222q13 -38 23.5 -63t23.5 -37t34 -12h8l-2 -10h-17q-61 0 -99.5 9.5
t-60.5 35.5t-35 76l-58 213h-81l-54 -254q-2 -9 -3.5 -18t-1.5 -14q0 -24 20.5 -31t51.5 -7h33l-2 -10h-325zM332 344q56 0 97 22t63.5 67.5t22.5 117.5q0 57 -12.5 90.5t-38 48t-64.5 14.5h-61l-77 -360h70zM399 784q-8 24 -22 51.5t-29 54t-28 45.5l2 9h10
q33 -21 64.5 -48t53.5 -53q22 17 51 35.5t59.5 35.5t58.5 30h10l-1 -9q-33 -31 -74 -72.5t-70 -78.5h-85z" />
    <glyph glyph-name="rcaron" unicode="&#x159;" horiz-adv-x="497" 
d="M143 436q3 14 4.5 27.5t1.5 18.5q0 27 -22.5 35.5t-50.5 8.5h-11l2 10h194l-24 -148h3q20 46 42.5 81.5t54.5 56t77 20.5t67 -20.5t22 -52.5q0 -26 -10.5 -44.5t-31.5 -28t-53 -9.5q2 11 2 20.5v18.5q0 27 -5 45t-16 27t-29 9q-21 0 -41 -17.5t-38 -45.5t-30.5 -59
t-19.5 -59l-71 -330h-109zM288 606q-8 24 -22 51.5t-29 54t-28 45.5l2 9h10q33 -21 64.5 -48t53.5 -53q22 17 51 35.5t59.5 35.5t58.5 30h10l-1 -9q-33 -31 -74 -72.5t-70 -78.5h-85z" />
    <glyph glyph-name="Sacute" unicode="&#x15a;" horiz-adv-x="556" 
d="M235 -10q-74 0 -124.5 19.5t-76 52.5t-25.5 72q0 40 27 60.5t63 20.5q0 -59 12 -108t42.5 -78t85.5 -29q54 0 88 20.5t49.5 56.5t15.5 82q0 32 -9.5 56.5t-37.5 48.5t-81 54q-45 25 -77.5 53.5t-50 66t-17.5 87.5q0 40 15.5 76t47 64t78 43.5t107.5 15.5q62 0 106 -14
t68 -38.5t24 -56.5q0 -34 -21.5 -54t-68.5 -20q0 31 -2.5 61.5t-12.5 56t-32 40.5t-61 15q-40 0 -71.5 -17.5t-50 -51.5t-18.5 -87q0 -39 14.5 -65t43.5 -46.5t71 -44.5q50 -29 83 -58t48.5 -63t15.5 -75q0 -48 -17 -87.5t-51 -68.5t-84.5 -44.5t-115.5 -15.5zM340 784
q17 22 35.5 48t36 53t31.5 49h104l-3 -10q-12 -13 -35 -32t-50.5 -41t-56 -42t-52.5 -35h-12z" />
    <glyph glyph-name="sacute" unicode="&#x15b;" horiz-adv-x="478" 
d="M194 -10q-51 0 -89.5 13.5t-60 38.5t-21.5 60q0 28 12.5 43.5t31 21.5t35.5 6q-1 -8 -1.5 -16.5t-0.5 -16.5q0 -41 11 -72.5t34 -49.5t58 -18q53 0 82.5 30.5t29.5 81.5q0 31 -10.5 52.5t-33 38t-60.5 33.5q-39 18 -67 38.5t-43.5 49t-15.5 68.5q0 45 24 79t69.5 54
t108.5 20q59 0 95 -13.5t52.5 -35.5t16.5 -45q0 -34 -24.5 -50t-62.5 -16q1 9 1.5 17.5t0.5 16.5q0 51 -19.5 83.5t-66.5 32.5q-52 0 -74.5 -30.5t-22.5 -71.5q0 -30 11 -50t34 -36t59 -32q40 -17 67.5 -38.5t42 -49.5t14.5 -66q0 -49 -25 -88t-73.5 -61t-118.5 -22z
M264 606q17 22 35.5 48t36 53t31.5 49h104l-3 -10q-12 -13 -35 -32t-50.5 -41t-56 -42t-52.5 -35h-12z" />
    <glyph glyph-name="Scircumflex" unicode="&#x15c;" horiz-adv-x="556" 
d="M235 -10q-74 0 -124.5 19.5t-76 52.5t-25.5 72q0 40 27 60.5t63 20.5q0 -59 12 -108t42.5 -78t85.5 -29q54 0 88 20.5t49.5 56.5t15.5 82q0 32 -9.5 56.5t-37.5 48.5t-81 54q-45 25 -77.5 53.5t-50 66t-17.5 87.5q0 40 15.5 76t47 64t78 43.5t107.5 15.5q62 0 106 -14
t68 -38.5t24 -56.5q0 -34 -21.5 -54t-68.5 -20q0 31 -2.5 61.5t-12.5 56t-32 40.5t-61 15q-40 0 -71.5 -17.5t-50 -51.5t-18.5 -87q0 -39 14.5 -65t43.5 -46.5t71 -44.5q50 -29 83 -58t48.5 -63t15.5 -75q0 -48 -17 -87.5t-51 -68.5t-84.5 -44.5t-115.5 -15.5zM236 793
q22 21 49 47t52.5 53.5t42.5 50.5h84q8 -22 21.5 -50t29.5 -54.5t28 -46.5l-1 -9h-10q-35 20 -65.5 47.5t-52.5 52.5q-23 -17 -51.5 -35.5t-58.5 -35t-59 -29.5h-11z" />
    <glyph glyph-name="scircumflex" unicode="&#x15d;" horiz-adv-x="478" 
d="M194 -10q-51 0 -89.5 13.5t-60 38.5t-21.5 60q0 28 12.5 43.5t31 21.5t35.5 6q-1 -8 -1.5 -16.5t-0.5 -16.5q0 -41 11 -72.5t34 -49.5t58 -18q53 0 82.5 30.5t29.5 81.5q0 31 -10.5 52.5t-33 38t-60.5 33.5q-39 18 -67 38.5t-43.5 49t-15.5 68.5q0 45 24 79t69.5 54
t108.5 20q59 0 95 -13.5t52.5 -35.5t16.5 -45q0 -34 -24.5 -50t-62.5 -16q1 9 1.5 17.5t0.5 16.5q0 51 -19.5 83.5t-66.5 32.5q-52 0 -74.5 -30.5t-22.5 -71.5q0 -30 11 -50t34 -36t59 -32q40 -17 67.5 -38.5t42 -49.5t14.5 -66q0 -49 -25 -88t-73.5 -61t-118.5 -22z
M159 615q22 21 49 47t52.5 53.5t42.5 50.5h84q8 -22 21.5 -50t29.5 -54.5t28 -46.5l-1 -9h-10q-35 20 -65.5 47.5t-52.5 52.5q-23 -17 -51.5 -35.5t-58.5 -35t-59 -29.5h-11z" />
    <glyph glyph-name="Scedilla" unicode="&#x15e;" horiz-adv-x="556" 
d="M235 -10q-74 0 -124.5 19.5t-76 52.5t-25.5 72q0 40 27 60.5t63 20.5q0 -59 12 -108t42.5 -78t85.5 -29q54 0 88 20.5t49.5 56.5t15.5 82q0 32 -9.5 56.5t-37.5 48.5t-81 54q-45 25 -77.5 53.5t-50 66t-17.5 87.5q0 40 15.5 76t47 64t78 43.5t107.5 15.5q62 0 106 -14
t68 -38.5t24 -56.5q0 -34 -21.5 -54t-68.5 -20q0 31 -2.5 61.5t-12.5 56t-32 40.5t-61 15q-40 0 -71.5 -17.5t-50 -51.5t-18.5 -87q0 -39 14.5 -65t43.5 -46.5t71 -44.5q50 -29 83 -58t48.5 -63t15.5 -75q0 -48 -17 -87.5t-51 -68.5t-84.5 -44.5t-115.5 -15.5zM171 -242
q-28 0 -46 3.5t-33 8.5l2 10q13 -4 26.5 -6t26.5 -2q33 0 53.5 15t31 40.5t10.5 54.5q0 25 -9 39.5t-30 20.5l26 57h10l-20 -44q37 -5 61 -16.5t36 -28t12 -39.5q0 -37 -20.5 -62.5t-56.5 -38t-80 -12.5z" />
    <glyph glyph-name="scedilla" unicode="&#x15f;" horiz-adv-x="478" 
d="M194 -10q-51 0 -89.5 13.5t-60 38.5t-21.5 60q0 28 12.5 43.5t31 21.5t35.5 6q-1 -8 -1.5 -16.5t-0.5 -16.5q0 -41 11 -72.5t34 -49.5t58 -18q53 0 82.5 30.5t29.5 81.5q0 31 -10.5 52.5t-33 38t-60.5 33.5q-39 18 -67 38.5t-43.5 49t-15.5 68.5q0 45 24 79t69.5 54
t108.5 20q59 0 95 -13.5t52.5 -35.5t16.5 -45q0 -34 -24.5 -50t-62.5 -16q1 9 1.5 17.5t0.5 16.5q0 51 -19.5 83.5t-66.5 32.5q-52 0 -74.5 -30.5t-22.5 -71.5q0 -30 11 -50t34 -36t59 -32q40 -17 67.5 -38.5t42 -49.5t14.5 -66q0 -49 -25 -88t-73.5 -61t-118.5 -22z
M132 -241q-28 0 -46 3.5t-33 8.5l2 10q13 -4 26.5 -6t26.5 -2q33 0 53.5 15t31 40.5t10.5 54.5q0 25 -9 39.5t-30 20.5l26 57h10l-20 -44q37 -5 61 -16.5t36 -28t12 -39.5q0 -37 -20.5 -62.5t-56.5 -38t-80 -12.5z" />
    <glyph glyph-name="Scaron" unicode="&#x160;" horiz-adv-x="556" 
d="M235 -10q-74 0 -124.5 19.5t-76 52.5t-25.5 72q0 40 27 60.5t63 20.5q0 -59 12 -108t42.5 -78t85.5 -29q54 0 88 20.5t49.5 56.5t15.5 82q0 32 -9.5 56.5t-37.5 48.5t-81 54q-45 25 -77.5 53.5t-50 66t-17.5 87.5q0 40 15.5 76t47 64t78 43.5t107.5 15.5q62 0 106 -14
t68 -38.5t24 -56.5q0 -34 -21.5 -54t-68.5 -20q0 31 -2.5 61.5t-12.5 56t-32 40.5t-61 15q-40 0 -71.5 -17.5t-50 -51.5t-18.5 -87q0 -39 14.5 -65t43.5 -46.5t71 -44.5q50 -29 83 -58t48.5 -63t15.5 -75q0 -48 -17 -87.5t-51 -68.5t-84.5 -44.5t-115.5 -15.5zM349 784
q-8 24 -22 51.5t-29 54t-28 45.5l2 9h10q33 -21 64.5 -48t53.5 -53q22 17 51 35.5t59.5 35.5t58.5 30h10l-1 -9q-33 -31 -74 -72.5t-70 -78.5h-85z" />
    <glyph glyph-name="scaron" unicode="&#x161;" horiz-adv-x="478" 
d="M194 -10q-51 0 -89.5 13.5t-60 38.5t-21.5 60q0 28 12.5 43.5t31 21.5t35.5 6q-1 -8 -1.5 -16.5t-0.5 -16.5q0 -41 11 -72.5t34 -49.5t58 -18q53 0 82.5 30.5t29.5 81.5q0 31 -10.5 52.5t-33 38t-60.5 33.5q-39 18 -67 38.5t-43.5 49t-15.5 68.5q0 45 24 79t69.5 54
t108.5 20q59 0 95 -13.5t52.5 -35.5t16.5 -45q0 -34 -24.5 -50t-62.5 -16q1 9 1.5 17.5t0.5 16.5q0 51 -19.5 83.5t-66.5 32.5q-52 0 -74.5 -30.5t-22.5 -71.5q0 -30 11 -50t34 -36t59 -32q40 -17 67.5 -38.5t42 -49.5t14.5 -66q0 -49 -25 -88t-73.5 -61t-118.5 -22z
M272 606q-8 24 -22 51.5t-29 54t-28 45.5l2 9h10q33 -21 64.5 -48t53.5 -53q22 17 51 35.5t59.5 35.5t58.5 30h10l-1 -9q-33 -31 -74 -72.5t-70 -78.5h-85z" />
    <glyph glyph-name="uni0162" unicode="&#x162;" horiz-adv-x="624" 
d="M99 0l2 10h12q27 0 48 7.5t34.5 23t18.5 38.5l132 625h-80q-48 0 -81 -12.5t-54.5 -41.5t-35.5 -78l-11 -38h-10l44 180h578l-32 -180h-10q3 18 4.5 33t3 26.5t1.5 19.5q0 50 -27.5 70.5t-89.5 20.5h-83l-132 -623q-2 -7 -3 -12.5t-1 -10.5q0 -24 19 -36t55 -12h12
l-2 -10h-312zM184 -240q-28 0 -46 3.5t-33 8.5l2 10q13 -4 26.5 -6t26.5 -2q33 0 53.5 15t31 40.5t10.5 54.5q0 25 -9 39.5t-30 20.5l26 57h10l-20 -44q37 -5 61 -16.5t36 -28t12 -39.5q0 -37 -20.5 -62.5t-56.5 -38t-80 -12.5z" />
    <glyph glyph-name="uni0163" unicode="&#x163;" horiz-adv-x="381" 
d="M186 -10q-36 0 -61.5 13t-39 39t-13.5 64q0 13 1.5 28t4 29.5t4.5 27.5l72 335h-78l2 10q42 0 74.5 7.5t57 23.5t43 41.5t32.5 62.5h9l-28 -135h121l-2 -10h-121l-73 -336q-3 -16 -6 -33t-5 -32t-2 -27q0 -39 16.5 -57.5t47.5 -18.5q22 0 44.5 8.5t41.5 20.5l5 -9
q-33 -24 -68.5 -38t-78.5 -14zM91 -240q-28 0 -46 3.5t-33 8.5l2 10q13 -4 26.5 -6t26.5 -2q33 0 53.5 15t31 40.5t10.5 54.5q0 25 -9 39.5t-30 20.5l26 57h10l-20 -44q37 -5 61 -16.5t36 -28t12 -39.5q0 -37 -20.5 -62.5t-56.5 -38t-80 -12.5z" />
    <glyph glyph-name="Tcaron" unicode="&#x164;" horiz-adv-x="624" 
d="M99 0l2 10h12q27 0 48 7.5t34.5 23t18.5 38.5l132 625h-80q-48 0 -81 -12.5t-54.5 -41.5t-35.5 -78l-11 -38h-10l44 180h578l-32 -180h-10q3 18 4.5 33t3 26.5t1.5 19.5q0 50 -27.5 70.5t-89.5 20.5h-83l-132 -623q-2 -7 -3 -12.5t-1 -10.5q0 -24 19 -36t55 -12h12
l-2 -10h-312zM384 784q-8 24 -22 51.5t-29 54t-28 45.5l2 9h10q33 -21 64.5 -48t53.5 -53q22 17 51 35.5t59.5 35.5t58.5 30h10l-1 -9q-33 -31 -74 -72.5t-70 -78.5h-85z" />
    <glyph glyph-name="tcaron" unicode="&#x165;" horiz-adv-x="381" 
d="M368 613q19 36 34 72.5t27 74.5h87l-3 -10q-15 -21 -38 -47.5t-48.5 -53t-49.5 -49.5h-11zM186 -10q-36 0 -61.5 13t-39 39t-13.5 64q0 13 1.5 28t4 29.5t4.5 27.5l72 335h-78l2 10q42 0 74.5 7.5t57 23.5t43 41.5t32.5 62.5h9l-28 -135h121l-2 -10h-121l-73 -336
q-3 -16 -6 -33t-5 -32t-2 -27q0 -39 16.5 -57.5t47.5 -18.5q22 0 44.5 8.5t41.5 20.5l5 -9q-33 -24 -68.5 -38t-78.5 -14z" />
    <glyph glyph-name="Tbar" unicode="&#x166;" horiz-adv-x="624" 
d="M111 349l2 10h440l-2 -10h-440zM99 0l2 10h12q27 0 48 7.5t34.5 23t18.5 38.5l132 625h-80q-48 0 -81 -12.5t-54.5 -41.5t-35.5 -78l-11 -38h-10l44 180h578l-32 -180h-10q3 18 4.5 33t3 26.5t1.5 19.5q0 50 -27.5 70.5t-89.5 20.5h-83l-132 -623q-2 -7 -3 -12.5
t-1 -10.5q0 -24 19 -36t55 -12h12l-2 -10h-312z" />
    <glyph glyph-name="tbar" unicode="&#x167;" horiz-adv-x="382" 
d="M29 308l2 10h296l-2 -10h-296zM186 -10q-36 0 -61.5 13t-39 39t-13.5 64q0 13 1.5 28t4 29.5t4.5 27.5l72 335h-78l2 10q42 0 74.5 7.5t57 23.5t43 41.5t32.5 62.5h9l-28 -135h121l-2 -10h-121l-73 -336q-3 -16 -6 -33t-5 -32t-2 -27q0 -39 16.5 -57.5t47.5 -18.5
q22 0 44.5 8.5t41.5 20.5l5 -9q-33 -24 -68.5 -38t-78.5 -14z" />
    <glyph glyph-name="Utilde" unicode="&#x168;" horiz-adv-x="720" 
d="M332 -10q-111 0 -171 45.5t-60 127.5q0 16 3.5 44t7.5 45l81 380q2 9 3.5 19t1.5 15q0 25 -20 31.5t-52 6.5h-13l2 10h306l-1 -10h-13q-22 0 -42 -4.5t-34 -19t-21 -44.5l-83 -388q-3 -18 -6 -35t-5 -33.5t-2 -34.5q0 -68 32.5 -106t96.5 -38q79 0 130 27t80.5 74
t42.5 107l91 428q2 7 3 16t1 13q0 25 -20 31.5t-52 6.5h-15l2 10h204l-2 -10h-14q-22 0 -42 -4.5t-34.5 -19t-20.5 -45.5l-91 -427q-14 -69 -47.5 -117.5t-89 -74.5t-137.5 -26zM564 785q-29 0 -49.5 9.5t-37.5 22.5t-37 23t-49 10q-22 0 -35.5 -8.5t-22 -21t-14.5 -26.5
h-10q9 33 26 61t43.5 46t62.5 18q29 0 48.5 -10t37 -23t38 -22.5t49.5 -9.5q32 0 46 17t24 38h10q-8 -31 -24.5 -59.5t-43 -46.5t-62.5 -18z" />
    <glyph glyph-name="utilde" unicode="&#x169;" horiz-adv-x="622" 
d="M469 -10q-30 0 -51 13t-31 34.5t-10 47.5q0 7 0.5 18t2 23t2.5 22h-4q-24 -47 -53 -82.5t-65 -55t-82 -19.5q-40 0 -64 15.5t-34.5 41t-10.5 54.5q0 25 6 55t12 55l45 210q3 16 6 34t3 26q0 28 -18 36t-47 8h-11l2 10h200l-68 -310q-4 -18 -8.5 -40.5t-7.5 -44t-3 -35.5
q0 -38 12 -61t43 -23q23 0 47.5 18t46.5 46.5t38 61t22 61.5l70 327h113l-72 -334q-2 -12 -6 -32t-6 -40t-2 -34q0 -36 11 -54t32 -18q18 0 34.5 8.5t35.5 24.5l5 -7q-22 -21 -57 -40.5t-78 -19.5zM450 607q-29 0 -49.5 9.5t-37.5 22.5t-37 23t-49 10q-22 0 -35.5 -8.5
t-22 -21t-14.5 -26.5h-10q9 33 26 61t43.5 46t62.5 18q29 0 48.5 -10t37 -23t38 -22.5t49.5 -9.5q32 0 46 17t24 38h10q-8 -31 -24.5 -59.5t-43 -46.5t-62.5 -18z" />
    <glyph glyph-name="Umacron" unicode="&#x16a;" horiz-adv-x="720" 
d="M332 -10q-111 0 -171 45.5t-60 127.5q0 16 3.5 44t7.5 45l81 380q2 9 3.5 19t1.5 15q0 25 -20 31.5t-52 6.5h-13l2 10h306l-1 -10h-13q-22 0 -42 -4.5t-34 -19t-21 -44.5l-83 -388q-3 -18 -6 -35t-5 -33.5t-2 -34.5q0 -68 32.5 -106t96.5 -38q79 0 130 27t80.5 74
t42.5 107l91 428q2 7 3 16t1 13q0 25 -20 31.5t-52 6.5h-15l2 10h204l-2 -10h-14q-22 0 -42 -4.5t-34.5 -19t-20.5 -45.5l-91 -427q-14 -69 -47.5 -117.5t-89 -74.5t-137.5 -26zM353 807l4 20h290l-4 -20h-290z" />
    <glyph glyph-name="umacron" unicode="&#x16b;" horiz-adv-x="622" 
d="M469 -10q-30 0 -51 13t-31 34.5t-10 47.5q0 7 0.5 18t2 23t2.5 22h-4q-24 -47 -53 -82.5t-65 -55t-82 -19.5q-40 0 -64 15.5t-34.5 41t-10.5 54.5q0 25 6 55t12 55l45 210q3 16 6 34t3 26q0 28 -18 36t-47 8h-11l2 10h200l-68 -310q-4 -18 -8.5 -40.5t-7.5 -44t-3 -35.5
q0 -38 12 -61t43 -23q23 0 47.5 18t46.5 46.5t38 61t22 61.5l70 327h113l-72 -334q-2 -12 -6 -32t-6 -40t-2 -34q0 -36 11 -54t32 -18q18 0 34.5 8.5t35.5 24.5l5 -7q-22 -21 -57 -40.5t-78 -19.5zM238 629l4 20h290l-4 -20h-290z" />
    <glyph glyph-name="Ubreve" unicode="&#x16c;" horiz-adv-x="720" 
d="M332 -10q-111 0 -171 45.5t-60 127.5q0 16 3.5 44t7.5 45l81 380q2 9 3.5 19t1.5 15q0 25 -20 31.5t-52 6.5h-13l2 10h306l-1 -10h-13q-22 0 -42 -4.5t-34 -19t-21 -44.5l-83 -388q-3 -18 -6 -35t-5 -33.5t-2 -34.5q0 -68 32.5 -106t96.5 -38q79 0 130 27t80.5 74
t42.5 107l91 428q2 7 3 16t1 13q0 25 -20 31.5t-52 6.5h-15l2 10h204l-2 -10h-14q-22 0 -42 -4.5t-34.5 -19t-20.5 -45.5l-91 -427q-14 -69 -47.5 -117.5t-89 -74.5t-137.5 -26zM488 784q-63 0 -94.5 37.5t-35.5 105.5h10q6 -34 39.5 -53t87.5 -19q37 0 65 7.5t49 23.5
t34 41h10q-8 -39 -30 -72t-55.5 -52t-79.5 -19z" />
    <glyph glyph-name="ubreve" unicode="&#x16d;" horiz-adv-x="622" 
d="M469 -10q-30 0 -51 13t-31 34.5t-10 47.5q0 7 0.5 18t2 23t2.5 22h-4q-24 -47 -53 -82.5t-65 -55t-82 -19.5q-40 0 -64 15.5t-34.5 41t-10.5 54.5q0 25 6 55t12 55l45 210q3 16 6 34t3 26q0 28 -18 36t-47 8h-11l2 10h200l-68 -310q-4 -18 -8.5 -40.5t-7.5 -44t-3 -35.5
q0 -38 12 -61t43 -23q23 0 47.5 18t46.5 46.5t38 61t22 61.5l70 327h113l-72 -334q-2 -12 -6 -32t-6 -40t-2 -34q0 -36 11 -54t32 -18q18 0 34.5 8.5t35.5 24.5l5 -7q-22 -21 -57 -40.5t-78 -19.5zM374 606q-63 0 -94.5 37.5t-35.5 105.5h10q6 -34 39.5 -53t87.5 -19
q37 0 65 7.5t49 23.5t34 41h10q-8 -39 -30 -72t-55.5 -52t-79.5 -19z" />
    <glyph glyph-name="Uring" unicode="&#x16e;" horiz-adv-x="720" 
d="M332 -10q-111 0 -171 45.5t-60 127.5q0 16 3.5 44t7.5 45l81 380q2 9 3.5 19t1.5 15q0 25 -20 31.5t-52 6.5h-13l2 10h306l-1 -10h-13q-22 0 -42 -4.5t-34 -19t-21 -44.5l-83 -388q-3 -18 -6 -35t-5 -33.5t-2 -34.5q0 -68 32.5 -106t96.5 -38q79 0 130 27t80.5 74
t42.5 107l91 428q2 7 3 16t1 13q0 25 -20 31.5t-52 6.5h-15l2 10h204l-2 -10h-14q-22 0 -42 -4.5t-34.5 -19t-20.5 -45.5l-91 -427q-14 -69 -47.5 -117.5t-89 -74.5t-137.5 -26zM512 772q-50 0 -85 28t-35 81q0 54 35 82t85 28t85 -28t35 -82q0 -53 -35 -81t-85 -28z
M512 782q47 0 77.5 25t30.5 75t-30.5 74.5t-77.5 24.5t-77.5 -24.5t-30.5 -74.5t30.5 -75t77.5 -25z" />
    <glyph glyph-name="uring" unicode="&#x16f;" horiz-adv-x="622" 
d="M469 -10q-30 0 -51 13t-31 34.5t-10 47.5q0 7 0.5 18t2 23t2.5 22h-4q-24 -47 -53 -82.5t-65 -55t-82 -19.5q-40 0 -64 15.5t-34.5 41t-10.5 54.5q0 25 6 55t12 55l45 210q3 16 6 34t3 26q0 28 -18 36t-47 8h-11l2 10h200l-68 -310q-4 -18 -8.5 -40.5t-7.5 -44t-3 -35.5
q0 -38 12 -61t43 -23q23 0 47.5 18t46.5 46.5t38 61t22 61.5l70 327h113l-72 -334q-2 -12 -6 -32t-6 -40t-2 -34q0 -36 11 -54t32 -18q18 0 34.5 8.5t35.5 24.5l5 -7q-22 -21 -57 -40.5t-78 -19.5zM398 594q-50 0 -85 28t-35 81q0 54 35 82t85 28t85 -28t35 -82
q0 -53 -35 -81t-85 -28zM398 604q47 0 77.5 25t30.5 75t-30.5 74.5t-77.5 24.5t-77.5 -24.5t-30.5 -74.5t30.5 -75t77.5 -25z" />
    <glyph glyph-name="Uhungarumlaut" unicode="&#x170;" horiz-adv-x="720" 
d="M332 -10q-111 0 -171 45.5t-60 127.5q0 16 3.5 44t7.5 45l81 380q2 9 3.5 19t1.5 15q0 25 -20 31.5t-52 6.5h-13l2 10h306l-1 -10h-13q-22 0 -42 -4.5t-34 -19t-21 -44.5l-83 -388q-3 -18 -6 -35t-5 -33.5t-2 -34.5q0 -68 32.5 -106t96.5 -38q79 0 130 27t80.5 74
t42.5 107l91 428q2 7 3 16t1 13q0 25 -20 31.5t-52 6.5h-15l2 10h204l-2 -10h-14q-22 0 -42 -4.5t-34.5 -19t-20.5 -45.5l-91 -427q-14 -69 -47.5 -117.5t-89 -74.5t-137.5 -26zM530 783q26 33 54.5 75.5t43.5 75.5h99l-2 -9q-12 -14 -34 -34t-48.5 -41.5t-53.5 -41
t-48 -34.5h-12zM351 783q26 33 54 75t43 76h100l-3 -9q-12 -14 -34 -34t-48.5 -41.5t-53.5 -41t-48 -34.5h-12z" />
    <glyph glyph-name="uhungarumlaut" unicode="&#x171;" horiz-adv-x="622" 
d="M469 -10q-30 0 -51 13t-31 34.5t-10 47.5q0 7 0.5 18t2 23t2.5 22h-4q-24 -47 -53 -82.5t-65 -55t-82 -19.5q-40 0 -64 15.5t-34.5 41t-10.5 54.5q0 25 6 55t12 55l45 210q3 16 6 34t3 26q0 28 -18 36t-47 8h-11l2 10h200l-68 -310q-4 -18 -8.5 -40.5t-7.5 -44t-3 -35.5
q0 -38 12 -61t43 -23q23 0 47.5 18t46.5 46.5t38 61t22 61.5l70 327h113l-72 -334q-2 -12 -6 -32t-6 -40t-2 -34q0 -36 11 -54t32 -18q18 0 34.5 8.5t35.5 24.5l5 -7q-22 -21 -57 -40.5t-78 -19.5zM416 605q26 33 54.5 75.5t43.5 75.5h99l-2 -9q-12 -14 -34 -34t-48.5 -41.5
t-53.5 -41t-48 -34.5h-12zM237 605q26 33 54 75t43 76h100l-3 -9q-12 -14 -34 -34t-48.5 -41.5t-53.5 -41t-48 -34.5h-12z" />
    <glyph glyph-name="Uogonek" unicode="&#x172;" horiz-adv-x="720" 
d="M332 -10q-111 0 -171 45.5t-60 127.5q0 16 3.5 44t7.5 45l81 380q2 9 3.5 19t1.5 15q0 25 -20 31.5t-52 6.5h-13l2 10h306l-1 -10h-13q-22 0 -42 -4.5t-34 -19t-21 -44.5l-83 -388q-3 -18 -6 -35t-5 -33.5t-2 -34.5q0 -68 32.5 -106t96.5 -38q79 0 130 27t80.5 74
t42.5 107l91 428q2 7 3 16t1 13q0 25 -20 31.5t-52 6.5h-15l2 10h204l-2 -10h-14q-22 0 -42 -4.5t-34.5 -19t-20.5 -45.5l-91 -427q-14 -69 -47.5 -117.5t-89 -74.5t-137.5 -26zM319 -239q-54 0 -85 23.5t-31 65.5q0 29 13.5 52t37.5 41.5t56 33t69 25.5h21
q-28 -12 -52 -30.5t-39 -49t-15 -79.5q0 -32 15.5 -49.5t42.5 -17.5q9 0 24 3t32 9l-2 -10q-17 -7 -40 -12t-47 -5z" />
    <glyph glyph-name="uogonek" unicode="&#x173;" horiz-adv-x="622" 
d="M469 -10q-30 0 -51 13t-31 34.5t-10 47.5q0 7 0.5 18t2 23t2.5 22h-4q-24 -47 -53 -82.5t-65 -55t-82 -19.5q-40 0 -64 15.5t-34.5 41t-10.5 54.5q0 25 6 55t12 55l45 210q3 16 6 34t3 26q0 28 -18 36t-47 8h-11l2 10h200l-68 -310q-4 -18 -8.5 -40.5t-7.5 -44t-3 -35.5
q0 -38 12 -61t43 -23q23 0 47.5 18t46.5 46.5t38 61t22 61.5l70 327h113l-72 -334q-2 -12 -6 -32t-6 -40t-2 -34q0 -36 11 -54t32 -18q18 0 34.5 8.5t35.5 24.5l5 -7q-22 -21 -57 -40.5t-78 -19.5zM425 -239q-54 0 -85 23.5t-31 65.5q0 29 13.5 52t37.5 41.5t56 33t69 25.5
h21q-28 -12 -52 -30.5t-39 -49t-15 -79.5q0 -32 15.5 -49.5t42.5 -17.5q9 0 24 3t32 9l-2 -10q-17 -7 -40 -12t-47 -5z" />
    <glyph glyph-name="Wcircumflex" unicode="&#x174;" horiz-adv-x="1051" 
d="M167 652q-2 21 -8.5 32.5t-18.5 15.5t-31 4h-13l2 10h287l-2 -10h-25q-32 0 -52 -12t-20 -36q0 -8 0.5 -18t1.5 -19l27 -351q3 -32 4.5 -55.5t3 -41.5t2 -32t1 -27t1.5 -26q16 34 32 67t40 86l218 468h47l59 -433q3 -29 6.5 -55.5t6 -49.5t4.5 -42t3 -34q8 15 16.5 34
t18 41t21 47t24.5 51l162 347q9 19 12.5 31t3.5 25q0 18 -13 26.5t-44 8.5h-38l2 10h229l-2 -10h-24q-23 0 -41.5 -5t-34.5 -21.5t-32 -50.5l-294 -627h-72l-72 568l-267 -568h-75zM484 793q22 21 49 47t52.5 53.5t42.5 50.5h84q8 -22 21.5 -50t29.5 -54.5t28 -46.5l-1 -9
h-10q-35 20 -65.5 47.5t-52.5 52.5q-23 -17 -51.5 -35.5t-58.5 -35t-59 -29.5h-11z" />
    <glyph glyph-name="wcircumflex" unicode="&#x175;" horiz-adv-x="819" 
d="M447 -10q0 40 -1.5 90t-3.5 103.5t-4 107.5t-4 103.5t-3 89.5q-12 -29 -30 -71.5t-40 -90.5t-45.5 -97t-45 -93t-39 -78t-28.5 -53l-85 -9l-8 466q0 29 -7 43.5t-18 19.5t-28 5h-11l3 10h163q1 -44 2 -94t1.5 -101t1 -101t0.5 -97t-1 -89h3q18 34 40.5 78t46.5 95
t47 103.5t44.5 102.5t39.5 94l91 5q3 -28 5 -74t4.5 -101t4 -113t2.5 -112.5t1 -98.5h2q61 73 109 139t76.5 124.5t28.5 107.5q0 37 -18.5 55t-57.5 24q2 28 18 45.5t42 17.5q28 0 43 -19.5t15 -58.5q0 -47 -20 -99.5t-56.5 -111.5t-86 -123.5t-106.5 -133.5zM336 615
q22 21 49 47t52.5 53.5t42.5 50.5h84q8 -22 21.5 -50t29.5 -54.5t28 -46.5l-1 -9h-10q-35 20 -65.5 47.5t-52.5 52.5q-23 -17 -51.5 -35.5t-58.5 -35t-59 -29.5h-11z" />
    <glyph glyph-name="Ycircumflex" unicode="&#x176;" horiz-adv-x="644" 
d="M105 0l2 10h24q33 0 59 11t36 54l45 214l-111 362q-9 29 -19.5 41t-37.5 12h-13l2 10h286l-2 -10h-52q-21 0 -30.5 -7t-9.5 -21q0 -7 1.5 -16t4 -20t6.5 -23l56 -207q6 -20 11 -39.5t10.5 -38t9.5 -37.5l32 46t34 50l149 217q16 23 22.5 37t6.5 27q0 17 -11.5 24.5
t-39.5 7.5h-62l2 10h225l-2 -10h-22q-16 0 -30.5 -8t-28.5 -24t-32 -41l-239 -347l-44 -208q-2 -7 -3.5 -15t-1.5 -13q0 -24 21 -31t52 -7h23l-2 -10h-327zM284 793q22 21 49 47t52.5 53.5t42.5 50.5h84q8 -22 21.5 -50t29.5 -54.5t28 -46.5l-1 -9h-10q-35 20 -65.5 47.5
t-52.5 52.5q-23 -17 -51.5 -35.5t-58.5 -35t-59 -29.5h-11z" />
    <glyph glyph-name="ycircumflex" unicode="&#x177;" horiz-adv-x="528" 
d="M-59 -240q-29 0 -55.5 5.5t-45.5 14.5l3 10q13 -4 35 -8t60 -4q47 0 88 9.5t77 28t67 46.5t57 64l-148 547q-8 30 -19 41.5t-38 11.5h-10l2 10h167l70 -286q5 -19 12 -50.5t15.5 -65.5t14.5 -62t8 -42h2q33 49 63 99t54 98t37.5 90t13.5 74q0 25 -10 42t-32 26t-58 9
q0 38 20.5 57.5t47.5 19.5q34 0 52 -21.5t18 -63.5q0 -53 -21.5 -116t-60.5 -134.5t-91 -149.5q-51 -76 -93 -132.5t-84.5 -93.5t-94.5 -55.5t-123 -18.5zM150 615q22 21 49 47t52.5 53.5t42.5 50.5h84q8 -22 21.5 -50t29.5 -54.5t28 -46.5l-1 -9h-10q-35 20 -65.5 47.5
t-52.5 52.5q-23 -17 -51.5 -35.5t-58.5 -35t-59 -29.5h-11z" />
    <glyph glyph-name="Ydieresis" unicode="&#x178;" horiz-adv-x="644" 
d="M105 0l2 10h24q33 0 59 11t36 54l45 214l-111 362q-9 29 -19.5 41t-37.5 12h-13l2 10h286l-2 -10h-52q-21 0 -30.5 -7t-9.5 -21q0 -7 1.5 -16t4 -20t6.5 -23l56 -207q6 -20 11 -39.5t10.5 -38t9.5 -37.5l32 46t34 50l149 217q16 23 22.5 37t6.5 27q0 17 -11.5 24.5
t-39.5 7.5h-62l2 10h225l-2 -10h-22q-16 0 -30.5 -8t-28.5 -24t-32 -41l-239 -347l-44 -208q-2 -7 -3.5 -15t-1.5 -13q0 -24 21 -31t52 -7h23l-2 -10h-327zM548 807q-21 0 -34 13t-13 40q0 20 6 35t18 23.5t27 8.5q20 0 33 -13t13 -40q0 -37 -16 -52t-34 -15zM353 807
q-21 0 -33.5 13t-12.5 40q0 20 6 35t17.5 23.5t26.5 8.5q20 0 33 -13t13 -40q0 -37 -16 -52t-34 -15z" />
    <glyph glyph-name="Zacute" unicode="&#x179;" horiz-adv-x="622" 
d="M-18 0l2 10l522 694h-226q-45 0 -76 -14.5t-51.5 -42t-33.5 -66.5l-15 -51h-10l44 184h508l-2 -10l-524 -694h249q54 0 88 17t54.5 47t32.5 70l13 40h10l-44 -184h-541zM332 784q17 22 35.5 48t36 53t31.5 49h104l-3 -10q-12 -13 -35 -32t-50.5 -41t-56 -42t-52.5 -35
h-12z" />
    <glyph glyph-name="zacute" unicode="&#x17a;" horiz-adv-x="517" 
d="M0 0l2 10l366 516h-127q-39 0 -66.5 -12t-46.5 -38.5t-33 -71.5l-5 -16h-10l41 148h368l-2 -10l-379 -516h172q47 0 75.5 13t47 41t32.5 71l11 32h10l-40 -167h-416zM258 606q17 22 35.5 48t36 53t31.5 49h104l-3 -10q-12 -13 -35 -32t-50.5 -41t-56 -42t-52.5 -35h-12z
" />
    <glyph glyph-name="Zdotaccent" unicode="&#x17b;" horiz-adv-x="622" 
d="M-18 0l2 10l522 694h-226q-45 0 -76 -14.5t-51.5 -42t-33.5 -66.5l-15 -51h-10l44 184h508l-2 -10l-524 -694h249q54 0 88 17t54.5 47t32.5 70l13 40h10l-44 -184h-541zM394 811q-22 0 -37 12.5t-15 40.5q0 24 7.5 39.5t21 22.5t30.5 7q22 0 37 -11t15 -42
q0 -38 -18.5 -53.5t-40.5 -15.5z" />
    <glyph glyph-name="zdotaccent" unicode="&#x17c;" horiz-adv-x="517" 
d="M0 0l2 10l366 516h-127q-39 0 -66.5 -12t-46.5 -38.5t-33 -71.5l-5 -16h-10l41 148h368l-2 -10l-379 -516h172q47 0 75.5 13t47 41t32.5 71l11 32h10l-40 -167h-416zM321 633q-22 0 -37 12.5t-15 40.5q0 24 7.5 39.5t21 22.5t30.5 7q22 0 37 -11t15 -42
q0 -38 -18.5 -53.5t-40.5 -15.5z" />
    <glyph glyph-name="Zcaron" unicode="&#x17d;" horiz-adv-x="622" 
d="M-18 0l2 10l522 694h-226q-45 0 -76 -14.5t-51.5 -42t-33.5 -66.5l-15 -51h-10l44 184h508l-2 -10l-524 -694h249q54 0 88 17t54.5 47t32.5 70l13 40h10l-44 -184h-541zM340 784q-8 24 -22 51.5t-29 54t-28 45.5l2 9h10q33 -21 64.5 -48t53.5 -53q22 17 51 35.5
t59.5 35.5t58.5 30h10l-1 -9q-33 -31 -74 -72.5t-70 -78.5h-85z" />
    <glyph glyph-name="zcaron" unicode="&#x17e;" horiz-adv-x="517" 
d="M0 0l2 10l366 516h-127q-39 0 -66.5 -12t-46.5 -38.5t-33 -71.5l-5 -16h-10l41 148h368l-2 -10l-379 -516h172q47 0 75.5 13t47 41t32.5 71l11 32h10l-40 -167h-416zM267 606q-8 24 -22 51.5t-29 54t-28 45.5l2 9h10q33 -21 64.5 -48t53.5 -53q22 17 51 35.5t59.5 35.5
t58.5 30h10l-1 -9q-33 -31 -74 -72.5t-70 -78.5h-85z" />
    <glyph glyph-name="longs" unicode="&#x17f;" horiz-adv-x="329" 
d="M-81 -240q-15 0 -32 2.5t-27 5.5l2 10q8 -2 21.5 -4.5t23.5 -2.5q35 0 58.5 20.5t41 67t33.5 123.5l128 604q18 90 67 137t136 47q68 0 102.5 -21.5t34.5 -56.5q0 -33 -23.5 -49.5t-68.5 -16.5q1 57 -7 95.5t-39 38.5q-35 0 -52.5 -33.5t-34.5 -117.5l-129 -608
q-15 -71 -38 -118t-53 -73.5t-66 -38t-78 -11.5z" />
    <glyph glyph-name="uni0180" unicode="&#x180;" horiz-adv-x="579" 
d="M70 624l2 10h351l-2 -10h-351zM247 -10q-36 0 -61 10t-46 30l-64 -33h-39l139 654q5 20 7 33t2 21q0 28 -18.5 36.5t-46.5 8.5h-12l2 10h204l-46 -215q-4 -19 -10.5 -45t-14 -51.5t-12.5 -44.5h3q23 44 49 75.5t59.5 49t75.5 17.5q39 0 68 -20t46 -60.5t17 -102.5
q0 -43 -11.5 -93.5t-35 -100t-59.5 -90t-84.5 -65t-111.5 -24.5zM233 2q40 0 71.5 25.5t56 68.5t40.5 94.5t24 103t8 92.5q0 48 -6.5 78t-19.5 44t-33 14q-28 0 -53.5 -19.5t-45 -48.5t-33 -59.5t-18.5 -51.5l-67 -308q12 -14 31 -23.5t45 -9.5z" />
    <glyph glyph-name="uni0181" unicode="&#x181;" horiz-adv-x="770" 
d="M68 0l2 10h13q33 0 60 12t36 57l114 541q2 14 4.5 25.5t2.5 18.5q0 22 -15 31t-42 9q-34 0 -55.5 -13.5t-32 -36.5t-10.5 -52q0 -24 5 -36.5t13 -21.5q-9 -8 -19.5 -11.5t-21.5 -3.5q-25 0 -39 17t-14 44q0 38 20.5 66t59 43t89.5 15h254q118 0 176 -38t58 -112
q0 -60 -30.5 -100.5t-84 -61.5t-122.5 -26v-2q61 -3 104.5 -20.5t67 -49.5t23.5 -80q0 -54 -18.5 -95.5t-54.5 -70t-90 -43.5t-125 -15h-328zM370 10q51 0 87.5 15.5t59 45.5t33 72.5t10.5 95.5q0 67 -32 99t-97 32h-74l-76 -360h89zM430 380q44 0 77 13t53.5 37t30.5 58
t10 76q0 69 -29.5 104.5t-91.5 35.5h-52l-69 -324h71z" />
    <glyph glyph-name="uni0182" unicode="&#x182;" horiz-adv-x="608" 
d="M-22 0l2 10h13q24 0 43.5 5t33.5 20t20 44l117 555q3 8 4 17.5t1 13.5q0 26 -21 32.5t-51 6.5h-13l2 10h482l-33 -178h-10q2 11 4 31.5t2 31.5q0 34 -8.5 57t-29.5 35.5t-56 12.5h-141l-68 -314h61q70 0 116.5 -12.5t74 -36t39 -53t11.5 -64.5q0 -51 -17.5 -92.5t-53 -71
t-90 -45t-127.5 -15.5h-307zM260 10q42 0 73 10.5t53 30t36 46.5t20.5 60t6.5 70q0 80 -30 116.5t-92 36.5h-58l-78 -370h69z" />
    <glyph glyph-name="uni0183" unicode="&#x183;" horiz-adv-x="581" 
d="M236 -10q-37 0 -62 10t-45 30l-65 -33h-39l139 654q5 20 7.5 34.5t2.5 19.5q0 28 -19 36.5t-47 8.5h-12l2 10h441l-33 -161h-10q4 20 7 41t3 46q0 31 -21.5 47.5t-70.5 16.5h-114l-44 -205q-4 -19 -10.5 -45t-14 -51.5t-12.5 -44.5h3q23 44 49.5 75.5t59.5 49t75 17.5
q39 0 68 -20t46 -60.5t17 -102.5q0 -43 -11.5 -93.5t-34.5 -100t-59 -90t-85 -65t-111 -24.5zM221 2q40 0 71.5 25.5t56 68.5t40.5 94.5t24 103t8 92.5q0 48 -6.5 78t-19.5 44t-32 14q-29 0 -54.5 -19.5t-45 -48.5t-33 -59.5t-18.5 -51.5l-66 -308q11 -14 30 -23.5t45 -9.5z
" />
    <glyph glyph-name="uni0184" unicode="&#x184;" horiz-adv-x="592" 
d="M295 -7q-71 0 -113.5 22t-62.5 59t-20 81q0 25 4 49.5t9 50.5l80 379q2 8 3.5 17.5t1.5 13.5q0 26 -21 32.5t-51 6.5h-13l2 10h309l-2 -10h-15q-23 0 -43 -4.5t-34 -19.5t-20 -45l-52 -245h75q82 0 131.5 -18t72 -51.5t22.5 -81.5q0 -36 -9.5 -72t-30 -67t-51.5 -55.5
t-74 -38t-98 -13.5zM296 3q27 0 49.5 14t39.5 38t28.5 54.5t17 64t5.5 64.5q0 80 -28.5 111t-91.5 31h-61l-31 -144q-7 -34 -11 -64t-4 -52q0 -57 20.5 -87t66.5 -30z" />
    <glyph glyph-name="uni0185" unicode="&#x185;" horiz-adv-x="555" 
d="M223 -10q-43 0 -74 11.5t-50.5 33t-28.5 52t-9 68.5q0 29 4.5 63t12.5 74l75 359q5 20 7 34.5t2 19.5q0 28 -18.5 36.5t-46.5 8.5h-12l2 10h204l-46 -215q-3 -16 -7.5 -36.5t-10.5 -42.5t-10.5 -42.5t-8.5 -35.5h2q22 53 48.5 88t60.5 52.5t76 17.5q39 0 68 -20t46 -60.5
t17 -101.5q0 -44 -12 -94.5t-36 -100t-60.5 -90t-85 -65t-109.5 -24.5zM226 1q37 0 66 27t51 70t37 93.5t22 99t7 84.5q0 80 -17 113.5t-43 33.5q-25 0 -48.5 -18t-44 -50t-37.5 -72.5t-29.5 -85t-19 -88t-6.5 -81.5q0 -65 14.5 -95.5t47.5 -30.5z" />
    <glyph glyph-name="uni0186" unicode="&#x186;" horiz-adv-x="645" 
d="M338 724q89 0 152.5 -32t97 -93t33.5 -149q0 -66 -17.5 -132t-52 -125.5t-84.5 -105t-116 -72t-147 -26.5q-94 0 -143 31t-49 81q0 39 29.5 60.5t75.5 21.5q0 -32 1 -64.5t9.5 -59.5t28 -43.5t55.5 -16.5q51 0 94.5 27t79 73.5t60 106.5t38 127t13.5 133q0 82 -19.5 137
t-58 82.5t-96.5 27.5q-51 0 -84.5 -18.5t-56 -52.5t-38.5 -79q-9 3 -15 12.5t-6 20.5q0 28 23 58t70.5 50t122.5 20z" />
    <glyph glyph-name="uni0187" unicode="&#x187;" horiz-adv-x="638" 
d="M670 602l-4 26l12 57q13 62 26 100t31.5 56t47.5 18q24 0 40.5 -14t16.5 -40q0 -12 -5.5 -23.5t-16.5 -20.5q-9 9 -22 15t-29 6q-21 0 -35.5 -8.5t-24.5 -28.5t-18 -55zM345 -10q-89 0 -152.5 32t-97 93t-33.5 149q0 66 17.5 132t52 125.5t84.5 105t116 72t147 26.5
q94 0 143 -31t49 -81q0 -39 -29.5 -60.5t-75.5 -21.5q0 32 -1 64.5t-9.5 59.5t-28 43.5t-55.5 16.5q-51 0 -94.5 -27t-79 -73.5t-60 -106.5t-38 -127t-13.5 -133q0 -82 19.5 -137t58 -82.5t96.5 -27.5q51 0 84.5 18.5t56 52.5t38.5 79q9 -3 15 -12.5t6 -20.5q0 -28 -23 -58
t-70.5 -50t-122.5 -20z" />
    <glyph glyph-name="uni0188" unicode="&#x188;" horiz-adv-x="541" 
d="M493 436l-5 23l29 149q17 82 38.5 116.5t62.5 34.5q25 0 41.5 -14.5t16.5 -40.5q0 -11 -5.5 -22.5t-16.5 -20.5q-8 10 -21 16t-27 6q-35 0 -53.5 -23t-27.5 -69zM243 -10q-62 0 -108 23t-71.5 69.5t-25.5 117.5q0 43 11 90.5t33.5 92.5t58.5 82t85.5 59t113.5 22
q54 0 88 -14t50 -36.5t16 -48.5q0 -20 -11 -37t-33.5 -27t-57.5 -10q1 10 1.5 21.5t0.5 23.5q0 56 -15 86.5t-50 30.5q-32 0 -59 -22t-48.5 -60t-36 -84.5t-22.5 -94t-8 -89.5q0 -90 25.5 -136.5t80.5 -46.5q36 0 62 15.5t44.5 45t31.5 68.5q9 -3 15 -11t6 -18
q0 -23 -18.5 -49t-57 -44.5t-101.5 -18.5z" />
    <glyph glyph-name="uni0189" unicode="&#x189;" horiz-adv-x="737" 
d="M59 371l2 10h366l-2 -10h-366zM-22 0l3 10h13q33 0 60 12t36 57l117 556q2 8 3.5 16.5t1.5 14.5q0 25 -21.5 31.5t-50.5 6.5h-13l2 10h291q140 0 215 -69.5t75 -202.5q0 -69 -16.5 -134.5t-49 -121.5t-82 -97.5t-115 -65t-148.5 -23.5h-321zM266 11q63 0 113.5 22.5
t88.5 63.5t64 97.5t39 124.5t13 144q0 85 -20 138t-59 78t-98 25h-69l-147 -693h75z" />
    <glyph glyph-name="uni018A" unicode="&#x18a;" horiz-adv-x="831" 
d="M72 0l3 10h13q22 0 41.5 4.5t34 19.5t20.5 45l117 554q2 8 3.5 18t1.5 15q0 22 -17.5 30t-42.5 8q-49 0 -74.5 -28.5t-25.5 -73.5q0 -24 5 -36.5t12 -21.5q-9 -8 -19.5 -11.5t-21.5 -3.5q-25 0 -39 17t-14 47q0 32 18 59.5t56.5 44.5t97.5 17h273q140 0 215 -69.5
t75 -202.5q0 -87 -25.5 -166.5t-77 -141.5t-128.5 -98t-180 -36h-321zM360 10q79 0 138.5 35t99.5 96.5t60 144t20 177.5q0 64 -12 109.5t-35 74.5t-55.5 43t-73.5 14h-69l-148 -694h75z" />
    <glyph glyph-name="uni018B" unicode="&#x18b;" horiz-adv-x="633" 
d="M264 0q-73 0 -125.5 20.5t-81 60t-28.5 99.5q0 36 12.5 75.5t45 74t92.5 56.5t157 22h68l63 296h-150q-39 0 -69.5 -13.5t-52 -41t-35.5 -69.5l-15 -46h-10l43 180h501l-2 -10h-13q-21 0 -40.5 -4.5t-33.5 -19t-20 -45.5l-119 -557q-2 -8 -3.5 -16.5t-1.5 -13.5
q0 -24 20.5 -31t51.5 -7h13l-2 -10h-265zM280 10h39l83 388h-42q-58 0 -98 -18t-64.5 -50t-35.5 -72.5t-11 -85.5q0 -47 14 -83.5t43 -57.5t72 -21z" />
    <glyph glyph-name="uni018C" unicode="&#x18c;" horiz-adv-x="583" 
d="M176 -10q-44 0 -74 23.5t-45 65.5t-15 98q0 45 12 95.5t36.5 98.5t60.5 88t84 63.5t109 23.5q29 0 53.5 -6t43.5 -17q2 13 5.5 29t5.5 27l36 171h-144q-40 0 -67.5 -10.5t-47 -35.5t-36.5 -69l-13 -35h-10l40 160h391l-117 -548q-2 -12 -6.5 -34t-7 -44t-2.5 -36
q0 -36 9.5 -55t30.5 -19q18 0 38.5 10.5t37.5 23.5l6 -8q-16 -14 -39.5 -28t-51 -23t-55.5 -9q-38 0 -60.5 22.5t-22.5 63.5q0 17 2 37t7 43h-4q-22 -56 -51 -92.5t-64 -55t-75 -18.5zM225 19q24 0 46.5 17t42.5 44t34.5 58.5t20.5 60.5l66 310q-13 10 -32.5 17.5t-43.5 7.5
q-39 0 -70.5 -24t-56 -65t-41 -90t-25 -99.5t-8.5 -94.5q0 -51 9 -82t24 -45.5t34 -14.5z" />
    <glyph glyph-name="uni018D" unicode="&#x18d;" horiz-adv-x="587" 
d="M336 546q67 0 115 -23.5t73 -66.5t25 -101q0 -74 -30.5 -127t-90 -86.5t-145.5 -48.5q41 -29 68.5 -68t27.5 -88q0 -56 -28 -93t-74 -55t-102 -18q-59 0 -96.5 13.5t-56.5 35t-19 45.5q0 38 26.5 57t64.5 19q0 -48 6.5 -84t24 -56t52.5 -20q49 0 76.5 36t27.5 87
q0 27 -10.5 49.5t-32.5 44t-55 47.5q-41 30 -70 62t-44.5 68.5t-15.5 82.5q0 86 37.5 151t101.5 101t144 36zM335 536q-53 0 -91 -33t-58 -90.5t-20 -129.5q0 -47 15.5 -80t40 -58t52.5 -45q76 21 120.5 89t44.5 170q0 59 -12 98t-35 59t-57 20z" />
    <glyph glyph-name="uni018E" unicode="&#x18e;" horiz-adv-x="645" 
d="M2 0l34 182h10q-1 -6 -2.5 -18.5t-2.5 -25t-1 -20.5q0 -29 10 -54t32.5 -39.5t59.5 -14.5h189l77 362h-237l2 10h237l69 322h-158q-48 0 -80.5 -13.5t-52.5 -39t-33 -63.5l-15 -48h-10l44 174h518l-2 -10h-13q-22 0 -41.5 -4t-33.5 -18t-21 -43l-118 -559q-1 -7 -2 -13.5
t-1 -11.5q0 -29 20 -37t50 -8h13l-2 -10h-539z" />
    <glyph glyph-name="uni018F" unicode="&#x18f;" horiz-adv-x="681" 
d="M244 -10q-65 0 -111 18.5t-71 54.5t-25 88q0 35 12.5 69.5t41.5 65t79 53.5t124 36.5t177 13.5h44q2 21 4 44.5t2 40.5q0 63 -10.5 108.5t-30.5 75t-48.5 44t-64.5 14.5q-66 0 -116.5 -42.5t-87.5 -111.5q-6 3 -10.5 10.5t-4.5 16.5q0 29 16.5 54t47 43.5t73 29
t94.5 10.5q71 0 122 -20.5t83 -57t47 -86t15 -107.5q0 -61 -15.5 -126.5t-47 -126t-79 -108.5t-112.5 -76t-148 -28zM257 1q49 0 90.5 31t74 84.5t55.5 121t37 141.5h-37q-92 0 -154 -20.5t-100 -56.5t-54 -82.5t-16 -96.5q0 -59 25 -90.5t79 -31.5z" />
    <glyph glyph-name="uni0190" unicode="&#x190;" horiz-adv-x="616" 
d="M286 -11q-71 0 -127.5 17.5t-90 56.5t-33.5 102q0 48 18.5 85t53 63t84.5 41t113 18v1q-41 5 -73.5 17t-54 30.5t-33 43.5t-11.5 58q0 53 22 91.5t61 62.5t88 36t104 12q102 0 155 -32t53 -84q0 -30 -15.5 -48t-40 -26t-52.5 -8q0 59 -11 101t-35.5 64.5t-63.5 22.5
q-44 0 -78 -24.5t-52 -69.5t-18 -106q0 -43 14.5 -74.5t42.5 -48t68 -16.5h83l-2 -10h-84q-66 0 -113.5 -23.5t-72.5 -70t-25 -117.5q0 -77 33.5 -116t100.5 -39q44 0 81.5 15t71 47.5t63.5 85.5q7 -5 10.5 -12.5t3.5 -17.5q0 -28 -17 -51.5t-48.5 -40.5t-75 -26.5
t-97.5 -9.5z" />
    <glyph glyph-name="uni0191" unicode="&#x191;" horiz-adv-x="746" 
d="M82 -240q-51 0 -89.5 13.5t-60 38.5t-21.5 60q0 28 12.5 43.5t31 21.5t35.5 6q-1 -8 -1.5 -16.5t-0.5 -16.5q0 -62 23.5 -101t75.5 -39q51 0 72 32t32 86l156 744q2 7 3 16.5t1 13.5q0 27 -19 34.5t-52 7.5h-13l2 10h517l-33 -178h-10q1 12 2.5 23.5t2.5 21t1 14.5
q0 47 -22.5 78t-77.5 31h-170l-69 -328h240l-2 -10h-240l-91 -433q-10 -49 -39 -88.5t-77.5 -62t-118.5 -22.5z" />
    <glyph glyph-name="florin" unicode="&#x192;" horiz-adv-x="434" 
d="M28 -241q-60 0 -92.5 23t-32.5 57q0 33 21.5 48.5t58.5 15.5q0 -38 3 -68.5t13 -48t32 -17.5q34 0 51.5 37.5t34.5 119.5l129 600h-92l1 6l92 4l11 51q18 89 66.5 136t136.5 47q67 0 101.5 -21.5t34.5 -56.5q0 -33 -23.5 -49.5t-68.5 -16.5q1 58 -7 96t-39 38
q-23 0 -38 -14.5t-26 -47.5t-23 -89l-15 -73h116l-2 -10h-116l-121 -569q-21 -99 -69.5 -148.5t-136.5 -49.5z" />
    <glyph glyph-name="uni0193" unicode="&#x193;" horiz-adv-x="736" 
d="M708 602l-3 33l14 71q17 82 37.5 117.5t60.5 35.5q26 0 43.5 -14.5t17.5 -40.5q0 -11 -6 -22.5t-16 -20.5q-10 9 -22.5 15t-26.5 6q-22 0 -37.5 -8.5t-25.5 -28.5t-17 -53zM352 -10q-144 0 -217 73t-73 201q0 72 18.5 140.5t54.5 126.5t88.5 101t121 67.5t152.5 24.5
q57 0 99 -8.5t68.5 -24t39.5 -35.5t13 -43q0 -28 -14.5 -46.5t-39 -27.5t-55.5 -9q0 58 -7.5 98.5t-33.5 63t-80 22.5q-42 0 -80.5 -17t-72 -48.5t-60.5 -74.5t-46.5 -96.5t-30 -114.5t-10.5 -127q0 -73 15.5 -126t53.5 -81.5t104 -28.5q30 0 57.5 3.5t46.5 9.5l50 239
q2 8 3.5 17t1.5 13q0 25 -21 31.5t-51 6.5h-10l2 10h284l-1 -10h-5q-19 0 -36.5 -4.5t-30.5 -19t-19 -45.5l-46 -215q-57 -23 -112.5 -34.5t-120.5 -11.5z" />
    <glyph glyph-name="uni0194" unicode="&#x194;" horiz-adv-x="655" 
d="M224 -240q-52 0 -78.5 27.5t-26.5 79.5q0 22 6.5 47.5t22 56.5t42.5 71.5t68 91.5l-113 517q-4 21 -10 32.5t-17 16t-29 4.5h-7l3 10h280l-2 -10h-32q-29 0 -46 -12t-17 -37q0 -10 1.5 -23t5.5 -31l74 -366l253 376q13 18 17.5 30.5t4.5 25.5q0 20 -19 28.5t-56 8.5h-33
l1 10h241l-2 -10h-16q-24 0 -41.5 -5.5t-34.5 -22.5t-40 -52l-272 -401q13 -61 21 -108t12 -84t4 -70q0 -52 -13.5 -89.5t-37 -62.5t-53 -37t-61.5 -12zM208 -228q22 0 39.5 13.5t27.5 47.5t10 95q0 26 -3.5 59.5t-9 68.5t-11.5 65q-51 -62 -80 -109.5t-40.5 -83
t-11.5 -61.5q0 -34 10.5 -55.5t29 -30.5t39.5 -9z" />
    <glyph glyph-name="uni0195" unicode="&#x195;" horiz-adv-x="905" 
d="M556 -7q-67 0 -107.5 17.5t-59 47.5t-18.5 67q0 11 1 21.5t3 22.5t4 25l27 116q3 14 8 35t8.5 45.5t3.5 46.5q0 18 -3.5 36.5t-14 30.5t-31.5 12q-26 0 -52 -19t-48.5 -48.5t-38 -62.5t-21.5 -59l-71 -327h-108l137 654q5 18 7 32t2 19q0 27 -18 36t-48 9h-11l2 10h200
l-41 -194q-5 -24 -10.5 -48t-11 -46.5t-9.5 -39.5t-7 -26h4q26 44 55 75t63 47.5t75 16.5t64.5 -15t34.5 -40.5t11 -56.5q0 -25 -6.5 -55t-11.5 -56l-29 -134q-5 -21 -8.5 -42t-3.5 -48q0 -45 19 -70t60 -25q34 0 56.5 18.5t37 53.5t25.5 85l80 376h112l-79 -369
q-7 -36 -20.5 -64t-33 -48.5t-45.5 -34.5t-59.5 -20.5t-74.5 -6.5z" />
    <glyph glyph-name="uni0196" unicode="&#x196;" horiz-adv-x="385" 
d="M222 -10q-45 0 -74 14t-42 41t-13 67q0 19 3 42t7 44l94 438q2 8 3 17t1 13q0 25 -20 31.5t-52 6.5h-13l2 10h306l-2 -10h-13q-22 0 -41.5 -5t-34 -19.5t-21.5 -46.5l-95 -444q-4 -27 -9 -53t-5 -59q0 -41 16.5 -56t42.5 -15q16 0 29 2.5t24 5.5l2 -10q-21 -6 -45.5 -10
t-49.5 -4z" />
    <glyph glyph-name="uni0197" unicode="&#x197;" horiz-adv-x="391" 
d="M53 368l2 10h311l-2 -10h-311zM-21 0l1 10h13q34 0 60.5 12t35.5 57l119 557q2 8 3 17t1 13q0 25 -20 31.5t-52 6.5h-13l2 10h306l-2 -10h-13q-34 0 -60.5 -12t-36.5 -59l-117 -553q-1 -8 -3 -17t-2 -15q0 -24 20.5 -31t51.5 -7h13l-2 -10h-305z" />
    <glyph glyph-name="uni0198" unicode="&#x198;" horiz-adv-x="718" 
d="M-22 0l1 10h13q23 0 42.5 4.5t34 19.5t20.5 45l118 557q2 7 3 15.5t1 13.5q1 25 -18 32t-53 7h-13l2 10h304l-2 -10h-13q-21 0 -40.5 -4.5t-33.5 -19t-21 -45.5l-71 -332l325 318q28 28 49.5 51t43.5 37t52 14q24 0 41.5 -13.5t17.5 -43.5q0 -34 -18.5 -52.5t-44.5 -19.5
q-1 15 -6.5 26.5t-16.5 18.5t-30 7q-15 0 -31.5 -6t-34 -17t-35.5 -29l-145 -141l139 -331q16 -39 28 -64t25.5 -36.5t31.5 -11.5h3l-2 -10h-24q-47 0 -78 6t-51.5 18t-34 32.5t-24.5 49.5l-102 259l-81 -78l-44 -211q-1 -6 -2.5 -14.5t-1.5 -13.5q0 -24 20.5 -31t51.5 -7
h13l-2 -10h-306z" />
    <glyph glyph-name="uni0199" unicode="&#x199;" horiz-adv-x="582" 
d="M515 -7q-55 0 -88.5 8.5t-55 31t-40.5 65.5l-80 173l-59 -51l-46 -220h-108l124 587q13 59 37 99.5t61.5 62t91.5 21.5q43 0 70.5 -10t41 -26.5t13.5 -38.5q0 -33 -23 -49t-67 -16q0 40 -3 68.5t-11 45t-25 16.5q-19 0 -30.5 -16t-20 -49t-20.5 -86l-54 -244
q-9 -40 -16.5 -72.5l-13.5 -58.5l203 175q40 35 55.5 52.5t15.5 34.5q0 10 -8 16.5t-27.5 10t-54.5 3.5l2 10h230l-2 -10q-39 0 -81.5 -28t-95.5 -73l-98 -85l114 -233q18 -33 29.5 -56.5t25.5 -35.5t34 -12l-2 -10h-18z" />
    <glyph glyph-name="uni019A" unicode="&#x19a;" horiz-adv-x="310" 
d="M30 384l2 10h294l-2 -10h-294zM162 -10q-45 0 -68.5 28t-23.5 71q0 20 3.5 46.5t8.5 54t9 48.5l91 421q3 14 4.5 27.5t1.5 18.5q0 27 -18.5 36t-47.5 9h-14l2 10h203l-119 -556q-2 -13 -6 -33t-6.5 -40.5t-2.5 -34.5q0 -33 9.5 -50t34.5 -17q18 0 37 9.5t37 22.5l5 -9
q-14 -13 -36 -27.5t-48.5 -24.5t-55.5 -10z" />
    <glyph glyph-name="uni019B" unicode="&#x19b;" horiz-adv-x="533" 
d="M184 550l1 12l308 156l-3 -13zM360 583q-4 51 -18.5 79.5t-38 40t-53.5 11.5q-32 0 -53 -16.5t-31 -39.5q-9 3 -14 14.5t-5 25.5q0 30 21 51t65 21q42 0 70.5 -21t45.5 -64t21 -111l25 -349q6 -71 18.5 -111t33 -56.5t46.5 -16.5h6l-7 -41h-5q-32 0 -52 17t-31.5 61
t-17.5 125q-3 31 -5 66.5t-4.5 70t-4 62t-1.5 42.5h-3q-13 -26 -31 -56.5t-36 -60.5t-33 -54l-172 -273h-123z" />
    <glyph glyph-name="uni019C" unicode="&#x19c;" horiz-adv-x="1059" 
d="M221 -9q-36 0 -60.5 11.5t-39.5 31t-22 44.5t-7 51q0 31 7 68t14 69l78 367q3 8 4 18t1 15q0 25 -19.5 31.5t-50.5 6.5h-13l2 10h298l-2 -10h-13q-22 0 -40.5 -5t-31 -19.5t-19.5 -44.5l-75 -355q-8 -39 -15.5 -82t-7.5 -79q0 -38 16.5 -68.5t54.5 -30.5q25 0 50.5 17.5
t49.5 47.5t44 67.5t35 78.5t21 79l70 325q2 8 3.5 17t1.5 14q0 25 -18.5 31.5t-48.5 6.5h-12l2 10h293l-2 -10h-13q-22 0 -40 -4.5t-30.5 -18.5t-18.5 -43l-78 -358q-7 -35 -14.5 -79t-7.5 -78q0 -40 15.5 -71.5t55.5 -31.5q24 0 49.5 17.5t49.5 47.5t44 67.5t35 78.5t22 80
l71 327q2 6 3 15t1 13q0 25 -18 31.5t-48 6.5h-13l2 10h297l-2 -10h-14q-21 0 -39.5 -4.5t-32 -18.5t-20.5 -43l-114 -532q-4 -19 -6 -31.5t-2 -19.5q0 -26 18.5 -34t48.5 -8h14l-2 -11h-201l40 210h-1q-50 -117 -108 -169t-134 -52q-47 0 -75.5 20.5t-40 52.5t-11.5 67
q0 14 1 25.5t4 25t8 33.5h-1q-32 -80 -69 -129.5t-79.5 -72t-93.5 -22.5z" />
    <glyph glyph-name="uni019D" unicode="&#x19d;" horiz-adv-x="778" 
d="M-105 -240q-20 0 -38.5 3.5t-32.5 7.5l3 10q13 -4 28.5 -7t34.5 -3q47 0 86 20.5t69 69t48 131.5l137 644q2 7 3.5 16t1.5 14q0 25 -24.5 31.5t-64.5 6.5h-19l2 10h208l253 -569l105 492q2 7 3 15t1 13q0 25 -27 32t-70 7h-17l2 10h252l-2 -10h-20q-26 0 -49 -4
t-40 -18.5t-24 -46.5l-134 -635h-37l-288 654l-142 -664q-19 -87 -47 -137.5t-67.5 -71.5t-93.5 -21z" />
    <glyph glyph-name="uni019E" unicode="&#x19e;" horiz-adv-x="603" 
d="M318 -240q-2 8 -3 19t-1 21q0 31 5.5 67.5t13.5 74.5l85 391q7 35 11 61t4 52q0 33 -13 56.5t-48 23.5q-27 0 -52 -15t-45 -40t-34 -55.5t-20 -61.5l-73 -354h-111l72 339q6 25 9.5 55.5t5 60t1.5 51.5v17t-1 13h79q8 -16 12.5 -38t7 -45.5t2.5 -42.5h3q16 34 39.5 65
t56.5 51t77 20q67 0 102 -33t35 -98q0 -17 -2.5 -35t-7.5 -41l-87 -409q-7 -35 -11.5 -67.5t-4.5 -58.5q0 -13 1 -24t3 -20h-111z" />
    <glyph glyph-name="uni019F" unicode="&#x19f;" horiz-adv-x="756" 
d="M132 365v10h517v-10h-517zM332 -11q-78 0 -139 31t-96 94t-35 157q0 54 14.5 115.5t46 121t79.5 109t114.5 79t151.5 29.5q71 0 131.5 -28.5t97 -90t36.5 -159.5q0 -42 -10 -91.5t-30.5 -101t-53 -99t-76.5 -85t-101.5 -59.5t-129.5 -22zM336 -1q56 0 100 31.5t76.5 83
t54 115t32 129t10.5 123.5q0 92 -18.5 142.5t-51 71t-77.5 20.5q-55 0 -99.5 -30.5t-77.5 -82t-55 -115t-33 -130t-11 -125.5q0 -90 19.5 -141t54 -71.5t76.5 -20.5z" />
    <glyph glyph-name="Ohorn" unicode="&#x1a0;" horiz-adv-x="796" 
d="M325 -11q-78 0 -139 31t-96 94t-35 157q0 54 15 115.5t46 121t79 109t114.5 79t151.5 29.5q55 0 104 -17t86.5 -53.5t58.5 -96.5q34 12 56.5 29.5t22.5 45.5q0 13 -6.5 21.5t-14.5 17t-14.5 18t-6.5 25.5q0 26 17.5 40.5t43.5 14.5q28 0 44 -16.5t16 -43.5
q0 -39 -20.5 -69.5t-55.5 -53.5t-79 -39q7 -22 10 -47.5t3 -53.5q0 -42 -10 -91.5t-30.5 -101t-52.5 -99t-76.5 -85t-102 -59.5t-129.5 -22zM327 -1q57 0 101.5 31.5t77 83t54 115t32 129t10.5 123.5q0 85 -16.5 136t-48.5 74.5t-79 23.5q-57 0 -101.5 -30.5t-78 -82
t-56 -115t-33 -130t-10.5 -125.5q0 -83 18 -134t51 -75t79 -24z" />
    <glyph glyph-name="ohorn" unicode="&#x1a1;" horiz-adv-x="624" 
d="M241 -10q-89 0 -144 51.5t-55 156.5q0 44 12 92.5t36 94t60.5 82t86 58t111.5 21.5q42 0 78.5 -12.5t64.5 -40.5t42 -75q21 8 37.5 18t26.5 23t10 29q0 14 -6.5 22.5t-14.5 17t-14.5 19t-6.5 25.5q0 27 17.5 41t43.5 14q28 0 44 -16t16 -43q0 -39 -20 -69t-53.5 -52
t-76.5 -38q4 -16 6 -33.5t2 -37.5q0 -43 -11.5 -90.5t-35 -93.5t-59.5 -82.5t-85 -59t-112 -22.5zM249 0q38 0 67.5 24t50 64.5t33.5 89t19.5 97.5t6.5 92q0 63 -9.5 100t-29 53t-47.5 16q-38 0 -67.5 -24.5t-50.5 -65t-35 -89.5t-20.5 -99t-6.5 -92q0 -90 23.5 -128
t65.5 -38z" />
    <glyph glyph-name="uni01A2" unicode="&#x1a2;" horiz-adv-x="1107" 
d="M679 -240l2 10h12q23 0 42.5 4.5t33.5 19.5t20 45l134 635q8 36 13 65.5t8.5 54.5t3.5 48q0 30 -11 49.5t-40 19.5q-28 0 -56.5 -16t-56 -46t-51.5 -72t-43 -94l-3 19q29 70 63 119.5t76.5 75.5t95.5 26q49 0 77 -20t40.5 -50.5t12.5 -65.5q0 -28 -4 -60.5t-12 -66.5
l-132 -622q-2 -8 -3.5 -16.5t-1.5 -13.5q0 -24 20 -31t52 -7h13l-2 -10h-303zM332 -11q-78 0 -139 31t-96 94t-35 157q0 54 14.5 115.5t46 121t79.5 109t114.5 79t151.5 29.5q71 0 131.5 -28.5t97 -90t36.5 -159.5q0 -42 -10 -91.5t-30.5 -101t-53 -99t-76.5 -85
t-101.5 -59.5t-129.5 -22zM336 -1q56 0 100 31.5t76.5 83t54 115t32 129t10.5 123.5q0 92 -18.5 142.5t-51 71t-77.5 20.5q-55 0 -99.5 -30.5t-77.5 -82t-55 -115t-33 -130t-11 -125.5q0 -90 19.5 -141t54 -71.5t76.5 -20.5z" />
    <glyph glyph-name="uni01A3" unicode="&#x1a3;" horiz-adv-x="902" 
d="M609 -240q-2 8 -3 18t-1 20q0 31 5.5 68.5t13.5 75.5l86 404q5 26 9 51t4 48q0 24 -5.5 41t-19 27t-34.5 10q-34 0 -59.5 -23t-44 -60t-31 -81.5t-19.5 -87.5q-7 -39 -21 -79t-37 -76t-55 -64.5t-74 -45t-95 -16.5q-54 0 -96 23t-66 69t-24 116q0 44 11 92.5t34 94t58 82
t83 58t108 21.5q40 0 80 -17.5t68 -56.5t33 -106h1q20 66 47.5 106t62 57t72.5 17q42 0 70.5 -15t43.5 -43.5t15 -68.5q0 -19 -3 -38t-7 -40l-86 -411q-5 -23 -9 -46t-6 -43t-2 -37q0 -13 1 -24t3 -20h-111zM237 0q35 0 62 25t46.5 66t32 91t18.5 100t6 92q0 88 -17 125
t-56 37q-35 0 -62.5 -25.5t-47.5 -67t-33.5 -92t-19.5 -101t-6 -92.5q0 -56 8.5 -91t25.5 -51t43 -16z" />
    <glyph glyph-name="uni01A4" unicode="&#x1a4;" horiz-adv-x="731" 
d="M69 0l2 10h13q33 0 59.5 12t35.5 57l118 556q2 7 3.5 16.5t1.5 14.5q0 22 -17 30t-41 8q-31 0 -53 -14t-33 -39t-11 -60q0 -16 5 -27t11 -20q-9 -8 -19.5 -11.5t-21.5 -3.5q-25 0 -39 16t-14 39q0 36 17.5 65.5t54 46.5t91.5 18h253q73 0 125.5 -22t80.5 -64.5t28 -106.5
q0 -30 -7.5 -63.5t-26.5 -66t-54 -58t-89 -41t-132 -15.5h-71l-43 -199q-2 -7 -3.5 -16t-1.5 -14q0 -24 20 -31t50 -7h33l-2 -10h-323zM388 287q59 0 99 19t64.5 53t35 78t10.5 93q0 63 -15 101t-43.5 55.5t-69.5 17.5h-40l-88 -417h47z" />
    <glyph glyph-name="uni01A5" unicode="&#x1a5;" horiz-adv-x="592" 
d="M162 587q19 90 64 136.5t126 46.5q43 0 70.5 -10t41 -26.5t13.5 -38.5q0 -33 -23 -49t-67 -16q0 40 -3 68.5t-11 45t-24 16.5q-19 0 -31 -16t-21 -49t-21 -85l-24 -116q-3 -16 -7 -30t-7.5 -27t-7.5 -28h3q19 36 43.5 67.5t58.5 50.5t80 19q42 0 71.5 -20.5t45.5 -60.5
t16 -100q0 -44 -12 -94.5t-35.5 -100.5t-60 -90.5t-85 -65t-110.5 -24.5q-30 0 -52 7.5t-42 21.5q-4 -15 -6 -26.5t-6 -27.5l-21 -98q-1 -7 -4.5 -25t-3.5 -28q0 -29 19 -36.5t47 -7.5h19l-2 -10h-206zM237 2q36 0 67 24t54.5 64.5t39.5 89.5t24.5 99.5t8.5 93.5q0 38 -5 70
t-19.5 52t-42.5 20q-25 0 -49 -17t-43 -44t-32 -55t-18 -50l-68 -319q11 -9 31 -18.5t52 -9.5z" />
    <glyph glyph-name="uni01A6" unicode="&#x1a6;" horiz-adv-x="674" 
d="M569 -122q-61 0 -98.5 9.5t-59 35.5t-34.5 75l-55 216h-87l-30 -134q-2 -9 -3.5 -18t-1.5 -14q0 -24 20.5 -31t51.5 -7h20l-3 -10h-311l2 10h13q22 0 41 4.5t33.5 19t20.5 45.5l120 557q3 8 4 17t1 13q0 25 -20 31.5t-52 6.5h-13l2 10h306l-2 -10h-13q-22 0 -42 -5
t-33.5 -20t-20.5 -46l-9 -41h66q78 0 129.5 -18t77 -54.5t25.5 -92.5q0 -46 -16 -80t-43.5 -58.5t-59 -40.5t-62.5 -25l69 -223q13 -39 22.5 -64t22.5 -36.5t33 -11.5h8l-2 -10h-17zM306 224q45 0 79 13t57.5 40t35.5 66.5t12 93.5q0 55 -11.5 86.5t-37 45t-67.5 13.5h-61
l-76 -358h69z" />
    <glyph glyph-name="uni01A7" unicode="&#x1a7;" horiz-adv-x="561" 
d="M241 -10q-78 0 -126.5 24.5t-70.5 65t-22 89.5q0 53 19.5 90t54 64t78.5 48t93 42q47 20 82.5 38.5t59 39.5t36 47.5t12.5 64.5q0 60 -30.5 85.5t-69.5 25.5q-35 0 -61 -20t-42 -59.5t-27 -97.5q-37 0 -60 14.5t-23 44.5q0 22 13 44t39.5 41t66.5 31t94 12
q64 0 107.5 -20.5t66.5 -56.5t23 -83q0 -51 -19 -88t-52 -64t-75.5 -49t-89.5 -42q-40 -17 -76 -35.5t-63 -40.5t-42 -51t-15 -69t16 -68.5t44.5 -42.5t66.5 -14q36 0 66 12.5t54.5 34t44.5 48.5t37 56q8 -4 15 -14.5t7 -26.5q0 -28 -29 -56t-81 -46t-122 -18z" />
    <glyph glyph-name="uni01A8" unicode="&#x1a8;" horiz-adv-x="477" 
d="M198 -10q-85 0 -128 39.5t-43 101.5q0 32 10 58.5t33.5 50t63 45t98.5 43.5q52 20 80 38.5t39 39t11 47.5q0 40 -21.5 61.5t-58.5 21.5q-47 0 -71.5 -36t-33.5 -111q-36 0 -55.5 13t-19.5 39t18 50t57 39.5t102 15.5q52 0 88 -16.5t54 -46t18 -68.5q0 -42 -18 -73
t-53 -55t-87 -44q-73 -28 -111 -50.5t-51 -45t-13 -52.5q0 -40 26.5 -67t82.5 -27q38 0 67.5 16.5t52 48t37.5 73.5q7 -4 14 -15t7 -24q0 -26 -20 -51.5t-62.5 -42t-112.5 -16.5z" />
    <glyph glyph-name="uni01A9" unicode="&#x1a9;" horiz-adv-x="613" 
d="M-31 0l8 43l295 276l-150 385l3 10h493l-33 -178h-10q4 29 5.5 43.5t1.5 23.5q0 43 -20.5 72t-70.5 29h-244l117 -305l-6 -15l-304 -284h370q31 0 54 11.5t38 33t25 49.5l11 31h10l-53 -225h-540z" />
    <glyph glyph-name="uni01AA" unicode="&#x1aa;" horiz-adv-x="308" 
d="M146 -240q-29 0 -50.5 8t-35 23.5t-20.5 38.5t-7 52q0 19 3 42.5t7 43.5l128 602q-11 -14 -28.5 -21t-36.5 -7q-45 0 -70 27t-25 71q0 39 17 67t49 43t74 15q48 0 78 -17.5t44.5 -46t14.5 -63.5q0 -22 -3.5 -46t-9.5 -52l-123 -576q-5 -28 -9.5 -54t-4.5 -51
q0 -35 16.5 -52t45.5 -17q21 0 42 7.5t39 17.5l6 -8q-30 -21 -62 -34t-79 -13zM107 552q27 0 45 13.5t27 38t9 57.5q0 39 -17.5 63t-52.5 24q-26 0 -48 -13.5t-35.5 -37.5t-13.5 -56q0 -26 10 -46t29 -31.5t47 -11.5z" />
    <glyph glyph-name="uni01AB" unicode="&#x1ab;" horiz-adv-x="382" 
d="M189 -197q-32 0 -50 14t-18 36q0 14 5.5 25t15.5 20q10 -11 24 -18t44 -7q32 0 57.5 17.5t35.5 63.5l18 79q-31 -20 -63.5 -31.5t-71.5 -11.5q-36 0 -61.5 13t-39 39t-13.5 64q0 13 1.5 28t4 29.5t4.5 27.5l72 335h-78l2 10q42 0 74.5 7.5t57 23.5t43 41.5t32.5 62.5h9
l-28 -135h121l-2 -10h-121l-73 -336q-3 -16 -6 -33t-5 -32t-2 -27q0 -39 16.5 -57.5t47.5 -18.5q22 0 46.5 9t46.5 24l-22 -110q-15 -70 -42 -106t-82 -36z" />
    <glyph glyph-name="uni01AC" unicode="&#x1ac;" horiz-adv-x="641" 
d="M101 0l2 10h19q23 0 42.5 5t33.5 19t20 42l134 628h-87q-36 0 -62.5 -12t-41 -35.5t-14.5 -57.5q0 -23 5 -34.5t11 -20.5q-9 -8 -19.5 -11.5t-21.5 -3.5q-25 0 -39 16t-14 39q0 55 46 92.5t143 37.5h444l-33 -180h-10q1 7 2.5 21t2.5 27.5t1 18.5q0 46 -23 74.5t-81 28.5
h-92l-134 -626q-1 -7 -2.5 -15t-1.5 -13q0 -17 9 -25.5t25.5 -11.5t37.5 -3h19l-2 -10h-319z" />
    <glyph glyph-name="uni01AD" unicode="&#x1ad;" horiz-adv-x="381" 
d="M186 -10q-36 0 -61.5 13t-39 39t-13.5 64q0 13 1.5 28t4 29.5t4.5 27.5l72 335h-78l3 10q41 0 73.5 5t58 17t42.5 32.5t27 52.5q13 42 24 67.5t27 37t43 11.5q24 0 39 -13.5t15 -37.5q0 -14 -5.5 -26t-16.5 -21q-8 10 -21 16t-28 6q-33 0 -50.5 -19t-27.5 -65l-13 -63
h121l-2 -10h-121l-73 -336q-3 -16 -6 -33.5t-5 -33.5t-2 -30q0 -35 15 -54t46 -19q23 0 46.5 9.5t42.5 21.5l5 -9q-33 -24 -68.5 -38t-78.5 -14z" />
    <glyph glyph-name="uni01AE" unicode="&#x1ae;" horiz-adv-x="636" 
d="M308 -240q-67 0 -98 31t-31 92q0 12 1 26.5t3.5 29t5.5 27.5l156 738h-90q-43 0 -73.5 -16t-50.5 -44t-32 -64l-15 -46h-10l43 180h579l-33 -180h-10q2 7 3 21t2 27.5t1 18.5q0 46 -23.5 74.5t-80.5 28.5h-93l-159 -746q-3 -15 -5.5 -28.5t-5 -26t-3.5 -25t-1 -28.5
q0 -41 17 -57.5t41 -16.5q17 0 27.5 2.5t21.5 5.5l3 -10q-19 -8 -44 -11t-46 -3z" />
    <glyph glyph-name="Uhorn" unicode="&#x1af;" horiz-adv-x="799" 
d="M328 -10q-111 0 -171 45.5t-60 127.5q0 16 3.5 44t7.5 45l80 380q2 9 3.5 19t1.5 15q0 25 -20 31.5t-52 6.5h-13l3 10h306l-2 -10h-13q-22 0 -42 -4.5t-34 -19t-21 -44.5l-82 -388q-4 -18 -7 -35.5t-4.5 -36t-1.5 -39.5q0 -41 15.5 -72t45.5 -47.5t73 -16.5
q50 0 85.5 15.5t60 43.5t40 66t24.5 83l92 428q2 7 3 16t1 13q0 25 -20 31.5t-52 6.5h-15l2 10h143l-35 -167q30 5 53 12.5t39 18.5t25 25t9 30q0 13 -7 21.5t-15 16.5t-14.5 18t-6.5 26q0 26 17.5 40.5t43.5 14.5q28 0 44.5 -16.5t16.5 -43.5q0 -41 -25 -77t-71 -61
t-111 -35l-69 -329q-15 -69 -48.5 -117.5t-89 -74.5t-136.5 -26z" />
    <glyph glyph-name="uhorn" unicode="&#x1b0;" horiz-adv-x="688" 
d="M469 -10q-31 0 -51.5 13t-31 34.5t-10.5 47.5q0 7 1 18t2 23t2 22h-4q-24 -47 -52.5 -82.5t-64.5 -55t-83 -19.5q-40 0 -64 15.5t-34.5 41t-10.5 54.5q0 25 6 55t12 55l45 210q4 16 6.5 34t2.5 26q0 28 -18 36t-47 8h-11l2 10h200l-68 -310q-4 -18 -8.5 -40.5t-7.5 -44
t-3 -35.5q0 -38 12 -61t43 -23q24 0 48.5 18t46.5 46.5t37.5 61t21.5 61.5l71 327h112l-28 -131q39 8 67 19.5t42.5 27.5t14.5 37q0 13 -6.5 22t-14.5 17.5t-14.5 18.5t-6.5 26q0 26 17.5 40.5t43.5 14.5q28 0 44 -16.5t16 -43.5q0 -47 -28 -82.5t-74.5 -58.5t-102.5 -32
l-42 -193q-2 -12 -5.5 -32t-6 -40t-2.5 -34q0 -36 11 -54t32 -18q18 0 34.5 8.5t35.5 24.5l6 -7q-23 -21 -57.5 -40.5t-77.5 -19.5z" />
    <glyph glyph-name="uni01B1" unicode="&#x1b1;" horiz-adv-x="756" 
d="M332 -11q-78 0 -139 31t-96 94t-35 157q0 73 20 140.5t52 123.5t67 92q19 21 28 34t9 24t-10.5 15t-33.5 4h-37l2 10h244l-2 -10q-43 -26 -77.5 -65t-60.5 -87.5t-43 -102t-25.5 -109.5t-8.5 -108q0 -90 19.5 -141t54 -71.5t76.5 -20.5q56 0 100 31.5t76.5 83t54 115
t32 129t10.5 123.5q0 61 -8 102.5t-22.5 70.5t-34.5 50l2 10h216l-2 -10h-40q-23 0 -33.5 -5t-10.5 -17q0 -10 5 -21.5t14 -32.5q19 -38 28.5 -82t9.5 -99q0 -42 -10 -91.5t-30.5 -101t-53 -99t-76.5 -85t-101.5 -59.5t-129.5 -22z" />
    <glyph glyph-name="uni01B2" unicode="&#x1b2;" horiz-adv-x="731" 
d="M261 -10q-58 0 -96 19t-56 53t-18 79q0 24 3.5 46.5t7.5 41.5l86 403q2 9 3.5 19t1.5 15q0 25 -20 31.5t-52 6.5h-13l3 10h306l-2 -10h-13q-22 0 -42 -4.5t-34 -19t-21 -44.5l-90 -421q-6 -26 -10 -50t-4 -55q0 -47 26.5 -74t73.5 -27q58 0 111.5 33.5t99 88.5t79 123
t52 140t18.5 135t-21 87t-63 24q-17 0 -31 -3.5t-27 -9.5q0 22 10 43.5t31.5 35t56.5 13.5q49 0 74 -34.5t25 -97.5q0 -64 -16 -132.5t-45.5 -135.5t-70.5 -126t-92 -105t-109 -72t-122 -26z" />
    <glyph glyph-name="uni01B3" unicode="&#x1b3;" horiz-adv-x="664" 
d="M101 0l2 10h25q21 0 40.5 4.5t33.5 18t20 42.5l45 214l-115 362q-8 20 -13.5 31.5t-14 16.5t-24.5 5h-13l2 10h285l-2 -10h-51q-24 0 -35.5 -7t-11.5 -21q0 -11 3.5 -25.5t8.5 -33.5l53 -181q7 -22 14 -46t13.5 -47.5t12.5 -45.5q21 38 44.5 79.5t48.5 88.5q32 58 58 105
t51 80.5t52 51.5t58 18q21 0 37.5 -7t25 -20.5t8.5 -31.5q0 -32 -19 -50t-45 -19q-2 20 -13 35.5t-39 15.5q-23 0 -41.5 -10t-37 -34t-42.5 -65t-58 -102.5t-83 -147.5l-45 -208q-1 -7 -2.5 -15t-1.5 -13q0 -24 20.5 -31t51.5 -7h23l-2 -10h-327z" />
    <glyph glyph-name="uni01B4" unicode="&#x1b4;" horiz-adv-x="571" 
d="M-11 -240q-34 0 -63.5 7t-47.5 16l3 10q19 -6 50.5 -9.5t63.5 -3.5q44 0 82 11.5t69.5 37.5t58.5 69t50 104l-66 1l-108 470q-4 20 -10.5 31.5t-16 16.5t-25.5 5h-7l2 10h164l60 -291q5 -25 10 -49.5t9 -47t7.5 -42t5.5 -33.5h1q15 38 28 74.5t25 70.5t25 67.5t27 68.5
q20 49 37.5 85t35.5 59.5t39.5 35t47.5 11.5q29 0 45 -14t16 -36q0 -23 -14.5 -35.5t-32.5 -16.5q-1 14 -12 23t-32 9q-17 0 -36.5 -11.5t-42.5 -44.5t-49 -97q-12 -29 -27 -67.5t-32.5 -86l-38.5 -104.5q-28 -82 -57 -140t-63 -94t-78 -53t-103 -17z" />
    <glyph glyph-name="uni01B5" unicode="&#x1b5;" horiz-adv-x="619" 
d="M115 366l2 10h428l-2 -10h-428zM-18 0l2 10l522 694h-226q-45 0 -76 -14.5t-51.5 -42t-33.5 -66.5l-15 -51h-10l44 184h508l-2 -10l-524 -694h249q54 0 88 17t54.5 47t32.5 70l13 40h10l-44 -184h-541z" />
    <glyph glyph-name="uni01B6" unicode="&#x1b6;" horiz-adv-x="534" 
d="M69 271l3 10h356l-2 -10h-357zM0 0l2 10l366 516h-127q-39 0 -66.5 -12t-46.5 -38.5t-33 -71.5l-5 -16h-10l41 148h368l-2 -10l-379 -516h172q47 0 75.5 13t47 41t32.5 71l11 32h10l-40 -167h-416z" />
    <glyph glyph-name="uni01B7" unicode="&#x1b7;" horiz-adv-x="626" 
d="M241 -11q-82 0 -133 18t-74.5 46.5t-23.5 58.5q0 41 26.5 62t69.5 21q0 -94 32.5 -145t108.5 -51q35 0 65 15t52.5 44t35 72t12.5 97q0 38 -9.5 67.5t-30.5 50t-55 30.5t-83 10h-21l1 6l305 233h-258q-34 0 -55 -5t-32.5 -19.5t-20.5 -43.5l-5 -18h-10l42 176h417l-9 -50
l-353 -269q104 0 170 -17t97 -53.5t31 -97.5q0 -53 -20 -96.5t-58 -75.5t-92 -49t-122 -17z" />
    <glyph glyph-name="uni01B8" unicode="&#x1b8;" horiz-adv-x="607" 
d="M285 -11q-64 0 -111.5 14t-77.5 39.5t-44 59.5t-14 74q0 41 12.5 77t38.5 64t65.5 47.5t93 29.5t120.5 8l-214 283l7 29h429l-33 -183h-11q1 10 2 19t1 14q0 29 -15.5 45.5t-55.5 16.5h-265l172 -228l-1 -6h-30q-48 0 -85.5 -15t-63.5 -43.5t-40 -69.5t-14 -93
q0 -49 16 -88t48 -61.5t80 -22.5q45 0 83.5 19.5t70 52.5t56.5 75q7 -4 12.5 -14t5.5 -23q0 -30 -31.5 -57.5t-85 -45t-121.5 -17.5z" />
    <glyph glyph-name="uni01B9" unicode="&#x1b9;" horiz-adv-x="537" 
d="M244 -241q-79 0 -132.5 24.5t-80.5 69.5t-27 106q0 47 16.5 91.5t54.5 80.5t101 57.5t156 23.5l-215 287l8 37h393l-36 -182h-10q2 11 2.5 23.5t0.5 25.5q0 26 -16 36.5t-49 10.5h-244l188 -251l-3 -10h-18q-55 0 -94.5 -17t-65.5 -48t-39 -74t-13 -94q0 -64 17 -105.5
t46.5 -61.5t68.5 -20q32 0 58.5 10t48.5 28.5t38.5 42t27.5 50.5q6 -4 9.5 -12t3.5 -18q0 -24 -21.5 -50t-64.5 -43.5t-109 -17.5z" />
    <glyph glyph-name="uni01BA" unicode="&#x1ba;" horiz-adv-x="482" 
d="M164 -240q-61 0 -105 13t-67.5 36.5t-23.5 57.5q0 37 20 59t59.5 34.5t101.5 21.5q62 10 93 32.5t42 55t11 74.5q0 29 -11.5 56t-42 44.5t-86.5 17.5h-19l3 13l244 174h-226q-21 0 -34.5 -4.5t-23.5 -15t-17 -28.5l-8 -17h-10l42 152h356l-10 -50l-286 -205
q73 0 120 -11.5t73.5 -31.5t37 -45t10.5 -55q0 -36 -13.5 -62.5t-41 -45t-68 -31t-95.5 -21.5q-47 -8 -72.5 -21.5t-35.5 -35t-10 -53.5q0 -52 32.5 -75t76.5 -23q30 0 55.5 8.5t46 24.5t37 39t28.5 53q5 -3 9 -11t4 -18q0 -30 -21.5 -54.5t-65 -38t-109.5 -13.5z" />
    <glyph glyph-name="uni01BB" unicode="&#x1bb;" horiz-adv-x="595" 
d="M-1 0l21 86l319 298h-216l2 10h224q47 54 65 112.5t18 126.5q0 43 -10 68.5t-28.5 37t-47.5 11.5q-41 0 -68.5 -21.5t-43 -64.5t-21.5 -110q-36 0 -59.5 16t-23.5 51q0 36 26 67.5t75.5 51.5t120.5 20q65 0 108.5 -18t65.5 -50.5t22 -77.5q0 -26 -8.5 -53t-25 -54
t-41 -55t-57.5 -58h109l-2 -10h-118l-366 -296h326q30 0 48 9.5t30 26t18 35.5l8 23h10l-43 -182h-437z" />
    <glyph glyph-name="uni01BC" unicode="&#x1bc;" horiz-adv-x="580" 
d="M203 -10q-67 0 -109.5 18.5t-62.5 48t-20 59.5q0 36 23.5 57t60.5 21q0 -70 12 -113t37.5 -62t64.5 -19q50 0 89.5 30.5t62 86.5t22.5 133q0 42 -8 72.5t-23.5 50t-39 28.5t-53.5 9h-113l52 226q2 8 3 17t1 13q0 23 -16.5 30.5t-44.5 7.5h-11l2 10h428l-32 -175h-10
q3 18 5 38.5t2 30.5q0 29 -9.5 50.5t-30 33.5t-55.5 12h-102l-65 -284h33q64 0 111 -17t72.5 -52.5t25.5 -92.5q0 -58 -21.5 -107t-61.5 -85t-96 -56t-123 -20z" />
    <glyph glyph-name="uni01BD" unicode="&#x1bd;" horiz-adv-x="530" 
d="M209 -10q-64 0 -104 17.5t-58.5 43t-18.5 52.5q0 18 9 33.5t28.5 25t50.5 9.5q0 -52 12.5 -90.5t35.5 -59.5t55 -21q31 0 58.5 18t44 57.5t16.5 102.5q0 66 -27 97.5t-75 31.5h-125l28 139l4 22t2 16q0 24 -15 33t-45 9h-10l2 10h395l-29 -137h-10q1 9 2 17t1 15
q0 37 -10.5 57.5t-29 28.5t-42.5 8h-89l-43 -208h57q62 0 99.5 -17t54.5 -46t17 -67q0 -58 -27.5 -102.5t-81.5 -69.5t-132 -25z" />
    <glyph glyph-name="uni01BE" unicode="&#x1be;" horiz-adv-x="455" 
d="M194 -10q-78 0 -124.5 30t-46.5 82q0 28 11.5 43.5t28.5 21.5t35 6q-1 -37 4.5 -69t18.5 -55t34.5 -36t51.5 -13q33 0 57 14t37 41.5t13 66.5q0 26 -8 44.5t-24 34.5t-41 33q-23 16 -45 34t-35 43t-13 59q0 11 2 24t3 24l23 108h-78l2 10q32 0 62 6.5t56.5 21.5
t48.5 40.5t40 66.5h10l-29 -135h128l-1 -10h-129l-20 -96q-2 -8 -3.5 -16t-1.5 -16q0 -20 10 -36.5t26 -30.5t35 -29q24 -17 41.5 -36t27.5 -44t10 -62q0 -49 -25 -87.5t-73.5 -60.5t-118.5 -22z" />
    <glyph glyph-name="uni01BF" unicode="&#x1bf;" horiz-adv-x="594" 
d="M10 -240q-2 10 -3 21t-1 22q0 31 6 68.5t13 73.5l103 485q4 19 6 33t2 18q0 28 -18 36.5t-47 8.5h-11l2 10h188l-25 -139h3q21 42 46.5 76t60 53.5t80.5 19.5q62 0 97.5 -45.5t35.5 -135.5q0 -66 -24 -133t-71 -122.5t-119 -89t-170 -32.5h-10h-10l-13 -58
q-8 -34 -12 -64t-3 -55q0 -14 1.5 -26.5t3.5 -24.5h-111zM147 -2q63 0 110.5 23.5t81 63.5t53.5 90.5t29.5 104.5t9.5 104q0 57 -14.5 94t-52.5 37q-21 0 -40.5 -11.5t-36 -30.5t-30 -41t-22.5 -43t-12 -38z" />
    <glyph glyph-name="uni01C0" unicode="&#x1c0;" horiz-adv-x="396" 
d="M107 0l161 760h69l-161 -760h-69z" />
    <glyph glyph-name="uni01C1" unicode="&#x1c1;" horiz-adv-x="635" 
d="M331 0l162 760h69l-162 -760h-69zM121 0l162 760h69l-162 -760h-69z" />
    <glyph glyph-name="uni01C2" unicode="&#x1c2;" horiz-adv-x="551" 
d="M181 0l59 272h-191l10 48h191l25 118h-191l11 49h190l58 273h70l-59 -273h192l-11 -49h-191l-25 -118h191l-10 -48h-191l-58 -272h-70z" />
    <glyph glyph-name="uni01C3" unicode="&#x1c3;" horiz-adv-x="350" 
d="M151 208l51 506h133l-169 -506h-15zM123 -8q-23 0 -37 12t-14 40q0 37 20 65t54 28q22 0 36 -12t14 -41q0 -25 -8 -46t-24 -33.5t-41 -12.5z" />
    <glyph glyph-name="uni01C4" unicode="&#x1c4;" horiz-adv-x="1349" 
d="M-22 0l3 10h13q33 0 60 12t36 57l117 556q2 8 3.5 16.5t1.5 14.5q0 25 -21.5 31.5t-50.5 6.5h-13l2 10h291q140 0 215 -69.5t75 -202.5q0 -69 -16.5 -134.5t-49 -121.5t-82 -97.5t-115 -65t-148.5 -23.5h-321zM266 11q63 0 113.5 22.5t88.5 63.5t64 97.5t39 124.5t13 144
q0 85 -20 138t-59 78t-98 25h-69l-147 -693h75zM709 0l2 10l522 694h-226q-45 0 -76 -14.5t-51.5 -42t-33.5 -66.5l-15 -51h-10l44 184h508l-2 -10l-524 -694h249q54 0 88 17t54.5 47t32.5 70l13 40h10l-44 -184h-541zM1073 771q-8 24 -22 51.5t-29 54t-28 45.5l2 9h10
q33 -21 64.5 -48t53.5 -53q22 17 51 35.5t59.5 35.5t58.5 30h10l-1 -9q-33 -31 -74 -72.5t-70 -78.5h-85z" />
    <glyph glyph-name="uni01C5" unicode="&#x1c5;" horiz-adv-x="1254" 
d="M-22 0l3 10h13q33 0 60 12t36 57l117 556q2 8 3.5 16.5t1.5 14.5q0 25 -21.5 31.5t-50.5 6.5h-13l2 10h291q140 0 215 -69.5t75 -202.5q0 -69 -16.5 -134.5t-49 -121.5t-82 -97.5t-115 -65t-148.5 -23.5h-321zM266 11q63 0 113.5 22.5t88.5 63.5t64 97.5t39 124.5t13 144
q0 85 -20 138t-59 78t-98 25h-69l-147 -693h75zM737 0l2 10l366 516h-127q-39 0 -66.5 -12t-46.5 -38.5t-33 -71.5l-5 -16h-10l41 148h368l-2 -10l-379 -516h172q47 0 75.5 13t47 41t32.5 71l11 32h10l-40 -167h-416zM992 606q-8 24 -22 51.5t-29 54t-28 45.5l2 9h10
q33 -21 64.5 -48t53.5 -53q22 17 51 35.5t59.5 35.5t58.5 30h10l-1 -9q-33 -31 -74 -72.5t-70 -78.5h-85z" />
    <glyph glyph-name="uni01C6" unicode="&#x1c6;" horiz-adv-x="1114" 
d="M166 -10q-44 0 -74 23.5t-45 65.5t-15 98q0 45 12 95.5t36.5 98.5t60.5 88t84.5 63.5t108.5 23.5q29 0 53 -6t43 -17q2 13 5 27.5t6 28.5l18 81q3 14 5.5 27t2.5 23q0 24 -16.5 32t-46.5 8h-14l2 10h199l-117 -548q-2 -12 -6.5 -34t-7 -44t-2.5 -36q0 -36 10 -55t31 -19
q18 0 38 10.5t38 23.5l5 -8q-16 -14 -39.5 -28t-51 -23t-54.5 -9q-39 0 -61.5 22.5t-22.5 63.5q0 17 2.5 37t6.5 43h-3q-23 -56 -52 -92.5t-64 -55t-75 -18.5zM215 19q24 0 46.5 17t42.5 44t34.5 58.5t20.5 60.5l67 310q-13 10 -33 17.5t-44 7.5q-39 0 -70.5 -24t-55.5 -65
t-40.5 -90t-25 -99.5t-8.5 -94.5q0 -51 8.5 -82t24 -45.5t33.5 -14.5zM597 0l2 10l366 516h-127q-39 0 -66.5 -12t-46.5 -38.5t-33 -71.5l-5 -16h-10l41 148h368l-2 -10l-379 -516h172q47 0 75.5 13t47 41t32.5 71l11 32h10l-40 -167h-416zM860 606q-8 24 -22 51.5t-29 54
t-28 45.5l2 9h10q33 -21 64.5 -48t53.5 -53q22 17 51 35.5t59.5 35.5t58.5 30h10l-1 -9q-33 -31 -74 -72.5t-70 -78.5h-85z" />
    <glyph glyph-name="uni01C7" unicode="&#x1c7;" horiz-adv-x="997" 
d="M-21 0l3 10h14q21 0 40 4.5t33.5 19.5t19.5 45l119 557q2 7 3 16t1 14q0 25 -20 31.5t-52 6.5h-13l2 10h306l-2 -10h-13q-33 0 -59.5 -11t-35.5 -54l-134 -629h209q42 0 71 18.5t48 49t30 65.5l22 74h10l-53 -217h-549zM556 -240q-27 0 -46 3t-38 8l3 10q13 -4 31.5 -6.5
t33.5 -2.5q37 0 66 18.5t50.5 65t37.5 128.5l138 655q2 6 3 14.5t1 12.5q0 25 -20 31.5t-52 6.5h-13l3 10h305l-2 -10h-13q-34 0 -60 -12t-36 -57l-137 -642q-17 -81 -50.5 -132.5t-84.5 -76t-120 -24.5z" />
    </font>
</defs>
</svg>
