<?xml version="1.0" standalone="no"?>
<!DOCTYPE svg PUBLIC "-//W3C//DTD SVG 1.1//EN" "http://www.w3.org/Graphics/SVG/1.1/DTD/svg11.dtd" >
<svg xmlns="http://www.w3.org/2000/svg" xmlns:xlink="http://www.w3.org/1999/xlink" version="1.1">
<metadata>
Created by FontForge 20200306 at Mon Nov  2 21:56:36 2020
 By convertio
Copyright 2016 Google Inc. All Rights Reserved.
</metadata>
<defs>
<font id="NotoSerifDisplay-Italic" horiz-adv-x="0" >
  <font-face 
    font-family="Noto Serif Display"
    font-weight="400"
    font-style="italic"
    font-stretch="normal"
    units-per-em="1000"
    panose-1="2 2 5 2 8 5 5 9 2 4"
    ascent="800"
    descent="-200"
    x-height="536"
    cap-height="714"
    bbox="-811 -470 2796 1064"
    underline-thickness="50"
    underline-position="-175"
    slope="-12"
    unicode-range="U+000D-FFFD"
  />
<missing-glyph horiz-adv-x="600" 
d="M94 0v714h411v-714h-411zM145 51h309v612h-309v-612z" />
    <glyph glyph-name="f_f" unicode="ff" horiz-adv-x="620" 
d="M-82 -240q-15 0 -31.5 2.5t-26.5 5.5l2 10q9 -2 23.5 -4.5t27.5 -2.5q33 0 55.5 22t39 70.5t33.5 127.5l115 535h-92l1 6l93 4l5 23q21 98 69.5 147t127.5 49q43 0 67.5 -8.5t35.5 -21.5t11 -29q0 -26 -17.5 -41.5t-52.5 -15.5q0 21 -2.5 46t-13 42.5t-34.5 17.5
q-37 0 -56.5 -41.5t-39.5 -134.5l-7 -33h203l-1 -10h-204l-114 -534q-14 -67 -34.5 -111.5t-47.5 -71t-60.5 -38t-74.5 -11.5zM215 -240q-15 0 -31.5 2.5t-26.5 5.5l2 10q8 -2 21.5 -4.5t24.5 -2.5q35 0 58 22t40.5 70.5t34.5 127.5l115 535h-92l1 6l92 4l7 33
q13 56 37.5 101.5t63 72.5t93.5 27q64 0 96.5 -20.5t32.5 -53.5t-21.5 -49t-61.5 -16q1 53 -8 91t-40 38q-25 0 -42 -21.5t-30 -63t-25 -100.5l-8 -39h111l-2 -10h-111l-114 -534q-14 -67 -34.5 -112t-47.5 -71t-60.5 -37.5t-74.5 -11.5z" />
    <glyph glyph-name="fi" unicode="fi" horiz-adv-x="583" 
d="M-88 -240q-15 0 -31.5 2.5t-26.5 5.5l2 10q8 -2 21.5 -4.5t24.5 -2.5q35 0 58 22t40.5 70.5t34.5 127.5l115 535h-92l1 6l92 4l13 55q20 86 74.5 132.5t153.5 46.5q51 0 85.5 -9.5t52 -26t17.5 -38.5q0 -33 -28 -49t-80 -16q0 36 -4 65t-15.5 46.5t-35.5 17.5
q-34 0 -58.5 -17.5t-40.5 -52.5t-27 -90l-13 -64h289l-68 -321q-2 -11 -6 -32t-6.5 -43t-2.5 -36q0 -37 10.5 -55t31.5 -18q25 0 40.5 7.5t34.5 19.5l6 -8q-22 -19 -59.5 -39.5t-75.5 -20.5q-40 0 -61.5 28t-21.5 67q0 40 8 84t14 73l60 284h-195l-114 -534
q-14 -67 -34.5 -111.5t-47.5 -71t-60.5 -38t-74.5 -11.5z" />
    <glyph glyph-name="fl" unicode="fl" horiz-adv-x="592" 
d="M-82 -240q-15 0 -31.5 2.5t-26.5 5.5l2 10q8 -2 21.5 -4.5t24.5 -2.5q35 0 58 22.5t40.5 71t34.5 126.5l115 535h-92l1 6l92 4l13 55q20 85 74.5 132t153.5 47q25 0 52.5 -7t45.5 -18l70 15h22l-116 -545q-2 -11 -6 -32.5t-7 -43.5t-3 -36q0 -36 10 -54t34 -18
q19 0 36.5 7.5t38.5 20.5l5 -9q-22 -19 -59.5 -39.5t-75.5 -20.5q-40 0 -61.5 29t-21.5 72q0 22 4 49.5t9 55t9 46.5l92 435q1 40 -25 61.5t-62 21.5q-51 0 -79.5 -39.5t-45.5 -120.5l-13 -64h111l-2 -10h-111l-114 -534q-14 -66 -34.5 -111t-47.5 -71.5t-60.5 -38
t-74.5 -11.5z" />
    <glyph glyph-name="f_f_i" unicode="ffi" horiz-adv-x="886" 
d="M-82 -240q-15 0 -31.5 2.5t-26.5 5.5l2 10q9 -2 23.5 -4.5t27.5 -2.5q33 0 55.5 22t39 70.5t33.5 127.5l115 535h-92l1 6l93 4l5 23q21 98 69.5 147t127.5 49q43 0 67.5 -8.5t35.5 -21.5t11 -29q0 -26 -17.5 -41.5t-52.5 -15.5q0 21 -2.5 46t-13 42.5t-34.5 17.5
q-37 0 -56.5 -41.5t-39.5 -134.5l-7 -33h203l13 55q14 57 42 97t74 61t112 21q51 0 85.5 -9.5t52 -26t17.5 -38.5q0 -33 -28 -49t-80 -16q0 35 -5 64t-19 46.5t-42 17.5q-31 0 -53 -17.5t-36.5 -52.5t-25.5 -89l-13 -64h289l-68 -321q-2 -10 -5.5 -30.5t-6.5 -45t-3 -47.5
q0 -25 9 -45.5t33 -20.5q17 0 37 9t39 22l5 -7q-22 -19 -59.5 -39.5t-75.5 -20.5q-40 0 -61.5 28t-21.5 79q0 19 4 46t9 54t9 45l60 284h-195l-114 -534q-14 -67 -34.5 -111.5t-47.5 -71t-60.5 -38t-74.5 -11.5q-15 0 -31.5 2.5t-26.5 5.5l2 10q9 -2 23.5 -4.5t27.5 -2.5
q34 0 56 22t38.5 70.5t33.5 127.5l115 535h-204l-114 -534q-14 -67 -34.5 -111.5t-47.5 -71t-60.5 -38t-74.5 -11.5z" />
    <glyph glyph-name="f_f_l" unicode="ffl" horiz-adv-x="888" 
d="M-82 -240q-15 0 -31.5 2.5t-26.5 5.5l2 10q9 -2 24 -4.5t28 -2.5q34 0 55.5 22t38 70.5t33.5 127.5l115 535h-92l1 6l92 4l5 23q21 98 70 147t128 49q43 0 67.5 -8.5t35.5 -21.5t11 -29q0 -26 -17.5 -41.5t-52.5 -15.5q0 21 -4 46t-15.5 42.5t-32.5 17.5
q-37 0 -55.5 -41.5t-38.5 -134.5l-7 -33h203l13 55q10 43 28.5 76.5t46 56t64.5 34.5t85 12q28 0 56 -7t46 -18l70 15h22l-116 -545q-2 -11 -6 -32.5t-6.5 -45.5t-2.5 -42q0 -32 10.5 -50.5t32.5 -18.5q18 0 37 9.5t38 22.5l5 -8q-22 -19 -59.5 -39.5t-75.5 -20.5
q-40 0 -61.5 28t-21.5 77q0 21 4 48t9 53.5t9 45.5l92 435q0 41 -25.5 61.5t-58.5 20.5q-57 0 -84 -39t-44 -120l-13 -64h111l-2 -10h-111l-114 -534q-14 -67 -34.5 -111.5t-47.5 -71t-60.5 -38t-74.5 -11.5q-15 0 -31.5 2.5t-26.5 5.5l2 10q9 -2 24 -4.5t28 -2.5
q34 0 55.5 22t38 70.5t33.5 127.5l115 535h-204l-114 -534q-14 -67 -34.5 -111.5t-47.5 -71t-60.5 -38t-74.5 -11.5z" />
    <glyph glyph-name=".notdef" horiz-adv-x="600" 
d="M94 0v714h411v-714h-411zM145 51h309v612h-309v-612z" />
    <glyph glyph-name=".null" 
 />
    <glyph glyph-name="nonmarkingreturn" horiz-adv-x="333" 
 />
    <glyph glyph-name="NULL" 
 />
    <glyph glyph-name="NULL" 
 />
    <glyph glyph-name="CR" unicode="&#xd;" horiz-adv-x="250" 
 />
    <glyph glyph-name="space" unicode=" " horiz-adv-x="250" 
 />
    <glyph glyph-name="exclam" unicode="!" horiz-adv-x="333" 
d="M141 201l59 513h116l-160 -513h-15zM112 -8q-21 0 -33 11t-12 36q0 35 18 63t51 28q20 0 32.5 -11t12.5 -37q0 -24 -7.5 -44.5t-22.5 -33t-39 -12.5z" />
    <glyph glyph-name="quotedbl" unicode="&#x22;" horiz-adv-x="280" 
d="M115 479l10 235h95l-90 -235h-15zM240 479l10 235h95l-90 -235h-15z" />
    <glyph glyph-name="numbersign" unicode="#" horiz-adv-x="559" 
d="M69 0l69 234h-116v10h118l76 254h-117v10h119l60 206h10l-60 -206h211l60 206h10l-60 -206h131v-10h-133l-76 -254h132v-10h-134l-69 -234h-10l69 234h-211l-69 -234h-10zM150 244h211l76 254h-211z" />
    <glyph glyph-name="dollar" unicode="$" horiz-adv-x="559" 
d="M234 37q-63 0 -107 19t-67 50t-23 66q0 30 13.5 48t32 26t31.5 8q0 -54 14.5 -100.5t41.5 -75.5t66 -32l58 278l-34 17q-36 19 -62 42.5t-40 53t-14 66.5q0 61 28.5 101t80 60t119.5 20l16 76h10l-16 -76q53 -1 89.5 -14t55.5 -35t19 -51q0 -31 -19.5 -50t-61.5 -19
q0 32 -8.5 68.5t-27 63t-49.5 28.5l-57 -267l29 -15q45 -23 76 -46.5t47 -51.5t16 -66q0 -60 -32 -103.5t-87.5 -66.5t-128.5 -23l-24 -115h-10zM245 46q47 2 80.5 24.5t52 58.5t18.5 78q0 24 -8.5 42.5t-28.5 35.5t-55 35zM369 675q-36 -1 -66 -22t-48 -56t-18 -80
q0 -20 7.5 -39.5t24.5 -36t45 -29.5z" />
    <glyph glyph-name="percent" unicode="%" horiz-adv-x="896" 
d="M207 0l501 714h11l-501 -714h-11zM204 281q-59 0 -94 39t-35 120q0 42 12.5 90.5t38 92.5t65 72t94.5 28q70 0 101.5 -44t31.5 -115q0 -31 -8 -69t-24.5 -75.5t-42 -69t-60 -50.5t-79.5 -19zM208 291q25 0 45.5 20t35.5 53t25.5 71.5t15.5 76.5t5 68q0 63 -11 98t-41 35
q-25 0 -45.5 -20t-36 -53t-26 -71.5t-16 -76.5t-5.5 -67q0 -64 12 -99t42 -35zM646 -8q-59 0 -94 39t-35 120q0 42 12.5 90.5t38 92.5t65 72t94.5 28q70 0 101.5 -44t31.5 -115q0 -31 -8 -69t-24.5 -75.5t-42 -69t-60 -50.5t-79.5 -19zM650 2q25 0 45.5 20t35.5 53
t25.5 71.5t15.5 76.5t5 68q0 63 -12 98t-42 35q-25 0 -45.5 -20t-35.5 -53t-25.5 -71.5t-15.5 -76.5t-5 -67q0 -64 12 -99t42 -35z" />
    <glyph glyph-name="ampersand" unicode="&#x26;" horiz-adv-x="750" 
d="M254 -10q-74 0 -123 25.5t-72.5 67.5t-23.5 94q0 65 29.5 106.5t79.5 66t112 37.5q-33 52 -46 90.5t-13 74.5q0 57 25 95.5t73 57.5t115 19q59 0 96 -17.5t55 -46.5t18 -66q0 -53 -25 -85t-75 -54t-127 -45l149 -205q23 42 38.5 88t24.5 89l8 39h180l-2 -10h-9
q-30 0 -51 -9t-38 -30.5t-37 -60.5q-16 -33 -35.5 -73t-44.5 -79l55 -75q28 -37 45 -55.5t46 -18.5h9l-2 -10h-153l-60 83q-40 -40 -93.5 -66.5t-127.5 -26.5zM264 0q57 0 101.5 34.5t78.5 91.5l-182 253q-48 -24 -76 -51.5t-40 -63t-12 -85.5q0 -51 15 -91.5t44.5 -64
t70.5 -23.5zM346 417q53 28 84 54t44.5 56t13.5 70q0 47 -20.5 82t-61.5 35q-57 0 -85 -37t-28 -114q0 -20 4.5 -41.5t16 -47t32.5 -57.5z" />
    <glyph glyph-name="quotesingle" unicode="'" horiz-adv-x="155" 
d="M115 479l10 235h95l-90 -235h-15z" />
    <glyph glyph-name="parenleft" unicode="(" horiz-adv-x="346" 
d="M218 -128q-62 27 -101.5 74.5t-57.5 108.5t-18 131q0 91 22.5 182.5t68 171.5t114 138t161.5 82l-2 -10q-64 -36 -110.5 -96t-77.5 -132t-49 -144.5t-25.5 -135t-7.5 -103.5q0 -57 5.5 -101t24 -81t55.5 -75z" />
    <glyph glyph-name="parenright" unicode=")" horiz-adv-x="346" 
d="M-42 -126q71 39 119.5 100t78 132t45.5 142.5t21.5 133.5t5.5 103q0 50 -3 96.5t-20.5 87.5t-61.5 73l2 10q63 -27 102 -74.5t57 -108.5t18 -131q0 -91 -22.5 -182.5t-68 -171.5t-114 -138t-161.5 -82z" />
    <glyph glyph-name="asterisk" unicode="*" horiz-adv-x="500" 
d="M317 373l-85 18l70 163l-182 -75l-18 84l194 10l-173 88l51 70l135 -145l3 179l85 -18l-72 -164l183 75l18 -84l-195 -9l174 -87l-50 -68l-137 141z" />
    <glyph glyph-name="plus" unicode="+" horiz-adv-x="559" 
d="M288 143v204h-204v20h204v205h20v-205h205v-20h-205v-204h-20z" />
    <glyph glyph-name="comma" unicode="," horiz-adv-x="251" 
d="M-21 -136q37 10 60 23.5t34 32t11 43.5q0 23 -10 35.5t-22.5 21t-22.5 19t-10 30.5q0 29 18.5 44t43.5 15q32 0 55 -21.5t23 -60.5q0 -45 -19 -83.5t-59 -66t-103 -42.5z" />
    <glyph glyph-name="hyphen" unicode="-" horiz-adv-x="310" 
d="M24 263l4 20h260l-4 -20h-260z" />
    <glyph glyph-name="period" unicode="." horiz-adv-x="237" 
d="M70 -8q-21 0 -33 11t-12 36q0 35 18 63t51 28q20 0 32.5 -11t12.5 -37q0 -24 -7.5 -44.5t-22.5 -33t-39 -12.5z" />
    <glyph glyph-name="slash" unicode="/" horiz-adv-x="243" 
d="M-78 -121l411 881h10l-411 -881h-10z" />
    <glyph glyph-name="zero" unicode="0" horiz-adv-x="559" 
d="M247 -11q-86 0 -139.5 62t-53.5 180q0 62 11.5 130.5t35 133t59 116.5t84 83t110.5 31q53 0 96 -24t68.5 -74.5t25.5 -130.5q0 -61 -11 -130t-34 -135.5t-58 -121.5t-83.5 -87.5t-110.5 -32.5zM248 -1q35 0 63.5 23.5t50.5 64.5t38 93.5t26.5 110.5t15.5 115.5t5 108.5
q0 75 -10 119t-31.5 62.5t-54.5 18.5q-42 0 -74.5 -33.5t-56 -89t-39 -123t-23 -137.5t-7.5 -130q0 -76 11 -120.5t32.5 -63.5t53.5 -19z" />
    <glyph glyph-name="one" unicode="1" horiz-adv-x="559" 
d="M48 0l1 10h53q25 0 44.5 5t33.5 20.5t20 46.5l85 400q6 28 12.5 56t14 56.5t13.5 55.5h-1q-35 -38 -62 -64t-49 -38.5t-44 -12.5q-21 0 -31.5 15.5t-10.5 38.5q43 -1 73.5 3.5t54.5 17t49 36.5l74 72h58l-136 -640q-1 -6 -2.5 -14.5t-1.5 -13.5q0 -25 20.5 -32.5
t51.5 -7.5h54l-2 -10h-372z" />
    <glyph glyph-name="two" unicode="2" horiz-adv-x="559" 
d="M8 0l21 81l238 212q51 45 83 83t50 71.5t25 67t7 69.5q0 70 -23.5 100t-67.5 30q-34 0 -58.5 -13t-41.5 -37.5t-27.5 -60t-15.5 -80.5q-31 0 -51 15t-20 49q0 35 25.5 66t74.5 51t118 20q94 0 141.5 -39t47.5 -107q0 -46 -24.5 -91.5t-74.5 -95t-129 -109.5l-265 -202
h324q31 0 50 10.5t31 28t19 36.5l6 16h10l-40 -171h-433z" />
    <glyph glyph-name="three" unicode="3" horiz-adv-x="559" 
d="M203 -10q-71 0 -114 15t-61.5 39t-18.5 51q0 35 22.5 54.5t53.5 19.5q0 -58 12 -95t39 -55.5t71 -18.5q34 0 64 12t53 38t36 66.5t13 97.5q0 73 -35.5 113.5t-101.5 40.5h-43l2 10h32q42 0 78.5 15t63.5 43t42 67.5t15 89.5q0 63 -19.5 92t-61.5 29q-47 0 -76 -24.5
t-45 -67t-25 -97.5q-31 0 -52.5 13.5t-21.5 50.5q0 41 29.5 71.5t79.5 47t111 16.5q83 0 133.5 -37.5t50.5 -105.5q0 -39 -15 -73t-45 -61.5t-75.5 -45.5t-105.5 -26q60 -4 102.5 -23.5t65 -53.5t22.5 -81q0 -63 -25 -106.5t-66 -70t-89 -38.5t-95 -12z" />
    <glyph glyph-name="four" unicode="4" horiz-adv-x="559" 
d="M152 0l1 10h44q23 0 42.5 5t34.5 20.5t21 46.5l74 357q11 50 28.5 122t34.5 142q-15 -19 -30.5 -37t-31.5 -37t-35 -41l-299 -346l2 10h512l-12 -56h-528l9 41l413 477h93l-135 -636q-1 -6 -2.5 -14.5t-1.5 -13.5q0 -25 20.5 -32.5t51.5 -7.5h23l-2 -10h-327z" />
    <glyph glyph-name="five" unicode="5" horiz-adv-x="559" 
d="M191 -10q-64 0 -102.5 13.5t-55.5 36.5t-17 50q0 28 18 45t57 17q0 -45 8.5 -79.5t31 -53.5t63.5 -19q39 0 71.5 15t56 45.5t36.5 78t13 111.5q0 49 -9.5 86t-34 58.5t-68.5 21.5q-31 0 -69 -13.5t-79 -47.5l-11 2l107 357h334l-27 -151h-10q2 13 3 27t1 20
q0 11 -10 17.5t-37 6.5h-268l-79 -266q24 21 50.5 34t52.5 19t48 6q64 0 111 -21t73 -62t26 -101q0 -54 -19.5 -100t-56 -80.5t-89.5 -53.5t-119 -19z" />
    <glyph glyph-name="six" unicode="6" horiz-adv-x="559" 
d="M260 -10q-52 0 -94.5 27t-68 80.5t-25.5 134.5q0 75 15 146.5t44 134t71 110t95 74.5t117 27q76 0 114.5 -27t38.5 -63q0 -35 -23 -55t-64 -20q1 39 -3 74.5t-19 58t-46 22.5q-37 0 -70 -21t-61.5 -63t-51.5 -104t-41 -144q23 16 61 34t86 18q58 0 95.5 -24t55.5 -63.5
t18 -87.5q0 -52 -15 -100.5t-45 -86.5t-76 -60t-108 -22zM268 0q39 0 65 23t42 60.5t23 82t7 87.5q0 50 -7 88t-26 59.5t-54 21.5q-32 0 -70 -17.5t-63 -36.5q-5 -24 -9 -49.5t-6 -54t-2 -61.5q0 -67 10 -112.5t32 -68t58 -22.5z" />
    <glyph glyph-name="seven" unicode="7" horiz-adv-x="559" 
d="M128 0l426 634h-351q-27 0 -44.5 -13t-24.5 -38l-14 -50h-10l43 181h447l-6 -29l-391 -685h-75z" />
    <glyph glyph-name="eight" unicode="8" horiz-adv-x="559" 
d="M244 -10q-98 0 -155 48.5t-57 123.5q0 56 26 93t72.5 61.5t109.5 42.5q-37 25 -61 52.5t-35.5 58t-11.5 61.5q0 54 24.5 98t77 69.5t137.5 25.5q89 0 136.5 -41.5t47.5 -104.5q0 -52 -22 -87.5t-63 -60t-99 -44.5q43 -24 73.5 -51.5t47 -59.5t16.5 -73q0 -73 -35 -120
t-94.5 -69.5t-134.5 -22.5zM257 0q48 0 83 19t54 56.5t19 90.5q0 41 -16 71t-52 57.5t-96 58.5q-37 -24 -64 -50t-42 -63t-15 -94q0 -41 13.5 -74t42 -52.5t73.5 -19.5zM359 392q63 41 85 85.5t22 107.5q0 34 -8.5 63.5t-30.5 47.5t-62 18q-46 0 -76.5 -20.5t-45.5 -57
t-15 -85.5q0 -31 12 -58t41 -51.5t78 -49.5z" />
    <glyph glyph-name="nine" unicode="9" horiz-adv-x="559" 
d="M199 -10q-60 0 -94.5 13.5t-48.5 34t-14 41.5q0 25 15.5 41.5t43.5 16.5q1 -31 9 -63t30.5 -53t66.5 -21q38 0 69 22.5t56.5 66.5t47 108t41.5 146q-22 -25 -55.5 -45t-80.5 -20q-88 0 -136.5 52t-48.5 134q0 57 19 105t53 82.5t78.5 53.5t95.5 19q56 0 98 -27t66 -80
t24 -130q0 -50 -11 -115t-35 -132t-63.5 -123.5t-95 -91.5t-130.5 -35zM298 291q38 0 69 20t57 49q4 24 6.5 51.5t4.5 56.5t2 56q0 60 -9.5 102.5t-30 65t-54.5 22.5q-38 0 -65.5 -21.5t-44.5 -58.5t-25 -81.5t-8 -91.5q0 -59 10 -96.5t32 -55.5t56 -18z" />
    <glyph glyph-name="colon" unicode=":" horiz-adv-x="286" 
d="M84 -8q-21 0 -33 11t-12 36q0 35 18 63t51 28q20 0 32.5 -11t12.5 -37q0 -24 -7.5 -44.5t-22.5 -33t-39 -12.5zM174 403q-21 0 -33 11t-12 36q0 35 18 63t51 28q20 0 32.5 -11t12.5 -37q0 -23 -7.5 -44t-22.5 -33.5t-39 -12.5z" />
    <glyph glyph-name="semicolon" unicode=";" horiz-adv-x="286" 
d="M-7 -136q37 10 60 23.5t34 32t11 43.5q0 23 -10 35.5t-22.5 21t-22.5 19t-10 30.5q0 29 18.5 44t43.5 15q32 0 55 -21.5t23 -60.5q0 -45 -19 -83.5t-58.5 -66t-103.5 -42.5zM174 403q-21 0 -33 11t-12 36q0 35 18 63t51 28q20 0 32.5 -11t12.5 -37q0 -23 -7.5 -44
t-22.5 -33.5t-39 -12.5z" />
    <glyph glyph-name="less" unicode="&#x3c;" horiz-adv-x="559" 
d="M488 119l-429 228v20l429 228v-23l-407 -215l407 -215v-23z" />
    <glyph glyph-name="equal" unicode="=" horiz-adv-x="559" 
d="M87 455v20h423v-20h-423zM87 239v20h423v-20h-423z" />
    <glyph glyph-name="greater" unicode="&#x3e;" horiz-adv-x="559" 
d="M108 119v23l407 215l-407 215v23l429 -228v-20z" />
    <glyph glyph-name="question" unicode="?" horiz-adv-x="500" 
d="M206 329q44 4 80 25t62.5 54.5t41 75.5t14.5 87q0 46 -10 77.5t-31.5 48.5t-55.5 17q-42 0 -67 -25.5t-38 -66.5t-19 -90q-35 0 -53.5 16t-18.5 44q0 35 24 65t69.5 48.5t108.5 18.5q87 0 138 -40.5t51 -113.5q0 -64 -34.5 -113.5t-91 -82.5t-122.5 -47l-46 -126h-15z
M168 -8q-21 0 -33 11t-12 36q0 35 18 63t51 28q20 0 32.5 -11t12.5 -37q0 -24 -7.5 -44.5t-22.5 -33t-39 -12.5z" />
    <glyph glyph-name="at" unicode="@" horiz-adv-x="921" 
d="M432 -142q-107 0 -190 39.5t-130 119.5t-47 201q0 106 34 196.5t96 157.5t147.5 104.5t187.5 37.5q112 0 187 -43t113 -115.5t38 -163.5q0 -72 -18 -130.5t-48.5 -99.5t-67.5 -63t-75 -22q-19 0 -39 6.5t-37.5 22.5t-28 43t-10.5 69h-2q-13 -48 -35 -79t-51 -46.5
t-64 -15.5q-56 0 -92.5 40t-36.5 122q0 43 14.5 93t43.5 95t73.5 73.5t105.5 28.5q41 0 61.5 -12.5t31.5 -32.5l72 36h10l-51 -254q-7 -32 -11 -58t-4 -46q0 -39 16 -56.5t42 -17.5q28 0 53 18.5t44.5 56.5t31 95.5t11.5 136.5q0 108 -36 176.5t-100 100.5t-147 32
q-73 0 -141 -31.5t-122 -92.5t-85.5 -151.5t-31.5 -208.5q0 -99 23.5 -166.5t64.5 -108t94.5 -58.5t113.5 -18q68 0 137.5 24t135.5 73l6 -9q-43 -32 -90 -54.5t-96.5 -33.5t-100.5 -11zM416 95q29 0 53 18.5t42 54t28 87.5l42 224q-4 14 -22 26.5t-46 12.5
q-34 0 -60.5 -21.5t-45.5 -56.5t-31 -77t-17.5 -84t-5.5 -77q0 -60 17 -83.5t46 -23.5z" />
    <glyph glyph-name="A" unicode="A" horiz-adv-x="700" 
d="M-62 0l2 10h19q20 0 33.5 6t27 22.5t32.5 49.5l363 626h64l94 -651q3 -21 9.5 -32.5t18.5 -16t31 -4.5h13l-2 -10h-272l2 10h23q39 0 58 13.5t19 37.5q0 8 -0.5 17.5t-1.5 16.5l-47 369q-4 30 -9 71t-8.5 79.5t-5.5 59.5q-8 -16 -22 -41t-31 -53.5t-33 -56.5t-29 -50
l-215 -371q-10 -18 -14.5 -31.5t-4.5 -24.5q0 -19 14 -27.5t42 -8.5h69l-2 -10h-237zM155 259l5 10h338v-10h-343z" />
    <glyph glyph-name="B" unicode="B" horiz-adv-x="639" 
d="M-19 0l2 10h13q34 0 61 12.5t37 59.5l117 554q2 6 3 15t1 13q0 26 -21.5 33t-50.5 7h-13l2 10h259q116 0 175 -38t59 -112q0 -61 -31 -101.5t-84 -61.5t-119 -26v-1q64 -3 106.5 -20.5t64 -50.5t21.5 -81q0 -52 -18.5 -93.5t-54.5 -70t-90 -43.5t-125 -15h-314zM256 10
q62 0 104 16.5t67 46t36.5 69.5t11.5 88q0 66 -34.5 102.5t-111.5 36.5h-74l-76 -359h77zM334 379q51 0 86 15t56 41t30.5 61t9.5 74q0 65 -32.5 99.5t-97.5 34.5h-60l-69 -325h77z" />
    <glyph glyph-name="C" unicode="C" horiz-adv-x="636" 
d="M337 -10q-87 0 -148.5 31.5t-94.5 91.5t-33 145q0 71 19 139.5t54.5 127.5t86 103.5t114 70t138.5 25.5q89 0 137 -30.5t48 -80.5q0 -36 -25.5 -57t-66.5 -21q0 27 -0.5 58t-9 58.5t-29 45t-59.5 17.5q-55 0 -101.5 -29t-83 -78t-61.5 -110.5t-38.5 -127.5t-13.5 -127
q0 -77 20 -131t59.5 -82.5t98.5 -28.5q50 0 83.5 18t56 51t38.5 77q9 -4 14.5 -13t5.5 -20q0 -26 -21.5 -55t-67.5 -48.5t-120 -19.5z" />
    <glyph glyph-name="D" unicode="D" horiz-adv-x="723" 
d="M-19 0l2 10h13q34 0 61 12.5t37 59.5l117 554q2 7 3 14.5t1 13.5q0 27 -22.5 33.5t-49.5 6.5h-13l2 10h280q135 0 209.5 -69.5t74.5 -202.5q0 -71 -16.5 -137t-49.5 -121.5t-81.5 -96.5t-111.5 -64t-141 -23h-315zM265 11q60 0 110.5 21t89.5 60t66.5 93.5t41.5 122
t14 145.5q0 87 -20.5 142.5t-61 82t-100.5 26.5h-79l-148 -693h87z" />
    <glyph glyph-name="E" unicode="E" horiz-adv-x="621" 
d="M-19 0l2 10h13q33 0 59.5 11t36.5 56l118 555q2 7 2.5 13t0.5 11q0 32 -20.5 40t-49.5 8h-13l2 10h504l-32 -175h-10q1 5 2 16t2.5 24t1.5 22q0 28 -4.5 51t-22.5 37.5t-57 14.5h-190l-69 -325h241l-2 -10h-241l-76 -359h216q33 0 56 9.5t39 26t27 38.5t20 48l14 43h10
l-44 -175h-536z" />
    <glyph glyph-name="F" unicode="F" horiz-adv-x="586" 
d="M-19 0l2 10h13q33 0 59.5 11.5t37.5 55.5l118 559q2 6 3 15t1 13q0 26 -20 33t-52 7h-13l2 10h504l-32 -175h-10q2 17 4 35t2 28q0 28 -6.5 51t-28.5 37t-68 14h-170l-75 -348h241l-2 -10h-241l-55 -264q-1 -7 -2 -13.5t-1 -11.5q0 -31 14.5 -39t34.5 -8h33l-2 -10h-291z
" />
    <glyph glyph-name="G" unicode="G" horiz-adv-x="714" 
d="M345 -10q-141 0 -212.5 72t-71.5 196q0 77 20 147t57.5 128.5t90.5 101t119 66t143 23.5q53 0 93 -8.5t66 -23.5t39 -34.5t13 -41.5q0 -26 -13 -43.5t-34.5 -26.5t-48.5 -9q0 52 -8 91.5t-35 62.5t-83 23q-44 0 -84 -17.5t-74.5 -49.5t-62.5 -75.5t-48 -96.5t-30.5 -112
t-10.5 -121q0 -71 14.5 -126t53 -85.5t109.5 -30.5q33 0 65 4t54 10l50 238q2 6 3 15t1 13q0 26 -21.5 33t-50.5 7h-9l2 10h266l-2 -10h-4q-18 0 -35 -5t-30 -20t-20 -47l-45 -212q-55 -23 -108 -34.5t-118 -11.5z" />
    <glyph glyph-name="H" unicode="H" horiz-adv-x="775" 
d="M-19 0l2 10h13q34 0 61 12.5t37 59.5l117 554q2 6 3 15t1 13q0 17 -9 25.5t-25.5 11.5t-37.5 3h-13l2 10h291l-2 -10h-13q-34 0 -60.5 -12.5t-36.5 -59.5l-54 -254h325l55 258q2 6 3 15t1 13q0 26 -20 33t-52 7h-13l2 10h291l-2 -10h-13q-34 0 -60.5 -12.5t-36.5 -59.5
l-117 -554q-1 -6 -2.5 -14.5t-1.5 -13.5q0 -17 9.5 -25.5t25.5 -11.5t37 -3h12l-2 -10h-291l2 10h13q34 0 61 12.5t37 59.5l59 286h-325l-60 -290q-1 -6 -2.5 -14.5t-1.5 -13.5q0 -25 20.5 -32.5t51.5 -7.5h13l-3 -10h-291z" />
    <glyph glyph-name="I" unicode="I" horiz-adv-x="349" 
d="M-19 0l1 10h13q34 0 61 12.5t37 59.5l118 554q2 6 3 15t1 13q0 26 -20 33t-52 7h-13l2 10h291l-2 -10h-13q-34 0 -60.5 -12.5t-36.5 -59.5l-118 -554q-1 -6 -2.5 -14.5t-1.5 -13.5q0 -25 20.5 -32.5t51.5 -7.5h13l-2 -10h-291z" />
    <glyph glyph-name="J" unicode="J" horiz-adv-x="357" 
d="M-73 -240q-27 0 -45.5 3t-36.5 8l3 10q13 -4 31.5 -6.5t33.5 -2.5q37 0 66 19.5t50.5 67.5t37.5 132l137 645q2 6 3 15t1 13q0 26 -20 33t-52 7h-13l2 10h291l-2 -10h-13q-34 0 -60 -12.5t-37 -59.5l-137 -640q-17 -79 -47 -130.5t-77.5 -76.5t-115.5 -25z" />
    <glyph glyph-name="K" unicode="K" horiz-adv-x="702" 
d="M-19 0l2 10h13q23 0 42.5 5t34.5 20.5t21 46.5l117 554q2 6 3 15t1 13q0 26 -20 33t-52 7h-13l2 10h291l-2 -10h-13q-22 0 -41.5 -5t-34 -20t-21.5 -47l-74 -338l317 291q32 30 46 47.5t14 37.5q0 13 -8 20t-25.5 10.5t-45.5 3.5l2 10h221l-2 -10q-16 0 -34 -6
t-37.5 -17.5t-39.5 -27t-40 -34.5l-231 -216l31 41l133 -322q15 -36 27 -61t26 -38t35 -13h3l-2 -10h-14q-45 0 -75 5t-49.5 15.5t-32 28.5t-23.5 44l-108 272l37 24l-128 -110l-40 -201q-1 -6 -2.5 -14.5t-1.5 -13.5q0 -25 20.5 -32.5t51.5 -7.5h12l-2 -10h-291z" />
    <glyph glyph-name="L" unicode="L" horiz-adv-x="620" 
d="M-18 0l2 10h13q22 0 41.5 5t34 20.5t20.5 46.5l118 554q2 6 3 15t1 13q0 26 -20 33t-52 7h-13l2 10h291l-2 -10h-13q-33 0 -59.5 -11.5t-36.5 -56.5l-134 -626h219q39 0 66.5 18t45.5 48t28 64l22 75h10l-52 -215h-535z" />
    <glyph glyph-name="M" unicode="M" horiz-adv-x="920" 
d="M-18 0l2 10h13q28 0 52.5 4.5t42.5 18.5t26 44l119 559q2 6 3 15t1 13q0 26 -27.5 33t-70.5 7h-13l2 10h204l125 -612l358 612h175l-2 -10h-13q-34 0 -60.5 -12.5t-36.5 -59.5l-118 -554q-1 -6 -2.5 -14.5t-1.5 -13.5q0 -25 20.5 -32.5t51.5 -7.5h13l-2 -10h-266l2 10h3
q22 0 38.5 4t28.5 17.5t18 41.5l122 570l-376 -643h-29l-132 659l-123 -581q-1 -6 -2.5 -14.5t-1.5 -13.5q0 -25 27 -32.5t69 -7.5h13l-2 -10h-250z" />
    <glyph glyph-name="N" unicode="N" horiz-adv-x="744" 
d="M-18 0l2 10h13q28 0 52 4.5t40.5 20t23.5 47.5l118 554q2 6 3 15t1 13q0 26 -25.5 33t-66.5 7h-13l2 10h195l255 -576l106 498q2 7 3 15.5t1 12.5q0 26 -29 33t-74 7h-13l2 10h251l-2 -10h-13q-27 0 -51 -4t-41.5 -19.5t-24.5 -48.5l-134 -632h-30l-288 652l-123 -574
q-1 -6 -2.5 -14.5t-1.5 -13.5q0 -25 29 -32.5t74 -7.5h13l-2 -10h-250z" />
    <glyph glyph-name="O" unicode="O" horiz-adv-x="742" 
d="M323 -11q-74 0 -133.5 31.5t-94 93.5t-34.5 152q0 58 16 121t48.5 123t80.5 108.5t112 77.5t143 29q69 0 128 -29t95 -89.5t36 -156.5q0 -46 -11 -97.5t-32.5 -103.5t-54.5 -98.5t-77 -83t-99.5 -57.5t-122.5 -21zM329 -1q58 0 103.5 32t79 84.5t55.5 116t32.5 127.5
t10.5 118q0 93 -20.5 144.5t-55.5 72.5t-81 21q-58 0 -104 -32t-79.5 -84.5t-55.5 -116t-33 -127.5t-11 -117q0 -94 21 -146t57.5 -72.5t80.5 -20.5z" />
    <glyph glyph-name="P" unicode="P" horiz-adv-x="619" 
d="M-18 0l2 10h13q33 0 59.5 12.5t36.5 59.5l118 554q2 6 3 15t1 13q0 26 -20 33t-52 7h-13l2 10h256q70 0 121 -22t79 -64.5t28 -106.5q0 -30 -7.5 -63.5t-26.5 -65.5t-53.5 -57.5t-88 -41t-130.5 -15.5h-74l-43 -200q-1 -6 -2.5 -14.5t-1.5 -13.5q0 -25 15 -32.5t37 -7.5
h33l-2 -10h-290zM291 288q61 0 103 18t67.5 51.5t37 79.5t11.5 101q0 86 -32 126t-106 40h-46l-88 -416h53z" />
    <glyph glyph-name="Q" unicode="Q" horiz-adv-x="741" 
d="M460 -226q-54 0 -90 17t-58 46.5t-32 70t-12 86.5q-60 10 -106.5 44.5t-73.5 91.5t-27 136q0 58 16 121t48.5 123t80.5 108.5t112 77.5t143 29q69 0 128 -29t95 -89.5t36 -156.5q0 -52 -13.5 -110t-41 -115t-68.5 -106t-96 -82.5t-125 -43.5q2 -55 10 -94t22.5 -63
t34.5 -35t46 -11q21 0 37.5 3t30.5 7l2 -10q-19 -6 -41.5 -11t-57.5 -5zM329 -1q58 0 103.5 31t79 82.5t55.5 114.5t32.5 128t10.5 122q0 88 -19.5 140t-54 75t-80.5 23q-58 0 -104 -31t-80.5 -82.5t-57 -114.5t-33.5 -128t-11 -121q0 -89 19 -141.5t55 -75t85 -22.5z" />
    <glyph glyph-name="R" unicode="R" horiz-adv-x="659" 
d="M-18 0l2 10h13q22 0 41 4.5t33.5 18.5t20.5 44l119 559l2.5 15t1.5 13q0 26 -20 33t-52 7h-13l2 10h262q116 0 172.5 -42t56.5 -128q0 -49 -17.5 -83t-45.5 -57t-61 -37t-64 -23l70 -223q12 -36 22 -61t23.5 -37.5t35.5 -12.5h8l-2 -10h-13q-59 0 -94.5 9.5t-55.5 35
t-33 72.5l-58 216h-90l-55 -255q-1 -6 -2.5 -14.5t-1.5 -13.5q0 -25 20.5 -32.5t51.5 -7.5h33l-2 -10h-310zM327 343q58 0 100.5 20t66 64t23.5 117q0 59 -13.5 94t-40.5 50.5t-69 15.5h-68l-76 -361h77z" />
    <glyph glyph-name="S" unicode="S" horiz-adv-x="544" 
d="M229 -10q-73 0 -122.5 19.5t-74.5 52.5t-25 71t24 57t53 19q0 -56 13.5 -104t45.5 -76.5t86 -28.5t89.5 20.5t52.5 58t17 89.5q0 30 -9 54t-36 48.5t-81 54.5q-42 24 -74 52.5t-50 66t-18 87.5q0 41 16.5 76.5t48 61.5t76.5 40.5t102 14.5q58 0 100.5 -13.5t66 -38
t23.5 -56.5q0 -31 -18.5 -50t-59.5 -19q0 27 -2.5 56t-12.5 54.5t-33 41t-64 15.5q-40 0 -72.5 -18t-52 -54.5t-19.5 -93.5q0 -37 13.5 -62t41.5 -46t69 -45q50 -29 83 -58.5t49 -63t16 -73.5q0 -50 -18 -89t-52 -66t-82.5 -41t-109.5 -14z" />
    <glyph glyph-name="T" unicode="T" horiz-adv-x="613" 
d="M98 0l2 10h13q29 0 50 8t34.5 24t18.5 40l132 622h-82q-50 0 -82.5 -12t-52.5 -41t-34 -79l-9 -33h-10l43 175h561l-31 -175h-10q4 21 5.5 35.5t2.5 24.5t1 18q0 49 -27 68t-90 19h-84l-132 -622q-1 -6 -2 -11t-1 -10q0 -25 18.5 -38t55.5 -13h13l-2 -10h-301z" />
    <glyph glyph-name="U" unicode="U" horiz-adv-x="713" 
d="M329 -10q-109 0 -168 45.5t-59 127.5q0 16 3.5 44t7.5 45l81 384q2 6 3 15t1 13q0 26 -20 33t-52 7h-13l2 10h291l-1 -10h-13q-22 0 -42 -5t-34.5 -20t-21.5 -47l-82 -385q-3 -17 -6 -33.5t-4.5 -32.5t-1.5 -34q0 -70 34 -108.5t98 -38.5q83 0 135 27.5t81 74t41 104.5
l92 430q2 6 3 15t1 13q0 26 -20 33t-52 7h-13l2 10h200l-1 -10h-13q-22 0 -42 -5t-34.5 -20t-21.5 -47l-91 -428q-14 -66 -47 -114t-88 -74t-135 -26z" />
    <glyph glyph-name="V" unicode="V" horiz-adv-x="675" 
d="M161 651q-4 32 -17.5 42.5t-42.5 10.5h-13l3 10h272l-2 -10h-23q-32 0 -52 -10t-20 -39q0 -8 0.5 -18.5t1.5 -17.5l44 -357q3 -25 6 -48t5.5 -44.5t4.5 -41t4 -37.5q14 25 28 51.5t29.5 56.5t33.5 63l189 350q10 18 14.5 30.5t4.5 23.5q0 20 -18 29t-53 9h-40l2 10h244
l-3 -10h-19q-23 0 -42 -5.5t-35.5 -22.5t-34.5 -50l-339 -626h-43z" />
    <glyph glyph-name="W" unicode="W" horiz-adv-x="1045" 
d="M169 651q-2 21 -8.5 32.5t-19 16t-32.5 4.5h-13l2 10h272l-2 -10h-23q-32 0 -52 -13.5t-20 -37.5q0 -8 0.5 -17.5t1.5 -16.5l27 -352q3 -37 4.5 -62t3 -42.5t2 -30t1 -24t1.5 -24.5q17 35 34 70.5t44 91.5l219 461h42l53 -433q3 -30 6 -57.5t5.5 -51t4.5 -42.5t3 -33
q8 16 16.5 34t18 39.5t21.5 46t25 52.5l168 350q9 19 13 31t4 25q0 19 -13.5 27.5t-45.5 8.5h-32l2 10h224l-3 -10h-19q-24 0 -43 -5t-35.5 -21.5t-33.5 -51.5l-301 -626h-62l-66 582l-278 -582h-61z" />
    <glyph glyph-name="X" unicode="X" horiz-adv-x="660" 
d="M-49 0l2 10h4q24 0 45.5 5t44 20.5t48.5 46.5l234 276l-15 -26l-111 321q-10 29 -28.5 40t-49.5 11h-13l2 10h271l-2 -10h-23q-25 0 -35 -7t-10 -21q0 -10 4.5 -24t11.5 -36l61 -202l-12 -9l171 209q15 17 24 31t9 30q0 11 -7.5 17t-22 9t-35.5 3h-19l2 10h219l-2 -10h-9
q-23 0 -44.5 -7t-43 -23t-45.5 -45l-197 -240l13 23l121 -349q11 -31 28 -42t41 -11h13l-2 -10h-270l2 10h11q30 0 46 10t16 25q0 14 -4 27.5t-13 41.5l-67 216l11 9l-196 -232q-17 -20 -28 -34.5t-11 -30.5q0 -12 7.5 -19t24.5 -10t43 -3h24l-2 -10h-237z" />
    <glyph glyph-name="Y" unicode="Y" horiz-adv-x="625" 
d="M104 0l2 10h23q33 0 59.5 11t36.5 56l46 216l-109 358q-9 29 -20 41t-40 12h-13l2 10h270l-2 -10h-50q-20 0 -29.5 -7t-9.5 -20q0 -8 1.5 -17t4 -19l5.5 -22l55 -202q6 -19 11 -38.5t10.5 -39t10.5 -38.5l34 48l34 48l150 211q17 23 24 37.5t7 27.5q0 16 -11 23.5
t-38 7.5h-63l2 10h217l-2 -10h-19q-15 0 -29 -8.5t-28.5 -25t-33.5 -42.5l-240 -337l-46 -213q-1 -6 -2.5 -14.5t-1.5 -13.5q0 -25 20.5 -32.5t51.5 -7.5h23l-2 -10h-311z" />
    <glyph glyph-name="Z" unicode="Z" horiz-adv-x="605" 
d="M-20 0l2 10l525 694h-239q-45 0 -74.5 -14.5t-47.5 -41t-30 -62.5l-14 -47h-10l42 175h494l-2 -10l-526 -694h261q54 0 86.5 17t51.5 46.5t30 66.5l11 35h10l-42 -175h-528z" />
    <glyph glyph-name="bracketleft" unicode="[" horiz-adv-x="314" 
d="M-24 -128l189 888h223l-2 -10h-43q-22 0 -41.5 -5t-34 -20t-21.5 -47l-156 -728q-1 -6 -2.5 -14.5t-1.5 -13.5q0 -25 20.5 -32.5t51.5 -7.5h43l-2 -10h-223z" />
    <glyph glyph-name="backslash" unicode="\" horiz-adv-x="240" 
d="M147 -121l-42 881h9l43 -881h-10z" />
    <glyph glyph-name="bracketright" unicode="]" horiz-adv-x="313" 
d="M-53 -128l2 10h43q22 0 41.5 5t34 20.5t20.5 46.5l156 728q2 6 3 15t1 13q0 26 -20 33t-52 7h-43l2 10h223l-189 -888h-222z" />
    <glyph glyph-name="asciicircum" unicode="^" horiz-adv-x="559" 
d="M81 261l184 453h24l186 -453h-22l-176 433l-174 -433h-22z" />
    <glyph glyph-name="underscore" unicode="_" horiz-adv-x="459" 
d="M-87 -123l4 20h468l-4 -20h-468z" />
    <glyph glyph-name="grave" unicode="`" horiz-adv-x="259" 
d="M281 606q-16 15 -36 35.5t-40 42t-36.5 40.5t-24.5 32l2 10h90q6 -22 16 -49t21 -53t20 -48l-2 -10h-10z" />
    <glyph glyph-name="a" unicode="a" horiz-adv-x="580" 
d="M162 -10q-44 0 -73 24t-42.5 65.5t-13.5 93.5q0 47 12.5 98.5t37.5 100t61 88t83 63t104 23.5q41 0 65 -11.5t43 -29.5l53 30h32l-68 -320q-2 -11 -6 -32t-6.5 -43t-2.5 -36q0 -40 10.5 -60t30.5 -20q17 0 35.5 9t40.5 25l6 -8q-14 -13 -38 -27t-51 -23.5t-52 -9.5
q-36 0 -57 22t-21 61q0 20 2 36.5t6 41.5h-1q-35 -77 -82.5 -119t-107.5 -42zM205 17q27 0 52 20t46.5 50.5t36 63t19.5 56.5l60 292q-11 18 -32 27t-44 9q-40 0 -73 -25t-58.5 -65.5t-42.5 -89.5t-25.5 -97.5t-8.5 -88.5q0 -55 9 -88t25 -48.5t36 -15.5z" />
    <glyph glyph-name="b" unicode="b" horiz-adv-x="563" 
d="M232 -10q-34 0 -60 9.5t-49 31.5l-53 -34h-32l139 653q5 20 7 32.5t2 20.5q0 30 -20.5 38.5t-49.5 8.5h-8l2 10h189l-48 -225q-4 -18 -10.5 -44t-13.5 -50t-11 -38h2q25 45 52 77t59.5 49t73.5 17q40 0 68 -20.5t43.5 -61t15.5 -99.5q0 -49 -13 -101t-38 -101t-61.5 -88
t-83 -62t-102.5 -23zM225 1q41 0 73.5 25.5t57 68t40.5 93.5t24 102t8 93q0 50 -6.5 81.5t-20 46.5t-33.5 15q-30 0 -57 -20.5t-48 -50.5t-35 -60t-18 -49l-67 -309q13 -16 33.5 -26t48.5 -10z" />
    <glyph glyph-name="c" unicode="c" horiz-adv-x="481" 
d="M234 -10q-60 0 -103.5 23t-67.5 68.5t-24 115.5q0 44 11 92.5t33.5 94t58 82.5t84 58.5t111.5 21.5q50 0 82.5 -14t48 -35.5t15.5 -46.5q0 -19 -11 -35t-31.5 -25.5t-49.5 -9.5q1 9 1.5 19.5t0.5 20.5q0 53 -15 84.5t-51 31.5q-34 0 -63 -22t-51.5 -59.5t-38 -83
t-23.5 -93t-8 -89.5q0 -89 24 -138.5t81 -49.5q40 0 66.5 17t44 45.5t30.5 61.5q8 -3 13 -10t5 -15q0 -22 -18.5 -47.5t-56.5 -44t-98 -18.5z" />
    <glyph glyph-name="d" unicode="d" horiz-adv-x="580" 
d="M162 -10q-44 0 -73 24t-42.5 65.5t-13.5 93.5q0 47 12.5 98.5t37.5 100t61 88t83 63t104 23.5q28 0 52 -6.5t43 -17.5q2 14 5 27t7 29l18 80q3 14 5.5 27t2.5 24q0 25 -18 33t-47 8h-13l2 10h184l-116 -545q-2 -11 -6 -32t-6.5 -43t-2.5 -36q0 -39 10 -59.5t32 -20.5
q17 0 37 10t39 24l5 -8q-14 -13 -38 -27t-51 -23.5t-52 -9.5q-36 0 -57 22t-21 61q0 13 2.5 33t7.5 45h-3q-23 -51 -52 -87t-63.5 -55t-74.5 -19zM205 17q24 0 47.5 17t44.5 44t36.5 58.5t21.5 60.5l67 312q-13 10 -34.5 17.5t-47.5 7.5q-40 0 -72.5 -24.5t-57.5 -65.5
t-41.5 -89.5t-25 -97t-8.5 -88.5q0 -55 9 -88t25 -48.5t36 -15.5z" />
    <glyph glyph-name="e" unicode="e" horiz-adv-x="479" 
d="M233 -10q-53 0 -97.5 23t-71 68.5t-26.5 115.5q0 44 12.5 92.5t36.5 94t60 82.5t83.5 58.5t105.5 21.5q63 0 98 -30.5t35 -84.5q0 -48 -37.5 -89.5t-102.5 -67.5t-147 -26h-35q-1 -9 -2.5 -19t-2 -20.5t-0.5 -19.5q0 -60 11.5 -102.5t34 -64.5t54.5 -22q57 0 91 35t52 90
q10 -3 15.5 -10.5t5.5 -19.5q0 -19 -18.5 -44t-56.5 -43t-98 -18zM176 258q44 0 79.5 12.5t60 36t37.5 57t13 74.5q0 47 -14 72t-40 25q-30 0 -56 -24.5t-47 -65.5t-36 -90t-24 -97h27z" />
    <glyph glyph-name="f" unicode="f" horiz-adv-x="317" 
d="M-88 -240q-15 0 -31.5 2.5t-26.5 5.5l2 10q8 -2 21.5 -4.5t24.5 -2.5q35 0 58.5 22t40.5 70.5t34 127.5l115 535h-92l1 6l92 4l11 55q17 86 62.5 132.5t127.5 46.5q64 0 96.5 -20.5t32.5 -53.5t-21.5 -49t-61.5 -16q1 53 -8 91t-40 38q-25 0 -41 -15.5t-27.5 -50.5
t-23.5 -94l-13 -64h111l-2 -10h-111l-114 -534q-14 -67 -34.5 -112t-47.5 -71t-60.5 -37.5t-74.5 -11.5z" />
    <glyph glyph-name="g" unicode="g" horiz-adv-x="556" 
d="M170 -240q-73 0 -121.5 14.5t-72.5 43t-24 70.5q0 40 23.5 68.5t66.5 44.5t102 17q-45 15 -61 37.5t-16 47.5q0 30 26 58t81 38q-40 15 -61 47t-21 77q0 35 14 74t42.5 73t72.5 55t103 21q30 0 56.5 -7.5t46.5 -24.5q13 20 29.5 36t36.5 25.5t42 9.5q25 0 37.5 -13
t12.5 -33q0 -22 -12.5 -42t-46.5 -20q0 24 -9.5 40.5t-32.5 16.5q-13 0 -26 -7t-23 -19q17 -19 26.5 -42.5t9.5 -52.5q0 -34 -13.5 -72.5t-41.5 -73t-71.5 -56.5t-102.5 -22q-10 0 -20 0.5t-19.5 2.5t-18.5 4q-28 -10 -42.5 -24t-14.5 -36q0 -20 19 -28t50 -11l90 -9
q50 -5 84.5 -20.5t52.5 -43t18 -67.5q0 -45 -17 -81.5t-51 -62t-84.5 -39.5t-118.5 -14zM172 -230q67 0 106.5 21.5t57.5 55.5t18 71q0 41 -22 61t-71 24l-102 10q-51 -6 -88.5 -34.5t-37.5 -82.5q0 -55 30 -90.5t109 -35.5zM248 199q28 0 49.5 14.5t37 39t25.5 54.5t15 61
t5 58q0 37 -6.5 61.5t-19.5 36.5t-33 12q-30 0 -52.5 -14.5t-38.5 -38.5t-26.5 -53t-15 -58t-4.5 -53q0 -64 17 -92t47 -28z" />
    <glyph glyph-name="h" unicode="h" horiz-adv-x="595" 
d="M456 -10q-44 0 -67.5 28.5t-23.5 71.5q0 24 4.5 56.5t14.5 78.5l17 78q3 14 8 35.5t9 47t4 48.5q0 18 -4 37.5t-15.5 33t-34.5 13.5q-28 0 -55.5 -20t-50.5 -50t-38.5 -62.5t-20.5 -56.5l-70 -329h-93l137 650q5 20 7 34.5t2 18.5q0 30 -20.5 38.5t-49.5 8.5h-8l2 10h184
l-39 -184q-6 -27 -11.5 -52.5t-11 -48t-9.5 -39.5t-7 -26h4q28 44 57.5 74t62.5 45.5t71 15.5q40 0 63 -15.5t33.5 -40.5t10.5 -55q0 -25 -6.5 -54.5t-11.5 -55.5l-26 -118q-6 -28 -9.5 -55t-3.5 -50q0 -36 13 -55t39 -19q13 0 27.5 7.5t31.5 20.5l6 -8q-16 -13 -34.5 -26.5
t-40 -22t-47.5 -8.5z" />
    <glyph glyph-name="i" unicode="i" horiz-adv-x="302" 
d="M151 -10q-40 0 -61.5 29t-21.5 74q0 22 4 49t9 54t9 46l46 216q2 8 2.5 14.5t0.5 11.5q0 27 -16.5 34.5t-44.5 7.5h-13l2 10h179l-68 -321q-2 -11 -6 -32t-6.5 -43t-2.5 -36q0 -37 10.5 -55t32.5 -18t39 7.5t35 19.5l6 -8q-22 -19 -59.5 -39.5t-75.5 -20.5zM220 636
q-20 0 -33 11.5t-13 38.5q0 22 6 36.5t17.5 21.5t26.5 7q20 0 33 -10.5t13 -39.5q0 -38 -16 -51.5t-34 -13.5z" />
    <glyph glyph-name="j" unicode="j" horiz-adv-x="291" 
d="M-82 -240q-15 0 -31.5 2.5t-26.5 5.5l2 10q8 -2 21.5 -4.5t24.5 -2.5q35 0 59.5 22t42 71t32.5 128l99 466q2 8 2.5 14.5t0.5 11.5q0 27 -16.5 34.5t-44.5 7.5h-13l2 10h179l-115 -544q-19 -89 -49.5 -139.5t-72.5 -71.5t-96 -21zM225 636q-20 0 -33 11t-13 39
q0 22 6 36.5t17.5 21.5t26.5 7q20 0 33 -10.5t13 -39.5q0 -40 -16 -52.5t-34 -12.5z" />
    <glyph glyph-name="k" unicode="k" horiz-adv-x="576" 
d="M511 -7q-54 1 -86.5 9t-53 29.5t-40.5 63.5l-87 181l18 12l-84 -72l-45 -216h-93l137 650q5 20 7 33t2 20q0 30 -20.5 38.5t-49.5 8.5h-8l2 10h184l-39 -184q-5 -23 -12.5 -58.5t-16.5 -77t-18 -82t-16 -74t-11 -52.5l206 178q43 37 58 54t15 34q0 13 -17.5 20.5
t-70.5 7.5l2 10h221l-2 -10q-40 0 -82 -30t-95 -75l-144 -124l39 39l112 -217q19 -35 31.5 -61.5t27.5 -40.5t38 -14l-2 -10h-7z" />
    <glyph glyph-name="l" unicode="l" horiz-adv-x="306" 
d="M156 -10q-40 0 -61.5 28t-21.5 67q0 21 4 50t9 58.5t9 48.5l89 416q3 14 4.5 27.5t1.5 17.5q0 30 -20.5 38.5t-49.5 8.5h-12l2 10h189l-116 -545q-2 -11 -6 -32t-7 -43t-3 -36q0 -37 10 -55t36 -18q17 0 35 7.5t37 19.5l5 -8q-14 -13 -36 -27t-47.5 -23.5t-50.5 -9.5z
" />
    <glyph glyph-name="m" unicode="m" horiz-adv-x="898" 
d="M759 -10q-44 0 -67.5 28.5t-23.5 71.5q0 24 4.5 56.5t14.5 78.5l17 78q3 14 8 35.5t9 46t4 45.5q0 16 -2.5 35t-15 33t-43.5 14q-26 0 -49.5 -16t-43 -38.5t-33 -44t-19.5 -32.5l-39 -175q-3 -14 -8 -43t-9.5 -62.5t-8 -61.5t-3.5 -39h-95q0 12 3.5 39.5t8.5 62t11 67.5
t11 56l17 78q5 20 13 57.5t8 69.5q0 20 -4.5 39t-18.5 31t-41 12t-52 -18.5t-46 -44.5t-34 -50t-15 -35l-78 -364h-93l91 434q3 14 4.5 27.5t1.5 17.5q0 30 -20.5 38.5t-49.5 8.5h-8l2 10h185l-27 -126h2q28 44 57 74t61.5 45.5t71.5 15.5q59 0 83 -33.5t24 -77.5
q0 -6 -0.5 -12t-1.5 -12h2q28 44 57 74t61.5 45.5t71.5 15.5q40 0 63 -15.5t33.5 -40.5t10.5 -55q0 -25 -6.5 -54.5t-11.5 -55.5l-26 -118q-6 -28 -9.5 -55t-3.5 -50q0 -34 11.5 -53.5t35.5 -19.5q11 0 21.5 3t21.5 9t22 15l5 -8q-24 -20 -53.5 -38.5t-68.5 -18.5z" />
    <glyph glyph-name="n" unicode="n" horiz-adv-x="601" 
d="M462 -10q-44 0 -67.5 28.5t-23.5 71.5q0 24 4.5 56.5t14.5 78.5l17 78q3 14 8 35.5t9 45.5t4 45q0 17 -4 36t-17.5 33t-40.5 14t-52.5 -18t-46.5 -44t-34.5 -50t-15.5 -36l-78 -364h-93l91 434q3 14 4.5 27.5t1.5 17.5q0 30 -20.5 38.5t-49.5 8.5h-8l2 10h185l-27 -126h2
q28 44 57 74t62 45.5t71 15.5q40 0 63 -15.5t33.5 -40.5t10.5 -55q0 -25 -6.5 -54.5t-11.5 -55.5l-26 -118q-6 -28 -9.5 -56.5t-3.5 -54.5q0 -31 11 -48.5t36 -17.5q11 0 21.5 3t21 8.5t21.5 14.5l6 -8q-24 -20 -53.5 -38.5t-68.5 -18.5z" />
    <glyph glyph-name="o" unicode="o" horiz-adv-x="564" 
d="M230 -10q-85 0 -138.5 51.5t-53.5 155.5q0 44 11.5 92.5t35 94t59 82.5t83.5 58.5t109 21.5q53 0 96 -21t68.5 -66.5t25.5 -119.5q0 -43 -11 -90.5t-34 -93.5t-58 -83t-83 -59.5t-110 -22.5zM232 0q41 0 72 23.5t53.5 62.5t37 86t21 95t6.5 89q0 65 -10.5 104.5
t-30.5 57.5t-51 18q-40 0 -71 -23.5t-53.5 -62.5t-36.5 -86.5t-20.5 -95.5t-6.5 -89q0 -98 24.5 -138.5t65.5 -40.5z" />
    <glyph glyph-name="p" unicode="p" horiz-adv-x="568" 
d="M134 426q5 20 7 34.5t2 18.5q0 30 -20.5 38.5t-49.5 8.5h-8l2 10h177l-24 -133h2q21 39 47 71.5t60 52t79 19.5q41 0 69 -21t43 -61t15 -99q0 -43 -12 -93.5t-35.5 -100.5t-59 -91t-83.5 -65.5t-108 -24.5q-29 0 -51 7.5t-43 21.5q-4 -15 -6 -26t-6 -28l-21 -93
q-1 -6 -5 -25.5t-4 -30.5q0 -30 21 -38t49 -8h13l-2 -10h-188zM234 1q38 0 69.5 24.5t55.5 64.5t40.5 88.5t25 97.5t8.5 90q0 37 -5 71.5t-20 56.5t-45 22q-27 0 -52 -18t-45.5 -45.5t-33.5 -55.5t-18 -48l-68 -319q12 -8 32.5 -18.5t55.5 -10.5z" />
    <glyph glyph-name="q" unicode="q" horiz-adv-x="549" 
d="M311 -40q3 17 9.5 45t14 58.5t13 54.5t7.5 33h-2q-19 -41 -45.5 -78t-62 -60t-83.5 -23q-39 0 -68 20.5t-45 61.5t-16 101q0 47 12.5 98.5t37.5 100t61 88t83 63t104 23.5q37 0 63 -8.5t42 -21.5l56 30h35l-145 -684q-3 -14 -4.5 -27t-1.5 -18q0 -30 20.5 -38.5
t48.5 -8.5h8l-2 -10h-182zM210 18q24 0 48 18t44.5 46t34.5 59.5t20 58.5l64 308q-13 11 -31.5 19t-46.5 8q-43 0 -76.5 -26t-58 -68t-41 -91.5t-24.5 -97.5t-8 -84q0 -54 9.5 -87t26.5 -48t39 -15z" />
    <glyph glyph-name="r" unicode="r" horiz-adv-x="478" 
d="M147 434q3 14 4.5 27.5t1.5 17.5q0 30 -25.5 38.5t-54.5 8.5h-8l2 10h183l-23 -144h2q20 41 42.5 76t54 56.5t77.5 21.5q42 0 62 -19.5t20 -49.5q0 -23 -9 -40.5t-28 -26.5t-48 -9q1 8 1 15.5v14.5q0 25 -4.5 43t-15.5 28t-30 10q-21 0 -42 -18.5t-39.5 -46.5t-31 -57.5
t-17.5 -51.5l-72 -338h-93z" />
    <glyph glyph-name="s" unicode="s" horiz-adv-x="464" 
d="M190 -10q-50 0 -87 13.5t-57.5 39t-20.5 60.5q0 27 12.5 41.5t28.5 19.5t28 5q-1 -8 -1.5 -16t-0.5 -16q0 -38 10.5 -69t33 -49.5t58.5 -18.5q53 0 84.5 31t31.5 85q0 31 -10 52.5t-32 38.5t-59 34q-37 18 -64 38.5t-42 48.5t-15 68q0 43 23.5 76.5t67 53t102.5 19.5
q55 0 89 -14t50.5 -36t16.5 -45q0 -31 -21.5 -46.5t-53.5 -15.5q1 8 1.5 15.5t0.5 14.5q0 49 -20.5 83t-69.5 34q-55 0 -77 -32t-22 -73q0 -31 11 -51.5t33.5 -36.5t57.5 -32q37 -16 63.5 -37.5t41.5 -50t15 -67.5q0 -48 -25 -85.5t-71.5 -58.5t-110.5 -21z" />
    <glyph glyph-name="t" unicode="t" horiz-adv-x="367" 
d="M183 -10q-36 0 -60 13t-36.5 39t-12.5 65q0 12 1.5 27t4 30l4.5 27l71 335h-76l2 10q41 0 70 6.5t50 21t36.5 38t29.5 57.5h10l-26 -123h121l-2 -10h-121l-71 -332l-6 -32t-4.5 -29.5t-1.5 -24.5q0 -45 18 -64.5t51 -19.5q19 0 40.5 6.5t37.5 16.5l5 -9
q-30 -21 -63.5 -34.5t-71.5 -13.5z" />
    <glyph glyph-name="u" unicode="u" horiz-adv-x="601" 
d="M457 -10q-26 0 -45 13t-29 34.5t-10 47.5q0 8 0.5 17.5t1.5 20t2 21.5h-3q-25 -44 -53 -78.5t-63 -54.5t-81 -20q-39 0 -62.5 15.5t-34 41t-10.5 54.5q0 25 6 55t12 55l46 207q3 14 6 33t3 27q0 30 -20.5 38.5t-49.5 8.5h-8l2 10h186l-66 -299q-4 -18 -8.5 -41.5t-8 -46
t-3.5 -37.5q0 -42 12.5 -67t46.5 -25q24 0 49.5 18t48.5 47t39 60.5t22 58.5l71 332h97l-69 -321q-2 -11 -6 -32t-6.5 -43t-2.5 -36q0 -39 11.5 -58.5t33.5 -19.5q17 0 31.5 6.5t33.5 20.5l5 -7q-22 -19 -55.5 -37.5t-71.5 -18.5z" />
    <glyph glyph-name="v" unicode="v" horiz-adv-x="508" 
d="M88 473q-3 21 -10.5 32.5t-19 16t-28.5 4.5h-10l2 10h150l46 -296q7 -41 12 -82t9.5 -75t6.5 -55h1q55 57 101.5 121t75 125.5t28.5 110.5q0 44 -28 60t-74 16q0 41 22 60.5t46 19.5q32 0 50 -21.5t18 -71.5q0 -47 -17.5 -98t-46 -101.5t-62 -97t-67.5 -85.5t-61 -66
l-69 -9z" />
    <glyph glyph-name="w" unicode="w" horiz-adv-x="813" 
d="M446 -10q0 38 -1.5 88t-4 106t-4.5 113.5t-4 110.5t-3 97q-10 -26 -28.5 -69.5t-42.5 -95.5t-49.5 -105.5t-49 -101.5t-41 -83t-26.5 -50l-75 -9l-8 463q0 31 -7 46t-18.5 20.5t-28.5 5.5h-10l3 10h150q1 -40 2 -89t1.5 -101.5l1 -105t0.5 -102t-1 -91.5h2q19 34 42 79.5
t47.5 97.5t48.5 105.5t46 104t40 93.5l83 4q3 -28 5.5 -74.5t5 -102.5t4.5 -115t3 -114.5t1 -99.5h2q61 75 112 145t82 130.5t31 108.5q0 35 -18.5 52.5t-54.5 25.5q3 24 18.5 41.5t40.5 17.5t39 -18.5t14 -56.5q0 -45 -19.5 -96t-55.5 -109.5t-86 -125t-110 -141.5z" />
    <glyph glyph-name="x" unicode="x" horiz-adv-x="537" 
d="M-22 0l2 10h13q23 0 42.5 4t39.5 18t43 45l126 171l-78 206q-10 27 -18 42.5t-18 22.5t-27 7h-13l2 10h143l75 -220l151 220h96l-3 -10h-13q-18 0 -38 -5.5t-41 -20.5t-42 -45l-106 -150l81 -223q11 -29 18 -45t17 -21.5t29 -5.5h13l-2 -10h-144l-79 237l-169 -237h-100z
" />
    <glyph glyph-name="y" unicode="y" horiz-adv-x="520" 
d="M-65 -240q-25 0 -50 5t-44 13l3 10q12 -4 30.5 -7.5t53.5 -3.5q50 0 93.5 11t81 32t69.5 51t58 68l-151 534q-8 30 -19 41.5t-40 11.5h-10l2 10h151l73 -270q5 -19 13.5 -53t18 -71t16.5 -67t10 -43h1q32 48 62.5 100t55.5 102.5t39.5 93.5t14.5 71q0 22 -9 38t-31 25
t-60 9q0 36 20.5 55t44.5 19q32 0 50 -21t18 -63q0 -52 -21.5 -114.5t-61 -135t-93.5 -154.5q-49 -76 -90.5 -132t-83.5 -92.5t-93.5 -54.5t-121.5 -18z" />
    <glyph glyph-name="z" unicode="z" horiz-adv-x="501" 
d="M-1 0l2 10l364 516h-130q-37 0 -63.5 -12.5t-45 -39t-31.5 -70.5l-3 -10h-10l40 142h350l-2 -10l-382 -516h175q47 0 76 13.5t47.5 42t33.5 73.5l8 23h10l-39 -162h-400z" />
    <glyph glyph-name="braceleft" unicode="{" horiz-adv-x="428" 
d="M232 -128q-58 0 -88.5 26t-30.5 75q0 10 1.5 20.5t3.5 21.5l36 169q3 14 4 22.5t1 15.5q0 50 -27.5 69.5t-68.5 20.5l2 10q34 2 63.5 12.5t51 36t29.5 72.5l37 173q10 44 26 76.5t51 50t98 17.5h66l-2 -10h-30q-32 0 -53.5 -13t-34.5 -38.5t-21 -63.5l-40 -195
q-8 -33 -27.5 -58.5t-51.5 -41.5t-78 -23v-2q36 -5 60.5 -17.5t36.5 -31t12 -43.5q0 -7 -1 -15t-3 -16l-37 -172q-3 -13 -5 -27t-2 -31q0 -35 13.5 -57.5t46.5 -22.5h30l-2 -10h-66z" />
    <glyph glyph-name="bar" unicode="|" horiz-adv-x="559" 
d="M259 -240v1000h40v-1000h-40z" />
    <glyph glyph-name="braceright" unicode="}" horiz-adv-x="427" 
d="M-39 -128l2 10h30q34 0 55.5 16t35 47t21.5 75l37 173q8 33 26 58.5t48.5 42t72.5 23.5v2q-33 6 -55 18t-33 30.5t-11 42.5q0 8 1.5 15.5t2.5 15.5l37 171q3 14 5 28t2 29q0 37 -15 59t-45 22h-30l2 10h66q59 0 89 -26t30 -75q0 -10 -1.5 -20.5t-3.5 -21.5l-37 -174
q-2 -9 -3 -16.5t-1 -15.5q0 -50 26.5 -68.5t68.5 -20.5l-2 -10q-33 -1 -62.5 -12t-50.5 -37t-30 -73l-37 -174q-9 -44 -26 -76.5t-51 -50t-98 -17.5h-66z" />
    <glyph glyph-name="asciitilde" unicode="~" horiz-adv-x="559" 
d="M83 277q5 23 10.5 50t16.5 52t30 41t49 16q35 0 62 -20.5t52 -46.5q26 -26 50.5 -49t54.5 -23t46 22.5t24.5 55t15.5 61.5h19q-3 -18 -9 -45t-17.5 -53t-31 -43.5t-49.5 -17.5q-37 0 -65 26t-54 54q-15 17 -30 30t-31 21t-36 8q-28 0 -44 -17.5t-25.5 -49t-17.5 -72.5
h-20z" />
    <glyph glyph-name="uni00A0" unicode="&#xa0;" horiz-adv-x="250" 
 />
    <glyph glyph-name="exclamdown" unicode="&#xa1;" horiz-adv-x="332" 
d="M191 333l-59 -513h-116l160 513h15zM220 542q21 0 33 -11t12 -36q0 -35 -18 -63t-51 -28q-20 0 -32.5 11t-12.5 37q0 24 7.5 44.5t22.5 33t39 12.5z" />
    <glyph glyph-name="cent" unicode="&#xa2;" horiz-adv-x="559" 
d="M243 0l152 714h10l-152 -714h-10zM277 87q-60 0 -103.5 23t-67.5 69t-24 115q0 44 11 92.5t33.5 94t58 82.5t84 58.5t111.5 21.5q50 0 82.5 -14t48 -35.5t15.5 -46.5q0 -19 -11 -35t-31.5 -25.5t-49.5 -9.5q1 9 1.5 19.5t0.5 20.5q0 53 -15 84.5t-51 31.5q-34 0 -63 -22
t-51.5 -59.5t-38 -83t-23.5 -93t-8 -89.5q0 -89 24 -138.5t81 -49.5q40 0 66.5 17t44 45.5t30.5 61.5q8 -3 13 -10t5 -15q0 -22 -18.5 -47.5t-56.5 -44t-98 -18.5z" />
    <glyph glyph-name="sterling" unicode="&#xa3;" horiz-adv-x="559" 
d="M336 -10q-27 0 -47 7t-39.5 16.5t-42.5 16.5t-56 7t-59.5 -7t-52.5 -20l-21 -11l-4 9l35 20q25 14 48 37t41.5 54t29 70t10.5 86q0 12 -1.5 25t-3.5 27.5t-5 29.5h-103l2 10h99q-5 32 -10.5 63.5t-5.5 57.5q0 75 30.5 128t85.5 80.5t128 27.5q54 0 91 -13t56 -35.5
t19 -49.5q0 -38 -21.5 -58.5t-61.5 -20.5q1 55 -8 92t-29.5 56t-54.5 19q-71 0 -109 -56.5t-38 -151.5q0 -39 5.5 -72.5t10.5 -66.5h164l-2 -10h-160q2 -11 3 -23t2 -24.5t1 -25.5q0 -54 -25.5 -97t-61 -76t-67.5 -56l1 -2q29 16 47.5 26.5t35.5 16.5t40 6t45.5 -8t45 -19
t44.5 -19t43 -8q29 0 47.5 10.5t41.5 30.5l7 -7q-15 -16 -42.5 -38t-60.5 -38t-67 -16z" />
    <glyph glyph-name="currency" unicode="&#xa4;" horiz-adv-x="559" 
d="M125 143l-42 42l65 66q-16 23 -24.5 50t-8.5 57t9 57.5t25 49.5l-66 66l42 42l65 -66q23 17 50 26t58 9q29 0 56.5 -9t49.5 -26l67 67l42 -43l-66 -66q17 -22 26 -49.5t9 -57.5t-9 -57t-26 -50l66 -66l-41 -42l-67 66q-22 -16 -49.5 -25t-57.5 -9t-57 9t-50 25zM298 230
q36 0 65 17.5t46 46.5t17 64q0 36 -17 65.5t-46 46.5t-65 17q-35 0 -64 -17t-46 -46.5t-17 -65.5q0 -35 17 -64t46 -46.5t64 -17.5z" />
    <glyph glyph-name="yen" unicode="&#xa5;" horiz-adv-x="559" 
d="M69 0l2 10h23q33 0 59.5 11t36.5 56l23 111h-139l2 10h139l22 103h-139l2 10h136l-85 340q-7 30 -15.5 41.5t-37.5 11.5h-4l2 10h234l-2 -10h-4q-34 0 -53.5 -6.5t-19.5 -27.5q0 -12 3 -30.5t8 -41.5l30 -132q6 -25 12 -50.5t11.5 -51t11.5 -51.5q18 29 39 61.5t34 51.5
l116 179q13 20 21 35.5t8 31.5q0 17 -16 24.5t-54 7.5h-36l2 10h204l-2 -10h-9q-17 0 -30 -6t-27 -23t-35 -49l-205 -315h140l-2 -10h-141l-22 -103h141l-2 -10h-141l-23 -110q-1 -6 -2.5 -14.5t-1.5 -13.5q0 -25 20.5 -32.5t51.5 -7.5h23l-2 -10h-307z" />
    <glyph glyph-name="brokenbar" unicode="&#xa6;" horiz-adv-x="559" 
d="M268 360v400h20v-400h-20zM268 -240v400h20v-400h-20z" />
    <glyph glyph-name="section" unicode="&#xa7;" horiz-adv-x="544" 
d="M190 -115q-50 0 -88.5 13.5t-60 39t-21.5 60.5q0 27 11 41t25.5 19.5t26.5 5.5q0 -45 10 -83.5t35 -62t69 -23.5t76.5 19.5t50.5 52.5t18 73q0 25 -8.5 46t-39 46t-95.5 60q-42 24 -66.5 48.5t-34.5 50.5t-10 54q0 52 29 85t65 52q-11 16 -20.5 40.5t-9.5 56.5
q0 58 28.5 98t77 61.5t107.5 21.5q49 0 84 -14t54.5 -36.5t19.5 -49.5q0 -40 -20 -54.5t-61 -14.5q0 45 -6 80.5t-25.5 56.5t-62.5 21q-28 0 -55.5 -14.5t-45.5 -44.5t-18 -76q0 -32 12 -54t40.5 -42t79.5 -48q44 -23 70.5 -47t39 -50t12.5 -55q0 -30 -13 -56t-34.5 -47.5
t-47.5 -38.5q10 -14 19 -34.5t9 -51.5q0 -56 -26.5 -103t-77 -74.5t-122.5 -27.5zM382 184q11 19 18.5 40t7.5 48q0 17 -9 35.5t-31.5 38.5t-62.5 42q-24 14 -45.5 27t-39.5 27.5t-33 32.5q-13 -16 -21 -36t-8 -49q0 -24 10.5 -43.5t36 -39.5t69.5 -44q30 -18 58.5 -37.5
t49.5 -41.5z" />
    <glyph glyph-name="dieresis" unicode="&#xa8;" horiz-adv-x="577" 
d="M470 632q-19 0 -31 12.5t-12 37.5q0 19 5.5 33t16.5 22t25 8q19 0 31 -12t12 -38q0 -35 -15 -49t-32 -14zM280 632q-19 0 -31 12.5t-12 37.5q0 19 5.5 33t16.5 22t25 8q19 0 31 -12t12 -38q0 -35 -15 -49t-32 -14z" />
    <glyph glyph-name="copyright" unicode="&#xa9;" horiz-adv-x="845" 
d="M441 -10q-80 0 -147 27t-116.5 76.5t-76.5 117t-27 147.5t27 147t76 116t116.5 76.5t147.5 27.5t147.5 -27t117 -76.5t76.5 -117t27 -147.5t-27 -147t-76.5 -116.5t-117 -76.5t-147.5 -27zM443 129q-68 0 -114 28.5t-69 80t-23 120.5q0 71 25.5 121.5t74.5 78t121 27.5
q40 0 71.5 -8.5t50 -24.5t18.5 -38q0 -24 -20.5 -37t-49.5 -13q0 38 -9.5 62.5t-29 36t-50.5 11.5q-42 0 -68 -22.5t-38 -70.5t-12 -123q0 -76 15.5 -124.5t46 -71.5t73.5 -23q47 0 80 26.5t46 77.5q8 -3 12.5 -10.5t4.5 -17.5q0 -21 -20 -40.5t-55 -32.5t-81 -13zM443 0
q77 0 141.5 26.5t112 75t74 113.5t26.5 143q0 77 -26.5 142.5t-74 113.5t-112.5 74.5t-143 26.5q-77 0 -142 -26.5t-112.5 -74.5t-74 -113t-26.5 -143q0 -79 27 -145t76 -113.5t114 -73.5t140 -26z" />
    <glyph glyph-name="ordfeminine" unicode="&#xaa;" horiz-adv-x="403" 
d="M170 381q-46 0 -67 32t-21 78q0 35 13.5 74.5t40 73.5t64.5 55.5t87 21.5q25 0 43 -6t31 -15l37 14h22l-47 -185q-2 -10 -6 -32t-4 -33q0 -23 5.5 -34.5t18.5 -11.5q12 0 23 6.5t22 14.5l5 -8q-13 -13 -36.5 -29t-52.5 -16q-24 0 -38.5 14t-14.5 41q0 8 1 21t3 28h-2
q-22 -47 -54 -75.5t-73 -28.5zM215 411q15 0 29.5 14t26 34t15.5 38l51 193q-7 9 -19 12.5t-26 3.5q-31 0 -54 -22t-38.5 -55.5t-23 -69.5t-7.5 -65q0 -44 13.5 -63.5t32.5 -19.5z" />
    <glyph glyph-name="guillemotleft" unicode="&#xab;" horiz-adv-x="514" 
d="M375 80l-149 185l2 10l228 185h15l-155 -194l74 -186h-15zM192 80l-149 185l2 10l228 185h15l-155 -194l74 -186h-15z" />
    <glyph glyph-name="logicalnot" unicode="&#xac;" horiz-adv-x="559" 
d="M468 120v235h-405v20h425v-255h-20z" />
    <glyph glyph-name="uni00AD" unicode="&#xad;" horiz-adv-x="310" 
d="M24 263l4 20h260l-4 -20h-260z" />
    <glyph glyph-name="registered" unicode="&#xae;" horiz-adv-x="845" 
d="M441 -10q-80 0 -147 27t-116.5 76.5t-76.5 117t-27 147.5t27 147t76 116t116.5 76.5t147.5 27.5t147.5 -27t117 -76.5t76.5 -117t27 -147.5t-27 -147t-76.5 -116.5t-117 -76.5t-147.5 -27zM443 0q77 0 141.5 26.5t112 75t74 113.5t26.5 143q0 77 -26.5 142.5t-74 113.5
t-112.5 74.5t-143 26.5q-77 0 -142 -26.5t-112.5 -74.5t-74 -113t-26.5 -143q0 -79 27 -145t76 -113.5t114 -73.5t140 -26zM249 141v10h13q20 0 34.5 6t14.5 29v342q0 23 -14.5 29t-34.5 6h-13v10h183q86 0 129 -30t43 -87q0 -49 -28 -74.5t-68 -37.5l97 -156
q14 -21 25.5 -29t27.5 -8v-10h-109l-119 201h-41v-156q0 -23 15 -29t34 -6h14v-10h-203zM431 352q51 0 72.5 24.5t21.5 81.5t-22 81t-75 24h-39v-211h42z" />
    <glyph glyph-name="overscore" unicode="&#xaf;" horiz-adv-x="459" 
d="M102 773l5 20h469l-5 -20h-469z" />
    <glyph glyph-name="degree" unicode="&#xb0;" horiz-adv-x="400" 
d="M264 421q-67 0 -109 42t-42 109t42 109.5t109 42.5t109.5 -42.5t42.5 -109.5t-42.5 -109t-109.5 -42zM266 441q59 0 94.5 37.5t35.5 95.5t-36 94t-94 36t-95.5 -36t-37.5 -94t37 -95.5t96 -37.5z" />
    <glyph glyph-name="plusminus" unicode="&#xb1;" horiz-adv-x="559" 
d="M48 15v20h429v-20h-429zM252 143v204h-204v20h204v205h20v-205h205v-20h-205v-204h-20z" />
    <glyph glyph-name="uni00B2" unicode="&#xb2;" horiz-adv-x="400" 
d="M73 386l5 30l155 128q31 26 52 49t33 45t17.5 46t5.5 52q0 17 -3 35t-13.5 30.5t-33.5 12.5q-28 0 -44 -17.5t-24.5 -46t-12.5 -61.5q-30 0 -47 13.5t-17 34.5q0 25 18 44.5t52 31t82 11.5q60 0 95.5 -26t35.5 -69q0 -39 -20 -68t-52.5 -53.5t-68.5 -50.5l-161 -114h206
q16 0 26.5 5.5t17.5 15t10 20.5l7 21h10l-28 -119h-303z" />
    <glyph glyph-name="uni00B3" unicode="&#xb3;" horiz-adv-x="400" 
d="M214 380q-63 0 -97 21t-34 56q0 27 16.5 40.5t40.5 13.5q0 -53 15 -87t62 -34q44 0 71.5 28.5t27.5 95.5q0 37 -18.5 64.5t-68.5 27.5h-33l2 10h34q32 0 57.5 14.5t40 43.5t14.5 72q0 26 -9 47t-38 21q-25 0 -42 -16.5t-26.5 -43t-14.5 -57.5q-30 0 -48 9t-18 33t18.5 43
t52.5 30.5t82 11.5q69 0 102 -26.5t33 -64.5q0 -53 -44 -81.5t-109 -39.5v-2q56 -5 90.5 -28.5t34.5 -70.5q0 -41 -24.5 -70.5t-68.5 -45t-101 -15.5z" />
    <glyph glyph-name="acute" unicode="&#xb4;" horiz-adv-x="241" 
d="M114 616q17 22 35 48t35 53t30 49h93l-3 -10q-12 -13 -33.5 -32t-47 -40.5t-51.5 -42t-48 -35.5h-12z" />
    <glyph glyph-name="uni00B5" unicode="&#xb5;" horiz-adv-x="604" 
d="M63 -240q-28 0 -46.5 16t-18.5 56t14 93.5t35 126.5t42 173l67 311h94l-64 -298q-6 -28 -12 -61t-6 -62q0 -51 15.5 -80.5t52.5 -29.5q27 0 51 14t43 36t31.5 47.5t17.5 49.5l81 384h94l-80 -374q-4 -19 -8 -42t-4 -40q0 -25 10 -41t29 -16q13 0 28.5 7t28.5 15l5 -9
q-20 -13 -49 -29.5t-67 -16.5q-26 0 -44 12t-27 34t-10 50h-2q-27 -44 -62.5 -70t-83.5 -26q-31 0 -56.5 7.5t-44.5 24t-29.5 44.5t-10.5 69q-7 -33 -12.5 -59t-8.5 -49t-3 -47q0 -51 22.5 -87t72.5 -46q-4 -44 -28 -65.5t-57 -21.5z" />
    <glyph glyph-name="paragraph" unicode="&#xb6;" horiz-adv-x="617" 
d="M177 -111v10h13q23 0 41.5 5t29.5 20.5t11 46.5v415h-71q-58 0 -91.5 27.5t-47.5 72t-14 96.5q0 54 15 94t49.5 62t90.5 22h381v-10h-13q-22 0 -41 -5t-30 -20t-11 -47v-707q0 -31 11 -46.5t30 -20.5t41 -5h13v-10h-156v861h-95v-861h-156z" />
    <glyph glyph-name="periodcentered" unicode="&#xb7;" horiz-adv-x="286" 
d="M149 287q-21 0 -33 11t-12 36q0 35 18 63t51 28q20 0 32.5 -11t12.5 -37q0 -23 -7.5 -44t-22.5 -33.5t-39 -12.5z" />
    <glyph glyph-name="cedilla" unicode="&#xb8;" horiz-adv-x="333" 
d="M113 -240q-26 0 -43.5 3.5t-31.5 7.5l3 11q12 -4 24.5 -6t25.5 -2q34 0 55 16t31.5 41.5t10.5 52.5q0 24 -8.5 37.5t-28.5 19.5l27 59h10l-20 -45q32 -6 54.5 -17t34.5 -27t12 -38q0 -37 -20.5 -62.5t-56 -38t-79.5 -12.5z" />
    <glyph glyph-name="uni00B9" unicode="&#xb9;" horiz-adv-x="400" 
d="M99 387l2 10h46q17 0 30.5 6.5t18.5 31.5l71 336h-1q-21 -25 -36 -40t-27.5 -21.5t-29.5 -6.5q-16 0 -24.5 11.5t-7.5 29.5q30 0 55 5.5t55.5 22t75.5 47.5h40l-75 -355q-2 -11 -4.5 -22.5t-2.5 -19.5q0 -16 10.5 -20.5t24.5 -4.5h46l-2 -10h-265z" />
    <glyph glyph-name="ordmasculine" unicode="&#xba;" horiz-adv-x="394" 
d="M226 381q-62 0 -100 32t-38 93q0 34 13 70.5t39 68.5t64 52t89 20q38 0 68.5 -13t49 -40t18.5 -70q0 -31 -12 -68t-37 -70t-63 -54t-91 -21zM226 391q33 0 54 22t33 56t17 70.5t5 66.5q0 50 -8.5 75.5t-40.5 25.5q-31 0 -52 -21t-34 -54t-18.5 -69.5t-5.5 -67.5
q0 -52 9.5 -78t40.5 -26z" />
    <glyph glyph-name="guillemotright" unicode="&#xbb;" horiz-adv-x="521" 
d="M230 80l152 194l-71 186h15l148 -185l-2 -10l-227 -185h-15zM40 80l152 194l-71 186h15l148 -185l-2 -10l-227 -185h-15z" />
    <glyph glyph-name="onequarter" unicode="&#xbc;" horiz-adv-x="980" 
d="M78 287l2 10h46q17 0 30.5 6.5t18.5 31.5l71 336h-1q-21 -25 -36 -40t-27.5 -21.5t-29.5 -6.5q-16 0 -24.5 11.5t-7.5 29.5q30 0 55 5.5t55.5 22t75.5 47.5h40l-75 -355q-2 -11 -4.5 -22.5t-2.5 -19.5q0 -16 10.5 -20.5t24.5 -4.5h46l-2 -10h-265zM269 0l509 714h11
l-509 -714h-11zM654 0l2 10h28q17 0 30.5 6.5t18.5 31.5l17 79h-181l6 30l246 275h83l-56 -262h96l-9 -43h-96l-14 -67q-2 -10 -3 -15.5t-1 -9.5q0 -16 10.5 -20.5t24.5 -4.5h20l-2 -10h-220zM602 170h157l37 173q3 11 5 20.5t5 20t6 23.5q-7 -9 -19.5 -23t-32.5 -37z" />
    <glyph glyph-name="onehalf" unicode="&#xbd;" horiz-adv-x="980" 
d="M78 287l2 10h46q17 0 30.5 6.5t18.5 31.5l71 336h-1q-21 -25 -36 -40t-27.5 -21.5t-29.5 -6.5q-16 0 -24.5 11.5t-7.5 29.5q30 0 55 5.5t55.5 22t75.5 47.5h40l-75 -355q-2 -11 -4.5 -22.5t-2.5 -19.5q0 -16 10.5 -20.5t24.5 -4.5h46l-2 -10h-265zM249 0l509 714h11
l-509 -714h-11zM571 -1l5 30l155 128q31 26 52 49t33 45t17.5 46t5.5 52q0 17 -3 35t-13.5 30.5t-33.5 12.5q-28 0 -44 -17.5t-24.5 -46t-12.5 -61.5q-30 0 -47 13.5t-17 34.5q0 25 18 44.5t52 31t82 11.5q60 0 95.5 -26t35.5 -69q0 -39 -20 -68t-52.5 -53.5t-68.5 -50.5
l-161 -114h206q16 0 26.5 5.5t17.5 15t10 20.5l7 21h10l-28 -119h-303z" />
    <glyph glyph-name="threequarters" unicode="&#xbe;" horiz-adv-x="980" 
d="M192 277q-63 0 -97 21t-34 56q0 27 16.5 40.5t40.5 13.5q0 -53 15 -87t62 -34q44 0 71.5 28.5t27.5 95.5q0 37 -18.5 64.5t-68.5 27.5h-33l2 10h34q32 0 57.5 14.5t40 43.5t14.5 72q0 26 -9 47t-38 21q-25 0 -42 -16.5t-26.5 -43t-14.5 -57.5q-30 0 -48 9t-18 33t18.5 43
t52.5 30.5t82 11.5q69 0 102 -26.5t33 -64.5q0 -53 -44 -81.5t-109 -39.5v-2q56 -5 90.5 -28.5t34.5 -70.5q0 -41 -24.5 -70.5t-68.5 -45t-101 -15.5zM269 0l509 714h11l-509 -714h-11zM654 0l2 10h28q17 0 30.5 6.5t18.5 31.5l17 79h-181l6 30l246 275h83l-56 -262h96
l-9 -43h-96l-14 -67q-2 -10 -3 -15.5t-1 -9.5q0 -16 10.5 -20.5t24.5 -4.5h20l-2 -10h-220zM602 170h157l37 173q3 11 5 20.5t5 20t6 23.5q-7 -9 -19.5 -23t-32.5 -37z" />
    <glyph glyph-name="questiondown" unicode="&#xbf;" horiz-adv-x="501" 
d="M295 209q-44 -4 -80 -25t-62.5 -54.5t-41 -75.5t-14.5 -87q0 -46 10 -77.5t31.5 -48.5t55.5 -17q42 0 67 25.5t38 66.5t19 90q35 0 53.5 -16t18.5 -44q0 -35 -24 -65t-69.5 -48.5t-108.5 -18.5q-87 0 -138 40.5t-51 113.5q0 64 34.5 113.5t91 82.5t122.5 47l46 126h15z
M333 546q21 0 33 -11t12 -36q0 -35 -18 -63t-51 -28q-20 0 -32.5 11t-12.5 37q0 24 7.5 44.5t22.5 33t39 12.5z" />
    <glyph glyph-name="Agrave" unicode="&#xc0;" horiz-adv-x="700" 
d="M-62 0l2 10h19q20 0 33.5 6t27 22.5t32.5 49.5l363 626h64l94 -651q3 -21 9.5 -32.5t18.5 -16t31 -4.5h13l-2 -10h-272l2 10h23q39 0 58 13.5t19 37.5q0 8 -0.5 17.5t-1.5 16.5l-47 369q-4 30 -9 71t-8.5 79.5t-5.5 59.5q-8 -16 -22 -41t-31 -53.5t-33 -56.5t-29 -50
l-215 -371q-10 -18 -14.5 -31.5t-4.5 -24.5q0 -19 14 -27.5t42 -8.5h69l-2 -10h-237zM155 259l5 10h338v-10h-343zM494 784q-16 15 -36 35.5t-40 42t-36.5 40.5t-24.5 32l2 10h90q6 -22 16 -49t21 -53t20 -48l-2 -10h-10z" />
    <glyph glyph-name="Aacute" unicode="&#xc1;" horiz-adv-x="700" 
d="M-62 0l2 10h19q20 0 33.5 6t27 22.5t32.5 49.5l363 626h64l94 -651q3 -21 9.5 -32.5t18.5 -16t31 -4.5h13l-2 -10h-272l2 10h23q39 0 58 13.5t19 37.5q0 8 -0.5 17.5t-1.5 16.5l-47 369q-4 30 -9 71t-8.5 79.5t-5.5 59.5q-8 -16 -22 -41t-31 -53.5t-33 -56.5t-29 -50
l-215 -371q-10 -18 -14.5 -31.5t-4.5 -24.5q0 -19 14 -27.5t42 -8.5h69l-2 -10h-237zM155 259l5 10h338v-10h-343zM402 784q17 22 35 48t35 53t30 49h93l-3 -10q-12 -13 -33.5 -32t-47 -40.5t-51.5 -42t-48 -35.5h-12z" />
    <glyph glyph-name="Acircumflex" unicode="&#xc2;" horiz-adv-x="700" 
d="M-62 0l2 10h19q20 0 33.5 6t27 22.5t32.5 49.5l363 626h64l94 -651q3 -21 9.5 -32.5t18.5 -16t31 -4.5h13l-2 -10h-272l2 10h23q39 0 58 13.5t19 37.5q0 8 -0.5 17.5t-1.5 16.5l-47 369q-4 30 -9 71t-8.5 79.5t-5.5 59.5q-8 -16 -22 -41t-31 -53.5t-33 -56.5t-29 -50
l-215 -371q-10 -18 -14.5 -31.5t-4.5 -24.5q0 -19 14 -27.5t42 -8.5h69l-2 -10h-237zM155 259l5 10h338v-10h-343zM299 794q21 20 48 46t53 53.5t42 50.5h75q7 -23 20 -50.5t28.5 -53.5t28.5 -46l-2 -10h-10q-31 18 -60.5 45.5t-51.5 54.5q-23 -18 -51 -36.5t-56.5 -35
t-55.5 -28.5h-10z" />
    <glyph glyph-name="Atilde" unicode="&#xc3;" horiz-adv-x="700" 
d="M-62 0l2 10h19q20 0 33.5 6t27 22.5t32.5 49.5l363 626h64l94 -651q3 -21 9.5 -32.5t18.5 -16t31 -4.5h13l-2 -10h-272l2 10h23q39 0 58 13.5t19 37.5q0 8 -0.5 17.5t-1.5 16.5l-47 369q-4 30 -9 71t-8.5 79.5t-5.5 59.5q-8 -16 -22 -41t-31 -53.5t-33 -56.5t-29 -50
l-215 -371q-10 -18 -14.5 -31.5t-4.5 -24.5q0 -19 14 -27.5t42 -8.5h69l-2 -10h-237zM155 259l5 10h338v-10h-343zM513 784q-29 0 -48 9.5t-35 22t-35.5 22t-49.5 9.5q-22 0 -35 -7.5t-21 -19.5t-15 -26h-10q9 31 26 57.5t43 43.5t62 17q29 0 48 -9.5t35 -22t36 -22t50 -9.5
q32 0 45.5 16.5t23.5 36.5h10q-8 -30 -25 -57t-43 -44t-62 -17z" />
    <glyph glyph-name="Adieresis" unicode="&#xc4;" horiz-adv-x="700" 
d="M-62 0l2 10h19q20 0 33.5 6t27 22.5t32.5 49.5l363 626h64l94 -651q3 -21 9.5 -32.5t18.5 -16t31 -4.5h13l-2 -10h-272l2 10h23q39 0 58 13.5t19 37.5q0 8 -0.5 17.5t-1.5 16.5l-47 369q-4 30 -9 71t-8.5 79.5t-5.5 59.5q-8 -16 -22 -41t-31 -53.5t-33 -56.5t-29 -50
l-215 -371q-10 -18 -14.5 -31.5t-4.5 -24.5q0 -19 14 -27.5t42 -8.5h69l-2 -10h-237zM155 259l5 10h338v-10h-343zM553 810q-19 0 -31 12.5t-12 37.5q0 19 5.5 33t16.5 22t25 8q19 0 31 -12t12 -38q0 -35 -15 -49t-32 -14zM363 810q-19 0 -31 12.5t-12 37.5q0 19 5.5 33
t16.5 22t25 8q19 0 31 -12t12 -38q0 -35 -15 -49t-32 -14z" />
    <glyph glyph-name="Aring" unicode="&#xc5;" horiz-adv-x="705" 
d="M-56 0l2 10h19q20 0 33.5 6t27 22.5t32.5 49.5l345 594l25 -6h32l30 6l89 -619q3 -21 9.5 -32.5t18.5 -16t31 -4.5h13l-2 -10h-272l2 10h23q39 0 58 13.5t19 37.5q0 8 -0.5 17.5t-1.5 16.5l-47 369q-4 30 -9 71t-8.5 79.5t-5.5 59.5q-8 -16 -22 -41t-31 -53.5t-33 -56.5
t-29 -50l-215 -371q-10 -18 -14.5 -31.5t-4.5 -24.5q0 -19 14 -27.5t42 -8.5h69l-2 -10h-237zM161 259l5 10h338v-10h-343zM457 672q-50 0 -85 28t-35 81t35 81t85 28t85 -28t35 -81t-35 -81t-85 -28zM457 682q48 0 78 25t30 74q0 50 -30 74.5t-78 24.5t-78 -24.5t-30 -74.5
q0 -49 30 -74t78 -25z" />
    <glyph glyph-name="AE" unicode="&#xc6;" horiz-adv-x="943" 
d="M-62 0l2 10h21q19 0 33.5 6t30.5 23t39 49l456 616h-130l2 10h566l-32 -175h-10q1 5 2 16.5t2.5 23.5t1.5 18q0 30 -6.5 54t-29 38.5t-70.5 14.5h-168l-69 -324h251l-2 -10h-251l-76 -360h193q51 0 83.5 17t51.5 44.5t30 60.5l14 43h10l-44 -175h-536l2 10h13
q22 0 42 4.5t34.5 19t20.5 43.5l38 182h-249l-116 -157q-13 -17 -20 -32t-7 -27q0 -17 11.5 -25t39.5 -8h74l-2 -10h-246zM212 269h243l91 435h-16q-20 -29 -47.5 -67t-58 -80t-61.5 -84z" />
    <glyph glyph-name="Ccedilla" unicode="&#xc7;" horiz-adv-x="636" 
d="M337 -10q-87 0 -148.5 31.5t-94.5 91.5t-33 145q0 71 19 139.5t54.5 127.5t86 103.5t114 70t138.5 25.5q89 0 137 -30.5t48 -80.5q0 -36 -25.5 -57t-66.5 -21q0 27 -0.5 58t-9 58.5t-29 45t-59.5 17.5q-55 0 -101.5 -29t-83 -78t-61.5 -110.5t-38.5 -127.5t-13.5 -127
q0 -77 20 -131t59.5 -82.5t98.5 -28.5q50 0 83.5 18t56 51t38.5 77q9 -4 14.5 -13t5.5 -20q0 -26 -21.5 -55t-67.5 -48.5t-120 -19.5zM241 -240q-26 0 -43.5 3.5t-31.5 7.5l3 11q12 -4 24.5 -6t25.5 -2q34 0 55 16t31.5 41.5t10.5 52.5q0 24 -8.5 37.5t-28.5 19.5l27 59h10
l-20 -45q32 -6 54.5 -17t34.5 -27t12 -38q0 -37 -20.5 -62.5t-56 -38t-79.5 -12.5z" />
    <glyph glyph-name="Egrave" unicode="&#xc8;" horiz-adv-x="621" 
d="M-19 0l2 10h13q33 0 59.5 11t36.5 56l118 555q2 7 2.5 13t0.5 11q0 32 -20.5 40t-49.5 8h-13l2 10h504l-32 -175h-10q1 5 2 16t2.5 24t1.5 22q0 28 -4.5 51t-22.5 37.5t-57 14.5h-190l-69 -325h241l-2 -10h-241l-76 -359h216q33 0 56 9.5t39 26t27 38.5t20 48l14 43h10
l-44 -175h-536zM450 771q-16 15 -36 35.5t-40 42t-36.5 40.5t-24.5 32l2 10h90q6 -22 16 -49t21 -53t20 -48l-2 -10h-10z" />
    <glyph glyph-name="Eacute" unicode="&#xc9;" horiz-adv-x="621" 
d="M-19 0l2 10h13q33 0 59.5 11t36.5 56l118 555q2 7 2.5 13t0.5 11q0 32 -20.5 40t-49.5 8h-13l2 10h504l-32 -175h-10q1 5 2 16t2.5 24t1.5 22q0 28 -4.5 51t-22.5 37.5t-57 14.5h-190l-69 -325h241l-2 -10h-241l-76 -359h216q33 0 56 9.5t39 26t27 38.5t20 48l14 43h10
l-44 -175h-536zM388 781q17 22 35 48t35 53t30 49h93l-3 -10q-12 -13 -33.5 -32t-47 -40.5t-51.5 -42t-48 -35.5h-12z" />
    <glyph glyph-name="Ecircumflex" unicode="&#xca;" horiz-adv-x="621" 
d="M-19 0l2 10h13q33 0 59.5 11t36.5 56l118 555q2 7 2.5 13t0.5 11q0 32 -20.5 40t-49.5 8h-13l2 10h504l-32 -175h-10q1 5 2 16t2.5 24t1.5 22q0 28 -4.5 51t-22.5 37.5t-57 14.5h-190l-69 -325h241l-2 -10h-241l-76 -359h216q33 0 56 9.5t39 26t27 38.5t20 48l14 43h10
l-44 -175h-536zM298 781q21 20 48 46t53 53.5t42 50.5h75q7 -23 20 -50.5t28.5 -53.5t28.5 -46l-2 -10h-10q-31 18 -60.5 45.5t-51.5 54.5q-23 -18 -51 -36.5t-56.5 -35t-55.5 -28.5h-10z" />
    <glyph glyph-name="Edieresis" unicode="&#xcb;" horiz-adv-x="621" 
d="M-19 0l2 10h13q33 0 59.5 11t36.5 56l118 555q2 7 2.5 13t0.5 11q0 32 -20.5 40t-49.5 8h-13l2 10h504l-32 -175h-10q1 5 2 16t2.5 24t1.5 22q0 28 -4.5 51t-22.5 37.5t-57 14.5h-190l-69 -325h241l-2 -10h-241l-76 -359h216q33 0 56 9.5t39 26t27 38.5t20 48l14 43h10
l-44 -175h-536zM533 797q-19 0 -31 12.5t-12 37.5q0 19 5.5 33t16.5 22t25 8q19 0 31 -12t12 -38q0 -35 -15 -49t-32 -14zM343 797q-19 0 -31 12.5t-12 37.5q0 19 5.5 33t16.5 22t25 8q19 0 31 -12t12 -38q0 -35 -15 -49t-32 -14z" />
    <glyph glyph-name="Igrave" unicode="&#xcc;" horiz-adv-x="349" 
d="M-19 0l1 10h13q34 0 61 12.5t37 59.5l118 554q2 6 3 15t1 13q0 26 -20 33t-52 7h-13l2 10h291l-2 -10h-13q-34 0 -60.5 -12.5t-36.5 -59.5l-118 -554q-1 -6 -2.5 -14.5t-1.5 -13.5q0 -25 20.5 -32.5t51.5 -7.5h13l-2 -10h-291zM327 771q-16 15 -36 35.5t-40 42
t-36.5 40.5t-24.5 32l2 10h90q6 -22 16 -49t21 -53t20 -48l-2 -10h-10z" />
    <glyph glyph-name="Iacute" unicode="&#xcd;" horiz-adv-x="349" 
d="M-19 0l1 10h13q34 0 61 12.5t37 59.5l118 554q2 6 3 15t1 13q0 26 -20 33t-52 7h-13l2 10h291l-2 -10h-13q-34 0 -60.5 -12.5t-36.5 -59.5l-118 -554q-1 -6 -2.5 -14.5t-1.5 -13.5q0 -25 20.5 -32.5t51.5 -7.5h13l-2 -10h-291zM236 781q17 22 35 48t35 53t30 49h93
l-3 -10q-12 -13 -33.5 -32t-47 -40.5t-51.5 -42t-48 -35.5h-12z" />
    <glyph glyph-name="Icircumflex" unicode="&#xce;" horiz-adv-x="349" 
d="M-19 0l1 10h13q34 0 61 12.5t37 59.5l118 554q2 6 3 15t1 13q0 26 -20 33t-52 7h-13l2 10h291l-2 -10h-13q-34 0 -60.5 -12.5t-36.5 -59.5l-118 -554q-1 -6 -2.5 -14.5t-1.5 -13.5q0 -25 20.5 -32.5t51.5 -7.5h13l-2 -10h-291zM136 781q21 20 48 46t53 53.5t42 50.5h75
q7 -23 20 -50.5t28.5 -53.5t28.5 -46l-2 -10h-10q-31 18 -60.5 45.5t-51.5 54.5q-23 -18 -51 -36.5t-56.5 -35t-55.5 -28.5h-10z" />
    <glyph glyph-name="Idieresis" unicode="&#xcf;" horiz-adv-x="349" 
d="M-19 0l1 10h13q34 0 61 12.5t37 59.5l118 554q2 6 3 15t1 13q0 26 -20 33t-52 7h-13l2 10h291l-2 -10h-13q-34 0 -60.5 -12.5t-36.5 -59.5l-118 -554q-1 -6 -2.5 -14.5t-1.5 -13.5q0 -25 20.5 -32.5t51.5 -7.5h13l-2 -10h-291zM395 810q-19 0 -31 12.5t-12 37.5
q0 19 5.5 33t16.5 22t25 8q19 0 31 -12t12 -38q0 -35 -15 -49t-32 -14zM205 810q-19 0 -31 12.5t-12 37.5q0 19 5.5 33t16.5 22t25 8q19 0 31 -12t12 -38q0 -35 -15 -49t-32 -14z" />
    <glyph glyph-name="Eth" unicode="&#xd0;" horiz-adv-x="725" 
d="M56 370l2 10h366l-2 -10h-366zM-19 0l2 10h13q34 0 61 12.5t37 59.5l117 554q2 7 3 14.5t1 13.5q0 27 -22.5 33.5t-49.5 6.5h-13l2 10h280q135 0 209.5 -69.5t74.5 -202.5q0 -71 -16.5 -137t-49.5 -121.5t-81.5 -96.5t-111.5 -64t-141 -23h-315zM265 11q60 0 110.5 21
t89.5 60t66.5 93.5t41.5 122t14 145.5q0 87 -20.5 142.5t-61 82t-100.5 26.5h-79l-148 -693h87z" />
    <glyph glyph-name="Ntilde" unicode="&#xd1;" horiz-adv-x="744" 
d="M-18 0l2 10h13q28 0 52 4.5t40.5 20t23.5 47.5l118 554q2 6 3 15t1 13q0 26 -25.5 33t-66.5 7h-13l2 10h195l255 -576l106 498q2 7 3 15.5t1 12.5q0 26 -29 33t-74 7h-13l2 10h251l-2 -10h-13q-27 0 -51 -4t-41.5 -19.5t-24.5 -48.5l-134 -632h-30l-288 652l-123 -574
q-1 -6 -2.5 -14.5t-1.5 -13.5q0 -25 29 -32.5t74 -7.5h13l-2 -10h-250zM563 784q-29 0 -48 9.5t-35 22t-35.5 22t-49.5 9.5q-22 0 -35 -7.5t-21 -19.5t-15 -26h-10q9 31 26 57.5t43 43.5t62 17q29 0 48 -9.5t35 -22t36 -22t50 -9.5q32 0 45.5 16.5t23.5 36.5h10
q-8 -30 -25 -57t-43 -44t-62 -17z" />
    <glyph glyph-name="Ograve" unicode="&#xd2;" horiz-adv-x="742" 
d="M323 -11q-74 0 -133.5 31.5t-94 93.5t-34.5 152q0 58 16 121t48.5 123t80.5 108.5t112 77.5t143 29q69 0 128 -29t95 -89.5t36 -156.5q0 -46 -11 -97.5t-32.5 -103.5t-54.5 -98.5t-77 -83t-99.5 -57.5t-122.5 -21zM329 -1q58 0 103.5 32t79 84.5t55.5 116t32.5 127.5
t10.5 118q0 93 -20.5 144.5t-55.5 72.5t-81 21q-58 0 -104 -32t-79.5 -84.5t-55.5 -116t-33 -127.5t-11 -117q0 -94 21 -146t57.5 -72.5t80.5 -20.5zM540 784q-16 15 -36 35.5t-40 42t-36.5 40.5t-24.5 32l2 10h90q6 -22 16 -49t21 -53t20 -48l-2 -10h-10z" />
    <glyph glyph-name="Oacute" unicode="&#xd3;" horiz-adv-x="742" 
d="M323 -11q-74 0 -133.5 31.5t-94 93.5t-34.5 152q0 58 16 121t48.5 123t80.5 108.5t112 77.5t143 29q69 0 128 -29t95 -89.5t36 -156.5q0 -46 -11 -97.5t-32.5 -103.5t-54.5 -98.5t-77 -83t-99.5 -57.5t-122.5 -21zM329 -1q58 0 103.5 32t79 84.5t55.5 116t32.5 127.5
t10.5 118q0 93 -20.5 144.5t-55.5 72.5t-81 21q-58 0 -104 -32t-79.5 -84.5t-55.5 -116t-33 -127.5t-11 -117q0 -94 21 -146t57.5 -72.5t80.5 -20.5zM448 784q17 22 35 48t35 53t30 49h93l-3 -10q-12 -13 -33.5 -32t-47 -40.5t-51.5 -42t-48 -35.5h-12z" />
    <glyph glyph-name="Ocircumflex" unicode="&#xd4;" horiz-adv-x="742" 
d="M323 -11q-74 0 -133.5 31.5t-94 93.5t-34.5 152q0 58 16 121t48.5 123t80.5 108.5t112 77.5t143 29q69 0 128 -29t95 -89.5t36 -156.5q0 -46 -11 -97.5t-32.5 -103.5t-54.5 -98.5t-77 -83t-99.5 -57.5t-122.5 -21zM329 -1q58 0 103.5 32t79 84.5t55.5 116t32.5 127.5
t10.5 118q0 93 -20.5 144.5t-55.5 72.5t-81 21q-58 0 -104 -32t-79.5 -84.5t-55.5 -116t-33 -127.5t-11 -117q0 -94 21 -146t57.5 -72.5t80.5 -20.5zM345 794q21 20 48 46t53 53.5t42 50.5h75q7 -23 20 -50.5t28.5 -53.5t28.5 -46l-2 -10h-10q-31 18 -60.5 45.5t-51.5 54.5
q-23 -18 -51 -36.5t-56.5 -35t-55.5 -28.5h-10z" />
    <glyph glyph-name="Otilde" unicode="&#xd5;" horiz-adv-x="742" 
d="M323 -11q-74 0 -133.5 31.5t-94 93.5t-34.5 152q0 58 16 121t48.5 123t80.5 108.5t112 77.5t143 29q69 0 128 -29t95 -89.5t36 -156.5q0 -46 -11 -97.5t-32.5 -103.5t-54.5 -98.5t-77 -83t-99.5 -57.5t-122.5 -21zM329 -1q58 0 103.5 32t79 84.5t55.5 116t32.5 127.5
t10.5 118q0 93 -20.5 144.5t-55.5 72.5t-81 21q-58 0 -104 -32t-79.5 -84.5t-55.5 -116t-33 -127.5t-11 -117q0 -94 21 -146t57.5 -72.5t80.5 -20.5zM559 784q-29 0 -48 9.5t-35 22t-35.5 22t-49.5 9.5q-22 0 -35 -7.5t-21 -19.5t-15 -26h-10q9 31 26 57.5t43 43.5t62 17
q29 0 48 -9.5t35 -22t36 -22t50 -9.5q32 0 45.5 16.5t23.5 36.5h10q-8 -30 -25 -57t-43 -44t-62 -17z" />
    <glyph glyph-name="Odieresis" unicode="&#xd6;" horiz-adv-x="742" 
d="M323 -11q-74 0 -133.5 31.5t-94 93.5t-34.5 152q0 58 16 121t48.5 123t80.5 108.5t112 77.5t143 29q69 0 128 -29t95 -89.5t36 -156.5q0 -46 -11 -97.5t-32.5 -103.5t-54.5 -98.5t-77 -83t-99.5 -57.5t-122.5 -21zM329 -1q58 0 103.5 32t79 84.5t55.5 116t32.5 127.5
t10.5 118q0 93 -20.5 144.5t-55.5 72.5t-81 21q-58 0 -104 -32t-79.5 -84.5t-55.5 -116t-33 -127.5t-11 -117q0 -94 21 -146t57.5 -72.5t80.5 -20.5zM599 810q-19 0 -31 12.5t-12 37.5q0 19 5.5 33t16.5 22t25 8q19 0 31 -12t12 -38q0 -35 -15 -49t-32 -14zM409 810
q-19 0 -31 12.5t-12 37.5q0 19 5.5 33t16.5 22t25 8q19 0 31 -12t12 -38q0 -35 -15 -49t-32 -14z" />
    <glyph glyph-name="multiply" unicode="&#xd7;" horiz-adv-x="559" 
d="M101 145l-14 14l198 198l-198 198l14 14l198 -198l197 198l14 -14l-198 -198l198 -198l-14 -14l-197 198z" />
    <glyph glyph-name="Oslash" unicode="&#xd8;" horiz-adv-x="742" 
d="M92 -40l578 795h12l-578 -795h-12zM323 -11q-74 0 -133.5 31.5t-94 93.5t-34.5 152q0 58 16 121t48.5 123t80.5 108.5t112 77.5t143 29q69 0 128 -29t95 -89.5t36 -156.5q0 -46 -11 -97.5t-32.5 -103.5t-54.5 -98.5t-77 -83t-99.5 -57.5t-122.5 -21zM329 -1
q58 0 103.5 32t79 84.5t55.5 116t32.5 127.5t10.5 118q0 93 -20.5 144.5t-55.5 72.5t-81 21q-58 0 -104 -32t-79.5 -84.5t-55.5 -116t-33 -127.5t-11 -117q0 -94 21 -146t57.5 -72.5t80.5 -20.5z" />
    <glyph glyph-name="Ugrave" unicode="&#xd9;" horiz-adv-x="713" 
d="M329 -10q-109 0 -168 45.5t-59 127.5q0 16 3.5 44t7.5 45l81 384q2 6 3 15t1 13q0 26 -20 33t-52 7h-13l2 10h291l-1 -10h-13q-22 0 -42 -5t-34.5 -20t-21.5 -47l-82 -385q-3 -17 -6 -33.5t-4.5 -32.5t-1.5 -34q0 -70 34 -108.5t98 -38.5q83 0 135 27.5t81 74t41 104.5
l92 430q2 6 3 15t1 13q0 26 -20 33t-52 7h-13l2 10h200l-1 -10h-13q-22 0 -42 -5t-34.5 -20t-21.5 -47l-91 -428q-14 -66 -47 -114t-88 -74t-135 -26zM531 784q-16 15 -36 35.5t-40 42t-36.5 40.5t-24.5 32l2 10h90q6 -22 16 -49t21 -53t20 -48l-2 -10h-10z" />
    <glyph glyph-name="Uacute" unicode="&#xda;" horiz-adv-x="713" 
d="M329 -10q-109 0 -168 45.5t-59 127.5q0 16 3.5 44t7.5 45l81 384q2 6 3 15t1 13q0 26 -20 33t-52 7h-13l2 10h291l-1 -10h-13q-22 0 -42 -5t-34.5 -20t-21.5 -47l-82 -385q-3 -17 -6 -33.5t-4.5 -32.5t-1.5 -34q0 -70 34 -108.5t98 -38.5q83 0 135 27.5t81 74t41 104.5
l92 430q2 6 3 15t1 13q0 26 -20 33t-52 7h-13l2 10h200l-1 -10h-13q-22 0 -42 -5t-34.5 -20t-21.5 -47l-91 -428q-14 -66 -47 -114t-88 -74t-135 -26zM439 784q17 22 35 48t35 53t30 49h93l-3 -10q-12 -13 -33.5 -32t-47 -40.5t-51.5 -42t-48 -35.5h-12z" />
    <glyph glyph-name="Ucircumflex" unicode="&#xdb;" horiz-adv-x="713" 
d="M329 -10q-109 0 -168 45.5t-59 127.5q0 16 3.5 44t7.5 45l81 384q2 6 3 15t1 13q0 26 -20 33t-52 7h-13l2 10h291l-1 -10h-13q-22 0 -42 -5t-34.5 -20t-21.5 -47l-82 -385q-3 -17 -6 -33.5t-4.5 -32.5t-1.5 -34q0 -70 34 -108.5t98 -38.5q83 0 135 27.5t81 74t41 104.5
l92 430q2 6 3 15t1 13q0 26 -20 33t-52 7h-13l2 10h200l-1 -10h-13q-22 0 -42 -5t-34.5 -20t-21.5 -47l-91 -428q-14 -66 -47 -114t-88 -74t-135 -26zM336 794q21 20 48 46t53 53.5t42 50.5h75q7 -23 20 -50.5t28.5 -53.5t28.5 -46l-2 -10h-10q-31 18 -60.5 45.5t-51.5 54.5
q-23 -18 -51 -36.5t-56.5 -35t-55.5 -28.5h-10z" />
    <glyph glyph-name="Udieresis" unicode="&#xdc;" horiz-adv-x="713" 
d="M329 -10q-109 0 -168 45.5t-59 127.5q0 16 3.5 44t7.5 45l81 384q2 6 3 15t1 13q0 26 -20 33t-52 7h-13l2 10h291l-1 -10h-13q-22 0 -42 -5t-34.5 -20t-21.5 -47l-82 -385q-3 -17 -6 -33.5t-4.5 -32.5t-1.5 -34q0 -70 34 -108.5t98 -38.5q83 0 135 27.5t81 74t41 104.5
l92 430q2 6 3 15t1 13q0 26 -20 33t-52 7h-13l2 10h200l-1 -10h-13q-22 0 -42 -5t-34.5 -20t-21.5 -47l-91 -428q-14 -66 -47 -114t-88 -74t-135 -26zM590 810q-19 0 -31 12.5t-12 37.5q0 19 5.5 33t16.5 22t25 8q19 0 31 -12t12 -38q0 -35 -15 -49t-32 -14zM400 810
q-19 0 -31 12.5t-12 37.5q0 19 5.5 33t16.5 22t25 8q19 0 31 -12t12 -38q0 -35 -15 -49t-32 -14z" />
    <glyph glyph-name="Yacute" unicode="&#xdd;" horiz-adv-x="625" 
d="M104 0l2 10h23q33 0 59.5 11t36.5 56l46 216l-109 358q-9 29 -20 41t-40 12h-13l2 10h270l-2 -10h-50q-20 0 -29.5 -7t-9.5 -20q0 -8 1.5 -17t4 -19l5.5 -22l55 -202q6 -19 11 -38.5t10.5 -39t10.5 -38.5l34 48l34 48l150 211q17 23 24 37.5t7 27.5q0 16 -11 23.5
t-38 7.5h-63l2 10h217l-2 -10h-19q-15 0 -29 -8.5t-28.5 -25t-33.5 -42.5l-240 -337l-46 -213q-1 -6 -2.5 -14.5t-1.5 -13.5q0 -25 20.5 -32.5t51.5 -7.5h23l-2 -10h-311zM386 784q17 22 35 48t35 53t30 49h93l-3 -10q-12 -13 -33.5 -32t-47 -40.5t-51.5 -42t-48 -35.5h-12z
" />
    <glyph glyph-name="Thorn" unicode="&#xde;" horiz-adv-x="604" 
d="M-20 0l2 10h13q33 0 59.5 12.5t36.5 59.5l118 554q2 6 3 15t1 13q0 26 -20 33t-52 7h-13l2 10h301l-2 -10h-23q-34 0 -60.5 -12.5t-36.5 -59.5l-9 -42h59q105 0 166.5 -46t61.5 -141q0 -38 -13.5 -81t-47 -81.5t-93 -62.5t-152.5 -24h-74l-16 -76q-1 -6 -2.5 -14.5
t-1.5 -13.5q0 -25 20.5 -32.5t51.5 -7.5h23l-2 -10h-300zM262 164q61 0 103 22t67.5 57.5t37 77t11.5 81.5q0 99 -36 138.5t-102 39.5h-46l-88 -416h53z" />
    <glyph glyph-name="germandbls" unicode="&#xdf;" horiz-adv-x="627" 
d="M-78 -240q-15 0 -31.5 2.5t-26.5 5.5l2 10q8 -2 21.5 -4.5t24.5 -2.5q35 0 59 22t41.5 70.5t32.5 127.5l114 535h-81l2 10h81l7 30q12 55 35 93t56 61.5t73 34t86 10.5q95 0 138.5 -42t43.5 -111q0 -17 -1.5 -39t-5.5 -45h-86q-40 0 -66.5 -14t-39.5 -39t-13 -58
q0 -23 7.5 -40.5t26 -34t51.5 -36.5q33 -19 53.5 -42t30.5 -50t10 -58q0 -52 -22.5 -89.5t-65.5 -57t-105 -19.5q-47 0 -81 12t-52 35t-18 54t20 48.5t48 17.5q0 -37 4.5 -73.5t22.5 -60t58 -23.5q53 0 79 32.5t26 84.5q0 26 -6 47.5t-22.5 41t-49.5 39.5q-30 19 -52.5 40
t-35 46t-12.5 57q0 38 13 66.5t38 47t62.5 27.5t85.5 9q5 24 8 45t3 38q0 61 -21.5 97.5t-79.5 36.5q-40 0 -69.5 -21t-48.5 -60t-29 -94l-126 -588q-14 -67 -34.5 -111.5t-47.5 -71t-60.5 -38t-74.5 -11.5z" />
    <glyph glyph-name="agrave" unicode="&#xe0;" horiz-adv-x="580" 
d="M162 -10q-44 0 -73 24t-42.5 65.5t-13.5 93.5q0 47 12.5 98.5t37.5 100t61 88t83 63t104 23.5q41 0 65 -11.5t43 -29.5l53 30h32l-68 -320q-2 -11 -6 -32t-6.5 -43t-2.5 -36q0 -40 10.5 -60t30.5 -20q17 0 35.5 9t40.5 25l6 -8q-14 -13 -38 -27t-51 -23.5t-52 -9.5
q-36 0 -57 22t-21 61q0 20 2 36.5t6 41.5h-1q-35 -77 -82.5 -119t-107.5 -42zM205 17q27 0 52 20t46.5 50.5t36 63t19.5 56.5l60 292q-11 18 -32 27t-44 9q-40 0 -73 -25t-58.5 -65.5t-42.5 -89.5t-25.5 -97.5t-8.5 -88.5q0 -55 9 -88t25 -48.5t36 -15.5zM402 606
q-16 15 -36 35.5t-40 42t-36.5 40.5t-24.5 32l2 10h90q6 -22 16 -49t21 -53t20 -48l-2 -10h-10z" />
    <glyph glyph-name="aacute" unicode="&#xe1;" horiz-adv-x="580" 
d="M162 -10q-44 0 -73 24t-42.5 65.5t-13.5 93.5q0 47 12.5 98.5t37.5 100t61 88t83 63t104 23.5q41 0 65 -11.5t43 -29.5l53 30h32l-68 -320q-2 -11 -6 -32t-6.5 -43t-2.5 -36q0 -40 10.5 -60t30.5 -20q17 0 35.5 9t40.5 25l6 -8q-14 -13 -38 -27t-51 -23.5t-52 -9.5
q-36 0 -57 22t-21 61q0 20 2 36.5t6 41.5h-1q-35 -77 -82.5 -119t-107.5 -42zM205 17q27 0 52 20t46.5 50.5t36 63t19.5 56.5l60 292q-11 18 -32 27t-44 9q-40 0 -73 -25t-58.5 -65.5t-42.5 -89.5t-25.5 -97.5t-8.5 -88.5q0 -55 9 -88t25 -48.5t36 -15.5zM310 606
q17 22 35 48t35 53t30 49h93l-3 -10q-12 -13 -33.5 -32t-47 -40.5t-51.5 -42t-48 -35.5h-12z" />
    <glyph glyph-name="acircumflex" unicode="&#xe2;" horiz-adv-x="580" 
d="M162 -10q-44 0 -73 24t-42.5 65.5t-13.5 93.5q0 47 12.5 98.5t37.5 100t61 88t83 63t104 23.5q41 0 65 -11.5t43 -29.5l53 30h32l-68 -320q-2 -11 -6 -32t-6.5 -43t-2.5 -36q0 -40 10.5 -60t30.5 -20q17 0 35.5 9t40.5 25l6 -8q-14 -13 -38 -27t-51 -23.5t-52 -9.5
q-36 0 -57 22t-21 61q0 20 2 36.5t6 41.5h-1q-35 -77 -82.5 -119t-107.5 -42zM205 17q27 0 52 20t46.5 50.5t36 63t19.5 56.5l60 292q-11 18 -32 27t-44 9q-40 0 -73 -25t-58.5 -65.5t-42.5 -89.5t-25.5 -97.5t-8.5 -88.5q0 -55 9 -88t25 -48.5t36 -15.5zM207 616
q21 20 48 46t53 53.5t42 50.5h75q7 -23 20 -50.5t28.5 -53.5t28.5 -46l-2 -10h-10q-31 18 -60.5 45.5t-51.5 54.5q-23 -18 -51 -36.5t-56.5 -35t-55.5 -28.5h-10z" />
    <glyph glyph-name="atilde" unicode="&#xe3;" horiz-adv-x="580" 
d="M162 -10q-44 0 -73 24t-42.5 65.5t-13.5 93.5q0 47 12.5 98.5t37.5 100t61 88t83 63t104 23.5q41 0 65 -11.5t43 -29.5l53 30h32l-68 -320q-2 -11 -6 -32t-6.5 -43t-2.5 -36q0 -40 10.5 -60t30.5 -20q17 0 35.5 9t40.5 25l6 -8q-14 -13 -38 -27t-51 -23.5t-52 -9.5
q-36 0 -57 22t-21 61q0 20 2 36.5t6 41.5h-1q-35 -77 -82.5 -119t-107.5 -42zM205 17q27 0 52 20t46.5 50.5t36 63t19.5 56.5l60 292q-11 18 -32 27t-44 9q-40 0 -73 -25t-58.5 -65.5t-42.5 -89.5t-25.5 -97.5t-8.5 -88.5q0 -55 9 -88t25 -48.5t36 -15.5zM421 606
q-29 0 -48 9.5t-35 22t-35.5 22t-49.5 9.5q-22 0 -35 -7.5t-21 -19.5t-15 -26h-10q9 31 26 57.5t43 43.5t62 17q29 0 48 -9.5t35 -22t36 -22t50 -9.5q32 0 45.5 16.5t23.5 36.5h10q-8 -30 -25 -57t-43 -44t-62 -17z" />
    <glyph glyph-name="adieresis" unicode="&#xe4;" horiz-adv-x="580" 
d="M162 -10q-44 0 -73 24t-42.5 65.5t-13.5 93.5q0 47 12.5 98.5t37.5 100t61 88t83 63t104 23.5q41 0 65 -11.5t43 -29.5l53 30h32l-68 -320q-2 -11 -6 -32t-6.5 -43t-2.5 -36q0 -40 10.5 -60t30.5 -20q17 0 35.5 9t40.5 25l6 -8q-14 -13 -38 -27t-51 -23.5t-52 -9.5
q-36 0 -57 22t-21 61q0 20 2 36.5t6 41.5h-1q-35 -77 -82.5 -119t-107.5 -42zM205 17q27 0 52 20t46.5 50.5t36 63t19.5 56.5l60 292q-11 18 -32 27t-44 9q-40 0 -73 -25t-58.5 -65.5t-42.5 -89.5t-25.5 -97.5t-8.5 -88.5q0 -55 9 -88t25 -48.5t36 -15.5zM461 632
q-19 0 -31 12.5t-12 37.5q0 19 5.5 33t16.5 22t25 8q19 0 31 -12t12 -38q0 -35 -15 -49t-32 -14zM271 632q-19 0 -31 12.5t-12 37.5q0 19 5.5 33t16.5 22t25 8q19 0 31 -12t12 -38q0 -35 -15 -49t-32 -14z" />
    <glyph glyph-name="aring" unicode="&#xe5;" horiz-adv-x="580" 
d="M162 -10q-44 0 -73 24t-42.5 65.5t-13.5 93.5q0 47 12.5 98.5t37.5 100t61 88t83 63t104 23.5q41 0 65 -11.5t43 -29.5l53 30h32l-68 -320q-2 -11 -6 -32t-6.5 -43t-2.5 -36q0 -40 10.5 -60t30.5 -20q17 0 35.5 9t40.5 25l6 -8q-14 -13 -38 -27t-51 -23.5t-52 -9.5
q-36 0 -57 22t-21 61q0 20 2 36.5t6 41.5h-1q-35 -77 -82.5 -119t-107.5 -42zM205 17q27 0 52 20t46.5 50.5t36 63t19.5 56.5l60 292q-11 18 -32 27t-44 9q-40 0 -73 -25t-58.5 -65.5t-42.5 -89.5t-25.5 -97.5t-8.5 -88.5q0 -55 9 -88t25 -48.5t36 -15.5zM373 596
q-50 0 -85 28t-35 81t35 81t85 28t85 -28t35 -81t-35 -81t-85 -28zM373 606q48 0 78 25t30 74q0 50 -30 74.5t-78 24.5t-78 -24.5t-30 -74.5q0 -49 30 -74t78 -25z" />
    <glyph glyph-name="ae" unicode="&#xe6;" horiz-adv-x="813" 
d="M194 -10q-41 0 -75.5 21.5t-55 65.5t-20.5 112q0 43 11 92t33.5 96t57 85t82 61t108.5 23q38 0 72 -13.5t72 -57.5q36 33 82 52t100 19q63 0 98 -29.5t35 -85.5q0 -48 -37.5 -89.5t-102.5 -67t-149 -25.5h-33q-2 -13 -3.5 -29.5t-1.5 -30.5q0 -90 20.5 -139.5t74.5 -49.5
q59 0 96 35.5t59 89.5q6 -3 10 -10t4 -15q0 -22 -18 -47.5t-56.5 -44t-98.5 -18.5q-49 0 -87.5 16t-65 51t-38.5 90h-1q-31 -88 -73 -122.5t-99 -34.5zM233 8q35 0 70.5 40t60.5 125v18v19q0 53 14.5 101.5t39 89t54.5 68.5q-31 35 -57.5 47t-55.5 12q-43 0 -77 -24.5
t-59.5 -64t-43 -86.5t-26 -93t-8.5 -82q0 -87 22.5 -128.5t65.5 -41.5zM484 259q59 0 105.5 22t74 64.5t27.5 101.5q0 41 -11 65t-40 24q-33 0 -61 -24.5t-50 -65.5t-36.5 -90t-19.5 -97h11z" />
    <glyph glyph-name="ccedilla" unicode="&#xe7;" horiz-adv-x="481" 
d="M234 -10q-60 0 -103.5 23t-67.5 68.5t-24 115.5q0 44 11 92.5t33.5 94t58 82.5t84 58.5t111.5 21.5q50 0 82.5 -14t48 -35.5t15.5 -46.5q0 -19 -11 -35t-31.5 -25.5t-49.5 -9.5q1 9 1.5 19.5t0.5 20.5q0 53 -15 84.5t-51 31.5q-34 0 -63 -22t-51.5 -59.5t-38 -83
t-23.5 -93t-8 -89.5q0 -89 24 -138.5t81 -49.5q40 0 66.5 17t44 45.5t30.5 61.5q8 -3 13 -10t5 -15q0 -22 -18.5 -47.5t-56.5 -44t-98 -18.5zM161 -240q-26 0 -43.5 3.5t-31.5 7.5l3 11q12 -4 24.5 -6t25.5 -2q34 0 55 16t31.5 41.5t10.5 52.5q0 24 -8.5 37.5t-28.5 19.5
l27 59h10l-20 -45q32 -6 54.5 -17t34.5 -27t12 -38q0 -37 -20.5 -62.5t-56 -38t-79.5 -12.5z" />
    <glyph glyph-name="egrave" unicode="&#xe8;" horiz-adv-x="479" 
d="M233 -10q-53 0 -97.5 23t-71 68.5t-26.5 115.5q0 44 12.5 92.5t36.5 94t60 82.5t83.5 58.5t105.5 21.5q63 0 98 -30.5t35 -84.5q0 -48 -37.5 -89.5t-102.5 -67.5t-147 -26h-35q-1 -9 -2.5 -19t-2 -20.5t-0.5 -19.5q0 -60 11.5 -102.5t34 -64.5t54.5 -22q57 0 91 35t52 90
q10 -3 15.5 -10.5t5.5 -19.5q0 -19 -18.5 -44t-56.5 -43t-98 -18zM176 258q44 0 79.5 12.5t60 36t37.5 57t13 74.5q0 47 -14 72t-40 25q-30 0 -56 -24.5t-47 -65.5t-36 -90t-24 -97h27zM384 606q-16 15 -36 35.5t-40 42t-36.5 40.5t-24.5 32l2 10h90q6 -22 16 -49t21 -53
t20 -48l-2 -10h-10z" />
    <glyph glyph-name="eacute" unicode="&#xe9;" horiz-adv-x="479" 
d="M233 -10q-53 0 -97.5 23t-71 68.5t-26.5 115.5q0 44 12.5 92.5t36.5 94t60 82.5t83.5 58.5t105.5 21.5q63 0 98 -30.5t35 -84.5q0 -48 -37.5 -89.5t-102.5 -67.5t-147 -26h-35q-1 -9 -2.5 -19t-2 -20.5t-0.5 -19.5q0 -60 11.5 -102.5t34 -64.5t54.5 -22q57 0 91 35t52 90
q10 -3 15.5 -10.5t5.5 -19.5q0 -19 -18.5 -44t-56.5 -43t-98 -18zM176 258q44 0 79.5 12.5t60 36t37.5 57t13 74.5q0 47 -14 72t-40 25q-30 0 -56 -24.5t-47 -65.5t-36 -90t-24 -97h27zM292 606q17 22 35 48t35 53t30 49h93l-3 -10q-12 -13 -33.5 -32t-47 -40.5t-51.5 -42
t-48 -35.5h-12z" />
    <glyph glyph-name="ecircumflex" unicode="&#xea;" horiz-adv-x="479" 
d="M233 -10q-53 0 -97.5 23t-71 68.5t-26.5 115.5q0 44 12.5 92.5t36.5 94t60 82.5t83.5 58.5t105.5 21.5q63 0 98 -30.5t35 -84.5q0 -48 -37.5 -89.5t-102.5 -67.5t-147 -26h-35q-1 -9 -2.5 -19t-2 -20.5t-0.5 -19.5q0 -60 11.5 -102.5t34 -64.5t54.5 -22q57 0 91 35t52 90
q10 -3 15.5 -10.5t5.5 -19.5q0 -19 -18.5 -44t-56.5 -43t-98 -18zM176 258q44 0 79.5 12.5t60 36t37.5 57t13 74.5q0 47 -14 72t-40 25q-30 0 -56 -24.5t-47 -65.5t-36 -90t-24 -97h27zM189 616q21 20 48 46t53 53.5t42 50.5h75q7 -23 20 -50.5t28.5 -53.5t28.5 -46l-2 -10
h-10q-31 18 -60.5 45.5t-51.5 54.5q-23 -18 -51 -36.5t-56.5 -35t-55.5 -28.5h-10z" />
    <glyph glyph-name="edieresis" unicode="&#xeb;" horiz-adv-x="479" 
d="M233 -10q-53 0 -97.5 23t-71 68.5t-26.5 115.5q0 44 12.5 92.5t36.5 94t60 82.5t83.5 58.5t105.5 21.5q63 0 98 -30.5t35 -84.5q0 -48 -37.5 -89.5t-102.5 -67.5t-147 -26h-35q-1 -9 -2.5 -19t-2 -20.5t-0.5 -19.5q0 -60 11.5 -102.5t34 -64.5t54.5 -22q57 0 91 35t52 90
q10 -3 15.5 -10.5t5.5 -19.5q0 -19 -18.5 -44t-56.5 -43t-98 -18zM176 258q44 0 79.5 12.5t60 36t37.5 57t13 74.5q0 47 -14 72t-40 25q-30 0 -56 -24.5t-47 -65.5t-36 -90t-24 -97h27zM443 632q-19 0 -31 12.5t-12 37.5q0 19 5.5 33t16.5 22t25 8q19 0 31 -12t12 -38
q0 -35 -15 -49t-32 -14zM253 632q-19 0 -31 12.5t-12 37.5q0 19 5.5 33t16.5 22t25 8q19 0 31 -12t12 -38q0 -35 -15 -49t-32 -14z" />
    <glyph glyph-name="igrave" unicode="&#xec;" horiz-adv-x="300" 
d="M155 -10q-40 0 -61.5 29t-21.5 74q0 22 4 49t9 54t9 46l46 216q2 8 2.5 14.5t0.5 11.5q0 25 -15 33.5t-46 8.5h-13l2 10h179l-68 -321q-2 -11 -6 -32t-6.5 -43t-2.5 -36q0 -37 10.5 -55t32.5 -18t39 7.5t35 19.5l6 -8q-22 -19 -59.5 -39.5t-75.5 -20.5zM254 606
q-16 15 -36 35.5t-40 42t-36.5 40.5t-24.5 32l2 10h90q6 -22 16 -49t21 -53t20 -48l-2 -10h-10z" />
    <glyph glyph-name="iacute" unicode="&#xed;" horiz-adv-x="300" 
d="M155 -10q-40 0 -61.5 29t-21.5 74q0 22 4 49t9 54t9 46l46 216q2 8 2.5 14.5t0.5 11.5q0 25 -15 33.5t-46 8.5h-13l2 10h179l-68 -321q-2 -11 -6 -32t-6.5 -43t-2.5 -36q0 -37 10.5 -55t32.5 -18t39 7.5t35 19.5l6 -8q-22 -19 -59.5 -39.5t-75.5 -20.5zM162 606
q17 22 35 48t35 53t30 49h93l-3 -10q-12 -13 -33.5 -32t-47 -40.5t-51.5 -42t-48 -35.5h-12z" />
    <glyph glyph-name="icircumflex" unicode="&#xee;" horiz-adv-x="300" 
d="M155 -10q-40 0 -61.5 29t-21.5 74q0 22 4 49t9 54t9 46l46 216q2 8 2.5 14.5t0.5 11.5q0 25 -15 33.5t-46 8.5h-13l2 10h179l-68 -321q-2 -11 -6 -32t-6.5 -43t-2.5 -36q0 -37 10.5 -55t32.5 -18t39 7.5t35 19.5l6 -8q-22 -19 -59.5 -39.5t-75.5 -20.5zM59 616
q21 20 48 46t53 53.5t42 50.5h75q7 -23 20 -50.5t28.5 -53.5t28.5 -46l-2 -10h-10q-31 18 -60.5 45.5t-51.5 54.5q-23 -18 -51 -36.5t-56.5 -35t-55.5 -28.5h-10z" />
    <glyph glyph-name="idieresis" unicode="&#xef;" horiz-adv-x="300" 
d="M155 -10q-40 0 -61.5 29t-21.5 74q0 22 4 49t9 54t9 46l46 216q2 8 2.5 14.5t0.5 11.5q0 25 -15 33.5t-46 8.5h-13l2 10h179l-68 -321q-2 -11 -6 -32t-6.5 -43t-2.5 -36q0 -37 10.5 -55t32.5 -18t39 7.5t35 19.5l6 -8q-22 -19 -59.5 -39.5t-75.5 -20.5zM313 632
q-19 0 -31 12.5t-12 37.5q0 19 5.5 33t16.5 22t25 8q19 0 31 -12t12 -38q0 -35 -15 -49t-32 -14zM123 632q-19 0 -31 12.5t-12 37.5q0 19 5.5 33t16.5 22t25 8q19 0 31 -12t12 -38q0 -35 -15 -49t-32 -14z" />
    <glyph glyph-name="eth" unicode="&#xf0;" horiz-adv-x="574" 
d="M234 -10q-56 1 -99.5 22.5t-67.5 63.5t-24 104q0 41 11 86t33.5 88t56.5 77.5t80.5 55t104.5 20.5q24 0 43.5 -5.5t34 -15.5t24.5 -25q-6 56 -23.5 102t-44.5 82.5t-62 63.5t-76 43l3 9q69 -18 124 -52.5t94.5 -85t60.5 -116t21 -145.5q0 -74 -17 -141t-53 -119
t-91.5 -82t-132.5 -30zM236 0q41 0 72.5 21.5t53.5 57t35.5 78.5t20 86.5t6.5 80.5q0 90 -24 131.5t-70 41.5q-40 0 -70.5 -22t-52 -59t-35 -81t-19.5 -88.5t-6 -82.5q0 -57 10 -93t30 -53.5t49 -17.5zM214 559l3 13l312 180l-3 -13z" />
    <glyph glyph-name="ntilde" unicode="&#xf1;" horiz-adv-x="601" 
d="M462 -10q-44 0 -67.5 28.5t-23.5 71.5q0 24 4.5 56.5t14.5 78.5l17 78q3 14 8 35.5t9 45.5t4 45q0 17 -4 36t-17.5 33t-40.5 14t-52.5 -18t-46.5 -44t-34.5 -50t-15.5 -36l-78 -364h-93l91 434q3 14 4.5 27.5t1.5 17.5q0 30 -20.5 38.5t-49.5 8.5h-8l2 10h185l-27 -126h2
q28 44 57 74t62 45.5t71 15.5q40 0 63 -15.5t33.5 -40.5t10.5 -55q0 -25 -6.5 -54.5t-11.5 -55.5l-26 -118q-6 -28 -9.5 -56.5t-3.5 -54.5q0 -31 11 -48.5t36 -17.5q11 0 21.5 3t21 8.5t21.5 14.5l6 -8q-24 -20 -53.5 -38.5t-68.5 -18.5zM443 606q-29 0 -48 9.5t-35 22
t-35.5 22t-49.5 9.5q-22 0 -35 -7.5t-21 -19.5t-15 -26h-10q9 31 26 57.5t43 43.5t62 17q29 0 48 -9.5t35 -22t36 -22t50 -9.5q32 0 45.5 16.5t23.5 36.5h10q-8 -30 -25 -57t-43 -44t-62 -17z" />
    <glyph glyph-name="ograve" unicode="&#xf2;" horiz-adv-x="564" 
d="M230 -10q-85 0 -138.5 51.5t-53.5 155.5q0 44 11.5 92.5t35 94t59 82.5t83.5 58.5t109 21.5q53 0 96 -21t68.5 -66.5t25.5 -119.5q0 -43 -11 -90.5t-34 -93.5t-58 -83t-83 -59.5t-110 -22.5zM232 0q41 0 72 23.5t53.5 62.5t37 86t21 95t6.5 89q0 65 -10.5 104.5
t-30.5 57.5t-51 18q-40 0 -71 -23.5t-53.5 -62.5t-36.5 -86.5t-20.5 -95.5t-6.5 -89q0 -98 24.5 -138.5t65.5 -40.5zM404 606q-16 15 -36 35.5t-40 42t-36.5 40.5t-24.5 32l2 10h90q6 -22 16 -49t21 -53t20 -48l-2 -10h-10z" />
    <glyph glyph-name="oacute" unicode="&#xf3;" horiz-adv-x="564" 
d="M230 -10q-85 0 -138.5 51.5t-53.5 155.5q0 44 11.5 92.5t35 94t59 82.5t83.5 58.5t109 21.5q53 0 96 -21t68.5 -66.5t25.5 -119.5q0 -43 -11 -90.5t-34 -93.5t-58 -83t-83 -59.5t-110 -22.5zM232 0q41 0 72 23.5t53.5 62.5t37 86t21 95t6.5 89q0 65 -10.5 104.5
t-30.5 57.5t-51 18q-40 0 -71 -23.5t-53.5 -62.5t-36.5 -86.5t-20.5 -95.5t-6.5 -89q0 -98 24.5 -138.5t65.5 -40.5zM312 606q17 22 35 48t35 53t30 49h93l-3 -10q-12 -13 -33.5 -32t-47 -40.5t-51.5 -42t-48 -35.5h-12z" />
    <glyph glyph-name="ocircumflex" unicode="&#xf4;" horiz-adv-x="564" 
d="M230 -10q-85 0 -138.5 51.5t-53.5 155.5q0 44 11.5 92.5t35 94t59 82.5t83.5 58.5t109 21.5q53 0 96 -21t68.5 -66.5t25.5 -119.5q0 -43 -11 -90.5t-34 -93.5t-58 -83t-83 -59.5t-110 -22.5zM232 0q41 0 72 23.5t53.5 62.5t37 86t21 95t6.5 89q0 65 -10.5 104.5
t-30.5 57.5t-51 18q-40 0 -71 -23.5t-53.5 -62.5t-36.5 -86.5t-20.5 -95.5t-6.5 -89q0 -98 24.5 -138.5t65.5 -40.5zM209 616q21 20 48 46t53 53.5t42 50.5h75q7 -23 20 -50.5t28.5 -53.5t28.5 -46l-2 -10h-10q-31 18 -60.5 45.5t-51.5 54.5q-23 -18 -51 -36.5t-56.5 -35
t-55.5 -28.5h-10z" />
    <glyph glyph-name="otilde" unicode="&#xf5;" horiz-adv-x="564" 
d="M230 -10q-85 0 -138.5 51.5t-53.5 155.5q0 44 11.5 92.5t35 94t59 82.5t83.5 58.5t109 21.5q53 0 96 -21t68.5 -66.5t25.5 -119.5q0 -43 -11 -90.5t-34 -93.5t-58 -83t-83 -59.5t-110 -22.5zM232 0q41 0 72 23.5t53.5 62.5t37 86t21 95t6.5 89q0 65 -10.5 104.5
t-30.5 57.5t-51 18q-40 0 -71 -23.5t-53.5 -62.5t-36.5 -86.5t-20.5 -95.5t-6.5 -89q0 -98 24.5 -138.5t65.5 -40.5zM423 606q-29 0 -48 9.5t-35 22t-35.5 22t-49.5 9.5q-22 0 -35 -7.5t-21 -19.5t-15 -26h-10q9 31 26 57.5t43 43.5t62 17q29 0 48 -9.5t35 -22t36 -22
t50 -9.5q32 0 45.5 16.5t23.5 36.5h10q-8 -30 -25 -57t-43 -44t-62 -17z" />
    <glyph glyph-name="odieresis" unicode="&#xf6;" horiz-adv-x="564" 
d="M230 -10q-85 0 -138.5 51.5t-53.5 155.5q0 44 11.5 92.5t35 94t59 82.5t83.5 58.5t109 21.5q53 0 96 -21t68.5 -66.5t25.5 -119.5q0 -43 -11 -90.5t-34 -93.5t-58 -83t-83 -59.5t-110 -22.5zM232 0q41 0 72 23.5t53.5 62.5t37 86t21 95t6.5 89q0 65 -10.5 104.5
t-30.5 57.5t-51 18q-40 0 -71 -23.5t-53.5 -62.5t-36.5 -86.5t-20.5 -95.5t-6.5 -89q0 -98 24.5 -138.5t65.5 -40.5zM463 632q-19 0 -31 12.5t-12 37.5q0 19 5.5 33t16.5 22t25 8q19 0 31 -12t12 -38q0 -35 -15 -49t-32 -14zM273 632q-19 0 -31 12.5t-12 37.5q0 19 5.5 33
t16.5 22t25 8q19 0 31 -12t12 -38q0 -35 -15 -49t-32 -14z" />
    <glyph glyph-name="divide" unicode="&#xf7;" horiz-adv-x="559" 
d="M84 347v20h429v-20h-429zM299 144q-17 0 -29 9.5t-12 32.5q0 25 12 34t29 9t29 -9t12 -34q0 -23 -12 -32.5t-29 -9.5zM299 486q-17 0 -29 9.5t-12 33.5t12 33t29 9t29 -9t12 -33t-12 -33.5t-29 -9.5z" />
    <glyph glyph-name="oslash" unicode="&#xf8;" horiz-adv-x="574" 
d="M5 -50l557 636h12l-557 -636h-12zM230 -10q-85 0 -138.5 51.5t-53.5 155.5q0 44 11.5 92.5t35 94t59 82.5t83.5 58.5t109 21.5q53 0 96 -21t68.5 -66.5t25.5 -119.5q0 -43 -11 -90.5t-34 -93.5t-58 -83t-83 -59.5t-110 -22.5zM232 0q41 0 72 23.5t53.5 62.5t37 86t21 95
t6.5 89q0 65 -10.5 104.5t-30.5 57.5t-51 18q-40 0 -71 -23.5t-53.5 -62.5t-36.5 -86.5t-20.5 -95.5t-6.5 -89q0 -98 24.5 -138.5t65.5 -40.5z" />
    <glyph glyph-name="ugrave" unicode="&#xf9;" horiz-adv-x="601" 
d="M457 -10q-26 0 -45 13t-29 34.5t-10 47.5q0 8 0.5 17.5t1.5 20t2 21.5h-3q-25 -44 -53 -78.5t-63 -54.5t-81 -20q-39 0 -62.5 15.5t-34 41t-10.5 54.5q0 25 6 55t12 55l46 207q3 14 6 33t3 27q0 30 -20.5 38.5t-49.5 8.5h-8l2 10h186l-66 -299q-4 -18 -8.5 -41.5t-8 -46
t-3.5 -37.5q0 -42 12.5 -67t46.5 -25q24 0 49.5 18t48.5 47t39 60.5t22 58.5l71 332h97l-69 -321q-2 -11 -6 -32t-6.5 -43t-2.5 -36q0 -39 11.5 -58.5t33.5 -19.5q17 0 31.5 6.5t33.5 20.5l5 -7q-22 -19 -55.5 -37.5t-71.5 -18.5zM423 606q-16 15 -36 35.5t-40 42
t-36.5 40.5t-24.5 32l2 10h90q6 -22 16 -49t21 -53t20 -48l-2 -10h-10z" />
    <glyph glyph-name="uacute" unicode="&#xfa;" horiz-adv-x="601" 
d="M457 -10q-26 0 -45 13t-29 34.5t-10 47.5q0 8 0.5 17.5t1.5 20t2 21.5h-3q-25 -44 -53 -78.5t-63 -54.5t-81 -20q-39 0 -62.5 15.5t-34 41t-10.5 54.5q0 25 6 55t12 55l46 207q3 14 6 33t3 27q0 30 -20.5 38.5t-49.5 8.5h-8l2 10h186l-66 -299q-4 -18 -8.5 -41.5t-8 -46
t-3.5 -37.5q0 -42 12.5 -67t46.5 -25q24 0 49.5 18t48.5 47t39 60.5t22 58.5l71 332h97l-69 -321q-2 -11 -6 -32t-6.5 -43t-2.5 -36q0 -39 11.5 -58.5t33.5 -19.5q17 0 31.5 6.5t33.5 20.5l5 -7q-22 -19 -55.5 -37.5t-71.5 -18.5zM331 606q17 22 35 48t35 53t30 49h93
l-3 -10q-12 -13 -33.5 -32t-47 -40.5t-51.5 -42t-48 -35.5h-12z" />
    <glyph glyph-name="ucircumflex" unicode="&#xfb;" horiz-adv-x="601" 
d="M457 -10q-26 0 -45 13t-29 34.5t-10 47.5q0 8 0.5 17.5t1.5 20t2 21.5h-3q-25 -44 -53 -78.5t-63 -54.5t-81 -20q-39 0 -62.5 15.5t-34 41t-10.5 54.5q0 25 6 55t12 55l46 207q3 14 6 33t3 27q0 30 -20.5 38.5t-49.5 8.5h-8l2 10h186l-66 -299q-4 -18 -8.5 -41.5t-8 -46
t-3.5 -37.5q0 -42 12.5 -67t46.5 -25q24 0 49.5 18t48.5 47t39 60.5t22 58.5l71 332h97l-69 -321q-2 -11 -6 -32t-6.5 -43t-2.5 -36q0 -39 11.5 -58.5t33.5 -19.5q17 0 31.5 6.5t33.5 20.5l5 -7q-22 -19 -55.5 -37.5t-71.5 -18.5zM228 616q21 20 48 46t53 53.5t42 50.5h75
q7 -23 20 -50.5t28.5 -53.5t28.5 -46l-2 -10h-10q-31 18 -60.5 45.5t-51.5 54.5q-23 -18 -51 -36.5t-56.5 -35t-55.5 -28.5h-10z" />
    <glyph glyph-name="udieresis" unicode="&#xfc;" horiz-adv-x="601" 
d="M457 -10q-26 0 -45 13t-29 34.5t-10 47.5q0 8 0.5 17.5t1.5 20t2 21.5h-3q-25 -44 -53 -78.5t-63 -54.5t-81 -20q-39 0 -62.5 15.5t-34 41t-10.5 54.5q0 25 6 55t12 55l46 207q3 14 6 33t3 27q0 30 -20.5 38.5t-49.5 8.5h-8l2 10h186l-66 -299q-4 -18 -8.5 -41.5t-8 -46
t-3.5 -37.5q0 -42 12.5 -67t46.5 -25q24 0 49.5 18t48.5 47t39 60.5t22 58.5l71 332h97l-69 -321q-2 -11 -6 -32t-6.5 -43t-2.5 -36q0 -39 11.5 -58.5t33.5 -19.5q17 0 31.5 6.5t33.5 20.5l5 -7q-22 -19 -55.5 -37.5t-71.5 -18.5zM482 632q-19 0 -31 12.5t-12 37.5
q0 19 5.5 33t16.5 22t25 8q19 0 31 -12t12 -38q0 -35 -15 -49t-32 -14zM292 632q-19 0 -31 12.5t-12 37.5q0 19 5.5 33t16.5 22t25 8q19 0 31 -12t12 -38q0 -35 -15 -49t-32 -14z" />
    <glyph glyph-name="yacute" unicode="&#xfd;" horiz-adv-x="520" 
d="M-65 -240q-25 0 -50 5t-44 13l3 10q12 -4 30.5 -7.5t53.5 -3.5q50 0 93.5 11t81 32t69.5 51t58 68l-151 534q-8 30 -19 41.5t-40 11.5h-10l2 10h151l73 -270q5 -19 13.5 -53t18 -71t16.5 -67t10 -43h1q32 48 62.5 100t55.5 102.5t39.5 93.5t14.5 71q0 22 -9 38t-31 25
t-60 9q0 36 20.5 55t44.5 19q32 0 50 -21t18 -63q0 -52 -21.5 -114.5t-61 -135t-93.5 -154.5q-49 -76 -90.5 -132t-83.5 -92.5t-93.5 -54.5t-121.5 -18zM244 606q17 22 35 48t35 53t30 49h93l-3 -10q-12 -13 -33.5 -32t-47 -40.5t-51.5 -42t-48 -35.5h-12z" />
    <glyph glyph-name="thorn" unicode="&#xfe;" horiz-adv-x="562" 
d="M165 650q5 20 7 34.5t2 18.5q0 30 -20.5 38.5t-49.5 8.5h-8l2 10h184l-57 -266q-3 -15 -7 -30t-7.5 -30.5t-7.5 -30.5h2q21 39 47 71.5t60 52t79 19.5q41 0 69 -21t43 -61t15 -99q0 -43 -12 -93.5t-35.5 -100.5t-59 -91t-83.5 -65.5t-108 -24.5q-29 0 -51 7.5t-43 21.5
q-4 -15 -6 -26t-6 -28l-21 -93q-1 -6 -5 -25.5t-4 -30.5q0 -30 21 -38t49 -8h13l-2 -10h-188zM217 1q38 0 69.5 24.5t55.5 64.5t40.5 88.5t25 97.5t8.5 90q0 37 -5 71.5t-20 56.5t-45 22q-27 0 -52 -18t-45.5 -45.5t-33.5 -55.5t-18 -48l-68 -319q12 -8 32.5 -18.5
t55.5 -10.5z" />
    <glyph glyph-name="ydieresis" unicode="&#xff;" horiz-adv-x="520" 
d="M-65 -240q-25 0 -50 5t-44 13l3 10q12 -4 30.5 -7.5t53.5 -3.5q50 0 93.5 11t81 32t69.5 51t58 68l-151 534q-8 30 -19 41.5t-40 11.5h-10l2 10h151l73 -270q5 -19 13.5 -53t18 -71t16.5 -67t10 -43h1q32 48 62.5 100t55.5 102.5t39.5 93.5t14.5 71q0 22 -9 38t-31 25
t-60 9q0 36 20.5 55t44.5 19q32 0 50 -21t18 -63q0 -52 -21.5 -114.5t-61 -135t-93.5 -154.5q-49 -76 -90.5 -132t-83.5 -92.5t-93.5 -54.5t-121.5 -18zM395 632q-19 0 -31 12.5t-12 37.5q0 19 5.5 33t16.5 22t25 8q19 0 31 -12t12 -38q0 -35 -15 -49t-32 -14zM205 632
q-19 0 -31 12.5t-12 37.5q0 19 5.5 33t16.5 22t25 8q19 0 31 -12t12 -38q0 -35 -15 -49t-32 -14z" />
    <glyph glyph-name="Amacron" unicode="&#x100;" horiz-adv-x="700" 
d="M-62 0l2 10h19q20 0 33.5 6t27 22.5t32.5 49.5l363 626h64l94 -651q3 -21 9.5 -32.5t18.5 -16t31 -4.5h13l-2 -10h-272l2 10h23q39 0 58 13.5t19 37.5q0 8 -0.5 17.5t-1.5 16.5l-47 369q-4 30 -9 71t-8.5 79.5t-5.5 59.5q-8 -16 -22 -41t-31 -53.5t-33 -56.5t-29 -50
l-215 -371q-10 -18 -14.5 -31.5t-4.5 -24.5q0 -19 14 -27.5t42 -8.5h69l-2 -10h-237zM155 259l5 10h338v-10h-343zM305 808l4 20h290l-4 -20h-290z" />
    <glyph glyph-name="amacron" unicode="&#x101;" horiz-adv-x="580" 
d="M162 -10q-44 0 -73 24t-42.5 65.5t-13.5 93.5q0 47 12.5 98.5t37.5 100t61 88t83 63t104 23.5q41 0 65 -11.5t43 -29.5l53 30h32l-68 -320q-2 -11 -6 -32t-6.5 -43t-2.5 -36q0 -40 10.5 -60t30.5 -20q17 0 35.5 9t40.5 25l6 -8q-14 -13 -38 -27t-51 -23.5t-52 -9.5
q-36 0 -57 22t-21 61q0 20 2 36.5t6 41.5h-1q-35 -77 -82.5 -119t-107.5 -42zM205 17q27 0 52 20t46.5 50.5t36 63t19.5 56.5l60 292q-11 18 -32 27t-44 9q-40 0 -73 -25t-58.5 -65.5t-42.5 -89.5t-25.5 -97.5t-8.5 -88.5q0 -55 9 -88t25 -48.5t36 -15.5zM213 630l4 20h290
l-4 -20h-290z" />
    <glyph glyph-name="Abreve" unicode="&#x102;" horiz-adv-x="700" 
d="M-62 0l2 10h19q20 0 33.5 6t27 22.5t32.5 49.5l363 626h64l94 -651q3 -21 9.5 -32.5t18.5 -16t31 -4.5h13l-2 -10h-272l2 10h23q39 0 58 13.5t19 37.5q0 8 -0.5 17.5t-1.5 16.5l-47 369q-4 30 -9 71t-8.5 79.5t-5.5 59.5q-8 -16 -22 -41t-31 -53.5t-33 -56.5t-29 -50
l-215 -371q-10 -18 -14.5 -31.5t-4.5 -24.5q0 -19 14 -27.5t42 -8.5h69l-2 -10h-237zM155 259l5 10h338v-10h-343zM440 784q-60 0 -91 35.5t-35 101.5h10q5 -34 38 -51t85 -17q33 0 60 7t48.5 22t35.5 39h10q-9 -37 -30.5 -68.5t-54 -50t-76.5 -18.5z" />
    <glyph glyph-name="abreve" unicode="&#x103;" horiz-adv-x="580" 
d="M162 -10q-44 0 -73 24t-42.5 65.5t-13.5 93.5q0 47 12.5 98.5t37.5 100t61 88t83 63t104 23.5q41 0 65 -11.5t43 -29.5l53 30h32l-68 -320q-2 -11 -6 -32t-6.5 -43t-2.5 -36q0 -40 10.5 -60t30.5 -20q17 0 35.5 9t40.5 25l6 -8q-14 -13 -38 -27t-51 -23.5t-52 -9.5
q-36 0 -57 22t-21 61q0 20 2 36.5t6 41.5h-1q-35 -77 -82.5 -119t-107.5 -42zM205 17q27 0 52 20t46.5 50.5t36 63t19.5 56.5l60 292q-11 18 -32 27t-44 9q-40 0 -73 -25t-58.5 -65.5t-42.5 -89.5t-25.5 -97.5t-8.5 -88.5q0 -55 9 -88t25 -48.5t36 -15.5zM348 606
q-60 0 -91 35.5t-35 101.5h10q5 -34 38 -51t85 -17q33 0 60 7t48.5 22t35.5 39h10q-9 -37 -30.5 -68.5t-54 -50t-76.5 -18.5z" />
    <glyph glyph-name="Aogonek" unicode="&#x104;" horiz-adv-x="700" 
d="M-62 0l2 10h19q20 0 33.5 6t27 22.5t32.5 49.5l363 626h64l94 -651q3 -21 9.5 -32.5t18.5 -16t31 -4.5h13l-2 -10h-272l2 10h23q39 0 58 13.5t19 37.5q0 8 -0.5 17.5t-1.5 16.5l-47 369q-4 30 -9 71t-8.5 79.5t-5.5 59.5q-8 -16 -22 -41t-31 -53.5t-33 -56.5t-29 -50
l-215 -371q-10 -18 -14.5 -31.5t-4.5 -24.5q0 -19 14 -27.5t42 -8.5h69l-2 -10h-237zM155 259l5 10h338v-10h-343zM474 -240q-55 0 -86 24.5t-31 67.5q0 28 12 51t35 41.5t54 32.5t68 23h20q-27 -11 -50.5 -29t-37.5 -49t-14 -83q0 -29 14 -47t41 -18q8 0 23.5 2.5t33.5 9.5
l-2 -10q-17 -7 -37.5 -11.5t-42.5 -4.5z" />
    <glyph glyph-name="aogonek" unicode="&#x105;" horiz-adv-x="580" 
d="M162 -10q-44 0 -73 24t-42.5 65.5t-13.5 93.5q0 47 12.5 98.5t37.5 100t61 88t83 63t104 23.5q41 0 65 -11.5t43 -29.5l53 30h32l-68 -320q-2 -11 -6 -32t-6.5 -43t-2.5 -36q0 -40 10.5 -60t30.5 -20q17 0 35.5 9t40.5 25l6 -8q-14 -13 -38 -27t-51 -23.5t-52 -9.5
q-36 0 -57 22t-21 61q0 20 2 36.5t6 41.5h-1q-35 -77 -82.5 -119t-107.5 -42zM205 17q27 0 52 20t46.5 50.5t36 63t19.5 56.5l60 292q-11 18 -32 27t-44 9q-40 0 -73 -25t-58.5 -65.5t-42.5 -89.5t-25.5 -97.5t-8.5 -88.5q0 -55 9 -88t25 -48.5t36 -15.5zM390 -240
q-55 0 -86 24.5t-31 67.5q0 28 12 51t35 41.5t54 32.5t68 23h20q-27 -11 -50.5 -29t-37.5 -49t-14 -83q0 -29 14 -47t41 -18q8 0 23.5 2.5t33.5 9.5l-2 -10q-17 -7 -37.5 -11.5t-42.5 -4.5z" />
    <glyph glyph-name="Cacute" unicode="&#x106;" horiz-adv-x="636" 
d="M337 -10q-87 0 -148.5 31.5t-94.5 91.5t-33 145q0 71 19 139.5t54.5 127.5t86 103.5t114 70t138.5 25.5q89 0 137 -30.5t48 -80.5q0 -36 -25.5 -57t-66.5 -21q0 27 -0.5 58t-9 58.5t-29 45t-59.5 17.5q-55 0 -101.5 -29t-83 -78t-61.5 -110.5t-38.5 -127.5t-13.5 -127
q0 -77 20 -131t59.5 -82.5t98.5 -28.5q50 0 83.5 18t56 51t38.5 77q9 -4 14.5 -13t5.5 -20q0 -26 -21.5 -55t-67.5 -48.5t-120 -19.5zM443 784q17 22 35 48t35 53t30 49h93l-3 -10q-12 -13 -33.5 -32t-47 -40.5t-51.5 -42t-48 -35.5h-12z" />
    <glyph glyph-name="cacute" unicode="&#x107;" horiz-adv-x="481" 
d="M234 -10q-60 0 -103.5 23t-67.5 68.5t-24 115.5q0 44 11 92.5t33.5 94t58 82.5t84 58.5t111.5 21.5q50 0 82.5 -14t48 -35.5t15.5 -46.5q0 -19 -11 -35t-31.5 -25.5t-49.5 -9.5q1 9 1.5 19.5t0.5 20.5q0 53 -15 84.5t-51 31.5q-34 0 -63 -22t-51.5 -59.5t-38 -83
t-23.5 -93t-8 -89.5q0 -89 24 -138.5t81 -49.5q40 0 66.5 17t44 45.5t30.5 61.5q8 -3 13 -10t5 -15q0 -22 -18.5 -47.5t-56.5 -44t-98 -18.5zM290 606q17 22 35 48t35 53t30 49h93l-3 -10q-12 -13 -33.5 -32t-47 -40.5t-51.5 -42t-48 -35.5h-12z" />
    <glyph glyph-name="Ccircumflex" unicode="&#x108;" horiz-adv-x="636" 
d="M337 -10q-87 0 -148.5 31.5t-94.5 91.5t-33 145q0 71 19 139.5t54.5 127.5t86 103.5t114 70t138.5 25.5q89 0 137 -30.5t48 -80.5q0 -36 -25.5 -57t-66.5 -21q0 27 -0.5 58t-9 58.5t-29 45t-59.5 17.5q-55 0 -101.5 -29t-83 -78t-61.5 -110.5t-38.5 -127.5t-13.5 -127
q0 -77 20 -131t59.5 -82.5t98.5 -28.5q50 0 83.5 18t56 51t38.5 77q9 -4 14.5 -13t5.5 -20q0 -26 -21.5 -55t-67.5 -48.5t-120 -19.5zM340 794q21 20 48 46t53 53.5t42 50.5h75q7 -23 20 -50.5t28.5 -53.5t28.5 -46l-2 -10h-10q-31 18 -60.5 45.5t-51.5 54.5
q-23 -18 -51 -36.5t-56.5 -35t-55.5 -28.5h-10z" />
    <glyph glyph-name="ccircumflex" unicode="&#x109;" horiz-adv-x="481" 
d="M234 -10q-60 0 -103.5 23t-67.5 68.5t-24 115.5q0 44 11 92.5t33.5 94t58 82.5t84 58.5t111.5 21.5q50 0 82.5 -14t48 -35.5t15.5 -46.5q0 -19 -11 -35t-31.5 -25.5t-49.5 -9.5q1 9 1.5 19.5t0.5 20.5q0 53 -15 84.5t-51 31.5q-34 0 -63 -22t-51.5 -59.5t-38 -83
t-23.5 -93t-8 -89.5q0 -89 24 -138.5t81 -49.5q40 0 66.5 17t44 45.5t30.5 61.5q8 -3 13 -10t5 -15q0 -22 -18.5 -47.5t-56.5 -44t-98 -18.5zM187 616q21 20 48 46t53 53.5t42 50.5h75q7 -23 20 -50.5t28.5 -53.5t28.5 -46l-2 -10h-10q-31 18 -60.5 45.5t-51.5 54.5
q-23 -18 -51 -36.5t-56.5 -35t-55.5 -28.5h-10z" />
    <glyph glyph-name="Cdot" unicode="&#x10a;" horiz-adv-x="636" 
d="M337 -10q-87 0 -148.5 31.5t-94.5 91.5t-33 145q0 71 19 139.5t54.5 127.5t86 103.5t114 70t138.5 25.5q89 0 137 -30.5t48 -80.5q0 -36 -25.5 -57t-66.5 -21q0 27 -0.5 58t-9 58.5t-29 45t-59.5 17.5q-55 0 -101.5 -29t-83 -78t-61.5 -110.5t-38.5 -127.5t-13.5 -127
q0 -77 20 -131t59.5 -82.5t98.5 -28.5q50 0 83.5 18t56 51t38.5 77q9 -4 14.5 -13t5.5 -20q0 -26 -21.5 -55t-67.5 -48.5t-120 -19.5zM501 814q-20 0 -33 11.5t-13 38.5q0 22 6 36.5t17.5 21.5t26.5 7q20 0 33 -10.5t13 -39.5q0 -38 -16 -51.5t-34 -13.5z" />
    <glyph glyph-name="cdot" unicode="&#x10b;" horiz-adv-x="481" 
d="M234 -10q-60 0 -103.5 23t-67.5 68.5t-24 115.5q0 44 11 92.5t33.5 94t58 82.5t84 58.5t111.5 21.5q50 0 82.5 -14t48 -35.5t15.5 -46.5q0 -19 -11 -35t-31.5 -25.5t-49.5 -9.5q1 9 1.5 19.5t0.5 20.5q0 53 -15 84.5t-51 31.5q-34 0 -63 -22t-51.5 -59.5t-38 -83
t-23.5 -93t-8 -89.5q0 -89 24 -138.5t81 -49.5q40 0 66.5 17t44 45.5t30.5 61.5q8 -3 13 -10t5 -15q0 -22 -18.5 -47.5t-56.5 -44t-98 -18.5zM348 636q-20 0 -33 11.5t-13 38.5q0 22 6 36.5t17.5 21.5t26.5 7q20 0 33 -10.5t13 -39.5q0 -38 -16 -51.5t-34 -13.5z" />
    <glyph glyph-name="Ccaron" unicode="&#x10c;" horiz-adv-x="636" 
d="M337 -10q-87 0 -148.5 31.5t-94.5 91.5t-33 145q0 71 19 139.5t54.5 127.5t86 103.5t114 70t138.5 25.5q89 0 137 -30.5t48 -80.5q0 -36 -25.5 -57t-66.5 -21q0 27 -0.5 58t-9 58.5t-29 45t-59.5 17.5q-55 0 -101.5 -29t-83 -78t-61.5 -110.5t-38.5 -127.5t-13.5 -127
q0 -77 20 -131t59.5 -82.5t98.5 -28.5q50 0 83.5 18t56 51t38.5 77q9 -4 14.5 -13t5.5 -20q0 -26 -21.5 -55t-67.5 -48.5t-120 -19.5zM450 784q-8 25 -21.5 52t-28 53t-27.5 45l2 10h10q29 -20 59.5 -47t52.5 -54q23 18 51 36.5t57 35t55 29.5h10l-2 -10q-31 -29 -72 -70.5
t-71 -79.5h-75z" />
    <glyph glyph-name="ccaron" unicode="&#x10d;" horiz-adv-x="481" 
d="M234 -10q-60 0 -103.5 23t-67.5 68.5t-24 115.5q0 44 11 92.5t33.5 94t58 82.5t84 58.5t111.5 21.5q50 0 82.5 -14t48 -35.5t15.5 -46.5q0 -19 -11 -35t-31.5 -25.5t-49.5 -9.5q1 9 1.5 19.5t0.5 20.5q0 53 -15 84.5t-51 31.5q-34 0 -63 -22t-51.5 -59.5t-38 -83
t-23.5 -93t-8 -89.5q0 -89 24 -138.5t81 -49.5q40 0 66.5 17t44 45.5t30.5 61.5q8 -3 13 -10t5 -15q0 -22 -18.5 -47.5t-56.5 -44t-98 -18.5zM297 606q-8 25 -21.5 52t-28 53t-27.5 45l2 10h10q29 -20 59.5 -47t52.5 -54q23 18 51 36.5t57 35t55 29.5h10l-2 -10
q-31 -29 -72 -70.5t-71 -79.5h-75z" />
    <glyph glyph-name="Dcaron" unicode="&#x10e;" horiz-adv-x="723" 
d="M-19 0l2 10h13q34 0 61 12.5t37 59.5l117 554q2 7 3 14.5t1 13.5q0 27 -22.5 33.5t-49.5 6.5h-13l2 10h280q135 0 209.5 -69.5t74.5 -202.5q0 -71 -16.5 -137t-49.5 -121.5t-81.5 -96.5t-111.5 -64t-141 -23h-315zM265 11q60 0 110.5 21t89.5 60t66.5 93.5t41.5 122
t14 145.5q0 87 -20.5 142.5t-61 82t-100.5 26.5h-79l-148 -693h87zM440 784q-8 25 -21.5 52t-28 53t-27.5 45l2 10h10q29 -20 59.5 -47t52.5 -54q23 18 51 36.5t57 35t55 29.5h10l-2 -10q-31 -29 -72 -70.5t-71 -79.5h-75z" />
    <glyph glyph-name="dcaron" unicode="&#x10f;" horiz-adv-x="580" 
d="M609 614q21 38 36.5 72.5t29.5 73.5h75l-2 -10q-15 -21 -36.5 -46.5t-46 -52t-49.5 -51.5h-10zM162 -10q-44 0 -73 24t-42.5 65.5t-13.5 93.5q0 47 12.5 98.5t37.5 100t61 88t83 63t104 23.5q28 0 52 -6.5t43 -17.5q2 14 5 27t7 29l18 80q3 14 5.5 27t2.5 24q0 25 -18 33
t-47 8h-13l2 10h184l-116 -545q-2 -11 -6 -32t-6.5 -43t-2.5 -36q0 -39 10 -59.5t32 -20.5q17 0 37 10t39 24l5 -8q-14 -13 -38 -27t-51 -23.5t-52 -9.5q-36 0 -57 22t-21 61q0 13 2.5 33t7.5 45h-3q-23 -51 -52 -87t-63.5 -55t-74.5 -19zM205 17q24 0 47.5 17t44.5 44
t36.5 58.5t21.5 60.5l67 312q-13 10 -34.5 17.5t-47.5 7.5q-40 0 -72.5 -24.5t-57.5 -65.5t-41.5 -89.5t-25 -97t-8.5 -88.5q0 -55 9 -88t25 -48.5t36 -15.5z" />
    <glyph glyph-name="Dcroat" unicode="&#x110;" horiz-adv-x="725" 
d="M56 370l2 10h366l-2 -10h-366zM-19 0l2 10h13q34 0 61 12.5t37 59.5l117 554q2 7 3 14.5t1 13.5q0 27 -22.5 33.5t-49.5 6.5h-13l2 10h280q135 0 209.5 -69.5t74.5 -202.5q0 -71 -16.5 -137t-49.5 -121.5t-81.5 -96.5t-111.5 -64t-141 -23h-315zM265 11q60 0 110.5 21
t89.5 60t66.5 93.5t41.5 122t14 145.5q0 87 -20.5 142.5t-61 82t-100.5 26.5h-79l-148 -693h87z" />
    <glyph glyph-name="dcroat" unicode="&#x111;" horiz-adv-x="580" 
d="M288 630l2 10h356l-2 -10h-356zM162 -10q-44 0 -73 24t-42.5 65.5t-13.5 93.5q0 47 12.5 98.5t37.5 100t61 88t83 63t104 23.5q28 0 52 -6.5t43 -17.5q2 14 5 27t7 29l18 80q3 14 5.5 27t2.5 24q0 25 -18 33t-47 8h-13l2 10h184l-116 -545q-2 -11 -6 -32t-6.5 -43
t-2.5 -36q0 -39 10 -59.5t32 -20.5q17 0 37 10t39 24l5 -8q-14 -13 -38 -27t-51 -23.5t-52 -9.5q-36 0 -57 22t-21 61q0 13 2.5 33t7.5 45h-3q-23 -51 -52 -87t-63.5 -55t-74.5 -19zM205 17q24 0 47.5 17t44.5 44t36.5 58.5t21.5 60.5l67 312q-13 10 -34.5 17.5t-47.5 7.5
q-40 0 -72.5 -24.5t-57.5 -65.5t-41.5 -89.5t-25 -97t-8.5 -88.5q0 -55 9 -88t25 -48.5t36 -15.5z" />
    <glyph glyph-name="Emacron" unicode="&#x112;" horiz-adv-x="621" 
d="M-19 0l2 10h13q33 0 59.5 11t36.5 56l118 555q2 7 2.5 13t0.5 11q0 32 -20.5 40t-49.5 8h-13l2 10h504l-32 -175h-10q1 5 2 16t2.5 24t1.5 22q0 28 -4.5 51t-22.5 37.5t-57 14.5h-190l-69 -325h241l-2 -10h-241l-76 -359h216q33 0 56 9.5t39 26t27 38.5t20 48l14 43h10
l-44 -175h-536zM295 808l4 20h290l-4 -20h-290z" />
    <glyph glyph-name="emacron" unicode="&#x113;" horiz-adv-x="479" 
d="M233 -10q-53 0 -97.5 23t-71 68.5t-26.5 115.5q0 44 12.5 92.5t36.5 94t60 82.5t83.5 58.5t105.5 21.5q63 0 98 -30.5t35 -84.5q0 -48 -37.5 -89.5t-102.5 -67.5t-147 -26h-35q-1 -9 -2.5 -19t-2 -20.5t-0.5 -19.5q0 -60 11.5 -102.5t34 -64.5t54.5 -22q57 0 91 35t52 90
q10 -3 15.5 -10.5t5.5 -19.5q0 -19 -18.5 -44t-56.5 -43t-98 -18zM176 258q44 0 79.5 12.5t60 36t37.5 57t13 74.5q0 47 -14 72t-40 25q-30 0 -56 -24.5t-47 -65.5t-36 -90t-24 -97h27zM195 630l4 20h290l-4 -20h-290z" />
    <glyph glyph-name="Ebreve" unicode="&#x114;" horiz-adv-x="621" 
d="M-19 0l2 10h13q33 0 59.5 11t36.5 56l118 555q2 7 2.5 13t0.5 11q0 32 -20.5 40t-49.5 8h-13l2 10h504l-32 -175h-10q1 5 2 16t2.5 24t1.5 22q0 28 -4.5 51t-22.5 37.5t-57 14.5h-190l-69 -325h241l-2 -10h-241l-76 -359h216q33 0 56 9.5t39 26t27 38.5t20 48l14 43h10
l-44 -175h-536zM430 784q-60 0 -91 35.5t-35 101.5h10q5 -34 38 -51t85 -17q33 0 60 7t48.5 22t35.5 39h10q-9 -37 -30.5 -68.5t-54 -50t-76.5 -18.5z" />
    <glyph glyph-name="ebreve" unicode="&#x115;" horiz-adv-x="479" 
d="M233 -10q-53 0 -97.5 23t-71 68.5t-26.5 115.5q0 44 12.5 92.5t36.5 94t60 82.5t83.5 58.5t105.5 21.5q63 0 98 -30.5t35 -84.5q0 -48 -37.5 -89.5t-102.5 -67.5t-147 -26h-35q-1 -9 -2.5 -19t-2 -20.5t-0.5 -19.5q0 -60 11.5 -102.5t34 -64.5t54.5 -22q57 0 91 35t52 90
q10 -3 15.5 -10.5t5.5 -19.5q0 -19 -18.5 -44t-56.5 -43t-98 -18zM176 258q44 0 79.5 12.5t60 36t37.5 57t13 74.5q0 47 -14 72t-40 25q-30 0 -56 -24.5t-47 -65.5t-36 -90t-24 -97h27zM330 606q-60 0 -91 35.5t-35 101.5h10q5 -34 38 -51t85 -17q33 0 60 7t48.5 22t35.5 39
h10q-9 -37 -30.5 -68.5t-54 -50t-76.5 -18.5z" />
    <glyph glyph-name="Edotaccent" unicode="&#x116;" horiz-adv-x="621" 
d="M-19 0l2 10h13q33 0 59.5 11t36.5 56l118 555q2 7 2.5 13t0.5 11q0 32 -20.5 40t-49.5 8h-13l2 10h504l-32 -175h-10q1 5 2 16t2.5 24t1.5 22q0 28 -4.5 51t-22.5 37.5t-57 14.5h-190l-69 -325h241l-2 -10h-241l-76 -359h216q33 0 56 9.5t39 26t27 38.5t20 48l14 43h10
l-44 -175h-536zM450 814q-20 0 -33 11.5t-13 38.5q0 22 6 36.5t17.5 21.5t26.5 7q20 0 33 -10.5t13 -39.5q0 -38 -16 -51.5t-34 -13.5z" />
    <glyph glyph-name="edotaccent" unicode="&#x117;" horiz-adv-x="479" 
d="M233 -10q-53 0 -97.5 23t-71 68.5t-26.5 115.5q0 44 12.5 92.5t36.5 94t60 82.5t83.5 58.5t105.5 21.5q63 0 98 -30.5t35 -84.5q0 -48 -37.5 -89.5t-102.5 -67.5t-147 -26h-35q-1 -9 -2.5 -19t-2 -20.5t-0.5 -19.5q0 -60 11.5 -102.5t34 -64.5t54.5 -22q57 0 91 35t52 90
q10 -3 15.5 -10.5t5.5 -19.5q0 -19 -18.5 -44t-56.5 -43t-98 -18zM176 258q44 0 79.5 12.5t60 36t37.5 57t13 74.5q0 47 -14 72t-40 25q-30 0 -56 -24.5t-47 -65.5t-36 -90t-24 -97h27zM350 636q-20 0 -33 11.5t-13 38.5q0 22 6 36.5t17.5 21.5t26.5 7q20 0 33 -10.5
t13 -39.5q0 -38 -16 -51.5t-34 -13.5z" />
    <glyph glyph-name="Eogonek" unicode="&#x118;" horiz-adv-x="621" 
d="M-19 0l2 10h13q33 0 59.5 11t36.5 56l118 555q2 7 2.5 13t0.5 11q0 32 -20.5 40t-49.5 8h-13l2 10h504l-32 -175h-10q1 5 2 16t2.5 24t1.5 22q0 28 -4.5 51t-22.5 37.5t-57 14.5h-190l-69 -325h241l-2 -10h-241l-76 -359h216q33 0 56 9.5t39 26t27 38.5t20 48l14 43h10
l-44 -175h-536zM376 -240q-55 0 -86 24.5t-31 67.5q0 28 12 51t35 41.5t54 32.5t68 23h20q-27 -11 -50.5 -29t-37.5 -49t-14 -83q0 -29 14 -47t41 -18q8 0 23.5 2.5t33.5 9.5l-2 -10q-17 -7 -37.5 -11.5t-42.5 -4.5z" />
    <glyph glyph-name="eogonek" unicode="&#x119;" horiz-adv-x="479" 
d="M233 -10q-53 0 -97.5 23t-71 68.5t-26.5 115.5q0 44 12.5 92.5t36.5 94t60 82.5t83.5 58.5t105.5 21.5q63 0 98 -30.5t35 -84.5q0 -48 -37.5 -89.5t-102.5 -67.5t-147 -26h-35q-1 -9 -2.5 -19t-2 -20.5t-0.5 -19.5q0 -60 11.5 -102.5t34 -64.5t54.5 -22q57 0 91 35t52 90
q10 -3 15.5 -10.5t5.5 -19.5q0 -19 -18.5 -44t-56.5 -43t-98 -18zM176 258q44 0 79.5 12.5t60 36t37.5 57t13 74.5q0 47 -14 72t-40 25q-30 0 -56 -24.5t-47 -65.5t-36 -90t-24 -97h27zM271 -225q-55 0 -86 24.5t-31 67.5q0 28 12 51t35 41.5t54 32.5t68 23h20
q-27 -11 -50.5 -29t-37.5 -49t-14 -83q0 -29 14 -47t41 -18q8 0 23.5 2.5t33.5 9.5l-2 -10q-17 -7 -37.5 -11.5t-42.5 -4.5z" />
    <glyph glyph-name="Ecaron" unicode="&#x11a;" horiz-adv-x="621" 
d="M-19 0l2 10h13q33 0 59.5 11t36.5 56l118 555q2 7 2.5 13t0.5 11q0 32 -20.5 40t-49.5 8h-13l2 10h504l-32 -175h-10q1 5 2 16t2.5 24t1.5 22q0 28 -4.5 51t-22.5 37.5t-57 14.5h-190l-69 -325h241l-2 -10h-241l-76 -359h216q33 0 56 9.5t39 26t27 38.5t20 48l14 43h10
l-44 -175h-536zM399 784q-8 25 -21.5 52t-28 53t-27.5 45l2 10h10q29 -20 59.5 -47t52.5 -54q23 18 51 36.5t57 35t55 29.5h10l-2 -10q-31 -29 -72 -70.5t-71 -79.5h-75z" />
    <glyph glyph-name="ecaron" unicode="&#x11b;" horiz-adv-x="479" 
d="M233 -10q-53 0 -97.5 23t-71 68.5t-26.5 115.5q0 44 12.5 92.5t36.5 94t60 82.5t83.5 58.5t105.5 21.5q63 0 98 -30.5t35 -84.5q0 -48 -37.5 -89.5t-102.5 -67.5t-147 -26h-35q-1 -9 -2.5 -19t-2 -20.5t-0.5 -19.5q0 -60 11.5 -102.5t34 -64.5t54.5 -22q57 0 91 35t52 90
q10 -3 15.5 -10.5t5.5 -19.5q0 -19 -18.5 -44t-56.5 -43t-98 -18zM176 258q44 0 79.5 12.5t60 36t37.5 57t13 74.5q0 47 -14 72t-40 25q-30 0 -56 -24.5t-47 -65.5t-36 -90t-24 -97h27zM299 606q-8 25 -21.5 52t-28 53t-27.5 45l2 10h10q29 -20 59.5 -47t52.5 -54
q23 18 51 36.5t57 35t55 29.5h10l-2 -10q-31 -29 -72 -70.5t-71 -79.5h-75z" />
    <glyph glyph-name="Gcircumflex" unicode="&#x11c;" horiz-adv-x="714" 
d="M345 -10q-141 0 -212.5 72t-71.5 196q0 77 20 147t57.5 128.5t90.5 101t119 66t143 23.5q53 0 93 -8.5t66 -23.5t39 -34.5t13 -41.5q0 -26 -13 -43.5t-34.5 -26.5t-48.5 -9q0 52 -8 91.5t-35 62.5t-83 23q-44 0 -84 -17.5t-74.5 -49.5t-62.5 -75.5t-48 -96.5t-30.5 -112
t-10.5 -121q0 -71 14.5 -126t53 -85.5t109.5 -30.5q33 0 65 4t54 10l50 238q2 6 3 15t1 13q0 26 -21.5 33t-50.5 7h-9l2 10h266l-2 -10h-4q-18 0 -35 -5t-30 -20t-20 -47l-45 -212q-55 -23 -108 -34.5t-118 -11.5zM349 794q21 20 48 46t53 53.5t42 50.5h75q7 -23 20 -50.5
t28.5 -53.5t28.5 -46l-2 -10h-10q-31 18 -60.5 45.5t-51.5 54.5q-23 -18 -51 -36.5t-56.5 -35t-55.5 -28.5h-10z" />
    <glyph glyph-name="gcircumflex" unicode="&#x11d;" horiz-adv-x="556" 
d="M170 -240q-73 0 -121.5 14.5t-72.5 43t-24 70.5q0 40 23.5 68.5t66.5 44.5t102 17q-45 15 -61 37.5t-16 47.5q0 30 26 58t81 38q-40 15 -61 47t-21 77q0 35 14 74t42.5 73t72.5 55t103 21q30 0 56.5 -7.5t46.5 -24.5q13 20 29.5 36t36.5 25.5t42 9.5q25 0 37.5 -13
t12.5 -33q0 -22 -12.5 -42t-46.5 -20q0 24 -9.5 40.5t-32.5 16.5q-13 0 -26 -7t-23 -19q17 -19 26.5 -42.5t9.5 -52.5q0 -34 -13.5 -72.5t-41.5 -73t-71.5 -56.5t-102.5 -22q-10 0 -20 0.5t-19.5 2.5t-18.5 4q-28 -10 -42.5 -24t-14.5 -36q0 -20 19 -28t50 -11l90 -9
q50 -5 84.5 -20.5t52.5 -43t18 -67.5q0 -45 -17 -81.5t-51 -62t-84.5 -39.5t-118.5 -14zM172 -230q67 0 106.5 21.5t57.5 55.5t18 71q0 41 -22 61t-71 24l-102 10q-51 -6 -88.5 -34.5t-37.5 -82.5q0 -55 30 -90.5t109 -35.5zM248 199q28 0 49.5 14.5t37 39t25.5 54.5t15 61
t5 58q0 37 -6.5 61.5t-19.5 36.5t-33 12q-30 0 -52.5 -14.5t-38.5 -38.5t-26.5 -53t-15 -58t-4.5 -53q0 -64 17 -92t47 -28zM192 616q21 20 48 46t53 53.5t42 50.5h75q7 -23 20 -50.5t28.5 -53.5t28.5 -46l-2 -10h-10q-31 18 -60.5 45.5t-51.5 54.5q-23 -18 -51 -36.5
t-56.5 -35t-55.5 -28.5h-10z" />
    <glyph glyph-name="Gbreve" unicode="&#x11e;" horiz-adv-x="714" 
d="M345 -10q-141 0 -212.5 72t-71.5 196q0 77 20 147t57.5 128.5t90.5 101t119 66t143 23.5q53 0 93 -8.5t66 -23.5t39 -34.5t13 -41.5q0 -26 -13 -43.5t-34.5 -26.5t-48.5 -9q0 52 -8 91.5t-35 62.5t-83 23q-44 0 -84 -17.5t-74.5 -49.5t-62.5 -75.5t-48 -96.5t-30.5 -112
t-10.5 -121q0 -71 14.5 -126t53 -85.5t109.5 -30.5q33 0 65 4t54 10l50 238q2 6 3 15t1 13q0 26 -21.5 33t-50.5 7h-9l2 10h266l-2 -10h-4q-18 0 -35 -5t-30 -20t-20 -47l-45 -212q-55 -23 -108 -34.5t-118 -11.5zM490 784q-60 0 -91 35.5t-35 101.5h10q5 -34 38 -51t85 -17
q33 0 60 7t48.5 22t35.5 39h10q-9 -37 -30.5 -68.5t-54 -50t-76.5 -18.5z" />
    <glyph glyph-name="gbreve" unicode="&#x11f;" horiz-adv-x="556" 
d="M170 -240q-73 0 -121.5 14.5t-72.5 43t-24 70.5q0 40 23.5 68.5t66.5 44.5t102 17q-45 15 -61 37.5t-16 47.5q0 30 26 58t81 38q-40 15 -61 47t-21 77q0 35 14 74t42.5 73t72.5 55t103 21q30 0 56.5 -7.5t46.5 -24.5q13 20 29.5 36t36.5 25.5t42 9.5q25 0 37.5 -13
t12.5 -33q0 -22 -12.5 -42t-46.5 -20q0 24 -9.5 40.5t-32.5 16.5q-13 0 -26 -7t-23 -19q17 -19 26.5 -42.5t9.5 -52.5q0 -34 -13.5 -72.5t-41.5 -73t-71.5 -56.5t-102.5 -22q-10 0 -20 0.5t-19.5 2.5t-18.5 4q-28 -10 -42.5 -24t-14.5 -36q0 -20 19 -28t50 -11l90 -9
q50 -5 84.5 -20.5t52.5 -43t18 -67.5q0 -45 -17 -81.5t-51 -62t-84.5 -39.5t-118.5 -14zM172 -230q67 0 106.5 21.5t57.5 55.5t18 71q0 41 -22 61t-71 24l-102 10q-51 -6 -88.5 -34.5t-37.5 -82.5q0 -55 30 -90.5t109 -35.5zM248 199q28 0 49.5 14.5t37 39t25.5 54.5t15 61
t5 58q0 37 -6.5 61.5t-19.5 36.5t-33 12q-30 0 -52.5 -14.5t-38.5 -38.5t-26.5 -53t-15 -58t-4.5 -53q0 -64 17 -92t47 -28zM333 606q-60 0 -91 35.5t-35 101.5h10q5 -34 38 -51t85 -17q33 0 60 7t48.5 22t35.5 39h10q-9 -37 -30.5 -68.5t-54 -50t-76.5 -18.5z" />
    <glyph glyph-name="Gdot" unicode="&#x120;" horiz-adv-x="714" 
d="M345 -10q-141 0 -212.5 72t-71.5 196q0 77 20 147t57.5 128.5t90.5 101t119 66t143 23.5q53 0 93 -8.5t66 -23.5t39 -34.5t13 -41.5q0 -26 -13 -43.5t-34.5 -26.5t-48.5 -9q0 52 -8 91.5t-35 62.5t-83 23q-44 0 -84 -17.5t-74.5 -49.5t-62.5 -75.5t-48 -96.5t-30.5 -112
t-10.5 -121q0 -71 14.5 -126t53 -85.5t109.5 -30.5q33 0 65 4t54 10l50 238q2 6 3 15t1 13q0 26 -21.5 33t-50.5 7h-9l2 10h266l-2 -10h-4q-18 0 -35 -5t-30 -20t-20 -47l-45 -212q-55 -23 -108 -34.5t-118 -11.5zM510 814q-20 0 -33 11.5t-13 38.5q0 22 6 36.5t17.5 21.5
t26.5 7q20 0 33 -10.5t13 -39.5q0 -38 -16 -51.5t-34 -13.5z" />
    <glyph glyph-name="gdot" unicode="&#x121;" horiz-adv-x="556" 
d="M170 -240q-73 0 -121.5 14.5t-72.5 43t-24 70.5q0 40 23.5 68.5t66.5 44.5t102 17q-45 15 -61 37.5t-16 47.5q0 30 26 58t81 38q-40 15 -61 47t-21 77q0 35 14 74t42.5 73t72.5 55t103 21q30 0 56.5 -7.5t46.5 -24.5q13 20 29.5 36t36.5 25.5t42 9.5q25 0 37.5 -13
t12.5 -33q0 -22 -12.5 -42t-46.5 -20q0 24 -9.5 40.5t-32.5 16.5q-13 0 -26 -7t-23 -19q17 -19 26.5 -42.5t9.5 -52.5q0 -34 -13.5 -72.5t-41.5 -73t-71.5 -56.5t-102.5 -22q-10 0 -20 0.5t-19.5 2.5t-18.5 4q-28 -10 -42.5 -24t-14.5 -36q0 -20 19 -28t50 -11l90 -9
q50 -5 84.5 -20.5t52.5 -43t18 -67.5q0 -45 -17 -81.5t-51 -62t-84.5 -39.5t-118.5 -14zM172 -230q67 0 106.5 21.5t57.5 55.5t18 71q0 41 -22 61t-71 24l-102 10q-51 -6 -88.5 -34.5t-37.5 -82.5q0 -55 30 -90.5t109 -35.5zM248 199q28 0 49.5 14.5t37 39t25.5 54.5t15 61
t5 58q0 37 -6.5 61.5t-19.5 36.5t-33 12q-30 0 -52.5 -14.5t-38.5 -38.5t-26.5 -53t-15 -58t-4.5 -53q0 -64 17 -92t47 -28zM353 636q-20 0 -33 11.5t-13 38.5q0 22 6 36.5t17.5 21.5t26.5 7q20 0 33 -10.5t13 -39.5q0 -38 -16 -51.5t-34 -13.5z" />
    <glyph glyph-name="uni0122" unicode="&#x122;" horiz-adv-x="714" 
d="M345 -10q-141 0 -212.5 72t-71.5 196q0 77 20 147t57.5 128.5t90.5 101t119 66t143 23.5q53 0 93 -8.5t66 -23.5t39 -34.5t13 -41.5q0 -26 -13 -43.5t-34.5 -26.5t-48.5 -9q0 52 -8 91.5t-35 62.5t-83 23q-44 0 -84 -17.5t-74.5 -49.5t-62.5 -75.5t-48 -96.5t-30.5 -112
t-10.5 -121q0 -71 14.5 -126t53 -85.5t109.5 -30.5q33 0 65 4t54 10l50 238q2 6 3 15t1 13q0 26 -21.5 33t-50.5 7h-9l2 10h266l-2 -10h-4q-18 0 -35 -5t-30 -20t-20 -47l-45 -212q-55 -23 -108 -34.5t-118 -11.5zM217 -213q22 43 37.5 78t29.5 74h75l-2 -10
q-15 -21 -36.5 -46.5t-46 -52t-49.5 -51.5h-10z" />
    <glyph glyph-name="uni0123" unicode="&#x123;" horiz-adv-x="556" 
d="M300 616q15 21 36.5 46.5t46 52.5t49.5 51h10l-3 -14q-21 -38 -36.5 -72.5t-29.5 -73.5h-75zM170 -240q-73 0 -121.5 14.5t-72.5 43t-24 70.5q0 40 23.5 68.5t66.5 44.5t102 17q-45 15 -61 37.5t-16 47.5q0 30 26 58t81 38q-40 15 -61 47t-21 77q0 35 14 74t42.5 73
t72.5 55t103 21q30 0 56.5 -7.5t46.5 -24.5q13 20 29.5 36t36.5 25.5t42 9.5q25 0 37.5 -13t12.5 -33q0 -22 -12.5 -42t-46.5 -20q0 24 -9.5 40.5t-32.5 16.5q-13 0 -26 -7t-23 -19q17 -19 26.5 -42.5t9.5 -52.5q0 -34 -13.5 -72.5t-41.5 -73t-71.5 -56.5t-102.5 -22
q-10 0 -20 0.5t-19.5 2.5t-18.5 4q-28 -10 -42.5 -24t-14.5 -36q0 -20 19 -28t50 -11l90 -9q50 -5 84.5 -20.5t52.5 -43t18 -67.5q0 -45 -17 -81.5t-51 -62t-84.5 -39.5t-118.5 -14zM172 -230q67 0 106.5 21.5t57.5 55.5t18 71q0 41 -22 61t-71 24l-102 10
q-51 -6 -88.5 -34.5t-37.5 -82.5q0 -55 30 -90.5t109 -35.5zM248 199q28 0 49.5 14.5t37 39t25.5 54.5t15 61t5 58q0 37 -6.5 61.5t-19.5 36.5t-33 12q-30 0 -52.5 -14.5t-38.5 -38.5t-26.5 -53t-15 -58t-4.5 -53q0 -64 17 -92t47 -28z" />
    <glyph glyph-name="Hcircumflex" unicode="&#x124;" horiz-adv-x="775" 
d="M-19 0l2 10h13q34 0 61 12.5t37 59.5l117 554q2 6 3 15t1 13q0 17 -9 25.5t-25.5 11.5t-37.5 3h-13l2 10h291l-2 -10h-13q-34 0 -60.5 -12.5t-36.5 -59.5l-54 -254h325l55 258q2 6 3 15t1 13q0 26 -20 33t-52 7h-13l2 10h291l-2 -10h-13q-34 0 -60.5 -12.5t-36.5 -59.5
l-117 -554q-1 -6 -2.5 -14.5t-1.5 -13.5q0 -17 9.5 -25.5t25.5 -11.5t37 -3h12l-2 -10h-291l2 10h13q34 0 61 12.5t37 59.5l59 286h-325l-60 -290q-1 -6 -2.5 -14.5t-1.5 -13.5q0 -25 20.5 -32.5t51.5 -7.5h13l-3 -10h-291zM369 794q21 20 48 46t53 53.5t42 50.5h75
q7 -23 20 -50.5t28.5 -53.5t28.5 -46l-2 -10h-10q-31 18 -60.5 45.5t-51.5 54.5q-23 -18 -51 -36.5t-56.5 -35t-55.5 -28.5h-10z" />
    <glyph glyph-name="hcircumflex" unicode="&#x125;" horiz-adv-x="595" 
d="M456 -10q-44 0 -67.5 28.5t-23.5 71.5q0 24 4.5 56.5t14.5 78.5l17 78q3 14 8 35.5t9 47t4 48.5q0 18 -4 37.5t-15.5 33t-34.5 13.5q-28 0 -55.5 -20t-50.5 -50t-38.5 -62.5t-20.5 -56.5l-70 -329h-93l137 650q5 20 7 34.5t2 18.5q0 30 -20.5 38.5t-49.5 8.5h-8l2 10h184
l-39 -184q-6 -27 -11.5 -52.5t-11 -48t-9.5 -39.5t-7 -26h4q28 44 57.5 74t62.5 45.5t71 15.5q40 0 63 -15.5t33.5 -40.5t10.5 -55q0 -25 -6.5 -54.5t-11.5 -55.5l-26 -118q-6 -28 -9.5 -55t-3.5 -50q0 -36 13 -55t39 -19q13 0 27.5 7.5t31.5 20.5l6 -8q-16 -13 -34.5 -26.5
t-40 -22t-47.5 -8.5zM280 808q21 20 48 46t53 53.5t42 50.5h75q7 -23 20 -50.5t28.5 -53.5t28.5 -46l-2 -10h-10q-31 18 -60.5 45.5t-51.5 54.5q-23 -18 -51 -36.5t-56.5 -35t-55.5 -28.5h-10z" />
    <glyph glyph-name="Hbar" unicode="&#x126;" horiz-adv-x="793" 
d="M89 520l2 10h717l-2 -10h-717zM-19 0l2 10h13q34 0 61 12.5t37 59.5l117 554q2 6 3 15t1 13q0 17 -9 25.5t-25.5 11.5t-37.5 3h-13l2 10h291l-2 -10h-13q-34 0 -60.5 -12.5t-36.5 -59.5l-54 -254h325l55 258q2 6 3 15t1 13q0 26 -20 33t-52 7h-13l2 10h291l-2 -10h-13
q-34 0 -60.5 -12.5t-36.5 -59.5l-117 -554q-1 -6 -2.5 -14.5t-1.5 -13.5q0 -17 9.5 -25.5t25.5 -11.5t37 -3h12l-2 -10h-291l2 10h13q34 0 61 12.5t37 59.5l59 286h-325l-60 -290q-1 -6 -2.5 -14.5t-1.5 -13.5q0 -25 20.5 -32.5t51.5 -7.5h13l-3 -10h-291z" />
    <glyph glyph-name="hbar" unicode="&#x127;" horiz-adv-x="599" 
d="M82 613l2 10h356l-2 -10h-356zM456 -10q-44 0 -67.5 28.5t-23.5 71.5q0 24 4.5 56.5t14.5 78.5l17 78q3 14 8 35.5t9 47t4 48.5q0 18 -4 37.5t-15.5 33t-34.5 13.5q-28 0 -55.5 -20t-50.5 -50t-38.5 -62.5t-20.5 -56.5l-70 -329h-93l137 650q5 20 7 34.5t2 18.5
q0 30 -20.5 38.5t-49.5 8.5h-8l2 10h184l-39 -184q-6 -27 -11.5 -52.5t-11 -48t-9.5 -39.5t-7 -26h4q28 44 57.5 74t62.5 45.5t71 15.5q40 0 63 -15.5t33.5 -40.5t10.5 -55q0 -25 -6.5 -54.5t-11.5 -55.5l-26 -118q-6 -28 -9.5 -55t-3.5 -50q0 -36 13 -55t39 -19
q13 0 27.5 7.5t31.5 20.5l6 -8q-16 -13 -34.5 -26.5t-40 -22t-47.5 -8.5z" />
    <glyph glyph-name="Itilde" unicode="&#x128;" horiz-adv-x="349" 
d="M-19 0l1 10h13q34 0 61 12.5t37 59.5l118 554q2 6 3 15t1 13q0 26 -20 33t-52 7h-13l2 10h291l-2 -10h-13q-34 0 -60.5 -12.5t-36.5 -59.5l-118 -554q-1 -6 -2.5 -14.5t-1.5 -13.5q0 -25 20.5 -32.5t51.5 -7.5h13l-2 -10h-291zM355 784q-29 0 -48 9.5t-35 22t-35.5 22
t-49.5 9.5q-22 0 -35 -7.5t-21 -19.5t-15 -26h-10q9 31 26 57.5t43 43.5t62 17q29 0 48 -9.5t35 -22t36 -22t50 -9.5q32 0 45.5 16.5t23.5 36.5h10q-8 -30 -25 -57t-43 -44t-62 -17z" />
    <glyph glyph-name="itilde" unicode="&#x129;" horiz-adv-x="300" 
d="M155 -10q-40 0 -61.5 29t-21.5 74q0 22 4 49t9 54t9 46l46 216q2 8 2.5 14.5t0.5 11.5q0 25 -15 33.5t-46 8.5h-13l2 10h179l-68 -321q-2 -11 -6 -32t-6.5 -43t-2.5 -36q0 -37 10.5 -55t32.5 -18t39 7.5t35 19.5l6 -8q-22 -19 -59.5 -39.5t-75.5 -20.5zM273 606
q-29 0 -48 9.5t-35 22t-35.5 22t-49.5 9.5q-22 0 -35 -7.5t-21 -19.5t-15 -26h-10q9 31 26 57.5t43 43.5t62 17q29 0 48 -9.5t35 -22t36 -22t50 -9.5q32 0 45.5 16.5t23.5 36.5h10q-8 -30 -25 -57t-43 -44t-62 -17z" />
    <glyph glyph-name="Imacron" unicode="&#x12a;" horiz-adv-x="349" 
d="M-19 0l1 10h13q34 0 61 12.5t37 59.5l118 554q2 6 3 15t1 13q0 26 -20 33t-52 7h-13l2 10h291l-2 -10h-13q-34 0 -60.5 -12.5t-36.5 -59.5l-118 -554q-1 -6 -2.5 -14.5t-1.5 -13.5q0 -25 20.5 -32.5t51.5 -7.5h13l-2 -10h-291zM147 808l4 20h290l-4 -20h-290z" />
    <glyph glyph-name="imacron" unicode="&#x12b;" horiz-adv-x="300" 
d="M155 -10q-40 0 -61.5 29t-21.5 74q0 22 4 49t9 54t9 46l46 216q2 8 2.5 14.5t0.5 11.5q0 25 -15 33.5t-46 8.5h-13l2 10h179l-68 -321q-2 -11 -6 -32t-6.5 -43t-2.5 -36q0 -37 10.5 -55t32.5 -18t39 7.5t35 19.5l6 -8q-22 -19 -59.5 -39.5t-75.5 -20.5zM65 630l4 20h290
l-4 -20h-290z" />
    <glyph glyph-name="Ibreve" unicode="&#x12c;" horiz-adv-x="349" 
d="M-19 0l1 10h13q34 0 61 12.5t37 59.5l118 554q2 6 3 15t1 13q0 26 -20 33t-52 7h-13l2 10h291l-2 -10h-13q-34 0 -60.5 -12.5t-36.5 -59.5l-118 -554q-1 -6 -2.5 -14.5t-1.5 -13.5q0 -25 20.5 -32.5t51.5 -7.5h13l-2 -10h-291zM282 784q-60 0 -91 35.5t-35 101.5h10
q5 -34 38 -51t85 -17q33 0 60 7t48.5 22t35.5 39h10q-9 -37 -30.5 -68.5t-54 -50t-76.5 -18.5z" />
    <glyph glyph-name="ibreve" unicode="&#x12d;" horiz-adv-x="300" 
d="M155 -10q-40 0 -61.5 29t-21.5 74q0 22 4 49t9 54t9 46l46 216q2 8 2.5 14.5t0.5 11.5q0 25 -15 33.5t-46 8.5h-13l2 10h179l-68 -321q-2 -11 -6 -32t-6.5 -43t-2.5 -36q0 -37 10.5 -55t32.5 -18t39 7.5t35 19.5l6 -8q-22 -19 -59.5 -39.5t-75.5 -20.5zM200 606
q-60 0 -91 35.5t-35 101.5h10q5 -34 38 -51t85 -17q33 0 60 7t48.5 22t35.5 39h10q-9 -37 -30.5 -68.5t-54 -50t-76.5 -18.5z" />
    <glyph glyph-name="Iogonek" unicode="&#x12e;" horiz-adv-x="349" 
d="M-19 0l1 10h13q34 0 61 12.5t37 59.5l118 554q2 6 3 15t1 13q0 26 -20 33t-52 7h-13l2 10h291l-2 -10h-13q-34 0 -60.5 -12.5t-36.5 -59.5l-118 -554q-1 -6 -2.5 -14.5t-1.5 -13.5q0 -25 20.5 -32.5t51.5 -7.5h13l-2 -10h-291zM140 -240q-55 0 -86 24.5t-31 67.5
q0 28 12 51t35 41.5t54 32.5t68 23h20q-27 -11 -50.5 -29t-37.5 -49t-14 -83q0 -29 14 -47t41 -18q8 0 23.5 2.5t33.5 9.5l-2 -10q-17 -7 -37.5 -11.5t-42.5 -4.5z" />
    <glyph glyph-name="iogonek" unicode="&#x12f;" horiz-adv-x="302" 
d="M151 -10q-40 0 -61.5 29t-21.5 74q0 22 4 49t9 54t9 46l46 216q2 8 2.5 14.5t0.5 11.5q0 27 -16.5 34.5t-44.5 7.5h-13l2 10h179l-68 -321q-2 -11 -6 -32t-6.5 -43t-2.5 -36q0 -37 10.5 -55t32.5 -18t39 7.5t35 19.5l6 -8q-22 -19 -59.5 -39.5t-75.5 -20.5zM220 636
q-20 0 -33 11.5t-13 38.5q0 22 6 36.5t17.5 21.5t26.5 7q20 0 33 -10.5t13 -39.5q0 -38 -16 -51.5t-34 -13.5zM117 -240q-55 0 -86 24.5t-31 67.5q0 28 12 51t35 41.5t54 32.5t68 23h20q-27 -11 -50.5 -29t-37.5 -49t-14 -83q0 -29 14 -47t41 -18q8 0 23.5 2.5t33.5 9.5
l-2 -10q-17 -7 -37.5 -11.5t-42.5 -4.5z" />
    <glyph glyph-name="Idotaccent" unicode="&#x130;" horiz-adv-x="349" 
d="M-19 0l1 10h13q34 0 61 12.5t37 59.5l118 554q2 6 3 15t1 13q0 26 -20 33t-52 7h-13l2 10h291l-2 -10h-13q-34 0 -60.5 -12.5t-36.5 -59.5l-118 -554q-1 -6 -2.5 -14.5t-1.5 -13.5q0 -25 20.5 -32.5t51.5 -7.5h13l-2 -10h-291zM298 801q-20 0 -33 11.5t-13 38.5
q0 22 6 36.5t17.5 21.5t26.5 7q20 0 33 -10.5t13 -39.5q0 -38 -16 -51.5t-34 -13.5z" />
    <glyph glyph-name="dotlessi" unicode="&#x131;" horiz-adv-x="300" 
d="M155 -10q-40 0 -61.5 29t-21.5 74q0 22 4 49t9 54t9 46l46 216q2 8 2.5 14.5t0.5 11.5q0 25 -15 33.5t-46 8.5h-13l2 10h179l-68 -321q-2 -11 -6 -32t-6.5 -43t-2.5 -36q0 -37 10.5 -55t32.5 -18t39 7.5t35 19.5l6 -8q-22 -19 -59.5 -39.5t-75.5 -20.5z" />
    <glyph glyph-name="IJ" unicode="&#x132;" horiz-adv-x="706" 
d="M-19 0l1 10h13q34 0 61 12.5t37 59.5l118 554q2 6 3 15t1 13q0 26 -20 33t-52 7h-13l2 10h291l-2 -10h-13q-34 0 -60.5 -12.5t-36.5 -59.5l-118 -554q-1 -6 -2.5 -14.5t-1.5 -13.5q0 -25 20.5 -32.5t51.5 -7.5h13l-2 -10h-291zM276 -240q-27 0 -45.5 3t-36.5 8l3 10
q13 -4 31.5 -6.5t33.5 -2.5q37 0 66 19.5t50.5 67.5t37.5 132l137 645q2 6 3 15t1 13q0 26 -20 33t-52 7h-13l2 10h291l-2 -10h-13q-34 0 -60 -12.5t-37 -59.5l-137 -640q-17 -79 -47 -130.5t-77.5 -76.5t-115.5 -25z" />
    <glyph glyph-name="ij" unicode="&#x133;" horiz-adv-x="593" 
d="M151 -10q-40 0 -61.5 29t-21.5 74q0 22 4 49t9 54t9 46l46 216q2 8 2.5 14.5t0.5 11.5q0 27 -16.5 34.5t-44.5 7.5h-13l2 10h179l-68 -321q-2 -11 -6 -32t-6.5 -43t-2.5 -36q0 -37 10.5 -55t32.5 -18t39 7.5t35 19.5l6 -8q-22 -19 -59.5 -39.5t-75.5 -20.5zM220 636
q-20 0 -33 11.5t-13 38.5q0 22 6 36.5t17.5 21.5t26.5 7q20 0 33 -10.5t13 -39.5q0 -38 -16 -51.5t-34 -13.5zM220 -240q-15 0 -31.5 2.5t-26.5 5.5l2 10q8 -2 21.5 -4.5t24.5 -2.5q35 0 59.5 22t42 71t32.5 128l99 466q2 8 2.5 14.5t0.5 11.5q0 27 -16.5 34.5t-44.5 7.5
h-13l2 10h179l-115 -544q-19 -89 -49.5 -139.5t-72.5 -71.5t-96 -21zM527 636q-20 0 -33 11t-13 39q0 22 6 36.5t17.5 21.5t26.5 7q20 0 33 -10.5t13 -39.5q0 -40 -16 -52.5t-34 -12.5z" />
    <glyph glyph-name="Jcircumflex" unicode="&#x134;" horiz-adv-x="357" 
d="M-73 -240q-27 0 -45.5 3t-36.5 8l3 10q13 -4 31.5 -6.5t33.5 -2.5q37 0 66 19.5t50.5 67.5t37.5 132l137 645q2 6 3 15t1 13q0 26 -20 33t-52 7h-13l2 10h291l-2 -10h-13q-34 0 -60 -12.5t-37 -59.5l-137 -640q-17 -79 -47 -130.5t-77.5 -76.5t-115.5 -25zM144 794
q21 20 48 46t53 53.5t42 50.5h75q7 -23 20 -50.5t28.5 -53.5t28.5 -46l-2 -10h-10q-31 18 -60.5 45.5t-51.5 54.5q-23 -18 -51 -36.5t-56.5 -35t-55.5 -28.5h-10z" />
    <glyph glyph-name="jcircumflex" unicode="&#x135;" horiz-adv-x="291" 
d="M-82 -240q-15 0 -31.5 2.5t-26.5 5.5l2 10q8 -2 21.5 -4.5t24.5 -2.5q35 0 59.5 22t42 71t32.5 128l99 466q2 8 2.5 14.5t0.5 11.5q0 27 -16.5 34.5t-44.5 7.5h-13l2 10h179l-115 -544q-19 -89 -49.5 -139.5t-72.5 -71.5t-96 -21zM53 616q21 20 48 46t53 53.5t42 50.5h75
q7 -23 20 -50.5t28.5 -53.5t28.5 -46l-2 -10h-10q-31 18 -60.5 45.5t-51.5 54.5q-23 -18 -51 -36.5t-56.5 -35t-55.5 -28.5h-10z" />
    <glyph glyph-name="uni0136" unicode="&#x136;" horiz-adv-x="702" 
d="M-19 0l2 10h13q23 0 42.5 5t34.5 20.5t21 46.5l117 554q2 6 3 15t1 13q0 26 -20 33t-52 7h-13l2 10h291l-2 -10h-13q-22 0 -41.5 -5t-34 -20t-21.5 -47l-74 -338l317 291q32 30 46 47.5t14 37.5q0 13 -8 20t-25.5 10.5t-45.5 3.5l2 10h221l-2 -10q-16 0 -34 -6
t-37.5 -17.5t-39.5 -27t-40 -34.5l-231 -216l31 41l133 -322q15 -36 27 -61t26 -38t35 -13h3l-2 -10h-14q-45 0 -75 5t-49.5 15.5t-32 28.5t-23.5 44l-108 272l37 24l-128 -110l-40 -201q-1 -6 -2.5 -14.5t-1.5 -13.5q0 -25 20.5 -32.5t51.5 -7.5h12l-2 -10h-291zM193 -213
q22 43 37.5 78t29.5 74h75l-2 -10q-15 -21 -36.5 -46.5t-46 -52t-49.5 -51.5h-10z" />
    <glyph glyph-name="uni0137" unicode="&#x137;" horiz-adv-x="576" 
d="M511 -7q-54 1 -86.5 9t-53 29.5t-40.5 63.5l-87 181l18 12l-84 -72l-45 -216h-93l137 650q5 20 7 33t2 20q0 30 -20.5 38.5t-49.5 8.5h-8l2 10h184l-39 -184q-5 -23 -12.5 -58.5t-16.5 -77t-18 -82t-16 -74t-11 -52.5l206 178q43 37 58 54t15 34q0 13 -17.5 20.5
t-70.5 7.5l2 10h221l-2 -10q-40 0 -82 -30t-95 -75l-144 -124l39 39l112 -217q19 -35 31.5 -61.5t27.5 -40.5t38 -14l-2 -10h-7zM122 -213q22 43 37.5 78t29.5 74h75l-2 -10q-15 -21 -36.5 -46.5t-46 -52t-49.5 -51.5h-10z" />
    <glyph glyph-name="kgreenlandic" unicode="&#x138;" horiz-adv-x="580" 
d="M515 -7q-54 1 -86.5 9t-53 29.5t-40.5 63.5l-87 181l18 12l-84 -72l-45 -216h-93l90 426q5 20 7 33t2 20q0 30 -20.5 38.5t-49.5 8.5h-8l2 10h184l-39 -184l-6 -28t-6 -28.5t-6.5 -30t-8.5 -33.5l206 178q43 37 58 54t15 34q0 9 -7 15t-26 9.5t-55 3.5l2 10h221l-2 -10
q-26 0 -53.5 -14t-58 -37.5t-65.5 -53.5l-144 -124l39 39l110 -217q17 -32 32 -58.5t31 -42t36 -15.5l-2 -10h-7z" />
    <glyph glyph-name="Lacute" unicode="&#x139;" horiz-adv-x="620" 
d="M-18 0l2 10h13q22 0 41.5 5t34 20.5t20.5 46.5l118 554q2 6 3 15t1 13q0 26 -20 33t-52 7h-13l2 10h291l-2 -10h-13q-33 0 -59.5 -11.5t-36.5 -56.5l-134 -626h219q39 0 66.5 18t45.5 48t28 64l22 75h10l-52 -215h-535zM251 784q17 22 35 48t35 53t30 49h93l-3 -10
q-12 -13 -33.5 -32t-47 -40.5t-51.5 -42t-48 -35.5h-12z" />
    <glyph glyph-name="lacute" unicode="&#x13a;" horiz-adv-x="306" 
d="M156 -10q-40 0 -61.5 28t-21.5 67q0 21 4 50t9 58.5t9 48.5l89 416q3 14 4.5 27.5t1.5 17.5q0 30 -20.5 38.5t-49.5 8.5h-12l2 10h189l-116 -545q-2 -11 -6 -32t-7 -43t-3 -36q0 -37 10 -55t36 -18q17 0 35 7.5t37 19.5l5 -8q-14 -13 -36 -27t-47.5 -23.5t-50.5 -9.5z
M222 809q17 22 35 48t35 53t30 49h93l-3 -10q-12 -13 -33.5 -32t-47 -40.5t-51.5 -42t-48 -35.5h-12z" />
    <glyph glyph-name="uni013B" unicode="&#x13b;" horiz-adv-x="620" 
d="M-18 0l2 10h13q22 0 41.5 5t34 20.5t20.5 46.5l118 554q2 6 3 15t1 13q0 26 -20 33t-52 7h-13l2 10h291l-2 -10h-13q-33 0 -59.5 -11.5t-36.5 -56.5l-134 -626h219q39 0 66.5 18t45.5 48t28 64l22 75h10l-52 -215h-535zM155 -213q22 43 37.5 78t29.5 74h75l-2 -10
q-15 -21 -36.5 -46.5t-46 -52t-49.5 -51.5h-10z" />
    <glyph glyph-name="uni013C" unicode="&#x13c;" horiz-adv-x="306" 
d="M156 -10q-40 0 -61.5 28t-21.5 67q0 21 4 50t9 58.5t9 48.5l89 416q3 14 4.5 27.5t1.5 17.5q0 30 -20.5 38.5t-49.5 8.5h-12l2 10h189l-116 -545q-2 -11 -6 -32t-7 -43t-3 -36q0 -37 10 -55t36 -18q17 0 35 7.5t37 19.5l5 -8q-14 -13 -36 -27t-47.5 -23.5t-50.5 -9.5z
M-7 -213q22 43 37.5 78t29.5 74h75l-2 -10q-15 -21 -36.5 -46.5t-46 -52t-49.5 -51.5h-10z" />
    <glyph glyph-name="Lcaron" unicode="&#x13d;" horiz-adv-x="628" 
d="M542 568q21 38 36.5 72.5t29.5 73.5h75l-2 -10q-15 -21 -36.5 -46.5t-46 -52t-49.5 -51.5h-10zM-18 0l2 10h13q22 0 41.5 5t34 20.5t20.5 46.5l118 554q2 6 3 15t1 13q0 26 -20 33t-52 7h-13l2 10h291l-2 -10h-13q-33 0 -59.5 -11.5t-36.5 -56.5l-134 -626h219
q39 0 66.5 18t45.5 48t28 64l22 75h10l-52 -215h-535z" />
    <glyph glyph-name="lcaron" unicode="&#x13e;" horiz-adv-x="306" 
d="M334 614q21 38 36.5 72.5t29.5 73.5h75l-2 -10q-15 -21 -36.5 -46.5t-46 -52t-49.5 -51.5h-10zM156 -10q-40 0 -61.5 28t-21.5 67q0 21 4 50t9 58.5t9 48.5l89 416q3 14 4.5 27.5t1.5 17.5q0 30 -20.5 38.5t-49.5 8.5h-12l2 10h189l-116 -545q-2 -11 -6 -32t-7 -43
t-3 -36q0 -37 10 -55t36 -18q17 0 35 7.5t37 19.5l5 -8q-14 -13 -36 -27t-47.5 -23.5t-50.5 -9.5z" />
    <glyph glyph-name="Ldot" unicode="&#x13f;" horiz-adv-x="620" 
d="M-18 0l2 10h13q22 0 41.5 5t34 20.5t20.5 46.5l118 554q2 6 3 15t1 13q0 26 -20 33t-52 7h-13l2 10h291l-2 -10h-13q-33 0 -59.5 -11.5t-36.5 -56.5l-134 -626h219q39 0 66.5 18t45.5 48t28 64l22 75h10l-52 -215h-535zM518 321q-20 0 -33 11.5t-13 38.5q0 22 6 36.5
t17.5 21.5t26.5 7q20 0 33 -10.5t13 -39.5q0 -38 -16 -51.5t-34 -13.5z" />
    <glyph glyph-name="ldot" unicode="&#x140;" horiz-adv-x="416" 
d="M156 -10q-40 0 -61.5 28t-21.5 67q0 21 4 50t9 58.5t9 48.5l89 416q3 14 4.5 27.5t1.5 17.5q0 30 -20.5 38.5t-49.5 8.5h-12l2 10h189l-116 -545q-2 -11 -6 -32t-7 -43t-3 -36q0 -37 10 -55t36 -18q17 0 35 7.5t37 19.5l5 -8q-14 -13 -36 -27t-47.5 -23.5t-50.5 -9.5z
M374 329q-20 0 -33 11.5t-13 38.5q0 22 6 36.5t17.5 21.5t26.5 7q20 0 33 -10.5t13 -39.5q0 -38 -16 -51.5t-34 -13.5z" />
    <glyph glyph-name="Lslash" unicode="&#x141;" horiz-adv-x="623" 
d="M31 252l2 10l395 204l-2 -10zM-18 0l2 10h13q22 0 41.5 5t34 20.5t20.5 46.5l118 554q2 6 3 15t1 13q0 26 -20 33t-52 7h-13l2 10h291l-2 -10h-13q-33 0 -59.5 -11.5t-36.5 -56.5l-134 -626h219q39 0 66.5 18t45.5 48t28 64l22 75h10l-52 -215h-535z" />
    <glyph glyph-name="lslash" unicode="&#x142;" horiz-adv-x="324" 
d="M13 253l2 10l306 157l-2 -10zM156 -10q-40 0 -61.5 28t-21.5 67q0 21 4 50t9 58.5t9 48.5l89 416q3 14 4.5 27.5t1.5 17.5q0 30 -20.5 38.5t-49.5 8.5h-12l2 10h189l-116 -545q-2 -11 -6 -32t-7 -43t-3 -36q0 -37 10 -55t36 -18q17 0 35 7.5t37 19.5l5 -8
q-14 -13 -36 -27t-47.5 -23.5t-50.5 -9.5z" />
    <glyph glyph-name="Nacute" unicode="&#x143;" horiz-adv-x="744" 
d="M-18 0l2 10h13q28 0 52 4.5t40.5 20t23.5 47.5l118 554q2 6 3 15t1 13q0 26 -25.5 33t-66.5 7h-13l2 10h195l255 -576l106 498q2 7 3 15.5t1 12.5q0 26 -29 33t-74 7h-13l2 10h251l-2 -10h-13q-27 0 -51 -4t-41.5 -19.5t-24.5 -48.5l-134 -632h-30l-288 652l-123 -574
q-1 -6 -2.5 -14.5t-1.5 -13.5q0 -25 29 -32.5t74 -7.5h13l-2 -10h-250zM452 784q17 22 35 48t35 53t30 49h93l-3 -10q-12 -13 -33.5 -32t-47 -40.5t-51.5 -42t-48 -35.5h-12z" />
    <glyph glyph-name="nacute" unicode="&#x144;" horiz-adv-x="601" 
d="M462 -10q-44 0 -67.5 28.5t-23.5 71.5q0 24 4.5 56.5t14.5 78.5l17 78q3 14 8 35.5t9 45.5t4 45q0 17 -4 36t-17.5 33t-40.5 14t-52.5 -18t-46.5 -44t-34.5 -50t-15.5 -36l-78 -364h-93l91 434q3 14 4.5 27.5t1.5 17.5q0 30 -20.5 38.5t-49.5 8.5h-8l2 10h185l-27 -126h2
q28 44 57 74t62 45.5t71 15.5q40 0 63 -15.5t33.5 -40.5t10.5 -55q0 -25 -6.5 -54.5t-11.5 -55.5l-26 -118q-6 -28 -9.5 -56.5t-3.5 -54.5q0 -31 11 -48.5t36 -17.5q11 0 21.5 3t21 8.5t21.5 14.5l6 -8q-24 -20 -53.5 -38.5t-68.5 -18.5zM332 606q17 22 35 48t35 53t30 49
h93l-3 -10q-12 -13 -33.5 -32t-47 -40.5t-51.5 -42t-48 -35.5h-12z" />
    <glyph glyph-name="uni0145" unicode="&#x145;" horiz-adv-x="744" 
d="M-18 0l2 10h13q28 0 52 4.5t40.5 20t23.5 47.5l118 554q2 6 3 15t1 13q0 26 -25.5 33t-66.5 7h-13l2 10h195l255 -576l106 498q2 7 3 15.5t1 12.5q0 26 -29 33t-74 7h-13l2 10h251l-2 -10h-13q-27 0 -51 -4t-41.5 -19.5t-24.5 -48.5l-134 -632h-30l-288 652l-123 -574
q-1 -6 -2.5 -14.5t-1.5 -13.5q0 -25 29 -32.5t74 -7.5h13l-2 -10h-250zM225 -213q22 43 37.5 78t29.5 74h75l-2 -10q-15 -21 -36.5 -46.5t-46 -52t-49.5 -51.5h-10z" />
    <glyph glyph-name="uni0146" unicode="&#x146;" horiz-adv-x="601" 
d="M462 -10q-44 0 -67.5 28.5t-23.5 71.5q0 24 4.5 56.5t14.5 78.5l17 78q3 14 8 35.5t9 45.5t4 45q0 17 -4 36t-17.5 33t-40.5 14t-52.5 -18t-46.5 -44t-34.5 -50t-15.5 -36l-78 -364h-93l91 434q3 14 4.5 27.5t1.5 17.5q0 30 -20.5 38.5t-49.5 8.5h-8l2 10h185l-27 -126h2
q28 44 57 74t62 45.5t71 15.5q40 0 63 -15.5t33.5 -40.5t10.5 -55q0 -25 -6.5 -54.5t-11.5 -55.5l-26 -118q-6 -28 -9.5 -56.5t-3.5 -54.5q0 -31 11 -48.5t36 -17.5q11 0 21.5 3t21 8.5t21.5 14.5l6 -8q-24 -20 -53.5 -38.5t-68.5 -18.5zM143 -213q22 43 37.5 78t29.5 74h75
l-2 -10q-15 -21 -36.5 -46.5t-46 -52t-49.5 -51.5h-10z" />
    <glyph glyph-name="Ncaron" unicode="&#x147;" horiz-adv-x="744" 
d="M-18 0l2 10h13q28 0 52 4.5t40.5 20t23.5 47.5l118 554q2 6 3 15t1 13q0 26 -25.5 33t-66.5 7h-13l2 10h195l255 -576l106 498q2 7 3 15.5t1 12.5q0 26 -29 33t-74 7h-13l2 10h251l-2 -10h-13q-27 0 -51 -4t-41.5 -19.5t-24.5 -48.5l-134 -632h-30l-288 652l-123 -574
q-1 -6 -2.5 -14.5t-1.5 -13.5q0 -25 29 -32.5t74 -7.5h13l-2 -10h-250zM459 784q-8 25 -21.5 52t-28 53t-27.5 45l2 10h10q29 -20 59.5 -47t52.5 -54q23 18 51 36.5t57 35t55 29.5h10l-2 -10q-31 -29 -72 -70.5t-71 -79.5h-75z" />
    <glyph glyph-name="ncaron" unicode="&#x148;" horiz-adv-x="601" 
d="M462 -10q-44 0 -67.5 28.5t-23.5 71.5q0 24 4.5 56.5t14.5 78.5l17 78q3 14 8 35.5t9 45.5t4 45q0 17 -4 36t-17.5 33t-40.5 14t-52.5 -18t-46.5 -44t-34.5 -50t-15.5 -36l-78 -364h-93l91 434q3 14 4.5 27.5t1.5 17.5q0 30 -20.5 38.5t-49.5 8.5h-8l2 10h185l-27 -126h2
q28 44 57 74t62 45.5t71 15.5q40 0 63 -15.5t33.5 -40.5t10.5 -55q0 -25 -6.5 -54.5t-11.5 -55.5l-26 -118q-6 -28 -9.5 -56.5t-3.5 -54.5q0 -31 11 -48.5t36 -17.5q11 0 21.5 3t21 8.5t21.5 14.5l6 -8q-24 -20 -53.5 -38.5t-68.5 -18.5zM339 606q-8 25 -21.5 52t-28 53
t-27.5 45l2 10h10q29 -20 59.5 -47t52.5 -54q23 18 51 36.5t57 35t55 29.5h10l-2 -10q-31 -29 -72 -70.5t-71 -79.5h-75z" />
    <glyph glyph-name="napostrophe" unicode="&#x149;" horiz-adv-x="725" 
d="M-24 450q59 15 88.5 42t29.5 60q0 17 -12 27.5t-27 19.5t-27 22t-12 34q0 29 18.5 44t43.5 15q32 0 55 -21.5t23 -60.5q0 -45 -19.5 -84t-59.5 -67t-102 -41zM586 -10q-44 0 -67.5 28.5t-23.5 71.5q0 24 4.5 56.5t14.5 78.5l17 78q3 14 8 35.5t9 45.5t4 45q0 17 -4 36
t-17.5 33t-40.5 14t-52.5 -18t-46.5 -44t-34.5 -50t-15.5 -36l-78 -364h-93l91 434q3 14 4.5 27.5t1.5 17.5q0 30 -20.5 38.5t-49.5 8.5h-8l2 10h185l-27 -126h2q28 44 57 74t62 45.5t71 15.5q40 0 63 -15.5t33.5 -40.5t10.5 -55q0 -25 -6.5 -54.5t-11.5 -55.5l-26 -118
q-6 -28 -9.5 -56.5t-3.5 -54.5q0 -31 11 -48.5t36 -17.5q11 0 21.5 3t21 8.5t21.5 14.5l6 -8q-24 -20 -53.5 -38.5t-68.5 -18.5z" />
    <glyph glyph-name="Eng" unicode="&#x14a;" horiz-adv-x="763" 
d="M353 -240q-18 0 -37 3t-34 8l3 10q13 -4 27.5 -6.5t33.5 -2.5q36 0 68 15t58.5 44.5t46.5 72t32 96.5l-308 652l-123 -574q-1 -6 -2.5 -14.5t-1.5 -13.5q0 -25 29 -32.5t74 -7.5h13l-2 -10h-250l2 10h13q28 0 52 4.5t40.5 20t23.5 47.5l118 554q2 6 3 15t1 13
q0 26 -25.5 33t-66.5 7h-13l2 10h195l261 -549l100 471q2 7 3 15.5t1 12.5q0 26 -29 33t-74 7h-13l2 10h251l-2 -10h-13q-27 0 -51 -4t-41.5 -19.5t-24.5 -48.5l-136 -640q-18 -85 -45.5 -136t-67 -73.5t-93.5 -22.5z" />
    <glyph glyph-name="eng" unicode="&#x14b;" horiz-adv-x="562" 
d="M215 -240q-15 0 -31.5 2.5t-26.5 5.5l2 10q8 -2 21.5 -4.5t24.5 -2.5q35 0 59 22t42 71t33 128l66 311q3 14 8 35.5t9 45.5t4 45q0 17 -4 36t-17.5 33t-40.5 14t-52.5 -18t-46.5 -44t-34.5 -50t-15.5 -36l-78 -364h-93l91 434q3 14 4.5 27.5t1.5 17.5q0 30 -20.5 38.5
t-49.5 8.5h-8l2 10h185l-27 -126h2q28 44 57 74t62 45.5t71 15.5q40 0 63 -15.5t33.5 -40.5t10.5 -55q0 -16 -3 -35.5t-7 -38.5t-8 -36l-71 -332q-19 -89 -49.5 -139.5t-72.5 -71.5t-96 -21z" />
    <glyph glyph-name="Omacron" unicode="&#x14c;" horiz-adv-x="742" 
d="M323 -11q-74 0 -133.5 31.5t-94 93.5t-34.5 152q0 58 16 121t48.5 123t80.5 108.5t112 77.5t143 29q69 0 128 -29t95 -89.5t36 -156.5q0 -46 -11 -97.5t-32.5 -103.5t-54.5 -98.5t-77 -83t-99.5 -57.5t-122.5 -21zM329 -1q58 0 103.5 32t79 84.5t55.5 116t32.5 127.5
t10.5 118q0 93 -20.5 144.5t-55.5 72.5t-81 21q-58 0 -104 -32t-79.5 -84.5t-55.5 -116t-33 -127.5t-11 -117q0 -94 21 -146t57.5 -72.5t80.5 -20.5zM351 808l4 20h290l-4 -20h-290z" />
    <glyph glyph-name="omacron" unicode="&#x14d;" horiz-adv-x="564" 
d="M230 -10q-85 0 -138.5 51.5t-53.5 155.5q0 44 11.5 92.5t35 94t59 82.5t83.5 58.5t109 21.5q53 0 96 -21t68.5 -66.5t25.5 -119.5q0 -43 -11 -90.5t-34 -93.5t-58 -83t-83 -59.5t-110 -22.5zM232 0q41 0 72 23.5t53.5 62.5t37 86t21 95t6.5 89q0 65 -10.5 104.5
t-30.5 57.5t-51 18q-40 0 -71 -23.5t-53.5 -62.5t-36.5 -86.5t-20.5 -95.5t-6.5 -89q0 -98 24.5 -138.5t65.5 -40.5zM215 630l4 20h290l-4 -20h-290z" />
    <glyph glyph-name="Obreve" unicode="&#x14e;" horiz-adv-x="742" 
d="M323 -11q-74 0 -133.5 31.5t-94 93.5t-34.5 152q0 58 16 121t48.5 123t80.5 108.5t112 77.5t143 29q69 0 128 -29t95 -89.5t36 -156.5q0 -46 -11 -97.5t-32.5 -103.5t-54.5 -98.5t-77 -83t-99.5 -57.5t-122.5 -21zM329 -1q58 0 103.5 32t79 84.5t55.5 116t32.5 127.5
t10.5 118q0 93 -20.5 144.5t-55.5 72.5t-81 21q-58 0 -104 -32t-79.5 -84.5t-55.5 -116t-33 -127.5t-11 -117q0 -94 21 -146t57.5 -72.5t80.5 -20.5zM486 784q-60 0 -91 35.5t-35 101.5h10q5 -34 38 -51t85 -17q33 0 60 7t48.5 22t35.5 39h10q-9 -37 -30.5 -68.5t-54 -50
t-76.5 -18.5z" />
    <glyph glyph-name="obreve" unicode="&#x14f;" horiz-adv-x="564" 
d="M230 -10q-85 0 -138.5 51.5t-53.5 155.5q0 44 11.5 92.5t35 94t59 82.5t83.5 58.5t109 21.5q53 0 96 -21t68.5 -66.5t25.5 -119.5q0 -43 -11 -90.5t-34 -93.5t-58 -83t-83 -59.5t-110 -22.5zM232 0q41 0 72 23.5t53.5 62.5t37 86t21 95t6.5 89q0 65 -10.5 104.5
t-30.5 57.5t-51 18q-40 0 -71 -23.5t-53.5 -62.5t-36.5 -86.5t-20.5 -95.5t-6.5 -89q0 -98 24.5 -138.5t65.5 -40.5zM350 606q-60 0 -91 35.5t-35 101.5h10q5 -34 38 -51t85 -17q33 0 60 7t48.5 22t35.5 39h10q-9 -37 -30.5 -68.5t-54 -50t-76.5 -18.5z" />
    <glyph glyph-name="Ohungarumlaut" unicode="&#x150;" horiz-adv-x="742" 
d="M323 -11q-74 0 -133.5 31.5t-94 93.5t-34.5 152q0 58 16 121t48.5 123t80.5 108.5t112 77.5t143 29q69 0 128 -29t95 -89.5t36 -156.5q0 -46 -11 -97.5t-32.5 -103.5t-54.5 -98.5t-77 -83t-99.5 -57.5t-122.5 -21zM329 -1q58 0 103.5 32t79 84.5t55.5 116t32.5 127.5
t10.5 118q0 93 -20.5 144.5t-55.5 72.5t-81 21q-58 0 -104 -32t-79.5 -84.5t-55.5 -116t-33 -127.5t-11 -117q0 -94 21 -146t57.5 -72.5t80.5 -20.5zM527 784q26 32 54.5 74t43.5 76h93l-3 -10q-11 -14 -32.5 -33.5t-47.5 -41t-52.5 -41t-47.5 -34.5h-10zM347 784
q26 32 54.5 74t43.5 76h93l-3 -10q-11 -14 -32.5 -33.5t-47.5 -41t-52.5 -41t-47.5 -34.5h-10z" />
    <glyph glyph-name="ohungarumlaut" unicode="&#x151;" horiz-adv-x="564" 
d="M230 -10q-85 0 -138.5 51.5t-53.5 155.5q0 44 11.5 92.5t35 94t59 82.5t83.5 58.5t109 21.5q53 0 96 -21t68.5 -66.5t25.5 -119.5q0 -43 -11 -90.5t-34 -93.5t-58 -83t-83 -59.5t-110 -22.5zM232 0q41 0 72 23.5t53.5 62.5t37 86t21 95t6.5 89q0 65 -10.5 104.5
t-30.5 57.5t-51 18q-40 0 -71 -23.5t-53.5 -62.5t-36.5 -86.5t-20.5 -95.5t-6.5 -89q0 -98 24.5 -138.5t65.5 -40.5zM391 606q26 32 54.5 74t43.5 76h93l-3 -10q-11 -14 -32.5 -33.5t-47.5 -41t-52.5 -41t-47.5 -34.5h-10zM211 606q26 32 54.5 74t43.5 76h93l-3 -10
q-11 -14 -32.5 -33.5t-47.5 -41t-52.5 -41t-47.5 -34.5h-10z" />
    <glyph glyph-name="OE" unicode="&#x152;" horiz-adv-x="967" 
d="M323 -11q-74 0 -133.5 31.5t-94 93.5t-34.5 152q0 58 16 121t48.5 123t80.5 108.5t112 77.5t143 29q18 0 36 -1.5t36 -4t34 -5.5h415l-32 -175h-10q1 5 2 16.5t2.5 24t1.5 17.5q0 30 -4.5 54t-23.5 38.5t-63 14.5h-183l-69 -325h241l-2 -10h-241l-76 -359h205
q49 0 77.5 14.5t45.5 42t30 65.5l14 43h10l-44 -175h-430q-14 -3 -34 -5.5t-40 -4t-36 -1.5zM323 -1q29 0 57.5 4.5t45.5 11.5l144 682q-16 5 -42 11.5t-68 6.5q-60 0 -107 -32t-81.5 -84.5t-57 -116t-33.5 -127.5t-11 -117q0 -84 20.5 -136.5t55.5 -77.5t77 -25z" />
    <glyph glyph-name="oe" unicode="&#x153;" horiz-adv-x="850" 
d="M230 -10q-85 0 -138.5 51.5t-53.5 155.5q0 44 11.5 92.5t35 94t59 82.5t83.5 58.5t109 21.5q55 0 99.5 -23t68.5 -73q25 29 55.5 50.5t67 33.5t78.5 12q65 0 100 -30.5t35 -84.5q0 -48 -37.5 -89.5t-102.5 -67.5t-147 -26h-17.5h-17.5q-1 -9 -2.5 -19t-2 -20.5
t-0.5 -19.5q0 -60 11.5 -102.5t34 -64.5t54.5 -22q57 0 91 35t52 90q10 -3 15.5 -10.5t5.5 -19.5q0 -19 -18 -44t-56.5 -43t-98.5 -18q-54 0 -98.5 24t-70.5 72q-24 -28 -54.5 -49.5t-68 -34t-82.5 -12.5zM232 0q41 0 72 23.5t53.5 62.5t37 86t21 95t6.5 89
q0 65 -10.5 104.5t-30.5 57.5t-51 18q-40 0 -71 -23.5t-53.5 -62.5t-36.5 -86.5t-20.5 -95.5t-6.5 -89q0 -65 11 -104.5t31.5 -57t47.5 -17.5zM547 258q59 0 101.5 22t65.5 62.5t23 95.5q0 47 -14 72t-40 25q-30 0 -56 -24.5t-47 -65.5t-36 -90t-24 -97h27z" />
    <glyph glyph-name="Racute" unicode="&#x154;" horiz-adv-x="659" 
d="M-18 0l2 10h13q22 0 41 4.5t33.5 18.5t20.5 44l119 559l2.5 15t1.5 13q0 26 -20 33t-52 7h-13l2 10h262q116 0 172.5 -42t56.5 -128q0 -49 -17.5 -83t-45.5 -57t-61 -37t-64 -23l70 -223q12 -36 22 -61t23.5 -37.5t35.5 -12.5h8l-2 -10h-13q-59 0 -94.5 9.5t-55.5 35
t-33 72.5l-58 216h-90l-55 -255q-1 -6 -2.5 -14.5t-1.5 -13.5q0 -25 20.5 -32.5t51.5 -7.5h33l-2 -10h-310zM327 343q58 0 100.5 20t66 64t23.5 117q0 59 -13.5 94t-40.5 50.5t-69 15.5h-68l-76 -361h77zM392 784q17 22 35 48t35 53t30 49h93l-3 -10q-12 -13 -33.5 -32
t-47 -40.5t-51.5 -42t-48 -35.5h-12z" />
    <glyph glyph-name="racute" unicode="&#x155;" horiz-adv-x="478" 
d="M147 434q3 14 4.5 27.5t1.5 17.5q0 30 -25.5 38.5t-54.5 8.5h-8l2 10h183l-23 -144h2q20 41 42.5 76t54 56.5t77.5 21.5q42 0 62 -19.5t20 -49.5q0 -23 -9 -40.5t-28 -26.5t-48 -9q1 8 1 15.5v14.5q0 25 -4.5 43t-15.5 28t-30 10q-21 0 -42 -18.5t-39.5 -46.5t-31 -57.5
t-17.5 -51.5l-72 -338h-93zM276 606q17 22 35 48t35 53t30 49h93l-3 -10q-12 -13 -33.5 -32t-47 -40.5t-51.5 -42t-48 -35.5h-12z" />
    <glyph glyph-name="uni0156" unicode="&#x156;" horiz-adv-x="659" 
d="M-18 0l2 10h13q22 0 41 4.5t33.5 18.5t20.5 44l119 559l2.5 15t1.5 13q0 26 -20 33t-52 7h-13l2 10h262q116 0 172.5 -42t56.5 -128q0 -49 -17.5 -83t-45.5 -57t-61 -37t-64 -23l70 -223q12 -36 22 -61t23.5 -37.5t35.5 -12.5h8l-2 -10h-13q-59 0 -94.5 9.5t-55.5 35
t-33 72.5l-58 216h-90l-55 -255q-1 -6 -2.5 -14.5t-1.5 -13.5q0 -25 20.5 -32.5t51.5 -7.5h33l-2 -10h-310zM327 343q58 0 100.5 20t66 64t23.5 117q0 59 -13.5 94t-40.5 50.5t-69 15.5h-68l-76 -361h77zM175 -213q22 43 37.5 78t29.5 74h75l-2 -10q-15 -21 -36.5 -46.5
t-46 -52t-49.5 -51.5h-10z" />
    <glyph glyph-name="uni0157" unicode="&#x157;" horiz-adv-x="478" 
d="M147 434q3 14 4.5 27.5t1.5 17.5q0 30 -25.5 38.5t-54.5 8.5h-8l2 10h183l-23 -144h2q20 41 42.5 76t54 56.5t77.5 21.5q42 0 62 -19.5t20 -49.5q0 -23 -9 -40.5t-28 -26.5t-48 -9q1 8 1 15.5v14.5q0 25 -4.5 43t-15.5 28t-30 10q-21 0 -42 -18.5t-39.5 -46.5t-31 -57.5
t-17.5 -51.5l-72 -338h-93zM0 -213q22 43 37.5 78t29.5 74h75l-2 -10q-15 -21 -36.5 -46.5t-46 -52t-49.5 -51.5h-10z" />
    <glyph glyph-name="Rcaron" unicode="&#x158;" horiz-adv-x="659" 
d="M-18 0l2 10h13q22 0 41 4.5t33.5 18.5t20.5 44l119 559l2.5 15t1.5 13q0 26 -20 33t-52 7h-13l2 10h262q116 0 172.5 -42t56.5 -128q0 -49 -17.5 -83t-45.5 -57t-61 -37t-64 -23l70 -223q12 -36 22 -61t23.5 -37.5t35.5 -12.5h8l-2 -10h-13q-59 0 -94.5 9.5t-55.5 35
t-33 72.5l-58 216h-90l-55 -255q-1 -6 -2.5 -14.5t-1.5 -13.5q0 -25 20.5 -32.5t51.5 -7.5h33l-2 -10h-310zM327 343q58 0 100.5 20t66 64t23.5 117q0 59 -13.5 94t-40.5 50.5t-69 15.5h-68l-76 -361h77zM399 784q-8 25 -21.5 52t-28 53t-27.5 45l2 10h10q29 -20 59.5 -47
t52.5 -54q23 18 51 36.5t57 35t55 29.5h10l-2 -10q-31 -29 -72 -70.5t-71 -79.5h-75z" />
    <glyph glyph-name="rcaron" unicode="&#x159;" horiz-adv-x="478" 
d="M147 434q3 14 4.5 27.5t1.5 17.5q0 30 -25.5 38.5t-54.5 8.5h-8l2 10h183l-23 -144h2q20 41 42.5 76t54 56.5t77.5 21.5q42 0 62 -19.5t20 -49.5q0 -23 -9 -40.5t-28 -26.5t-48 -9q1 8 1 15.5v14.5q0 25 -4.5 43t-15.5 28t-30 10q-21 0 -42 -18.5t-39.5 -46.5t-31 -57.5
t-17.5 -51.5l-72 -338h-93zM283 606q-8 25 -21.5 52t-28 53t-27.5 45l2 10h10q29 -20 59.5 -47t52.5 -54q23 18 51 36.5t57 35t55 29.5h10l-2 -10q-31 -29 -72 -70.5t-71 -79.5h-75z" />
    <glyph glyph-name="Sacute" unicode="&#x15a;" horiz-adv-x="544" 
d="M229 -10q-73 0 -122.5 19.5t-74.5 52.5t-25 71t24 57t53 19q0 -56 13.5 -104t45.5 -76.5t86 -28.5t89.5 20.5t52.5 58t17 89.5q0 30 -9 54t-36 48.5t-81 54.5q-42 24 -74 52.5t-50 66t-18 87.5q0 41 16.5 76.5t48 61.5t76.5 40.5t102 14.5q58 0 100.5 -13.5t66 -38
t23.5 -56.5q0 -31 -18.5 -50t-59.5 -19q0 27 -2.5 56t-12.5 54.5t-33 41t-64 15.5q-40 0 -72.5 -18t-52 -54.5t-19.5 -93.5q0 -37 13.5 -62t41.5 -46t69 -45q50 -29 83 -58.5t49 -63t16 -73.5q0 -50 -18 -89t-52 -66t-82.5 -41t-109.5 -14zM340 784q17 22 35 48t35 53t30 49
h93l-3 -10q-12 -13 -33.5 -32t-47 -40.5t-51.5 -42t-48 -35.5h-12z" />
    <glyph glyph-name="sacute" unicode="&#x15b;" horiz-adv-x="464" 
d="M190 -10q-50 0 -87 13.5t-57.5 39t-20.5 60.5q0 27 12.5 41.5t28.5 19.5t28 5q-1 -8 -1.5 -16t-0.5 -16q0 -38 10.5 -69t33 -49.5t58.5 -18.5q53 0 84.5 31t31.5 85q0 31 -10 52.5t-32 38.5t-59 34q-37 18 -64 38.5t-42 48.5t-15 68q0 43 23.5 76.5t67 53t102.5 19.5
q55 0 89 -14t50.5 -36t16.5 -45q0 -31 -21.5 -46.5t-53.5 -15.5q1 8 1.5 15.5t0.5 14.5q0 49 -20.5 83t-69.5 34q-55 0 -77 -32t-22 -73q0 -31 11 -51.5t33.5 -36.5t57.5 -32q37 -16 63.5 -37.5t41.5 -50t15 -67.5q0 -48 -25 -85.5t-71.5 -58.5t-110.5 -21zM262 606
q17 22 35 48t35 53t30 49h93l-3 -10q-12 -13 -33.5 -32t-47 -40.5t-51.5 -42t-48 -35.5h-12z" />
    <glyph glyph-name="Scircumflex" unicode="&#x15c;" horiz-adv-x="544" 
d="M229 -10q-73 0 -122.5 19.5t-74.5 52.5t-25 71t24 57t53 19q0 -56 13.5 -104t45.5 -76.5t86 -28.5t89.5 20.5t52.5 58t17 89.5q0 30 -9 54t-36 48.5t-81 54.5q-42 24 -74 52.5t-50 66t-18 87.5q0 41 16.5 76.5t48 61.5t76.5 40.5t102 14.5q58 0 100.5 -13.5t66 -38
t23.5 -56.5q0 -31 -18.5 -50t-59.5 -19q0 27 -2.5 56t-12.5 54.5t-33 41t-64 15.5q-40 0 -72.5 -18t-52 -54.5t-19.5 -93.5q0 -37 13.5 -62t41.5 -46t69 -45q50 -29 83 -58.5t49 -63t16 -73.5q0 -50 -18 -89t-52 -66t-82.5 -41t-109.5 -14zM237 794q21 20 48 46t53 53.5
t42 50.5h75q7 -23 20 -50.5t28.5 -53.5t28.5 -46l-2 -10h-10q-31 18 -60.5 45.5t-51.5 54.5q-23 -18 -51 -36.5t-56.5 -35t-55.5 -28.5h-10z" />
    <glyph glyph-name="scircumflex" unicode="&#x15d;" horiz-adv-x="464" 
d="M190 -10q-50 0 -87 13.5t-57.5 39t-20.5 60.5q0 27 12.5 41.5t28.5 19.5t28 5q-1 -8 -1.5 -16t-0.5 -16q0 -38 10.5 -69t33 -49.5t58.5 -18.5q53 0 84.5 31t31.5 85q0 31 -10 52.5t-32 38.5t-59 34q-37 18 -64 38.5t-42 48.5t-15 68q0 43 23.5 76.5t67 53t102.5 19.5
q55 0 89 -14t50.5 -36t16.5 -45q0 -31 -21.5 -46.5t-53.5 -15.5q1 8 1.5 15.5t0.5 14.5q0 49 -20.5 83t-69.5 34q-55 0 -77 -32t-22 -73q0 -31 11 -51.5t33.5 -36.5t57.5 -32q37 -16 63.5 -37.5t41.5 -50t15 -67.5q0 -48 -25 -85.5t-71.5 -58.5t-110.5 -21zM159 616
q21 20 48 46t53 53.5t42 50.5h75q7 -23 20 -50.5t28.5 -53.5t28.5 -46l-2 -10h-10q-31 18 -60.5 45.5t-51.5 54.5q-23 -18 -51 -36.5t-56.5 -35t-55.5 -28.5h-10z" />
    <glyph glyph-name="Scedilla" unicode="&#x15e;" horiz-adv-x="544" 
d="M229 -10q-73 0 -122.5 19.5t-74.5 52.5t-25 71t24 57t53 19q0 -56 13.5 -104t45.5 -76.5t86 -28.5t89.5 20.5t52.5 58t17 89.5q0 30 -9 54t-36 48.5t-81 54.5q-42 24 -74 52.5t-50 66t-18 87.5q0 41 16.5 76.5t48 61.5t76.5 40.5t102 14.5q58 0 100.5 -13.5t66 -38
t23.5 -56.5q0 -31 -18.5 -50t-59.5 -19q0 27 -2.5 56t-12.5 54.5t-33 41t-64 15.5q-40 0 -72.5 -18t-52 -54.5t-19.5 -93.5q0 -37 13.5 -62t41.5 -46t69 -45q50 -29 83 -58.5t49 -63t16 -73.5q0 -50 -18 -89t-52 -66t-82.5 -41t-109.5 -14zM158 -240q-26 0 -43.5 3.5
t-31.5 7.5l3 11q12 -4 24.5 -6t25.5 -2q34 0 55 16t31.5 41.5t10.5 52.5q0 24 -8.5 37.5t-28.5 19.5l27 59h10l-20 -45q32 -6 54.5 -17t34.5 -27t12 -38q0 -37 -20.5 -62.5t-56 -38t-79.5 -12.5z" />
    <glyph glyph-name="scedilla" unicode="&#x15f;" horiz-adv-x="464" 
d="M190 -10q-50 0 -87 13.5t-57.5 39t-20.5 60.5q0 27 12.5 41.5t28.5 19.5t28 5q-1 -8 -1.5 -16t-0.5 -16q0 -38 10.5 -69t33 -49.5t58.5 -18.5q53 0 84.5 31t31.5 85q0 31 -10 52.5t-32 38.5t-59 34q-37 18 -64 38.5t-42 48.5t-15 68q0 43 23.5 76.5t67 53t102.5 19.5
q55 0 89 -14t50.5 -36t16.5 -45q0 -31 -21.5 -46.5t-53.5 -15.5q1 8 1.5 15.5t0.5 14.5q0 49 -20.5 83t-69.5 34q-55 0 -77 -32t-22 -73q0 -31 11 -51.5t33.5 -36.5t57.5 -32q37 -16 63.5 -37.5t41.5 -50t15 -67.5q0 -48 -25 -85.5t-71.5 -58.5t-110.5 -21zM123 -240
q-26 0 -43.5 3.5t-31.5 7.5l3 11q12 -4 24.5 -6t25.5 -2q34 0 55 16t31.5 41.5t10.5 52.5q0 24 -8.5 37.5t-28.5 19.5l27 59h10l-20 -45q32 -6 54.5 -17t34.5 -27t12 -38q0 -37 -20.5 -62.5t-56 -38t-79.5 -12.5z" />
    <glyph glyph-name="Scaron" unicode="&#x160;" horiz-adv-x="544" 
d="M229 -10q-73 0 -122.5 19.5t-74.5 52.5t-25 71t24 57t53 19q0 -56 13.5 -104t45.5 -76.5t86 -28.5t89.5 20.5t52.5 58t17 89.5q0 30 -9 54t-36 48.5t-81 54.5q-42 24 -74 52.5t-50 66t-18 87.5q0 41 16.5 76.5t48 61.5t76.5 40.5t102 14.5q58 0 100.5 -13.5t66 -38
t23.5 -56.5q0 -31 -18.5 -50t-59.5 -19q0 27 -2.5 56t-12.5 54.5t-33 41t-64 15.5q-40 0 -72.5 -18t-52 -54.5t-19.5 -93.5q0 -37 13.5 -62t41.5 -46t69 -45q50 -29 83 -58.5t49 -63t16 -73.5q0 -50 -18 -89t-52 -66t-82.5 -41t-109.5 -14zM347 784q-8 25 -21.5 52t-28 53
t-27.5 45l2 10h10q29 -20 59.5 -47t52.5 -54q23 18 51 36.5t57 35t55 29.5h10l-2 -10q-31 -29 -72 -70.5t-71 -79.5h-75z" />
    <glyph glyph-name="scaron" unicode="&#x161;" horiz-adv-x="464" 
d="M190 -10q-50 0 -87 13.5t-57.5 39t-20.5 60.5q0 27 12.5 41.5t28.5 19.5t28 5q-1 -8 -1.5 -16t-0.5 -16q0 -38 10.5 -69t33 -49.5t58.5 -18.5q53 0 84.5 31t31.5 85q0 31 -10 52.5t-32 38.5t-59 34q-37 18 -64 38.5t-42 48.5t-15 68q0 43 23.5 76.5t67 53t102.5 19.5
q55 0 89 -14t50.5 -36t16.5 -45q0 -31 -21.5 -46.5t-53.5 -15.5q1 8 1.5 15.5t0.5 14.5q0 49 -20.5 83t-69.5 34q-55 0 -77 -32t-22 -73q0 -31 11 -51.5t33.5 -36.5t57.5 -32q37 -16 63.5 -37.5t41.5 -50t15 -67.5q0 -48 -25 -85.5t-71.5 -58.5t-110.5 -21zM269 606
q-8 25 -21.5 52t-28 53t-27.5 45l2 10h10q29 -20 59.5 -47t52.5 -54q23 18 51 36.5t57 35t55 29.5h10l-2 -10q-31 -29 -72 -70.5t-71 -79.5h-75z" />
    <glyph glyph-name="uni0162" unicode="&#x162;" horiz-adv-x="613" 
d="M98 0l2 10h13q29 0 50 8t34.5 24t18.5 40l132 622h-82q-50 0 -82.5 -12t-52.5 -41t-34 -79l-9 -33h-10l43 175h561l-31 -175h-10q4 21 5.5 35.5t2.5 24.5t1 18q0 49 -27 68t-90 19h-84l-132 -622q-1 -6 -2 -11t-1 -10q0 -25 18.5 -38t55.5 -13h13l-2 -10h-301zM174 -240
q-26 0 -43.5 3.5t-31.5 7.5l3 11q12 -4 24.5 -6t25.5 -2q34 0 55 16t31.5 41.5t10.5 52.5q0 24 -8.5 37.5t-28.5 19.5l27 59h10l-20 -45q32 -6 54.5 -17t34.5 -27t12 -38q0 -37 -20.5 -62.5t-56 -38t-79.5 -12.5z" />
    <glyph glyph-name="uni0163" unicode="&#x163;" horiz-adv-x="367" 
d="M183 -10q-36 0 -60 13t-36.5 39t-12.5 65q0 12 1.5 27t4 30l4.5 27l71 335h-76l2 10q41 0 70 6.5t50 21t36.5 38t29.5 57.5h10l-26 -123h121l-2 -10h-121l-71 -332l-6 -32t-4.5 -29.5t-1.5 -24.5q0 -45 18 -64.5t51 -19.5q19 0 40.5 6.5t37.5 16.5l5 -9
q-30 -21 -63.5 -34.5t-71.5 -13.5zM83 -240q-26 0 -43.5 3.5t-31.5 7.5l3 11q12 -4 24.5 -6t25.5 -2q34 0 55 16t31.5 41.5t10.5 52.5q0 24 -8.5 37.5t-28.5 19.5l27 59h10l-20 -45q32 -6 54.5 -17t34.5 -27t12 -38q0 -37 -20.5 -62.5t-56 -38t-79.5 -12.5z" />
    <glyph glyph-name="Tcaron" unicode="&#x164;" horiz-adv-x="613" 
d="M98 0l2 10h13q29 0 50 8t34.5 24t18.5 40l132 622h-82q-50 0 -82.5 -12t-52.5 -41t-34 -79l-9 -33h-10l43 175h561l-31 -175h-10q4 21 5.5 35.5t2.5 24.5t1 18q0 49 -27 68t-90 19h-84l-132 -622q-1 -6 -2 -11t-1 -10q0 -25 18.5 -38t55.5 -13h13l-2 -10h-301zM384 784
q-8 25 -21.5 52t-28 53t-27.5 45l2 10h10q29 -20 59.5 -47t52.5 -54q23 18 51 36.5t57 35t55 29.5h10l-2 -10q-31 -29 -72 -70.5t-71 -79.5h-75z" />
    <glyph glyph-name="tcaron" unicode="&#x165;" horiz-adv-x="367" 
d="M353 614q21 38 36.5 72.5t29.5 73.5h75l-2 -10q-15 -21 -36.5 -46.5t-46 -52t-49.5 -51.5h-10zM183 -10q-36 0 -60 13t-36.5 39t-12.5 65q0 12 1.5 27t4 30l4.5 27l71 335h-76l2 10q41 0 70 6.5t50 21t36.5 38t29.5 57.5h10l-26 -123h121l-2 -10h-121l-71 -332l-6 -32
t-4.5 -29.5t-1.5 -24.5q0 -45 18 -64.5t51 -19.5q19 0 40.5 6.5t37.5 16.5l5 -9q-30 -21 -63.5 -34.5t-71.5 -13.5z" />
    <glyph glyph-name="Tbar" unicode="&#x166;" horiz-adv-x="613" 
d="M105 348l2 10h437l-2 -10h-437zM98 0l2 10h13q29 0 50 8t34.5 24t18.5 40l132 622h-82q-50 0 -82.5 -12t-52.5 -41t-34 -79l-9 -33h-10l43 175h561l-31 -175h-10q4 21 5.5 35.5t2.5 24.5t1 18q0 49 -27 68t-90 19h-84l-132 -622q-1 -6 -2 -11t-1 -10q0 -25 18.5 -38
t55.5 -13h13l-2 -10h-301z" />
    <glyph glyph-name="tbar" unicode="&#x167;" horiz-adv-x="368" 
d="M31 310l2 10h283l-2 -10h-283zM183 -10q-36 0 -60 13t-36.5 39t-12.5 65q0 12 1.5 27t4 30l4.5 27l71 335h-76l2 10q41 0 70 6.5t50 21t36.5 38t29.5 57.5h10l-26 -123h121l-2 -10h-121l-71 -332l-6 -32t-4.5 -29.5t-1.5 -24.5q0 -45 18 -64.5t51 -19.5q19 0 40.5 6.5
t37.5 16.5l5 -9q-30 -21 -63.5 -34.5t-71.5 -13.5z" />
    <glyph glyph-name="Utilde" unicode="&#x168;" horiz-adv-x="713" 
d="M329 -10q-109 0 -168 45.5t-59 127.5q0 16 3.5 44t7.5 45l81 384q2 6 3 15t1 13q0 26 -20 33t-52 7h-13l2 10h291l-1 -10h-13q-22 0 -42 -5t-34.5 -20t-21.5 -47l-82 -385q-3 -17 -6 -33.5t-4.5 -32.5t-1.5 -34q0 -70 34 -108.5t98 -38.5q83 0 135 27.5t81 74t41 104.5
l92 430q2 6 3 15t1 13q0 26 -20 33t-52 7h-13l2 10h200l-1 -10h-13q-22 0 -42 -5t-34.5 -20t-21.5 -47l-91 -428q-14 -66 -47 -114t-88 -74t-135 -26zM550 784q-29 0 -48 9.5t-35 22t-35.5 22t-49.5 9.5q-22 0 -35 -7.5t-21 -19.5t-15 -26h-10q9 31 26 57.5t43 43.5t62 17
q29 0 48 -9.5t35 -22t36 -22t50 -9.5q32 0 45.5 16.5t23.5 36.5h10q-8 -30 -25 -57t-43 -44t-62 -17z" />
    <glyph glyph-name="utilde" unicode="&#x169;" horiz-adv-x="601" 
d="M457 -10q-26 0 -45 13t-29 34.5t-10 47.5q0 8 0.5 17.5t1.5 20t2 21.5h-3q-25 -44 -53 -78.5t-63 -54.5t-81 -20q-39 0 -62.5 15.5t-34 41t-10.5 54.5q0 25 6 55t12 55l46 207q3 14 6 33t3 27q0 30 -20.5 38.5t-49.5 8.5h-8l2 10h186l-66 -299q-4 -18 -8.5 -41.5t-8 -46
t-3.5 -37.5q0 -42 12.5 -67t46.5 -25q24 0 49.5 18t48.5 47t39 60.5t22 58.5l71 332h97l-69 -321q-2 -11 -6 -32t-6.5 -43t-2.5 -36q0 -39 11.5 -58.5t33.5 -19.5q17 0 31.5 6.5t33.5 20.5l5 -7q-22 -19 -55.5 -37.5t-71.5 -18.5zM442 606q-29 0 -48 9.5t-35 22t-35.5 22
t-49.5 9.5q-22 0 -35 -7.5t-21 -19.5t-15 -26h-10q9 31 26 57.5t43 43.5t62 17q29 0 48 -9.5t35 -22t36 -22t50 -9.5q32 0 45.5 16.5t23.5 36.5h10q-8 -30 -25 -57t-43 -44t-62 -17z" />
    <glyph glyph-name="Umacron" unicode="&#x16a;" horiz-adv-x="713" 
d="M329 -10q-109 0 -168 45.5t-59 127.5q0 16 3.5 44t7.5 45l81 384q2 6 3 15t1 13q0 26 -20 33t-52 7h-13l2 10h291l-1 -10h-13q-22 0 -42 -5t-34.5 -20t-21.5 -47l-82 -385q-3 -17 -6 -33.5t-4.5 -32.5t-1.5 -34q0 -70 34 -108.5t98 -38.5q83 0 135 27.5t81 74t41 104.5
l92 430q2 6 3 15t1 13q0 26 -20 33t-52 7h-13l2 10h200l-1 -10h-13q-22 0 -42 -5t-34.5 -20t-21.5 -47l-91 -428q-14 -66 -47 -114t-88 -74t-135 -26zM342 808l4 20h290l-4 -20h-290z" />
    <glyph glyph-name="umacron" unicode="&#x16b;" horiz-adv-x="601" 
d="M457 -10q-26 0 -45 13t-29 34.5t-10 47.5q0 8 0.5 17.5t1.5 20t2 21.5h-3q-25 -44 -53 -78.5t-63 -54.5t-81 -20q-39 0 -62.5 15.5t-34 41t-10.5 54.5q0 25 6 55t12 55l46 207q3 14 6 33t3 27q0 30 -20.5 38.5t-49.5 8.5h-8l2 10h186l-66 -299q-4 -18 -8.5 -41.5t-8 -46
t-3.5 -37.5q0 -42 12.5 -67t46.5 -25q24 0 49.5 18t48.5 47t39 60.5t22 58.5l71 332h97l-69 -321q-2 -11 -6 -32t-6.5 -43t-2.5 -36q0 -39 11.5 -58.5t33.5 -19.5q17 0 31.5 6.5t33.5 20.5l5 -7q-22 -19 -55.5 -37.5t-71.5 -18.5zM234 630l4 20h290l-4 -20h-290z" />
    <glyph glyph-name="Ubreve" unicode="&#x16c;" horiz-adv-x="713" 
d="M329 -10q-109 0 -168 45.5t-59 127.5q0 16 3.5 44t7.5 45l81 384q2 6 3 15t1 13q0 26 -20 33t-52 7h-13l2 10h291l-1 -10h-13q-22 0 -42 -5t-34.5 -20t-21.5 -47l-82 -385q-3 -17 -6 -33.5t-4.5 -32.5t-1.5 -34q0 -70 34 -108.5t98 -38.5q83 0 135 27.5t81 74t41 104.5
l92 430q2 6 3 15t1 13q0 26 -20 33t-52 7h-13l2 10h200l-1 -10h-13q-22 0 -42 -5t-34.5 -20t-21.5 -47l-91 -428q-14 -66 -47 -114t-88 -74t-135 -26zM477 784q-60 0 -91 35.5t-35 101.5h10q5 -34 38 -51t85 -17q33 0 60 7t48.5 22t35.5 39h10q-9 -37 -30.5 -68.5t-54 -50
t-76.5 -18.5z" />
    <glyph glyph-name="ubreve" unicode="&#x16d;" horiz-adv-x="601" 
d="M457 -10q-26 0 -45 13t-29 34.5t-10 47.5q0 8 0.5 17.5t1.5 20t2 21.5h-3q-25 -44 -53 -78.5t-63 -54.5t-81 -20q-39 0 -62.5 15.5t-34 41t-10.5 54.5q0 25 6 55t12 55l46 207q3 14 6 33t3 27q0 30 -20.5 38.5t-49.5 8.5h-8l2 10h186l-66 -299q-4 -18 -8.5 -41.5t-8 -46
t-3.5 -37.5q0 -42 12.5 -67t46.5 -25q24 0 49.5 18t48.5 47t39 60.5t22 58.5l71 332h97l-69 -321q-2 -11 -6 -32t-6.5 -43t-2.5 -36q0 -39 11.5 -58.5t33.5 -19.5q17 0 31.5 6.5t33.5 20.5l5 -7q-22 -19 -55.5 -37.5t-71.5 -18.5zM369 606q-60 0 -91 35.5t-35 101.5h10
q5 -34 38 -51t85 -17q33 0 60 7t48.5 22t35.5 39h10q-9 -37 -30.5 -68.5t-54 -50t-76.5 -18.5z" />
    <glyph glyph-name="Uring" unicode="&#x16e;" horiz-adv-x="713" 
d="M329 -10q-109 0 -168 45.5t-59 127.5q0 16 3.5 44t7.5 45l81 384q2 6 3 15t1 13q0 26 -20 33t-52 7h-13l2 10h291l-1 -10h-13q-22 0 -42 -5t-34.5 -20t-21.5 -47l-82 -385q-3 -17 -6 -33.5t-4.5 -32.5t-1.5 -34q0 -70 34 -108.5t98 -38.5q83 0 135 27.5t81 74t41 104.5
l92 430q2 6 3 15t1 13q0 26 -20 33t-52 7h-13l2 10h200l-1 -10h-13q-22 0 -42 -5t-34.5 -20t-21.5 -47l-91 -428q-14 -66 -47 -114t-88 -74t-135 -26zM501 774q-50 0 -85 28t-35 81t35 81t85 28t85 -28t35 -81t-35 -81t-85 -28zM501 784q48 0 78 25t30 74q0 50 -30 74.5
t-78 24.5t-78 -24.5t-30 -74.5q0 -49 30 -74t78 -25z" />
    <glyph glyph-name="uring" unicode="&#x16f;" horiz-adv-x="601" 
d="M457 -10q-26 0 -45 13t-29 34.5t-10 47.5q0 8 0.5 17.5t1.5 20t2 21.5h-3q-25 -44 -53 -78.5t-63 -54.5t-81 -20q-39 0 -62.5 15.5t-34 41t-10.5 54.5q0 25 6 55t12 55l46 207q3 14 6 33t3 27q0 30 -20.5 38.5t-49.5 8.5h-8l2 10h186l-66 -299q-4 -18 -8.5 -41.5t-8 -46
t-3.5 -37.5q0 -42 12.5 -67t46.5 -25q24 0 49.5 18t48.5 47t39 60.5t22 58.5l71 332h97l-69 -321q-2 -11 -6 -32t-6.5 -43t-2.5 -36q0 -39 11.5 -58.5t33.5 -19.5q17 0 31.5 6.5t33.5 20.5l5 -7q-22 -19 -55.5 -37.5t-71.5 -18.5zM393 596q-50 0 -85 28t-35 81t35 81t85 28
t85 -28t35 -81t-35 -81t-85 -28zM393 606q48 0 78 25t30 74q0 50 -30 74.5t-78 24.5t-78 -24.5t-30 -74.5q0 -49 30 -74t78 -25z" />
    <glyph glyph-name="Uhungarumlaut" unicode="&#x170;" horiz-adv-x="713" 
d="M329 -10q-109 0 -168 45.5t-59 127.5q0 16 3.5 44t7.5 45l81 384q2 6 3 15t1 13q0 26 -20 33t-52 7h-13l2 10h291l-1 -10h-13q-22 0 -42 -5t-34.5 -20t-21.5 -47l-82 -385q-3 -17 -6 -33.5t-4.5 -32.5t-1.5 -34q0 -70 34 -108.5t98 -38.5q83 0 135 27.5t81 74t41 104.5
l92 430q2 6 3 15t1 13q0 26 -20 33t-52 7h-13l2 10h200l-1 -10h-13q-22 0 -42 -5t-34.5 -20t-21.5 -47l-91 -428q-14 -66 -47 -114t-88 -74t-135 -26zM518 784q26 32 54.5 74t43.5 76h93l-3 -10q-11 -14 -32.5 -33.5t-47.5 -41t-52.5 -41t-47.5 -34.5h-10zM338 784
q26 32 54.5 74t43.5 76h93l-3 -10q-11 -14 -32.5 -33.5t-47.5 -41t-52.5 -41t-47.5 -34.5h-10z" />
    <glyph glyph-name="uhungarumlaut" unicode="&#x171;" horiz-adv-x="601" 
d="M457 -10q-26 0 -45 13t-29 34.5t-10 47.5q0 8 0.5 17.5t1.5 20t2 21.5h-3q-25 -44 -53 -78.5t-63 -54.5t-81 -20q-39 0 -62.5 15.5t-34 41t-10.5 54.5q0 25 6 55t12 55l46 207q3 14 6 33t3 27q0 30 -20.5 38.5t-49.5 8.5h-8l2 10h186l-66 -299q-4 -18 -8.5 -41.5t-8 -46
t-3.5 -37.5q0 -42 12.5 -67t46.5 -25q24 0 49.5 18t48.5 47t39 60.5t22 58.5l71 332h97l-69 -321q-2 -11 -6 -32t-6.5 -43t-2.5 -36q0 -39 11.5 -58.5t33.5 -19.5q17 0 31.5 6.5t33.5 20.5l5 -7q-22 -19 -55.5 -37.5t-71.5 -18.5zM410 606q26 32 54.5 74t43.5 76h93l-3 -10
q-11 -14 -32.5 -33.5t-47.5 -41t-52.5 -41t-47.5 -34.5h-10zM230 606q26 32 54.5 74t43.5 76h93l-3 -10q-11 -14 -32.5 -33.5t-47.5 -41t-52.5 -41t-47.5 -34.5h-10z" />
    <glyph glyph-name="Uogonek" unicode="&#x172;" horiz-adv-x="713" 
d="M329 -10q-109 0 -168 45.5t-59 127.5q0 16 3.5 44t7.5 45l81 384q2 6 3 15t1 13q0 26 -20 33t-52 7h-13l2 10h291l-1 -10h-13q-22 0 -42 -5t-34.5 -20t-21.5 -47l-82 -385q-3 -17 -6 -33.5t-4.5 -32.5t-1.5 -34q0 -70 34 -108.5t98 -38.5q83 0 135 27.5t81 74t41 104.5
l92 430q2 6 3 15t1 13q0 26 -20 33t-52 7h-13l2 10h200l-1 -10h-13q-22 0 -42 -5t-34.5 -20t-21.5 -47l-91 -428q-14 -66 -47 -114t-88 -74t-135 -26zM323 -240q-55 0 -86 24.5t-31 67.5q0 28 12 51t35 41.5t54 32.5t68 23h20q-27 -11 -50.5 -29t-37.5 -49t-14 -83
q0 -29 14 -47t41 -18q8 0 23.5 2.5t33.5 9.5l-2 -10q-17 -7 -37.5 -11.5t-42.5 -4.5z" />
    <glyph glyph-name="uogonek" unicode="&#x173;" horiz-adv-x="601" 
d="M457 -10q-26 0 -45 13t-29 34.5t-10 47.5q0 8 0.5 17.5t1.5 20t2 21.5h-3q-25 -44 -53 -78.5t-63 -54.5t-81 -20q-39 0 -62.5 15.5t-34 41t-10.5 54.5q0 25 6 55t12 55l46 207q3 14 6 33t3 27q0 30 -20.5 38.5t-49.5 8.5h-8l2 10h186l-66 -299q-4 -18 -8.5 -41.5t-8 -46
t-3.5 -37.5q0 -42 12.5 -67t46.5 -25q24 0 49.5 18t48.5 47t39 60.5t22 58.5l71 332h97l-69 -321q-2 -11 -6 -32t-6.5 -43t-2.5 -36q0 -39 11.5 -58.5t33.5 -19.5q17 0 31.5 6.5t33.5 20.5l5 -7q-22 -19 -55.5 -37.5t-71.5 -18.5zM418 -240q-55 0 -86 24.5t-31 67.5
q0 28 12 51t35 41.5t54 32.5t68 23h20q-27 -11 -50.5 -29t-37.5 -49t-14 -83q0 -29 14 -47t41 -18q8 0 23.5 2.5t33.5 9.5l-2 -10q-17 -7 -37.5 -11.5t-42.5 -4.5z" />
    <glyph glyph-name="Wcircumflex" unicode="&#x174;" horiz-adv-x="1045" 
d="M169 651q-2 21 -8.5 32.5t-19 16t-32.5 4.5h-13l2 10h272l-2 -10h-23q-32 0 -52 -13.5t-20 -37.5q0 -8 0.5 -17.5t1.5 -16.5l27 -352q3 -37 4.5 -62t3 -42.5t2 -30t1 -24t1.5 -24.5q17 35 34 70.5t44 91.5l219 461h42l53 -433q3 -30 6 -57.5t5.5 -51t4.5 -42.5t3 -33
q8 16 16.5 34t18 39.5t21.5 46t25 52.5l168 350q9 19 13 31t4 25q0 19 -13.5 27.5t-45.5 8.5h-32l2 10h224l-3 -10h-19q-24 0 -43 -5t-35.5 -21.5t-33.5 -51.5l-301 -626h-62l-66 582l-278 -582h-61zM488 794q21 20 48 46t53 53.5t42 50.5h75q7 -23 20 -50.5t28.5 -53.5
t28.5 -46l-2 -10h-10q-31 18 -60.5 45.5t-51.5 54.5q-23 -18 -51 -36.5t-56.5 -35t-55.5 -28.5h-10z" />
    <glyph glyph-name="wcircumflex" unicode="&#x175;" horiz-adv-x="813" 
d="M446 -10q0 38 -1.5 88t-4 106t-4.5 113.5t-4 110.5t-3 97q-10 -26 -28.5 -69.5t-42.5 -95.5t-49.5 -105.5t-49 -101.5t-41 -83t-26.5 -50l-75 -9l-8 463q0 31 -7 46t-18.5 20.5t-28.5 5.5h-10l3 10h150q1 -40 2 -89t1.5 -101.5l1 -105t0.5 -102t-1 -91.5h2q19 34 42 79.5
t47.5 97.5t48.5 105.5t46 104t40 93.5l83 4q3 -28 5.5 -74.5t5 -102.5t4.5 -115t3 -114.5t1 -99.5h2q61 75 112 145t82 130.5t31 108.5q0 35 -18.5 52.5t-54.5 25.5q3 24 18.5 41.5t40.5 17.5t39 -18.5t14 -56.5q0 -45 -19.5 -96t-55.5 -109.5t-86 -125t-110 -141.5z
M334 616q21 20 48 46t53 53.5t42 50.5h75q7 -23 20 -50.5t28.5 -53.5t28.5 -46l-2 -10h-10q-31 18 -60.5 45.5t-51.5 54.5q-23 -18 -51 -36.5t-56.5 -35t-55.5 -28.5h-10z" />
    <glyph glyph-name="Ycircumflex" unicode="&#x176;" horiz-adv-x="625" 
d="M104 0l2 10h23q33 0 59.5 11t36.5 56l46 216l-109 358q-9 29 -20 41t-40 12h-13l2 10h270l-2 -10h-50q-20 0 -29.5 -7t-9.5 -20q0 -8 1.5 -17t4 -19l5.5 -22l55 -202q6 -19 11 -38.5t10.5 -39t10.5 -38.5l34 48l34 48l150 211q17 23 24 37.5t7 27.5q0 16 -11 23.5
t-38 7.5h-63l2 10h217l-2 -10h-19q-15 0 -29 -8.5t-28.5 -25t-33.5 -42.5l-240 -337l-46 -213q-1 -6 -2.5 -14.5t-1.5 -13.5q0 -25 20.5 -32.5t51.5 -7.5h23l-2 -10h-311zM283 794q21 20 48 46t53 53.5t42 50.5h75q7 -23 20 -50.5t28.5 -53.5t28.5 -46l-2 -10h-10
q-31 18 -60.5 45.5t-51.5 54.5q-23 -18 -51 -36.5t-56.5 -35t-55.5 -28.5h-10z" />
    <glyph glyph-name="ycircumflex" unicode="&#x177;" horiz-adv-x="520" 
d="M-65 -240q-25 0 -50 5t-44 13l3 10q12 -4 30.5 -7.5t53.5 -3.5q50 0 93.5 11t81 32t69.5 51t58 68l-151 534q-8 30 -19 41.5t-40 11.5h-10l2 10h151l73 -270q5 -19 13.5 -53t18 -71t16.5 -67t10 -43h1q32 48 62.5 100t55.5 102.5t39.5 93.5t14.5 71q0 22 -9 38t-31 25
t-60 9q0 36 20.5 55t44.5 19q32 0 50 -21t18 -63q0 -52 -21.5 -114.5t-61 -135t-93.5 -154.5q-49 -76 -90.5 -132t-83.5 -92.5t-93.5 -54.5t-121.5 -18zM141 616q21 20 48 46t53 53.5t42 50.5h75q7 -23 20 -50.5t28.5 -53.5t28.5 -46l-2 -10h-10q-31 18 -60.5 45.5
t-51.5 54.5q-23 -18 -51 -36.5t-56.5 -35t-55.5 -28.5h-10z" />
    <glyph glyph-name="Ydieresis" unicode="&#x178;" horiz-adv-x="625" 
d="M104 0l2 10h23q33 0 59.5 11t36.5 56l46 216l-109 358q-9 29 -20 41t-40 12h-13l2 10h270l-2 -10h-50q-20 0 -29.5 -7t-9.5 -20q0 -8 1.5 -17t4 -19l5.5 -22l55 -202q6 -19 11 -38.5t10.5 -39t10.5 -38.5l34 48l34 48l150 211q17 23 24 37.5t7 27.5q0 16 -11 23.5
t-38 7.5h-63l2 10h217l-2 -10h-19q-15 0 -29 -8.5t-28.5 -25t-33.5 -42.5l-240 -337l-46 -213q-1 -6 -2.5 -14.5t-1.5 -13.5q0 -25 20.5 -32.5t51.5 -7.5h23l-2 -10h-311zM537 810q-19 0 -31 12.5t-12 37.5q0 19 5.5 33t16.5 22t25 8q19 0 31 -12t12 -38q0 -35 -15 -49
t-32 -14zM347 810q-19 0 -31 12.5t-12 37.5q0 19 5.5 33t16.5 22t25 8q19 0 31 -12t12 -38q0 -35 -15 -49t-32 -14z" />
    <glyph glyph-name="Zacute" unicode="&#x179;" horiz-adv-x="605" 
d="M-20 0l2 10l525 694h-239q-45 0 -74.5 -14.5t-47.5 -41t-30 -62.5l-14 -47h-10l42 175h494l-2 -10l-526 -694h261q54 0 86.5 17t51.5 46.5t30 66.5l11 35h10l-42 -175h-528zM323 784q17 22 35 48t35 53t30 49h93l-3 -10q-12 -13 -33.5 -32t-47 -40.5t-51.5 -42t-48 -35.5
h-12z" />
    <glyph glyph-name="zacute" unicode="&#x17a;" horiz-adv-x="501" 
d="M-1 0l2 10l364 516h-130q-37 0 -63.5 -12.5t-45 -39t-31.5 -70.5l-3 -10h-10l40 142h350l-2 -10l-382 -516h175q47 0 76 13.5t47.5 42t33.5 73.5l8 23h10l-39 -162h-400zM259 606q17 22 35 48t35 53t30 49h93l-3 -10q-12 -13 -33.5 -32t-47 -40.5t-51.5 -42t-48 -35.5
h-12z" />
    <glyph glyph-name="Zdotaccent" unicode="&#x17b;" horiz-adv-x="605" 
d="M-20 0l2 10l525 694h-239q-45 0 -74.5 -14.5t-47.5 -41t-30 -62.5l-14 -47h-10l42 175h494l-2 -10l-526 -694h261q54 0 86.5 17t51.5 46.5t30 66.5l11 35h10l-42 -175h-528zM381 814q-20 0 -33 11.5t-13 38.5q0 22 6 36.5t17.5 21.5t26.5 7q20 0 33 -10.5t13 -39.5
q0 -38 -16 -51.5t-34 -13.5z" />
    <glyph glyph-name="zdotaccent" unicode="&#x17c;" horiz-adv-x="501" 
d="M-1 0l2 10l364 516h-130q-37 0 -63.5 -12.5t-45 -39t-31.5 -70.5l-3 -10h-10l40 142h350l-2 -10l-382 -516h175q47 0 76 13.5t47.5 42t33.5 73.5l8 23h10l-39 -162h-400zM317 636q-20 0 -33 11.5t-13 38.5q0 22 6 36.5t17.5 21.5t26.5 7q20 0 33 -10.5t13 -39.5
q0 -38 -16 -51.5t-34 -13.5z" />
    <glyph glyph-name="Zcaron" unicode="&#x17d;" horiz-adv-x="605" 
d="M-20 0l2 10l525 694h-239q-45 0 -74.5 -14.5t-47.5 -41t-30 -62.5l-14 -47h-10l42 175h494l-2 -10l-526 -694h261q54 0 86.5 17t51.5 46.5t30 66.5l11 35h10l-42 -175h-528zM330 784q-8 25 -21.5 52t-28 53t-27.5 45l2 10h10q29 -20 59.5 -47t52.5 -54q23 18 51 36.5
t57 35t55 29.5h10l-2 -10q-31 -29 -72 -70.5t-71 -79.5h-75z" />
    <glyph glyph-name="zcaron" unicode="&#x17e;" horiz-adv-x="501" 
d="M-1 0l2 10l364 516h-130q-37 0 -63.5 -12.5t-45 -39t-31.5 -70.5l-3 -10h-10l40 142h350l-2 -10l-382 -516h175q47 0 76 13.5t47.5 42t33.5 73.5l8 23h10l-39 -162h-400zM266 606q-8 25 -21.5 52t-28 53t-27.5 45l2 10h10q29 -20 59.5 -47t52.5 -54q23 18 51 36.5t57 35
t55 29.5h10l-2 -10q-31 -29 -72 -70.5t-71 -79.5h-75z" />
    <glyph glyph-name="longs" unicode="&#x17f;" horiz-adv-x="300" 
d="M-82 -240q-15 0 -31.5 2.5t-26.5 5.5l2 10q8 -2 21.5 -4.5t24.5 -2.5q35 0 58 22t40.5 70.5t34.5 127.5l127 600q17 86 62.5 132.5t127.5 46.5q64 0 96.5 -20.5t32.5 -53.5t-21.5 -49t-61.5 -16q1 53 -8 91t-40 38q-37 0 -55.5 -36t-36.5 -124l-129 -608
q-14 -67 -34.5 -112t-47.5 -71t-60.5 -37.5t-74.5 -11.5z" />
    <glyph glyph-name="uni0180" unicode="&#x180;" horiz-adv-x="562" 
d="M70 624l2 10h334l-2 -10h-334zM232 -10q-34 0 -60 9.5t-49 31.5l-53 -34h-32l139 653q5 20 7 32.5t2 20.5q0 30 -20.5 38.5t-49.5 8.5h-8l2 10h189l-48 -225q-4 -18 -10.5 -44t-13.5 -50t-11 -38h2q25 45 52 77t59.5 49t73.5 17q40 0 68 -20.5t43.5 -61t15.5 -99.5
q0 -49 -13 -101t-38 -101t-61.5 -88t-83 -62t-102.5 -23zM225 1q41 0 73.5 25.5t57 68t40.5 93.5t24 102t8 93q0 50 -6.5 81.5t-20 46.5t-33.5 15q-30 0 -57 -20.5t-48 -50.5t-35 -60t-18 -49l-67 -309q13 -16 33.5 -26t48.5 -10z" />
    <glyph glyph-name="uni0181" unicode="&#x181;" horiz-adv-x="750" 
d="M57 0l2 10h13q34 0 61 12.5t37 59.5l111 531q3 16 5.5 28t2.5 21q0 23 -14.5 32.5t-41.5 9.5q-34 0 -54.5 -14.5t-29.5 -37t-9 -47.5q0 -22 3.5 -33t10.5 -19q-9 -7 -18 -10.5t-20 -3.5q-22 0 -35 16t-13 39q0 37 20.5 64t57.5 41.5t85 14.5h236q116 0 175 -38t59 -112
q0 -61 -31 -101.5t-84 -61.5t-119 -26v-2q59 -3 102 -19.5t66.5 -48t23.5 -80.5q0 -54 -18.5 -95.5t-54.5 -70.5t-90 -44t-125 -15h-314zM352 10q54 0 92 14.5t61.5 43t34.5 70.5t11 97q0 67 -32.5 100.5t-103.5 33.5h-84l-76 -359h97zM410 379q47 0 81.5 11.5t56.5 33.5
t33 55t11 76q0 73 -32.5 111t-97.5 38h-60l-69 -325h77z" />
    <glyph glyph-name="uni0182" unicode="&#x182;" horiz-adv-x="593" 
d="M-21 0l2 10h13q23 0 42.5 5t34.5 20.5t21 46.5l117 554q2 6 3 15t1 13q0 26 -21.5 33t-50.5 7h-13l2 10h468l-32 -175h-10q1 8 3.5 30t2.5 34q0 34 -8 56t-27.5 33.5t-52.5 11.5h-149l-67 -309h57q75 0 123 -14t75 -38t37.5 -53.5t10.5 -61.5q0 -55 -18.5 -97.5
t-54.5 -71.5t-90 -44t-125 -15h-294zM254 10q44 0 77 9.5t56 27t38 43.5t21.5 58.5t6.5 71.5q0 88 -33.5 126.5t-99.5 38.5h-64l-79 -375h77z" />
    <glyph glyph-name="uni0183" unicode="&#x183;" horiz-adv-x="562" 
d="M221 -10q-34 0 -60 9.5t-49 31.5l-53 -34h-32l139 653q5 20 7 34.5t2 18.5q0 30 -20.5 38.5t-49.5 8.5h-8l2 10h433l-34 -160h-10q4 23 7 45t3 47q0 31 -21.5 44.5t-68.5 13.5h-122l-46 -215q-4 -18 -10.5 -44t-13.5 -50t-11 -38h2q25 45 52 77t59.5 49t73.5 17
q40 0 68 -20.5t43.5 -61t15.5 -99.5q0 -49 -13 -101t-38 -101t-61.5 -88t-83 -62t-102.5 -23zM214 1q41 0 73.5 25.5t57 68t40.5 93.5t24 102t8 93q0 50 -6.5 81.5t-20 46.5t-33.5 15q-30 0 -57 -20.5t-48 -50.5t-35 -60t-18 -49l-67 -309q13 -16 33.5 -26t48.5 -10z" />
    <glyph glyph-name="uni0184" unicode="&#x184;" horiz-adv-x="572" 
d="M287 -10q-70 0 -112 23t-61 59.5t-19 76.5q0 26 3 48.5t8 47.5l82 391q2 6 3 15t1 13q0 26 -21.5 33t-50.5 7h-13l3 10h291l-2 -10h-13q-22 0 -42 -5t-34.5 -20t-21.5 -47l-50 -237h77q85 0 134 -19.5t70.5 -53.5t21.5 -79q0 -42 -11 -80t-32.5 -69.5t-52 -55t-70.5 -36
t-88 -12.5zM289 0q27 0 49.5 12.5t40 35t30 52t18.5 64t6 70.5q0 86 -30.5 118.5t-97.5 32.5h-69l-31 -148q-6 -30 -9.5 -57t-3.5 -47q0 -64 22.5 -98.5t74.5 -34.5z" />
    <glyph glyph-name="uni0185" unicode="&#x185;" horiz-adv-x="528" 
d="M204 -10q-40 0 -68.5 11.5t-45.5 32t-25 49t-8 62.5q0 26 3.5 57.5t11.5 70.5l78 377q5 20 7 34.5t2 18.5q0 30 -20.5 38.5t-49.5 8.5h-8l3 10h189l-48 -225q-3 -16 -7.5 -37.5t-10.5 -43.5t-10.5 -41.5t-7.5 -31.5h2q24 57 51 93.5t60.5 54t74.5 17.5q40 0 68 -20.5
t43.5 -61t15.5 -99.5q0 -49 -13.5 -101t-39 -101t-62.5 -88t-83.5 -62t-101.5 -23zM214 0q38 0 68 25.5t52.5 66.5t37.5 90t22.5 97.5t7.5 86.5q0 87 -18.5 123.5t-44.5 36.5q-25 0 -49 -18t-45.5 -49.5t-39 -71.5t-30.5 -84t-20 -87.5t-7 -81.5q0 -66 14.5 -100t51.5 -34z
" />
    <glyph glyph-name="uni0186" unicode="&#x186;" horiz-adv-x="636" 
d="M337 724q87 0 148.5 -31.5t94.5 -91.5t33 -145q0 -71 -19 -139.5t-54.5 -127.5t-86 -103.5t-114 -70t-138.5 -25.5q-89 0 -137 30.5t-48 80.5q0 36 25.5 57t66.5 21q0 -27 0.5 -58t9 -58.5t29 -45t59.5 -17.5q55 0 101.5 29t83 78t61.5 110.5t38.5 127.5t13.5 127
q0 77 -20 131t-59.5 82.5t-98.5 28.5q-50 0 -83.5 -18t-56 -51t-38.5 -77q-9 4 -14.5 13t-5.5 20q0 26 21.5 55t67.5 48.5t120 19.5z" />
    <glyph glyph-name="uni0187" unicode="&#x187;" horiz-adv-x="627" 
d="M657 602l-4 28l10 45q14 64 26.5 104t30 59t46.5 19q23 0 39.5 -13.5t16.5 -38.5q0 -11 -5.5 -22t-16.5 -20q-9 8 -21 13t-27 5q-18 0 -32 -7t-24 -25.5t-18 -53.5zM337 -10q-87 0 -148.5 31.5t-94.5 91.5t-33 145q0 71 19 139.5t54.5 127.5t86 103.5t114 70t138.5 25.5
q89 0 137 -30.5t48 -80.5q0 -36 -25.5 -57t-66.5 -21q0 27 -0.5 58t-9 58.5t-29 45t-59.5 17.5q-55 0 -101.5 -29t-83 -78t-61.5 -110.5t-38.5 -127.5t-13.5 -127q0 -77 20 -131t59.5 -82.5t98.5 -28.5q50 0 83.5 18t56 51t38.5 77q9 -4 14.5 -13t5.5 -20q0 -26 -21.5 -55
t-67.5 -48.5t-120 -19.5z" />
    <glyph glyph-name="uni0188" unicode="&#x188;" horiz-adv-x="532" 
d="M482 439l-5 23l29 147q16 80 36.5 115.5t60.5 35.5q23 0 40 -14t17 -40q0 -10 -5.5 -20.5t-16.5 -19.5q-7 8 -19.5 13t-24.5 5q-33 0 -51.5 -20.5t-27.5 -65.5zM234 -10q-60 0 -103.5 23t-67.5 68.5t-24 115.5q0 44 11 92.5t33.5 94t58 82.5t84 58.5t111.5 21.5
q50 0 82.5 -14t48 -35.5t15.5 -46.5q0 -19 -11 -35t-31.5 -25.5t-49.5 -9.5q1 9 1.5 19.5t0.5 20.5q0 53 -15 84.5t-51 31.5q-34 0 -63 -22t-51.5 -59.5t-38 -83t-23.5 -93t-8 -89.5q0 -89 24 -138.5t81 -49.5q40 0 66.5 17t44 45.5t30.5 61.5q8 -3 13 -10t5 -15
q0 -22 -18.5 -47.5t-56.5 -44t-98 -18.5z" />
    <glyph glyph-name="uni0189" unicode="&#x189;" horiz-adv-x="725" 
d="M56 370l2 10h366l-2 -10h-366zM-19 0l2 10h13q34 0 61 12.5t37 59.5l117 554q2 7 3 14.5t1 13.5q0 27 -22.5 33.5t-49.5 6.5h-13l2 10h280q135 0 209.5 -69.5t74.5 -202.5q0 -71 -16.5 -137t-49.5 -121.5t-81.5 -96.5t-111.5 -64t-141 -23h-315zM265 11q60 0 110.5 21
t89.5 60t66.5 93.5t41.5 122t14 145.5q0 87 -20.5 142.5t-61 82t-100.5 26.5h-79l-148 -693h87z" />
    <glyph glyph-name="uni018A" unicode="&#x18a;" horiz-adv-x="798" 
d="M56 0l2 10h13q23 0 42.5 5t34.5 20.5t21 46.5l116 552q2 6 3 16t1 14q0 23 -16.5 31.5t-36.5 8.5q-48 0 -71 -30.5t-23 -68.5q0 -22 3 -33t9 -19q-9 -7 -18 -10.5t-20 -3.5q-22 0 -35 16.5t-13 43.5q0 28 16.5 54.5t52.5 43.5t95 17h255q135 0 209.5 -69.5t74.5 -202.5
q0 -89 -26 -169t-77 -141.5t-125.5 -96.5t-171.5 -35h-315zM340 10q77 0 136.5 32.5t101 91.5t63 140.5t21.5 178.5q0 65 -12.5 112.5t-36.5 78t-57 45.5t-75 15h-79l-149 -694h87z" />
    <glyph glyph-name="uni018B" unicode="&#x18b;" horiz-adv-x="620" 
d="M258 0q-70 0 -121 20t-79 58.5t-28 96.5q0 35 12 73t44 71.5t91.5 54.5t154.5 21h70l65 309h-158q-38 0 -67 -13.5t-49.5 -40.5t-34.5 -68l-14 -43h-10l42 175h488l-2 -10h-13q-22 0 -41.5 -5t-33.5 -20t-21 -47l-118 -554q-1 -6 -2.5 -14.5t-1.5 -13.5q0 -25 20.5 -32.5
t51.5 -7.5h13l-2 -10h-256zM274 10h46l80 375h-47q-60 0 -101.5 -15t-67 -43t-37 -66t-11.5 -84q0 -44 14.5 -82t45.5 -61.5t78 -23.5z" />
    <glyph glyph-name="uni018C" unicode="&#x18c;" horiz-adv-x="563" 
d="M172 -10q-44 0 -73 24t-42.5 65.5t-13.5 93.5q0 47 12.5 98.5t37.5 100t61 88t83 63t104 23.5q28 0 53 -6.5t44 -17.5q3 13 6.5 30t5.5 26l36 172h-157q-37 0 -61 -10t-41.5 -34.5t-35.5 -68.5l-12 -33h-10l39 156h374l-116 -545q-2 -11 -6 -32t-6.5 -43t-2.5 -36
q0 -39 10 -59.5t32 -20.5q17 0 37 10t39 24l5 -8q-14 -13 -38 -27t-51 -23.5t-52 -9.5q-36 0 -57 22t-21 61q0 13 2.5 33t7.5 45h-3q-23 -51 -52 -87t-63.5 -55t-74.5 -19zM215 17q24 0 48 17t45 44t36 58.5t21 60.5l66 312q-13 10 -34 17.5t-47 7.5q-40 0 -72.5 -24.5
t-57.5 -65.5t-41.5 -89.5t-25 -97t-8.5 -88.5q0 -55 9 -88t25 -48.5t36 -15.5z" />
    <glyph glyph-name="uni018D" unicode="&#x18d;" horiz-adv-x="577" 
d="M335 546q63 0 108.5 -23.5t69.5 -66t24 -99.5q0 -77 -32 -131t-93 -87t-147 -47q43 -30 71 -70t28 -86q0 -56 -27.5 -92.5t-72 -54.5t-96.5 -18q-56 0 -92 13.5t-54 34.5t-18 43q0 37 24.5 56.5t59.5 19.5q0 -45 6 -80.5t23.5 -56t52.5 -20.5q52 0 80.5 39t28.5 92
q0 25 -10.5 47t-32.5 43.5t-55 46.5q-39 28 -67 59.5t-43 66.5t-15 76q0 89 38 155.5t101 103t140 36.5zM334 536q-57 0 -97.5 -33.5t-62 -93.5t-21.5 -139q0 -44 14.5 -75t38 -54.5t50.5 -41.5q85 19 135.5 85.5t50.5 170.5q0 60 -12.5 100t-36.5 60.5t-59 20.5z" />
    <glyph glyph-name="uni018E" unicode="&#x18e;" horiz-adv-x="633" 
d="M-3 0l32 175h10q0 -4 -1.5 -15.5t-2.5 -23t-1 -19.5q0 -29 10.5 -53.5t33.5 -39t60 -14.5h193l77 360h-241l2 10h241l70 324h-168q-46 0 -77.5 -12t-52 -37.5t-34.5 -67.5l-16 -48h-10l44 175h511l-2 -10h-13q-22 0 -41.5 -4t-34 -18.5t-21.5 -44.5l-117 -555
q-1 -7 -2 -13t-1 -11q0 -31 20.5 -39.5t49.5 -8.5h13l-2 -10h-529z" />
    <glyph glyph-name="uni018F" unicode="&#x18f;" horiz-adv-x="674" 
d="M243 -10q-67 0 -114.5 18.5t-73 55t-25.5 89.5q0 34 12.5 67.5t42.5 64.5t82 54.5t130 37.5t188 14h36q3 23 5 45t2 41q0 60 -11 105t-32 74.5t-50.5 44t-66.5 14.5q-64 0 -115.5 -41t-96.5 -104q-4 4 -6.5 10t-2.5 11q0 30 17.5 55t48.5 42.5t72.5 27t89.5 9.5
q72 0 122 -22t81 -59.5t45 -86t14 -102.5q0 -65 -17 -131.5t-49.5 -126.5t-80.5 -106.5t-110 -73.5t-137 -27zM249 0q51 0 94.5 31t77.5 84.5t59 122t40 143.5h-37q-103 0 -170.5 -21.5t-106.5 -58t-55 -82t-16 -92.5q0 -58 26.5 -92.5t87.5 -34.5z" />
    <glyph glyph-name="uni0190" unicode="&#x190;" horiz-adv-x="600" 
d="M277 -11q-65 0 -120.5 17.5t-89 56t-33.5 101.5q0 48 18 85t52.5 63t85 41t115.5 19v1q-42 5 -75 16.5t-55 30t-33.5 43.5t-11.5 58q0 54 22.5 93t61 63t86 35.5t97.5 11.5q98 0 151 -34.5t53 -85.5q0 -29 -13 -46.5t-35 -25t-48 -7.5q0 57 -12.5 99.5t-38.5 66t-66 23.5
q-44 0 -79.5 -22.5t-55.5 -67.5t-20 -111q0 -42 15.5 -73t43.5 -48t65 -17h85l-2 -10h-85q-63 0 -110 -21t-72.5 -67t-25.5 -120q0 -78 33 -118t103 -40q41 0 76.5 13t68 44t63.5 84q7 -4 10.5 -11t3.5 -17q0 -27 -16.5 -49.5t-47 -39t-72 -25.5t-92.5 -9z" />
    <glyph glyph-name="uni0191" unicode="&#x191;" horiz-adv-x="729" 
d="M77 -240q-50 0 -87 13.5t-57.5 39t-20.5 60.5q0 27 12.5 41.5t28.5 19.5t28 5q-1 -8 -1.5 -16t-0.5 -16q0 -57 24 -97t78 -40q53 0 74 32.5t32 85.5l155 748q2 6 3 15t1 13q0 26 -20 33t-52 7h-13l2 10h504l-32 -175h-10q1 11 2 22.5t2 21t1 14.5q0 46 -21.5 76.5
t-73.5 30.5h-177l-69 -328h241l-2 -10h-241l-92 -441q-10 -48 -37 -85.5t-72 -58.5t-109 -21z" />
    <glyph glyph-name="florin" unicode="&#x192;" horiz-adv-x="409" 
d="M19 -241q-57 0 -87 22t-30 55t19 47.5t52 14.5q0 -35 3 -64.5t14 -47t34 -17.5q35 0 53.5 40t37.5 128l127 589h-92l1 6l92 4l11 55q17 86 62.5 132.5t127.5 46.5q64 0 96.5 -20.5t32.5 -53.5t-21.5 -49t-61.5 -16q1 53 -8 91t-40 38q-25 0 -41 -15.5t-27.5 -50.5
t-23.5 -94l-13 -64h111l-2 -10h-111l-124 -577q-20 -93 -64.5 -141.5t-127.5 -48.5z" />
    <glyph glyph-name="uni0193" unicode="&#x193;" horiz-adv-x="714" 
d="M691 605l-3 35l13 64q17 80 36 116.5t58 36.5q25 0 42.5 -14t17.5 -40q0 -10 -5.5 -20.5t-16.5 -19.5q-9 8 -20.5 13t-23.5 5q-20 0 -35 -7t-25 -25t-18 -52zM345 -10q-141 0 -212.5 72t-71.5 196q0 77 20 147t57.5 128.5t90.5 101t119 66t143 23.5q53 0 93 -8.5
t66 -23.5t39 -34.5t13 -41.5q0 -26 -13 -43.5t-34.5 -26.5t-48.5 -9q0 52 -8 91.5t-35 62.5t-83 23q-44 0 -84 -17.5t-74.5 -49.5t-62.5 -75.5t-48 -96.5t-30.5 -112t-10.5 -121q0 -71 14.5 -126t53 -85.5t109.5 -30.5q33 0 65 4t54 10l50 238q2 6 3 15t1 13q0 26 -21.5 33
t-50.5 7h-9l2 10h266l-2 -10h-4q-18 0 -35 -5t-30 -20t-20 -47l-45 -212q-55 -23 -108 -34.5t-118 -11.5z" />
    <glyph glyph-name="uni0194" unicode="&#x194;" horiz-adv-x="641" 
d="M208 -240q-52 0 -77.5 27t-25.5 77q0 20 7 44.5t23.5 55.5t44.5 72t70 94l-111 521q-4 21 -10.5 32.5t-17.5 16t-31 4.5h-4l3 10h263l-2 -10h-23q-32 0 -52 -14t-20 -42q0 -11 1.5 -22.5t5.5 -28.5l75 -380l263 395q11 17 15.5 29t4.5 25q0 20 -21 29t-60 9h-23l1 10h237
l-2 -10h-9q-26 0 -44.5 -5t-37 -23t-44.5 -57l-277 -414q13 -60 21 -107t12 -83.5t4 -68.5q0 -44 -12 -78.5t-33.5 -58.5t-50.5 -36.5t-63 -12.5zM199 -230q22 0 39.5 13.5t28 47.5t10.5 95q0 26 -3.5 59t-9 67.5t-11.5 63.5q-50 -60 -80.5 -108.5t-44 -84.5t-13.5 -59
q0 -35 11 -56t30.5 -29.5t42.5 -8.5z" />
    <glyph glyph-name="uni0195" unicode="&#x195;" horiz-adv-x="882" 
d="M543 -10q-60 0 -98.5 17t-57 46t-18.5 66q0 10 1 20t3 21t4 23l28 120q3 14 8 35.5t9 47t4 48.5q0 18 -4 37.5t-15.5 33t-34.5 13.5q-28 0 -55.5 -20t-50.5 -50t-38.5 -62.5t-20.5 -56.5l-70 -329h-93l137 650q5 20 7 34.5t2 18.5q0 30 -20.5 38.5t-49.5 8.5h-8l2 10h184
l-39 -184q-6 -27 -11.5 -52.5t-11 -48t-9.5 -39.5t-7 -26h4q28 44 57.5 74t62.5 45.5t71 15.5q40 0 63 -15.5t33.5 -40.5t10.5 -55q0 -25 -6.5 -54.5t-11.5 -55.5l-31 -142q-4 -19 -7 -36t-3 -45q0 -49 21 -75t61 -26q38 0 62 21t38.5 59.5t25.5 90.5l76 365h97l-78 -373
q-7 -36 -20.5 -64t-32.5 -48.5t-44 -34t-56.5 -20t-69.5 -6.5z" />
    <glyph glyph-name="uni0196" unicode="&#x196;" horiz-adv-x="360" 
d="M207 -10q-40 0 -66.5 13t-39 39t-12.5 65q0 18 3 41.5t7 42.5l95 445q2 6 3 15t1 13q0 26 -20 33t-52 7h-13l2 10h291l-2 -10h-13q-22 0 -41.5 -5t-34 -20t-21.5 -47l-97 -452q-4 -25 -9 -48.5t-5 -56.5q0 -40 15.5 -55t41.5 -15q14 0 26.5 2t23.5 5l2 -10
q-22 -6 -43.5 -9t-41.5 -3z" />
    <glyph glyph-name="uni0197" unicode="&#x197;" horiz-adv-x="378" 
d="M56 369l2 10h293l-2 -10h-293zM-19 0l1 10h13q34 0 61 12.5t37 59.5l118 554q2 6 3 15t1 13q0 26 -20 33t-52 7h-13l2 10h291l-2 -10h-13q-34 0 -60.5 -12.5t-36.5 -59.5l-118 -554q-1 -6 -2.5 -14.5t-1.5 -13.5q0 -25 20.5 -32.5t51.5 -7.5h13l-2 -10h-291z" />
    <glyph glyph-name="uni0198" unicode="&#x198;" horiz-adv-x="705" 
d="M-21 0l1 10h13q23 0 42.5 5t34.5 20.5t21 46.5l118 554q2 6 3 15t1 13q0 26 -20 33t-52 7h-13l2 10h291l-2 -10h-13q-22 0 -42 -5t-34 -20t-21 -47l-72 -335l328 319q30 29 51.5 53.5t42.5 39.5t51 15q21 0 38.5 -13.5t17.5 -44.5q0 -32 -18 -51t-41 -20q-2 14 -7 25
t-15.5 17.5t-29.5 6.5q-14 0 -29 -4.5t-30.5 -14t-32.5 -25.5l-160 -155l138 -323q16 -36 27.5 -61t25.5 -38t34 -13h4l-2 -10h-14q-45 0 -75 5t-49.5 15.5t-32 28.5t-23.5 44l-112 275l-90 -87l-43 -203q-1 -6 -2.5 -14.5t-1.5 -13.5q0 -25 20.5 -32.5t51.5 -7.5h13l-2 -10
h-291z" />
    <glyph glyph-name="uni0199" unicode="&#x199;" horiz-adv-x="572" 
d="M515 -7q-54 0 -86.5 8t-53 30t-40.5 64l-86 179l-67 -58l-45 -216h-93l124 591q12 57 34 97t56.5 61t85.5 21q39 0 65.5 -9.5t40 -26t13.5 -38.5q0 -33 -21.5 -49t-61.5 -16q0 36 -3 65t-12 46.5t-27 17.5q-20 0 -32 -18t-21 -53.5t-21 -88.5l-57 -258q-8 -37 -14.5 -66
t-10.5 -46l209 180q43 37 58 54t15 34q0 9 -7 15t-26 9.5t-55 3.5l2 10h221l-2 -10q-40 0 -82 -30t-95 -75l-103 -89l110 -213q19 -35 31.5 -61.5t27.5 -40.5t38 -14l-2 -10h-7z" />
    <glyph glyph-name="uni019A" unicode="&#x19a;" horiz-adv-x="301" 
d="M38 384l2 10h270l-2 -10h-270zM156 -10q-40 0 -61.5 28t-21.5 67q0 21 4 50t9 58.5t9 48.5l89 416q3 14 4.5 27.5t1.5 17.5q0 30 -20.5 38.5t-49.5 8.5h-12l2 10h189l-116 -545q-2 -11 -6 -32t-7 -43t-3 -36q0 -37 10 -55t36 -18q17 0 35 7.5t37 19.5l5 -8
q-14 -13 -36 -27t-47.5 -23.5t-50.5 -9.5z" />
    <glyph glyph-name="uni019B" unicode="&#x19b;" horiz-adv-x="527" 
d="M180 551l2 12l299 152l-3 -13zM358 579q-3 48 -17.5 76t-39 40t-57.5 12q-29 0 -52 -14t-37 -32q-5 4 -8 15t-3 22q0 29 20.5 50.5t66.5 21.5q39 0 67.5 -18t46 -58.5t21.5 -107.5l24 -367q5 -65 17.5 -104t33.5 -56t49 -17h5l-7 -42h-3q-33 0 -53.5 16.5t-32 61
t-18.5 128.5q-2 30 -4.5 67l-5 74t-4 66t-1.5 43h-2q-16 -29 -34.5 -60.5t-37 -60.5t-33.5 -53l-182 -282h-105z" />
    <glyph glyph-name="uni019C" unicode="&#x19c;" horiz-adv-x="1043" 
d="M215 -9q-33 0 -56.5 12t-38 31.5t-21.5 44t-7 49.5q0 28 7 62t13 62l82 384q2 6 3 15t1 13q0 26 -20 33t-52 7h-13l2 10h291l-2 -10h-13q-22 0 -42 -5t-34.5 -20t-21.5 -47l-74 -351q-7 -31 -14.5 -74.5t-7.5 -81.5q0 -42 16.5 -75.5t56.5 -33.5q24 0 50.5 18t52.5 49
t48.5 71t39 84.5t23.5 87.5l66 310q2 6 3 15t1 13q0 26 -20 33t-52 7h-13l2 10h291l-2 -10h-13q-22 0 -41.5 -4.5t-33.5 -18.5t-21 -44l-76 -356q-7 -31 -14.5 -74.5t-7.5 -81.5q0 -42 16.5 -75.5t56.5 -33.5q24 0 50.5 18t52.5 49t48.5 71t39 84.5t23.5 87.5l66 310
q2 6 3 15t1 13q0 26 -20 33t-52 7h-13l2 10h291l-2 -10h-13q-22 0 -41.5 -4.5t-33.5 -18.5t-21 -44l-116 -541q-4 -19 -6 -30t-2 -16q0 -25 20.5 -32.5t51.5 -7.5h13l-2 -10h-188l46 227h-1q-56 -128 -116 -182t-136 -54q-44 0 -71 20.5t-38.5 52t-11.5 64.5q0 17 1.5 30.5
t5.5 29.5t11 42h-1q-36 -87 -75 -139.5t-82.5 -76t-94.5 -23.5z" />
    <glyph glyph-name="uni019D" unicode="&#x19d;" horiz-adv-x="774" 
d="M-109 -240q-18 0 -37 3t-34 8l3 10q13 -4 28 -6.5t34 -2.5q46 0 86.5 21t72 69.5t48.5 131.5l137 642q2 6 3 15t1 13q0 26 -25.5 33t-66.5 7h-13l2 10h195l255 -576l106 498q2 7 3 15.5t1 12.5q0 26 -29 33t-74 7h-13l2 10h251l-2 -10h-13q-27 0 -51 -4t-41.5 -19.5
t-24.5 -48.5l-134 -632h-30l-288 652l-141 -660q-19 -90 -47.5 -140.5t-69 -71t-94.5 -20.5z" />
    <glyph glyph-name="uni019E" unicode="&#x19e;" horiz-adv-x="592" 
d="M319 -240q-2 8 -3 18t-1 20q0 31 6 68.5t14 75.5l83 382q9 43 13 70t4 55q0 32 -13.5 57t-51.5 25q-28 0 -54.5 -15t-48 -39.5t-36 -53t-19.5 -55.5l-75 -368h-94l72 339q6 25 9.5 56.5t5 62t1.5 52.5v15t-1 11h57q10 -17 15.5 -38.5t8.5 -44t3 -42.5h2q17 32 40.5 63
t56 51.5t75.5 20.5q66 0 101 -32t35 -97q0 -15 -2 -31.5t-6 -35.5l-89 -420q-7 -35 -11.5 -66.5t-4.5 -57.5q0 -13 1 -24.5t3 -21.5h-96z" />
    <glyph glyph-name="uni019F" unicode="&#x19f;" horiz-adv-x="742" 
d="M125 365v10h511v-10h-511zM323 -11q-74 0 -133.5 31.5t-94 93.5t-34.5 152q0 58 16 121t48.5 123t80.5 108.5t112 77.5t143 29q69 0 128 -29t95 -89.5t36 -156.5q0 -46 -11 -97.5t-32.5 -103.5t-54.5 -98.5t-77 -83t-99.5 -57.5t-122.5 -21zM329 -1q58 0 103.5 32
t79 84.5t55.5 116t32.5 127.5t10.5 118q0 93 -20.5 144.5t-55.5 72.5t-81 21q-58 0 -104 -32t-79.5 -84.5t-55.5 -116t-33 -127.5t-11 -117q0 -94 21 -146t57.5 -72.5t80.5 -20.5z" />
    <glyph glyph-name="Ohorn" unicode="&#x1a0;" horiz-adv-x="778" 
d="M314 -11q-74 0 -133.5 31.5t-94 93.5t-34.5 152q0 58 16 121t48.5 123t80.5 108.5t112 77.5t143 29q51 0 98 -16t84 -50.5t59 -92.5q29 11 54 28t25 46q0 12 -7 20.5t-15.5 16t-15.5 17t-7 24.5q0 25 17 38.5t42 13.5q27 0 42.5 -15.5t15.5 -40.5q0 -40 -20.5 -69.5
t-54 -51t-73.5 -36.5q8 -23 11.5 -50t3.5 -57q0 -46 -11 -97.5t-32.5 -103.5t-54.5 -98.5t-77 -83t-99.5 -57.5t-122.5 -21zM317 -1q59 0 105.5 32t80 84.5t55.5 116t32.5 127.5t10.5 118q0 83 -18 135.5t-52 77.5t-83 25q-60 0 -106.5 -32t-80.5 -84.5t-56.5 -116
t-33 -127.5t-10.5 -117q0 -84 18.5 -136.5t53.5 -77.5t84 -25z" />
    <glyph glyph-name="ohorn" unicode="&#x1a1;" horiz-adv-x="607" 
d="M235 -10q-85 0 -138.5 51.5t-53.5 155.5q0 44 11.5 92.5t35 94t59 82.5t83.5 58.5t109 21.5q39 0 73.5 -11.5t61.5 -37.5t43 -71q19 7 37 16.5t29.5 22.5t11.5 30q0 13 -7 21.5t-15.5 16.5t-15.5 18t-7 25q0 25 17 38.5t42 13.5q27 0 42.5 -15.5t15.5 -40.5
q0 -40 -20.5 -69t-53.5 -50t-73 -36q5 -17 7 -36.5t2 -41.5q0 -43 -11 -90.5t-34 -93.5t-58 -83t-83 -59.5t-110 -22.5zM246 0q39 0 69 23.5t51 62.5t34.5 86t20 94.5t6.5 87.5q0 66 -11.5 106t-33 58t-51.5 18q-39 0 -69.5 -23.5t-52 -63t-35.5 -87t-20.5 -96t-6.5 -89.5
q0 -97 27 -137t72 -40z" />
    <glyph glyph-name="uni01A2" unicode="&#x1a2;" horiz-adv-x="1076" 
d="M660 -240l2 10h13q22 0 42 5t35 20.5t21 46.5l131 619q9 41 14.5 71t8.5 55.5t3 51.5q0 29 -10.5 50.5t-42.5 21.5q-26 0 -53 -16.5t-53 -48t-49 -76t-41 -101.5l-4 19q28 80 62 132t74 77.5t86 25.5t72 -20.5t37 -51.5t11 -65q0 -28 -4 -63t-12 -70l-131 -615
q-1 -6 -2.5 -14.5t-1.5 -13.5q0 -25 20.5 -32.5t51.5 -7.5h13l-2 -10h-291zM323 -11q-74 0 -133.5 31.5t-94 93.5t-34.5 152q0 58 16 121t48.5 123t80.5 108.5t112 77.5t143 29q69 0 128 -29t95 -89.5t36 -156.5q0 -46 -11 -97.5t-32.5 -103.5t-54.5 -98.5t-77 -83
t-99.5 -57.5t-122.5 -21zM329 -1q58 0 103.5 32t79 84.5t55.5 116t32.5 127.5t10.5 118q0 93 -20.5 144.5t-55.5 72.5t-81 21q-58 0 -104 -32t-79.5 -84.5t-55.5 -116t-33 -127.5t-11 -117q0 -94 21 -146t57.5 -72.5t80.5 -20.5z" />
    <glyph glyph-name="uni01A3" unicode="&#x1a3;" horiz-adv-x="882" 
d="M602 -240q-2 8 -3 18t-1 20q0 31 6 68.5t14 75.5l88 413q5 25 8 46.5t3 42.5q0 25 -6 43t-20.5 28.5t-38.5 10.5q-37 0 -64 -24.5t-45 -63.5t-29 -83.5t-17 -84.5q-7 -40 -21 -80t-36.5 -75.5t-54 -64t-72 -44.5t-90.5 -16q-53 0 -93.5 23t-63.5 68.5t-23 115.5
q0 44 11 92.5t33.5 94t56.5 82.5t80.5 58.5t104.5 21.5q38 0 76.5 -17t66 -55t32.5 -103h1q19 65 45.5 103.5t59 55t68.5 16.5q41 0 69.5 -14.5t44 -43t15.5 -71.5q0 -15 -2 -31.5t-6 -35.5l-89 -420q-5 -23 -9 -45t-5.5 -41.5t-1.5 -37.5q0 -13 1 -24.5t3 -21.5h-96zM234 0
q36 0 64 23.5t48 62t32.5 85.5t18.5 95t6 88q0 98 -19 140t-63 42q-37 0 -65.5 -24t-49 -63t-34 -87t-19.5 -96t-6 -89q0 -65 9.5 -104t29 -56t48.5 -17z" />
    <glyph glyph-name="uni01A4" unicode="&#x1a4;" horiz-adv-x="705" 
d="M57 0l2 10h13q33 0 59.5 12.5t36.5 59.5l117 552q2 6 3 16t1 14q0 23 -16.5 31.5t-37.5 8.5q-31 0 -51.5 -15t-30.5 -41t-10 -59q0 -10 3 -19t8 -17q-9 -7 -18 -10.5t-20 -3.5q-22 0 -35 15t-13 32q0 35 16 64t51 46.5t90 17.5h238q70 0 121 -22t79 -64.5t28 -106.5
q0 -30 -7.5 -63.5t-26.5 -65.5t-53.5 -57.5t-88 -41t-130.5 -15.5h-74l-43 -200q-1 -6 -2.5 -14.5t-1.5 -13.5q0 -25 20.5 -32.5t51.5 -7.5h33l-2 -10h-310zM367 288q61 0 102.5 17t67 48t37 73.5t11.5 93.5q0 66 -16 106.5t-46.5 59t-75.5 18.5h-46l-87 -416h53z" />
    <glyph glyph-name="uni01A5" unicode="&#x1a5;" horiz-adv-x="578" 
d="M168 591q18 86 59 132.5t117 46.5q39 0 65.5 -9.5t40 -26t13.5 -38.5q0 -33 -21.5 -49t-61.5 -16q0 36 -3 65t-11.5 46.5t-25.5 17.5q-21 0 -33.5 -18t-22 -53.5t-20.5 -88.5l-20 -98q-4 -19 -8 -35.5t-8 -31.5t-9 -32h2q21 39 47 71.5t60 52t79 19.5q41 0 69 -21t43 -61
t15 -99q0 -43 -12 -93.5t-35.5 -100.5t-59 -91t-83.5 -65.5t-108 -24.5q-29 0 -51 7.5t-43 21.5q-4 -15 -6 -26t-6 -28l-21 -93q-1 -6 -5 -25.5t-4 -30.5q0 -30 21 -38t49 -8h13l-2 -10h-188zM233 1q38 0 69.5 24.5t55.5 64.5t40.5 88.5t25 97.5t8.5 90q0 37 -5 71.5
t-20 56.5t-45 22q-27 0 -52 -18t-45.5 -45.5t-34 -55.5t-17.5 -48l-68 -319q12 -8 32.5 -18.5t55.5 -10.5z" />
    <glyph glyph-name="uni01A6" unicode="&#x1a6;" horiz-adv-x="655" 
d="M552 -120q-58 0 -92.5 9.5t-54 35t-31.5 72.5l-54 219h-99l-31 -138q-1 -6 -2.5 -14.5t-1.5 -13.5q0 -25 20.5 -32.5t51.5 -7.5h23l-2 -10h-300l2 10h13q22 0 41 4.5t33.5 18.5t20.5 44l121 559q2 6 3 15t1 13q0 26 -20 33t-52 7h-13l2 10h291l-2 -10h-13q-22 0 -42 -5
t-34 -20.5t-21 -46.5l-8 -38h65q77 0 128 -17.5t76 -53.5t25 -93q0 -44 -15.5 -77.5t-42 -58t-57.5 -41.5t-63 -27l65 -225q11 -37 20.5 -62t22.5 -37t33 -12h8l-2 -10h-13zM300 226q47 0 82 12.5t59.5 38.5t36.5 65t12 93q0 57 -12 89.5t-39 46t-72 13.5h-68l-76 -358h77z
" />
    <glyph glyph-name="uni01A7" unicode="&#x1a7;" horiz-adv-x="550" 
d="M239 -10q-80 0 -127.5 25t-67.5 66t-20 90q0 54 22 91.5t58 63.5t80 45.5t87 38.5q44 19 78.5 36.5t59 37.5t37.5 47t13 66q0 62 -32.5 89.5t-71.5 27.5q-35 0 -61 -20t-43 -59t-28 -96q-31 0 -52.5 12.5t-21.5 43.5q0 19 12 41t37 42t64 33t93 13q62 0 104 -21t64 -56.5
t22 -80.5q0 -54 -21 -91.5t-56 -63.5t-77.5 -46t-85.5 -39q-36 -16 -70.5 -33.5t-62 -39.5t-43.5 -52t-16 -71t16.5 -70.5t45.5 -44.5t67 -15q32 0 60 11t53 30.5t46.5 45t39.5 53.5q8 -4 13.5 -14t5.5 -24q0 -25 -30 -51t-80 -43.5t-111 -17.5z" />
    <glyph glyph-name="uni01A8" unicode="&#x1a8;" horiz-adv-x="466" 
d="M193 -10q-80 0 -120.5 39.5t-40.5 100.5q0 29 8 54t29.5 48.5t60.5 46t101 46.5q54 21 82 39.5t38 38.5t10 45q0 42 -22.5 65t-59.5 23q-47 0 -71.5 -38.5t-34.5 -112.5q-31 0 -50 12t-19 39q0 26 17.5 51t55 42t96.5 17q51 0 84.5 -17.5t50 -46.5t16.5 -66
q0 -38 -15.5 -67.5t-47.5 -53.5t-83 -44q-78 -31 -117 -54.5t-52 -46.5t-13 -52q0 -39 26.5 -68t85.5 -29q33 0 61.5 16t51 46.5t37.5 72.5q7 -4 14 -15.5t7 -22.5q0 -25 -18.5 -50t-59 -41.5t-108.5 -16.5z" />
    <glyph glyph-name="uni01A9" unicode="&#x1a9;" horiz-adv-x="605" 
d="M-35 0l6 32l294 289l-141 383l2 10h480l-32 -175h-10q3 30 4 42t1 16q0 45 -19.5 76t-69.5 31h-244l110 -307l-7 -17l-292 -288h368q31 0 53 12.5t36.5 34t24.5 48.5l11 30h10l-51 -217h-534z" />
    <glyph glyph-name="uni01AA" unicode="&#x1aa;" horiz-adv-x="290" 
d="M134 -240q-24 0 -43 7t-31.5 21.5t-19.5 36.5t-7 52q0 18 3 41.5t7 42.5l126 595q-12 -15 -28.5 -19.5t-30.5 -4.5q-48 0 -72.5 28.5t-24.5 74.5q0 38 17 67.5t48.5 46t73.5 16.5q45 0 72 -16.5t39 -42.5t12 -57q0 -21 -3.5 -43t-8.5 -47l-126 -595q-5 -25 -8.5 -48.5
t-3.5 -46.5q0 -38 17.5 -56.5t47.5 -18.5q19 0 38 5.5t37 14.5l5 -8q-30 -21 -61 -33.5t-75 -12.5zM111 542q28 0 45 14t25.5 40t8.5 61q0 41 -16.5 66t-51.5 25q-25 0 -48 -14t-37 -39.5t-14 -59.5q0 -26 9.5 -47.5t29 -33.5t49.5 -12z" />
    <glyph glyph-name="uni01AB" unicode="&#x1ab;" horiz-adv-x="368" 
d="M173 -197q-33 0 -52 13t-19 35q0 14 5.5 25.5t16.5 20.5q11 -10 25.5 -15.5t45.5 -5.5q29 0 56.5 15t37.5 60l17 79q-28 -18 -58.5 -29t-64.5 -11q-36 0 -60 13t-36.5 39t-12.5 65q0 12 1.5 27t4 30l4.5 27l71 335h-76l2 10q41 0 70 6.5t50 21t36.5 38t29.5 57.5h10
l-26 -123h121l-2 -10h-121l-71 -332l-6 -32t-4.5 -29.5t-1.5 -24.5q0 -45 18 -64.5t51 -19.5q19 0 41.5 7t43.5 20l-21 -106q-14 -70 -42 -106t-84 -36z" />
    <glyph glyph-name="uni01AC" unicode="&#x1ac;" horiz-adv-x="623" 
d="M92 0l2 10h23q22 0 41.5 4.5t34 18.5t20.5 44l134 627h-85q-37 0 -63.5 -12.5t-41 -36t-14.5 -55.5q0 -19 3 -29t8 -18q-9 -7 -18 -10.5t-20 -3.5q-22 0 -35 15t-13 32q0 52 44 90t143 38h426l-32 -175h-10q1 6 2 19.5t2 26t1 15.5q0 43 -20.5 73.5t-78.5 30.5h-97
l-134 -626q-1 -6 -2.5 -14.5t-1.5 -13.5q0 -17 9.5 -25.5t25.5 -11.5t37 -3h23l-2 -10h-311z" />
    <glyph glyph-name="uni01AD" unicode="&#x1ad;" horiz-adv-x="367" 
d="M183 -10q-36 0 -60 13t-36.5 39t-12.5 65q0 12 1.5 27t4 30l4.5 27l71 335h-76l3 10q35 0 64 4.5t52.5 16t40 32t26.5 52.5q13 43 24 69t26 38t41 12q23 0 38 -13.5t15 -37.5q0 -12 -5.5 -23t-16.5 -20q-7 8 -19.5 13t-24.5 5q-33 0 -51 -19.5t-28 -66.5l-13 -62h121
l-2 -10h-121l-71 -332q-3 -16 -6 -32.5t-4.5 -31.5t-1.5 -29q0 -39 16.5 -59t48.5 -20q21 0 43.5 8t38.5 17l5 -9q-30 -21 -63.5 -34.5t-71.5 -13.5z" />
    <glyph glyph-name="uni01AE" unicode="&#x1ae;" horiz-adv-x="623" 
d="M296 -240q-61 0 -89.5 29t-28.5 88q0 12 1.5 27t4 30l4.5 27l158 743h-96q-44 0 -73 -17t-47 -44.5t-30 -60.5l-14 -43h-10l42 175h563l-32 -175h-10q1 6 2 19.5t2 26t1 15.5q0 43 -21.5 73.5t-78.5 30.5h-97l-161 -754q-3 -13 -5.5 -25.5t-4.5 -24t-3 -24t-1 -27.5
q0 -42 16 -58t38 -16q17 0 26.5 2.5t20.5 5.5l2 -10q-13 -6 -36 -9.5t-43 -3.5z" />
    <glyph glyph-name="Uhorn" unicode="&#x1af;" horiz-adv-x="778" 
d="M323 -10q-109 0 -168 45.5t-59 127.5q0 16 3.5 44t7.5 45l80 384q2 6 3 15t1 13q0 26 -20 33t-52 7h-13l3 10h291l-2 -10h-13q-22 0 -42 -5t-34.5 -20t-21.5 -47l-81 -385l-6 -34t-4.5 -35.5t-1.5 -41.5q0 -41 16.5 -72t47.5 -47.5t75 -16.5q50 0 84 16t56 44t36 65.5
t23 80.5l92 430q2 6 3 15t1 13q0 26 -20 33t-52 7h-13l2 10h156l-34 -160q26 4 48.5 11.5t39 18.5t26 25t9.5 31q0 13 -7 21t-15.5 15t-15.5 16.5t-7 25.5q0 25 17 38.5t42 13.5q27 0 42.5 -15.5t15.5 -40.5q0 -42 -24 -77t-68 -59t-105 -34l-72 -340q-14 -66 -47 -114
t-88 -74t-135 -26z" />
    <glyph glyph-name="uhorn" unicode="&#x1b0;" horiz-adv-x="653" 
d="M456 -10q-26 0 -45 13t-29 34.5t-10 47.5q0 8 0.5 17.5t1.5 20t2 21.5h-3q-25 -44 -53 -78.5t-63 -54.5t-81 -20q-39 0 -62.5 15.5t-34 41t-10.5 54.5q0 25 6 55t12 55l46 207q3 14 6 33t3 27q0 30 -20.5 38.5t-49.5 8.5h-8l2 10h186l-66 -299q-4 -18 -8.5 -41.5t-8 -46
t-3.5 -37.5q0 -42 12.5 -67t46.5 -25q24 0 49.5 18t48.5 47t39 60.5t22 58.5l71 332h97l-27 -124q36 8 64 19.5t43.5 27.5t15.5 36q0 13 -7 21.5t-15.5 16.5t-15.5 18t-7 25q0 25 17 38.5t42 13.5q27 0 42.5 -15.5t15.5 -40.5q0 -50 -28.5 -84.5t-73.5 -55.5t-95 -30
l-40 -187q-2 -11 -6 -32t-6.5 -43t-2.5 -36q0 -39 11.5 -58.5t33.5 -19.5q17 0 31.5 6.5t33.5 20.5l5 -7q-22 -19 -55.5 -37.5t-71.5 -18.5z" />
    <glyph glyph-name="uni01B1" unicode="&#x1b1;" horiz-adv-x="742" 
d="M323 -11q-74 0 -133.5 31.5t-94 93.5t-34.5 152q0 71 21 139.5t55.5 128t72.5 100.5q17 18 25 30t8 23q0 10 -10 13.5t-30 3.5h-40l2 10h229l-2 -10q-46 -28 -81.5 -69t-62 -90t-44 -102t-26 -105.5t-8.5 -99.5q0 -94 21 -146t57.5 -72.5t80.5 -20.5q58 0 103.5 32
t79 84.5t55.5 116t32.5 127.5t10.5 118q0 63 -8.5 105t-23.5 71t-35 51l2 10h201l-2 -10h-41q-23 0 -31.5 -5t-8.5 -16q0 -10 5 -22.5t15 -33.5q19 -37 28 -81.5t9 -95.5q0 -46 -11 -97.5t-32.5 -103.5t-54.5 -98.5t-77 -83t-99.5 -57.5t-122.5 -21z" />
    <glyph glyph-name="uni01B2" unicode="&#x1b2;" horiz-adv-x="719" 
d="M251 -10q-59 0 -94.5 20.5t-51 55t-15.5 75.5q0 25 3.5 47.5t7.5 39.5l86 408q2 6 3 15t1 13q0 26 -20 33t-52 7h-13l3 10h291l-2 -10h-13q-22 0 -42 -5t-34.5 -20t-21.5 -47l-90 -422q-5 -25 -8.5 -44t-3.5 -46q0 -50 29 -79.5t79 -29.5q61 0 115 36t98.5 94.5
t76.5 128.5t49.5 140.5t17.5 127.5q0 61 -20.5 83t-58.5 22q-17 0 -32.5 -4t-29.5 -12q0 21 9 42.5t30 36t57 14.5q50 0 74.5 -34.5t24.5 -90.5q0 -65 -16 -134.5t-46 -137.5t-71 -128t-91.5 -106t-108 -72.5t-120.5 -26.5z" />
    <glyph glyph-name="uni01B3" unicode="&#x1b3;" horiz-adv-x="633" 
d="M99 0l2 10h23q22 0 41.5 4.5t34 18.5t20.5 44l46 216l-116 358q-8 20 -14 31.5t-14 16.5t-25 5h-13l2 10h270l-2 -10h-50q-24 0 -36.5 -7t-12.5 -20t4 -26.5t9 -31.5l50 -166q7 -22 14.5 -48.5t15 -52.5t14.5 -50q27 46 55.5 95.5t55.5 98.5q26 45 47.5 85.5t43.5 71.5
t46 49t54 18q20 0 35.5 -7t24 -20t8.5 -31q0 -32 -18 -51t-41 -20q-3 20 -13.5 34.5t-36.5 14.5q-22 0 -38.5 -9t-33.5 -31.5t-40 -62t-57.5 -100t-86.5 -146.5l-46 -213q-1 -6 -2.5 -14.5t-1.5 -13.5q0 -25 20.5 -32.5t51.5 -7.5h23l-2 -10h-311z" />
    <glyph glyph-name="uni01B4" unicode="&#x1b4;" horiz-adv-x="556" 
d="M-12 -240q-31 0 -58.5 7t-44.5 15l3 10q20 -6 51.5 -9t58.5 -3q47 0 83.5 13t65 39.5t51.5 68.5t43 99h-53l-113 473q-4 20 -10.5 31.5t-16 16.5t-25.5 5h-6l2 10h146l63 -288q6 -27 11.5 -54t10 -51t8 -44.5t5.5 -34.5h1q15 38 27.5 74t24.5 70.5t25 70.5t28 74
q19 48 36.5 84.5t35.5 60.5t40.5 36t50.5 12q29 0 44.5 -14t15.5 -34t-12 -32t-26 -17q-1 15 -12.5 24t-34.5 9q-18 0 -39.5 -12.5t-46.5 -48.5t-53 -107q-12 -30 -27 -69.5t-32.5 -88t-37.5 -106.5q-27 -80 -54.5 -135.5t-59.5 -89.5t-73 -49.5t-96 -15.5z" />
    <glyph glyph-name="uni01B5" unicode="&#x1b5;" horiz-adv-x="601" 
d="M113 368l2 10h412l-2 -10h-412zM-20 0l2 10l525 694h-239q-45 0 -74.5 -14.5t-47.5 -41t-30 -62.5l-14 -47h-10l42 175h494l-2 -10l-526 -694h261q54 0 86.5 17t51.5 46.5t30 66.5l11 35h10l-42 -175h-528z" />
    <glyph glyph-name="uni01B6" unicode="&#x1b6;" horiz-adv-x="520" 
d="M72 271l2 10h334l-2 -10h-334zM-1 0l2 10l364 516h-130q-37 0 -63.5 -12.5t-45 -39t-31.5 -70.5l-3 -10h-10l40 142h350l-2 -10l-382 -516h175q47 0 76 13.5t47.5 42t33.5 73.5l8 23h10l-39 -162h-400z" />
    <glyph glyph-name="uni01B7" unicode="&#x1b7;" horiz-adv-x="623" 
d="M243 -11q-79 0 -130.5 18t-76.5 46.5t-25 59.5q0 41 27 61.5t67 20.5q0 -89 32.5 -142.5t111.5 -53.5q38 0 69 17t53 48.5t34 74.5t12 94q0 36 -10 64.5t-33 49t-60.5 31t-93.5 10.5h-20v5l320 240h-268q-30 0 -48 -4t-28.5 -17t-19.5 -41l-3 -9h-10l37 152h418l-8 -41
l-366 -275q108 0 174 -17.5t96 -54.5t30 -97q0 -49 -16.5 -92t-50.5 -76.5t-87 -52.5t-127 -19z" />
    <glyph glyph-name="uni01B8" unicode="&#x1b8;" horiz-adv-x="589" 
d="M276 -11q-59 0 -104 14t-75 40t-45 61.5t-15 77.5t13 78.5t39 65t63.5 49t86.5 30.5t109 8l-195 272l6 29h419l-32 -175h-10q1 8 1.5 16t0.5 12q0 28 -15.5 47t-55.5 19h-264l162 -226v-4h-33q-45 0 -81.5 -14.5t-62 -42.5t-39.5 -69.5t-14 -95.5q0 -50 16 -91.5t49 -66
t84 -24.5q43 0 79.5 19.5t67 51.5t53.5 69q8 -4 13.5 -14t5.5 -24q0 -25 -31.5 -51t-83 -43.5t-112.5 -17.5z" />
    <glyph glyph-name="uni01B9" unicode="&#x1b9;" horiz-adv-x="525" 
d="M234 -242q-79 0 -130 25t-75 68.5t-24 98.5q0 46 16.5 90.5t54 81.5t101.5 59t158 23l-224 295l8 37h391l-37 -176h-10q2 11 3 24t1 26q0 28 -17.5 38t-50.5 10h-244l192 -254l-3 -10h-19q-57 0 -98 -17.5t-67 -49t-38.5 -74.5t-12.5 -94q0 -68 17.5 -110t48 -61.5
t69.5 -19.5q32 0 59 11t48.5 29t37.5 40t26 45q5 -3 7.5 -10t2.5 -15q0 -22 -21 -47.5t-63.5 -44t-106.5 -18.5z" />
    <glyph glyph-name="uni01BA" unicode="&#x1ba;" horiz-adv-x="456" 
d="M152 -240q-61 0 -103 13.5t-63.5 37.5t-21.5 55q0 38 18.5 59.5t57 34t99.5 21.5q61 10 92.5 32.5t43 56.5t11.5 78q0 29 -11.5 57.5t-43 47t-92.5 18.5h-15l3 14l235 171h-217q-18 0 -30.5 -4.5t-22 -14.5t-17.5 -27l-8 -16h-10l40 142h336l-9 -48l-286 -207
q79 0 127.5 -13.5t74 -35t34.5 -47.5t9 -53q0 -34 -12.5 -60t-38 -44t-64 -30.5t-90.5 -20.5q-43 -7 -68.5 -18.5t-36.5 -33t-11 -58.5q0 -51 33.5 -74t73.5 -23q30 0 53.5 8t42 23.5t32.5 37t25 48.5q5 -2 8 -9.5t3 -15.5q0 -29 -19.5 -52.5t-59.5 -36.5t-102 -13z" />
    <glyph glyph-name="uni01BB" unicode="&#x1bb;" horiz-adv-x="595" 
d="M5 0l21 81l319 306h-215l2 10h221q52 61 68.5 116t16.5 107q0 47 -10.5 75.5t-30.5 41.5t-50 13q-45 0 -74.5 -22t-45.5 -63.5t-23 -100.5q-31 0 -51 14t-20 45q0 35 25.5 66t74.5 51t118 20q63 0 105 -17.5t63 -50.5t21 -78q0 -24 -7 -50t-21.5 -53t-37 -55.5
t-53.5 -58.5h99l-2 -10h-106l-372 -307h313q31 0 50 10.5t31 28t19 36.5l6 16h10l-40 -171h-424z" />
    <glyph glyph-name="uni01BC" unicode="&#x1bc;" horiz-adv-x="574" 
d="M197 -10q-62 0 -102.5 18.5t-60 47.5t-19.5 58q0 35 21.5 56.5t55.5 21.5q0 -70 13 -112.5t38 -61t61 -18.5q53 0 94.5 31t65 88t23.5 136q0 41 -7.5 70.5t-22.5 49.5t-36.5 29.5t-49.5 9.5h-120l48 222q2 6 3 15t1 13q0 24 -18.5 32t-49.5 8h-7l2 10h419l-32 -175h-10
q2 17 3.5 35.5t1.5 22.5q0 31 -10.5 55t-34 38t-64.5 14h-89l-60 -280h37q64 0 110 -17t71 -52.5t25 -92.5q0 -56 -21 -105.5t-60.5 -87t-95 -58.5t-123.5 -21z" />
    <glyph glyph-name="uni01BD" unicode="&#x1bd;" horiz-adv-x="527" 
d="M207 -10q-61 0 -100 18t-58 45t-19 54q0 19 9 34t27.5 23.5t45.5 8.5q0 -49 14 -88t38 -62t55 -23q33 0 62 18t47 58t18 105t-27 97.5t-72 32.5h-127l26 125l4 24t2 18q0 28 -17.5 38t-51.5 10h-9l2 10h390l-29 -136h-10v8v7q0 45 -12.5 69t-34 33t-48.5 9h-74l-43 -205
h66q60 0 95.5 -18.5t51 -48t15.5 -63.5q0 -59 -27.5 -104.5t-80 -71t-128.5 -25.5z" />
    <glyph glyph-name="uni01BE" unicode="&#x1be;" horiz-adv-x="439" 
d="M190 -10q-75 0 -120 30.5t-45 82.5q0 27 11 41.5t25.5 19.5t26.5 5q0 -34 6 -64.5t19.5 -54t35.5 -37t53 -13.5q33 0 57.5 14.5t37.5 43.5t13 73q0 24 -7.5 42t-23.5 34.5t-43 33.5q-23 16 -44.5 33.5t-34.5 40.5t-13 53q0 6 1 12.5t2 13.5l28 132h-76l2 10q27 0 52.5 5
t49 18t44.5 37t40 63h10l-26 -123h131l-2 -10h-131l-25 -116q-1 -4 -1.5 -7.5t-0.5 -7.5q0 -17 9.5 -32t26 -29t36.5 -29q26 -18 44.5 -38t28.5 -46.5t10 -65.5q0 -48 -25 -85.5t-71.5 -58.5t-110.5 -21z" />
    <glyph glyph-name="uni01BF" unicode="&#x1bf;" horiz-adv-x="580" 
d="M15 -240q-2 8 -3 18t-1 20q0 31 6 68t14 75l102 485q5 20 7 34.5t2 18.5q0 30 -20.5 38.5t-49.5 8.5h-8l2 10h177l-24 -133h2q22 39 47.5 71.5t59.5 52t79 19.5q61 0 94 -46.5t33 -134.5q0 -65 -24 -131t-72 -121.5t-120 -89t-168 -33.5h-7.5h-7.5l-14 -62
q-8 -35 -12.5 -65.5t-3.5 -56.5q0 -13 2 -24.5t4 -21.5h-96zM138 0q66 0 115 22.5t83.5 61.5t55.5 88.5t30.5 103t9.5 105.5q0 57 -15 96t-55 39q-22 0 -43 -12t-38.5 -31.5t-31.5 -41.5t-23 -43t-12 -36z" />
    <glyph glyph-name="uni01C0" unicode="&#x1c0;" horiz-adv-x="409" 
d="M118 0l161 760h60l-161 -760h-60z" />
    <glyph glyph-name="uni01C1" unicode="&#x1c1;" horiz-adv-x="647" 
d="M336 0l162 760h60l-162 -760h-60zM137 0l162 760h60l-162 -760h-60z" />
    <glyph glyph-name="uni01C2" unicode="&#x1c2;" horiz-adv-x="551" 
d="M185 0l59 276h-195l8 40h195l27 126h-195l9 40h195l59 278h60l-59 -278h196l-9 -40h-196l-27 -126h196l-8 -40h-196l-59 -276h-60z" />
    <glyph glyph-name="uni01C3" unicode="&#x1c3;" horiz-adv-x="333" 
d="M141 201l59 513h116l-160 -513h-15zM112 -8q-21 0 -33 11t-12 36q0 35 18 63t51 28q20 0 32.5 -11t12.5 -37q0 -24 -7.5 -44.5t-22.5 -33t-39 -12.5z" />
    <glyph glyph-name="uni01C4" unicode="&#x1c4;" horiz-adv-x="1318" 
d="M-19 0l2 10h13q34 0 61 12.5t37 59.5l117 554q2 7 3 14.5t1 13.5q0 27 -22.5 33.5t-49.5 6.5h-13l2 10h280q135 0 209.5 -69.5t74.5 -202.5q0 -71 -16.5 -137t-49.5 -121.5t-81.5 -96.5t-111.5 -64t-141 -23h-315zM265 11q60 0 110.5 21t89.5 60t66.5 93.5t41.5 122
t14 145.5q0 87 -20.5 142.5t-61 82t-100.5 26.5h-79l-148 -693h87zM693 0l2 10l525 694h-239q-45 0 -74.5 -14.5t-47.5 -41t-30 -62.5l-14 -47h-10l42 175h494l-2 -10l-526 -694h261q54 0 86.5 17t51.5 46.5t30 66.5l11 35h10l-42 -175h-528zM1052 771q-8 25 -21.5 52
t-28 53t-27.5 45l2 10h10q29 -20 59.5 -47t52.5 -54q23 18 51 36.5t57 35t55 29.5h10l-2 -10q-31 -29 -72 -70.5t-71 -79.5h-75z" />
    <glyph glyph-name="uni01C5" unicode="&#x1c5;" horiz-adv-x="1224" 
d="M-19 0l2 10h13q34 0 61 12.5t37 59.5l117 554q2 7 3 14.5t1 13.5q0 27 -22.5 33.5t-49.5 6.5h-13l2 10h280q135 0 209.5 -69.5t74.5 -202.5q0 -71 -16.5 -137t-49.5 -121.5t-81.5 -96.5t-111.5 -64t-141 -23h-315zM265 11q60 0 110.5 21t89.5 60t66.5 93.5t41.5 122
t14 145.5q0 87 -20.5 142.5t-61 82t-100.5 26.5h-79l-148 -693h87zM722 0l2 10l364 516h-130q-37 0 -63.5 -12.5t-45 -39t-31.5 -70.5l-3 -10h-10l40 142h350l-2 -10l-382 -516h175q47 0 76 13.5t47.5 42t33.5 73.5l8 23h10l-39 -162h-400zM972 606q-8 25 -21.5 52t-28 53
t-27.5 45l2 10h10q29 -20 59.5 -47t52.5 -54q23 18 51 36.5t57 35t55 29.5h10l-2 -10q-31 -29 -72 -70.5t-71 -79.5h-75z" />
    <glyph glyph-name="uni01C6" unicode="&#x1c6;" horiz-adv-x="1081" 
d="M162 -10q-44 0 -73 24t-42.5 65.5t-13.5 93.5q0 47 12.5 98.5t37.5 100t61 88t83 63t104 23.5q28 0 52 -6.5t43 -17.5q2 14 5 27t7 29l18 80q3 14 5.5 27t2.5 24q0 25 -18 33t-47 8h-13l2 10h184l-116 -545q-2 -11 -6 -32t-6.5 -43t-2.5 -36q0 -39 10 -59.5t32 -20.5
q17 0 37 10t39 24l5 -8q-14 -13 -38 -27t-51 -23.5t-52 -9.5q-36 0 -57 22t-21 61q0 13 2.5 33t7.5 45h-3q-23 -51 -52 -87t-63.5 -55t-74.5 -19zM205 17q24 0 47.5 17t44.5 44t36.5 58.5t21.5 60.5l67 312q-13 10 -34.5 17.5t-47.5 7.5q-40 0 -72.5 -24.5t-57.5 -65.5
t-41.5 -89.5t-25 -97t-8.5 -88.5q0 -55 9 -88t25 -48.5t36 -15.5zM579 0l2 10l364 516h-130q-37 0 -63.5 -12.5t-45 -39t-31.5 -70.5l-3 -10h-10l40 142h350l-2 -10l-382 -516h175q47 0 76 13.5t47.5 42t33.5 73.5l8 23h10l-39 -162h-400zM837 606q-8 25 -21.5 52t-28 53
t-27.5 45l2 10h10q29 -20 59.5 -47t52.5 -54q23 18 51 36.5t57 35t55 29.5h10l-2 -10q-31 -29 -72 -70.5t-71 -79.5h-75z" />
    <glyph glyph-name="uni01C7" unicode="&#x1c7;" horiz-adv-x="977" 
d="M-18 0l2 10h13q22 0 41.5 5t34 20.5t20.5 46.5l118 554q2 6 3 15t1 13q0 26 -20 33t-52 7h-13l2 10h291l-2 -10h-13q-33 0 -59.5 -11.5t-36.5 -56.5l-134 -626h219q39 0 66.5 18t45.5 48t28 64l22 75h10l-52 -215h-535zM547 -240q-27 0 -45.5 3t-36.5 8l3 10
q13 -4 31.5 -6.5t33.5 -2.5q37 0 66 19.5t50.5 67.5t37.5 132l137 645q2 6 3 15t1 13q0 26 -20 33t-52 7h-13l2 10h291l-2 -10h-13q-34 0 -60 -12.5t-37 -59.5l-137 -640q-17 -79 -47 -130.5t-77.5 -76.5t-115.5 -25z" />
    </font>
</defs>
</svg>
