<?xml version="1.0" encoding="UTF-8" standalone="no"?>
<svg width="156px" height="117px" viewBox="0 0 156 117" version="1.1" xmlns="http://www.w3.org/2000/svg" xmlns:xlink="http://www.w3.org/1999/xlink" xmlns:sketch="http://www.bohemiancoding.com/sketch/ns">
    <!-- Generator: Sketch 3.4.4 (17249) - http://www.bohemiancoding.com/sketch -->
    <title>Desktop HD</title>
    <desc>Created with Sketch.</desc>
    <defs></defs>
    <g id="Page-1" stroke="none" stroke-width="1" fill="none" fill-rule="evenodd" sketch:type="MSPage">
        <g id="Desktop-HD" sketch:type="MSArtboardGroup" transform="translate(-373.000000, -1207.000000)">
            <g id="news-+-Desktop-HD" sketch:type="MSLayerGroup" transform="translate(373.000000, 1207.000000)">
                <g id="news" transform="translate(24.000000, 0.000000)" sketch:type="MSShapeGroup">
                    <path d="M10.971746,10.8131195 L12.432381,107.551312 L100.00254,106.18688 L99.7987302,91.4510204 L98.5419048,9.48279883 L10.971746,10.8131195 Z" id="Shape" fill="#ACB3BA"></path>
                    <path d="M0.305714286,23.7752187 L26.2914286,116.931778 L79.1460317,102.059475 L75.171746,87.8693878 L106.694286,79.0005831 L84.6488889,0.0682215743 L0.305714286,23.7752187 Z" id="Shape" fill="#FFFFFF"></path>
                    <path d="M79.1460317,102.059475 L106.694286,79.0005831 L75.171746,87.8693878 L79.1460317,102.059475 Z" id="Shape" fill="#E6E9EE"></path>
                    <path d="M55.6409008,70.5256278 L24.0783043,79.4064259 L17.9655845,57.4989547 L49.528181,48.6181565 L55.6409008,70.5256278 L55.6409008,70.5256278 Z" id="Rectangle-path" fill="#84DBFF"></path>
                    <g id="Group" transform="translate(55.368254, 37.862974)" fill="#E6E9EE">
                        <path d="M6.20047992,31.0041475 L5.17404081,27.3254765 L36.7366373,18.4446784 L37.7630764,22.1233494 L6.20047992,31.0041475 L6.20047992,31.0041475 Z" id="Rectangle-path"></path>
                        <path d="M3.64492715,21.8843771 L2.61848803,18.205706 L34.1810845,9.32490788 L35.2075236,13.0035789 L3.64492715,21.8843771 L3.64492715,21.8843771 Z" id="Rectangle-path"></path>
                        <path d="M1.08601083,12.7645482 L0.0595717235,9.08587722 L31.6221682,0.205079067 L32.6486073,3.88375009 L1.08601083,12.7645482 L1.08601083,12.7645482 Z" id="Rectangle-path"></path>
                    </g>
                    <path d="M15.244911,50.3507865 L14.7316914,48.511451 L84.3988178,28.9091446 L84.9120374,30.7484801 L15.244911,50.3507865 L15.244911,50.3507865 Z" id="Rectangle-path" fill="#ACB3BA"></path>
                    <g id="Group" transform="translate(25.476190, 65.151603)" fill="#E6E9EE">
                        <path d="M38.6156776,12.8443563 L37.5892385,9.16568527 L69.1518349,0.28488712 L70.178274,3.96355814 L38.6156776,12.8443563 L38.6156776,12.8443563 Z" id="Rectangle-path"></path>
                        <path d="M41.1587692,21.9278759 L40.13233,18.2492049 L71.6949265,9.36840674 L72.7213656,13.0470778 L41.1587692,21.9278759 L41.1587692,21.9278759 Z" id="Rectangle-path"></path>
                        <path d="M1.13817612,23.3578744 L0.111737009,19.6792034 L31.6743335,10.7984053 L32.7007726,14.4770763 L1.13817612,23.3578744 L1.13817612,23.3578744 Z" id="Rectangle-path"></path>
                        <path d="M3.69066999,32.4745024 L2.66423087,28.7958314 L34.2268273,19.9150333 L35.2532665,23.5937043 L3.69066999,32.4745024 L3.69066999,32.4745024 Z" id="Rectangle-path"></path>
                    </g>
                    <g id="Group" transform="translate(9.171429, 10.574344)" fill="#FF7058">
                        <path d="M10.7339683,15.861516 L14.0628571,14.906414 L18.2409524,29.9151603 L14.9120635,30.8702624 L5.1631746,23.4682216 L7.77873016,32.8827988 L4.44984127,33.8379009 L0.271746032,18.8291545 L3.3968254,17.9422741 L13.4174603,25.5489796 L10.7339683,15.861516 L10.7339683,15.861516 Z" id="Shape"></path>
                        <path d="M30.4015873,10.3355685 L31.2507937,13.303207 L23.811746,15.383965 L24.6609524,18.4880466 L31.3526984,16.6119534 L32.1339683,19.4772595 L25.4422222,21.3533528 L26.3253968,24.4574344 L34.0022222,22.3084548 L34.8174603,25.2760933 L23.811746,28.3801749 L19.6336508,13.3714286 L30.4015873,10.3355685 L30.4015873,10.3355685 Z" id="Shape"></path>
                        <path d="M42.528254,16.2026239 L42.7660317,6.82215743 L46.2647619,5.83294461 L51.2920635,13.7125364 L51.8695238,4.2638484 L55.4701587,3.24052478 L54.4511111,19.716035 L51.9714286,20.3982507 L45.7892063,10.8813411 L45.4495238,22.2402332 L42.9698413,22.922449 L33.5606349,9.38046647 L37.1612698,8.35714286 L42.528254,16.2026239 L42.528254,16.2026239 Z" id="Shape"></path>
                        <path d="M63.3507937,4.29795918 C63.1130159,4.63906706 63.0450794,5.0483965 63.1469841,5.49183673 C63.2828571,5.93527697 63.5546032,6.20816327 64.0301587,6.3787172 C64.5057143,6.51516035 65.4907937,6.58338192 66.9853968,6.51516035 C68.5139683,6.48104956 69.7368254,6.68571429 70.7219048,7.16326531 C71.7069841,7.64081633 72.3863492,8.56180758 72.76,9.89212828 C73.1336508,11.222449 72.9298413,12.4845481 72.1825397,13.5760933 C71.4012698,14.7017493 70.212381,15.4862974 68.5819048,15.9638484 C66.204127,16.6119534 63.8263492,16.3390671 61.4485714,15.1110787 L62.7393651,12.1093294 C64.7434921,13.0644315 66.4419048,13.3714286 67.8006349,12.9620991 C68.4120635,12.7915452 68.8536508,12.5186589 69.1253968,12.1434402 C69.3971429,11.7682216 69.4650794,11.3588921 69.3631746,10.9154519 C69.2273016,10.4720117 68.9555556,10.1650146 68.5139683,9.99446064 C68.072381,9.82390671 67.2571429,9.75568513 66.1022222,9.82390671 C64.2339683,9.89212828 62.8412698,9.72157434 61.8222222,9.27813411 C60.8371429,8.83469388 60.1238095,7.91370262 59.7501587,6.48104956 C59.3425397,5.0483965 59.5463492,3.82040816 60.3615873,2.76297376 C61.1768254,1.70553936 62.331746,0.955102041 63.8603175,0.545772595 C64.8453968,0.272886297 65.8984127,0.170553936 66.9853968,0.204664723 C68.072381,0.272886297 69.0914286,0.511661808 70.0085714,0.920991254 L68.9895238,3.85451895 C67.4269841,3.24052478 65.932381,3.10408163 64.5736508,3.51341108 C63.9961905,3.68396501 63.5885714,3.92274052 63.3507937,4.29795918 L63.3507937,4.29795918 Z" id="Shape"></path>
                    </g>
                </g>
            </g>
        </g>
    </g>
</svg>