<?xml version="1.0" encoding="UTF-8"?>
<svg width="960px" height="233px" viewBox="0 0 960 233" version="1.1" xmlns="http://www.w3.org/2000/svg" xmlns:xlink="http://www.w3.org/1999/xlink">
    <!-- Generator: Sketch 45 (43475) - http://www.bohemiancoding.com/sketch -->
    <title>Events Icons</title>
    <desc>Created with Sketch.</desc>
    <defs></defs>
    <g id="Symbols" stroke="none" stroke-width="1" fill="none" fill-rule="evenodd" opacity="0.327728714">
        <g id="Events-Icons" fill-rule="nonzero" fill="#FFFFFF">
            <g id="Group-5" transform="translate(3.000000, 0.000000)">
                <g id="041-speaker" transform="translate(818.687053, 178.167522) rotate(5.000000) translate(-818.687053, -178.167522) translate(768.687053, 128.167522)">
                    <path d="M13.3303942,88.3147894 C12.4089087,88.3147894 11.6641438,89.0613118 11.6641438,89.9810399 C11.6641438,90.900768 12.4089087,91.6472903 13.3303942,91.6472903 C14.2518798,91.6472903 14.9966447,90.900768 14.9966447,89.9810399 C14.9966447,89.0613118 14.2518798,88.3147894 13.3303942,88.3147894 Z" id="Shape"></path>
                    <path d="M88.3145941,3.3326962 C87.3931086,3.3326962 86.6483437,4.07921858 86.6483437,4.99894666 C86.6483437,5.91867474 87.3931086,6.66519712 88.3145941,6.66519712 C89.2360797,6.66519712 89.9808446,5.91867474 89.9808446,4.99894666 C89.9808446,4.07921858 89.2360797,3.3326962 88.3145941,3.3326962 Z" id="Shape"></path>
                    <path d="M51.6555218,69.9854485 C50.7340363,69.9854485 49.9892713,70.7319709 49.9892713,71.651699 C49.9892713,72.5714271 50.7340363,73.3179494 51.6555218,73.3179494 C52.5770073,73.3179494 53.3217723,72.5714271 53.3217723,71.651699 C53.3217723,70.7319709 52.5770073,69.9854485 51.6555218,69.9854485 Z" id="Shape"></path>
                    <path d="M64.9861113,43.3242695 C65.9075968,43.3242695 66.6523618,42.5777471 66.6523618,41.658019 C66.6523618,40.7382909 65.9075968,39.9917686 64.9861113,39.9917686 C64.0646258,39.9917686 63.3198608,40.7382909 63.3198608,41.658019 C63.3198608,42.5777471 64.0646258,43.3242695 64.9861113,43.3242695 Z" id="Shape"></path>
                    <path d="M79.9829513,0.000195271354 L23.3282876,0.000195271354 C22.406802,0.000195271354 21.6620371,0.746717657 21.6620371,1.66644573 L21.6620371,98.3126827 C21.6620371,99.2324108 22.406802,99.9789332 23.3282876,99.9789332 L79.9829513,99.9789332 C80.9044368,99.9789332 81.6492018,99.2324108 81.6492018,98.3126827 L81.6492018,1.66644573 C81.649397,0.746717657 80.9044368,0.000195271354 79.9829513,0.000195271354 Z M78.3167008,96.6464323 L24.994538,96.6464323 L24.994538,3.3326962 L78.3167008,3.3326962 L78.3167008,96.6464323 Z" id="Shape"></path>
                    <path d="M51.6555218,51.6559123 C40.6295248,51.6559123 31.6597352,60.625702 31.6597352,71.651699 C31.6597352,82.677696 40.6295248,91.6474856 51.6555218,91.6474856 C62.6815188,91.6474856 71.6513084,82.677696 71.6513084,71.651699 C71.6513084,60.625702 62.6817141,51.6559123 51.6555218,51.6559123 Z M51.6555218,88.3147894 C42.4674188,88.3147894 34.9924314,80.8396067 34.9924314,71.651699 C34.9924314,62.4637912 42.467614,54.9886085 51.6555218,54.9886085 C60.8434295,54.9886085 68.3186122,62.4637912 68.3186122,71.651699 C68.3186122,80.8396067 60.8436248,88.3147894 51.6555218,88.3147894 Z" id="Shape"></path>
                    <path d="M64.9861113,49.9896619 C69.5800652,49.9896619 73.3177542,46.2521682 73.3177542,41.658019 C73.3177542,37.0640651 69.5802605,33.3263762 64.9861113,33.3263762 C60.3921574,33.3263762 56.6544685,37.0638699 56.6544685,41.658019 C56.6546637,46.2519729 60.3921574,49.9896619 64.9861113,49.9896619 Z M64.9861113,36.6590724 C67.7421712,36.6590724 69.985058,38.9019591 69.985058,41.658019 C69.985058,44.4140789 67.7421712,46.6569657 64.9861113,46.6569657 C62.2300514,46.6569657 59.9871647,44.4140789 59.9871647,41.658019 C59.9871647,38.9019591 62.2300514,36.6590724 64.9861113,36.6590724 Z" id="Shape"></path>
                    <path d="M51.6555218,63.3200561 C47.0615679,63.3200561 43.3238789,67.0575498 43.3238789,71.651699 C43.3238789,76.2458481 47.0613727,79.9833418 51.6555218,79.9833418 C56.2494757,79.9833418 59.9871647,76.2458481 59.9871647,71.651699 C59.9871647,67.0575498 56.2496709,63.3200561 51.6555218,63.3200561 Z M51.6555218,76.6506456 C48.8994619,76.6506456 46.6565751,74.4077589 46.6565751,71.651699 C46.6565751,68.8956391 48.8994619,66.6527523 51.6555218,66.6527523 C54.4115817,66.6527523 56.6544685,68.8956391 56.6544685,71.651699 C56.6544685,74.4077589 54.411777,76.6506456 51.6555218,76.6506456 Z" id="Shape"></path>
                    <path d="M43.3240742,38.3253228 C51.5940113,38.3253228 58.3209142,31.5966625 58.3209142,23.3284828 C58.3209142,15.0603032 51.5940113,8.33164286 43.3240742,8.33164286 C35.0541371,8.33164286 28.3272342,15.0603032 28.3272342,23.3284828 C28.3272342,31.5966625 35.0541371,38.3253228 43.3240742,38.3253228 Z M43.3240742,11.6643391 C49.7543599,11.6643391 54.988218,16.896635 54.988218,23.3284828 C54.988218,29.7603307 49.7543599,34.9926266 43.3240742,34.9926266 C36.8937885,34.9926266 31.6599304,29.7603307 31.6599304,23.3284828 C31.6599304,16.896635 36.8937885,11.6643391 43.3240742,11.6643391 Z" id="Shape"></path>
                    <path d="M43.3240742,31.6601257 C47.9180281,31.6601257 51.6557171,27.922632 51.6557171,23.3284828 C51.6557171,18.7343337 47.9182234,14.99684 43.3240742,14.99684 C38.7301203,14.99684 34.9924314,18.7343337 34.9924314,23.3284828 C34.9924314,27.922632 38.7299251,31.6601257 43.3240742,31.6601257 Z M43.3240742,18.3295362 C46.0801341,18.3295362 48.3230209,20.5724229 48.3230209,23.3284828 C48.3230209,26.0845427 46.0801341,28.3274295 43.3240742,28.3274295 C40.5680143,28.3274295 38.3251275,26.0845427 38.3251275,23.3284828 C38.3251275,20.5724229 40.5680143,18.3295362 43.3240742,18.3295362 Z" id="Shape"></path>
                    <path d="M14.99684,6.66539239 C12.2407801,6.66539239 9.99789332,4.42250562 9.99789332,1.66644573 C9.99789332,0.746717657 9.25312838,0.000195271354 8.33164286,0.000195271354 C7.41015734,0.000195271354 6.66539239,0.746717657 6.66539239,1.66644573 C6.66539239,4.42250562 4.42250562,6.66539239 1.66644573,6.66539239 C0.744764944,6.66539239 0,7.41191478 0,8.33164286 C0,9.25137093 0.744764944,9.99789332 1.66625046,9.99789332 C4.42231035,9.99789332 6.66519712,12.2407801 6.66519712,14.99684 C6.66519712,15.9165681 7.40996207,16.6630904 8.33144759,16.6630904 C9.25293311,16.6630904 9.99769805,15.9165681 9.99769805,14.99684 C9.99769805,12.2407801 12.2405848,9.99789332 14.9966447,9.99789332 C15.9181302,9.99789332 16.6628952,9.25137093 16.6628952,8.33164286 C16.6630904,7.41191478 15.9183255,6.66539239 14.99684,6.66539239 Z M8.33164286,10.0029704 C7.85674292,9.37146282 7.29358034,8.80654279 6.66031534,8.33164286 C7.29358034,7.85674292 7.85674292,7.2918229 8.33164286,6.66031534 C8.80654279,7.2918229 9.36970537,7.85674292 10.0029704,8.33164286 C9.36970537,8.80654279 8.80654279,9.37146282 8.33164286,10.0029704 Z" id="Shape"></path>
                    <path d="M97.3359354,94.9801818 L99.4905595,92.8255577 C100.14218,92.1739372 100.14218,91.1208388 99.4905595,90.4694135 C98.8391343,89.817793 97.7858406,89.817793 97.1344154,90.4694135 L94.9797913,92.6240377 L92.8251672,90.4694135 C92.1735466,89.817793 91.1204482,89.817793 90.469023,90.4694135 C89.8174025,91.1208388 89.8174025,92.1741325 90.469023,92.8255577 L92.6236471,94.9801818 L90.469023,97.1348059 C89.8174025,97.7864264 89.8174025,98.8395249 90.469023,99.4909501 C90.7939545,99.8158816 91.2206224,99.9791285 91.6470951,99.9791285 C92.073763,99.9791285 92.5002356,99.8158816 92.8251672,99.4909501 L94.9797913,97.336326 L97.1344154,99.4909501 C97.4593469,99.8158816 97.8860148,99.9791285 98.3124875,99.9791285 C98.7391554,99.9791285 99.165628,99.8158816 99.4905595,99.4909501 C100.14218,98.8395249 100.14218,97.7862312 99.4905595,97.1348059 L97.3359354,94.9801818 Z" id="Shape"></path>
                </g>
                <g id="001-calendar-2" transform="translate(107.075201, 159.587306) rotate(-9.000000) translate(-107.075201, -159.587306) translate(75.075201, 125.587306)">
                    <path d="M58.180664,4.50949095 L54.1232716,4.50949095 L54.1232716,1.12733971 C54.1232716,0.505076726 53.6193839,0 52.9959318,0 L45.1041575,0 C44.4807055,0 43.9768178,0.505076726 43.9768178,1.12733971 L43.9768178,4.50949095 L19.1742873,4.50949095 L19.1742873,1.12733971 C19.1742873,0.505076726 18.6703996,0 18.0469476,0 L10.1553054,0 C9.53185342,0 9.02796573,0.505076726 9.02796573,1.12733971 L9.02796573,4.50949095 L4.97044117,4.50949095 C2.23539058,4.50949095 0.00885172395,6.73602981 0.00885172395,9.47108039 L0.00885172395,18.0380959 L0.00885172395,66.515553 C0.00885172395,67.1378159 0.512739412,67.6428927 1.13619143,67.6428927 L62.0149137,67.6428927 C62.6383658,67.6428927 63.1422534,67.1378159 63.1422534,66.515553 L63.1422534,18.0380959 L63.1422534,9.47121251 C63.1422534,6.73616192 60.9157146,4.50949095 58.180664,4.50949095 Z M46.2314973,2.25481153 L51.86846,2.25481153 L51.86846,5.63696277 L51.86846,9.01911401 L46.2314973,9.01911401 L46.2314973,5.63696277 L46.2314973,2.25481153 Z M11.2826451,2.25481153 L16.9196079,2.25481153 L16.9196079,5.63696277 L16.9196079,9.01911401 L11.2826451,9.01911401 L11.2826451,5.63696277 L11.2826451,2.25481153 Z M2.26353114,9.47121251 C2.26353114,7.97857404 3.47767059,6.76430248 4.97044117,6.76430248 L9.02783362,6.76430248 L9.02783362,10.1464537 C9.02783362,10.7687167 9.53172131,11.2737934 10.1551733,11.2737934 L18.0469476,11.2737934 C18.6703996,11.2737934 19.1742873,10.7687167 19.1742873,10.1464537 L19.1742873,6.76430248 L43.9766857,6.76430248 L43.9766857,10.1464537 C43.9766857,10.7687167 44.4805734,11.2737934 45.1040254,11.2737934 L52.9956676,11.2737934 C53.6191196,11.2737934 54.1230073,10.7687167 54.1230073,10.1464537 L54.1230073,6.76430248 L58.1803998,6.76430248 C59.6730382,6.76430248 60.8873098,7.97844193 60.8873098,9.47121251 L60.8873098,16.9107562 L2.26353114,16.9107562 L2.26353114,9.47121251 Z M2.26353114,65.3882133 L2.26353114,19.1655677 L60.8874419,19.1655677 L60.8874419,65.3883454 L2.26353114,65.3883454 L2.26353114,65.3882133 Z" id="Shape"></path>
                    <path d="M20.3017592,50.7382138 L20.3017592,56.3692314 C20.3017592,56.9914943 20.8056468,57.4965711 21.4290989,57.4965711 L41.7220063,57.4965711 C42.3454583,57.4965711 42.849346,56.9914943 42.849346,56.3692314 L42.849346,50.7383459 C42.849346,50.7342503 42.849346,50.7302869 42.849346,50.7261913 L42.849346,43.0818689 C42.849346,41.0841537 41.2247244,39.4584752 39.2259523,39.4584752 L32.7028923,39.4584752 L32.7028923,37.0623003 C33.4758988,36.8641274 34.1850937,36.4623648 34.7637586,35.8829072 C35.6160343,35.0306315 36.0850435,33.8986677 36.0850435,32.6947011 C36.0850435,31.4895455 35.6160343,30.3575818 34.7140832,29.4590658 L32.3229287,27.3407293 C31.8956679,26.9630117 31.2553051,26.9630117 30.8280443,27.3407293 L28.3872145,29.5053061 C27.5349388,30.3575818 27.0659295,31.4895455 27.0659295,32.6947011 C27.0659295,33.8987998 27.5349388,35.0306315 28.3872145,35.8829072 C28.9658794,36.4623648 29.6750742,36.8641274 30.4480808,37.0623003 L30.4480808,39.4584752 L23.9250208,39.4584752 C21.9261166,39.4584752 20.301627,41.0841537 20.301627,43.0818689 L20.301627,50.7263234 C20.3017592,50.7302869 20.3017592,50.7342503 20.3017592,50.7382138 Z M29.3207411,32.694569 C29.3207411,32.0914628 29.5552457,31.5254809 29.9317742,31.1467064 L31.5755526,29.6901354 L33.1696556,31.0994091 C33.5958595,31.525613 33.8303641,32.0914628 33.8303641,32.6947011 C33.8303641,33.2967505 33.5958595,33.8627324 33.1696556,34.2888041 C32.3173799,35.1400229 30.8337253,35.1400229 29.9814496,34.2888041 C29.5552457,33.8626002 29.3207411,33.2966184 29.3207411,32.694569 Z M22.5564386,55.2417595 L22.5564386,51.1988998 L24.8112501,48.9440882 L27.3963498,51.529188 C27.8372185,51.9700567 28.5497163,51.9700567 28.9904528,51.529188 L31.5755526,48.9442204 L34.1606523,51.5293201 C34.601521,51.9701888 35.3140187,51.9701888 35.7547553,51.5293201 L38.3398551,48.9442204 L40.5946666,51.1990319 L40.5946666,55.2418917 L22.5564386,55.2418917 L22.5564386,55.2417595 Z M23.9251529,41.7131546 L39.2259523,41.7131546 C39.9801984,41.7131546 40.5945345,42.3276228 40.5945345,43.0817368 L40.5945345,48.0106938 L39.1367744,46.5529337 C38.6959058,46.112065 37.983408,46.112065 37.5426714,46.5529337 L34.9577038,49.1381656 L32.3726041,46.5530658 C31.9317354,46.1121972 31.2192377,46.1121972 30.7785011,46.5530658 L28.1934013,49.1381656 L25.6083016,46.5530658 C25.1674329,46.1121972 24.4549352,46.1121972 24.0141986,46.5530658 L22.5564386,48.0108259 L22.5564386,43.0818689 C22.5564386,42.3276228 23.1709068,41.7131546 23.9251529,41.7131546 Z" id="Shape"></path>
                    <path d="M56.377951,22.547719 L6.7731542,22.547719 C6.14970218,22.547719 5.64581449,23.0527957 5.64581449,23.6750587 L5.64581449,60.8787223 C5.64581449,61.5009853 6.14970218,62.006062 6.7731542,62.006062 L56.3780831,62.006062 C57.0015351,62.006062 57.5054228,61.5009853 57.5054228,60.8787223 L57.5054228,23.6750587 C57.5054228,23.0527957 57.001403,22.547719 56.377951,22.547719 Z M55.2506113,59.7513826 L7.90049391,59.7513826 L7.90049391,24.8023984 L55.2506113,24.8023984 L55.2506113,59.7513826 Z" id="Shape"></path>
                </g>
                <g id="022-party-hat-1" transform="translate(514.829857, 179.239584) rotate(19.000000) translate(-514.829857, -179.239584) translate(483.329857, 142.239584)">
                    <path d="M52.1018203,63.4603871 L31.0262558,11.9422295 C33.5546036,11.1995809 35.4065827,8.86007349 35.4065827,6.09474665 C35.4065827,2.7340439 32.6723959,0 29.311836,0 C25.9512761,0 23.2170894,2.7340439 23.2170894,6.09474665 C23.2170894,8.85993065 25.0687827,11.1992952 27.596702,11.9420866 L16.2322786,39.7217724 C16.2147087,39.7591977 16.198853,39.79748 16.1851399,39.8370479 L6.52099466,63.4606728 C4.23619675,63.8640657 2.49506503,65.8617461 2.49506503,68.2608196 C2.49506503,70.9498675 4.68187161,73.1365313 7.37077665,73.1365313 L51.2526097,73.1365313 C53.9416576,73.1365313 56.1283213,70.9497247 56.1283213,68.2608196 C56.1284642,65.8613176 54.3870467,63.8633514 52.1018203,63.4603871 Z M36.8723102,32.6712532 C36.395638,32.8295249 35.9058242,32.9113748 35.4064398,32.9113748 C32.7173919,32.9113748 30.5307282,30.7245682 30.5307282,28.0356632 C30.5307282,26.1896836 31.5944913,24.5399724 33.2144908,23.7303297 L36.8723102,32.6712532 Z M25.6550166,6.09474665 C25.6550166,4.07863925 27.2957286,2.43792723 29.311836,2.43792723 C31.3279434,2.43792723 32.9686554,4.07863925 32.9686554,6.09474665 C32.9686554,8.11085404 31.3279434,9.75156607 29.311836,9.75156607 C27.2957286,9.75156607 25.6550166,8.11085404 25.6550166,6.09474665 Z M18.1136836,41.5630381 C20.3470575,42.0182836 21.99834,43.9702538 21.99834,46.3197603 C21.99834,49.0088082 19.8115334,51.1954719 17.1226284,51.1954719 C16.1899966,51.1954719 15.2820769,50.9187821 14.4962893,50.4061131 L18.1136836,41.5630381 Z M13.5615148,52.6909111 C14.646276,53.3052853 15.8683108,53.6333991 17.1224856,53.6333991 C21.1559859,53.6333991 24.4361244,50.3532607 24.4361244,46.3197603 C24.4361244,42.9464872 22.1740388,40.1193087 19.0480295,39.2790973 L29.3115503,14.189745 L32.2902869,21.4706724 C29.7640817,22.6541392 28.0930867,25.188915 28.0930867,28.0356632 C28.0930867,32.0691636 31.3732251,35.349302 35.4067255,35.349302 C36.2270815,35.349302 37.0268679,35.2081716 37.797514,34.9323389 L49.4374845,63.3848223 L9.18675888,63.3848223 L13.5615148,52.6909111 Z M51.2527525,70.6984612 L7.37091949,70.6984612 C6.02646697,70.6984612 4.93299226,69.6051293 4.93299226,68.260534 C4.93299226,66.9159386 6.02646697,65.8227496 7.37091949,65.8227496 L51.252324,65.8227496 L51.2527525,65.8227496 C52.5972051,65.8227496 53.6906798,66.9160814 53.6906798,68.2606768 C53.6906798,69.6052722 52.5972051,70.6984612 51.2527525,70.6984612 Z" id="Shape"></path>
                    <path d="M37.1301445,53.6333991 L38.7062908,52.0572528 C39.1828201,51.5805807 39.1828201,50.8102203 38.7062908,50.333691 C38.2296187,49.8570188 37.4592583,49.8570188 36.982729,50.333691 L35.4065827,51.9098373 L33.8304364,50.333691 C33.3537642,49.8570188 32.5834038,49.8570188 32.1068745,50.333691 C31.6303452,50.8103631 31.6303452,51.5807235 32.1068745,52.0572528 L33.6830208,53.6333991 L32.1068745,55.2094026 C31.6303452,55.6859319 31.6303452,56.4564351 32.1068745,56.9329644 C32.3445678,57.1706577 32.656683,57.2900757 32.9686554,57.2900757 C33.2807707,57.2900757 33.5927431,57.1706577 33.8304364,56.9329644 L35.4065827,55.3568181 L36.982729,56.9329644 C37.2204222,57.1706577 37.5325375,57.2900757 37.8445099,57.2900757 C38.1566251,57.2900757 38.4685976,57.1706577 38.7062908,56.9329644 C39.1828201,56.4564351 39.1828201,55.6859319 38.7062908,55.2094026 L37.1301445,53.6333991 Z" id="Shape"></path>
                    <circle id="Oval" cx="35.4065827" cy="41.4439058" r="1.21889219"></circle>
                    <circle id="Oval" cx="25.6550166" cy="59.7280029" r="1.21889219"></circle>
                    <path d="M56.1284642,7.31363884 L54.909572,7.31363884 L54.909572,6.09474665 C54.909572,5.42194901 54.364763,4.87585446 53.6906798,4.87585446 C53.0165965,4.87585446 52.4717876,5.42194901 52.4717876,6.09474665 L52.4717876,7.31363884 L51.2528954,7.31363884 C50.5788121,7.31363884 50.0340032,7.8597334 50.0340032,8.53253103 C50.0340032,9.20532867 50.5788121,9.75142323 51.2528954,9.75142323 L52.4717876,9.75142323 L52.4717876,10.9704583 C52.4717876,11.6432559 53.0165965,12.1893505 53.6906798,12.1893505 C54.364763,12.1893505 54.909572,11.6432559 54.909572,10.9704583 L54.909572,9.75156607 L56.1284642,9.75156607 C56.8025474,9.75156607 57.3473563,9.20547151 57.3473563,8.53267388 C57.3473563,7.85987624 56.8025474,7.31363884 56.1284642,7.31363884 Z" id="Shape"></path>
                    <path d="M5.29024638,39.8679024 C5.52793964,40.1055956 5.84005489,40.2250136 6.1520273,40.2250136 C6.46414255,40.2250136 6.77611496,40.1055956 7.01380822,39.8679024 C7.49048034,39.3913731 7.49048034,38.6208698 7.01380822,38.1443405 L5.43766191,36.5681942 L7.01380822,34.9920479 C7.49048034,34.5153758 7.49048034,33.7450153 7.01380822,33.2684861 C6.53713609,32.7919568 5.76677566,32.7918139 5.29024638,33.2684861 L3.71410007,34.8446324 L2.13795376,33.2684861 C1.66142448,32.7918139 0.8909212,32.7918139 0.41439192,33.2684861 C-0.0621373613,33.7451582 -0.0622802058,34.5155186 0.41439192,34.9920479 L1.99053823,36.5681942 L0.41439192,38.1443405 C-0.0622802058,38.6208698 -0.0622802058,39.3913731 0.41439192,39.8679024 C0.652085182,40.1055956 0.964200433,40.2250136 1.27617284,40.2250136 C1.58828809,40.2250136 1.9002605,40.1055956 2.13795376,39.8679024 L3.71410007,38.291756 L5.29024638,39.8679024 Z" id="Shape"></path>
                    <circle id="Oval" cx="11.0277389" cy="13.4083855" r="1.21889219"></circle>
                    <path d="M61.0043186,47.5386525 C60.3302354,47.5386525 59.7854264,48.084747 59.7854264,48.7575447 C59.7854264,49.4303423 60.3302354,49.9764369 61.0043186,49.9764369 C61.6784018,49.9764369 62.2232108,49.4303423 62.2232108,48.7575447 C62.2232108,48.084747 61.6784018,47.5386525 61.0043186,47.5386525 Z" id="Shape"></path>
                </g>
                <g id="048-maracas" transform="translate(201.103836, 59.880875) rotate(-26.000000) translate(-201.103836, -59.880875) translate(156.103836, 21.880875)">
                    <path d="M4.45931269,23.8526197 L36.2333091,23.8526197 C37.1098428,25.6131772 38.9273611,26.8255529 41.0242832,26.8255529 L43.4507764,26.8255529 C47.042265,33.8021127 55.529417,38.7171114 65.4031366,38.7171114 C78.5166514,38.7171114 89.1862537,30.0481031 89.1862537,19.393307 C89.1862537,8.73851095 78.5166514,0.0696767607 65.4033108,0.0696767607 C55.5297654,0.0696767607 47.0424392,4.98467546 43.4509506,11.9612353 L41.0244574,11.9612353 C38.9273611,11.9612353 37.110017,13.1737852 36.2333091,14.9341685 L4.45931269,14.9341685 C2.00076818,14.9341685 0,16.9349367 0,19.3934812 C0,21.8520257 2.00076818,23.8526197 4.45931269,23.8526197 Z M86.2133205,19.393307 C86.2133205,27.7980663 78.099636,34.7417039 67.7024697,35.6438437 C59.8256861,21.1967158 65.9647313,6.73147185 67.7348694,3.14573156 C78.1165326,4.05954227 86.2133205,10.9974315 86.2133205,19.393307 Z M64.4705132,3.05985495 C62.103071,8.26871539 57.4631213,21.6931627 64.3954365,35.724843 C53.3865083,35.3102662 44.5931269,28.1431404 44.5931269,19.393307 C44.5931269,10.6237899 53.4265724,3.44447067 64.4705132,3.05985495 Z M38.6476089,17.3108428 C38.6476089,15.9998746 39.7133149,14.9339943 41.0244574,14.9339943 L42.2608715,14.9339943 C41.8428109,16.3660259 41.6203679,17.8588505 41.6203679,19.393307 C41.6203679,20.9277635 41.8428109,22.4205881 42.2608715,23.8526197 L41.0244574,23.8526197 C39.7134891,23.8526197 38.6476089,22.7869136 38.6476089,21.4757712 L38.6476089,17.3108428 Z M4.45931269,17.9069275 L35.6745015,17.9069275 L35.6745015,20.8798607 L4.45931269,20.8798607 C3.64026236,20.8798607 2.97293319,20.2125315 2.97293319,19.3934812 C2.97293319,18.5742567 3.64026236,17.9069275 4.45931269,17.9069275 Z" id="Shape"></path>
                    <path d="M84.7269411,52.0950495 L52.9534672,52.0950495 C52.0765852,50.3346661 50.2587185,49.1221163 48.1626673,49.1221163 L45.7353032,49.1221163 C42.1450339,42.1479951 33.6622366,37.2340416 23.7928719,37.2307319 C23.7862526,37.2307319 23.7796333,37.2307319 23.773014,37.2307319 C10.6642024,37.2350867 0,45.902179 0,56.5543622 C0,67.2091583 10.6696024,75.8779924 23.7829429,75.8779924 C33.6564883,75.8779924 42.1438145,70.9629937 45.7353032,63.9864339 L48.1626673,63.9864339 C50.2587185,63.9864339 52.0765852,62.773884 52.9534672,61.0135007 L84.7269411,61.0135007 C87.1854856,61.0135007 89.1862537,59.0127325 89.1862537,56.554188 C89.1862537,54.0956435 87.1854856,52.0950495 84.7269411,52.0950495 Z M2.97293319,56.5543622 C2.97293319,47.7024523 11.972732,40.4707013 23.1616004,40.2115038 C27.9471745,45.2881526 27.8048598,50.4308201 22.7322174,55.5034624 C17.2096373,61.0260425 16.4358769,67.0297406 20.4013555,72.6881903 C10.5290295,71.4150217 2.97293319,64.6649113 2.97293319,56.5543622 Z M24.4044596,72.8972206 C19.6188855,67.8205718 19.7612003,62.6779043 24.8338427,57.6052619 C30.3564227,52.0826819 31.1301832,46.0789838 27.1647045,40.4205341 C37.0370306,41.6937027 44.5931269,48.4436389 44.5931269,56.5543622 C44.5931269,65.4060979 35.5933281,72.6380231 24.4044596,72.8972206 Z M48.1626673,61.0136749 L46.9255564,61.0136749 C47.343617,59.5816433 47.5660601,58.0888187 47.5660601,56.5543622 C47.5660601,55.0199057 47.343617,53.5270811 46.9255564,52.0950495 L48.1626673,52.0950495 C49.4682356,52.0950495 50.532374,53.1544847 50.5388191,54.460053 L50.5388191,58.6484972 C50.532374,59.9540655 49.4682356,61.0136749 48.1626673,61.0136749 Z M84.7269411,58.0407417 L53.5122748,58.0407417 L53.5122748,55.0678085 L84.7269411,55.0678085 C85.5459914,55.0678085 86.2133205,55.7351377 86.2133205,56.554188 C86.2133205,57.3732383 85.5459914,58.0407417 84.7269411,58.0407417 Z" id="Shape"></path>
                </g>
                <g id="003-vinyl-1" transform="translate(913.632782, 83.038361) rotate(-10.000000) translate(-913.632782, -83.038361) translate(878.632782, 47.538361)">
                    <path d="M41.2965798,31.8291913 C41.2965798,26.6291801 37.0656735,22.3982738 31.8656623,22.3982738 C26.665651,22.3982738 22.4347447,26.6291801 22.4347447,31.8291913 C22.4347447,37.0292026 26.665651,41.2601089 31.8656623,41.2601089 C37.0656735,41.2601089 41.2965798,37.0292026 41.2965798,31.8291913 Z M31.8658004,38.9023449 C27.9649286,38.9023449 24.7926468,35.7300632 24.7926468,31.8291913 C24.7926468,27.9283195 27.9649286,24.7560377 31.8658004,24.7560377 C35.7666723,24.7560377 38.938954,27.9283195 38.938954,31.8291913 C38.938954,35.7300632 35.7665341,38.9023449 31.8658004,38.9023449 Z" id="Shape"></path>
                    <path d="M31.8658004,27.1138016 C29.2651731,27.1138016 27.1504107,29.2287022 27.1504107,31.8291913 C27.1504107,34.4296804 29.2653113,36.544581 31.8658004,36.544581 C34.4664277,36.544581 36.5811901,34.4296804 36.5811901,31.8291913 C36.5811901,29.2287022 34.4662895,27.1138016 31.8658004,27.1138016 Z M31.8658004,34.1869552 C30.5655558,34.1869552 29.5080365,33.129574 29.5080365,31.8291913 C29.5080365,30.5289467 30.5654177,29.4714274 31.8658004,29.4714274 C33.166045,29.4714274 34.2235643,30.5288086 34.2235643,31.8291913 C34.2234262,33.1294359 33.166045,34.1869552 31.8658004,34.1869552 Z" id="Shape"></path>
                    <path d="M64.8318078,41.2599707 C64.4121156,41.2599707 63.9900748,41.3319456 63.5927625,41.4721653 C63.4488128,40.7868154 63.157736,40.1148658 62.7484048,39.5329884 C63.3771142,37.01 63.6948536,34.4207009 63.6948536,31.8291913 C63.6948536,14.2783763 49.4164773,2.84217094e-14 31.8656623,2.84217094e-14 C14.3148472,2.84217094e-14 0.0366090959,14.2783763 0.0366090959,31.8291913 C0.0366090959,49.3800063 14.3149854,63.6583826 31.8658004,63.6583826 C35.8490082,63.6583826 39.7261187,62.9322792 43.4022245,61.5001037 C43.4837315,61.587413 43.5671726,61.67638 43.6548963,61.7697677 L43.6548963,63.6582445 C43.6548963,68.0271602 48.3798182,70.7313981 52.7592331,70.7313981 L60.1165562,70.7313981 C63.4055726,70.7313981 66.0367305,68.4715808 66.8219611,64.9727182 C67.0754618,63.8410137 67.372479,63.433064 67.4573016,63.3352555 C68.3721145,62.2789795 69.589885,60.5519972 69.589885,57.7640419 C69.5897469,46.9184936 69.3775523,41.2599707 64.8318078,41.2599707 Z M31.8658004,61.3006187 C15.61523,61.3006187 2.39437302,48.0797618 2.39437302,31.8291913 C2.39437302,15.5786209 15.61523,2.35776392 31.8658004,2.35776392 C48.1163709,2.35776392 61.3372278,15.5786209 61.3372278,31.8291913 C61.3372278,33.87488 61.1221321,35.9175294 60.6989862,37.923846 C60.3306849,37.7952306 59.9366881,37.7233939 59.5211403,37.7233939 C58.9565314,37.7233939 58.358767,37.7988225 57.8012036,38.0122604 L57.8012036,37.7233939 C57.8012036,33.4677592 54.8717852,33.0080042 53.6127086,33.0080042 C52.9831703,33.0080042 52.4102724,33.1281926 51.9068628,33.3546164 L51.9068628,30.5854491 C51.9081062,29.7991133 51.9104547,28.1605455 50.7715664,27.0194468 C50.0512652,26.3003889 49.0433408,25.9348506 47.773765,25.9348506 C43.6548963,25.9348506 43.6548963,29.1201182 43.6548963,30.6502403 L43.6548963,45.9906948 C41.7262186,43.519788 38.1555194,42.3220489 35.394641,43.3629906 C34.9408263,43.5338791 34.5576051,43.7732888 34.3089395,43.9394802 C33.0440607,44.7765161 33.0357719,45.8479884 33.0475144,46.2842583 C32.9791314,46.8206852 33.1996148,47.0763962 34.1804623,48.2104493 C35.467721,49.6958116 38.1450202,52.789073 39.7729507,55.7126892 C40.0322536,56.2679041 40.2362975,56.7229621 40.4107778,57.1085318 C40.9159834,58.2345724 41.2105139,58.8584466 41.7564729,59.5976741 C38.5899934,60.7277209 35.2709989,61.3006187 31.8658004,61.3006187 Z M60.1164181,68.3736342 L52.759095,68.3736342 C49.5985557,68.3736342 46.0829773,66.4732767 46.0156995,63.7375412 C46.4498972,64.0047185 46.9363146,64.2736917 47.5338027,64.6041406 L47.7577399,64.7266775 C47.9381605,64.8268344 48.1337774,64.8740809 48.327184,64.8740809 C48.7432844,64.8740809 49.1441885,64.6548408 49.3598368,64.2658173 C49.6757802,63.6963732 49.4695259,62.9785586 48.8988385,62.6637204 L48.6749013,62.5399402 C47.1496144,61.696964 46.57423,61.3781195 45.6844217,60.485272 C45.2676306,60.0448576 44.9261299,59.6813915 44.6411315,59.3695925 C44.6067328,59.3262142 44.5699856,59.2851844 44.5303372,59.2476082 C43.3900675,57.9881172 43.209785,57.5877656 42.5607679,56.1428806 C42.3826957,55.7468116 42.1740929,55.2823596 41.8698921,54.6398355 C40.0862693,51.4309446 37.3017676,48.2126597 35.9638088,46.6660981 C35.7456738,46.4149459 35.564148,46.2075864 35.4320789,46.0518941 C35.4591559,46.0201202 35.5122045,45.9694201 35.6089078,45.9044907 C35.8577115,45.7394044 36.047388,45.6356556 36.2265654,45.5685159 C37.9818679,44.9083089 40.8831042,45.7843024 42.138589,47.9486598 C42.1656659,47.9946629 42.1952295,48.0394227 42.2282468,48.0807288 L43.7189968,49.9987691 C43.7760517,50.1242071 43.8547958,50.2421851 43.9581302,50.3453813 L45.136943,51.5241942 C45.3668205,51.7540717 45.6686729,51.869563 45.9703871,51.869563 C46.2721013,51.869563 46.5739537,51.7540717 46.8038312,51.5241942 C47.2648295,51.0631959 47.2648295,50.3181662 46.8038312,49.8573061 L46.0123839,49.0658588 L46.0123839,30.6502403 C46.0123839,28.8206144 46.0867073,28.2924763 47.7736268,28.2924763 C48.3948763,28.2924763 48.8416454,28.4245454 49.1021916,28.6850916 C49.5513093,29.1342093 49.5502041,30.0407334 49.5489608,30.6561806 L49.5489608,42.4296659 C49.5489608,42.4328433 49.5485463,42.4358825 49.5485463,42.4390599 L49.5485463,50.6910264 C49.5485463,51.3417013 50.075441,51.8698393 50.7273592,51.8698393 C51.3792774,51.8698393 51.9061721,51.3417013 51.9061721,50.6910264 L51.9061721,42.4481776 C51.9061721,42.4450002 51.9065865,42.441961 51.9065865,42.4387836 L51.9065865,37.7044677 C51.9101784,36.6328573 52.2095441,35.36563 53.6124323,35.36563 C54.5389878,35.36563 55.4431633,35.5471558 55.4431633,37.7233939 L55.4431633,42.4295277 C55.4431633,42.4327051 55.4427489,42.4357444 55.4427489,42.4389217 L55.4427489,49.5120754 C55.4427489,50.1627502 55.9696436,50.6908883 56.6215618,50.6908883 C57.27348,50.6908883 57.8003747,50.1627502 57.8003747,49.5120754 L57.8003747,42.4481776 C57.8003747,42.4450002 57.8007891,42.441961 57.8007891,42.4387836 L57.8007891,42.4328433 C57.8007891,40.0810197 58.7143588,40.0810197 59.5207259,40.0810197 C59.8821198,40.0810197 60.2095295,40.247073 60.4837523,40.503613 C60.5453661,40.5928563 60.6195514,40.6732581 60.7042358,40.7430226 C61.0985089,41.2344134 61.3373659,41.9082971 61.3373659,42.4386455 L61.3373659,44.7871535 C61.3373659,44.7903309 61.3369515,44.7933701 61.3369515,44.7965475 L61.3369515,50.6908883 C61.3369515,51.3415631 61.8638462,51.8697011 62.5157644,51.8697011 C63.1676826,51.8697011 63.6945773,51.3415631 63.6945773,50.6908883 L63.6945773,44.8058034 C63.6945773,44.802626 63.6949917,44.7995868 63.6949917,44.7964094 C63.6949917,43.7024191 64.5650449,43.6175965 64.8313933,43.6175965 C66.8849564,43.6175965 67.2315685,47.981677 67.2315685,57.7639037 C67.2315685,58.7280354 67.033465,59.5092597 66.746947,60.1548231 C66.6456848,60.2429612 66.5569941,60.3487822 66.4883348,60.473115 C66.0946143,61.1874759 64.8932834,62.1188665 63.3573591,62.517284 C62.7267157,62.681127 62.3494348,63.3247563 62.5121725,63.9542946 C62.6500438,64.4860245 63.128725,64.8371955 63.652166,64.8371955 C63.7499744,64.8371955 63.8502695,64.825453 63.9491832,64.7994812 C64.1271172,64.7532018 64.3024264,64.6994624 64.4764923,64.6422693 C63.8910231,66.9496094 62.2349105,68.3736342 60.1164181,68.3736342 Z" id="Shape"></path>
                    <path d="M31.8658004,8.25196651 C32.5177186,8.25196651 33.0446133,7.7238285 33.0446133,7.07315362 C33.0446133,6.42247875 32.5177186,5.89434074 31.8658004,5.89434074 C17.5650442,5.89434074 5.93094983,17.5284351 5.93094983,31.8291913 C5.93094983,32.4798662 6.45784452,33.0080042 7.10976272,33.0080042 C7.76168092,33.0080042 8.28857561,32.4798662 8.28857561,31.8291913 C8.28857561,18.8286797 18.8652888,8.25196651 31.8658004,8.25196651 Z" id="Shape"></path>
                    <path d="M31.8658004,14.1463072 C31.8658004,13.4956324 31.3389057,12.9674944 30.6869875,12.9674944 C20.9366729,12.9674944 13.0041035,20.9000638 13.0041035,30.6503784 C13.0041035,31.3010533 13.5309981,31.8291913 14.1829163,31.8291913 C14.8348345,31.8291913 15.3617292,31.3010533 15.3617292,30.6503784 C15.3617292,22.2003083 22.2367793,15.3252583 30.6868494,15.3252583 C31.3387676,15.3251201 31.8658004,14.7969821 31.8658004,14.1463072 Z" id="Shape"></path>
                </g>
                <g id="006-balloons-3" transform="translate(593.451837, 59.024304) rotate(-22.000000) translate(-593.451837, -59.024304) translate(551.951837, 17.524304)">
                    <path d="M71.6155961,5.50884235 L72.9927663,5.50884235 L72.9927663,6.88601259 C72.9927663,7.6461757 73.6083209,8.26318282 74.3699366,8.26318282 C75.1315522,8.26318282 75.7471068,7.6461757 75.7471068,6.88601259 L75.7471068,5.50884235 L77.124277,5.50884235 C77.8858927,5.50884235 78.5014473,4.89183522 78.5014473,4.13167211 C78.5014473,3.371509 77.8858927,2.75450187 77.124277,2.75450187 L75.7471068,2.75450187 L75.7471068,1.37717024 C75.7471068,0.617007128 75.1315522,0 74.3699366,0 C73.6083209,0 72.9927663,0.617007128 72.9927663,1.37717024 L72.9927663,2.75434048 L71.6155961,2.75434048 C70.8539804,2.75434048 70.2384258,3.3713476 70.2384258,4.13151072 C70.2384258,4.89183522 70.8539804,5.50884235 71.6155961,5.50884235 Z" id="Shape"></path>
                    <path d="M10.6142011,72.0192411 C10.0756312,71.4806712 9.20523634,71.4806712 8.66682782,72.0192411 L6.88601259,73.8000563 L5.10519735,72.0192411 C4.56662743,71.4806712 3.6962326,71.4806712 3.15782408,72.0192411 C2.61925417,72.5576496 2.61925417,73.4282058 3.15782408,73.9666143 L4.93863932,75.7474296 L3.15782408,77.5282448 C2.61925417,78.0668147 2.61925417,78.9372096 3.15782408,79.4756181 C3.42638277,79.7441768 3.77902744,79.8791017 4.13151072,79.8791017 C4.48415539,79.8791017 4.83663866,79.7441768 5.10519735,79.4756181 L6.88601259,77.6948029 L8.66682782,79.4754567 C8.93538651,79.7440154 9.28803118,79.8789403 9.64051446,79.8789403 C9.99299773,79.8789403 10.3456424,79.7440154 10.6142011,79.4754567 C11.1526096,78.9368868 11.1526096,78.066492 10.6142011,77.5280834 L8.83338585,75.7472682 L10.6142011,73.9666143 C11.152771,73.4280444 11.152771,72.5576496 10.6142011,72.0192411 Z" id="Shape"></path>
                    <circle id="Oval" cx="9.64051446" cy="61.9750816" r="1.37717024"></circle>
                    <circle id="Oval" cx="46.8255634" cy="75.7472682" r="1.37717024"></circle>
                    <path d="M28.9217048,8.26334422 C28.9217048,7.50318111 28.3046976,6.88617398 27.5445345,6.88617398 C24.0174422,6.88617398 20.1419015,7.99478553 17.1740375,9.85000314 C16.528141,10.2534867 16.3325321,11.1032232 16.7360157,11.7478286 C16.9976345,12.1651921 17.4466311,12.3951777 17.9053112,12.3951777 C18.1545027,12.3951777 18.4065992,12.3277153 18.6338412,12.1858504 C21.1444776,10.615815 24.5585945,9.64067585 27.5445345,9.64067585 C28.3046976,9.64051446 28.9217048,9.02350733 28.9217048,8.26334422 Z" id="Shape"></path>
                    <path d="M15.0462264,13.4692511 C14.4829633,12.9582794 13.6098248,13.0037924 13.1015968,13.5697992 C9.15439741,17.9411406 6.88891767,24.0393918 6.88617398,30.298875 C6.88617398,31.0590381 7.50172857,31.6760452 8.26334422,31.6760452 C9.02350733,31.6760452 9.64051446,31.0604906 9.64051446,30.298875 C9.64325814,24.7128866 11.6498628,19.2879688 15.1466131,15.4138807 C15.6562936,14.8506175 15.6107807,13.9787702 15.0462264,13.4692511 Z" id="Shape"></path>
                    <path d="M64.7295835,68.8612556 C65.4911992,68.8612556 66.1067537,68.2442485 66.1067537,67.4840854 L66.1067537,62.6116174 C75.599916,60.0057589 82.6334422,50.8290891 82.6334422,39.9395508 C82.6334422,27.029528 72.7477711,16.5266884 60.5979114,16.5266884 C57.9023181,16.5266884 55.2686999,17.049926 52.7474116,18.0805845 C48.4683873,7.44217439 38.7823599,0 27.5445345,0 C12.3564433,0 0,13.5917487 0,30.298875 C0,44.9312886 9.47831405,57.1736267 22.0355308,59.9886511 L22.0355308,64.7295835 C22.0355308,65.4897466 22.6525379,66.1067537 23.412701,66.1067537 L26.1672029,66.1067537 L26.1672029,71.6155961 C26.1672029,73.8935031 28.020968,75.7472682 30.298875,75.7472682 C31.057747,75.7472682 31.6760452,76.3655665 31.6760452,77.1244384 L31.6760452,78.5016087 C31.6760452,79.2604806 31.057747,79.8787789 30.298875,79.8787789 C29.5387119,79.8787789 28.9217048,80.495786 28.9217048,81.2559491 C28.9217048,82.0161123 29.5387119,82.6331194 30.298875,82.6331194 C32.576782,82.6331194 34.4305471,80.7793543 34.4305471,78.5014473 L34.4305471,77.124277 C34.4305471,74.84637 32.576782,72.9926049 30.298875,72.9926049 C29.540003,72.9926049 28.9217048,72.3743067 28.9217048,71.6154347 L28.9217048,66.1067537 L31.6762066,66.1067537 C32.4363697,66.1067537 33.0533769,65.4897466 33.0533769,64.7295835 L33.0533769,59.9886511 C36.9445727,59.1163196 40.5391275,57.3377639 43.6485335,54.8644094 C46.6249514,58.6741016 50.6496196,61.3661442 55.0889076,62.5969306 L55.0889076,67.483924 C55.0889076,68.2440871 55.7059148,68.8610942 56.4660779,68.8610942 L59.2205798,68.8610942 L59.2205798,71.6155961 C59.2205798,73.8935031 61.0743448,75.7472682 63.3522519,75.7472682 C64.1111238,75.7472682 64.7294221,76.3655665 64.7294221,77.1244384 L64.7294221,78.5016087 C64.7294221,79.2604806 64.1111238,79.8787789 63.3522519,79.8787789 C62.5920888,79.8787789 61.9750816,80.495786 61.9750816,81.2559491 C61.9750816,82.0161123 62.5920888,82.6331194 63.3522519,82.6331194 C65.6301589,82.6331194 67.483924,80.7793543 67.483924,78.5014473 L67.483924,77.124277 C67.483924,74.84637 65.6301589,72.9926049 63.3522519,72.9926049 C62.5933799,72.9926049 61.9750816,72.3743067 61.9750816,71.6154347 L61.9750816,68.8609328 L64.7295835,68.8609328 L64.7295835,68.8612556 Z M2.75450187,30.298875 C2.75450187,15.1107838 13.8756398,2.75434048 27.5445345,2.75434048 C41.2134293,2.75434048 52.3345672,15.1107838 52.3345672,30.298875 C52.3345672,45.4869662 41.2134293,57.8434095 27.5445345,57.8434095 C13.8756398,57.8434095 2.75450187,45.4869662 2.75450187,30.298875 Z M30.298875,60.5979114 L30.298875,63.3524133 L24.7900327,63.3524133 L24.7900327,60.5979114 L30.298875,60.5979114 Z M45.7214709,53.0430844 C51.4607831,47.4863082 55.0889076,39.3506262 55.0889076,30.298875 C55.0889076,26.9381794 54.5881038,23.7040162 53.6657403,20.6807942 C55.8931312,19.7524592 58.2194562,19.2810289 60.5979114,19.2810289 C71.2300272,19.2810289 79.8791017,28.5484017 79.8791017,39.9393895 C79.8791017,51.3303772 71.2301885,60.59775 60.5979114,60.59775 C54.8539188,60.5979114 49.3734817,57.7943459 45.7214709,53.0430844 Z M57.8434095,63.3522519 L63.3522519,63.3522519 L63.3522519,66.1067537 L57.8434095,66.1067537 L57.8434095,63.3522519 Z" id="Shape"></path>
                </g>
                <g id="008-soda" transform="translate(703.531250, 137.546875) rotate(-9.000000) translate(-703.531250, -137.546875) translate(674.031250, 93.546875)">
                    <path d="M40.9509123,76.1168789 C40.1432449,76.1168789 39.4904702,76.7711939 39.4904702,77.5773209 C39.4904702,78.383448 40.1432449,79.037763 40.9509123,79.037763 C41.7585797,79.037763 42.4113544,78.383448 42.4113544,77.5773209 C42.4115255,76.7711939 41.7585797,76.1168789 40.9509123,76.1168789 Z" id="Shape"></path>
                    <path d="M14.661928,62.9723867 C13.8542605,62.9723867 13.2014859,63.6267017 13.2014859,64.4328288 C13.2014859,65.2389558 13.8542605,65.8932708 14.661928,65.8932708 C15.4695954,65.8932708 16.12237,65.2389558 16.12237,64.4328288 C16.12237,63.6267017 15.4695954,62.9723867 14.661928,62.9723867 Z" id="Shape"></path>
                    <path d="M58.4769019,24.9995234 C58.4769019,22.5838806 56.5110472,20.618026 54.0954045,20.618026 L30.7274754,20.618026 L30.7274754,9.68567652 L40.339043,2.82024664 C40.9947273,2.35146065 41.1480797,1.43853459 40.6779245,0.782850355 C40.2091385,0.125625746 39.2977528,-0.0248170751 38.6418974,0.442599698 L28.4184606,7.7451524 C28.4071645,7.75319656 28.3972377,7.76243878 28.3862839,7.77065409 C28.3631784,7.78828277 28.3400728,7.80591145 28.3181653,7.8247382 C28.302077,7.83860153 28.2868445,7.85280716 28.2714408,7.86718395 C28.2522717,7.88515494 28.2332738,7.90312592 28.2149605,7.92212382 C28.1993857,7.93838328 28.1846666,7.95498505 28.1697763,7.97175797 C28.1531746,7.99058472 28.1369151,8.00975377 28.1213403,8.02943628 C28.1076481,8.04672265 28.0946405,8.06435133 28.0819752,8.08215117 C28.0667427,8.10320289 28.0520236,8.12459692 28.0379891,8.14667556 C28.0272065,8.16361963 28.0169374,8.18073486 28.0068394,8.19802124 C27.9924626,8.22249601 27.9787704,8.24731308 27.9657629,8.27281477 C27.958061,8.28821847 27.9507015,8.30362217 27.9435131,8.31919702 C27.9305055,8.34726599 27.9181825,8.37567726 27.9068865,8.40477314 C27.9014096,8.41880763 27.8964462,8.43301326 27.8913116,8.4472189 C27.8805291,8.477684 27.8706022,8.50832025 27.8618735,8.53964111 C27.857937,8.5540179 27.8543428,8.56839469 27.8507486,8.58294263 C27.8432179,8.61375003 27.8362006,8.64455743 27.8305526,8.67604945 C27.8274719,8.69299352 27.8252469,8.70993759 27.8228508,8.72688166 C27.8187431,8.75580639 27.8149777,8.78473112 27.8125816,8.81416931 C27.8108701,8.83522103 27.8101855,8.85644391 27.8093297,8.87766679 C27.8086451,8.89649353 27.8064201,8.91497798 27.8064201,8.93414703 L27.8064201,20.6181971 L4.43849109,20.6181971 C2.02284835,20.6181971 0.0569936966,22.5840518 0.0569936966,24.9996945 C0.0569936966,26.9467224 1.33447403,28.6009088 3.09494599,29.1696477 L8.31543167,81.3647489 C8.68340899,85.0335684 11.7388188,87.8011001 15.4266362,87.8011001 L43.1074306,87.8011001 C46.7937075,87.8011001 49.8504866,85.0333972 50.2186351,81.3647489 L55.4391207,29.1694766 C57.1995927,28.6003954 58.4769019,26.9465513 58.4769019,24.9995234 Z M4.43849109,23.5389101 L54.0954045,23.5389101 C54.9015316,23.5389101 55.5558466,24.1945944 55.5558466,24.9993522 C55.5558466,25.8037678 54.9018739,26.459452 54.0960891,26.4597943 C54.0921526,26.4597943 54.0883873,26.4597943 54.0844508,26.4597943 L4.44567948,26.4597943 C4.44482372,26.4597943 4.44396796,26.4597943 4.4431122,26.4597943 L4.43849109,26.4597943 C3.63236403,26.4597943 2.97804901,25.8041101 2.97804901,24.9993522 C2.97804901,24.1947655 3.63219288,23.5389101 4.43849109,23.5389101 Z M51.4444274,39.7483967 C50.0084601,38.8847625 48.4393364,38.3892767 46.8558358,38.322185 C44.2810215,38.2081976 41.8434713,39.2145728 39.918522,41.1408913 C37.1172732,43.94214 33.1008436,43.94214 30.2995948,41.1408913 C28.3688264,39.2072133 25.9268262,38.1440155 23.4250939,38.1440155 C20.9231904,38.1440155 18.4813614,39.2072133 16.5505929,41.1408913 C15.1281467,42.5619684 13.3988244,43.3857241 11.6784021,43.458635 C10.1130437,43.5265824 8.58859065,42.9667434 7.29844505,41.8338867 L6.05331249,29.3806785 L52.4810965,29.3806785 L51.4444274,39.7483967 Z M47.3122988,81.0739612 C47.0947643,83.2443428 45.2865409,84.8800448 43.1076017,84.8800448 L15.4266362,84.8800448 C13.2475258,84.8800448 11.4379332,83.2443428 11.221939,81.0739612 L7.6688185,45.5388193 C8.85370547,46.0933526 10.126907,46.3858518 11.4285198,46.3858518 C11.5526052,46.3858518 11.6782309,46.3829422 11.8038567,46.377123 C14.2559548,46.2734047 16.6760475,45.1458538 18.6155447,43.2063566 C21.4167935,40.4051078 25.4332231,40.4051078 28.2344719,43.2063566 C30.1652403,45.1386654 32.6072405,46.2032323 35.1089728,46.2032323 C37.6108763,46.2032323 40.0527053,45.1384942 41.9834738,43.2063566 C43.3461879,41.8436424 45.0183453,41.1734102 46.7300389,41.2405019 C48.2563746,41.3053686 49.7890429,41.9608817 51.108969,43.1010979 L47.3122988,81.0739612 Z" id="Shape"></path>
                    <path d="M29.8241339,66.9372995 C29.0281048,66.0844479 27.9429996,65.592214 26.7731741,65.5526779 C25.6091677,65.4985938 24.4845263,65.9295551 23.6316747,66.7269534 L20.430272,69.71801 C18.6644943,71.3668907 18.5696759,74.1448627 20.2199259,75.9104692 L23.2109824,79.1118719 C24.0070115,79.9647236 25.0921167,80.4555882 26.2634827,80.4949532 C26.3146572,80.4978628 26.3656606,80.4978628 26.4168351,80.4978628 C27.5341169,80.4978628 28.5885859,80.0845301 29.4036129,79.322218 L32.6065559,76.3296211 C34.3723336,74.6807404 34.4657827,71.9027684 32.8153616,70.138531 L29.8241339,66.9372995 Z M30.6112631,74.1960372 L27.4098604,77.1886342 C26.8228082,77.7378617 25.8967034,77.7070543 25.3447374,77.1170926 L22.3536809,73.9156899 C21.8044533,73.3286377 21.8366299,72.4011637 22.4238533,71.8519361 L25.625256,68.8608796 C25.9071437,68.5979897 26.265023,68.4680852 26.6227312,68.4680852 C27.0141564,68.4680852 27.402672,68.6228068 27.6903789,68.931052 L30.6814355,72.1324547 C31.230663,72.7208761 31.1998556,73.6468097 30.6112631,74.1960372 Z" id="Shape"></path>
                    <path d="M38.5871287,55.5969231 C37.7910996,54.7440715 36.7059944,54.2518376 35.5361688,54.2123015 C34.3706221,54.1582174 33.2475211,54.5891787 32.3946694,55.386577 L29.1932668,58.3776336 C27.4274891,60.0265143 27.3326707,62.8044863 28.9829206,64.5700929 L31.9739772,67.7714955 C32.7700063,68.6243472 33.8551115,69.1152118 35.0264775,69.1545768 C35.077652,69.1574864 35.1286553,69.1574864 35.1798299,69.1574864 C36.2971117,69.1574864 37.3515807,68.7441537 38.1666076,67.9818416 L41.3695507,64.9892447 C43.1353284,63.340364 43.2287775,60.562392 41.5783564,58.7981546 L38.5871287,55.5969231 Z M39.374429,62.8556608 L36.1730263,65.8482578 C35.5859741,66.3974853 34.6598694,66.3653087 34.1079034,65.7767162 L31.1168468,62.5753135 C30.5676193,61.9882613 30.5997959,61.0607873 31.1870192,60.5115597 L34.3884219,57.5205032 C34.6703096,57.2576133 35.028189,57.1277088 35.3858972,57.1277088 C35.7773223,57.1277088 36.1658379,57.2826015 36.4535449,57.5906756 L39.4446014,60.7920783 C39.9936578,61.3804997 39.9628504,62.3064333 39.374429,62.8556608 Z" id="Shape"></path>
                    <path d="M23.3424274,61.8521952 C23.3936019,61.8551048 23.4446053,61.8551048 23.4957798,61.8551048 C24.6130616,61.8551048 25.6675306,61.4417722 26.4825575,60.6794601 L29.6855006,57.6868631 C31.4512783,56.0379824 31.5447274,53.2600104 29.8943063,51.4957731 L26.9032498,48.2943704 C26.1072207,47.4415188 25.0221155,46.9492849 23.8522899,46.9097488 C22.6896527,46.8585742 21.5636421,47.2850856 20.7107905,48.0840243 L17.5093878,51.0750809 C15.7436101,52.7239616 15.6486206,55.5019336 17.2990417,57.2675401 L20.2900983,60.4689428 C21.0859562,61.3221368 22.1710614,61.8128302 23.3424274,61.8521952 Z M19.502798,53.209007 L22.7042007,50.2179505 C22.9860884,49.9550606 23.3439677,49.8251561 23.7016759,49.8251561 C24.0931011,49.8251561 24.4816167,49.9800488 24.7693236,50.2881229 L27.7603802,53.4895256 C28.3094366,54.0781181 28.2788003,55.0040517 27.6902078,55.5532793 L24.4888051,58.5458762 C23.9002125,59.0935634 22.9756481,59.0642964 22.4236821,58.4743346 L19.4326255,55.2729319 C18.8835692,54.6855374 18.9157458,53.7582346 19.502798,53.209007 Z" id="Shape"></path>
                </g>
                <g id="009-balloons-2" transform="translate(348.552028, 162.672853) rotate(27.000000) translate(-348.552028, -162.672853) translate(304.052028, 118.672853)">
                    <path d="M23.6521172,7.84402942 C20.021242,8.6927311 16.2956619,10.7644443 13.6881548,13.387909 C13.1204457,13.9585668 13.123221,14.8801184 13.6940522,15.4464399 C13.9779935,15.7288201 14.3491812,15.8701837 14.7203689,15.8701837 C15.0945054,15.8701837 15.4686418,15.7260449 15.7525831,15.440716 C17.959589,13.2219153 21.2397438,11.3977184 24.3145312,10.6799731 C25.0978414,10.4964607 25.5840279,9.71332392 25.4005155,8.93001372 C25.2187376,8.14687698 24.4310911,7.66207805 23.6521172,7.84402942 Z" id="Shape"></path>
                    <path d="M12.3681835,17.6253466 C11.6636206,17.2352526 10.7798816,17.4898804 10.3896141,18.1946168 C7.37744297,23.6439649 6.50966155,30.4660139 8.01071699,36.9097636 C8.1678647,37.5808502 8.76627483,38.0351216 9.42730122,38.0351216 C9.53657611,38.0351216 9.64706517,38.0235003 9.75928875,37.997309 C10.5425989,37.8153576 11.0301731,37.0320474 10.8468341,36.2487372 C9.50743614,30.4981026 10.2688914,24.4300504 12.9374536,19.603916 C13.3275477,18.8993531 13.0713588,18.014053 12.3681835,17.6253466 Z" id="Shape"></path>
                    <path d="M63.4016404,0.240404767 C56.4479412,-0.584533957 49.7473088,1.3676707 44.2261514,5.28231369 C37.5451191,0.653221033 29.5087311,-0.998217484 21.9963424,0.755210934 C6.36344133,4.4049924 -3.09091843,21.3672312 0.922939224,38.565365 C4.41852167,53.5417494 16.9912053,63.8361382 30.507469,63.8347506 C30.5848287,63.8347506 30.6623618,63.8321488 30.739895,63.831455 L31.8789556,68.713441 C32.0361033,69.3845276 32.6345135,69.8387989 33.2955399,69.8387989 C33.4048148,69.8387989 33.5153038,69.8271777 33.628915,69.8009864 L36.5094359,69.1285121 L37.8916766,74.6574749 C38.0576704,75.3185013 38.6501831,75.7595902 39.3023634,75.7595902 C39.4187499,75.7595902 39.5382584,75.7464079 39.656206,75.7158803 C40.4365675,75.5207465 40.9111327,74.7303248 40.715999,73.9499633 L39.3452061,68.4666185 L42.1355319,67.8153054 C42.5112294,67.7278855 42.8373195,67.4935516 43.0411259,67.1660738 C43.2449322,66.837035 43.3104972,66.4424312 43.2216896,66.0669071 L42.0775988,61.1686166 C42.9174545,60.759096 43.741179,60.3032636 44.547038,59.8021601 C46.3159037,60.9323747 48.1982071,61.8497635 50.1691446,62.5385422 L49.5809681,67.5088154 C49.4878243,68.3080832 50.0584821,69.0317258 50.8563622,69.1262573 L53.7479841,69.4679581 L53.0642355,75.250508 C52.7818552,77.6410264 54.4967773,79.8175047 56.8888567,80.101446 C57.6851759,80.1961509 58.2573947,80.9210077 58.1626898,81.7188879 L57.9923597,83.163051 C57.8992159,83.9623188 57.1610033,84.5373129 56.3749178,84.4384451 C55.5654164,84.3496376 54.8535685,84.9145715 54.7588636,85.7122782 C54.6641587,86.511546 55.2349899,87.2351886 56.0342577,87.3297201 C56.2075365,87.3501874 56.3792541,87.3602477 56.5495842,87.3602477 C58.7303989,87.3602477 60.6217218,85.7238995 60.8851957,83.5050988 L61.0555258,82.0593746 C61.337906,79.6688562 59.622984,77.4923778 57.2309045,77.2084366 C56.4345854,77.1137317 55.8623665,76.3888749 55.9570715,75.5923823 L56.6406466,69.8093121 L59.5317481,70.1508395 C59.5900281,70.1581245 59.6481345,70.1610732 59.7050269,70.1610732 C60.4330058,70.1610732 61.0603825,69.6166067 61.14919,68.8770064 L61.7380603,63.8999686 C75.2694143,62.503158 86.7392888,50.8272223 88.5562007,35.4676819 C90.6293015,17.9290614 79.3462351,2.12721794 63.4016404,0.240404767 Z M39.3939462,62.4750587 L40.0563602,65.3110024 L34.3829118,66.6344428 L33.7218854,63.7984991 L36.519843,63.145625 C36.5325051,63.1426763 36.5451671,63.1402479 36.5578291,63.1372993 C36.5732663,63.1336568 36.5885301,63.1294939 36.6041408,63.1258514 L39.3939462,62.4750587 Z M35.8969761,60.3010087 L35.8942009,60.3017025 C21.81786,63.5881016 7.40849091,53.5370662 3.75732183,37.902951 C0.109101442,22.2684889 8.58796596,6.87564571 22.6589298,3.59115461 C29.1821206,2.06755038 35.9243816,3.34086307 41.8236648,7.17363662 C35.9257692,12.3142398 31.7604878,19.8731138 30.7249781,28.6265532 C29.7248526,37.0967451 31.7717622,45.4198495 36.4901827,52.0630693 C38.0913201,54.3162135 39.935464,56.2842023 41.9724868,57.9404975 C40.0384946,59.0169419 38.0021657,59.8092717 35.8969761,60.3010087 Z M58.4280717,67.0894079 L55.5477242,66.7487478 C55.5437348,66.7482274 55.5400923,66.7471867 55.5361029,66.7468398 C55.5328073,66.7464929 55.5296852,66.7466664 55.5265631,66.7463194 L52.6439607,66.4053124 L52.9860085,63.5124764 L55.7898635,63.844117 C55.8191769,63.8477595 55.8483169,63.8522693 55.8776303,63.8557383 C55.9036482,63.8588605 55.9294926,63.8607684 55.9555104,63.8637171 L58.769946,64.1967454 L58.4280717,67.0894079 Z M85.6633647,35.1256342 C83.7765515,51.0716164 70.5747567,62.666203 56.220025,60.9627289 C49.2959861,60.1445548 43.1318414,56.3841108 38.8647435,50.3757262 C34.5641693,44.3222439 32.6992112,36.7212211 33.6164265,28.970162 C35.3793947,14.0664541 47.0336489,2.96707355 60.2673589,2.96707355 C61.1918592,2.96707355 62.1236445,3.02101719 63.0611537,3.13150625 C77.409988,4.82925651 87.5501778,19.1826006 85.6633647,35.1256342 Z" id="Shape"></path>
                    <path d="M62.5480821,7.46937264 C58.8502544,7.03123235 54.6383143,7.71255264 51.292768,9.29356956 C50.5647891,9.63717839 50.25483,10.5047864 50.5982653,11.2313777 C50.8471693,11.7583255 51.3699542,12.0655094 51.9158084,12.0655094 C52.123951,12.0655094 52.3350423,12.0204118 52.5360735,11.9257069 C55.3662932,10.5892576 59.0700183,9.99084746 62.2058609,10.3620352 C63.011026,10.4508427 63.7272102,9.88452125 63.8233028,9.08664107 C63.91662,8.28754673 63.3473499,7.56407755 62.5480821,7.46937264 Z" id="Shape"></path>
                    <path d="M46.5559615,12.6918453 C41.8696296,16.7929494 38.7336136,22.9133842 37.9532521,29.4823664 C37.8571596,30.2802466 38.4293785,31.0051034 39.2270852,31.0998083 C39.2853651,31.1070933 39.3434716,31.110042 39.4003639,31.110042 C40.1283429,31.110042 40.7572806,30.5655755 40.8445271,29.8259752 C41.541805,23.9632905 44.3225908,18.516891 48.4717412,14.8830671 C49.0774363,14.3531706 49.1384915,13.4330066 48.6099826,12.8288726 C48.0773109,12.223004 47.158708,12.1617754 46.5559615,12.6918453 Z" id="Shape"></path>
                </g>
                <g id="038-candy" transform="translate(42.866070, 75.866070) rotate(-345.000000) translate(-42.866070, -75.866070) translate(7.866070, 40.866070)">
                    <path d="M68.6239619,12.7134715 C68.2905841,12.3164258 68.0530595,12.081431 68.0530595,12.081431 C65.2490038,9.27737531 63.0254077,8.47864599 61.6342722,8.3095678 C61.4639291,6.91829178 60.6651998,4.69357131 57.8600196,1.88825065 C57.8600196,1.88825065 57.6261492,1.65311531 57.2303685,1.31861315 C55.746753,0.0677437153 53.755903,-0.323258392 51.9029297,0.275191275 C50.0510807,0.874905866 48.6623346,2.35838079 48.1922044,4.24494488 L45.8553273,13.5924532 C36.8465376,9.00921139 25.5271531,10.4775072 18.0018382,18.0029626 C10.4786316,25.5261692 9.00963304,36.8461159 13.5914694,45.8547651 L4.24480433,48.19108 C2.35824025,48.6635995 0.874624772,50.0512213 0.275050728,51.9041946 C-0.322274562,53.7547786 0.0676031681,55.7456287 1.3184726,57.2292441 C1.65311531,57.6262898 1.88811011,57.8601602 1.88937503,57.8612846 C4.69343076,60.6653403 6.91815124,61.4640696 8.30942725,61.6331478 C8.47977037,63.0255482 9.27723477,65.2478794 12.0812905,68.0508107 C12.0812905,68.0508107 12.3151609,68.2894598 12.7145959,68.6241025 C13.7400277,69.4900133 15.0077628,69.9434184 16.3041695,69.9434184 C16.8822398,69.9434184 17.468743,69.8522033 18.0383805,69.6687893 C19.8926187,69.0690747 21.2802405,67.5855997 21.751495,65.6977707 L24.0900587,56.3445 C27.4950939,58.0729485 31.2285878,58.9387188 34.9627844,58.9387188 C41.1058183,58.9387188 47.2475872,56.6012796 51.9249956,51.9249956 C59.443283,44.4057243 60.9152331,33.0951942 56.3442189,24.0900587 L65.6977707,21.7516356 C67.5854592,21.2791161 69.0690747,19.8914944 69.6687893,18.038521 C70.2658335,16.187937 69.8760963,14.1982113 68.6239619,12.7134715 Z M19.4258617,65.1160462 C19.1547463,66.1954481 18.3620605,67.0433689 17.301773,67.3851795 C16.2403611,67.7281145 15.1057241,67.5050662 14.2590682,66.7902436 C13.9724926,66.5479403 13.796106,66.3752079 13.7793809,66.3572179 C10.2689353,62.8478966 10.6803167,60.7995628 10.6766625,60.7995628 L10.6753976,60.7995628 C10.8169285,60.3773592 10.6957769,59.8952826 10.3862921,59.5738513 C10.0912837,59.2680208 9.60555286,59.1529127 9.19051719,59.253685 C9.16887293,59.2573392 7.11800925,59.6973922 3.58605995,56.1654429 C3.56933484,56.1498422 3.3953375,55.9723312 3.15190987,55.6833663 C2.43708718,54.8365698 2.21516327,53.6996841 2.55697388,52.6417859 C2.90004942,51.5814984 3.74797024,50.7875477 4.82610725,50.5189621 L14.8371386,48.0162394 C15.2538608,48.6585398 15.7045954,49.2848178 16.1890614,49.8932463 L13.7790998,49.8932463 C13.1158579,49.8932463 12.5798112,50.430558 12.5798112,51.0925349 C12.5798112,51.7545119 13.1158579,52.2918236 13.7790998,52.2918236 L15.9713539,52.2918236 L12.9308979,55.3329823 C12.4618921,55.8019881 12.4618921,56.5599587 12.9308979,57.0288239 C13.1647683,57.2626944 13.4718638,57.3801918 13.7788187,57.3801918 C14.0859142,57.3801918 14.3928691,57.2626944 14.6267395,57.0288239 L17.6673361,53.9875247 L17.6673361,56.1809031 C17.6673361,56.8428801 18.2033828,57.3801918 18.8666247,57.3801918 C19.5298666,57.3801918 20.0659133,56.8428801 20.0659133,56.1809031 L20.0659133,53.7630709 C20.6697038,54.242196 21.2913437,54.6882926 21.9284439,55.1007984 L19.4258617,65.1160462 Z M50.2290134,50.2290134 C41.8216248,58.636402 28.1486381,58.6442726 19.7302868,50.2609176 C19.717497,50.2477061 19.7042856,50.2349164 19.6909336,50.2221266 C11.2807341,41.8046186 11.2829828,28.1133607 19.6975393,19.6986637 C23.9059419,15.4902611 29.4349254,13.3854273 34.9639088,13.3854273 C40.4898002,13.3854273 46.016816,15.4889961 50.224797,19.6945878 C50.2271863,19.6971177 50.2297161,19.699507 50.232246,19.7018963 C58.6458186,28.1191232 58.6448348,41.813192 50.2290134,50.2290134 Z M67.3861634,17.3009297 C67.0419635,18.3610767 66.1940426,19.155168 65.11703,19.4237535 L55.1005174,21.9290061 C54.6840762,21.2858624 54.2334821,20.6587411 53.7492973,20.0496099 L56.1654429,20.0496099 C56.8286848,20.0496099 57.3647316,19.5122982 57.3647316,18.8503212 C57.3647316,18.1883443 56.8286848,17.6510326 56.1654429,17.6510326 L53.9716428,17.6510326 L57.0132232,14.6094522 C57.482229,14.1417114 57.482229,13.3824758 57.0132232,12.9136106 C56.5454824,12.4458697 55.7862468,12.4458697 55.3173816,12.9136106 L52.2758012,15.955191 L52.2758012,13.7615314 C52.2758012,13.0995544 51.7397544,12.5622428 51.0765126,12.5622428 C50.4132707,12.5622428 49.8772239,13.0995544 49.8772239,13.7615314 L49.8772239,16.1776771 C49.2738551,15.6979897 48.6527773,15.251331 48.0159583,14.8381224 L50.5176972,4.82652889 C50.7888126,3.74839188 51.5814984,2.90033051 52.6416454,2.55739552 C53.699403,2.21558491 54.8376942,2.43750883 55.6832257,3.15106659 C55.9734556,3.39688352 56.1522315,3.57200524 56.1653024,3.58521667 C59.6746236,7.09453788 59.2632422,9.14301226 59.2667558,9.14301226 L59.2680208,9.14174734 C59.1241005,9.57350811 59.25242,10.0652825 59.5738513,10.3854489 C59.8677354,10.6804573 60.3461578,10.7860082 60.7527606,10.6900145 C60.7779186,10.6863603 62.8263929,10.2463072 66.3560935,13.7758672 C66.3716942,13.7927329 66.545551,13.9701033 66.7915085,14.2592088 C67.5049257,15.1061458 67.727974,16.2442964 67.3861634,17.3009297 Z" id="Shape"></path>
                    <path d="M34.9643305,18.1723219 C30.4776445,18.1723219 26.2619334,19.9197443 23.0909092,23.0907686 C22.6231683,23.5596338 22.6231683,24.317745 23.0909092,24.7866102 C23.5597744,25.255616 24.31901,25.255616 24.7867508,24.7866102 C27.505635,22.0688504 31.1192421,20.5708992 34.9643305,20.5708992 C38.8081538,20.5708992 42.421761,22.0688504 45.1406452,24.7866102 C45.3745156,25.0204807 45.6816111,25.1379781 45.988566,25.1379781 C46.2956615,25.1379781 46.6026164,25.0204807 46.8364868,24.7866102 C47.305352,24.3176045 47.305352,23.5596338 46.8364868,23.0907686 C43.6654625,19.9198849 39.4486271,18.1723219 34.9643305,18.1723219 Z" id="Shape"></path>
                    <path d="M45.1402235,45.1399425 C42.4224638,47.8577023 38.8077322,49.3556535 34.9639088,49.3556535 C31.1188205,49.3556535 27.5052133,47.8577023 24.7875941,45.1399425 C24.3185883,44.6722016 23.5594933,44.6722016 23.0917524,45.1399425 C22.6228872,45.6089482 22.6228872,46.3680433 23.0917524,46.8357841 C26.2616523,50.0068084 30.4784878,51.7542308 34.9639088,51.7542308 C39.4482054,51.7542308 43.6650409,50.0068084 46.8362057,46.8357841 C47.3050709,46.3680433 47.3050709,45.6088077 46.8362057,45.1399425 C46.3683243,44.6722016 45.6092293,44.6722016 45.1402235,45.1399425 Z" id="Shape"></path>
                </g>
                <g id="pencil" transform="translate(226.101480, 190.572766) rotate(204.000000) translate(-226.101480, -190.572766) translate(217.101480, 149.072766)">
                    <path d="M17.7781921,61.8648979 C17.7842921,61.8414612 17.7907131,61.818185 17.7953683,61.7942668 C17.7988999,61.7759669 17.8011472,61.7575064 17.8038762,61.739046 C17.8067656,61.7191409 17.8104577,61.6997173 17.812384,61.6794911 C17.8162366,61.6403229 17.8183234,61.6009941 17.8183234,61.5616654 L17.8183234,2.48830479 C17.8183234,1.11613336 16.7021901,0 15.3301792,0 L2.48814426,0 C1.11613336,0 -1.13686838e-13,1.11613336 -1.13686838e-13,2.48814426 L-1.13686838e-13,61.5615049 C-1.13686838e-13,61.6009941 0.00208683067,61.6403229 0.00593944115,61.6793305 C0.00786574639,61.6993962 0.0115578314,61.7189803 0.0144472893,61.7388855 C0.0171762217,61.7573459 0.0192630524,61.7758063 0.0229551374,61.7941062 C0.0276103751,61.8180245 0.0340313925,61.8413007 0.0401313591,61.8647374 C0.0436629187,61.8785426 0.046712902,61.8925083 0.0507260379,61.906153 C0.0579496826,61.9305529 0.0667785816,61.9541501 0.0754469551,61.9777473 C0.0791390402,61.988021 0.082028498,61.9984551 0.0860416339,62.0085682 L0.093425804,62.0268681 C0.0940679057,62.0283128 0.0945494821,62.0299181 0.0951915838,62.0313628 L7.79126258,81.2716206 C7.97410105,81.7286365 8.41666968,82.0283375 8.9090012,82.0283375 C9.40133271,82.0283375 9.84406186,81.7286365 10.0267398,81.2716206 L17.7228108,62.0313628 C17.7234529,62.0299181 17.7239345,62.0283128 17.7245766,62.0268681 L17.7319608,62.0085682 C17.7359739,61.9984551 17.7388634,61.988021 17.7425554,61.9777473 C17.7513843,61.9541501 17.7600527,61.9303923 17.7672764,61.906153 C17.7716105,61.8925083 17.7746605,61.8787031 17.7781921,61.8648979 Z M15.4104419,2.48814426 L15.4104419,58.0455162 C14.9869758,57.8806566 14.5270704,57.7891571 14.0459757,57.7891571 C13.564881,57.7891571 13.1049756,57.8806566 12.6815095,58.0455162 L12.6815095,2.40788155 L15.3301792,2.40788155 C15.3744842,2.40788155 15.4104419,2.44383924 15.4104419,2.48814426 Z M12.7171461,68.062785 L5.10101679,68.062785 L2.42313146,61.3680717 C2.51768095,60.7071885 3.08578046,60.1970387 3.77218723,60.1970387 C4.52456995,60.1970387 5.13665344,60.8091222 5.13665344,61.5615049 C5.13665344,62.2264012 5.67569786,62.7654456 6.34059421,62.7654456 C7.00549057,62.7654456 7.54453499,62.2264012 7.54453499,61.5615049 C7.54453499,60.8091222 8.15661848,60.1970387 8.9090012,60.1970387 C9.66138392,60.1970387 10.2734674,60.8091222 10.2734674,61.5615049 C10.2734674,62.2264012 10.8125118,62.7654456 11.4774082,62.7654456 C12.1423045,62.7654456 12.681349,62.2264012 12.681349,61.5615049 C12.681349,60.8091222 13.2934324,60.1970387 14.0458152,60.1970387 C14.7323825,60.1970387 15.300482,60.7071885 15.3948709,61.3680717 L12.7171461,68.062785 Z M7.54469551,58.0455162 L7.54469551,2.40788155 L10.2736279,2.40788155 L10.2736279,58.0455162 C9.85016183,57.8806566 9.39025646,57.7891571 8.90916172,57.7891571 C8.42806699,57.7891571 7.96816161,57.8806566 7.54469551,58.0455162 Z M2.48814426,2.40788155 L5.13681397,2.40788155 L5.13681397,58.0455162 C4.71334786,57.8806566 4.25344249,57.7891571 3.77234776,57.7891571 C3.29125302,57.7891571 2.83134765,57.8806566 2.40788155,58.0455162 L2.40788155,2.48814426 C2.40788155,2.44383924 2.44383924,2.40788155 2.48814426,2.40788155 Z M8.90916172,77.5829066 L6.06432994,70.4706666 L11.754154,70.4706666 L8.90916172,77.5829066 Z" id="Shape"></path>
                </g>
                <g id="open-book" transform="translate(764.519531, 47.000000) rotate(18.000000) translate(-764.519531, -47.000000) translate(717.519531, 13.000000)">
                    <path d="M88.8117494,10.4034539 L87.2632368,10.4034539 L87.2632368,5.94009415 C87.2632368,5.41086722 86.9575422,4.92918872 86.4785964,4.7038346 C73.7981004,-1.26322189 59.2821615,-1.34811681 46.5464656,4.43985876 C33.8107696,-1.34811681 19.2948308,-1.26303971 6.61433474,4.7038346 C6.13538891,4.92918872 5.82969432,5.41086722 5.82969432,5.94009415 L5.82969432,10.4034539 L4.28118177,10.4034539 C1.92051992,10.4034539 0,12.3239738 0,14.6846356 L0,62.7796138 C0,65.1402756 1.92051992,67.0607955 4.28118177,67.0607955 L88.8117494,67.0607955 C91.1724112,67.0607955 93.0929312,65.1402756 93.0929312,62.7796138 L93.0929312,14.6846356 C93.0929312,12.3239738 91.1724112,10.4034539 88.8117494,10.4034539 Z M47.9128002,30.7121049 C47.9128002,30.7104653 47.9128002,30.7086435 47.9128002,30.7070039 L47.9128002,6.81637008 C59.5971472,1.58658774 72.8458563,1.58658774 84.5305676,6.81637008 L84.5305676,11.7645053 C84.5305676,11.7663271 84.5303854,11.7681489 84.5303854,11.7697885 C84.5303854,11.7714281 84.5305676,11.773432 84.5305676,11.7750716 L84.5305676,56.3062848 C78.6576971,53.8539874 72.4392351,52.6275655 66.2216839,52.6275655 C60.0041327,52.6275655 53.7854885,53.8539874 47.9128002,56.3062848 L47.9128002,30.7121049 Z M39.1682587,4.62568026 C41.2062834,5.20937841 43.2157062,5.93699713 45.180131,6.81637008 L45.180131,28.1634354 L42.9320551,26.6646575 C42.4729667,26.3585985 41.8752408,26.3585985 41.4163346,26.6646575 L39.1682587,28.1634354 L39.1682587,4.62568026 Z M8.56236353,11.773432 C8.56236353,11.7721568 8.56254571,11.7710637 8.56254571,11.7697885 C8.56254571,11.7685132 8.56236353,11.7676023 8.56236353,11.7663271 L8.56236353,6.81637008 C17.4094712,2.85655022 27.1528944,1.89774768 36.4355895,3.93431495 L36.4355895,9.9199536 C31.5592324,8.91706399 26.5837704,8.68533365 21.6194214,9.23678629 C20.8693948,9.32004161 20.329055,9.99555744 20.4123103,10.7455841 C20.4957478,11.4954285 21.1705349,12.0363148 21.9211081,11.9526951 C26.7867167,11.4121732 31.6638025,11.6681332 36.4354073,12.7114663 L36.4354073,21.5809818 C33.5365918,20.9861708 30.5802081,20.6578862 27.6221848,20.6112486 C26.8670572,20.5970387 26.2463769,21.201323 26.2343531,21.9557219 C26.2225116,22.7103029 26.8244275,23.3315297 27.5788264,23.3435535 C30.5539745,23.3905554 33.5276651,23.7377866 36.4352251,24.3723123 L36.4352251,27.407397 C28.5307062,25.7843736 20.3325164,26.1970067 12.6158229,28.621613 C11.8958556,28.8476958 11.4957928,29.614665 11.7218757,30.3346322 C11.9053289,30.9183304 12.4440291,31.2917951 13.0249945,31.2917951 C13.1607171,31.2917951 13.2986258,31.2713912 13.4348949,31.2285794 C20.8874304,28.8872284 28.8158147,28.5372646 36.4352251,30.2014601 L36.4352251,30.7161128 C36.4352251,31.220017 36.7125,31.6831134 37.156832,31.9206734 C37.6009818,32.1585978 38.1402285,32.1323642 38.55942,31.8529032 L42.1738305,29.4432355 L45.1797666,31.4471929 L45.1797666,56.3061026 C39.3068961,53.8538052 33.0884341,52.6273833 26.8708829,52.6273833 C20.6533317,52.6273833 14.4346875,53.8538052 8.56199917,56.3061026 L8.56199917,11.773432 L8.56236353,11.773432 Z M40.8078602,64.3281263 L4.28118177,64.3281263 C3.42731373,64.3281263 2.73266921,63.6334818 2.73266921,62.7796138 L2.73266921,14.6846356 C2.73266921,13.8307676 3.42731373,13.1361231 4.28118177,13.1361231 L5.82969432,13.1361231 L5.82969432,58.407343 L5.82969432,59.8647666 C5.82969432,60.6193477 6.44144787,61.2311012 7.19602892,61.2311012 L40.8078602,61.2311012 L40.8078602,64.3281263 Z M10.4369746,58.498432 C21.0213312,54.320363 32.7209811,54.3201808 43.3055199,58.498432 L10.4369746,58.498432 Z M49.5524017,64.3281263 L43.5405294,64.3281263 L43.5405294,61.2311012 L49.5524017,61.2311012 L49.5524017,64.3281263 Z M82.6559565,58.498432 L49.7874113,58.498432 C60.3717678,54.320363 72.0714178,54.320363 82.6559565,58.498432 Z M90.3602619,62.7796138 C90.3602619,63.6334818 89.6656174,64.3281263 88.8117494,64.3281263 L52.2850709,64.3281263 L52.2850709,61.2311012 L85.8969022,61.2311012 C86.6514833,61.2311012 87.2632368,60.6193477 87.2632368,59.8647666 L87.2632368,58.407343 L87.2632368,13.1361231 L88.8117494,13.1361231 C89.6656174,13.1361231 90.3602619,13.8307676 90.3602619,14.6846356 L90.3602619,62.7796138 Z" id="Shape"></path>
                    <path d="M56.4678766,44.9522264 C54.9554353,45.269216 53.44099,45.6647243 51.9666239,46.1280028 C51.2466566,46.3542678 50.8465938,47.121237 51.0726767,47.8410221 C51.2561299,48.4247202 51.7948301,48.798185 52.3757955,48.798185 C52.5115181,48.798185 52.6494268,48.7777811 52.7856959,48.7349693 C54.1753493,48.2984709 55.6028957,47.9255526 57.028256,47.6267808 C57.7668054,47.4719295 58.2401037,46.7477722 58.0852524,46.0092228 C57.9305833,45.2706734 57.2058795,44.7975573 56.4678766,44.9522264 Z" id="Shape"></path>
                    <path d="M80.0675723,48.7980028 C80.6485377,48.7980028 81.1874201,48.4243559 81.3706911,47.8408399 C81.596774,47.1208726 81.196529,46.3539035 80.4767439,46.1278207 C74.6337506,44.2921957 68.5752408,43.6061135 62.4695469,44.0896138 C61.7173342,44.1490038 61.1558617,44.8070305 61.2152517,45.5594255 C61.2746417,46.3118204 61.932122,46.873475 62.6850634,46.8137206 C68.4400648,46.3584579 74.1504325,47.0046431 79.6576719,48.7349693 C79.793941,48.7777811 79.9318497,48.7980028 80.0675723,48.7980028 Z" id="Shape"></path>
                    <path d="M52.3757955,42.9515481 C52.5115181,42.9515481 52.6494268,42.9311442 52.7856959,42.8883324 C61.5755997,40.1266969 70.8679503,40.1266969 79.6576719,42.8883324 C80.3776391,43.114233 81.1446083,42.7141703 81.3706911,41.9943852 C81.596774,41.274418 81.196529,40.5074488 80.4767439,40.281366 C71.1508726,37.351398 61.292313,37.351398 51.9666239,40.281366 C51.2466566,40.5074488 50.8464117,41.274418 51.0726767,41.9943852 C51.2561299,42.5779012 51.7948301,42.9515481 52.3757955,42.9515481 Z" id="Shape"></path>
                    <path d="M52.3757955,37.1386142 C52.5115181,37.1386142 52.6494268,37.1182103 52.7856959,37.0753984 C57.8285637,35.4909968 63.0621718,34.8142058 68.3435105,35.0647004 C69.0990024,35.0996786 69.7373539,34.5183488 69.7730608,33.7644964 C69.8087677,33.0106441 69.2267091,32.3708351 68.4728568,32.3349461 C62.8703384,32.069695 57.317008,32.7872939 51.9666239,34.4682498 C51.2466566,34.6945148 50.8464117,35.461484 51.0726767,36.1812691 C51.2561299,36.7653316 51.7948301,37.1386142 52.3757955,37.1386142 Z" id="Shape"></path>
                    <path d="M80.4767439,34.468432 C78.5165092,33.8526706 76.4968845,33.359697 74.4736162,33.0031748 C73.7303302,32.8721888 73.0220223,33.3686237 72.8908542,34.1117276 C72.7598683,34.8548314 73.256121,35.5635037 73.999407,35.6944896 C75.9062636,36.0304257 77.8100231,36.4951617 79.6574897,37.0755806 C79.793941,37.1183924 79.9316675,37.1387964 80.0673901,37.1387964 C80.6483556,37.1387964 81.1872379,36.7651494 81.3705089,36.1816334 C81.596774,35.461484 81.1967112,34.6945148 80.4767439,34.468432 Z" id="Shape"></path>
                    <path d="M52.3757955,31.2921595 C52.5115181,31.2921595 52.6494268,31.2717556 52.7856959,31.2289438 C61.5755997,28.4673082 70.8679503,28.4673082 79.6576719,31.2289438 C80.3776391,31.4548444 81.1446083,31.0547816 81.3706911,30.3349966 C81.596774,29.6150293 81.196529,28.8480602 80.4767439,28.6219773 C71.1508726,25.6920094 61.292313,25.6920094 51.9666239,28.6219773 C51.2466566,28.8480602 50.8464117,29.6150293 51.0726767,30.3349966 C51.2561299,30.9185125 51.7948301,31.2921595 52.3757955,31.2921595 Z" id="Shape"></path>
                    <path d="M60.9709511,20.8961749 C57.9227497,21.2346616 54.8931304,21.8726487 51.9666239,22.7921008 C51.2466566,23.0181837 50.8465938,23.7851528 51.0726767,24.5051201 C51.2561299,25.0888182 51.7948301,25.462283 52.3757955,25.462283 C52.5115181,25.462283 52.6494268,25.4418791 52.7856959,25.3990673 C55.5440522,24.5324468 58.3995094,23.9312595 61.2724556,23.6120838 C62.0224822,23.5288284 62.562822,22.8533126 62.4795667,22.103286 C62.3963114,21.3532594 61.7200668,20.8127374 60.9709511,20.8961749 Z" id="Shape"></path>
                    <path d="M66.9296274,23.3437357 C71.2517992,23.4120524 75.534074,24.1034177 79.6576719,25.3992494 C79.793941,25.4418791 79.9318497,25.4624652 80.0675723,25.4624652 C80.6485377,25.4624652 81.1872379,25.0888182 81.3706911,24.5053022 C81.596774,23.785335 81.196529,23.0183658 80.4767439,22.792283 C76.1017405,21.4177504 71.5582225,20.6841198 66.9728036,20.611613 C66.2213195,20.5974031 65.5969957,21.2016873 65.584972,21.9560862 C65.5729482,22.7104851 66.1750463,23.3318941 66.9296274,23.3437357 Z" id="Shape"></path>
                    <path d="M71.1716409,17.7995142 C71.9214853,17.883316 72.5971834,17.3424297 72.6804387,16.5924031 C72.7638762,15.8423765 72.2233542,15.1668607 71.4733276,15.0836053 C64.8690126,14.3499747 58.3058699,14.9877797 51.9666239,16.9793491 C51.2466566,17.2056141 50.8465938,17.9725832 51.0726767,18.6923683 C51.2561299,19.2760664 51.7948301,19.6495312 52.3757955,19.6495312 C52.5115181,19.6495312 52.6494268,19.6291273 52.7856959,19.5863155 C58.7605861,17.7091539 64.9464383,17.1081489 71.1716409,17.7995142 Z" id="Shape"></path>
                    <path d="M80.4767439,16.9793491 C79.4897038,16.6692822 78.4800736,16.3879994 77.4759088,16.1435166 C76.7417317,15.9649822 76.0035466,16.4145974 75.8250122,17.1476815 C75.6464778,17.8807655 76.096093,18.6200437 76.8291771,18.798578 C77.7757737,19.0290331 78.7272891,19.2941021 79.6576719,19.5863155 C79.793941,19.6291273 79.9318497,19.6495312 80.0675723,19.6495312 C80.6485377,19.6495312 81.1874201,19.2758843 81.3706911,18.6923683 C81.596774,17.9724011 81.1967112,17.2054319 80.4767439,16.9793491 Z" id="Shape"></path>
                    <path d="M52.3757955,13.8030765 C52.5115181,13.8030765 52.6494268,13.7826726 52.7856959,13.7398608 C53.71535,13.4476474 54.6666832,13.1827606 55.6132798,12.9521234 C56.3463639,12.773589 56.7959791,12.034493 56.6174447,11.3012268 C56.4389103,10.5679606 55.6996322,10.1185276 54.9665481,10.2970619 C53.9622011,10.5415448 52.9529353,10.8228275 51.9664417,11.1327122 C51.2466566,11.3589772 50.8464117,12.1259464 51.0724945,12.8457314 C51.2561299,13.4294296 51.7948301,13.8030765 52.3757955,13.8030765 Z" id="Shape"></path>
                    <path d="M61.2717269,11.9528773 C67.4971117,11.2613298 73.6827817,11.862517 79.6576719,13.7398608 C79.793941,13.7824904 79.9318497,13.8030765 80.0675723,13.8030765 C80.6485377,13.8030765 81.1872379,13.4294296 81.3706911,12.8459136 C81.596774,12.1259464 81.196529,11.3589772 80.4767439,11.1328944 C74.1374979,9.14114287 67.574173,8.5031557 60.969858,9.23715065 C60.2198314,9.32040597 59.6794916,9.9959218 59.762747,10.7459484 C59.8461845,11.4957928 60.5213359,12.036497 61.2717269,11.9528773 Z" id="Shape"></path>
                    <path d="M17.1174399,44.9522264 C15.6049986,45.269216 14.0905533,45.6647243 12.6161872,46.1280028 C11.89622,46.3542678 11.4961572,47.121237 11.72224,47.8410221 C11.9056932,48.4247202 12.4443934,48.798185 13.0253589,48.798185 C13.1610815,48.798185 13.2989902,48.7777811 13.4352593,48.7349693 C14.8249127,48.2984709 16.252459,47.9255526 17.6778193,47.6267808 C18.4163687,47.4719295 18.889667,46.7477722 18.7348158,46.0092228 C18.5799645,45.2706734 17.8554428,44.7975573 17.1174399,44.9522264 Z" id="Shape"></path>
                    <path d="M40.7171356,48.7980028 C41.2981011,48.7980028 41.8369835,48.4243559 42.0202545,47.8408399 C42.2463373,47.1208726 41.8460924,46.3539035 41.1263073,46.1278207 C35.283314,44.2921957 29.2244398,43.6061135 23.1191102,44.0896138 C22.3668975,44.1490038 21.8054251,44.8070305 21.8648151,45.5594255 C21.9242051,46.3118204 22.5815031,46.873475 23.3346268,46.8137206 C29.0898103,46.3584579 34.7999959,47.0046431 40.3072352,48.7349693 C40.4435043,48.7777811 40.581413,48.7980028 40.7171356,48.7980028 Z" id="Shape"></path>
                    <path d="M13.0253589,42.9515481 C13.1610815,42.9515481 13.2989902,42.9311442 13.4352593,42.8883324 C22.2251631,40.1266969 31.5175136,40.1266969 40.3072352,42.8883324 C41.0272025,43.114233 41.7941716,42.7141703 42.0202545,41.9943852 C42.2463373,41.274418 41.8460924,40.5074488 41.1263073,40.281366 C31.800436,37.351398 21.9416942,37.351398 12.6161872,40.281366 C11.89622,40.5074488 11.495975,41.274418 11.72224,41.9943852 C11.9056932,42.5779012 12.4443934,42.9515481 13.0253589,42.9515481 Z" id="Shape"></path>
                    <path d="M13.0253589,37.1386142 C13.1610815,37.1386142 13.2989902,37.1182103 13.4352593,37.0753984 C18.478127,35.4909968 23.7120995,34.8142058 28.9930738,35.0647004 C29.7505697,35.0996786 30.3867351,34.5183488 30.4226242,33.7644964 C30.458331,33.0106441 29.8762725,32.3708351 29.1224201,32.3349461 C23.5193552,32.069695 17.9665714,32.7872939 12.6161872,34.4682498 C11.89622,34.6945148 11.495975,35.461484 11.72224,36.1812691 C11.9056932,36.7653316 12.4443934,37.1386142 13.0253589,37.1386142 Z" id="Shape"></path>
                    <path d="M34.6491525,35.6944896 C36.5560091,36.0304257 38.4597687,36.4951617 40.3072352,37.0755806 C40.4436865,37.1183924 40.581413,37.1387964 40.7171356,37.1387964 C41.2981011,37.1387964 41.8369835,36.7651494 42.0202545,36.1816334 C42.2463373,35.4616662 41.8460924,34.694697 41.1263073,34.4686142 C39.1660726,33.8528527 37.1464478,33.3598792 35.1231796,33.003357 C34.3800757,32.872371 33.6714035,33.3688059 33.5404176,34.1119098 C33.4096138,34.8548314 33.9058665,35.5635037 34.6491525,35.6944896 Z" id="Shape"></path>
                    <path d="M21.6205144,20.8961749 C18.572313,21.2346616 15.5426938,21.8726487 12.6161872,22.7921008 C11.89622,23.0181837 11.4961572,23.7851528 11.72224,24.5051201 C11.9056932,25.0888182 12.4443934,25.462283 13.0253589,25.462283 C13.1610815,25.462283 13.2989902,25.4418791 13.4352593,25.3990673 C16.1936156,24.5324468 19.0490727,23.9312595 21.922019,23.6120838 C22.6720456,23.5288284 23.2123854,22.8533126 23.12913,22.103286 C23.0460569,21.3534416 22.3692658,20.8127374 21.6205144,20.8961749 Z" id="Shape"></path>
                    <path d="M11.72224,18.6923683 C11.9056932,19.2760664 12.4443934,19.6495312 13.0253589,19.6495312 C13.1610815,19.6495312 13.2989902,19.6291273 13.4352593,19.5863155 C19.4101494,17.7089717 25.5960016,17.1079667 31.8212043,17.799332 C32.5710487,17.8831339 33.2467467,17.3422475 33.330002,16.5922209 C33.4134395,15.8421943 32.8729176,15.1666785 32.1228909,15.0834232 C25.5183938,14.3497926 18.9554333,14.9875976 12.6161872,16.9791669 C11.89622,17.2056141 11.4961572,17.9725832 11.72224,18.6923683 Z" id="Shape"></path>
                    <path d="M13.0253589,13.8030765 C13.1610815,13.8030765 13.2989902,13.7826726 13.4352593,13.7398608 C14.3649133,13.4476474 15.3162466,13.1827606 16.2628432,12.9521234 C16.9959273,12.773589 17.4455424,12.034493 17.267008,11.3012268 C17.0884736,10.5679606 16.3491955,10.1185276 15.6161115,10.2970619 C14.6117645,10.5415448 13.6024986,10.8228275 12.616005,11.1327122 C11.89622,11.3589772 11.495975,12.1259464 11.7220579,12.8457314 C11.9056932,13.4294296 12.4443934,13.8030765 13.0253589,13.8030765 Z" id="Shape"></path>
                </g>
                <g id="american-football" transform="translate(334.081871, 66.870378) rotate(-113.000000) translate(-334.081871, -66.870378) translate(310.581871, 27.870378)">
                    <path d="M40.9225275,17.4851616 C37.6957336,11.1667387 32.9995921,5.61708461 27.3421099,1.43608804 C24.7508944,-0.478696012 21.2694136,-0.478696012 18.6781981,1.43608804 C13.020564,5.61693274 8.3245744,11.1665868 5.09778056,17.4850097 C1.76391798,24.0130139 0.00176384898,31.3846591 0.00176384898,38.8030805 C0.00176384898,46.22135 1.76391798,53.5931471 5.09778056,60.1211513 C8.3245744,66.4395742 13.020564,71.9892283 18.6781981,76.1702248 C19.9738059,77.1276169 21.491904,77.6063129 23.010154,77.6063129 C24.528404,77.6063129 26.0465022,77.1276169 27.3421099,76.1702248 C32.999744,71.9892283 37.6957336,66.4395742 40.9225275,60.1211513 C44.25639,53.5931471 46.0185442,46.2215018 46.0185442,38.8030805 C46.0185442,31.384811 44.25639,24.0131658 40.9225275,17.4851616 Z M8.7419147,15.6429716 L37.2783933,15.6429716 C37.7932345,16.4866126 38.2801316,17.347415 38.7368063,18.2247712 L7.28334982,18.2247712 C7.7400246,17.347415 8.22707349,16.4866126 8.7419147,15.6429716 Z M20.0321242,3.2682545 C20.9226931,2.61004748 21.9664995,2.28109584 23.010154,2.28109584 C24.0538085,2.28109584 25.0976149,2.61019935 25.9881839,3.2682545 C29.7623192,6.0572055 33.0837284,9.48978395 35.7908212,13.3649132 L10.229335,13.3649132 C12.9364278,9.48978395 16.2579888,6.0572055 20.0321242,3.2682545 Z M6.17849148,20.5028296 L39.8416647,20.5028296 C42.3968869,26.2034431 43.7404857,32.4845058 43.7404857,38.8032324 C43.7404857,45.121959 42.3968869,51.4028698 39.8416647,57.1036351 L6.17849148,57.1036351 C3.62326927,51.4028698 2.27967041,45.121959 2.27967041,38.8032324 C2.27982228,32.4845058 3.62342114,26.2034431 6.17849148,20.5028296 Z M37.2783933,61.9634931 L8.7419147,61.9634931 C8.22707349,61.1198521 7.7400246,60.2590498 7.28350169,59.3816935 L38.7369582,59.3816935 C38.2801316,60.2590498 37.7930827,61.1198521 37.2783933,61.9634931 Z M25.988032,74.3382102 C24.206894,75.6544724 21.8132621,75.6544724 20.0319723,74.3382102 C16.257837,71.5492592 12.9364278,68.1166808 10.229335,64.2415515 L35.7906693,64.2415515 C33.0837284,68.1165289 29.7621673,71.5491074 25.988032,74.3382102 Z" id="Shape"></path>
                    <path d="M19.3652605,42.5240611 C18.7362127,42.5240611 18.2262313,43.0340425 18.2262313,43.6630904 C18.2262313,44.2921382 18.7362127,44.8021196 19.3652605,44.8021196 L21.8711248,44.8021196 L21.8711248,47.3839191 L19.3652605,47.3839191 C18.7362127,47.3839191 18.2262313,47.8939005 18.2262313,48.5229483 C18.2262313,49.1519962 18.7362127,49.6619776 19.3652605,49.6619776 L21.8711248,49.6619776 L21.8711248,52.1678418 C21.8711248,52.7968897 22.3811061,53.3068711 23.010154,53.3068711 C23.6392019,53.3068711 24.1491832,52.7968897 24.1491832,52.1678418 L24.1491832,49.6619776 L26.6550475,49.6619776 C27.2840954,49.6619776 27.7940767,49.1519962 27.7940767,48.5229483 C27.7940767,47.8939005 27.2840954,47.3839191 26.6550475,47.3839191 L24.1491832,47.3839191 L24.1491832,44.8021196 L26.6550475,44.8021196 C27.2840954,44.8021196 27.7940767,44.2921382 27.7940767,43.6630904 C27.7940767,43.0340425 27.2840954,42.5240611 26.6550475,42.5240611 L24.1491832,42.5240611 L24.1491832,39.9422616 L26.6550475,39.9422616 C27.2840954,39.9422616 27.7940767,39.4322802 27.7940767,38.8032324 C27.7940767,38.1741845 27.2840954,37.6642032 26.6550475,37.6642032 L24.1491832,37.6642032 L24.1491832,35.0824036 L26.6550475,35.0824036 C27.2840954,35.0824036 27.7940767,34.5724222 27.7940767,33.9433744 C27.7940767,33.3143265 27.2840954,32.8043452 26.6550475,32.8043452 L24.1491832,32.8043452 L24.1491832,30.2225456 L26.6550475,30.2225456 C27.2840954,30.2225456 27.7940767,29.7125643 27.7940767,29.0835164 C27.7940767,28.4544685 27.2840954,27.9444872 26.6550475,27.9444872 L24.1491832,27.9444872 L24.1491832,25.4386229 C24.1491832,24.809575 23.6392019,24.2995937 23.010154,24.2995937 C22.3811061,24.2995937 21.8711248,24.809575 21.8711248,25.4386229 L21.8711248,27.9444872 L19.3652605,27.9444872 C18.7362127,27.9444872 18.2262313,28.4544685 18.2262313,29.0835164 C18.2262313,29.7125643 18.7362127,30.2225456 19.3652605,30.2225456 L21.8711248,30.2225456 L21.8711248,32.8043452 L19.3652605,32.8043452 C18.7362127,32.8043452 18.2262313,33.3143265 18.2262313,33.9433744 C18.2262313,34.5724222 18.7362127,35.0824036 19.3652605,35.0824036 L21.8711248,35.0824036 L21.8711248,37.6642032 L19.3652605,37.6642032 C18.7362127,37.6642032 18.2262313,38.1741845 18.2262313,38.8032324 C18.2262313,39.4322802 18.7362127,39.9422616 19.3652605,39.9422616 L21.8711248,39.9422616 L21.8711248,42.5240611 L19.3652605,42.5240611 Z" id="Shape"></path>
                </g>
            </g>
        </g>
    </g>
</svg>