<?xml version="1.0" encoding="UTF-8" standalone="no"?>
<svg width="141px" height="125px" viewBox="0 0 141 125" version="1.1" xmlns="http://www.w3.org/2000/svg" xmlns:xlink="http://www.w3.org/1999/xlink" xmlns:sketch="http://www.bohemiancoding.com/sketch/ns">
    <!-- Generator: Sketch 3.4.4 (17249) - http://www.bohemiancoding.com/sketch -->
    <title>responsive</title>
    <desc>Created with Sketch.</desc>
    <defs></defs>
    <g id="Page-1" stroke="none" stroke-width="1" fill="none" fill-rule="evenodd" sketch:type="MSPage">
        <g id="Desktop-HD" sketch:type="MSArtboardGroup" transform="translate(-212.000000, -1202.000000)">
            <g id="calendar-+-668,000-copy-+-impressions-each-mon-copy-copy" sketch:type="MSLayerGroup" transform="translate(155.000000, 1211.000000)">
                <g id="responsive" transform="translate(67.000000, 0.000000)" sketch:type="MSShapeGroup">
                    <path d="M89.5388184,105.91147 L40.2993809,105.91147 L45.3246621,80.7738886 L84.5062109,80.7663341 L89.5388184,105.91147 Z" id="Shape" fill="#CCD1D9"></path>
                    <path d="M120.905469,83.2654788 C120.905469,84.658588 119.776529,85.7865791 118.385502,85.7865791 L2.51642187,85.7865791 C1.12917578,85.7865791 0.000236328125,84.6588241 0.000236328125,83.2654788 L0.000236328125,2.74750111 C0.000236328125,1.35793318 1.12917578,0.229942094 2.51642187,0.229942094 L118.385502,0.229942094 C119.776529,0.229942094 120.905469,1.3576971 120.905469,2.74750111 L120.905469,83.2654788 L120.905469,83.2654788 Z" id="Shape" fill="#F5F7FA"></path>
                    <path d="M2.51642187,85.7865791 L118.385502,85.7865791 C119.776529,85.7865791 120.905469,84.6588241 120.905469,83.2654788 L120.905469,70.6894878 L0,70.6894878 L0,83.2654788 C0,84.6588241 1.12917578,85.7865791 2.51642187,85.7865791 L2.51642187,85.7865791 Z" id="Shape" fill="#E6E9ED"></path>
                    <g id="Group" transform="translate(9.925781, 50.521158)" fill="#A0D468">
                        <rect id="Rectangle-path" x="0.147232422" y="0.0330512249" width="50.3804297" height="20.3713586"></rect>
                        <rect id="Rectangle-path" x="55.5631055" y="0.0330512249" width="50.3757031" height="20.3713586"></rect>
                    </g>
                    <path d="M62.9689199,78.2379154 C62.9689199,79.623706 61.8435254,80.751461 60.4527344,80.751461 C59.0619434,80.751461 57.9327676,79.623706 57.9327676,78.2379154 C57.9327676,76.8445702 59.061707,75.7165791 60.4527344,75.7165791 C61.8437617,75.7165791 62.9689199,76.8445702 62.9689199,78.2379154 L62.9689199,78.2379154 Z" id="Shape" fill="#434A54"></path>
                    <rect id="Rectangle-path" fill="#48CFAD" x="10.0730137" y="10.2954566" width="100.756133" height="35.2255234"></rect>
                    <path d="M40.2993809,100.883906 C38.9083535,100.883906 37.7831953,102.004343 37.7831953,103.397452 C37.7831953,104.783479 38.9085898,105.911234 40.2993809,105.911234 L87.0226328,105.911234 L87.0226328,100.88367 L40.2993809,100.883906 L40.2993809,100.883906 L40.2993809,100.883906 Z" id="Shape" fill="#E6E9ED"></path>
                    <path d="M93.1955234,30.424833 L27.7064004,30.424833 C26.315373,30.424833 25.1861973,29.2968419 25.1861973,27.9072739 C25.1861973,26.517706 26.315373,25.3937283 27.7064004,25.3937283 L93.1955234,25.3937283 C94.5867871,25.3937283 95.7157266,26.5179421 95.7157266,27.9072739 C95.7157266,29.2968419 94.5867871,30.424833 93.1955234,30.424833 L93.1955234,30.424833 Z" id="Shape" fill="#434A54"></path>
                    <rect id="Rectangle-path" fill="#48CFAD" x="82.0200391" y="37.9734967" width="34.8985742" height="40.2658352"></rect>
                    <rect id="Rectangle-path" fill="#A0D468" x="82.0200391" y="78.236971" width="34.8985742" height="20.7797773"></rect>
                    <g id="Group" transform="translate(77.988281, 32.815145)" fill="#434A54">
                        <path d="M37.8772539,0.127011136 L5.13422852,0.127011136 C2.35241016,0.127011136 0.0940585938,2.37921604 0.0940585938,5.15835189 L0.0940585938,68.0687617 C0.0940585938,70.8478976 2.35241016,73.0963252 5.13422852,73.0963252 L37.8772539,73.0963252 C40.6628535,73.0963252 42.9171875,70.8481336 42.9171875,68.0687617 L42.9171875,5.15835189 C42.9171875,2.37921604 40.6628535,0.127011136 37.8772539,0.127011136 L37.8772539,0.127011136 Z M37.8772539,68.0687617 L5.13422852,68.0687617 L5.13422852,5.15835189 L37.8772539,5.15835189 L37.8772539,68.0687617 L37.8772539,68.0687617 Z" id="Shape"></path>
                        <rect id="Rectangle-path" x="3.92068359" y="63.0334076" width="35.2294336" height="6.34725167"></rect>
                    </g>
                    <path d="M101.995437,100.883906 C101.995437,102.269697 100.866498,103.397452 99.4754707,103.397452 C98.0844434,103.397452 96.9592852,102.269697 96.9592852,100.883906 C96.9592852,99.4907973 98.0846797,98.3628062 99.4754707,98.3628062 C100.866262,98.3628062 101.995437,99.4907973 101.995437,100.883906 L101.995437,100.883906 Z" id="Shape" fill="#E6E9ED"></path>
                    <path d="M108.301381,60.6197238 L90.6495605,60.6197238 C89.2587695,60.6197238 88.1295937,59.4917327 88.1295937,58.1059421 C88.1295937,56.712833 89.2587695,55.5921604 90.6495605,55.5921604 L108.301381,55.5921604 C109.692408,55.5921604 110.821348,56.712833 110.821348,58.1059421 C110.821348,59.4914967 109.692408,60.6197238 108.301381,60.6197238 L108.301381,60.6197238 Z" id="Shape" fill="#434A54"></path>
                </g>
            </g>
        </g>
    </g>
</svg>