<?xml version="1.0" encoding="UTF-8" standalone="no"?>
<svg width="161px" height="126px" viewBox="0 0 161 126" version="1.1" xmlns="http://www.w3.org/2000/svg" xmlns:xlink="http://www.w3.org/1999/xlink" xmlns:sketch="http://www.bohemiancoding.com/sketch/ns">
    <!-- Generator: Sketch 3.4.4 (17249) - http://www.bohemiancoding.com/sketch -->
    <title>eye + 668,000 + impressions each mon copy</title>
    <desc>Created with Sketch.</desc>
    <defs></defs>
    <g id="Page-1" stroke="none" stroke-width="1" fill="none" fill-rule="evenodd" sketch:type="MSPage">
        <g id="Desktop-HD" sketch:type="MSArtboardGroup" transform="translate(-166.000000, -927.000000)">
            <g id="eye-+-668,000-+-impressions-each-mon-copy" sketch:type="MSLayerGroup" transform="translate(155.000000, 927.000000)">
                <g id="certificate" transform="translate(49.000000, 9.000000)" sketch:type="MSShapeGroup">
                    <path d="M54.5650506,34.8480554 L21.8508101,49.724505 L48.2933418,108.210236 L62.5315949,96.1390792 L80.9227975,93.4188277 L54.5650506,34.8480554 L54.5650506,34.8480554 Z" id="Shape" fill="#2B414D"></path>
                    <path d="M30.3260633,35.4431307 L63.0403038,50.3195802 L36.5977722,108.890352 L22.359519,96.7341545 L3.88374684,94.013903 C3.88353165,94.013903 30.3260633,35.4431307 30.3260633,35.4431307 L30.3260633,35.4431307 Z" id="Shape" fill="#475F6C"></path>
                    <path d="M84.8213924,42.5838178 C84.8213924,45.7290614 80.329519,48.3644871 79.6514557,51.3396475 C78.9733924,54.3998495 81.9397848,58.7354594 80.668443,61.5407525 C79.3123165,64.3460455 74.1425949,64.685996 72.2779747,67.066297 C70.4133544,69.446598 71.2609873,74.7170178 68.8878734,76.6723267 C66.5147595,78.6276356 61.7687468,76.5872851 59.0567089,77.9475188 C56.3446709,79.3077525 54.9039747,84.4080891 51.9375823,85.0882059 C49.0559747,85.7683228 45.5813038,81.8579208 42.5301266,81.8579208 C39.4791646,81.8579208 36.0042785,85.7683228 33.1226709,85.0882059 C30.1562785,84.4080891 28.7155823,79.3075366 26.0035443,77.9475188 C23.2915063,76.5872851 18.4607089,78.6276356 16.1723797,76.6723267 C13.7992658,74.7172337 14.6468987,69.446598 12.7822785,67.066297 C10.9176582,64.685996 5.74793671,64.3460455 4.39181013,61.5407525 C3.12046835,58.820501 6.08686076,54.4000653 5.40879747,51.3396475 C4.56137975,48.3642713 0.0695063291,45.7290614 0.0695063291,42.5838178 C0.0695063291,39.4385743 4.56137975,36.8031485 5.23944304,33.8279881 C5.91750633,30.7677861 2.95111392,26.4321762 4.2224557,23.6268832 C5.57858228,20.8215901 10.7483038,20.4816396 12.6129241,18.1013386 C14.4775443,15.7210376 13.6299114,10.4506178 16.0030253,8.49530891 C18.3761392,6.54 23.1221519,8.5803505 25.8341899,7.22011683 C28.5462278,5.85988317 29.9869241,0.759546535 32.9533165,0.079429703 C35.8349241,-0.600687129 39.3095949,3.30971485 42.3607722,3.30971485 C45.4117342,3.30971485 48.8866203,-0.600687129 51.7682278,0.079429703 C54.7346203,0.759546535 56.1753165,5.86009901 58.8873544,7.22011683 C61.5993924,8.5803505 66.4301899,6.54 68.718519,8.49530891 C71.0916329,10.450402 70.244,15.7210376 72.1086203,18.1013386 C73.9732405,20.4816396 79.142962,20.8215901 80.4990886,23.6268832 C81.7704304,26.3471347 78.804038,30.7675703 79.4821013,33.8279881 C80.329519,36.8033644 84.8213924,39.4385743 84.8213924,42.5838178 L84.8213924,42.5838178 Z" id="Shape" fill="#EFC75E"></path>
                    <path d="M42.445557,25.5821921 C33.0381013,25.5821921 25.4952658,33.2329129 25.4952658,42.5838178 C25.4952658,51.9347228 33.1228861,59.5854436 42.445557,59.5854436 C51.8530127,59.5854436 59.3958481,51.9347228 59.3958481,42.5838178 C59.3958481,33.2329129 51.8527975,25.5821921 42.445557,25.5821921 L42.445557,25.5821921 Z M42.445557,50.2345386 C38.208038,50.2345386 34.8179367,46.8341703 34.8179367,42.5838178 C34.8179367,38.3334653 38.208038,34.933097 42.445557,34.933097 C46.6830759,34.933097 50.0731772,38.3334653 50.0731772,42.5838178 C50.0731772,46.8341703 46.6830759,50.2345386 42.445557,50.2345386 L42.445557,50.2345386 Z M42.445557,11.9807188 C25.5800506,11.9807188 11.9348608,25.6670178 11.9348608,42.5838178 C11.9348608,59.5006178 25.5798354,73.1869168 42.445557,73.1869168 C59.3112785,73.1869168 72.956038,59.500402 72.956038,42.5838178 C72.956038,25.6672337 59.3110633,11.9807188 42.445557,11.9807188 L42.445557,11.9807188 Z M42.445557,68.0863644 C28.3768734,68.0863644 17.0200127,56.6953248 17.0200127,42.5838178 C17.0200127,28.4723109 28.3766582,17.0812713 42.445557,17.0812713 C56.5144557,17.0812713 67.8711013,28.4723109 67.8711013,42.5838178 C67.8711013,56.6953248 56.5142405,68.0863644 42.445557,68.0863644 L42.445557,68.0863644 Z" id="Shape" fill="#D7B354"></path>
                </g>
            </g>
        </g>
    </g>
</svg>