<?xml version="1.0" encoding="UTF-8" standalone="no"?>
<svg width="348px" height="289px" viewBox="0 0 348 289" version="1.1" xmlns="http://www.w3.org/2000/svg" xmlns:xlink="http://www.w3.org/1999/xlink" xmlns:sketch="http://www.bohemiancoding.com/sketch/ns">
    <!-- Generator: Sketch 3.4.4 (17249) - http://www.bohemiancoding.com/sketch -->
    <title>Desktop</title>
    <desc>Created with Sketch.</desc>
    <defs></defs>
    <g id="Page-1" stroke="none" stroke-width="1" fill="none" fill-rule="evenodd" sketch:type="MSPage">
        <g id="Desktop-HD" sketch:type="MSArtboardGroup" transform="translate(-977.000000, -147.000000)">
            <g id="Desktop" sketch:type="MSLayerGroup" transform="translate(992.000000, 160.000000)">
                <path d="M199.118346,253.383194 L118.569819,253.383194 L123.177994,218.715222 L195.167748,218.715222 L199.118346,253.383194" id="Fill-1" fill="#767B80" sketch:type="MSShapeGroup"></path>
                <path d="M0,189.681014 L0,211.087569 C0,215.433014 3.55502423,218.989639 7.90170921,218.989639 L309.788511,218.989639 C314.130058,218.989639 317.685082,215.433014 317.685082,211.087569 L317.685082,189.681014 L0,189.681014" id="Fill-2" fill="#C0C8CB" sketch:type="MSShapeGroup"></path>
                <path d="M317.685082,7.90258333 C317.685082,3.55611111 314.130058,0 309.788511,0 L7.90170921,0 C3.55502423,0 0,3.55611111 0,7.90258333 L0,189.681014 L317.685082,189.681014 L317.685082,7.90258333" id="Fill-3" fill="#343433" sketch:type="MSShapeGroup"></path>
                <path d="M11.5798319,10.6804124 L306.881105,10.6804124 L306.881105,179.286843 L11.5798319,179.286843 L11.5798319,10.6804124 Z" id="Fill-4" fill="#0C78ED" sketch:type="MSShapeGroup"></path>
                <path d="M118.569819,253.383194 L199.118346,253.383194 L213.285015,256.732722 L104.401095,256.813403 L118.569819,253.383194" id="Fill-5" fill="#C0C8CB" sketch:type="MSShapeGroup"></path>
                <path d="M212.5437,258.594542 L105.140869,258.594542 L104.428837,256.813403 L213.285015,256.732722 L212.5437,258.594542" id="Fill-6" fill="#767B80" sketch:type="MSShapeGroup"></path>
                <path d="M164.494362,205.268806 C164.494362,208.390167 161.964233,210.920556 158.843826,210.920556 C155.718795,210.920556 153.191748,208.390167 153.191748,205.268806 C153.191748,202.145389 155.718795,199.613972 158.843826,199.613972 C161.964233,199.613972 164.494362,202.145389 164.494362,205.268806" id="Fill-7" fill="#343433" sketch:type="MSShapeGroup"></path>
                <path d="M166.835938,109.664062 L166.835938,103.698242 L161.310547,103.698242 L161.310547,117.191406 C161.657554,117.298178 161.991209,117.351562 162.311523,117.351562 C163.752937,117.351562 164.874019,116.764329 165.674805,115.589844 C166.448897,114.415359 166.835938,112.813812 166.835938,110.785156 L166.835938,109.664062 Z M161.310547,88.3632812 L161.310547,97.5722656 L166.835938,97.5722656 L166.835938,88.5234375 C166.835938,85.9609247 166.64909,84.1992236 166.275391,83.2382812 C165.901691,82.3040318 165.207687,81.8369141 164.193359,81.8369141 C163.098953,81.8369141 162.351565,82.317378 161.951172,83.2783203 C161.524086,84.2392626 161.310547,85.9342326 161.310547,88.3632812 L161.310547,88.3632812 Z M166.835938,102.256836 L166.835938,99.0136719 L161.310547,99.0136719 L161.310547,102.256836 L166.835938,102.256836 Z M171.200195,73.5488281 C173.015309,74.242842 174.430008,75.4306557 175.444336,77.1123047 C176.351893,78.580411 176.805664,81.2496551 176.805664,85.1201172 L176.805664,86.4814453 L176.805664,113.547852 L176.845703,114.789062 C176.872396,115.910162 177.045897,116.750974 177.366211,117.311523 C177.633139,117.791995 178.287104,118.392575 179.328125,119.113281 C178.820961,119.887374 178.327151,120.474607 177.84668,120.875 C177.28613,121.302085 176.512049,121.769203 175.524414,122.276367 C174.483393,122.810224 173.776044,123.304034 173.402344,123.757812 C173.001951,124.184898 172.654949,124.932286 172.361328,126 C170.546215,125.679686 169.198247,124.892259 168.317383,123.637695 C167.91699,123.050453 167.610027,122.356449 167.396484,121.555664 C167.156249,120.6748 166.942709,119.393563 166.755859,117.711914 L166.71582,117.151367 C166.155271,118.165695 165.38119,119.099931 164.393555,119.954102 L162.631836,121.475586 C161.190422,122.703457 160.45638,124.21158 160.429688,126 L160.069336,126 C156.092103,126 152.488623,125.105803 149.258789,123.317383 C146.002262,121.50227 143.46648,119.033219 141.651367,115.910156 C139.809561,112.733708 138.888672,109.223652 138.888672,105.379883 C138.888672,102.897449 139.369136,100.441744 140.330078,98.0126953 C141.237635,95.6370324 142.598949,93.3414824 144.414062,91.1259766 C146.149097,88.9638564 148.231108,87.0286544 150.660156,85.3203125 C152.555348,84.0390561 153.729815,83.3984375 154.183594,83.3984375 C154.450522,83.3984375 154.583984,83.5185535 154.583984,83.7587891 C154.583984,83.9189461 154.383791,84.1858705 153.983398,84.5595703 C151.954742,86.1878337 150.313157,88.3766139 149.058594,91.1259766 C147.80403,93.8753393 147.176758,96.6113145 147.176758,99.3339844 C147.176758,102.003269 147.69726,104.53905 148.738281,106.941406 C149.779302,109.343762 151.274079,111.39908 153.222656,113.107422 C155.171234,114.815764 157.426745,116.110347 159.989258,116.991211 L159.989258,77.9130859 C158.360994,78.9274139 156.932949,79.6347636 155.705078,80.0351562 C154.583979,80.3821632 153.049163,80.5556641 151.100586,80.5556641 C150.112951,80.5556641 148.684905,80.488933 146.816406,80.3554688 C145.081372,80.2486974 143.800134,80.1953125 142.972656,80.1953125 C140.650379,80.1953125 138.741869,80.7425075 137.24707,81.8369141 C135.778964,82.9046277 135.044922,84.3593658 135.044922,86.2011719 C135.044922,87.4290426 135.445308,88.4700478 136.246094,89.3242188 C137.020186,90.2050825 137.941075,90.6455078 139.008789,90.6455078 C140.156581,90.6455078 141.197586,90.2584674 142.131836,89.484375 C142.665693,89.0305967 142.999348,88.8037109 143.132812,88.8037109 C143.506512,88.8037109 143.693359,89.0039042 143.693359,89.4042969 C143.693359,89.9648466 143.132818,90.5520803 142.011719,91.1660156 C140.917312,91.7532581 139.756191,92.046875 138.52832,92.046875 C137.006828,92.046875 135.65886,91.6331422 134.484375,90.8056641 C133.283197,90.0048788 132.335615,88.8971425 131.641602,87.4824219 C130.920895,86.0677013 130.560547,84.5195397 130.560547,82.8378906 C130.560547,81.2897058 130.880856,79.7949291 131.521484,78.3535156 C132.162113,76.938795 133.042963,75.7109427 134.164062,74.6699219 C135.258469,73.6555939 136.619784,72.8414744 138.248047,72.2275391 C139.769539,71.6402965 141.42447,71.3466797 143.212891,71.3466797 C145.93556,71.3466797 149.245423,72.4944547 153.142578,74.7900391 C154.236985,75.4306673 155.117835,75.8710925 155.785156,76.1113281 C156.47917,76.3515637 157.253251,76.4716797 158.107422,76.4716797 C158.587893,76.4716797 159.215165,76.3649099 159.989258,76.1513672 L159.989258,75.6308594 C160.122722,72.2942542 160.910149,70.6259766 162.351562,70.6259766 C163.098962,70.6259766 163.472656,71.0930943 163.472656,72.0273438 C163.472656,73.2018288 162.75196,74.7499904 161.310547,76.671875 L161.310547,81.5166016 C162.111332,80.6891235 162.832028,80.0618511 163.472656,79.6347656 C164.193363,79.1542945 165.36783,78.5136759 166.996094,77.7128906 C168.170579,77.0989553 169.051429,76.4983753 169.638672,75.9111328 C170.252607,75.2971975 170.77311,74.5097704 171.200195,73.5488281 L171.200195,73.5488281 Z" id="U" fill="#FFFFFF" sketch:type="MSShapeGroup"></path>
            </g>
        </g>
    </g>
</svg>
