<?xml version="1.0" encoding="UTF-8" standalone="no"?>
<svg width="156px" height="117px" viewBox="0 0 156 117" version="1.1" xmlns="http://www.w3.org/2000/svg" xmlns:xlink="http://www.w3.org/1999/xlink" xmlns:sketch="http://www.bohemiancoding.com/sketch/ns">
    <!-- Generator: Sketch 3.4.4 (17249) - http://www.bohemiancoding.com/sketch -->
    <title>Desktop HD</title>
    <desc>Created with Sketch.</desc>
    <defs></defs>
    <g id="Page-1" stroke="none" stroke-width="1" fill="none" fill-rule="evenodd" sketch:type="MSPage">
        <g id="Desktop-HD" sketch:type="MSArtboardGroup" transform="translate(-373.000000, -1207.000000)">
            <g id="news-+-Desktop-HD" sketch:type="MSLayerGroup" transform="translate(373.000000, 1207.000000)">
                <g id="rgb" transform="translate(24.000000, 7.000000)" sketch:type="MSShapeGroup">
                    <path d="M54.4555102,43.0727273 C60.1502041,38.4354978 67.4465306,35.7601732 75.4546939,35.7601732 C79.7257143,35.7601732 83.8187755,36.6519481 87.7338776,38.0787879 C87.9118367,36.6519481 88.0897959,35.0467532 88.0897959,33.6199134 C88.0897959,15.0709957 73.1412245,0.0891774892 54.6334694,0.0891774892 C36.1257143,0.0891774892 21.1771429,15.0709957 21.1771429,33.6199134 C21.1771429,35.2251082 21.355102,36.6519481 21.5330612,38.0787879 C25.2702041,36.6519481 29.3632653,35.7601732 33.8122449,35.7601732 C41.4644898,35.7601732 48.7608163,38.6138528 54.4555102,43.0727273 L54.4555102,43.0727273 Z" id="Shape" fill="#F4AD31"></path>
                    <path d="M33.4563265,35.7601732 C41.4644898,35.7601732 48.5828571,38.6138528 54.4555102,43.0727273 C60.1502041,38.4354978 67.4465306,35.7601732 75.4546939,35.7601732 C79.7257143,35.7601732 83.8187755,36.6519481 87.7338776,38.0787879 C87.9118367,36.6519481 88.0897959,35.0467532 88.0897959,33.6199134 C88.0897959,15.0709957 73.1412245,0.0891774892 54.6334694,0.0891774892" id="Shape" fill="#E2821A"></path>
                    <path d="M41.8204082,69.2909091 C41.8204082,67.6857143 41.9983673,66.2588745 42.1763265,64.8320346 C31.1428571,60.5515152 22.9567347,50.3852814 21.1771429,38.0787879 C8.89795918,43.0727273 0,55.0225108 0,69.2909091 C0,87.8398268 14.9485714,102.821645 33.4563265,102.821645 C41.4644898,102.821645 48.5828571,99.9679654 54.4555102,95.5090909 C46.8032653,89.2666667 41.8204082,79.8138528 41.8204082,69.2909091 L41.8204082,69.2909091 Z" id="Shape" fill="#D32A0F"></path>
                    <path d="M33.4563265,102.821645 C41.4644898,102.821645 48.5828571,99.9679654 54.4555102,95.5090909 C46.8032653,89.4450216 41.8204082,79.9922078 41.8204082,69.2909091 C41.8204082,67.6857143 41.9983673,66.2588745 42.1763265,64.8320346" id="Shape" fill="#B71100"></path>
                    <path d="M87.5559184,38.0787879 C85.9542857,50.3852814 77.7681633,60.3731602 66.5567347,64.8320346 C66.7346939,66.2588745 66.9126531,67.8640693 66.9126531,69.2909091 C66.9126531,79.8138528 61.9297959,89.2666667 54.277551,95.5090909 C59.9722449,100.14632 67.2685714,102.821645 75.2767347,102.821645 C93.7844898,102.821645 108.733061,87.8398268 108.733061,69.2909091 C108.91102,55.0225108 100.013061,43.0727273 87.5559184,38.0787879 L87.5559184,38.0787879 Z" id="Shape" fill="#0878A0"></path>
                    <path d="M54.4555102,95.5090909 C60.1502041,100.14632 67.4465306,102.821645 75.4546939,102.821645 C93.962449,102.821645 108.91102,87.8398268 108.91102,69.2909091" id="Shape" fill="#0C6C8E"></path>
                    <path d="M54.4555102,43.0727273 C47.8710204,48.2450216 43.4220408,55.9142857 42.1763265,64.6536797 C45.9134694,66.0805195 50.0065306,66.9722944 54.4555102,66.9722944 C58.7265306,66.9722944 62.8195918,66.0805195 66.7346939,64.6536797 C65.4889796,56.0926407 61.04,48.4233766 54.4555102,43.0727273 L54.4555102,43.0727273 Z" id="Shape" fill="#3D3736"></path>
                    <path d="M54.4555102,67.1506494 C58.7265306,67.1506494 62.8195918,66.2588745 66.7346939,64.8320346 C65.4889796,56.0926407 61.04,48.4233766 54.4555102,43.2510823" id="Shape" fill="#000000"></path>
                    <path d="M66.7346939,64.8320346 C77.7681633,60.5515152 85.9542857,50.3852814 87.7338776,38.0787879 C83.9967347,36.6519481 79.9036735,35.7601732 75.4546939,35.7601732 C67.6244898,35.7601732 60.3281633,38.6138528 54.4555102,43.0727273 C61.04,48.4233766 65.4889796,56.0926407 66.7346939,64.8320346 L66.7346939,64.8320346 Z" id="Shape" fill="#0CAA7D"></path>
                    <path d="M54.4555102,43.0727273 C48.7608163,38.4354978 41.4644898,35.7601732 33.4563265,35.7601732 C29.1853061,35.7601732 25.0922449,36.6519481 21.1771429,38.0787879 C22.7787755,50.3852814 30.964898,60.3731602 42.1763265,64.8320346 C43.4220408,56.0926407 47.8710204,48.4233766 54.4555102,43.0727273 L54.4555102,43.0727273 Z" id="Shape" fill="#720D20"></path>
                    <path d="M67.0906122,69.2909091 C67.0906122,67.6857143 66.9126531,66.2588745 66.7346939,64.8320346 C62.997551,66.2588745 58.9044898,67.1506494 54.4555102,67.1506494 C50.1844898,67.1506494 46.0914286,66.2588745 42.1763265,64.8320346 C41.9983673,66.2588745 41.8204082,67.8640693 41.8204082,69.2909091 C41.8204082,79.8138528 46.8032653,89.2666667 54.4555102,95.5090909 C62.1077551,89.2666667 67.0906122,79.8138528 67.0906122,69.2909091 L67.0906122,69.2909091 Z" id="Shape" fill="#783089"></path>
                </g>
            </g>
        </g>
    </g>
</svg>