<?xml version="1.0" encoding="UTF-8" standalone="no"?>
<svg width="169px" height="114px" viewBox="0 0 169 114" version="1.1" xmlns="http://www.w3.org/2000/svg" xmlns:xlink="http://www.w3.org/1999/xlink" xmlns:sketch="http://www.bohemiancoding.com/sketch/ns">
    <!-- Generator: Sketch 3.4.4 (17249) - http://www.bohemiancoding.com/sketch -->
    <title>eye</title>
    <desc>Created with Sketch.</desc>
    <defs></defs>
    <g id="Page-1" stroke="none" stroke-width="1" fill="none" fill-rule="evenodd" sketch:type="MSPage">
        <g id="Desktop-HD" sketch:type="MSArtboardGroup" transform="translate(-530.000000, -928.000000)">
            <g id="eye-+-668,000-+-impressions-each-mon" sketch:type="MSLayerGroup" transform="translate(516.000000, 937.000000)">
                <g id="eye" transform="translate(22.000000, 0.000000)" sketch:type="MSShapeGroup">
                    <path d="M76.4381187,95.9964497 C60.7798887,95.9964497 45.4815918,91.6878107 32.1971327,83.5354793 C19.2914833,75.6154793 8.7123423,64.368568 1.60323562,51.0106509 L0,47.9984379 L1.60323562,44.9862249 C8.7123423,31.6281657 19.2914833,20.3812544 32.1971327,12.4613964 C45.4815918,4.30906509 60.7798887,0 76.4381187,0 C92.0963488,0 107.394646,4.30906509 120.678963,12.4613964 C133.584612,20.3812544 144.164037,31.6281657 151.273286,44.9862249 L152.87567,47.9984379 L151.273286,51.0106509 C144.164037,64.3687101 133.584612,75.6154793 120.678963,83.5354793 C107.394646,91.6878107 92.0963488,95.9964497 76.4381187,95.9964497 L27.7700786,47.0329949" id="Fill-3" fill="#F8F8F8"></path>
                    <ellipse id="Oval-5" fill="#2CA5AC" cx="76.5" cy="47.7563452" rx="28.2611465" ry="28.2639594"></ellipse>
                    <ellipse id="Oval-5" fill="#000000" cx="76.7436306" cy="48" rx="14.3742038" ry="14.3756345"></ellipse>
                    <ellipse id="Oval-5-Copy" fill="#FFFFFF" cx="68.7038217" cy="39.9593909" rx="6.3343949" ry="6.33502538"></ellipse>
                </g>
            </g>
        </g>
    </g>
</svg>