<?xml version="1.0" encoding="UTF-8" standalone="no"?>
<svg width="156px" height="136px" viewBox="0 0 156 136" version="1.1" xmlns="http://www.w3.org/2000/svg" xmlns:xlink="http://www.w3.org/1999/xlink" xmlns:sketch="http://www.bohemiancoding.com/sketch/ns">
    <!-- Generator: Sketch 3.4.4 (17249) - http://www.bohemiancoding.com/sketch -->
    <title>eye + 668,000 + impressions each mon</title>
    <desc>Created with Sketch.</desc>
    <defs></defs>
    <g id="Page-1" stroke="none" stroke-width="1" fill="none" fill-rule="evenodd" sketch:type="MSPage">
        <g id="Desktop-HD" sketch:type="MSArtboardGroup" transform="translate(-539.000000, -911.000000)">
            <g id="eye-+-668,000-+-impressions-each-mon" sketch:type="MSLayerGroup" transform="translate(516.000000, 911.000000)">
                <g id="eye" transform="translate(32.000000, 24.000000)" sketch:type="MSShapeGroup">
                    <path d="M69.4437811,87.9967456 C55.2183302,87.9967456 41.3198776,84.0471598 29.2509898,76.5741893 C17.5262495,69.3141893 7.91513451,59.0045207 1.45653432,46.7597633 L0,43.998568 L1.45653432,41.2373728 C7.91513451,28.9924852 17.5262495,18.6828166 29.2509898,11.4229467 C41.3198776,3.94997633 55.2183302,0 69.4437811,0 C83.6692319,0 97.5676846,3.94997633 109.636443,11.4229467 C121.361184,18.6828166 130.972557,28.9924852 137.431286,41.2373728 L138.887046,43.998568 L137.431286,46.7597633 C130.972557,59.0046509 121.361184,69.3141893 109.636443,76.5741893 C97.5676846,84.0471598 83.6692319,87.9967456 69.4437811,87.9967456 L25.2290257,43.1135787" id="Fill-3" fill="#F8F8F8"></path>
                    <ellipse id="Oval-5" fill="#2CA5AC" cx="69.5" cy="43.7766497" rx="25.6751592" ry="25.9086294"></ellipse>
                    <ellipse id="Oval-5" fill="#000000" cx="69.7213376" cy="44" rx="13.0589172" ry="13.177665"></ellipse>
                    <ellipse id="Oval-5-Copy" fill="#FFFFFF" cx="62.4171975" cy="36.6294416" rx="5.75477707" ry="5.8071066"></ellipse>
                </g>
            </g>
        </g>
    </g>
</svg>