<?xml version="1.0" encoding="UTF-8"?>
<svg width="616px" height="506px" viewBox="0 0 616 506" version="1.1" xmlns="http://www.w3.org/2000/svg" xmlns:xlink="http://www.w3.org/1999/xlink">
    <!-- Generator: Sketch 45 (43475) - http://www.bohemiancoding.com/sketch -->
    <title>Slice</title>
    <desc>Created with Sketch.</desc>
    <defs></defs>
    <g id="Page-1" stroke="none" stroke-width="1" fill="none" fill-rule="evenodd">
        <g id="reading" transform="translate(136.000000, 13.000000)" fill-rule="nonzero">
            <path d="M144.854,158.944 C162.951,158.944 181.045,158.944 199.14,158.944 L203.538,204.696 L216.824,214.449 L295.869,239.505 C295.869,239.505 306.235,245.208 309.282,261.154 C312.322,277.101 313.803,312.359 316.155,333.873 C262.075,395.854 85.621,395.95 27.846,333.875 C30.198,312.361 31.674,277.101 34.718,261.153 C37.761,245.207 48.131,239.504 48.131,239.504 L127.717,214.103 L140.462,204.7 L144.854,158.944 L144.854,158.944 Z" id="Shape" fill="#FED198"></path>
            <path d="M201.529,183.787 L202.227,191.045 C198.185,195.751 194.022,200.248 190.088,204.579 C185.629,209.487 158.035,209.575 153.53,204.38 C149.852,200.135 145.81,195.536 141.811,190.643 L142.503,183.434 C146.275,187.811 150.066,191.934 153.53,195.754 C158.035,200.717 185.629,200.633 190.088,195.943 C193.797,192.041 197.707,188.002 201.529,183.787 L201.529,183.787 Z" id="Shape" fill="#F0B97D"></path>
            <path d="M127.717,214.105 L48.129,239.505 C48.129,239.505 37.762,245.208 34.718,261.154 C31.675,277.101 30.197,312.361 27.846,333.876 C85.621,395.95 262.076,395.855 316.155,333.874 C313.801,312.361 312.322,277.102 309.282,261.155 C306.234,245.209 295.87,239.506 295.87,239.506 L216.824,214.449 C203.729,252.859 140.2,251.257 127.717,214.105 L127.717,214.105 Z" id="Shape" fill="#FF5B61"></path>
            <path d="M104.217,89.455 C87.192,86.436 101.706,137.281 114.142,129.701 L120.815,149.298 C126.827,166.952 141.989,183.026 153.53,195.751 C158.035,200.716 185.629,200.632 190.088,195.941 C202.867,182.503 218.049,167.406 223.75,149.199 L229.857,129.701 C242.31,137.273 256.794,86.439 239.781,89.455 C240.961,49.877 212.974,11.479 172.001,11.303 C131.026,11.479 103.038,49.877 104.217,89.455 L104.217,89.455 Z" id="Shape" fill="#FED198"></path>
            <path d="M220.87,19.096 C225.679,18.537 243.053,34.406 245.136,52.784 C247.222,71.162 244.055,90.104 244.055,90.104 C231.326,88.514 233.769,111.35 233.769,111.35 L230.083,111.51 L227.457,98.269 C212.23,88.727 233.464,51.025 218.231,47.717 C192.163,69.189 153.493,77.135 119.75,71.62 C110.28,72.884 124.059,84.854 120.061,98.623 C117.116,103.767 118.873,111.873 118.873,111.873 L114.468,112.423 C114.468,112.423 111.741,89.39 103.246,89.487 C99.318,78.878 100.126,72.152 100.847,62.672 C104.841,10.126 171.6,-22.857 220.87,19.096 L220.87,19.096 Z" id="Shape" fill="#666666"></path>
            <g id="Group" transform="translate(28.000000, 245.000000)" fill="#FFFFFF">
                <path d="M0.324,3.977 C88.925,-7.605 124.185,14.627 144,32.129 C114.552,15.176 58.035,16.296 2.813,26.163 L0.324,3.977 L0.324,3.977 Z" id="Shape"></path>
                <path d="M287.673,3.977 C199.077,-7.605 163.816,14.626 144.001,32.129 C179.132,11.901 245.157,19.159 285.135,26.478 L287.673,3.977 L287.673,3.977 Z" id="Shape"></path>
            </g>
            <path d="M6.479,274.655 C68.956,260.418 138.974,255.922 172.95,275.484 C206.93,255.923 275.039,260.418 337.52,274.655 C333.943,397.572 336.927,294.981 332.16,459.038 C328.498,458.347 229.752,443.661 182.021,457.983 C174.074,457.978 172.23,457.978 164.251,457.983 C111.847,442.741 15.275,458.39 11.834,459.038 C6.913,289.648 10.174,402.001 6.479,274.655 L6.479,274.655 Z" id="Shape" fill="#15BDB1"></path>
            <g id="Group" transform="translate(14.000000, 255.000000)" fill="#DFE1E3">
                <path d="M0.367,8.663 L1.318,18.429 C61.672,5.618 127.24,2.294 159.769,21.023 L159.769,21.022 C159.655,20.936 111.464,-15.301 0.367,8.663 Z" id="Shape"></path>
                <path d="M315.631,9.204 L314.681,18.971 C254.324,6.16 188.76,2.836 156.229,21.565 L156.228,21.564 C156.343,21.479 204.536,-14.757 315.631,9.204 L315.631,9.204 Z" id="Shape"></path>
            </g>
            <path d="M40.451,324.76 L23.049,325.69 L5.727,326.916 C-1.442,327.428 -0.245,340.268 6.9,339.424 L25.779,337.187 L40.119,335.981 C47.287,335.373 45.268,324.5 40.451,324.76 Z M38.061,364.706 L38.061,364.706 L11.071,367.862 C5.281,368.535 6.675,381.434 12.242,380.366 L39.316,375.157 C44.97,374.069 43.773,364.039 38.061,364.706 L38.061,364.706 Z M41.491,350.703 L41.491,350.703 C48.654,350.032 50.116,361.096 42.977,362.008 L8.805,366.374 C1.67,367.286 0.477,354.54 7.636,353.872 L41.491,350.703 L41.491,350.703 Z M46.262,336.727 L46.262,336.727 C54.65,335.942 55.819,348.446 47.434,349.232 L7.722,352.949 C-0.661,353.734 -1.83,341.23 6.549,340.446 L46.262,336.727 L46.262,336.727 Z" id="Shape" fill="#FED198"></path>
            <g id="Group" transform="translate(36.000000, 326.000000)" fill="#FFFFFF">
                <path d="M2.199,1.601 L2.811,8.136 L7.17,7.728 C7.902,5.279 7.593,2.968 6.516,0.738 L2.199,1.601 Z" id="Shape"></path>
                <path d="M9.686,13.752 L10.38,21.173 L14.45,20.791 C15.889,17.987 15.826,15.323 13.707,12.854 L9.686,13.752 Z" id="Shape"></path>
                <path d="M4.251,27.624 L4.863,34.155 L9.853,33.689 C10.369,31.29 10.172,28.959 9.198,26.7 L4.251,27.624 Z" id="Shape"></path>
                <path d="M0.162,42.062 L0.956,47.233 L5.96,46.376 C6.414,44.408 6.151,42.56 5.11,40.844 L0.162,42.062 Z" id="Shape"></path>
            </g>
            <path d="M303.546,324.76 L320.947,325.69 L338.269,326.916 C345.44,327.428 344.243,340.268 337.098,339.424 L318.217,337.187 L303.88,335.981 C296.709,335.373 298.731,324.5 303.546,324.76 L303.546,324.76 Z M305.936,364.706 L305.936,364.706 L332.928,367.862 C338.718,368.535 337.321,381.434 331.756,380.366 L304.684,375.157 C299.027,374.069 300.223,364.039 305.936,364.706 L305.936,364.706 Z M302.505,350.703 L302.505,350.703 C295.342,350.032 293.881,361.096 301.021,362.008 L335.191,366.374 C342.326,367.286 343.521,354.54 336.362,353.872 L302.505,350.703 L302.505,350.703 Z M297.736,336.727 L297.736,336.727 C289.348,335.942 288.178,348.446 296.565,349.232 L336.277,352.949 C344.658,353.734 345.826,341.23 337.449,340.446 L297.736,336.727 Z" id="Shape" fill="#FED198"></path>
            <g id="Group" transform="translate(292.000000, 326.000000)" fill="#FFFFFF">
                <path d="M13.799,1.601 L13.186,8.136 L8.829,7.728 C8.095,5.279 8.404,2.968 9.483,0.738 L13.799,1.601 Z" id="Shape"></path>
                <path d="M6.313,13.752 L5.618,21.173 L1.548,20.791 C0.107,17.987 0.172,15.323 2.292,12.854 L6.313,13.752 L6.313,13.752 Z" id="Shape"></path>
                <path d="M11.745,27.624 L11.133,34.155 L6.146,33.689 C5.629,31.29 5.827,28.959 6.799,26.7 L11.745,27.624 Z" id="Shape"></path>
                <path d="M15.837,42.062 L15.041,47.233 L10.038,46.376 C9.584,44.408 9.847,42.56 10.888,40.844 L15.837,42.062 L15.837,42.062 Z" id="Shape"></path>
            </g>
            <polygon id="Shape" fill="#20D0C2" points="164.45 457.98 182.023 457.98 182.023 271.391 164.45 271.391"></polygon>
        </g>
    </g>
</svg>